<?xml version="1.0" encoding="UTF-8" standalone="no"?>
<!-- Created with Inkscape (http://www.inkscape.org/) -->

<svg
   xmlns:dc="http://purl.org/dc/elements/1.1/"
   xmlns:cc="http://creativecommons.org/ns#"
   xmlns:rdf="http://www.w3.org/1999/02/22-rdf-syntax-ns#"
   xmlns:svg="http://www.w3.org/2000/svg"
   xmlns="http://www.w3.org/2000/svg"
   xmlns:sodipodi="http://sodipodi.sourceforge.net/DTD/sodipodi-0.dtd"
   xmlns:inkscape="http://www.inkscape.org/namespaces/inkscape"
   width="210mm"
   height="148mm"
   id="svg2"
   version="1.1"
   inkscape:version="0.92.1 r"
   sodipodi:docname="historia_del_copyright.svg">
  <defs
     id="defs4" />
  <sodipodi:namedview
     id="base"
     pagecolor="#ffffff"
     bordercolor="#666666"
     borderopacity="1.0"
     inkscape:pageopacity="0.0"
     inkscape:pageshadow="2"
     inkscape:zoom="0.52838984"
     inkscape:cx="-23.821154"
     inkscape:cy="335.54795"
     inkscape:document-units="mm"
     inkscape:current-layer="layer1"
     showgrid="false"
     showguides="true"
     inkscape:guide-bbox="true"
     units="mm"
     inkscape:window-width="1280"
     inkscape:window-height="758"
     inkscape:window-x="0"
     inkscape:window-y="42"
     inkscape:window-maximized="0">
    <sodipodi:guide
       orientation="1,0"
       position="396.85039,0"
       id="guide3168"
       inkscape:label=""
       inkscape:color="rgb(0,0,255)"
       inkscape:locked="false" />
    <sodipodi:guide
       orientation="0,1"
       position="77.714286,289.52381"
       id="guide3277"
       inkscape:locked="false" />
  </sodipodi:namedview>
  <metadata
     id="metadata7">
    <rdf:RDF>
      <cc:Work
         rdf:about="">
        <dc:format>image/svg+xml</dc:format>
        <dc:type
           rdf:resource="http://purl.org/dc/dcmitype/StillImage" />
        <dc:title></dc:title>
      </cc:Work>
    </rdf:RDF>
  </metadata>
  <g
     inkscape:label="Capa 1"
     inkscape:groupmode="layer"
     id="layer1"
     transform="translate(0,-563.14955)">
    <rect
       y="563.1496"
       x="-7.5134636e-07"
       height="559.37006"
       width="793.70081"
       id="rect3033"
       style="fill:#660080;fill-opacity:1;stroke-width:1.0634563" />
    <rect
       style="fill:#ffffff;stroke-width:1.06666672"
       id="rect3035"
       width="793.70081"
       height="184.86488"
       x="3.1475327e-07"
       y="628.46552" />
    <g
       id="g3847"
       transform="matrix(0.10929874,0,0,0.10976979,404.29296,1009.0848)"
       inkscape:export-filename="/srv/http/kiwwwi.com.ar/pastes/utopia-pirata-2.png"
       inkscape:export-xdpi="149"
       inkscape:export-ydpi="149" />
    <path
       d="m 749.8665,1037.3124 c -2.48138,3.4889 -5.17219,6.4452 -8.10584,9.9683 l -3.9702,4.4857 c -3.30851,3.1567 -11.57976,9.3038 -15.38454,11.7959 -2.15053,1.4952 -4.46647,2.6582 -6.78242,3.655 l -3.02067,1.4687 c 0.49627,0.4983 1.41935,0.771 2.25458,1.163 0.49628,0 2.25491,-0.9704 2.75119,-1.3027 l 5.2936,-2.9904 c 0.99255,-0.6646 1.9851,-1.4952 3.14307,-1.6614 -0.49627,1.163 -1.65424,1.8275 -2.81222,2.4921 l -3.14308,1.8275 c 0,0 -3.30039,1.889 -3.75184,2.203 0.90471,0.3589 2.26301,0.7711 3.12472,1.1198 0.82712,0 1.95053,-0.8308 2.61222,-1.163 1.81968,-0.9968 4.13563,-2.4921 5.95531,-3.8212 l 2.97765,-1.9936 c 2.31595,-1.8275 4.63191,-3.8212 6.78243,-5.981 1.65425,-1.4952 3.30851,-2.9905 4.63191,-4.818 1.81967,-2.1598 2.97764,-4.6519 4.30104,-7.1439 1.48884,-2.326 1.98511,-3.8212 2.81223,-6.3133 0.16543,-0.8307 0.6617,-2.1598 0.33086,-2.9905 z"
       id="path719"
       inkscape:connector-curvature="0"
       style="fill:#ffffff;stroke:none;stroke-width:0.751746" />
    <path
       d="m 673.93636,1036.4817 c -0.49627,1.8276 0.16542,3.9874 0.82713,5.6487 1.48882,3.9873 3.97021,7.4762 6.45158,10.799 1.48882,2.1598 3.9702,4.818 5.78988,6.6455 l 1.9851,1.6614 4.30105,3.8212 c 3.47392,2.6582 9.92551,6.6455 13.89572,8.4731 l 5.2936,2.3258 2.15052,0.8307 c 2.48138,0.9968 4.96276,1.6615 7.60956,2.1598 1.48882,0.3323 3.14307,0.8308 4.63191,0.8308 -0.49628,-1.8276 -1.48884,-1.6615 -2.97766,-2.1598 l -5.45903,-2.1598 c -7.60955,-3.1567 -16.04624,-6.3133 -22.00154,-12.2943 1.15797,0 1.98511,0.9969 2.81223,1.6614 1.15797,0.8307 2.6468,1.8275 3.9702,2.6583 3.63935,2.1598 11.91061,5.9809 16.04624,7.4761 1.65425,0.6646 4.46647,1.8275 6.12072,1.8275 1.32341,0.1662 3.14309,-0.6645 4.13563,-1.329 -0.6617,-0.6646 -1.3234,-0.4985 -2.31595,-0.6646 l -5.12818,-1.4952 c -4.46647,-1.163 -8.76753,-2.8244 -12.90316,-4.9842 l -2.31595,-0.9968 -3.14307,-1.9937 -3.80478,-2.492 -3.9702,-3.1567 -6.78244,-5.3164 -6.28615,-6.4794 -3.14308,-3.655 -3.3085,-3.655 z"
       id="path725"
       inkscape:connector-curvature="0"
       style="fill:#ffffff;stroke:none;stroke-width:0.751746" />
    <path
       d="m 727.03782,1077.5179 c 0.33085,0.6645 0.99256,1.6613 0.99256,2.492 0,1.8275 -2.15053,3.4889 -3.80478,3.3228 -0.66171,-0.1662 -2.15053,-0.9968 -2.64681,0 -0.16541,0.3323 -0.16541,0.6645 0,0.8307 0,0.6645 0.82713,0.9968 1.48884,1.3291 1.81967,0.4984 3.80478,-0.1662 5.2936,-1.163 1.15797,-0.6645 1.9851,-1.8275 2.31595,-3.1566 l 0.33085,-2.1598 c 0.16542,-0.6645 0.82713,-0.8307 1.65425,-1.9937 0.99255,-1.3291 1.9851,-3.655 3.3085,-4.6518 0.49628,-0.3323 0.99255,-0.4985 1.65425,-0.6646 -0.33084,-0.4984 -0.6617,-0.8307 -0.99255,-1.3291 -0.33085,-0.1661 -0.6617,-0.4984 -0.99254,-0.4984 -0.49628,-0.1662 -1.15799,-0.1662 -1.65425,0.1661 -2.31596,1.163 -1.81968,3.3228 -3.14309,4.9842 -0.99255,1.3291 -2.15053,1.9936 -3.80478,2.4921 z"
       id="path731"
       inkscape:connector-curvature="0"
       style="fill:#ffffff;stroke:none;stroke-width:0.751746" />
    <path
       d="m 732.33143,1079.6777 c 1.15798,0.4984 2.15052,0.3322 3.30851,0.3322 l 2.48137,0.1662 c 1.15798,0 1.48882,-0.6646 1.9851,-1.6614 0.16543,-0.3323 0.33085,-0.9968 0,-1.3291 -0.33085,-0.3323 -0.99255,-0.3323 -1.48882,-0.3323 l -2.81224,0.1661 c -0.49626,0 -1.3234,0 -1.81966,0.1662 -0.82713,0.4983 -1.48884,1.6613 -1.65426,2.4921 z"
       id="path737"
       inkscape:connector-curvature="0"
       style="fill:#ffffff;stroke:none;stroke-width:0.751746" />
    <path
       d="m 741.26438,1082.0035 c -0.82712,-0.3322 -1.3234,-0.6645 -1.81967,-1.329 -0.16542,0.1661 -0.33085,0.1661 -0.49627,0.3322 -0.16543,0.8307 1.9851,2.8243 2.31594,0.9968 z"
       id="path743"
       inkscape:connector-curvature="0"
       style="fill:#ffffff;stroke:none;stroke-width:0.751746" />
    <path
       d="m 740.10641,1076.3549 1.3234,0.8307 c -0.33084,0.6645 -1.15797,1.9936 -0.99255,2.8243 0.16543,1.6614 2.48137,1.6614 3.47393,0.6646 1.15797,-1.3291 1.15797,-3.3228 -0.49628,-4.3196 -0.99254,-0.4985 -2.15053,-0.3323 -3.3085,0 z"
       id="path744"
       inkscape:connector-curvature="0"
       style="fill:#ffffff;stroke:none;stroke-width:0.751746" />
    <path
       d="m 680.71879,1081.0067 0.16542,0.1662 c 1.32341,-0.3323 2.15053,-0.8307 2.31596,-2.1598 -0.99255,0.1661 -1.9851,1.163 -2.48138,1.9936 z"
       id="selection_x5F_to_x5F_path_x23_5"
       inkscape:connector-curvature="0"
       style="fill:#ffffff;stroke:none;stroke-width:0.751746" />
    <path
       d="m 681.87677,1074.8596 c -0.49628,-0.3322 -0.99256,-0.4984 -1.65425,-0.4984 -0.49628,0 -0.99256,0 -1.48882,0.1662 -1.65427,0.6645 -1.81968,3.3227 -0.49628,4.4857 0.66169,0.6646 2.31595,0.9968 2.97765,0.1661 0.6617,-0.6645 0.49627,-1.4953 0.16542,-2.3259 -0.16542,-0.4984 -0.49628,-1.163 -0.16542,-1.4952 0.16542,-0.3323 0.49627,-0.3323 0.6617,-0.4985 z"
       id="selection_x5F_to_x5F_path_x23_4"
       inkscape:connector-curvature="0"
       style="fill:#ffffff;stroke:none;stroke-width:0.751746" />
    <path
       d="m 681.71134,1075.5242 c 0.16543,0.4984 0.99255,2.492 1.3234,2.8244 0.49628,0.3323 0.99256,0.3323 1.48883,0.3323 l 2.97766,-0.1662 h 2.15052 c 0,-0.4985 0,-0.9968 -0.16542,-1.3291 -0.49628,-1.3292 -2.31596,-1.9937 -3.63935,-1.9937 l -1.48884,0.1662 c -0.99255,0 -1.81968,-0.1662 -2.6468,0.1661 z"
       id="selection_x5F_to_x5F_path_x23_3"
       inkscape:connector-curvature="0"
       style="fill:#ffffff;stroke:none;stroke-width:0.751746" />
    <path
       d="m 684.85442,1070.2078 c 3.14307,0.8307 3.14307,3.4888 4.46648,5.3164 0.49627,0.6645 1.81968,1.6614 1.98509,2.3259 0.16543,0.4985 0,0.6646 0.16543,1.8276 0.33085,1.4952 1.32341,2.9905 2.64681,3.8211 1.48882,0.9969 2.81222,1.6614 4.6319,1.163 0.99255,-0.3323 1.9851,-0.9968 1.48882,-2.1598 -0.49627,-1.163 -2.31594,0 -3.47393,-0.3323 -1.15797,-0.4984 -2.48137,-2.1598 -2.48137,-3.4888 l 0.6617,-2.326 c -1.81968,-0.6646 -3.9702,-2.1598 -4.79733,-3.9873 -0.49627,-1.163 -0.49627,-2.8243 -1.3234,-3.6551 -1.48882,-1.163 -3.47392,-0.1662 -3.9702,1.4953 z"
       id="selection_x5F_to_x5F_path_x23_2"
       inkscape:connector-curvature="0"
       style="fill:#ffffff;stroke:none;stroke-width:0.751746" />
    <path
       d="m 692.79483,1074.0289 c 0.49627,0.6646 0.82712,0.8307 1.48882,1.163 2.31596,1.3292 3.80478,0.3323 6.12073,-0.1661 l 4.79733,-1.4952 c -0.63524,-0.4287 -2.05458,-1.3209 -2.6468,-1.6615 l -3.14308,0.8307 z"
       id="path758"
       inkscape:connector-curvature="0"
       style="fill:#ffffff;stroke:none;stroke-width:0.751746" />
    <path
       d="m 695.11077,1078.8469 c 4.30106,0 8.27127,-1.329 12.40689,-2.3258 0,0 1.81968,-0.865 2.42778,-0.865 -0.57403,-0.4202 -2.91513,-1.269 -3.28138,-1.6005 -0.49626,0.1478 -2.4549,0.804 -3.1166,0.9702 l -4.13563,1.1629 -1.9851,0.4984 c -1.15797,0.4985 -1.9851,0.6646 -2.31596,2.1598 z"
       id="path759"
       inkscape:connector-curvature="0"
       style="fill:#ffffff;stroke:none;stroke-width:0.751746" />
    <g
       transform="matrix(0.24927978,0,0,0.24927978,-163.77517,804.11182)"
       id="g8064">
      <g
         transform="translate(678.73162,-905.77532)"
         id="g8060">
        <path
           inkscape:connector-curvature="0"
           d="m 317.46577,478.06342 v 8.4 l -10.26667,3.6 -10.4,3.46667 10,-0.26667 10,-0.26666 0.4,54.66666 c 0.26667,53.46667 0.26667,54.8 -2.66666,63.33334 -5.86667,16.93333 -3.46667,32.4 6.8,44 l 4.13333,4.66666 -3.2,-7.33333 c -4.8,-10.8 -5.33333,-16 -2.8,-24.66667 4.93333,-17.06666 20.66668,-27.2 52.13334,-34 21.2,-4.4 30.8,-7.46666 41.6,-13.33333 22.26667,-11.86667 33.86667,-31.86667 30.93334,-53.73333 -4.66667,-33.73334 -50.26667,-52.4 -107.6,-44.13334 l -5.73335,0.93334 v -6.93334 -6.8 h -6.66666 -6.66667 z m 30.66668,18.53334 c 8,3.33333 15.2,10.53333 18.93333,18.93333 2.4,5.46667 2.93333,9.2 2.93333,19.46667 0,11.33333 -0.4,13.6 -3.86666,20.66666 -4.8,10 -13.2,19.06667 -24.8,26.66667 -4.8,3.33333 -9.20001,6 -9.73335,6 -0.4,0 -0.8,-21.6 -0.8,-48 v -48 l 5.73335,0.8 c 3.06666,0.53333 8.26666,2 11.6,3.46667 z"
           id="path33273"
           style="fill:#000000;stroke:none;stroke-width:1.06666672" />
        <path
           inkscape:connector-curvature="0"
           d="m 452.66578,544.86342 c -0.26667,18.26667 -11.06667,34 -30.93333,45.2 -10.93334,6 -24.4,10.4 -45.2,14.66667 -28.8,6 -38.8,11.46667 -45.60001,25.06667 -3.2,6.4 -4.13334,10 -4.13334,16.13333 0,8 2.93334,16.13333 7.20001,19.6 2,1.6 2,1.33333 0.13334,-2.93333 -4.80001,-11.46667 -0.53334,-26.93334 9.86666,-35.86667 6.53334,-5.6 17.06667,-9.2 38.13334,-13.06667 38.4,-7.2 60.53333,-20 70.26666,-40.93333 3.33334,-7.06667 4,-10.26667 4,-18.13333 0,-5.33334 -0.8,-11.86667 -1.73333,-14.53334 l -1.86667,-4.93333 z"
           id="path33275"
           style="fill:#77a1c8;fill-opacity:1;stroke:none;stroke-width:1.06666672" />
      </g>
      <circle
         transform="rotate(-90)"
         r="136.2955"
         cy="1055.3307"
         cx="337.72714"
         id="path7258"
         style="opacity:1;fill:none;fill-opacity:1;fill-rule:nonzero;stroke:#000000;stroke-width:15.48300076;stroke-miterlimit:4;stroke-dasharray:none;stroke-dashoffset:0;stroke-opacity:1" />
    </g>
    <ellipse
       id="circle3807"
       cy="1024.406"
       cx="711.87042"
       style="fill:none;stroke:#ffffff;stroke-width:2.33672571"
       rx="17.828695"
       ry="17.905529" />
    <path
       id="path3809"
       d="m 711.72478,1013.2152 c -5.2802,0 -9.70433,3.6934 -10.85155,8.6474 h 5.32453 c 0.96079,-2.1013 3.07525,-3.5606 5.52702,-3.5606 3.35516,0 6.07805,2.7346 6.07805,6.1041 0,3.3694 -2.72289,6.1042 -6.07805,6.1042 -2.45177,0 -4.56639,-1.4595 -5.52702,-3.5608 h -5.32453 c 1.14722,4.954 5.57135,8.6474 10.85155,8.6474 6.15101,0 11.14287,-5.0135 11.14287,-11.1908 0,-6.1774 -4.99203,-11.1909 -11.14287,-11.1909 z"
       inkscape:connector-curvature="0"
       style="fill:#ffffff;stroke-width:1.06666672" />
    <g
       transform="matrix(-0.16596478,0.04466179,-0.04447013,-0.16668005,458.81542,778.48575)"
       style="font-style:normal;font-weight:normal;font-size:121.8484726px;line-height:125%;font-family:'Bitstream Vera Sans';letter-spacing:0px;word-spacing:0px;fill:#ffffff;fill-opacity:1;stroke:none"
       id="text3059"
       inkscape:export-filename="/srv/http/kiwwwi.com.ar/pastes/utopia-pirata-2.png"
       inkscape:export-xdpi="149"
       inkscape:export-ydpi="149">
      <g
         id="g3922"
         transform="rotate(-4.3843726,-1069.5699,-1786.0102)">
        <circle
           inkscape:export-ydpi="149"
           inkscape:export-xdpi="149"
           inkscape:export-filename="/srv/http/kiwwwi.com.ar/pastes/utopia-pirata-1.png"
           style="fill:none;stroke:none;stroke-width:0.96278501"
           id="path3865"
           transform="rotate(-165)"
           cx="1474.0784"
           cy="1363.7991"
           r="122.54252" />
        <path
           inkscape:connector-curvature="0"
           id="path3897"
           style="font-style:normal;font-variant:normal;font-weight:normal;font-stretch:normal;font-family:'League Gothic';-inkscape-font-specification:'League Gothic';fill:#ffffff;stroke-width:1.06666672"
           d="m -829.91875,-1701.2786 -74.75696,-13.1429 c -3.81775,-0.8031 -7.13896,-2.1788 -9.8356,-4.1046 -2.35762,-1.6021 -4.47472,-3.8218 -5.94474,-6.7196 -1.59804,-2.9202 -2.14249,-6.579 -1.33231,-11.1873 0.81017,-4.6083 2.59239,-7.99 5.09062,-10.19 2.37023,-2.2227 5.09496,-3.4592 7.85767,-4.1612 3.19174,-0.8905 6.783,-1.0509 10.64577,-0.5038 l 74.75696,13.1429 -2.43053,13.8249 -74.75696,-13.1428 c -2.68818,-0.4727 -4.59282,-0.1477 -6.22596,0.8849 -0.75257,0.5275 -1.29414,1.356 -1.49668,2.5081 -0.42759,2.4321 0.90597,3.8543 2.73608,4.7039 0.82854,0.5416 1.95811,0.8721 3.36621,1.1197 l 74.75696,13.1428 -2.43053,13.825" />
        <path
           inkscape:connector-curvature="0"
           id="path3899"
           style="font-style:normal;font-variant:normal;font-weight:normal;font-stretch:normal;font-family:'League Gothic';-inkscape-font-specification:'League Gothic';fill:#ffffff;stroke-width:1.06666672"
           d="m -854.50233,-1673.4894 12.64866,6.9388 -19.50341,35.5529 -12.64866,-6.9387 6.37612,-11.6231 -71.10596,-39.0068 6.75117,-12.3068 71.10597,39.0069 6.37611,-11.6232" />
        <path
           inkscape:connector-curvature="0"
           id="path3901"
           style="font-style:normal;font-variant:normal;font-weight:normal;font-stretch:normal;font-family:'League Gothic';-inkscape-font-specification:'League Gothic';fill:#ffffff;stroke-width:1.06666672"
           d="m -962.3753,-1633.3619 c -2.56068,-2.9434 -4.38,-6.0439 -5.36938,-9.2063 -0.91414,-2.7 -1.26394,-5.7474 -0.68867,-8.9454 0.48674,-3.2931 2.2593,-6.5398 5.68504,-9.7268 3.42575,-3.1871 6.88699,-4.8094 10.20662,-5.0574 3.23113,-0.3433 6.15024,0.3139 8.77725,1.4204 3.0829,1.2149 6.04414,3.253 8.79515,6.0193 l 38.33278,41.2041 c 2.47216,2.8481 4.29148,5.9486 5.28087,9.1112 0.91413,2.6999 1.44762,5.754 0.87235,8.9519 -0.57527,3.1979 -2.35446,6.6283 -5.78021,9.8154 -3.42574,3.187 -6.88034,4.6256 -10.11145,4.9689 -3.23113,0.3431 -6.33394,-0.3207 -8.96093,-1.4271 -3.08291,-1.2148 -6.04414,-3.253 -8.70663,-5.9242 l -38.33279,-41.204 m 48.61004,31.643 c 1.77057,1.9032 3.39061,2.8814 5.40455,3.138 0.91844,0.033 1.9453,-0.3897 2.80173,-1.1864 1.80804,-1.682 1.42508,-3.811 0.65485,-5.4022 -0.42275,-1.0269 -1.12434,-1.9718 -2.00963,-2.9234 l -38.33278,-41.2042 c -1.8591,-1.9984 -3.5743,-2.888 -5.4997,-3.0494 -0.91844,-0.033 -1.85014,0.3011 -2.70658,1.0979 -1.80803,1.682 -1.60213,3.6207 -0.65485,5.4021 0.33422,0.9317 1.03582,1.8767 2.00962,2.9235 l 38.33279,41.2041" />
        <path
           inkscape:connector-curvature="0"
           id="path3903"
           style="font-style:normal;font-variant:normal;font-weight:normal;font-stretch:normal;font-family:'League Gothic';-inkscape-font-specification:'League Gothic';fill:#ffffff;stroke-width:1.06666672"
           d="m -945.70662,-1554.999 -12.86216,5.6215 c -5.59741,2.4463 -11.81944,3.4636 -17.87654,1.2882 -6.0571,-2.1753 -11.8302,-7.5954 -16.20245,-17.5993 -4.37224,-10.0039 -4.37677,-17.8032 -1.85911,-23.7263 2.51765,-5.923 7.38638,-10.0367 12.98379,-12.4831 l -15.30288,-35.0136 12.86214,-5.6215 38.25721,87.5341 m -30.09091,-33.7987 c -3.9301,1.7177 -6.11877,3.5254 -6.66304,6.1746 -0.59632,2.5301 0.45177,5.9017 2.58585,10.7846 2.13407,4.8829 4.00082,8.1805 6.36686,9.6995 2.36604,1.5192 5.28342,1.3788 9.21351,-0.3389 l -11.50318,-26.3198" />
        <path
           inkscape:connector-curvature="0"
           id="path3905"
           style="font-style:normal;font-variant:normal;font-weight:normal;font-stretch:normal;font-family:'League Gothic';-inkscape-font-specification:'League Gothic';fill:#ffffff;stroke-width:1.06666672"
           d="m -1012.2607,-1532.3783 -13.8739,2.1334 -14.5198,-94.4193 13.8739,-2.1335 14.5198,94.4194" />
        <path
           inkscape:connector-curvature="0"
           id="path3907"
           style="font-style:normal;font-variant:normal;font-weight:normal;font-stretch:normal;font-family:'League Gothic';-inkscape-font-specification:'League Gothic';fill:#ffffff;stroke-width:1.06666672"
           d="m -1047.2054,-1622.4237 -25.1958,93.2691 -17.045,-1.9508 -3.4708,-96.5501 13.5585,1.5518 0.3658,19.665 13.4294,1.5369 4.7994,-19.0737 13.5585,1.5518 m -30.9609,61.3433 0.1067,2.4978 0.7748,0.089 0.6682,-2.409 7.4316,-29.4998 -9.5555,-1.0936 0.5743,30.416" />
        <path
           inkscape:connector-curvature="0"
           id="path3909"
           style="font-style:normal;font-variant:normal;font-weight:normal;font-stretch:normal;font-family:'League Gothic';-inkscape-font-specification:'League Gothic';fill:#ffffff;stroke-width:1.06666672"
           d="m -1172.391,-1560.1378 -11.5072,-8.0386 c -5.0078,-3.4984 -9.1224,-8.2752 -10.4275,-14.5774 -1.305,-6.3022 0.306,-14.0553 6.5582,-23.0053 6.2523,-8.95 12.9032,-13.0238 19.2697,-13.967 6.3664,-0.943 12.4162,1.0636 17.424,4.5618 l 21.8829,-31.3252 11.5073,8.0386 -54.7074,78.3131 m 13.1297,-43.3061 c -3.5161,-2.4563 -6.2002,-3.3801 -8.7441,-2.4619 -2.4696,0.8116 -4.7989,3.4651 -7.8506,7.8336 -3.0516,4.3684 -4.8906,7.6817 -4.9518,10.4927 -0.061,2.8111 1.5809,5.2265 5.097,7.6828 l 16.4495,-23.5472" />
        <path
           inkscape:connector-curvature="0"
           id="path3911"
           style="font-style:normal;font-variant:normal;font-weight:normal;font-stretch:normal;font-family:'League Gothic';-inkscape-font-specification:'League Gothic';fill:#ffffff;stroke-width:1.06666672"
           d="m -1226.274,-1604.9011 -9.0875,-10.6983 72.8077,-61.8454 9.0876,10.6982 -72.8078,61.8455" />
        <path
           inkscape:connector-curvature="0"
           id="path3913"
           style="font-style:normal;font-variant:normal;font-weight:normal;font-stretch:normal;font-family:'League Gothic';-inkscape-font-specification:'League Gothic';fill:#ffffff;stroke-width:1.06666672"
           d="m -1180.1822,-1708.1007 -33.3171,23.7976 1.6106,3.4077 36.4274,-17.2172 5.9982,12.6908 -86.368,40.8215 -5.9983,-12.6909 c -7.1646,-15.1584 -1.6412,-25.6757 14.6923,-33.3957 8.5781,-4.0543 17.3888,-5.4873 22.9562,-2.2246 l 38.0004,-27.8801 5.9983,12.6909 m -43.4573,32.7593 c -0.833,-1.7627 -2.1788,-4.0017 -4.7126,-5.1043 -2.5338,-1.1026 -6.4285,-1.1306 -12.5388,1.7575 -6.1104,2.888 -8.6786,5.9707 -9.4351,8.6284 -0.7565,2.6577 0.2368,5.0633 1.0699,6.826 l 25.6166,-12.1076" />
        <path
           inkscape:connector-curvature="0"
           id="path3915"
           style="font-style:normal;font-variant:normal;font-weight:normal;font-stretch:normal;font-family:'League Gothic';-inkscape-font-specification:'League Gothic';fill:#ffffff;stroke-width:1.06666672"
           d="m -1187.4367,-1724.9408 -96.4885,-4.8921 -1.6997,-17.0718 93.6301,-23.8198 1.352,13.5799 -19.1424,4.518 1.3391,13.4506 19.6574,0.6553 1.352,13.5799 m -66.5052,-17.2814 -2.4186,0.6327 0.077,0.776 2.496,0.1433 30.4042,1.0221 -0.9528,-9.5706 -29.606,6.9965" />
        <path
           inkscape:connector-curvature="0"
           id="path3917"
           style="font-style:normal;font-variant:normal;font-weight:normal;font-stretch:normal;font-family:'League Gothic';-inkscape-font-specification:'League Gothic';fill:#ffffff;stroke-width:1.06666672"
           d="m -1270.5543,-1786.479 -14.1138,-2.9896 8.4031,-39.6709 14.1137,2.9895 -2.747,12.9694 79.3418,16.8062 -2.9088,13.7323 -79.3418,-16.8062 -2.7472,12.9693" />
        <path
           inkscape:connector-curvature="0"
           id="path3919"
           style="font-style:normal;font-variant:normal;font-weight:normal;font-stretch:normal;font-family:'League Gothic';-inkscape-font-specification:'League Gothic';fill:#ffffff;stroke-width:1.06666672"
           d="m -1183.2813,-1808.6761 -75.1338,-60.736 8.6721,-14.803 89.7188,35.8398 -6.8984,11.7753 -18.1355,-7.6118 -6.8327,11.663 15.5078,12.0976 -6.8983,11.7751 m -43.601,-53.1085 -2.3278,-0.9119 -0.3943,0.6729 1.9337,1.5847 23.9809,18.7184 4.8616,-8.2987 -28.0541,-11.7654" />
      </g>
    </g>
    <g
       id="g3370"
       transform="matrix(1.2338926,0,0,1.2338926,71.180137,-319.64419)">
      <g
         id="text3025"
         style="font-style:normal;font-variant:normal;font-weight:normal;font-stretch:normal;font-size:40px;line-height:125%;font-family:'League Gothic';-inkscape-font-specification:'League Gothic';letter-spacing:0px;word-spacing:0px;fill:#000000;fill-opacity:1;stroke:none"
         transform="translate(-0.26938598,-1.8154441)">
        <path
           id="path3042"
           d="m 298.15527,866.51959 h 4.60418 v -13.64583 h 3.58332 v 13.64583 h 4.60417 v -31.35416 h -4.60417 v 12.95834 h -3.58332 v -12.95834 h -4.60418 v 31.35416"
           inkscape:connector-curvature="0"
           style="stroke-width:1.06666672" />
        <path
           id="path3044"
           d="m 314.40527,866.51959 h 4.3125 v -23.33333 h -4.3125 v 23.33333 m 0,-27.04166 h 4.3125 v -4.3125 h -4.3125 v 4.3125"
           inkscape:connector-curvature="0"
           style="stroke-width:1.06666672" />
        <path
           id="path3046"
           d="m 321.21777,859.72793 c 0,1.81945 0.34028,3.31251 1.02083,4.47916 1.02778,1.7639 2.69445,2.64584 5,2.64584 1.83334,0 3.26389,-0.70833 4.29167,-2.125 0.80555,-1.125 1.20832,-2.5486 1.20833,-4.27083 -1e-5,-1.29166 -0.43056,-2.63888 -1.29166,-4.04167 -0.45834,-0.72221 -1.35417,-1.74999 -2.68749,-3.08333 -0.83335,-0.77776 -1.45835,-1.44443 -1.87501,-2 -0.62501,-0.76388 -0.93751,-1.49304 -0.9375,-2.1875 -10e-6,-0.77776 0.0833,-1.37499 0.25,-1.79167 0.19444,-0.62498 0.55555,-0.93748 1.08334,-0.9375 0.56943,2e-5 0.97915,0.31252 1.22916,0.9375 0.1111,0.37502 0.16666,0.97224 0.16667,1.79167 h 4.02083 c -10e-6,-1.81943 -0.28474,-3.20831 -0.85417,-4.16667 -0.84723,-1.43054 -2.33334,-2.14581 -4.45833,-2.14583 -0.0556,2e-5 -0.11806,2e-5 -0.1875,0 -1.83333,0.0417 -3.22917,0.75697 -4.1875,2.14583 -0.70833,1.06946 -1.06251,2.45835 -1.0625,4.16667 -10e-6,1.45834 0.4375,2.84029 1.31251,4.14583 0.4861,0.72223 1.40971,1.73612 2.77082,3.04167 0.58333,0.58333 1.02778,1.04861 1.33334,1.39583 0.30554,0.33334 0.60416,0.7639 0.89584,1.29166 0.30554,0.5139 0.45831,0.99307 0.45832,1.43751 -10e-6,1.875 -0.49306,2.8125 -1.47917,2.8125 -0.76389,0 -1.31944,-0.4375 -1.66666,-1.3125 -0.23611,-0.55555 -0.35417,-1.2986 -0.35417,-2.22917 h -4"
           inkscape:connector-curvature="0"
           style="stroke-width:1.06666672" />
        <path
           id="path3048"
           d="m 334.03027,847.06126 h 2.1875 v 11.95833 c 0,2.1389 0.21528,3.78473 0.64584,4.93751 0.72221,1.93055 2.15277,2.89583 4.29166,2.89583 0.69444,0 1.25,-0.0417 1.66667,-0.125 0.0694,-0.0139 0.1736,-0.0417 0.3125,-0.0833 0.15277,-0.0417 0.26387,-0.0694 0.33334,-0.0833 v -4.22916 c -0.0556,0.0139 -0.13891,0.0278 -0.25001,0.0417 -0.11111,0.0139 -0.19445,0.0277 -0.24999,0.0417 -0.3889,0.0556 -0.75002,0.0833 -1.08334,0.0833 -0.59723,0 -0.99306,-0.46527 -1.1875,-1.39583 -0.11112,-0.51389 -0.16668,-1.32639 -0.16667,-2.4375 v -11.60417 h 2.93751 v -3.875 h -2.93751 v -5.77083 h -4.3125 v 5.77083 h -2.1875 v 3.875"
           inkscape:connector-curvature="0"
           style="stroke-width:1.06666672" />
        <path
           id="path3050"
           d="m 345.34277,860.70709 c 0.0417,1.05557 0.27083,2.08334 0.6875,3.08334 0.91666,2.04167 2.52778,3.0625 4.83334,3.0625 1.40277,0 2.47915,-0.3125 3.22917,-0.9375 0.74998,-0.61111 1.30553,-1.31944 1.66667,-2.125 0.36109,-0.81944 0.57637,-1.79861 0.64582,-2.9375 v -12 c -0.0417,-0.98609 -0.27084,-1.97915 -0.6875,-2.97917 -0.93056,-2.02775 -2.54862,-3.04164 -4.85416,-3.04166 -1.43056,2e-5 -2.5,0.31252 -3.20834,0.9375 -1.41667,1.19446 -2.18749,2.93057 -2.3125,5.20833 v 11.72916 m 4.0625,0 v -11.72916 c -0.0139,-0.11109 -0.0208,-0.22221 -0.0208,-0.33333 0,-0.31943 0.0486,-0.60415 0.14583,-0.85417 0.20833,-0.79165 0.65277,-1.18748 1.33334,-1.1875 0.40277,2e-5 0.71527,0.11113 0.9375,0.33334 0.3611,0.45834 0.54165,1.06251 0.54167,1.8125 -2e-5,0.0833 -2e-5,0.15973 0,0.22916 v 11.72916 c 0.0139,0.11112 0.0208,0.22223 0.0208,0.33334 -2e-5,0.33334 -0.0486,0.625 -0.14584,0.875 -0.19445,0.76389 -0.64583,1.14584 -1.35416,1.14583 -0.37501,1e-5 -0.67362,-0.11111 -0.89583,-0.33333 -0.37501,-0.48611 -0.56251,-1.08333 -0.56251,-1.79166 0,-0.0833 0,-0.15973 0,-0.22918"
           inkscape:connector-curvature="0"
           style="stroke-width:1.06666672" />
        <path
           id="path3052"
           d="m 359.40527,866.51959 h 4.3125 v -16.20833 c 0,-0.90276 0.3125,-1.61803 0.9375,-2.14583 0.49999,-0.4722 1.22221,-0.70831 2.16667,-0.70833 0.47221,2e-5 0.87499,0.0556 1.20833,0.16667 v -4.79167 c -1.30557,2e-5 -2.40278,0.41669 -3.29167,1.25 -0.30555,0.30557 -0.54862,0.61807 -0.72916,0.93749 -0.16668,0.31947 -0.26389,0.57642 -0.29167,0.77084 v -2.60417 h -4.3125 v 23.33333"
           inkscape:connector-curvature="0"
           style="stroke-width:1.06666672" />
        <path
           id="path3054"
           d="m 369.90527,866.51959 h 4.3125 v -23.33333 h -4.3125 v 23.33333 m 0,-27.04166 h 4.3125 v -4.3125 h -4.3125 v 4.3125"
           inkscape:connector-curvature="0"
           style="stroke-width:1.06666672" />
        <path
           id="path3056"
           d="m 376.96778,861.10293 c 0,2.13889 0.44443,3.70139 1.33333,4.6875 0.56944,0.70833 1.27777,1.0625 2.125,1.0625 0.83332,0 1.59026,-0.27083 2.27083,-0.8125 0.4861,-0.38889 0.88194,-0.85417 1.1875,-1.39583 h 0.29167 c -10e-6,0.91666 0.13193,1.54166 0.39583,1.87499 h 4.20834 c -0.19447,-1.19444 -0.29168,-2.5486 -0.29167,-4.06249 v -14.33333 c -10e-6,-1.51387 -0.52779,-2.77776 -1.58334,-3.79167 -1.04168,-0.99998 -2.26389,-1.49998 -3.66667,-1.5 -1.66666,2e-5 -3.04166,0.61113 -4.12499,1.83333 -1.11111,1.25002 -1.66668,2.7153 -1.66667,4.39583 v 0.97917 h 4.31251 v -1.10416 c -2e-5,-0.29165 0.0277,-0.65972 0.0833,-1.10417 0.15277,-0.81943 0.53472,-1.22915 1.14584,-1.22917 0.51387,2e-5 0.86804,0.23613 1.06249,0.70833 0.0833,0.2778 0.12499,0.75002 0.12501,1.41667 v 2.5625 c -0.0277,0.0694 -0.0625,0.1389 -0.10422,0.20833 -0.0417,0.0556 -0.10421,0.11807 -0.1875,0.1875 -0.0833,0.0694 -0.16666,0.13196 -0.24999,0.1875 -0.0694,0.0417 -0.17362,0.10421 -0.3125,0.1875 -0.1389,0.0694 -0.25695,0.13197 -0.35417,0.18751 -0.0833,0.0417 -0.22223,0.11112 -0.41667,0.20833 -0.18055,0.0973 -0.31945,0.17362 -0.41666,0.22916 -1.44445,0.76391 -2.56945,1.64585 -3.375,2.64584 -1.19445,1.48612 -1.79167,3.40972 -1.79167,5.77083 m 4.22916,-0.64583 c 0,-1.16667 0.24306,-2.21528 0.72918,-3.14584 0.49999,-0.94443 1.24998,-1.63193 2.24999,-2.06249 v 5.97916 c -10e-6,0.40278 -0.17362,0.74306 -0.52083,1.02084 -0.34723,0.26388 -0.77084,0.39583 -1.27084,0.39583 -0.45833,0 -0.78472,-0.29861 -0.97916,-0.89583 -0.1389,-0.40278 -0.20834,-0.83334 -0.20834,-1.29167"
           inkscape:connector-curvature="0"
           style="stroke-width:1.06666672" />
        <path
           id="path3058"
           d="m 397.82194,862.29043 c 0,1.18056 0.27083,2.18056 0.8125,3 0.61111,1.04167 1.44444,1.5625 2.5,1.5625 0.44444,0 0.8611,-0.0972 1.25,-0.29167 0.63888,-0.29166 1.36111,-0.81944 2.16666,-1.58333 v 1.54166 h 4.31251 v -31.35416 h -4.31251 v 9.54166 c -0.47222,-0.41664 -0.84027,-0.72914 -1.10416,-0.93749 -0.84723,-0.62498 -1.61807,-0.93748 -2.3125,-0.9375 -1.04167,2e-5 -1.87501,0.51391 -2.5,1.54166 -0.54167,0.86113 -0.8125,1.86807 -0.8125,3.02083 v 14.89584 m 4.3125,-0.89584 v -13.08333 c -10e-6,-0.40276 0.11111,-0.73609 0.33334,-1 0.2222,-0.27776 0.49304,-0.41665 0.8125,-0.41667 0.31943,2e-5 0.6111,0.1528 0.87499,0.45834 0.26389,0.29169 0.39582,0.61113 0.39583,0.95833 v 13.08333 c -1e-5,0.40279 -0.13194,0.74306 -0.39583,1.02084 -0.25,0.26389 -0.54167,0.39583 -0.87499,0.39583 -0.31946,0 -0.5903,-0.13194 -0.8125,-0.39583 -0.22223,-0.27778 -0.33335,-0.61805 -0.33334,-1.02084"
           inkscape:connector-curvature="0"
           style="stroke-width:1.06666672" />
        <path
           id="path3060"
           d="m 411.98861,860.70709 c 0.0417,1.08334 0.26388,2.11112 0.66666,3.08334 0.91667,2.04167 2.54167,3.0625 4.875,3.0625 1.40278,0 2.47916,-0.3125 3.22918,-0.9375 0.76387,-0.61111 1.32636,-1.31944 1.68749,-2.125 0.37499,-0.80556 0.59721,-1.78472 0.66667,-2.9375 v -2.6875 h -4 v 2.54166 c -10e-6,0.47224 -0.0625,0.87501 -0.1875,1.20834 -0.19445,0.76389 -0.64584,1.14584 -1.35417,1.14583 -0.375,1e-5 -0.67361,-0.11111 -0.89583,-0.33333 -0.41668,-0.54166 -0.64584,-1.21527 -0.6875,-2.02084 v -5.06249 h 7.125 v -6.79167 c -0.0417,-0.98609 -0.27085,-1.97915 -0.6875,-2.97917 -0.93057,-2.02775 -2.54863,-3.04164 -4.85417,-3.04166 -1.43056,2e-5 -2.5,0.31252 -3.20833,0.9375 -1.45834,1.20835 -2.25001,2.94446 -2.375,5.20833 v 11.72916 m 4,-8.43749 v -3.29167 c 0.0417,-0.54165 0.1111,-0.93748 0.20833,-1.1875 0.24999,-0.79165 0.70833,-1.18748 1.375,-1.1875 0.40277,2e-5 0.71527,0.11113 0.9375,0.33334 0.40277,0.50001 0.60416,1.18056 0.60417,2.04166 v 3.29167 h -3.125"
           inkscape:connector-curvature="0"
           style="stroke-width:1.06666672" />
        <path
           id="path3062"
           d="m 426.07194,866.51959 h 4.3125 v -31.35416 h -4.3125 v 31.35416"
           inkscape:connector-curvature="0"
           style="stroke-width:1.06666672" />
        <path
           id="path3064"
           d="m 440.11361,860.0821 c 0.0417,1.34722 0.29166,2.48611 0.75,3.41666 0.41666,0.93056 1.01388,1.69445 1.79166,2.29167 0.875,0.70833 2.06944,1.0625 3.58333,1.0625 1.4861,0 2.66666,-0.35417 3.54168,-1.0625 0.84721,-0.63889 1.46526,-1.40277 1.85416,-2.29167 0.45832,-0.93055 0.70832,-2.06944 0.75,-3.41666 v -4.3125 h -4.29166 v 4.3125 c -1e-5,0.47223 -0.0625,0.85417 -0.18751,1.14583 -0.25001,0.76389 -0.77084,1.14584 -1.5625,1.14583 -0.375,1e-5 -0.67362,-0.1111 -0.89583,-0.33333 -0.44445,-0.51388 -0.68751,-1.16666 -0.72917,-1.95833 v -18.47917 c 0.0556,-0.54164 0.12499,-0.92358 0.20834,-1.14583 0.29166,-0.77775 0.76387,-1.16665 1.41666,-1.16667 0.47222,2e-5 0.82638,0.11808 1.0625,0.35417 0.45832,0.50002 0.6875,1.1528 0.68751,1.95833 v 4.3125 h 4.29166 v -4.3125 c -0.0417,-1.31942 -0.29168,-2.44441 -0.75,-3.375 -0.40279,-0.93052 -1.02084,-1.7083 -1.85416,-2.33334 -0.95835,-0.72218 -2.1389,-1.08329 -3.54168,-1.08333 -1.43056,4e-5 -2.625,0.36115 -3.58333,1.08333 -0.76389,0.58337 -1.36112,1.36114 -1.79166,2.33334 -0.45834,0.93059 -0.70834,2.05558 -0.75,3.375 v 18.47917"
           inkscape:connector-curvature="0"
           style="stroke-width:1.06666672" />
        <path
           id="path3066"
           d="m 454.75945,860.70709 c 0.0417,1.05557 0.27082,2.08334 0.68749,3.08334 0.91667,2.04167 2.52777,3.0625 4.83334,3.0625 1.40276,0 2.47915,-0.3125 3.22916,-0.9375 0.74998,-0.61111 1.30555,-1.31944 1.66667,-2.125 0.3611,-0.81944 0.57637,-1.79861 0.64583,-2.9375 v -12 c -0.0417,-0.98609 -0.27085,-1.97915 -0.6875,-2.97917 -0.93057,-2.02775 -2.54862,-3.04164 -4.85416,-3.04166 -1.43056,2e-5 -2.50001,0.31252 -3.20834,0.9375 -1.41667,1.19446 -2.1875,2.93057 -2.31249,5.20833 v 11.72916 m 4.06249,0 v -11.72916 c -0.0139,-0.11109 -0.0208,-0.22221 -0.0208,-0.33333 -10e-6,-0.31943 0.0486,-0.60415 0.14584,-0.85417 0.20832,-0.79165 0.65276,-1.18748 1.33333,-1.1875 0.40276,2e-5 0.71526,0.11113 0.93749,0.33334 0.36111,0.45834 0.54167,1.06251 0.54168,1.8125 -10e-6,0.0833 -10e-6,0.15973 0,0.22916 v 11.72916 c 0.0139,0.11112 0.0208,0.22223 0.0208,0.33334 -1e-5,0.33334 -0.0486,0.625 -0.14584,0.875 -0.19445,0.76389 -0.64584,1.14584 -1.35416,1.14583 -0.37501,1e-5 -0.67362,-0.11111 -0.89584,-0.33333 -0.37501,-0.48611 -0.56251,-1.08333 -0.5625,-1.79166 -10e-6,-0.0833 -10e-6,-0.15973 0,-0.22918"
           inkscape:connector-curvature="0"
           style="stroke-width:1.06666672" />
        <path
           id="path3068"
           d="m 468.82194,874.54043 h 4.3125 v -9.5625 c 0.47222,0.41667 0.84027,0.72916 1.10416,0.9375 0.84722,0.625 1.61805,0.9375 2.3125,0.9375 1.04167,0 1.88889,-0.52083 2.54168,-1.5625 0.51387,-0.84722 0.77081,-1.84722 0.77083,-3 v -14.89584 c -2e-5,-1.12497 -0.25696,-2.13191 -0.77083,-3.02083 -0.68058,-1.02775 -1.5278,-1.54164 -2.54168,-1.54166 -0.43056,2e-5 -0.83334,0.10421 -1.20833,0.3125 -0.69445,0.30558 -1.43056,0.82641 -2.20833,1.56249 v -1.52083 h -4.3125 v 31.35417 m 4.3125,-13.14584 v -13.08333 c -10e-6,-0.40276 0.12499,-0.73609 0.375,-1 0.26388,-0.27776 0.5625,-0.41665 0.89583,-0.41667 0.31944,2e-5 0.59027,0.13891 0.8125,0.41667 0.23611,0.26391 0.35417,0.59724 0.35417,1 v 13.08333 c 0,0.40279 -0.11806,0.74306 -0.35417,1.02084 -0.22223,0.26389 -0.49306,0.39583 -0.8125,0.39583 -0.31945,0 -0.61112,-0.14583 -0.875,-0.4375 -0.26389,-0.30555 -0.39584,-0.63194 -0.39583,-0.97917"
           inkscape:connector-curvature="0"
           style="stroke-width:1.06666672" />
        <path
           id="path3070"
           d="m 481.96778,843.18626 3.95833,24.02083 c -10e-6,0.47223 -0.0556,0.89584 -0.16666,1.27084 -0.25001,0.90277 -0.72223,1.61805 -1.41668,2.14584 -0.29167,0.22221 -0.68055,0.35415 -1.16666,0.39582 -0.47223,0.0417 -0.73612,0.0348 -0.79167,-0.0208 -0.13889,0 -0.22222,-0.0139 -0.25,-0.0417 v 3.83333 c 0.69445,0.0556 1.15973,0.0833 1.39583,0.0833 h 0.52083 c 1.58333,0 2.95139,-0.69446 4.10417,-2.08333 1.02777,-1.23612 1.65277,-2.74306 1.875,-4.52083 l 4.125,-25.08334 h -4.20833 l -1.70834,14.33333 -0.0833,1.1875 h -0.1875 l -0.0833,-1.1875 -1.70833,-14.33333 h -4.20833"
           inkscape:connector-curvature="0"
           style="stroke-width:1.06666672" />
        <path
           id="path3072"
           d="m 496.40527,866.51959 h 4.3125 v -16.20833 c 0,-0.90276 0.3125,-1.61803 0.9375,-2.14583 0.49999,-0.4722 1.22221,-0.70831 2.16667,-0.70833 0.47221,2e-5 0.87499,0.0556 1.20833,0.16667 v -4.79167 c -1.30557,2e-5 -2.40278,0.41669 -3.29167,1.25 -0.30555,0.30557 -0.54862,0.61807 -0.72916,0.93749 -0.16668,0.31947 -0.26389,0.57642 -0.29167,0.77084 v -2.60417 h -4.3125 v 23.33333"
           inkscape:connector-curvature="0"
           style="stroke-width:1.06666672" />
        <path
           id="path3074"
           d="m 506.90527,866.51959 h 4.3125 v -23.33333 h -4.3125 v 23.33333 m 0,-27.04166 h 4.3125 v -4.3125 h -4.3125 v 4.3125"
           inkscape:connector-curvature="0"
           style="stroke-width:1.06666672" />
        <path
           id="path3076"
           d="m 513.19694,870.35293 c 0,1.62499 0.63889,2.79166 1.91667,3.5 1.09722,0.63888 2.76388,0.97916 5,1.02083 2.02777,0 3.70832,-0.42362 5.04166,-1.27083 1.55555,-1.0139 2.33333,-2.57639 2.33334,-4.6875 -10e-6,-1.80555 -0.65279,-3.17361 -1.95834,-4.10417 -0.98612,-0.66666 -2.31945,-1.10416 -4,-1.3125 -0.94445,-0.13889 -1.68751,-0.2986 -2.22916,-0.47917 -0.70834,-0.18055 -1.06251,-0.50694 -1.06251,-0.97916 0,-0.34721 0.20139,-0.70138 0.60417,-1.0625 0.0833,0.0277 0.22222,0.0417 0.41668,0.0417 h 0.39582 c 1.33333,10e-6 2.38194,-0.29861 3.14584,-0.89583 1.47221,-1.12499 2.27082,-2.75 2.39583,-4.875 v -6.60417 c -1e-5,-0.20832 -0.0139,-0.35415 -0.0417,-0.4375 -0.0277,-0.0833 -0.0417,-0.23609 -0.0417,-0.45833 -0.0278,-0.0556 -0.0694,-0.24304 -0.12501,-0.56251 0.59721,-0.33331 1.43054,-0.49997 2.5,-0.5 v -3.85416 c -0.59723,2e-5 -1.27779,0.28475 -2.04166,0.85416 -0.45835,0.31947 -0.95835,0.75003 -1.5,1.29167 -1.0139,-1.43054 -2.44446,-2.14581 -4.29167,-2.14583 -1.37501,2e-5 -2.41667,0.31252 -3.125,0.9375 -1.40278,1.1528 -2.1875,2.81946 -2.35417,5 v 6.35417 c 0.0277,0.48612 0.14584,1.125 0.35417,1.91666 0.38888,1.43057 1.09721,2.48612 2.125,3.16667 -0.66667,0.34723 -1.26389,0.84723 -1.79167,1.5 -0.59723,0.73611 -0.89583,1.40278 -0.89583,2 0,1.61111 0.86805,2.64583 2.60416,3.10417 -0.98611,0.45833 -1.75694,0.94443 -2.31249,1.45833 -0.70834,0.66666 -1.06251,1.36111 -1.06251,2.08333 m 4.1875,-0.70833 c 0,-0.76389 0.52778,-1.45139 1.58334,-2.0625 l 2.20833,0.4375 c 0.97221,0.15278 1.62499,0.37499 1.95834,0.66666 0.23609,0.23611 0.35415,0.56944 0.35416,1 -10e-6,0.5 -0.36806,0.89583 -1.10417,1.1875 -0.63889,0.25 -1.36806,0.375 -2.1875,0.37501 -0.94444,-10e-6 -1.65278,-0.14584 -2.125,-0.4375 -0.45834,-0.29167 -0.6875,-0.68057 -0.6875,-1.16667 m 1.02083,-14.3125 v -6.39583 c -0.0139,-0.11109 -0.0208,-0.22221 -0.0208,-0.33333 0,-0.24999 0.0348,-0.49305 0.10422,-0.72918 0.16665,-0.70831 0.55555,-1.06247 1.16666,-1.06249 0.34721,2e-5 0.61111,0.11112 0.79167,0.33333 0.34721,0.50002 0.52082,1.09724 0.52084,1.79167 v 6.39583 c -2e-5,0.43057 -0.0417,0.79168 -0.12501,1.08334 -0.22223,0.68056 -0.61806,1.02084 -1.1875,1.02083 -0.31945,1e-5 -0.57639,-0.11805 -0.77083,-0.35417 -0.31945,-0.36111 -0.47917,-0.86805 -0.47917,-1.52084 0,-0.0694 0,-0.14581 0,-0.22916"
           inkscape:connector-curvature="0"
           style="stroke-width:1.06666672" />
        <path
           id="path3078"
           d="m 529.2386,866.51959 h 4.3125 v -18.39582 c 0.0833,-0.13887 0.20833,-0.31943 0.37501,-0.54167 0.37499,-0.37499 0.71527,-0.56248 1.02083,-0.56251 0.69444,3e-5 1.04166,0.3403 1.04167,1.02084 v 18.47916 h 4.29167 v -19.125 c -2e-5,-1.12497 -0.25696,-2.13191 -0.77084,-3.02083 -0.62501,-1.02775 -1.44446,-1.54164 -2.45834,-1.54166 -0.375,2e-5 -0.75,0.10421 -1.12499,0.3125 -0.5139,0.2778 -1.1389,0.78474 -1.87501,1.52083 -0.30555,0.30558 -0.47222,0.4653 -0.5,0.47917 v -9.97917 h -4.3125 v 31.35416"
           inkscape:connector-curvature="0"
           style="stroke-width:1.06666672" />
        <path
           id="path3080"
           d="m 542.36361,847.06126 h 2.18749 v 11.95833 c 0,2.1389 0.21528,3.78473 0.64584,4.93751 0.72222,1.93055 2.15278,2.89583 4.29167,2.89583 0.69443,0 1.24999,-0.0417 1.66666,-0.125 0.0694,-0.0139 0.1736,-0.0417 0.31251,-0.0833 0.15276,-0.0417 0.26387,-0.0694 0.33333,-0.0833 v -4.22916 c -0.0556,0.0139 -0.1389,0.0278 -0.25001,0.0417 -0.11111,0.0139 -0.19445,0.0277 -0.24999,0.0417 -0.3889,0.0556 -0.75002,0.0833 -1.08334,0.0833 -0.59723,0 -0.99306,-0.46527 -1.1875,-1.39583 -0.11111,-0.51389 -0.16668,-1.32639 -0.16666,-2.4375 v -11.60417 h 2.9375 v -3.875 h -2.9375 v -5.77083 h -4.31251 v 5.77083 h -2.18749 v 3.875"
           inkscape:connector-curvature="0"
           style="stroke-width:1.06666672" />
      </g>
      <g
         id="text3029"
         style="font-style:normal;font-variant:normal;font-weight:normal;font-stretch:normal;font-size:25.41747856px;line-height:125%;font-family:'League Gothic';-inkscape-font-specification:'League Gothic';letter-spacing:0px;word-spacing:0px;fill:#000000;fill-opacity:1;stroke:none"
         transform="matrix(0.74895077,0,0,0.74895077,74.582274,209.29218)">
        <path
           id="path3083"
           d="m 298.15526,824.61289 h 2.92566 v -8.4063 h 0.78106 l 1.5224,8.4063 h 2.92566 l -1.86659,-9.6507 c 0.53834,-0.36184 0.94432,-0.94431 1.21792,-1.74745 0.27357,-0.81193 0.41037,-1.73861 0.41038,-2.78004 -1e-5,-1.91512 -0.40157,-3.34926 -1.20468,-4.30243 -0.80313,-0.96197 -2.06518,-1.44296 -3.78615,-1.44298 h -2.92566 v 19.9236 m 2.92566,-11.12014 v -5.90427 c 0.61778,10e-6 1.08113,0.13681 1.39002,0.41038 0.5207,0.45894 0.78105,1.3062 0.78106,2.54175 -1e-5,1.22676 -0.26036,2.0696 -0.78106,2.52851 -0.31772,0.28243 -0.78106,0.42364 -1.39002,0.42363"
           inkscape:connector-curvature="0"
           style="stroke-width:1.06666672" />
        <path
           id="path3085"
           d="m 307.95158,824.61289 h 2.74032 v -14.82686 h -2.74032 v 14.82686 m 0,-17.18327 h 2.74032 v -2.74033 h -2.74032 v 2.74033"
           inkscape:connector-curvature="0"
           style="stroke-width:1.06666672" />
        <path
           id="path3087"
           d="m 312.66441,820.44284 c 0,1.57976 0.33095,2.72708 0.99287,3.44195 0.57365,0.6266 1.40767,0.93991 2.50203,0.93991 1.20026,0 2.07399,-0.29565 2.62118,-0.88696 0.60013,-0.65309 0.90019,-1.77393 0.9002,-3.36252 v -1.44297 h -2.74032 v 2.06517 c -10e-6,0.45892 -0.0529,0.77223 -0.15886,0.93991 -0.10592,0.16769 -0.31331,0.25153 -0.6222,0.25153 -0.22946,0 -0.40598,-0.0661 -0.52953,-0.19858 -0.11474,-0.1412 -0.18534,-0.28241 -0.21182,-0.42361 -0.0176,-0.15004 -0.0265,-0.33979 -0.0265,-0.56925 v -7.99592 c 0,-0.22945 0.009,-0.41479 0.0265,-0.55601 0.0265,-0.15001 0.0971,-0.29123 0.21182,-0.42362 0.12355,-0.1412 0.30007,-0.2118 0.52953,-0.21181 0.30889,1e-5 0.51628,0.0838 0.6222,0.25153 0.10592,0.16769 0.15885,0.481 0.15886,0.93991 v 1.78717 h 2.74032 v -1.16497 c -1e-5,-1.58857 -0.30007,-2.70942 -0.9002,-3.36252 -0.54719,-0.60012 -1.42092,-0.90019 -2.62118,-0.9002 -1.08554,10e-6 -1.91956,0.31773 -2.50203,0.95315 -0.66192,0.71488 -0.99287,1.8622 -0.99287,3.44196 v 6.48675"
           inkscape:connector-curvature="0"
           style="stroke-width:1.06666672" />
        <path
           id="path3089"
           d="m 321.40166,824.61289 h 2.74033 v -5.1232 l 0.3442,-0.87373 0.0927,-0.21182 h 0.13238 l 0.0529,0.21182 1.3503,5.99693 h 2.63442 l -2.48879,-10.00813 1.9725,-4.81873 h -2.46233 l -1.33706,3.87881 -0.15886,0.47658 h -0.13238 v -9.45213 h -2.74033 v 19.9236"
           inkscape:connector-curvature="0"
           style="stroke-width:1.06666672" />
        <path
           id="path3091"
           d="m 334.05745,824.61289 h 2.92566 v -8.67107 h 2.71385 v -3.01832 h -2.71385 v -5.22912 h 4.03767 v -3.00509 h -6.96333 v 19.9236"
           inkscape:connector-curvature="0"
           style="stroke-width:1.06666672" />
        <path
           id="path3093"
           d="m 341.77536,821.17094 c 0,1.35913 0.28242,2.352 0.84725,2.97861 0.36185,0.4501 0.81195,0.67515 1.35031,0.67515 0.52952,0 1.01051,-0.17209 1.44297,-0.51629 0.30889,-0.24711 0.56041,-0.54277 0.75458,-0.88696 h 0.18534 c -1e-5,0.58249 0.0838,0.97963 0.25152,1.19144 h 2.67413 c -0.12356,-0.75899 -0.18534,-1.61948 -0.18533,-2.58147 v -9.10792 c -1e-5,-0.96197 -0.33538,-1.76509 -1.00611,-2.40937 -0.66192,-0.63542 -1.43856,-0.95314 -2.32993,-0.95315 -1.05908,10e-6 -1.93279,0.38833 -2.62119,1.16496 -0.70604,0.79432 -1.05906,1.72541 -1.05906,2.79328 v 0.6222 h 2.74033 v -0.70163 c -1e-5,-0.18533 0.0176,-0.4192 0.0529,-0.70162 0.0971,-0.5207 0.33977,-0.78105 0.7281,-0.78106 0.32654,1e-5 0.55159,0.15004 0.67515,0.4501 0.0529,0.17651 0.0795,0.47659 0.0795,0.90019 v 1.62831 c -0.0177,0.0442 -0.0397,0.0882 -0.0662,0.13239 -0.0265,0.0353 -0.0662,0.075 -0.11914,0.11914 -0.053,0.0442 -0.10592,0.0838 -0.15887,0.11915 -0.0442,0.0265 -0.11031,0.0662 -0.19857,0.11915 -0.0882,0.0442 -0.16327,0.0838 -0.22504,0.11913 -0.0529,0.0265 -0.14122,0.0706 -0.26477,0.13239 -0.11474,0.0618 -0.20299,0.11032 -0.26477,0.14562 -0.91786,0.48542 -1.63273,1.04583 -2.1446,1.68126 -0.75899,0.94434 -1.13849,2.16667 -1.13849,3.667 m 2.68737,-0.41039 c 0,-0.74134 0.15444,-1.40766 0.46334,-1.99897 0.31771,-0.60013 0.79429,-1.03699 1.42973,-1.31059 v 3.79938 c -1e-5,0.25594 -0.11032,0.47217 -0.33095,0.64867 -0.22065,0.16769 -0.48982,0.25153 -0.80754,0.25153 -0.29124,0 -0.49865,-0.18975 -0.6222,-0.56925 -0.0882,-0.25593 -0.13238,-0.52952 -0.13238,-0.82077"
           inkscape:connector-curvature="0"
           style="stroke-width:1.06666672" />
        <path
           id="path3095"
           d="m 350.94948,824.61289 h 2.74033 v -19.9236 h -2.74033 v 19.9236"
           inkscape:connector-curvature="0"
           style="stroke-width:1.06666672" />
        <path
           id="path3097"
           d="m 355.87412,824.61289 h 2.74032 v -5.1232 l 0.34419,-0.87373 0.0927,-0.21182 h 0.13238 l 0.0529,0.21182 1.3503,5.99693 h 2.63442 l -2.4888,-10.00813 1.97251,-4.81873 h -2.46232 l -1.33707,3.87881 -0.15885,0.47658 h -0.13239 v -9.45213 h -2.74032 v 19.9236"
           inkscape:connector-curvature="0"
           style="stroke-width:1.06666672" />
        <path
           id="path3099"
           d="m 363.47289,809.78603 2.4226,14.82686 h 2.70061 l 2.4226,-14.82686 h -2.66089 l -0.9002,8.59163 -0.10592,0.95316 h -0.21181 l -0.10592,-0.95316 -0.9002,-8.59163 h -2.6609"
           inkscape:connector-curvature="0"
           style="stroke-width:1.06666672" />
        <path
           id="path3101"
           d="m 372.34253,824.61289 h 2.74032 v -14.82686 h -2.74032 v 14.82686 m 0,-17.18327 h 2.74032 v -2.74033 h -2.74032 v 2.74033"
           inkscape:connector-curvature="0"
           style="stroke-width:1.06666672" />
        <path
           id="path3103"
           d="m 377.26716,824.61289 h 2.74033 V 812.9235 c 0.0529,-0.0882 0.13237,-0.20298 0.23828,-0.34419 0.23828,-0.23829 0.45452,-0.35743 0.64868,-0.35744 0.44127,1e-5 0.6619,0.21624 0.66191,0.64868 v 11.74234 h 2.72709 v -12.15273 c -2e-5,-0.71486 -0.16328,-1.35471 -0.48982,-1.91955 -0.39716,-0.65307 -0.91786,-0.97962 -1.56212,-0.97963 -0.23829,10e-6 -0.47658,0.0662 -0.71486,0.19857 -0.32655,0.17652 -0.7237,0.49866 -1.19144,0.96639 -0.19417,0.19418 -0.30008,0.29567 -0.31772,0.30448 v -1.24439 h -2.74033 v 14.82686"
           inkscape:connector-curvature="0"
           style="stroke-width:1.06666672" />
        <path
           id="path3105"
           d="m 385.50138,827.04874 c 0,1.03257 0.40597,1.77392 1.21792,2.22402 0.6972,0.40597 1.75626,0.62219 3.17718,0.64868 1.28851,-10e-6 2.35641,-0.26918 3.20366,-0.80754 0.98845,-0.64427 1.48268,-1.63713 1.48269,-2.9786 -10e-6,-1.14732 -0.41481,-2.01663 -1.2444,-2.60795 -0.62662,-0.42362 -1.47386,-0.70162 -2.54175,-0.83401 -0.60014,-0.0882 -1.07231,-0.18975 -1.4165,-0.30448 -0.4501,-0.11473 -0.67515,-0.32213 -0.67515,-0.62219 0,-0.22064 0.12797,-0.44569 0.38391,-0.67516 0.0529,0.0177 0.1412,0.0265 0.26477,0.0265 h 0.25153 c 0.84724,10e-6 1.51357,-0.18974 1.99897,-0.56923 0.9355,-0.71487 1.44297,-1.74746 1.5224,-3.09776 v -4.19654 c 0,-0.13237 -0.009,-0.22503 -0.0265,-0.278 -0.0176,-0.0529 -0.0265,-0.15002 -0.0265,-0.29125 -0.0177,-0.0353 -0.0442,-0.15443 -0.0795,-0.35743 0.37949,-0.21179 0.90902,-0.3177 1.5886,-0.31771 v -2.44908 c -0.37951,10e-6 -0.81196,0.18094 -1.29736,0.54276 -0.29124,0.20301 -0.60896,0.4766 -0.95315,0.82078 -0.64427,-0.90901 -1.5533,-1.36353 -2.72708,-1.36354 -0.87373,10e-6 -1.53565,0.19858 -1.98574,0.59572 -0.89138,0.73253 -1.39003,1.79159 -1.49593,3.17719 v 4.03766 c 0.0176,0.30891 0.0927,0.71488 0.22505,1.21793 0.24711,0.90903 0.69722,1.57977 1.3503,2.01221 -0.42362,0.22064 -0.80312,0.53836 -1.13848,0.95316 -0.3795,0.46775 -0.56925,0.89138 -0.56925,1.27088 0,1.02375 0.55159,1.68126 1.65478,1.9725 -0.62661,0.29124 -1.11642,0.60013 -1.46945,0.92668 -0.4501,0.42362 -0.67514,0.86489 -0.67514,1.32382 m 2.66088,-0.4501 c 0,-0.4854 0.33537,-0.92227 1.00611,-1.31059 l 1.40326,0.27801 c 0.61778,0.0971 1.03258,0.23828 1.2444,0.42362 0.15003,0.15003 0.22504,0.36185 0.22505,0.63544 -10e-6,0.31772 -0.23388,0.56924 -0.70163,0.75458 -0.40598,0.15886 -0.86932,0.23828 -1.39002,0.23828 -0.60014,0 -1.05024,-0.0927 -1.3503,-0.27799 -0.29125,-0.18535 -0.43687,-0.43246 -0.43687,-0.74135 m 0.64868,-9.0947 v -4.06414 c -0.009,-0.0706 -0.0132,-0.1412 -0.0132,-0.21181 -10e-6,-0.15885 0.0221,-0.31329 0.0661,-0.46334 0.10592,-0.45009 0.35301,-0.67514 0.74135,-0.67516 0.22062,2e-5 0.38832,0.0706 0.50305,0.21182 0.22064,0.31773 0.33095,0.69723 0.33095,1.13849 v 4.06414 c 0,0.2736 -0.0265,0.50307 -0.0795,0.6884 -0.14121,0.43246 -0.39273,0.64868 -0.75458,0.64867 -0.20299,10e-6 -0.36626,-0.075 -0.48981,-0.22504 -0.203,-0.22947 -0.30449,-0.5516 -0.30448,-0.9664 -10e-6,-0.0442 -10e-6,-0.0927 0,-0.14563"
           inkscape:connector-curvature="0"
           style="stroke-width:1.06666672" />
        <path
           id="path3107"
           d="m 395.48303,820.91941 c 0.0265,0.6884 0.16768,1.34149 0.42363,1.95927 0.58247,1.29735 1.61506,1.94602 3.09775,1.94602 0.89137,0 1.57534,-0.19857 2.05193,-0.59572 0.4854,-0.38832 0.84283,-0.83842 1.0723,-1.3503 0.23828,-0.51189 0.37949,-1.13408 0.42363,-1.86659 v -1.70775 h -2.54175 v 1.61507 c -10e-6,0.30008 -0.0397,0.55601 -0.11915,0.76782 -0.12356,0.48541 -0.41039,0.72811 -0.86049,0.72811 -0.23829,0 -0.42804,-0.0706 -0.56924,-0.21181 -0.26477,-0.3442 -0.41039,-0.77223 -0.43686,-1.28412 v -3.21689 h 4.52749 v -4.31568 c -0.0265,-0.62661 -0.17211,-1.25762 -0.43687,-1.89308 -0.59131,-1.2885 -1.61949,-1.93277 -3.08452,-1.93278 -0.90902,10e-6 -1.58859,0.19858 -2.03869,0.59572 -0.92668,0.76783 -1.42974,1.87102 -1.50916,3.30957 v 7.45314 m 2.54175,-5.3615 v -2.09164 c 0.0264,-0.34419 0.0706,-0.59571 0.13238,-0.75458 0.15885,-0.50305 0.45009,-0.75457 0.87372,-0.75458 0.25594,1e-5 0.45452,0.0706 0.59572,0.21181 0.25594,0.31773 0.38391,0.75017 0.38392,1.29735 v 2.09164 h -1.98574"
           inkscape:connector-curvature="0"
           style="stroke-width:1.06666672" />
      </g>
    </g>
    <g
       id="g18282"
       transform="matrix(0.82792462,0,0,0.82792462,35.940301,119.90753)">
      <g
         transform="matrix(1.4188819,0,0,1.4188819,113.2525,-459.84112)"
         id="g3234">
        <g
           transform="matrix(0.83569431,0,0,0.83569431,2.6966236,135.31443)"
           id="g3341">
          <path
             style="font-style:normal;font-variant:normal;font-weight:normal;font-stretch:normal;font-size:22.97203255px;line-height:125%;font-family:'League Gothic';-inkscape-font-specification:'League Gothic';letter-spacing:0px;word-spacing:0px;fill:#000000;fill-opacity:1;stroke:none;stroke-width:1.06666672"
             inkscape:connector-curvature="0"
             d="m 16.41223,818.94661 h 2.476672 v -10.56473 c 0.04785,-0.0798 0.119643,-0.18345 0.215364,-0.31109 0.215359,-0.21534 0.41078,-0.32302 0.586265,-0.32304 0.398815,2e-5 0.598225,0.19544 0.59823,0.58627 v 10.61259 h 2.464708 v -10.9835 c -8e-6,-0.64608 -0.147571,-1.22436 -0.44269,-1.73486 -0.358945,-0.59024 -0.829552,-0.88537 -1.411823,-0.88538 -0.215369,1e-5 -0.430731,0.0598 -0.646089,0.17947 -0.295132,0.15954 -0.654069,0.45067 -1.076814,0.87341 -0.175484,0.17549 -0.271201,0.26723 -0.287151,0.27518 v -5.73104 H 16.41223 v 18.00672"
             id="path3155" />
          <path
             style="font-style:normal;font-variant:normal;font-weight:normal;font-stretch:normal;font-size:22.97203255px;line-height:125%;font-family:'League Gothic';-inkscape-font-specification:'League Gothic';letter-spacing:0px;word-spacing:0px;fill:#000000;fill-opacity:1;stroke:none;stroke-width:1.06666672"
             inkscape:connector-curvature="0"
             d="m 23.949929,807.77168 h 1.256282 v 6.86768 c -1e-6,1.22837 0.123633,2.17357 0.370904,2.83562 0.41477,1.10871 1.236338,1.66307 2.464707,1.66307 0.398815,0 0.717871,-0.0239 0.957168,-0.0718 0.03988,-0.007 0.0997,-0.0239 0.179469,-0.0479 0.08773,-0.0239 0.151546,-0.0399 0.191433,-0.0479 v -2.42882 c -0.03191,0.007 -0.07977,0.016 -0.143574,0.0239 -0.06382,0.007 -0.111676,0.016 -0.143576,0.0239 -0.223345,0.0319 -0.43073,0.0479 -0.622159,0.0479 -0.342989,0 -0.570316,-0.26721 -0.681982,-0.80163 -0.06382,-0.29512 -0.09572,-0.76174 -0.09571,-1.39985 v -6.66429 h 1.687008 v -2.22542 h -1.687008 v -3.31418 h -2.476674 v 3.31418 h -1.256282 v 2.22542"
             id="path3157" />
          <path
             style="font-style:normal;font-variant:normal;font-weight:normal;font-stretch:normal;font-size:22.97203255px;line-height:125%;font-family:'League Gothic';-inkscape-font-specification:'League Gothic';letter-spacing:0px;word-spacing:0px;fill:#000000;fill-opacity:1;stroke:none;stroke-width:1.06666672"
             inkscape:connector-curvature="0"
             d="m 29.932229,807.77168 h 1.256284 v 6.86768 c -2e-6,1.22837 0.123632,2.17357 0.370902,2.83562 0.414771,1.10871 1.236339,1.66307 2.464708,1.66307 0.398815,0 0.717871,-0.0239 0.957168,-0.0718 0.03988,-0.007 0.0997,-0.0239 0.179468,-0.0479 0.08773,-0.0239 0.151547,-0.0399 0.191434,-0.0479 v -2.42882 c -0.03191,0.007 -0.07977,0.016 -0.143574,0.0239 -0.06382,0.007 -0.111676,0.016 -0.143576,0.0239 -0.223344,0.0319 -0.43073,0.0479 -0.622159,0.0479 -0.34299,0 -0.570317,-0.26721 -0.681983,-0.80163 -0.06382,-0.29512 -0.09572,-0.76174 -0.09571,-1.39985 v -6.66429 h 1.687008 v -2.22542 h -1.687008 v -3.31418 h -2.476672 v 3.31418 h -1.256283 v 2.22542"
             id="path3159" />
          <path
             style="font-style:normal;font-variant:normal;font-weight:normal;font-stretch:normal;font-size:22.97203255px;line-height:125%;font-family:'League Gothic';-inkscape-font-specification:'League Gothic';letter-spacing:0px;word-spacing:0px;fill:#000000;fill-opacity:1;stroke:none;stroke-width:1.06666672"
             inkscape:connector-curvature="0"
             d="m 36.656335,823.55299 h 2.476672 v -5.49175 c 0.271194,0.23929 0.482568,0.41876 0.634124,0.53841 0.486555,0.35893 0.929246,0.5384 1.32807,0.5384 0.598224,0 1.084784,-0.29912 1.459681,-0.89735 0.29512,-0.48656 0.442684,-1.06085 0.44269,-1.7229 v -8.55469 c -6e-6,-0.64608 -0.14757,-1.22436 -0.44269,-1.73486 -0.39085,-0.59024 -0.87741,-0.88537 -1.459681,-0.88538 -0.247274,1e-5 -0.478589,0.0598 -0.693947,0.17947 -0.398824,0.17549 -0.821573,0.47461 -1.268247,0.89734 v -0.87342 h -2.476672 v 18.00673 m 2.476672,-7.54966 v -7.51377 c -3e-6,-0.23131 0.07179,-0.42274 0.215362,-0.57431 0.151549,-0.15951 0.323041,-0.23927 0.514478,-0.23928 0.183453,10e-6 0.338993,0.0798 0.46662,0.23928 0.135594,0.15157 0.203393,0.343 0.203398,0.57431 v 7.51377 c -5e-6,0.23132 -0.06781,0.42674 -0.203398,0.58626 -0.127627,0.15155 -0.283167,0.22733 -0.46662,0.22733 -0.18346,0 -0.350965,-0.0837 -0.502513,-0.25126 -0.151555,-0.17547 -0.22733,-0.36292 -0.227327,-0.56233"
             id="path3161" />
          <path
             style="font-style:normal;font-variant:normal;font-weight:normal;font-stretch:normal;font-size:22.97203255px;line-height:125%;font-family:'League Gothic';-inkscape-font-specification:'League Gothic';letter-spacing:0px;word-spacing:0px;fill:#000000;fill-opacity:1;stroke:none;stroke-width:1.06666672"
             inkscape:connector-curvature="0"
             d="m 44.792262,818.94661 h 2.57239 v -2.71595 h -2.57239 v 2.71595 m 0,-10.68438 h 2.57239 v -2.71597 h -2.57239 v 2.71597"
             id="path3163" />
          <path
             style="font-style:normal;font-variant:normal;font-weight:normal;font-stretch:normal;font-size:22.97203255px;line-height:125%;font-family:'League Gothic';-inkscape-font-specification:'League Gothic';letter-spacing:0px;word-spacing:0px;fill:#000000;fill-opacity:1;stroke:none;stroke-width:1.06666672"
             inkscape:connector-curvature="0"
             d="m 48.357713,820.70542 h 2.010053 l 6.42499,-19.76553 h -1.938264 l -6.496779,19.76553"
             id="path3165" />
          <path
             style="font-style:normal;font-variant:normal;font-weight:normal;font-stretch:normal;font-size:22.97203255px;line-height:125%;font-family:'League Gothic';-inkscape-font-specification:'League Gothic';letter-spacing:0px;word-spacing:0px;fill:#000000;fill-opacity:1;stroke:none;stroke-width:1.06666672"
             inkscape:connector-curvature="0"
             d="m 56.972227,820.70542 h 2.010054 l 6.424989,-19.76553 h -1.938264 l -6.496779,19.76553"
             id="path3167" />
          <path
             style="font-style:normal;font-variant:normal;font-weight:normal;font-stretch:normal;font-size:22.97203255px;line-height:125%;font-family:'League Gothic';-inkscape-font-specification:'League Gothic';letter-spacing:0px;word-spacing:0px;fill:#000000;fill-opacity:1;stroke:none;stroke-width:1.06666672"
             inkscape:connector-curvature="0"
             d="m 66.472118,823.55299 h 2.476672 v -5.49175 c 0.271194,0.23929 0.482569,0.41876 0.634124,0.53841 0.486556,0.35893 0.929246,0.5384 1.328071,0.5384 0.598224,0 1.084784,-0.29912 1.459682,-0.89735 0.295119,-0.48656 0.442682,-1.06085 0.44269,-1.7229 v -8.55469 c -8e-6,-0.64608 -0.147571,-1.22436 -0.44269,-1.73486 -0.39085,-0.59024 -0.87741,-0.88537 -1.459682,-0.88538 -0.247274,1e-5 -0.478589,0.0598 -0.693947,0.17947 -0.398825,0.17549 -0.821573,0.47461 -1.268248,0.89734 v -0.87342 h -2.476672 v 18.00673 m 2.476672,-7.54966 v -7.51377 c -3e-6,-0.23131 0.07179,-0.42274 0.215364,-0.57431 0.151547,-0.15951 0.32304,-0.23927 0.514477,-0.23928 0.183453,10e-6 0.338992,0.0798 0.466619,0.23928 0.135595,0.15157 0.203394,0.343 0.203399,0.57431 v 7.51377 c -5e-6,0.23132 -0.06781,0.42674 -0.203399,0.58626 -0.127627,0.15155 -0.283166,0.22733 -0.466619,0.22733 -0.183461,0 -0.350965,-0.0837 -0.502513,-0.25126 -0.151555,-0.17547 -0.227331,-0.36292 -0.227328,-0.56233"
             id="path3169" />
          <path
             style="font-style:normal;font-variant:normal;font-weight:normal;font-stretch:normal;font-size:22.97203255px;line-height:125%;font-family:'League Gothic';-inkscape-font-specification:'League Gothic';letter-spacing:0px;word-spacing:0px;fill:#000000;fill-opacity:1;stroke:none;stroke-width:1.06666672"
             inkscape:connector-curvature="0"
             d="m 74.308931,815.83582 c -10e-7,1.22837 0.255244,2.12572 0.765735,2.69204 0.32703,0.4068 0.733826,0.61019 1.220389,0.61019 0.47858,0 0.913294,-0.15554 1.304141,-0.46662 0.27917,-0.22333 0.506497,-0.49054 0.681983,-0.80163 h 0.167504 c -5e-6,0.52645 0.07577,0.88538 0.227328,1.07681 h 2.416849 c -0.111677,-0.68596 -0.167512,-1.46367 -0.167505,-2.33308 v -8.23165 c -7e-6,-0.86942 -0.30311,-1.59528 -0.909309,-2.17756 -0.598236,-0.57429 -1.300159,-0.86144 -2.10577,-0.86145 -0.957171,1e-5 -1.746834,0.35098 -2.368991,1.05288 -0.638113,0.71789 -0.957169,1.5594 -0.957168,2.52453 v 0.56233 h 2.476672 v -0.63412 c -3e-6,-0.16749 0.01595,-0.37887 0.04786,-0.63412 0.08773,-0.47059 0.307088,-0.7059 0.658053,-0.70591 0.295122,10e-6 0.498521,0.13561 0.610194,0.40679 0.04785,0.15954 0.07179,0.43074 0.07179,0.8136 v 1.47164 c -0.01596,0.0399 -0.0359,0.0798 -0.05982,0.11965 -0.02394,0.0319 -0.05983,0.0678 -0.107681,0.10768 -0.04786,0.0399 -0.09572,0.0758 -0.143575,0.10768 -0.03988,0.0239 -0.09971,0.0598 -0.179469,0.10769 -0.07977,0.0399 -0.147568,0.0757 -0.203399,0.10768 -0.04786,0.0239 -0.127626,0.0638 -0.239291,0.11964 -0.103702,0.0559 -0.183462,0.0997 -0.239293,0.13161 -0.829548,0.43871 -1.475635,0.94521 -1.938265,1.51951 -0.685971,0.85347 -1.028956,1.95821 -1.028955,3.31419 m 2.428813,-0.3709 c -3e-6,-0.67002 0.139584,-1.27224 0.418761,-1.80666 0.287147,-0.54239 0.717872,-0.93721 1.292177,-1.18449 v 3.43384 c -4e-6,0.23131 -0.09971,0.42674 -0.299115,0.58627 -0.199414,0.15155 -0.442694,0.22733 -0.729841,0.22733 -0.263224,0 -0.45067,-0.1715 -0.562336,-0.51449 -0.07977,-0.23131 -0.119649,-0.47858 -0.119646,-0.7418"
             id="path3171" />
          <path
             style="font-style:normal;font-variant:normal;font-weight:normal;font-stretch:normal;font-size:22.97203255px;line-height:125%;font-family:'League Gothic';-inkscape-font-specification:'League Gothic';letter-spacing:0px;word-spacing:0px;fill:#000000;fill-opacity:1;stroke:none;stroke-width:1.06666672"
             inkscape:connector-curvature="0"
             d="m 82.600398,818.94661 h 2.476672 v -9.30846 c -3e-6,-0.51845 0.179465,-0.92923 0.538407,-1.23235 0.287146,-0.27119 0.701918,-0.40678 1.244318,-0.40679 0.271193,10e-6 0.502508,0.0319 0.693947,0.0957 v -2.75185 c -0.749787,10e-6 -1.379921,0.2393 -1.890407,0.71787 -0.175484,0.17549 -0.315072,0.35496 -0.41876,0.5384 -0.09572,0.18348 -0.151555,0.33104 -0.167505,0.44269 v -1.49557 h -2.476672 v 13.40035"
             id="path3173" />
          <path
             style="font-style:normal;font-variant:normal;font-weight:normal;font-stretch:normal;font-size:22.97203255px;line-height:125%;font-family:'League Gothic';-inkscape-font-specification:'League Gothic';letter-spacing:0px;word-spacing:0px;fill:#000000;fill-opacity:1;stroke:none;stroke-width:1.06666672"
             inkscape:connector-curvature="0"
             d="m 87.888752,807.77168 h 1.256283 v 6.86768 c -10e-7,1.22837 0.123633,2.17357 0.370903,2.83562 0.41477,1.10871 1.236338,1.66307 2.464707,1.66307 0.398815,0 0.717871,-0.0239 0.957168,-0.0718 0.03987,-0.007 0.0997,-0.0239 0.179469,-0.0479 0.08773,-0.0239 0.151547,-0.0399 0.191434,-0.0479 v -2.42882 c -0.03191,0.007 -0.07977,0.016 -0.143575,0.0239 -0.06382,0.007 -0.111675,0.016 -0.143575,0.0239 -0.223345,0.0319 -0.430731,0.0479 -0.622159,0.0479 -0.34299,0 -0.570317,-0.26721 -0.681983,-0.80163 -0.06382,-0.29512 -0.09572,-0.76174 -0.09571,-1.39985 v -6.66429 h 1.687008 v -2.22542 h -1.687008 v -3.31418 h -2.476673 v 3.31418 h -1.256283 v 2.22542"
             id="path3175" />
          <path
             style="font-style:normal;font-variant:normal;font-weight:normal;font-stretch:normal;font-size:22.97203255px;line-height:125%;font-family:'League Gothic';-inkscape-font-specification:'League Gothic';letter-spacing:0px;word-spacing:0px;fill:#000000;fill-opacity:1;stroke:none;stroke-width:1.06666672"
             inkscape:connector-curvature="0"
             d="m 94.612858,818.94661 h 2.476672 v -13.40035 h -2.476672 v 13.40035 m 0,-15.53004 h 2.476672 v -2.47668 h -2.476672 v 2.47668"
             id="path3177" />
          <path
             style="font-style:normal;font-variant:normal;font-weight:normal;font-stretch:normal;font-size:22.97203255px;line-height:125%;font-family:'League Gothic';-inkscape-font-specification:'League Gothic';letter-spacing:0px;word-spacing:0px;fill:#000000;fill-opacity:1;stroke:none;stroke-width:1.06666672"
             inkscape:connector-curvature="0"
             d="m 98.96797,816.5178 c -10e-7,0.678 0.155539,1.2523 0.46662,1.7229 0.35096,0.59823 0.82954,0.89735 1.43575,0.89735 0.25524,0 0.49454,-0.0558 0.71788,-0.1675 0.36691,-0.16751 0.78168,-0.47061 1.24432,-0.90931 v 0.88537 h 2.47667 v -18.00672 h -2.47667 v 5.47979 c -0.27121,-0.23927 -0.48258,-0.41875 -0.63413,-0.53841 -0.48656,-0.35892 -0.92925,-0.53839 -1.32807,-0.5384 -0.59823,1e-5 -1.076814,0.29514 -1.43575,0.88538 -0.311081,0.49454 -0.466621,1.07284 -0.46662,1.73486 v 8.55469 m 2.47667,-0.51447 v -7.51377 c 0,-0.23131 0.0638,-0.42274 0.19144,-0.57431 0.12761,-0.15951 0.28316,-0.23927 0.46662,-0.23928 0.18345,10e-6 0.35095,0.0878 0.50251,0.26322 0.15155,0.16751 0.22732,0.35096 0.22733,0.55037 v 7.51377 c -10e-6,0.23132 -0.0758,0.42674 -0.22733,0.58626 -0.14358,0.15155 -0.31109,0.22733 -0.50251,0.22733 -0.18346,0 -0.33901,-0.0757 -0.46662,-0.22733 -0.12763,-0.15952 -0.19144,-0.35494 -0.19144,-0.58626"
             id="path3179" />
          <path
             style="font-style:normal;font-variant:normal;font-weight:normal;font-stretch:normal;font-size:22.97203255px;line-height:125%;font-family:'League Gothic';-inkscape-font-specification:'League Gothic';letter-spacing:0px;word-spacing:0px;fill:#000000;fill-opacity:1;stroke:none;stroke-width:1.06666672"
             inkscape:connector-curvature="0"
             d="m 107.06801,815.60849 c 0.0239,0.60621 0.15554,1.19647 0.39483,1.77076 0.52644,1.17254 1.45171,1.7588 2.77579,1.7588 0.80562,0 1.42378,-0.17947 1.85451,-0.5384 0.43072,-0.35097 0.74978,-0.75776 0.95717,-1.2204 0.20738,-0.4706 0.33101,-1.03294 0.37091,-1.687 v -6.89161 c -0.0239,-0.56631 -0.15556,-1.13663 -0.39484,-1.71094 -0.53442,-1.16455 -1.46367,-1.74682 -2.78775,-1.74683 -0.82157,1e-5 -1.43575,0.17948 -1.84254,0.5384 -0.8136,0.68598 -1.25629,1.68304 -1.32808,2.99116 v 6.73606 m 2.3331,0 v -6.73606 c -0.007,-0.0638 -0.0119,-0.12762 -0.0119,-0.19144 0,-0.18344 0.0279,-0.34696 0.0837,-0.49055 0.11963,-0.45464 0.37489,-0.68197 0.76573,-0.68198 0.23131,10e-6 0.41078,0.0638 0.5384,0.19143 0.20739,0.26324 0.31108,0.61021 0.31109,1.04092 -1e-5,0.0479 -1e-5,0.0917 0,0.13162 v 6.73606 c 0.007,0.0638 0.0119,0.12763 0.0119,0.19144 -1e-5,0.19143 -0.0279,0.35894 -0.0837,0.50251 -0.11168,0.4387 -0.37091,0.65805 -0.7777,0.65805 -0.21537,0 -0.38685,-0.0638 -0.51448,-0.19143 -0.21536,-0.27917 -0.32304,-0.62216 -0.32304,-1.02895 0,-0.0479 0,-0.0917 0,-0.13162"
             id="path3181" />
          <path
             style="font-style:normal;font-variant:normal;font-weight:normal;font-stretch:normal;font-size:22.97203255px;line-height:125%;font-family:'League Gothic';-inkscape-font-specification:'League Gothic';letter-spacing:0px;word-spacing:0px;fill:#000000;fill-opacity:1;stroke:none;stroke-width:1.06666672"
             inkscape:connector-curvature="0"
             d="m 115.14412,823.55299 h 2.47667 v -5.49175 c 0.27119,0.23929 0.48257,0.41876 0.63412,0.53841 0.48656,0.35893 0.92925,0.5384 1.32808,0.5384 0.59822,0 1.08478,-0.29912 1.45968,-0.89735 0.29511,-0.48656 0.44267,-1.06085 0.44268,-1.7229 v -8.55469 c -1e-5,-0.64608 -0.14757,-1.22436 -0.44268,-1.73486 -0.39085,-0.59024 -0.87741,-0.88537 -1.45968,-0.88538 -0.24728,1e-5 -0.4786,0.0598 -0.69396,0.17947 -0.39882,0.17549 -0.82156,0.47461 -1.26824,0.89734 v -0.87342 h -2.47667 v 18.00673 m 2.47667,-7.54966 v -7.51377 c 0,-0.23131 0.0718,-0.42274 0.21536,-0.57431 0.15155,-0.15951 0.32304,-0.23927 0.51448,-0.23928 0.18345,10e-6 0.33899,0.0798 0.46662,0.23928 0.13559,0.15157 0.20339,0.343 0.2034,0.57431 v 7.51377 c -1e-5,0.23132 -0.0678,0.42674 -0.2034,0.58626 -0.12763,0.15155 -0.28317,0.22733 -0.46662,0.22733 -0.18346,0 -0.35096,-0.0837 -0.50251,-0.25126 -0.15155,-0.17547 -0.22733,-0.36292 -0.22733,-0.56233"
             id="path3183" />
          <path
             style="font-style:normal;font-variant:normal;font-weight:normal;font-stretch:normal;font-size:22.97203255px;line-height:125%;font-family:'League Gothic';-inkscape-font-specification:'League Gothic';letter-spacing:0px;word-spacing:0px;fill:#000000;fill-opacity:1;stroke:none;stroke-width:1.06666672"
             inkscape:connector-curvature="0"
             d="m 123.37575,818.94661 h 2.47668 v -13.40035 h -2.47668 v 13.40035 m 0,-15.53004 h 2.47668 v -2.47668 h -2.47668 v 2.47668"
             id="path3185" />
          <path
             style="font-style:normal;font-variant:normal;font-weight:normal;font-stretch:normal;font-size:22.97203255px;line-height:125%;font-family:'League Gothic';-inkscape-font-specification:'League Gothic';letter-spacing:0px;word-spacing:0px;fill:#000000;fill-opacity:1;stroke:none;stroke-width:1.06666672"
             inkscape:connector-curvature="0"
             d="m 127.82659,818.94661 h 2.47667 v -9.30846 c -1e-5,-0.51845 0.17947,-0.92923 0.5384,-1.23235 0.28715,-0.27119 0.70192,-0.40678 1.24432,-0.40679 0.27119,10e-6 0.50251,0.0319 0.69396,0.0957 v -2.75185 c -0.7498,10e-6 -1.37993,0.2393 -1.89041,0.71787 -0.17549,0.17549 -0.31508,0.35496 -0.41877,0.5384 -0.0957,0.18348 -0.15155,0.33104 -0.1675,0.44269 v -1.49557 h -2.47667 v 13.40035"
             id="path3187" />
          <path
             style="font-style:normal;font-variant:normal;font-weight:normal;font-stretch:normal;font-size:22.97203255px;line-height:125%;font-family:'League Gothic';-inkscape-font-specification:'League Gothic';letter-spacing:0px;word-spacing:0px;fill:#000000;fill-opacity:1;stroke:none;stroke-width:1.06666672"
             inkscape:connector-curvature="0"
             d="m 133.46192,815.83582 c 0,1.22837 0.25524,2.12572 0.76573,2.69204 0.32703,0.4068 0.73382,0.61019 1.22039,0.61019 0.47858,0 0.91329,-0.15554 1.30414,-0.46662 0.27917,-0.22333 0.5065,-0.49054 0.68199,-0.80163 h 0.16749 c 0,0.52645 0.0757,0.88538 0.22733,1.07681 h 2.41686 c -0.11168,-0.68596 -0.16751,-1.46367 -0.16751,-2.33308 v -8.23165 c 0,-0.86942 -0.30311,-1.59528 -0.90931,-2.17756 -0.59824,-0.57429 -1.30016,-0.86144 -2.10577,-0.86145 -0.95717,1e-5 -1.74683,0.35098 -2.36899,1.05288 -0.63811,0.71789 -0.95717,1.5594 -0.95717,2.52453 v 0.56233 h 2.47667 v -0.63412 c 0,-0.16749 0.016,-0.37887 0.0479,-0.63412 0.0878,-0.47059 0.3071,-0.7059 0.65805,-0.70591 0.29513,10e-6 0.49853,0.13561 0.6102,0.40679 0.0479,0.15954 0.0718,0.43074 0.0718,0.8136 v 1.47164 c -0.016,0.0399 -0.0358,0.0798 -0.0598,0.11965 -0.0239,0.0319 -0.0598,0.0678 -0.10768,0.10768 -0.0479,0.0399 -0.0957,0.0758 -0.14358,0.10768 -0.0399,0.0239 -0.0997,0.0598 -0.17947,0.10769 -0.0798,0.0399 -0.14757,0.0757 -0.2034,0.10768 -0.0479,0.0239 -0.12762,0.0638 -0.23929,0.11964 -0.10368,0.0559 -0.18346,0.0997 -0.23929,0.13161 -0.82956,0.43871 -1.47564,0.94521 -1.93827,1.51951 -0.68597,0.85347 -1.02895,1.95821 -1.02895,3.31419 m 2.42881,-0.3709 c 0,-0.67002 0.13959,-1.27224 0.41876,-1.80666 0.28715,-0.54239 0.71787,-0.93721 1.29217,-1.18449 v 3.43384 c 0,0.23131 -0.0997,0.42674 -0.29911,0.58627 -0.19941,0.15155 -0.44269,0.22733 -0.72983,0.22733 -0.26324,0 -0.45068,-0.1715 -0.56234,-0.51449 -0.0798,-0.23131 -0.11965,-0.47858 -0.11965,-0.7418"
             id="path3189" />
          <path
             style="font-style:normal;font-variant:normal;font-weight:normal;font-stretch:normal;font-size:22.97203255px;line-height:125%;font-family:'League Gothic';-inkscape-font-specification:'League Gothic';letter-spacing:0px;word-spacing:0px;fill:#000000;fill-opacity:1;stroke:none;stroke-width:1.06666672"
             inkscape:connector-curvature="0"
             d="m 141.01158,807.77168 h 1.25628 v 6.86768 c 0,1.22837 0.12364,2.17357 0.3709,2.83562 0.41478,1.10871 1.23634,1.66307 2.46472,1.66307 0.39881,0 0.71786,-0.0239 0.95716,-0.0718 0.0399,-0.007 0.0997,-0.0239 0.17947,-0.0479 0.0878,-0.0239 0.15155,-0.0399 0.19143,-0.0479 v -2.42882 c -0.0319,0.007 -0.0798,0.016 -0.14357,0.0239 -0.0638,0.007 -0.11167,0.016 -0.14358,0.0239 -0.22334,0.0319 -0.43073,0.0479 -0.62215,0.0479 -0.343,0 -0.57033,-0.26721 -0.68198,-0.80163 -0.0638,-0.29512 -0.0957,-0.76174 -0.0957,-1.39985 v -6.66429 h 1.687 v -2.22542 h -1.687 v -3.31418 h -2.47668 v 3.31418 h -1.25627 v 2.22542"
             id="path3191" />
          <path
             style="font-style:normal;font-variant:normal;font-weight:normal;font-stretch:normal;font-size:22.97203255px;line-height:125%;font-family:'League Gothic';-inkscape-font-specification:'League Gothic';letter-spacing:0px;word-spacing:0px;fill:#000000;fill-opacity:1;stroke:none;stroke-width:1.06666672"
             inkscape:connector-curvature="0"
             d="m 147.34085,815.83582 c 0,1.22837 0.25525,2.12572 0.76574,2.69204 0.32703,0.4068 0.73383,0.61019 1.22039,0.61019 0.47858,0 0.9133,-0.15554 1.30413,-0.46662 0.27918,-0.22333 0.50651,-0.49054 0.68199,-0.80163 h 0.16751 c -1e-5,0.52645 0.0757,0.88538 0.22733,1.07681 h 2.41684 c -0.11167,-0.68596 -0.16751,-1.46367 -0.1675,-2.33308 v -8.23165 c -1e-5,-0.86942 -0.30311,-1.59528 -0.90931,-2.17756 -0.59824,-0.57429 -1.30016,-0.86144 -2.10577,-0.86145 -0.95718,1e-5 -1.74684,0.35098 -2.36899,1.05288 -0.63812,0.71789 -0.95717,1.5594 -0.95717,2.52453 v 0.56233 h 2.47667 v -0.63412 c 0,-0.16749 0.0159,-0.37887 0.0479,-0.63412 0.0877,-0.47059 0.30708,-0.7059 0.65805,-0.70591 0.29512,10e-6 0.49851,0.13561 0.61019,0.40679 0.0479,0.15954 0.0718,0.43074 0.0718,0.8136 v 1.47164 c -0.016,0.0399 -0.0359,0.0798 -0.0598,0.11965 -0.0239,0.0319 -0.0598,0.0678 -0.10768,0.10768 -0.0479,0.0399 -0.0957,0.0758 -0.14357,0.10768 -0.0399,0.0239 -0.0997,0.0598 -0.17947,0.10769 -0.0798,0.0399 -0.14757,0.0757 -0.2034,0.10768 -0.0479,0.0239 -0.12763,0.0638 -0.23929,0.11964 -0.10368,0.0559 -0.18346,0.0997 -0.23929,0.13161 -0.82955,0.43871 -1.47564,0.94521 -1.93827,1.51951 -0.68597,0.85347 -1.02896,1.95821 -1.02896,3.31419 m 2.42882,-0.3709 c 0,-0.67002 0.13958,-1.27224 0.41876,-1.80666 0.28714,-0.54239 0.71788,-0.93721 1.29218,-1.18449 v 3.43384 c -1e-5,0.23131 -0.0997,0.42674 -0.29912,0.58627 -0.19941,0.15155 -0.44269,0.22733 -0.72984,0.22733 -0.26322,0 -0.45067,-0.1715 -0.56234,-0.51449 -0.0798,-0.23131 -0.11964,-0.47858 -0.11964,-0.7418"
             id="path3193" />
          <path
             style="font-style:normal;font-variant:normal;font-weight:normal;font-stretch:normal;font-size:22.97203255px;line-height:125%;font-family:'League Gothic';-inkscape-font-specification:'League Gothic';letter-spacing:0px;word-spacing:0px;fill:#000000;fill-opacity:1;stroke:none;stroke-width:1.06666672"
             inkscape:connector-curvature="0"
             d="m 155.28534,818.94661 h 2.57239 v -2.71595 h -2.57239 v 2.71595"
             id="path3195" />
          <path
             style="font-style:normal;font-variant:normal;font-weight:normal;font-stretch:normal;font-size:22.97203255px;line-height:125%;font-family:'League Gothic';-inkscape-font-specification:'League Gothic';letter-spacing:0px;word-spacing:0px;fill:#000000;fill-opacity:1;stroke:none;stroke-width:1.06666672"
             inkscape:connector-curvature="0"
             d="m 159.26956,815.17777 c 0,1.42778 0.29911,2.4647 0.89735,3.1108 0.51847,0.56632 1.27223,0.84948 2.2613,0.84948 1.08479,0 1.87446,-0.26721 2.369,-0.80162 0.54238,-0.59026 0.81358,-1.60326 0.8136,-3.03901 v -1.30415 h -2.47669 v 1.86648 c 0,0.41478 -0.0479,0.69794 -0.14357,0.84949 -0.0957,0.15155 -0.28317,0.22733 -0.56234,0.22733 -0.20739,0 -0.36691,-0.0598 -0.47858,-0.17947 -0.10368,-0.12763 -0.16751,-0.25524 -0.19143,-0.38287 -0.016,-0.1356 -0.0239,-0.30709 -0.0239,-0.51448 v -7.22662 c -1e-5,-0.20737 0.007,-0.37488 0.0239,-0.50252 0.0239,-0.13558 0.0877,-0.2632 0.19143,-0.38286 0.11167,-0.12761 0.27119,-0.19142 0.47858,-0.19143 0.27917,10e-6 0.46662,0.0758 0.56234,0.22733 0.0957,0.15156 0.14357,0.43472 0.14357,0.84948 v 1.61522 h 2.47669 v -1.05288 c -2e-5,-1.43575 -0.27122,-2.44875 -0.8136,-3.03901 -0.49454,-0.54238 -1.28421,-0.81358 -2.369,-0.81359 -0.9811,1e-5 -1.73487,0.28716 -2.2613,0.86145 -0.59824,0.6461 -0.89735,1.68303 -0.89735,3.11079 v 5.86266"
             id="path3197" />
          <path
             style="font-style:normal;font-variant:normal;font-weight:normal;font-stretch:normal;font-size:22.97203255px;line-height:125%;font-family:'League Gothic';-inkscape-font-specification:'League Gothic';letter-spacing:0px;word-spacing:0px;fill:#000000;fill-opacity:1;stroke:none;stroke-width:1.06666672"
             inkscape:connector-curvature="0"
             d="m 166.93888,815.60849 c 0.0239,0.60621 0.15553,1.19647 0.39483,1.77076 0.52644,1.17254 1.4517,1.7588 2.77578,1.7588 0.80561,0 1.42379,-0.17947 1.85452,-0.5384 0.43072,-0.35097 0.74977,-0.75776 0.95716,-1.2204 0.20738,-0.4706 0.33102,-1.03294 0.3709,-1.687 v -6.89161 c -0.0239,-0.56631 -0.15554,-1.13663 -0.39482,-1.71094 -0.53442,-1.16455 -1.46368,-1.74682 -2.78776,-1.74683 -0.82156,1e-5 -1.43575,0.17948 -1.84255,0.5384 -0.81359,0.68598 -1.25627,1.68304 -1.32806,2.99116 v 6.73606 m 2.3331,0 v -6.73606 c -0.007,-0.0638 -0.012,-0.12762 -0.012,-0.19144 0,-0.18344 0.028,-0.34696 0.0837,-0.49055 0.11963,-0.45464 0.37488,-0.68197 0.76572,-0.68198 0.23132,10e-6 0.41079,0.0638 0.53841,0.19143 0.20739,0.26324 0.31108,0.61021 0.31109,1.04092 -1e-5,0.0479 -1e-5,0.0917 0,0.13162 v 6.73606 c 0.007,0.0638 0.0119,0.12763 0.0119,0.19144 0,0.19143 -0.0279,0.35894 -0.0837,0.50251 -0.11168,0.4387 -0.37091,0.65805 -0.77771,0.65805 -0.21536,0 -0.38686,-0.0638 -0.51447,-0.19143 -0.21537,-0.27917 -0.32305,-0.62216 -0.32304,-1.02895 -1e-5,-0.0479 -1e-5,-0.0917 0,-0.13162"
             id="path3199" />
          <path
             style="font-style:normal;font-variant:normal;font-weight:normal;font-stretch:normal;font-size:22.97203255px;line-height:125%;font-family:'League Gothic';-inkscape-font-specification:'League Gothic';letter-spacing:0px;word-spacing:0px;fill:#000000;fill-opacity:1;stroke:none;stroke-width:1.06666672"
             inkscape:connector-curvature="0"
             d="m 175.01497,818.94661 h 2.47667 v -10.56473 c 0.0479,-0.0798 0.13559,-0.18345 0.26322,-0.31109 0.21536,-0.21534 0.4387,-0.32302 0.67001,-0.32304 0.4387,2e-5 0.65805,0.19544 0.65806,0.58627 v 10.61259 h 2.32113 v -10.56473 c 0.0319,-0.0638 0.12363,-0.1675 0.27519,-0.31109 0.21535,-0.21534 0.4347,-0.32302 0.65805,-0.32304 0.44667,2e-5 0.67001,0.19544 0.67002,0.58627 v 10.61259 h 2.32113 v -10.9835 c -1e-5,-0.64608 -0.14758,-1.22436 -0.44269,-1.73486 -0.35894,-0.59024 -0.83355,-0.88537 -1.42379,-0.88538 -0.19144,1e-5 -0.41079,0.0678 -0.65804,0.20339 -0.48658,0.28717 -0.88539,0.59825 -1.19646,0.93324 -0.16752,0.16752 -0.29913,0.28717 -0.39484,0.35894 -0.35097,-0.99703 -0.90532,-1.49556 -1.66308,-1.49557 -0.2074,1e-5 -0.41877,0.0598 -0.63413,0.17947 -0.38287,0.2074 -0.76175,0.49853 -1.13663,0.87341 -0.17548,0.17549 -0.27121,0.26723 -0.28715,0.27518 v -1.12467 h -2.47667 v 13.40035"
             id="path3201" />
          <path
             style="font-style:normal;font-variant:normal;font-weight:normal;font-stretch:normal;font-size:22.97203255px;line-height:125%;font-family:'League Gothic';-inkscape-font-specification:'League Gothic';letter-spacing:0px;word-spacing:0px;fill:#000000;fill-opacity:1;stroke:none;stroke-width:1.06666672"
             inkscape:connector-curvature="0"
             d="m 186.8719,818.94661 h 2.57239 v -2.71595 h -2.57239 v 2.71595"
             id="path3203" />
          <path
             style="font-style:normal;font-variant:normal;font-weight:normal;font-stretch:normal;font-size:22.97203255px;line-height:125%;font-family:'League Gothic';-inkscape-font-specification:'League Gothic';letter-spacing:0px;word-spacing:0px;fill:#000000;fill-opacity:1;stroke:none;stroke-width:1.06666672"
             inkscape:connector-curvature="0"
             d="m 190.6527,815.83582 c 0,1.22837 0.25525,2.12572 0.76574,2.69204 0.32703,0.4068 0.73383,0.61019 1.22039,0.61019 0.47858,0 0.91329,-0.15554 1.30414,-0.46662 0.27916,-0.22333 0.50649,-0.49054 0.68198,-0.80163 h 0.16751 c -1e-5,0.52645 0.0757,0.88538 0.22733,1.07681 h 2.41684 c -0.11167,-0.68596 -0.16751,-1.46367 -0.1675,-2.33308 v -8.23165 c -1e-5,-0.86942 -0.30311,-1.59528 -0.90931,-2.17756 -0.59824,-0.57429 -1.30016,-0.86144 -2.10577,-0.86145 -0.95718,1e-5 -1.74684,0.35098 -2.36899,1.05288 -0.63812,0.71789 -0.95717,1.5594 -0.95717,2.52453 v 0.56233 h 2.47668 v -0.63412 c -2e-5,-0.16749 0.0159,-0.37887 0.0479,-0.63412 0.0878,-0.47059 0.30709,-0.7059 0.65806,-0.70591 0.29512,10e-6 0.49851,0.13561 0.61019,0.40679 0.0479,0.15954 0.0718,0.43074 0.0718,0.8136 v 1.47164 c -0.016,0.0399 -0.0359,0.0798 -0.0598,0.11965 -0.0239,0.0319 -0.0598,0.0678 -0.10768,0.10768 -0.0479,0.0399 -0.0957,0.0758 -0.14357,0.10768 -0.0399,0.0239 -0.0997,0.0598 -0.17947,0.10769 -0.0798,0.0399 -0.14757,0.0757 -0.2034,0.10768 -0.0479,0.0239 -0.12763,0.0638 -0.23929,0.11964 -0.10368,0.0559 -0.18346,0.0997 -0.23929,0.13161 -0.82955,0.43871 -1.47564,0.94521 -1.93826,1.51951 -0.68598,0.85347 -1.02896,1.95821 -1.02896,3.31419 m 2.42881,-0.3709 c 0,-0.67002 0.13958,-1.27224 0.41876,-1.80666 0.28715,-0.54239 0.71788,-0.93721 1.29218,-1.18449 v 3.43384 c -1e-5,0.23131 -0.0997,0.42674 -0.29911,0.58627 -0.19942,0.15155 -0.4427,0.22733 -0.72985,0.22733 -0.26322,0 -0.45067,-0.1715 -0.56234,-0.51449 -0.0798,-0.23131 -0.11964,-0.47858 -0.11964,-0.7418"
             id="path3205" />
          <path
             style="font-style:normal;font-variant:normal;font-weight:normal;font-stretch:normal;font-size:22.97203255px;line-height:125%;font-family:'League Gothic';-inkscape-font-specification:'League Gothic';letter-spacing:0px;word-spacing:0px;fill:#000000;fill-opacity:1;stroke:none;stroke-width:1.06666672"
             inkscape:connector-curvature="0"
             d="m 198.94417,818.94661 h 2.47667 v -9.30846 c -1e-5,-0.51845 0.17946,-0.92923 0.5384,-1.23235 0.28715,-0.27119 0.70192,-0.40678 1.24432,-0.40679 0.27119,10e-6 0.50251,0.0319 0.69395,0.0957 v -2.75185 c -0.74979,10e-6 -1.37992,0.2393 -1.89041,0.71787 -0.17548,0.17549 -0.31507,0.35496 -0.41876,0.5384 -0.0957,0.18348 -0.15155,0.33104 -0.1675,0.44269 v -1.49557 h -2.47667 v 13.40035"
             id="path3207" />
        </g>
        <g
           transform="translate(0.02165876,-1.0981778)"
           style="font-style:normal;font-variant:normal;font-weight:normal;font-stretch:normal;font-size:40px;line-height:125%;font-family:'League Gothic';-inkscape-font-specification:'League Gothic';letter-spacing:0px;word-spacing:0px;fill:#000000;fill-opacity:1;stroke:none"
           id="text3150">
          <path
             inkscape:connector-curvature="0"
             d="m 16.142855,851.70117 c 0.04166,1.31945 0.29861,2.45834 0.770835,3.41666 0.416663,0.93056 1.013884,1.69446 1.791666,2.29167 0.874995,0.70833 2.069438,1.0625 3.583333,1.0625 1.486102,0 2.666656,-0.35417 3.541667,-1.0625 0.819432,-0.625 1.430542,-1.38888 1.833334,-2.29167 0.472208,-0.95832 0.729152,-2.09721 0.770833,-3.41666 V 826.7845 h -4.604167 v 24.91667 c -9e-6,0.47223 -0.06251,0.85418 -0.187501,1.14584 -0.194453,0.76389 -0.645841,1.14583 -1.354166,1.14583 -0.375007,0 -0.673618,-0.11111 -0.895834,-0.33333 -0.430562,-0.5 -0.645838,-1.15278 -0.645832,-1.95834 V 826.7845 h -4.604168 v 24.91667"
             id="path3210"
             style="stroke-width:1.06666672" />
          <path
             inkscape:connector-curvature="0"
             d="m 30.476189,838.68034 h 2.187501 v 11.95833 c -4e-6,2.1389 0.215274,3.78473 0.645832,4.9375 0.722219,1.93056 2.152772,2.89583 4.291667,2.89583 0.694437,0 1.249992,-0.0417 1.666667,-0.12499 0.06943,-0.0139 0.173601,-0.0417 0.3125,-0.0833 0.152768,-0.0417 0.263879,-0.0694 0.333334,-0.0833 v -4.22917 c -0.05556,0.0139 -0.1389,0.0278 -0.25,0.0417 -0.111121,0.0139 -0.194455,0.0277 -0.25,0.0417 -0.388899,0.0556 -0.750009,0.0833 -1.083334,0.0833 -0.59723,10e-6 -0.993063,-0.46527 -1.187501,-1.39583 -0.111117,-0.51389 -0.166673,-1.32638 -0.166666,-2.4375 v -11.60416 h 2.937501 v -3.87501 h -2.937501 v -5.77083 H 32.66369 v 5.77083 h -2.187501 v 3.87501"
             id="path3212"
             style="stroke-width:1.06666672" />
          <path
             inkscape:connector-curvature="0"
             d="m 41.788689,852.32618 c 0.04166,1.05555 0.270832,2.08332 0.6875,3.08332 0.916664,2.04167 2.527774,3.0625 4.833333,3.0625 1.40277,0 2.479157,-0.31249 3.229167,-0.93749 0.749989,-0.61112 1.305545,-1.31945 1.666667,-2.12501 0.361098,-0.81943 0.576376,-1.7986 0.645833,-2.9375 v -12 c -0.04167,-0.98609 -0.270846,-1.97915 -0.687499,-2.97916 -0.930567,-2.02775 -2.548621,-3.04164 -4.854168,-3.04167 -1.430561,3e-5 -2.500004,0.31252 -3.208333,0.9375 -1.416668,1.19447 -2.187502,2.93057 -2.3125,5.20833 v 11.72918 m 4.0625,0 V 840.597 c -0.0139,-0.11109 -0.02084,-0.22219 -0.02083,-0.33333 -5e-6,-0.31942 0.04861,-0.60415 0.145833,-0.85417 0.208327,-0.79164 0.652772,-1.18747 1.333333,-1.18749 0.402771,2e-5 0.715271,0.11113 0.937501,0.33333 0.361103,0.45836 0.541658,1.06252 0.541666,1.8125 -8e-6,0.0833 -8e-6,0.15973 0,0.22916 v 11.72918 c 0.01388,0.11111 0.02082,0.22221 0.02083,0.33333 -7e-6,0.33333 -0.04862,0.625 -0.145832,0.875 -0.194454,0.76389 -0.645841,1.14583 -1.354168,1.14583 -0.375006,0 -0.673617,-0.11111 -0.895832,-0.33333 -0.375006,-0.48611 -0.562506,-1.08333 -0.562501,-1.79167 -5e-6,-0.0833 -5e-6,-0.15971 0,-0.22916"
             id="path3214"
             style="stroke-width:1.06666672" />
          <path
             inkscape:connector-curvature="0"
             d="M 55.851189,866.15951 H 60.16369 V 856.597 c 0.472215,0.41667 0.840271,0.72918 1.104166,0.93751 0.847214,0.625 1.618047,0.93749 2.3125,0.93749 1.041656,0 1.888877,-0.52083 2.541666,-1.5625 0.513877,-0.84722 0.770821,-1.84722 0.770833,-3 v -14.89583 c -1.2e-5,-1.12498 -0.256956,-2.13192 -0.770833,-3.02083 -0.680566,-1.02775 -1.527787,-1.54164 -2.541666,-1.54167 -0.430565,3e-5 -0.833342,0.10421 -1.208334,0.3125 -0.694452,0.30558 -1.430562,0.82641 -2.208332,1.56251 v -1.52085 h -4.312501 v 31.35418 m 4.312501,-13.14584 v -13.08333 c -7e-6,-0.40276 0.124993,-0.73609 0.374999,-1 0.263883,-0.27776 0.562493,-0.41664 0.895834,-0.41667 0.319436,3e-5 0.59027,0.13891 0.8125,0.41667 0.236102,0.26391 0.354158,0.59724 0.354166,1 v 13.08333 c -8e-6,0.40279 -0.118064,0.74307 -0.354166,1.02084 -0.22223,0.26389 -0.493064,0.39584 -0.8125,0.39583 -0.319452,10e-6 -0.611118,-0.14583 -0.875001,-0.4375 -0.263894,-0.30555 -0.395839,-0.63194 -0.395832,-0.97917"
             id="path3216"
             style="stroke-width:1.06666672" />
          <path
             inkscape:connector-curvature="0"
             d="m 70.184523,858.13867 h 4.3125 v -23.33334 h -4.3125 v 23.33334 m 0,-27.1875 h 3.333333 l 3.354166,-3.83334 h -4.479167 l -2.208332,3.83334"
             id="path3218"
             style="stroke-width:1.06666672" />
          <path
             inkscape:connector-curvature="0"
             d="m 77.247023,852.72201 c -10e-7,2.13889 0.444443,3.70138 1.333333,4.68749 0.569441,0.70833 1.277774,1.0625 2.125,1.0625 0.833328,0 1.590272,-0.27083 2.270833,-0.81249 0.486104,-0.3889 0.881937,-0.85417 1.187501,-1.39584 h 0.291666 c -9e-6,0.91667 0.131936,1.54167 0.395833,1.875 h 4.208333 c -0.194456,-1.19445 -0.291679,-2.54861 -0.291666,-4.0625 v -14.33333 c -1.3e-5,-1.51387 -0.52779,-2.77776 -1.583333,-3.79167 -1.041677,-0.99997 -2.263898,-1.49997 -3.666667,-1.5 -1.666672,3e-5 -3.041671,0.61113 -4.125001,1.83333 -1.111112,1.25003 -1.666667,2.7153 -1.666666,4.39584 v 0.97917 h 4.3125 v -1.10417 c -5e-6,-0.29165 0.02778,-0.6597 0.08334,-1.10417 0.152772,-0.81943 0.534715,-1.22914 1.145833,-1.22916 0.513882,2e-5 0.868048,0.23612 1.062501,0.70833 0.08333,0.2778 0.124991,0.75001 0.124999,1.41667 v 2.56249 c -0.02779,0.0694 -0.06251,0.13891 -0.104171,0.20833 -0.04167,0.0556 -0.10417,0.11807 -0.187499,0.1875 -0.08334,0.0694 -0.166676,0.13197 -0.25,0.18751 -0.06945,0.0417 -0.17362,0.10422 -0.312501,0.1875 -0.138896,0.0694 -0.256951,0.13196 -0.354166,0.1875 -0.08334,0.0417 -0.222229,0.11113 -0.416667,0.20833 -0.180562,0.0973 -0.31945,0.17362 -0.416666,0.22916 -1.44445,0.76391 -2.569449,1.64586 -3.375001,2.64584 -1.194446,1.48612 -1.791667,3.40974 -1.791666,5.77084 m 4.229166,-0.64584 c -5e-6,-1.16666 0.243051,-2.21526 0.729167,-3.14583 0.499993,-0.94443 1.249992,-1.63194 2.25,-2.0625 v 5.97917 c -9e-6,0.40278 -0.173619,0.74306 -0.520833,1.02083 -0.34723,0.26389 -0.770841,0.39584 -1.270833,0.39583 -0.458341,10e-6 -0.784729,-0.2986 -0.979167,-0.89583 -0.138894,-0.40277 -0.208339,-0.83333 -0.208334,-1.29167"
             id="path3220"
             style="stroke-width:1.06666672" />
          <path
             inkscape:connector-curvature="0"
             d="m 98.267856,858.13867 h 4.604164 V 845.597 c 2.24999,10e-6 4.09722,-0.68054 5.54167,-2.04166 1.70832,-1.61109 2.56248,-4.07637 2.5625,-7.39583 -2e-5,-3.33331 -0.85418,-5.80554 -2.5625,-7.41667 -1.37501,-1.30553 -3.22223,-1.95831 -5.54167,-1.95834 h -4.604164 v 31.35417 m 4.604164,-17.22917 v -9.4375 c 1.37499,3e-5 2.31249,0.36809 2.8125,1.10417 0.43055,0.63891 0.64583,1.88892 0.64584,3.75001 -1e-5,1.83334 -0.21529,3.03474 -0.64584,3.60416 -0.47223,0.6528 -1.40973,0.97919 -2.8125,0.97916"
             id="path3222"
             style="stroke-width:1.06666672" />
          <path
             inkscape:connector-curvature="0"
             d="m 113.26785,858.13867 h 4.3125 v -23.33334 h -4.3125 v 23.33334 m 0,-27.04167 h 4.3125 v -4.3125 h -4.3125 v 4.3125"
             id="path3224"
             style="stroke-width:1.06666672" />
          <path
             inkscape:connector-curvature="0"
             d="m 121.01786,858.13867 h 4.3125 v -16.20833 c -1e-5,-0.90277 0.31249,-1.61804 0.93749,-2.14584 0.5,-0.4722 1.22222,-0.70831 2.16667,-0.70833 0.47221,2e-5 0.87499,0.0556 1.20834,0.16667 v -4.79167 c -1.30557,3e-5 -2.40279,0.41669 -3.29167,1.25 -0.30556,0.30558 -0.54862,0.61808 -0.72916,0.9375 -0.16668,0.31946 -0.26391,0.57641 -0.29167,0.77083 v -2.60417 h -4.3125 v 23.33334"
             id="path3226"
             style="stroke-width:1.06666672" />
          <path
             inkscape:connector-curvature="0"
             d="m 130.83036,852.72201 c 0,2.13889 0.44443,3.70138 1.33333,4.68749 0.56944,0.70833 1.27777,1.0625 2.125,1.0625 0.83333,0 1.59028,-0.27083 2.27083,-0.81249 0.4861,-0.3889 0.88194,-0.85417 1.1875,-1.39584 h 0.29167 c -1e-5,0.91667 0.13193,1.54167 0.39583,1.875 h 4.20834 c -0.19447,-1.19445 -0.29168,-2.54861 -0.29167,-4.0625 v -14.33333 c -1e-5,-1.51387 -0.52779,-2.77776 -1.58334,-3.79167 -1.04167,-0.99997 -2.26389,-1.49997 -3.66667,-1.5 -1.66666,3e-5 -3.04166,0.61113 -4.12499,1.83333 -1.11111,1.25003 -1.66666,2.7153 -1.66666,4.39584 v 0.97917 h 4.3125 v -1.10417 c -1e-5,-0.29165 0.0277,-0.6597 0.0833,-1.10417 0.15277,-0.81943 0.53472,-1.22914 1.14584,-1.22916 0.51388,2e-5 0.86804,0.23612 1.06249,0.70833 0.0833,0.2778 0.125,0.75001 0.12501,1.41667 v 2.56249 c -0.0277,0.0694 -0.0625,0.13891 -0.10422,0.20833 -0.0417,0.0556 -0.10421,0.11807 -0.1875,0.1875 -0.0833,0.0694 -0.16666,0.13197 -0.24999,0.18751 -0.0694,0.0417 -0.17362,0.10422 -0.3125,0.1875 -0.1389,0.0694 -0.25695,0.13196 -0.35417,0.1875 -0.0833,0.0417 -0.22223,0.11113 -0.41667,0.20833 -0.18055,0.0973 -0.31944,0.17362 -0.41666,0.22916 -1.44445,0.76391 -2.56945,1.64586 -3.375,2.64584 -1.19445,1.48612 -1.79167,3.40974 -1.79167,5.77084 m 4.22917,-0.64584 c 0,-1.16666 0.24305,-2.21526 0.72917,-3.14583 0.49999,-0.94443 1.24998,-1.63194 2.24999,-2.0625 v 5.97917 c -1e-5,0.40278 -0.17362,0.74306 -0.52083,1.02083 -0.34723,0.26389 -0.77084,0.39584 -1.27084,0.39583 -0.45833,10e-6 -0.78472,-0.2986 -0.97916,-0.89583 -0.13889,-0.40277 -0.20833,-0.83333 -0.20833,-1.29167"
             id="path3228"
             style="stroke-width:1.06666672" />
          <path
             inkscape:connector-curvature="0"
             d="m 143.97619,838.68034 h 2.1875 v 11.95833 c 0,2.1389 0.21528,3.78473 0.64584,4.9375 0.72221,1.93056 2.15276,2.89583 4.29165,2.89583 0.69445,0 1.25,-0.0417 1.66667,-0.12499 0.0694,-0.0139 0.17361,-0.0417 0.3125,-0.0833 0.15277,-0.0417 0.26388,-0.0694 0.33334,-0.0833 v -4.22917 c -0.0556,0.0139 -0.1389,0.0278 -0.25,0.0417 -0.11112,0.0139 -0.19445,0.0277 -0.25,0.0417 -0.3889,0.0556 -0.75001,0.0833 -1.08333,0.0833 -0.59723,10e-6 -0.99307,-0.46527 -1.1875,-1.39583 -0.11113,-0.51389 -0.16668,-1.32638 -0.16667,-2.4375 v -11.60416 h 2.9375 v -3.87501 h -2.9375 v -5.77083 h -4.3125 v 5.77083 h -2.1875 v 3.87501"
             id="path3230"
             style="stroke-width:1.06666672" />
          <path
             inkscape:connector-curvature="0"
             d="m 154.99702,852.72201 c 0,2.13889 0.44444,3.70138 1.33334,4.68749 0.56944,0.70833 1.27777,1.0625 2.125,1.0625 0.83332,0 1.59027,-0.27083 2.27083,-0.81249 0.4861,-0.3889 0.88194,-0.85417 1.1875,-1.39584 h 0.29166 c -1e-5,0.91667 0.13194,1.54167 0.39583,1.875 h 4.20835 c -0.19447,-1.19445 -0.29168,-2.54861 -0.29167,-4.0625 v -14.33333 c -1e-5,-1.51387 -0.52779,-2.77776 -1.58334,-3.79167 -1.04168,-0.99997 -2.2639,-1.49997 -3.66667,-1.5 -1.66667,3e-5 -3.04166,0.61113 -4.12499,1.83333 -1.11112,1.25003 -1.66667,2.7153 -1.66667,4.39584 v 0.97917 h 4.3125 v -1.10417 c -1e-5,-0.29165 0.0277,-0.6597 0.0833,-1.10417 0.15277,-0.81943 0.53472,-1.22914 1.14583,-1.22916 0.51388,2e-5 0.86805,0.23612 1.0625,0.70833 0.0833,0.2778 0.12499,0.75001 0.125,1.41667 v 2.56249 c -0.0277,0.0694 -0.0625,0.13891 -0.10421,0.20833 -0.0417,0.0556 -0.10421,0.11807 -0.1875,0.1875 -0.0833,0.0694 -0.16667,0.13197 -0.24999,0.18751 -0.0694,0.0417 -0.17362,0.10422 -0.3125,0.1875 -0.13891,0.0694 -0.25695,0.13196 -0.35417,0.1875 -0.0833,0.0417 -0.22223,0.11113 -0.41667,0.20833 -0.18056,0.0973 -0.31945,0.17362 -0.41666,0.22916 -1.44445,0.76391 -2.56945,1.64586 -3.375,2.64584 -1.19445,1.48612 -1.79167,3.40974 -1.79167,5.77084 m 4.22916,-0.64584 c 0,-1.16666 0.24305,-2.21526 0.72918,-3.14583 0.49999,-0.94443 1.24998,-1.63194 2.24999,-2.0625 v 5.97917 c -10e-6,0.40278 -0.17362,0.74306 -0.52083,1.02083 -0.34723,0.26389 -0.77084,0.39584 -1.27084,0.39583 -0.45833,10e-6 -0.78472,-0.2986 -0.97917,-0.89583 -0.13889,-0.40277 -0.20833,-0.83333 -0.20833,-1.29167"
             id="path3232"
             style="stroke-width:1.06666672" />
        </g>
      </g>
    </g>
  </g>
</svg>
