<?xml version="1.0" encoding="UTF-8" standalone="no"?>
<!-- Created with Inkscape (http://www.inkscape.org/) -->

<svg
   xmlns:dc="http://purl.org/dc/elements/1.1/"
   xmlns:cc="http://creativecommons.org/ns#"
   xmlns:rdf="http://www.w3.org/1999/02/22-rdf-syntax-ns#"
   xmlns:svg="http://www.w3.org/2000/svg"
   xmlns="http://www.w3.org/2000/svg"
   xmlns:sodipodi="http://sodipodi.sourceforge.net/DTD/sodipodi-0.dtd"
   xmlns:inkscape="http://www.inkscape.org/namespaces/inkscape"
   width="744.09448"
   height="524.40942"
   id="svg2"
   version="1.1"
   inkscape:version="0.91 r13725"
   sodipodi:docname="las_nuevas_anarquistas.svg">
  <defs
     id="defs4" />
  <sodipodi:namedview
     id="base"
     pagecolor="#ffffff"
     bordercolor="#666666"
     borderopacity="1.0"
     inkscape:pageopacity="0.0"
     inkscape:pageshadow="2"
     inkscape:zoom="0.7"
     inkscape:cx="253.66704"
     inkscape:cy="261.44175"
     inkscape:document-units="mm"
     inkscape:current-layer="layer1"
     showgrid="false"
     showguides="true"
     inkscape:guide-bbox="true"
     units="mm"
     inkscape:window-width="1366"
     inkscape:window-height="746"
     inkscape:window-x="0"
     inkscape:window-y="22"
     inkscape:window-maximized="0">
    <sodipodi:guide
       orientation="1,0"
       position="372.04724,0"
       id="guide3168" />
    <sodipodi:guide
       orientation="0,1"
       position="72.857143,271.42857"
       id="guide3277" />
  </sodipodi:namedview>
  <metadata
     id="metadata7">
    <rdf:RDF>
      <cc:Work
         rdf:about="">
        <dc:format>image/svg+xml</dc:format>
        <dc:type
           rdf:resource="http://purl.org/dc/dcmitype/StillImage" />
        <dc:title />
      </cc:Work>
    </rdf:RDF>
  </metadata>
  <g
     inkscape:label="Capa 1"
     inkscape:groupmode="layer"
     id="layer1"
     transform="translate(0,-527.9527)">
    <g
       id="layer1-8"
       inkscape:label="Capa 1"
       transform="matrix(0.16088167,0,0,0.16157504,416.66039,909.65661)">
      <rect
         style="fill:#d40000"
         id="rect3033"
         width="4625.104"
         height="3245.6094"
         x="-2589.8562"
         y="-2362.394" />
      <g
         inkscape:export-ydpi="149"
         inkscape:export-xdpi="149"
         inkscape:export-filename="/srv/http/kiwwwi.com.ar/pastes/utopia-pirata-2.png"
         transform="matrix(0.67937345,0,0,0.67937345,-233.93427,225.03697)"
         id="g3847" />
      <g
         id="g4077"
         transform="matrix(1.418919,0,0,1.418919,1084.9399,-369.99562)">
        <g
           transform="matrix(0.67937345,0,0,0.67937345,-35.215221,207.58407)"
           id="g3851"
           inkscape:export-filename="/srv/http/kiwwwi.com.ar/pastes/utopia-pirata-2.png"
           inkscape:export-xdpi="149"
           inkscape:export-ydpi="149">
          <path
             style="fill:#ffffff;stroke:#000000;stroke-width:0.70476186"
             inkscape:connector-curvature="0"
             id="path719"
             d="m 910.84122,610.02908 c -15,21 -31.266,38.794 -49,60 l -24,27 c -20,19 -70,56 -93,71 -13,9 -27,16 -41,22 l -18.26,8.84 c 3,3 8.58,4.641 13.629,7 3,0 13.631,-5.84 16.631,-7.84 l 32,-18 c 6,-4 12,-9 19,-10 -3,7 -10,11 -17,15 l -19,11 c 0,0 -19.951,11.37 -22.68,13.26 5.469,2.16 13.68,4.641 18.889,6.74 5,0 11.791,-5 15.791,-7 11,-6 25,-15 36,-23 l 18,-12 c 14,-11 28,-23 41,-36 10,-9 20,-18 28,-29 11,-13 18,-28 26,-43 9,-14 12,-23 17,-38 1,-5 4,-13 2,-18 z" />
          <path
             style="fill:#ffffff;stroke:#000000;stroke-width:0.70476186"
             inkscape:connector-curvature="0"
             id="path725"
             d="m 451.84122,605.02908 c -3,11 1,24 5,34 9,24 24,45 39,65 9,13 24,29 35,40 l 12,10 26,23 c 21,16 60,40 84,51 l 32,14 13,5 c 15,6 30,10 46,13 9,2 19,5 28,5 -3,-11 -9,-10 -18,-13 l -33,-13 c -46,-19 -97,-38 -133,-74 7,0 12,6 17,10 7,5 16,11 24,16 22,13 72,36 97,45 10,4 27,11 37,11 8,1 19,-4 25,-8 -4,-4 -8,-3 -14,-4 l -31,-9 c -27,-7 -53,-17 -78,-30 l -14,-6 -19,-12 -23,-15 -24,-19 -41,-32 -38,-39 -19,-22 -20,-22 -15,-24 z" />
          <path
             style="fill:#ffffff;stroke:#000000;stroke-width:0.70476186"
             inkscape:connector-curvature="0"
             id="path731"
             d="m 772.84122,852.02908 c 2,4 6,10 6,15 0,11 -13,21 -23,20 -4,-1 -13,-6 -16,0 -1,2 -1,4 0,5 0,4 5,6 9,8 11,3 23,-1 32,-7 7,-4 12,-11 14,-19 l 2,-13 c 1,-4 5,-5 10,-12 6,-8 12,-22 20,-28 3,-2 6,-3 10,-4 -2,-3 -4,-5 -6,-8 -2,-1 -4,-3 -6,-3 -3,-1 -7,-1 -10,1 -14,7 -11,20 -19,30 -6,8 -13,12 -23,15 z" />
          <path
             style="fill:#ffffff;stroke:#000000;stroke-width:0.70476186"
             inkscape:connector-curvature="0"
             id="path737"
             d="m 804.84122,865.02908 c 7,3 13,2 20,2 l 15,1 c 7,0 9,-4 12,-10 1,-2 2,-6 0,-8 -2,-2 -6,-2 -9,-2 l -17,1 c -3,0 -8,0 -11,1 -5,3 -9,10 -10,15 z" />
          <path
             style="fill:#ffffff;stroke:#000000;stroke-width:0.70476186"
             inkscape:connector-curvature="0"
             id="path743"
             d="m 858.84122,879.02908 c -5,-2 -8,-4 -11,-8 -1,1 -2,1 -3,2 -1,5 12,17 14,6 z" />
          <path
             style="fill:#ffffff;stroke:#000000;stroke-width:0.70476186"
             inkscape:connector-curvature="0"
             id="path744"
             d="m 851.84122,845.02908 8,5 c -2,4 -7,12 -6,17 1,10 15,10 21,4 7,-8 7,-20 -3,-26 -6,-3 -13,-2 -20,0 z" />
          <path
             style="fill:#ffffff;stroke:#000000;stroke-width:0.70476186"
             inkscape:connector-curvature="0"
             id="selection_x5F_to_x5F_path_x23_5"
             d="m 492.84122,873.02908 1,1 c 8,-2 13,-5 14,-13 -6,1 -12,7 -15,12 z" />
          <path
             style="fill:#ffffff;stroke:#000000;stroke-width:0.70476186"
             inkscape:connector-curvature="0"
             id="selection_x5F_to_x5F_path_x23_4"
             d="m 499.84122,836.02908 c -3,-2 -6,-3 -10,-3 -3,0 -6,0 -9,1 -10,4 -11,20 -3,27 4,4 14,6 18,1 4,-4 3,-9 1,-14 -1,-3 -3,-7 -1,-9 1,-2 3,-2 4,-3 z" />
          <path
             style="fill:#ffffff;stroke:#000000;stroke-width:0.70476186"
             inkscape:connector-curvature="0"
             id="selection_x5F_to_x5F_path_x23_3"
             d="m 498.84122,840.02908 c 1,3 6,15 8,17 3,2 6,2 9,2 l 18,-1 h 13 c 0,-3 0,-6 -1,-8 -3,-8 -14,-12 -22,-12 l -9,1 c -6,0 -11,-1 -16,1 z" />
          <path
             style="fill:#ffffff;stroke:#000000;stroke-width:0.70476186"
             inkscape:connector-curvature="0"
             id="selection_x5F_to_x5F_path_x23_2"
             d="m 517.84122,808.02908 c 19,5 19,21 27,32 3,4 11,10 12,14 1,3 0,4 1,11 2,9 8,18 16,23 9,6 17,10 28,7 6,-2 12,-6 9,-13 -3,-7 -14,0 -21,-2 -7,-3 -15,-13 -15,-21 l 4,-14 c -11,-4 -24,-13 -29,-24 -3,-7 -3,-17 -8,-22 -9,-7 -21,-1 -24,9 z" />
          <path
             style="fill:#ffffff;stroke:#000000;stroke-width:0.70476186"
             inkscape:connector-curvature="0"
             id="path758"
             d="m 565.84122,831.02908 c 3,4 5,5 9,7 14,8 23,2 37,-1 l 29,-9 c -3.84,-2.58 -12.42,-7.95 -16,-10 l -19,5 -40,8 z" />
          <path
             style="fill:#ffffff;stroke:#000000;stroke-width:0.70476186"
             inkscape:connector-curvature="0"
             id="path759"
             d="m 579.84122,860.02908 c 26,0 50,-8 75,-14 0,0 11,-5.206 14.676,-5.206 -3.47,-2.529 -17.622,-7.638 -19.836,-9.634 -3,0.89 -14.84,4.84 -18.84,5.84 l -25,7 -12,3 c -7,3 -12,4 -14,13 z" />
        </g>
        <circle
           id="circle3807"
           r="107.775"
           cy="156.03101"
           cx="376.047"
           sodipodi:cx="376.047"
           sodipodi:cy="156.03101"
           sodipodi:rx="107.775"
           sodipodi:ry="107.775"
           style="fill:none;stroke:#ffffff;stroke-width:14.09523773"
           transform="matrix(0.67937348,0,0,0.67937344,172.06628,463.24141)" />
        <path
           id="path3809"
           d="m 972.7768,439.2957 c -31.919,0 -58.663,22.231 -65.598,52.05 h 32.187 c 5.808,-12.648 18.59,-21.432 33.411,-21.432 20.282,0 36.742,16.46 36.742,36.741 0,20.281 -16.46,36.742 -36.742,36.742 -14.821,0 -27.604,-8.785 -33.411,-21.433 h -32.187 c 6.935,29.819 33.679,52.05 65.598,52.05 37.183,0 67.359,-30.177 67.359,-67.359 0,-37.182 -30.177,-67.359 -67.359,-67.359 z"
           inkscape:connector-curvature="0"
           style="fill:#ffffff"
           transform="matrix(0.67937348,0,0,0.67937344,-233.93429,225.03699)" />
        <g
           transform="matrix(-0.72702905,0.19480685,-0.19480685,-0.72702905,-611.71218,-436.375)"
           style="font-size:121.8484726px;font-style:normal;font-weight:normal;line-height:125%;letter-spacing:0px;word-spacing:0px;fill:#ffffff;fill-opacity:1;stroke:none;font-family:Bitstream Vera Sans"
           id="text3059"
           inkscape:export-filename="/srv/http/kiwwwi.com.ar/pastes/utopia-pirata-2.png"
           inkscape:export-xdpi="149"
           inkscape:export-ydpi="149">
          <g
             id="g3922"
             transform="matrix(0.99707364,-0.07644708,0.07644708,0.99707364,125.06749,-81.555005)">
            <path
               inkscape:export-ydpi="149"
               inkscape:export-xdpi="149"
               inkscape:export-filename="/srv/http/kiwwwi.com.ar/pastes/utopia-pirata-1.png"
               sodipodi:type="arc"
               style="fill:none;stroke:none"
               id="path3865"
               sodipodi:cx="-1311.178"
               sodipodi:cy="-1543.7299"
               sodipodi:rx="127.27922"
               sodipodi:ry="127.27922"
               d="m -1183.8988,-1543.7299 a 127.27922,127.27922 0 0 1 -127.2792,127.2793 127.27922,127.27922 0 0 1 -127.2792,-127.2793 127.27922,127.27922 0 0 1 127.2792,-127.2792 127.27922,127.27922 0 0 1 127.2792,127.2792 z"
               transform="matrix(-0.8718552,-0.2336129,0.2336129,-0.8718552,-1786.4657,-3244.8873)" />
            <path
               inkscape:connector-curvature="0"
               id="path3897"
               style="font-style:normal;font-variant:normal;font-weight:normal;font-stretch:normal;fill:#ffffff;font-family:League Gothic;-inkscape-font-specification:League Gothic"
               d="m -778.04883,-1594.9487 -70.08465,-12.3215 c -3.57914,-0.7529 -6.69277,-2.0426 -9.22087,-3.848 -2.21027,-1.502 -4.19505,-3.583 -5.5732,-6.2996 -1.49816,-2.7377 -2.00858,-6.1679 -1.24904,-10.4881 0.75954,-4.3203 2.43037,-7.4907 4.77246,-9.5532 2.22209,-2.0837 4.77652,-3.243 7.36656,-3.9011 2.99226,-0.8348 6.35907,-0.9852 9.98041,-0.4723 l 70.08465,12.3215 -2.27862,12.9608 -70.08465,-12.3214 c -2.52017,-0.4431 -4.30577,-0.1384 -5.83684,0.8296 -0.70553,0.4946 -1.21325,1.2713 -1.40313,2.3514 -0.40087,2.2801 0.84934,3.6134 2.56507,4.4099 0.77676,0.5077 1.83573,0.8176 3.15582,1.0497 l 70.08465,12.3214 -2.27862,12.9609" />
            <path
               inkscape:connector-curvature="0"
               id="path3899"
               style="font-style:normal;font-variant:normal;font-weight:normal;font-stretch:normal;fill:#ffffff;font-family:League Gothic;-inkscape-font-specification:League Gothic"
               d="m -801.09593,-1568.8963 11.85811,6.5051 -18.28444,33.3309 -11.85812,-6.5051 5.97761,-10.8966 -66.66184,-36.5689 6.32923,-11.5376 66.66184,36.5689 5.97761,-10.8967" />
            <path
               inkscape:connector-curvature="0"
               id="path3901"
               style="font-style:normal;font-variant:normal;font-weight:normal;font-stretch:normal;fill:#ffffff;font-family:League Gothic;-inkscape-font-specification:League Gothic"
               d="m -902.22684,-1531.2768 c -2.40064,-2.7594 -4.10625,-5.6661 -5.0338,-8.6309 -0.857,-2.5312 -1.18494,-5.3882 -0.64563,-8.3863 0.45632,-3.0873 2.1181,-6.1311 5.32973,-9.1189 3.21164,-2.9879 6.45655,-4.5088 9.56871,-4.7413 3.02918,-0.3218 5.76585,0.2943 8.22867,1.3316 2.89022,1.139 5.66638,3.0497 8.24545,5.6431 l 35.93698,38.6289 c 2.31765,2.6701 4.02326,5.5768 4.95082,8.5417 0.85699,2.5312 1.35714,5.3944 0.81783,8.3924 -0.53932,2.9981 -2.20731,6.2141 -5.41895,9.202 -3.21163,2.9878 -6.45032,4.3365 -9.47949,4.6583 -3.02918,0.3217 -5.93806,-0.3006 -8.40087,-1.3379 -2.89023,-1.1389 -5.66638,-3.0497 -8.16246,-5.5539 l -35.93699,-38.6288 m 45.57191,29.6653 c 1.65991,1.7843 3.1787,2.7013 5.06676,2.9419 0.86104,0.031 1.82372,-0.3653 2.62663,-1.1122 1.69503,-1.5769 1.33601,-3.5729 0.61392,-5.0646 -0.39633,-0.9627 -1.05407,-1.8486 -1.88403,-2.7407 l -35.93698,-38.6289 c -1.74291,-1.8735 -3.35091,-2.7075 -5.15597,-2.8588 -0.86104,-0.031 -1.73451,0.2822 -2.53742,1.0292 -1.69503,1.5769 -1.502,3.3944 -0.61392,5.0645 0.31333,0.8735 0.97108,1.7594 1.88402,2.7408 l 35.93699,38.6288" />
            <path
               inkscape:connector-curvature="0"
               id="path3903"
               style="font-style:normal;font-variant:normal;font-weight:normal;font-stretch:normal;fill:#ffffff;font-family:League Gothic;-inkscape-font-specification:League Gothic"
               d="m -886.59996,-1457.8116 -12.05827,5.2702 c -5.24757,2.2934 -11.08073,3.2471 -16.75926,1.2077 -5.67853,-2.0394 -11.09081,-7.1207 -15.18979,-16.4994 -4.09898,-9.3786 -4.10323,-16.6905 -1.74292,-22.2434 2.3603,-5.5528 6.92473,-9.4094 12.1723,-11.7029 l -14.34645,-32.8252 12.05826,-5.2702 35.86613,82.0632 m -28.21022,-31.6862 c -3.68447,1.6103 -5.73635,3.305 -6.2466,5.7886 -0.55905,2.372 0.42353,5.5329 2.42423,10.1106 2.00069,4.5777 3.75077,7.6692 5.96893,9.0933 2.21816,1.4242 4.95321,1.2926 8.63767,-0.3177 l -10.78423,-24.6748" />
            <path
               inkscape:connector-curvature="0"
               id="path3905"
               style="font-style:normal;font-variant:normal;font-weight:normal;font-stretch:normal;fill:#ffffff;font-family:League Gothic;-inkscape-font-specification:League Gothic"
               d="m -948.99443,-1436.6047 -13.00674,2.0001 -13.61231,-88.5181 13.00674,-2.0001 13.61231,88.5181" />
            <path
               inkscape:connector-curvature="0"
               id="path3907"
               style="font-style:normal;font-variant:normal;font-weight:normal;font-stretch:normal;fill:#ffffff;font-family:League Gothic;-inkscape-font-specification:League Gothic"
               d="m -981.75508,-1521.0222 -23.62102,87.4398 -15.9797,-1.8289 -3.2539,-90.5157 12.7111,1.4548 0.3429,18.4359 12.59007,1.4409 4.49944,-17.8816 12.71111,1.4548 m -29.02582,57.5093 0.1,2.3417 0.7264,0.083 0.6264,-2.2585 6.9672,-27.656 -8.9583,-1.0253 0.5384,28.515" />
            <path
               inkscape:connector-curvature="0"
               id="path3909"
               style="font-style:normal;font-variant:normal;font-weight:normal;font-stretch:normal;fill:#ffffff;font-family:League Gothic;-inkscape-font-specification:League Gothic"
               d="m -1099.1166,-1462.6292 -10.788,-7.5362 c -4.6948,-3.2797 -8.5522,-7.758 -9.7757,-13.6663 -1.2235,-5.9083 0.2868,-13.1768 6.1483,-21.5675 5.8615,-8.3906 12.0967,-12.2098 18.0653,-13.094 5.9685,-0.8841 11.6402,0.9971 16.335,4.2767 l 20.5152,-29.3674 10.7881,7.5362 -51.2882,73.4185 m 12.3091,-40.5995 c -3.2963,-2.3027 -5.8127,-3.1688 -8.1976,-2.308 -2.3152,0.7609 -4.4989,3.2485 -7.3599,7.344 -2.8609,4.0954 -4.5849,7.2016 -4.6423,9.8369 -0.057,2.6354 1.4821,4.8999 4.7784,7.2026 l 15.4214,-22.0755" />
            <path
               inkscape:connector-curvature="0"
               id="path3911"
               style="font-style:normal;font-variant:normal;font-weight:normal;font-stretch:normal;fill:#ffffff;font-family:League Gothic;-inkscape-font-specification:League Gothic"
               d="m -1149.6319,-1504.5948 -8.5195,-10.0296 68.2572,-57.9801 8.5196,10.0296 -68.2573,57.9801" />
            <path
               inkscape:connector-curvature="0"
               id="path3913"
               style="font-style:normal;font-variant:normal;font-weight:normal;font-stretch:normal;fill:#ffffff;font-family:League Gothic;-inkscape-font-specification:League Gothic"
               d="m -1106.4208,-1601.3444 -31.2348,22.3102 1.5099,3.1948 34.1507,-16.1412 5.6233,11.8977 -80.97,38.2701 -5.6234,-11.8977 c -6.7168,-14.211 -1.5386,-24.071 13.7741,-31.3085 8.0419,-3.8009 16.302,-5.1443 21.5214,-2.0855 l 35.6254,-26.1376 5.6234,11.8977 m -40.7412,30.7118 c -0.781,-1.6525 -2.0427,-3.7516 -4.4181,-4.7852 -2.3754,-1.0337 -6.0267,-1.06 -11.7551,1.6476 -5.7285,2.7075 -8.1362,5.5975 -8.8454,8.0891 -0.7092,2.4916 0.222,4.7469 1.003,6.3994 l 24.0156,-11.3509" />
            <path
               inkscape:connector-curvature="0"
               id="path3915"
               style="font-style:normal;font-variant:normal;font-weight:normal;font-stretch:normal;fill:#ffffff;font-family:League Gothic;-inkscape-font-specification:League Gothic"
               d="m -1113.2219,-1617.132 -90.458,-4.5863 -1.5934,-16.0049 87.7782,-22.331 1.2675,12.7311 -17.946,4.2357 1.2554,12.6099 18.4288,0.6143 1.2675,12.7312 m -62.3486,-16.2013 -2.2675,0.5931 0.072,0.7275 2.34,0.1344 28.504,0.9582 -0.8933,-8.9724 -27.7556,6.5592" />
            <path
               inkscape:connector-curvature="0"
               id="path3917"
               style="font-style:normal;font-variant:normal;font-weight:normal;font-stretch:normal;fill:#ffffff;font-family:League Gothic;-inkscape-font-specification:League Gothic"
               d="m -1191.1447,-1674.8241 -13.2316,-2.8027 7.8779,-37.1915 13.2316,2.8027 -2.5754,12.1588 74.383,15.7558 -2.727,12.874 -74.383,-15.7558 -2.5755,12.1587" />
            <path
               inkscape:connector-curvature="0"
               id="path3919"
               style="font-style:normal;font-variant:normal;font-weight:normal;font-stretch:normal;fill:#ffffff;font-family:League Gothic;-inkscape-font-specification:League Gothic"
               d="m -1109.3262,-1695.6338 -70.438,-56.94 8.1301,-13.8779 84.1114,33.5999 -6.4672,11.0393 -17.0021,-7.1361 -6.4056,10.9341 14.5385,11.3415 -6.4671,11.0392 m -40.876,-49.7893 -2.1823,-0.8549 -0.3696,0.6309 1.8128,1.4856 22.4821,17.5485 4.5578,-7.78 -26.3008,-11.0301" />
          </g>
        </g>
      </g>
    </g>
    <rect
       style="fill:#ffffff"
       id="rect3035"
       width="744.09448"
       height="173.31082"
       x="2.9508118e-07"
       y="589.1864" />
    <g
       style="font-style:normal;font-variant:normal;font-weight:normal;font-stretch:normal;font-size:47.7713356px;line-height:125%;font-family:FontAwesome;-inkscape-font-specification:FontAwesome;text-align:end;letter-spacing:0px;word-spacing:0px;text-anchor:end;fill:#000000;fill-opacity:1;stroke:none;stroke-width:1px;stroke-linecap:butt;stroke-linejoin:miter;stroke-opacity:1"
       id="text4417">
      <path
         d="m 411.98861,667.74573 5.1593,0 0,30.3348 6.8313,0 0,4.77714 -11.9906,0 0,-35.11194 z"
         style="font-style:normal;font-variant:normal;font-weight:normal;font-stretch:normal;font-family:'League Gothic';-inkscape-font-specification:'League Gothic'"
         id="path4484" />
      <path
         d="m 433.38644,682.93702 c 0,-0.42994 0,-1.09874 -0.14332,-1.57646 -0.19108,-0.47771 -0.57325,-0.81211 -1.19428,-0.81211 -0.81211,0 -1.14651,0.62103 -1.28983,1.38537 -0.0478,0.38217 -0.0955,0.81211 -0.0955,1.24206 0,0.42994 0,0.85988 0,1.24205 l -4.82491,0 0,-1.09874 c 0,-1.91085 0.71657,-3.63062 1.86309,-4.92045 1.14651,-1.28982 2.77073,-2.05417 4.63382,-2.05417 1.57645,0 3.00959,0.62103 4.10833,1.672 1.09874,1.05097 1.76754,2.53188 1.76754,4.25165 l 0,16.05117 c 0,2.34079 0.14331,3.39176 0.3344,4.53828 l -4.72936,0 c -0.42994,-0.52549 -0.42994,-1.76754 -0.42994,-2.10194 l -0.3344,0 c -0.23886,0.42994 -0.6688,1.05097 -1.3376,1.57645 -0.6688,0.52549 -1.57646,0.90766 -2.53188,0.90766 -0.62103,0 -1.62423,-0.23886 -2.38857,-1.19429 -0.81211,-0.90765 -1.48091,-2.53188 -1.48091,-5.25484 0,-2.91406 0.85988,-5.01599 2.0064,-6.44913 1.14651,-1.43314 2.57965,-2.3408 3.77393,-2.96183 1.19428,-0.62102 2.10194,-1.05097 2.29303,-1.57645 l 0,-2.86628 z m 0,7.30901 c -2.3408,1.0032 -3.344,3.344 -3.344,5.82811 0,0.3344 0.0478,0.90765 0.23886,1.43314 0.19108,0.57325 0.52548,1.00319 1.09874,1.00319 1.09874,0 2.0064,-0.66879 2.0064,-1.57645 l 0,-6.68799 z"
         style="font-style:normal;font-variant:normal;font-weight:normal;font-stretch:normal;font-family:'League Gothic';-inkscape-font-specification:'League Gothic'"
         id="path4486" />
      <path
         d="m 448.59489,683.41473 c 0,-0.62102 0,-1.38537 -0.19109,-2.00639 -0.23885,-0.57326 -0.62102,-1.05097 -1.38537,-1.05097 -0.62102,0 -1.00319,0.47771 -1.19428,1.05097 -0.23886,0.57325 -0.28663,1.38537 -0.28663,2.00639 0,0.81212 0.42994,1.672 1.05097,2.43634 0.57326,0.76434 1.3376,1.52868 2.10194,2.24525 1.0032,1.0032 2.19748,2.14971 3.00959,3.43954 0.81212,1.3376 1.43314,2.81851 1.43314,4.53828 0,1.67199 -0.38217,3.43953 -1.33759,4.77713 -1.0032,1.38537 -2.53188,2.38857 -4.82491,2.38857 -2.91405,0 -4.63382,-1.3376 -5.58924,-2.96183 -0.95543,-1.62422 -1.14652,-3.63062 -1.14652,-5.01599 l 4.49051,0 c 0,0.71657 0.0478,1.71977 0.38217,2.48411 0.3344,0.81212 0.85988,1.48091 1.86308,1.48091 1.38537,0 1.672,-1.62422 1.672,-3.1529 0,-1.57646 -1.52868,-3.15291 -3.0096,-4.63382 -1.14651,-1.09874 -2.24525,-2.10194 -3.10513,-3.39177 -0.85989,-1.28982 -1.48091,-2.72296 -1.48091,-4.63382 0,-1.52868 0.28662,-3.29622 1.19428,-4.68159 0.90766,-1.3376 2.38857,-2.34079 4.68159,-2.38857 2.81851,-0.0478 4.39496,1.0032 5.20708,2.38857 0.81211,1.38537 0.95542,3.20068 0.95542,4.68159 l -4.4905,0 z"
         style="font-style:normal;font-variant:normal;font-weight:normal;font-stretch:normal;font-family:'League Gothic';-inkscape-font-specification:'League Gothic'"
         id="path4488" />
      <path
         d="m 468.22368,702.85767 -4.8249,0 0,-26.13092 4.8249,0 0,2.19748 c 0.0955,-0.0478 0.28663,-0.23886 0.57326,-0.52549 0.52548,-0.52548 1.24205,-1.24205 2.10194,-1.71977 0.42994,-0.23885 0.81211,-0.3344 1.24205,-0.3344 1.28983,0 2.19748,0.76435 2.77074,1.71977 0.57325,1.0032 0.85988,2.29303 0.85988,3.39177 l 0,21.40156 -4.8249,0 0,-20.68499 c 0,-1.0032 -0.57326,-1.14651 -1.14651,-1.14651 -0.52549,0 -0.81212,0.28662 -1.14652,0.62102 -0.14331,0.19109 -0.28662,0.38217 -0.42994,0.62103 l 0,20.58945 z"
         style="font-style:normal;font-variant:normal;font-weight:normal;font-stretch:normal;font-family:'League Gothic';-inkscape-font-specification:'League Gothic'"
         id="path4490" />
      <path
         d="m 486.99259,676.72675 4.8249,0 0,26.13092 -4.8249,0 0,-2.19749 c -0.0955,0.0478 -0.28663,0.23886 -0.52549,0.47772 -0.57325,0.57325 -1.24205,1.24205 -2.10193,1.71977 -0.42995,0.23885 -0.85989,0.38217 -1.28983,0.38217 -1.28983,0 -2.19748,-0.76434 -2.77074,-1.76754 -0.57325,-0.95543 -0.85988,-2.24526 -0.85988,-3.344 l 0,-21.40155 4.8249,0 0,20.68498 c 0,1.0032 0.57326,1.14652 1.14651,1.14652 0.52549,0 0.81212,-0.28663 1.14652,-0.62103 0.14331,-0.14332 0.28662,-0.38217 0.42994,-0.62103 l 0,-20.58944 z"
         style="font-style:normal;font-variant:normal;font-weight:normal;font-stretch:normal;font-family:'League Gothic';-inkscape-font-specification:'League Gothic'"
         id="path4492" />
      <path
         d="m 507.58129,693.49448 0,3.0096 c -0.14332,2.53188 -0.90766,4.29942 -2.62743,5.68479 -0.85988,0.71657 -2.05416,1.05097 -3.63062,1.05097 -3.10513,0 -4.68159,-1.71977 -5.44593,-3.43954 -0.42994,-1.0032 -0.71657,-2.14971 -0.76434,-3.43954 l 0,-13.13711 c 0.14331,-2.53188 0.95543,-4.39497 2.67519,-5.82811 0.81212,-0.71657 2.0064,-1.05097 3.58285,-1.05097 3.10514,0 4.6816,1.71977 5.44594,3.39177 0.42994,1.0032 0.71657,2.10194 0.76434,3.34399 l 0,7.59565 -7.97782,0 0,5.68478 c 0.0478,1.0032 0.3344,1.71977 0.76435,2.24526 0.23885,0.23885 0.57325,0.38217 1.00319,0.38217 0.90766,0 1.3376,-0.57326 1.52869,-1.28983 0.14331,-0.38217 0.19108,-0.81211 0.19108,-1.3376 l 0,-2.86628 4.49051,0 z m -7.97782,-6.59244 3.48731,0 0,-3.67839 c 0,-1.0032 -0.19108,-1.71977 -0.6688,-2.29303 -0.23885,-0.23885 -0.62102,-0.38217 -1.05097,-0.38217 -0.90765,0 -1.28982,0.62103 -1.52868,1.3376 -0.14331,0.38217 -0.19108,0.81211 -0.23886,1.3376 l 0,3.67839 z"
         style="font-style:normal;font-variant:normal;font-weight:normal;font-stretch:normal;font-family:'League Gothic';-inkscape-font-specification:'League Gothic'"
         id="path4494" />
      <path
         d="m 513.33326,702.85767 -4.25165,-26.13092 4.68159,0 1.57645,15.14351 0.19109,1.672 0.38217,0 0.19108,-1.672 1.57646,-15.14351 4.68159,0 -4.25165,26.13092 -4.77713,0 z"
         style="font-style:normal;font-variant:normal;font-weight:normal;font-stretch:normal;font-family:'League Gothic';-inkscape-font-specification:'League Gothic'"
         id="path4496" />
      <path
         d="m 531.6349,682.93702 c 0,-0.42994 0,-1.09874 -0.14331,-1.57646 -0.19109,-0.47771 -0.57326,-0.81211 -1.19428,-0.81211 -0.81212,0 -1.14652,0.62103 -1.28983,1.38537 -0.0478,0.38217 -0.0955,0.81211 -0.0955,1.24206 0,0.42994 0,0.85988 0,1.24205 l -4.82491,0 0,-1.09874 c 0,-1.91085 0.71657,-3.63062 1.86309,-4.92045 1.14651,-1.28982 2.77073,-2.05417 4.63381,-2.05417 1.57646,0 3.0096,0.62103 4.10834,1.672 1.09874,1.05097 1.76754,2.53188 1.76754,4.25165 l 0,16.05117 c 0,2.34079 0.14331,3.39176 0.3344,4.53828 l -4.72936,0 c -0.42995,-0.52549 -0.42995,-1.76754 -0.42995,-2.10194 l -0.3344,0 c -0.23885,0.42994 -0.66879,1.05097 -1.33759,1.57645 -0.6688,0.52549 -1.57646,0.90766 -2.53188,0.90766 -0.62103,0 -1.62423,-0.23886 -2.38857,-1.19429 -0.81211,-0.90765 -1.48091,-2.53188 -1.48091,-5.25484 0,-2.91406 0.85988,-5.01599 2.00639,-6.44913 1.14652,-1.43314 2.57966,-2.3408 3.77394,-2.96183 1.19428,-0.62102 2.10194,-1.05097 2.29302,-1.57645 l 0,-2.86628 z m 0,7.30901 c -2.34079,1.0032 -3.34399,3.344 -3.34399,5.82811 0,0.3344 0.0478,0.90765 0.23886,1.43314 0.19108,0.57325 0.52548,1.00319 1.09874,1.00319 1.09874,0 2.00639,-0.66879 2.00639,-1.57645 l 0,-6.68799 z"
         style="font-style:normal;font-variant:normal;font-weight:normal;font-stretch:normal;font-family:'League Gothic';-inkscape-font-specification:'League Gothic'"
         id="path4498" />
      <path
         d="m 546.84335,683.41473 c 0,-0.62102 0,-1.38537 -0.19108,-2.00639 -0.23886,-0.57326 -0.62103,-1.05097 -1.38537,-1.05097 -0.62103,0 -1.0032,0.47771 -1.19428,1.05097 -0.23886,0.57325 -0.28663,1.38537 -0.28663,2.00639 0,0.81212 0.42994,1.672 1.05097,2.43634 0.57325,0.76434 1.3376,1.52868 2.10194,2.24525 1.00319,1.0032 2.19748,2.14971 3.00959,3.43954 0.81211,1.3376 1.43314,2.81851 1.43314,4.53828 0,1.67199 -0.38217,3.43953 -1.3376,4.77713 -1.00319,1.38537 -2.53188,2.38857 -4.8249,2.38857 -2.91405,0 -4.63382,-1.3376 -5.58925,-2.96183 -0.95542,-1.62422 -1.14651,-3.63062 -1.14651,-5.01599 l 4.49051,0 c 0,0.71657 0.0478,1.71977 0.38217,2.48411 0.3344,0.81212 0.85988,1.48091 1.86308,1.48091 1.38537,0 1.672,-1.62422 1.672,-3.1529 0,-1.57646 -1.52869,-3.15291 -3.0096,-4.63382 -1.14651,-1.09874 -2.24525,-2.10194 -3.10514,-3.39177 -0.85988,-1.28982 -1.48091,-2.72296 -1.48091,-4.63382 0,-1.52868 0.28663,-3.29622 1.19429,-4.68159 0.90765,-1.3376 2.38856,-2.34079 4.68159,-2.38857 2.81851,-0.0478 4.39496,1.0032 5.20707,2.38857 0.81212,1.38537 0.95543,3.20068 0.95543,4.68159 l -4.49051,0 z"
         style="font-style:normal;font-variant:normal;font-weight:normal;font-stretch:normal;font-family:'League Gothic';-inkscape-font-specification:'League Gothic'"
         id="path4500" />
      <path
         d="m 568.95625,682.93702 c 0,-0.42994 0,-1.09874 -0.14331,-1.57646 -0.19109,-0.47771 -0.57326,-0.81211 -1.19428,-0.81211 -0.81212,0 -1.14652,0.62103 -1.28983,1.38537 -0.0478,0.38217 -0.0955,0.81211 -0.0955,1.24206 0,0.42994 0,0.85988 0,1.24205 l -4.82491,0 0,-1.09874 c 0,-1.91085 0.71657,-3.63062 1.86309,-4.92045 1.14651,-1.28982 2.77073,-2.05417 4.63381,-2.05417 1.57646,0 3.0096,0.62103 4.10834,1.672 1.09874,1.05097 1.76754,2.53188 1.76754,4.25165 l 0,16.05117 c 0,2.34079 0.14331,3.39176 0.3344,4.53828 l -4.72936,0 c -0.42995,-0.52549 -0.42995,-1.76754 -0.42995,-2.10194 l -0.3344,0 c -0.23885,0.42994 -0.66879,1.05097 -1.33759,1.57645 -0.6688,0.52549 -1.57646,0.90766 -2.53188,0.90766 -0.62103,0 -1.62423,-0.23886 -2.38857,-1.19429 -0.81211,-0.90765 -1.48091,-2.53188 -1.48091,-5.25484 0,-2.91406 0.85988,-5.01599 2.00639,-6.44913 1.14652,-1.43314 2.57966,-2.3408 3.77394,-2.96183 1.19428,-0.62102 2.10194,-1.05097 2.29302,-1.57645 l 0,-2.86628 z m 0,7.30901 c -2.34079,1.0032 -3.34399,3.344 -3.34399,5.82811 0,0.3344 0.0478,0.90765 0.23886,1.43314 0.19108,0.57325 0.52548,1.00319 1.09874,1.00319 1.09874,0 2.00639,-0.66879 2.00639,-1.57645 l 0,-6.68799 z"
         style="font-style:normal;font-variant:normal;font-weight:normal;font-stretch:normal;font-family:'League Gothic';-inkscape-font-specification:'League Gothic'"
         id="path4502" />
      <path
         d="m 581.68061,702.85767 -4.8249,0 0,-26.13092 4.8249,0 0,2.19748 c 0.0955,-0.0478 0.28663,-0.23886 0.57326,-0.52549 0.52548,-0.52548 1.24205,-1.24205 2.10193,-1.71977 0.42995,-0.23885 0.81212,-0.3344 1.24206,-0.3344 1.28983,0 2.19748,0.76435 2.77074,1.71977 0.57325,1.0032 0.85988,2.29303 0.85988,3.39177 l 0,21.40156 -4.8249,0 0,-20.68499 c 0,-1.0032 -0.57326,-1.14651 -1.14652,-1.14651 -0.52548,0 -0.81211,0.28662 -1.14651,0.62102 -0.14331,0.19109 -0.28663,0.38217 -0.42994,0.62103 l 0,20.58945 z"
         style="font-style:normal;font-variant:normal;font-weight:normal;font-stretch:normal;font-family:'League Gothic';-inkscape-font-specification:'League Gothic'"
         id="path4504" />
      <path
         d="m 600.02629,682.93702 c 0,-0.42994 0,-1.09874 -0.14331,-1.57646 -0.19109,-0.47771 -0.57326,-0.81211 -1.19429,-0.81211 -0.81211,0 -1.14651,0.62103 -1.28982,1.38537 -0.0478,0.38217 -0.0955,0.81211 -0.0955,1.24206 0,0.42994 0,0.85988 0,1.24205 l -4.82491,0 0,-1.09874 c 0,-1.91085 0.71657,-3.63062 1.86308,-4.92045 1.14652,-1.28982 2.77074,-2.05417 4.63382,-2.05417 1.57646,0 3.0096,0.62103 4.10834,1.672 1.09874,1.05097 1.76754,2.53188 1.76754,4.25165 l 0,16.05117 c 0,2.34079 0.14331,3.39176 0.3344,4.53828 l -4.72937,0 c -0.42994,-0.52549 -0.42994,-1.76754 -0.42994,-2.10194 l -0.3344,0 c -0.23885,0.42994 -0.6688,1.05097 -1.33759,1.57645 -0.6688,0.52549 -1.57646,0.90766 -2.53189,0.90766 -0.62102,0 -1.62422,-0.23886 -2.38856,-1.19429 -0.81212,-0.90765 -1.48091,-2.53188 -1.48091,-5.25484 0,-2.91406 0.85988,-5.01599 2.00639,-6.44913 1.14651,-1.43314 2.57965,-2.3408 3.77394,-2.96183 1.19428,-0.62102 2.10194,-1.05097 2.29302,-1.57645 l 0,-2.86628 z m 0,7.30901 c -2.34079,1.0032 -3.34399,3.344 -3.34399,5.82811 0,0.3344 0.0478,0.90765 0.23886,1.43314 0.19108,0.57325 0.52548,1.00319 1.09874,1.00319 1.09874,0 2.00639,-0.66879 2.00639,-1.57645 l 0,-6.68799 z"
         style="font-style:normal;font-variant:normal;font-weight:normal;font-stretch:normal;font-family:'League Gothic';-inkscape-font-specification:'League Gothic'"
         id="path4506" />
      <path
         d="m 617.57554,681.69496 c -0.42994,-0.14331 -0.90766,-0.19108 -1.3376,-0.19108 -0.76434,0 -1.672,0.0955 -2.43634,0.81211 -0.90765,0.76434 -1.05097,1.57646 -1.05097,2.38857 l 0,18.15311 -4.8249,0 0,-26.13092 4.8249,0 0,2.91405 c 0.0478,-0.3344 0.38217,-1.14652 1.14651,-1.91086 0.76435,-0.71657 1.91086,-1.38537 3.6784,-1.38537 l 0,5.35039 z"
         style="font-style:normal;font-variant:normal;font-weight:normal;font-stretch:normal;font-family:'League Gothic';-inkscape-font-specification:'League Gothic'"
         id="path4508" />
      <path
         d="m 631.86364,711.83868 -4.8249,0 0,-10.70078 c -0.81211,0.76434 -1.52868,1.3376 -2.43634,1.76754 -0.47771,0.23885 -0.95543,0.3344 -1.38537,0.3344 -1.3376,0 -2.24525,-0.76434 -2.81851,-1.76754 -0.62102,-0.95543 -0.90765,-2.24526 -0.90765,-3.344 l 0,-16.67219 c 0,-1.09874 0.28663,-2.38857 0.90765,-3.39177 0.57326,-0.95542 1.48091,-1.71977 2.81851,-1.71977 0.90766,0 1.86308,0.52549 2.57965,1.05097 0.42995,0.3344 0.81212,0.6688 1.24206,1.05097 l 0,-1.71976 4.8249,0 0,35.11193 z m -4.8249,-29.37937 c 0,-0.90766 -0.71657,-1.57646 -1.43314,-1.57646 -0.71657,0 -1.28983,0.6688 -1.28983,1.57646 l 0,14.6658 c 0,0.90765 0.57326,1.57645 1.28983,1.57645 0.71657,0 1.43314,-0.81211 1.43314,-1.57645 l 0,-14.6658 z"
         style="font-style:normal;font-variant:normal;font-weight:normal;font-stretch:normal;font-family:'League Gothic';-inkscape-font-specification:'League Gothic'"
         id="path4510" />
      <path
         d="m 643.18247,676.72675 4.8249,0 0,26.13092 -4.8249,0 0,-2.19749 c -0.0955,0.0478 -0.28663,0.23886 -0.52549,0.47772 -0.57325,0.57325 -1.24205,1.24205 -2.10193,1.71977 -0.42995,0.23885 -0.85989,0.38217 -1.28983,0.38217 -1.28983,0 -2.19748,-0.76434 -2.77074,-1.76754 -0.57325,-0.95543 -0.85988,-2.24526 -0.85988,-3.344 l 0,-21.40155 4.8249,0 0,20.68498 c 0,1.0032 0.57326,1.14652 1.14651,1.14652 0.52549,0 0.81212,-0.28663 1.14652,-0.62103 0.14331,-0.14332 0.28663,-0.38217 0.42994,-0.62103 l 0,-20.58944 z"
         style="font-style:normal;font-variant:normal;font-weight:normal;font-stretch:normal;font-family:'League Gothic';-inkscape-font-specification:'League Gothic'"
         id="path4512" />
      <path
         d="m 651.87162,667.74573 4.82491,0 0,4.82491 -4.82491,0 0,-4.82491 z m 0,35.11194 0,-26.13092 4.82491,0 0,26.13092 -4.82491,0 z"
         style="font-style:normal;font-variant:normal;font-weight:normal;font-stretch:normal;font-family:'League Gothic';-inkscape-font-specification:'League Gothic'"
         id="path4514" />
      <path
         d="m 667.57794,683.41473 c 0,-0.62102 0,-1.38537 -0.19108,-2.00639 -0.23886,-0.57326 -0.62103,-1.05097 -1.38537,-1.05097 -0.62103,0 -1.0032,0.47771 -1.19428,1.05097 -0.23886,0.57325 -0.28663,1.38537 -0.28663,2.00639 0,0.81212 0.42994,1.672 1.05097,2.43634 0.57325,0.76434 1.33759,1.52868 2.10194,2.24525 1.00319,1.0032 2.19748,2.14971 3.00959,3.43954 0.81211,1.3376 1.43314,2.81851 1.43314,4.53828 0,1.67199 -0.38217,3.43953 -1.3376,4.77713 -1.0032,1.38537 -2.53188,2.38857 -4.8249,2.38857 -2.91405,0 -4.63382,-1.3376 -5.58925,-2.96183 -0.95543,-1.62422 -1.14651,-3.63062 -1.14651,-5.01599 l 4.4905,0 c 0,0.71657 0.0478,1.71977 0.38218,2.48411 0.33439,0.81212 0.85988,1.48091 1.86308,1.48091 1.38537,0 1.67199,-1.62422 1.67199,-3.1529 0,-1.57646 -1.52868,-3.15291 -3.00959,-4.63382 -1.14651,-1.09874 -2.24525,-2.10194 -3.10514,-3.39177 -0.85988,-1.28982 -1.48091,-2.72296 -1.48091,-4.63382 0,-1.52868 0.28663,-3.29622 1.19429,-4.68159 0.90765,-1.3376 2.38856,-2.34079 4.68159,-2.38857 2.8185,-0.0478 4.39496,1.0032 5.20707,2.38857 0.81211,1.38537 0.95543,3.20068 0.95543,4.68159 l -4.49051,0 z"
         style="font-style:normal;font-variant:normal;font-weight:normal;font-stretch:normal;font-family:'League Gothic';-inkscape-font-specification:'League Gothic'"
         id="path4516" />
      <path
         d="m 680.37244,670.27762 0,6.44913 3.29622,0 0,4.34719 -3.29622,0 0,12.9938 c 0,0.81211 0,1.86308 0.19108,2.72297 0.19109,0.85988 0.57326,1.57645 1.3376,1.57645 0.38217,0 0.85988,-0.0478 1.19428,-0.0955 0.19109,-0.0478 0.38217,-0.0478 0.57326,-0.0955 l 0,4.72936 c -0.23886,0.0478 -0.47771,0.14331 -0.71657,0.19108 -0.47771,0.0955 -1.09874,0.14332 -1.86308,0.14332 -2.81851,0 -4.15611,-1.43314 -4.82491,-3.24845 -0.6688,-1.81531 -0.71657,-4.0128 -0.71657,-5.54148 l 0,-13.37597 -2.43634,0 0,-4.34719 2.43634,0 0,-6.44913 4.82491,0 z"
         style="font-style:normal;font-variant:normal;font-weight:normal;font-stretch:normal;font-family:'League Gothic';-inkscape-font-specification:'League Gothic'"
         id="path4518" />
      <path
         d="m 693.42299,682.93702 c 0,-0.42994 0,-1.09874 -0.14331,-1.57646 -0.19109,-0.47771 -0.57326,-0.81211 -1.19429,-0.81211 -0.81211,0 -1.14651,0.62103 -1.28982,1.38537 -0.0478,0.38217 -0.0956,0.81211 -0.0956,1.24206 0,0.42994 0,0.85988 0,1.24205 l -4.8249,0 0,-1.09874 c 0,-1.91085 0.71657,-3.63062 1.86308,-4.92045 1.14651,-1.28982 2.77074,-2.05417 4.63382,-2.05417 1.57645,0 3.00959,0.62103 4.10834,1.672 1.09874,1.05097 1.76753,2.53188 1.76753,4.25165 l 0,16.05117 c 0,2.34079 0.14332,3.39176 0.3344,4.53828 l -4.72936,0 c -0.42994,-0.52549 -0.42994,-1.76754 -0.42994,-2.10194 l -0.3344,0 c -0.23886,0.42994 -0.6688,1.05097 -1.3376,1.57645 -0.6688,0.52549 -1.57645,0.90766 -2.53188,0.90766 -0.62103,0 -1.62422,-0.23886 -2.38856,-1.19429 -0.81212,-0.90765 -1.48092,-2.53188 -1.48092,-5.25484 0,-2.91406 0.85989,-5.01599 2.0064,-6.44913 1.14651,-1.43314 2.57965,-2.3408 3.77394,-2.96183 1.19428,-0.62102 2.10193,-1.05097 2.29302,-1.57645 l 0,-2.86628 z m 0,7.30901 c -2.3408,1.0032 -3.34399,3.344 -3.34399,5.82811 0,0.3344 0.0478,0.90765 0.23885,1.43314 0.19109,0.57325 0.52549,1.00319 1.09874,1.00319 1.09874,0 2.0064,-0.66879 2.0064,-1.57645 l 0,-6.68799 z"
         style="font-style:normal;font-variant:normal;font-weight:normal;font-stretch:normal;font-family:'League Gothic';-inkscape-font-specification:'League Gothic'"
         id="path4520" />
      <path
         d="m 708.63142,683.41473 c 0,-0.62102 0,-1.38537 -0.19108,-2.00639 -0.23886,-0.57326 -0.62103,-1.05097 -1.38537,-1.05097 -0.62103,0 -1.0032,0.47771 -1.19428,1.05097 -0.23886,0.57325 -0.28663,1.38537 -0.28663,2.00639 0,0.81212 0.42994,1.672 1.05097,2.43634 0.57325,0.76434 1.3376,1.52868 2.10194,2.24525 1.0032,1.0032 2.19748,2.14971 3.00959,3.43954 0.81211,1.3376 1.43314,2.81851 1.43314,4.53828 0,1.67199 -0.38217,3.43953 -1.3376,4.77713 -1.00319,1.38537 -2.53188,2.38857 -4.8249,2.38857 -2.91405,0 -4.63382,-1.3376 -5.58925,-2.96183 -0.95542,-1.62422 -1.14651,-3.63062 -1.14651,-5.01599 l 4.49051,0 c 0,0.71657 0.0478,1.71977 0.38217,2.48411 0.3344,0.81212 0.85988,1.48091 1.86308,1.48091 1.38537,0 1.672,-1.62422 1.672,-3.1529 0,-1.57646 -1.52869,-3.15291 -3.0096,-4.63382 -1.14651,-1.09874 -2.24525,-2.10194 -3.10513,-3.39177 -0.85989,-1.28982 -1.48092,-2.72296 -1.48092,-4.63382 0,-1.52868 0.28663,-3.29622 1.19429,-4.68159 0.90765,-1.3376 2.38856,-2.34079 4.68159,-2.38857 2.81851,-0.0478 4.39496,1.0032 5.20707,2.38857 0.81212,1.38537 0.95543,3.20068 0.95543,4.68159 l -4.49051,0 z"
         style="font-style:normal;font-variant:normal;font-weight:normal;font-stretch:normal;font-family:'League Gothic';-inkscape-font-specification:'League Gothic'"
         id="path4522" />
    </g>
    <g
       id="g3234"
       transform="matrix(1.4188819,0,0,1.4188819,86.174224,-431.10105)">
      <g
         id="g3341"
         transform="matrix(0.83569431,0,0,0.83569431,2.5280846,126.85728)">
        <path
           id="path3155"
           d="m 15.386466,767.76245 2.32188,0 0,-9.90444 c 0.04486,-0.0748 0.112165,-0.17198 0.201903,-0.29164 0.201899,-0.20189 0.385107,-0.30284 0.549624,-0.30285 0.373889,10e-6 0.560836,0.18322 0.56084,0.54962 l 0,9.94931 2.310664,0 0,-10.29703 c -7e-6,-0.6057 -0.138348,-1.14784 -0.415022,-1.62644 -0.336511,-0.55335 -0.777705,-0.83003 -1.323584,-0.83004 -0.201908,10e-6 -0.40381,0.0561 -0.605708,0.16825 -0.276686,0.14957 -0.61319,0.42251 -1.009513,0.81883 -0.164517,0.16452 -0.254251,0.25052 -0.269204,0.25798 l 0,-5.37285 -2.32188,0 0,16.8813"
           inkscape:connector-curvature="0"
           style="font-size:22.97203255px;font-style:normal;font-variant:normal;font-weight:normal;font-stretch:normal;line-height:125%;letter-spacing:0px;word-spacing:0px;fill:#000000;fill-opacity:1;stroke:none;font-family:League Gothic;-inkscape-font-specification:League Gothic" />
        <path
           id="path3157"
           d="m 22.453058,757.28595 1.177765,0 0,6.43845 c -1e-6,1.1516 0.115906,2.03772 0.347722,2.65839 0.388847,1.03942 1.159067,1.55913 2.310663,1.55913 0.373889,0 0.673004,-0.0224 0.897345,-0.0673 0.03739,-0.007 0.09347,-0.0224 0.168252,-0.0449 0.08225,-0.0224 0.142075,-0.0374 0.179469,-0.0449 l 0,-2.27702 c -0.02992,0.007 -0.07478,0.015 -0.134601,0.0224 -0.05983,0.007 -0.104696,0.015 -0.134602,0.0224 -0.209386,0.0299 -0.40381,0.0449 -0.583274,0.0449 -0.321553,0 -0.534672,-0.25051 -0.639359,-0.75153 -0.05983,-0.27668 -0.08974,-0.71413 -0.08973,-1.31236 l 0,-6.24777 1.58157,0 0,-2.08633 -1.58157,0 0,-3.10705 -2.321881,0 0,3.10705 -1.177765,0 0,2.08633"
           inkscape:connector-curvature="0"
           style="font-size:22.97203255px;font-style:normal;font-variant:normal;font-weight:normal;font-stretch:normal;line-height:125%;letter-spacing:0px;word-spacing:0px;fill:#000000;fill-opacity:1;stroke:none;font-family:League Gothic;-inkscape-font-specification:League Gothic" />
        <path
           id="path3159"
           d="m 28.061465,757.28595 1.177766,0 0,6.43845 c -2e-6,1.1516 0.115905,2.03772 0.347721,2.65839 0.388847,1.03942 1.159067,1.55913 2.310663,1.55913 0.373889,0 0.673004,-0.0224 0.897345,-0.0673 0.03739,-0.007 0.09347,-0.0224 0.168252,-0.0449 0.08225,-0.0224 0.142075,-0.0374 0.179469,-0.0449 l 0,-2.27702 c -0.02992,0.007 -0.07478,0.015 -0.134601,0.0224 -0.05983,0.007 -0.104696,0.015 -0.134602,0.0224 -0.209385,0.0299 -0.40381,0.0449 -0.583274,0.0449 -0.321553,0 -0.534672,-0.25051 -0.639359,-0.75153 -0.05983,-0.27668 -0.08974,-0.71413 -0.08973,-1.31236 l 0,-6.24777 1.58157,0 0,-2.08633 -1.58157,0 0,-3.10705 -2.32188,0 0,3.10705 -1.177766,0 0,2.08633"
           inkscape:connector-curvature="0"
           style="font-size:22.97203255px;font-style:normal;font-variant:normal;font-weight:normal;font-stretch:normal;line-height:125%;letter-spacing:0px;word-spacing:0px;fill:#000000;fill-opacity:1;stroke:none;font-family:League Gothic;-inkscape-font-specification:League Gothic" />
        <path
           id="path3161"
           d="m 34.365314,772.08093 2.32188,0 0,-5.14852 c 0.254244,0.22434 0.452408,0.39259 0.594491,0.50476 0.456146,0.3365 0.871168,0.50475 1.245066,0.50475 0.560835,0 1.016985,-0.28042 1.368451,-0.84126 0.276675,-0.45615 0.415016,-0.99455 0.415022,-1.61522 l 0,-8.02002 c -6e-6,-0.6057 -0.138347,-1.14784 -0.415022,-1.62644 -0.366422,-0.55335 -0.822572,-0.83003 -1.368451,-0.83004 -0.231819,10e-6 -0.448677,0.0561 -0.650575,0.16825 -0.373898,0.16453 -0.770225,0.44495 -1.188982,0.84126 l 0,-0.81883 -2.32188,0 0,16.88131 m 2.32188,-7.07781 0,-7.04416 c -3e-6,-0.21685 0.0673,-0.39632 0.201902,-0.53841 0.142077,-0.14954 0.302851,-0.22432 0.482323,-0.22433 0.171987,10e-6 0.317806,0.0748 0.437456,0.22433 0.12712,0.14209 0.190681,0.32156 0.190686,0.53841 l 0,7.04416 c -5e-6,0.21686 -0.06357,0.40007 -0.190686,0.54962 -0.11965,0.14208 -0.265469,0.21312 -0.437456,0.21312 -0.171994,0 -0.32903,-0.0785 -0.471106,-0.23555 -0.142083,-0.16451 -0.213122,-0.34024 -0.213119,-0.52719"
           inkscape:connector-curvature="0"
           style="font-size:22.97203255px;font-style:normal;font-variant:normal;font-weight:normal;font-stretch:normal;line-height:125%;letter-spacing:0px;word-spacing:0px;fill:#000000;fill-opacity:1;stroke:none;font-family:League Gothic;-inkscape-font-specification:League Gothic" />
        <path
           id="path3163"
           d="m 41.992746,767.76245 2.411615,0 0,-2.54621 -2.411615,0 0,2.54621 m 0,-10.01661 2.411615,0 0,-2.54622 -2.411615,0 0,2.54622"
           inkscape:connector-curvature="0"
           style="font-size:22.97203255px;font-style:normal;font-variant:normal;font-weight:normal;font-stretch:normal;line-height:125%;letter-spacing:0px;word-spacing:0px;fill:#000000;fill-opacity:1;stroke:none;font-family:League Gothic;-inkscape-font-specification:League Gothic" />
        <path
           id="path3165"
           d="m 45.335356,769.41133 1.884425,0 6.023428,-18.53018 -1.817123,0 -6.09073,18.53018"
           inkscape:connector-curvature="0"
           style="font-size:22.97203255px;font-style:normal;font-variant:normal;font-weight:normal;font-stretch:normal;line-height:125%;letter-spacing:0px;word-spacing:0px;fill:#000000;fill-opacity:1;stroke:none;font-family:League Gothic;-inkscape-font-specification:League Gothic" />
        <path
           id="path3167"
           d="m 53.411463,769.41133 1.884425,0 6.023428,-18.53018 -1.817123,0 -6.09073,18.53018"
           inkscape:connector-curvature="0"
           style="font-size:22.97203255px;font-style:normal;font-variant:normal;font-weight:normal;font-stretch:normal;line-height:125%;letter-spacing:0px;word-spacing:0px;fill:#000000;fill-opacity:1;stroke:none;font-family:League Gothic;-inkscape-font-specification:League Gothic" />
        <path
           id="path3169"
           d="m 62.317611,772.08093 2.32188,0 0,-5.14852 c 0.254244,0.22434 0.452408,0.39259 0.594491,0.50476 0.456146,0.3365 0.871168,0.50475 1.245066,0.50475 0.560835,0 1.016985,-0.28042 1.368452,-0.84126 0.276674,-0.45615 0.415015,-0.99455 0.415022,-1.61522 l 0,-8.02002 c -7e-6,-0.6057 -0.138348,-1.14784 -0.415022,-1.62644 -0.366422,-0.55335 -0.822572,-0.83003 -1.368452,-0.83004 -0.231819,10e-6 -0.448677,0.0561 -0.650575,0.16825 -0.373898,0.16453 -0.770225,0.44495 -1.188982,0.84126 l 0,-0.81883 -2.32188,0 0,16.88131 m 2.32188,-7.07781 0,-7.04416 c -3e-6,-0.21685 0.0673,-0.39632 0.201903,-0.53841 0.142076,-0.14954 0.30285,-0.22432 0.482323,-0.22433 0.171987,10e-6 0.317805,0.0748 0.437455,0.22433 0.12712,0.14209 0.190682,0.32156 0.190686,0.53841 l 0,7.04416 c -4e-6,0.21686 -0.06357,0.40007 -0.190686,0.54962 -0.11965,0.14208 -0.265468,0.21312 -0.437455,0.21312 -0.171995,0 -0.32903,-0.0785 -0.471106,-0.23555 -0.142083,-0.16451 -0.213123,-0.34024 -0.21312,-0.52719"
           inkscape:connector-curvature="0"
           style="font-size:22.97203255px;font-style:normal;font-variant:normal;font-weight:normal;font-stretch:normal;line-height:125%;letter-spacing:0px;word-spacing:0px;fill:#000000;fill-opacity:1;stroke:none;font-family:League Gothic;-inkscape-font-specification:League Gothic" />
        <path
           id="path3171"
           d="m 69.664623,764.84608 c -1e-6,1.1516 0.239291,1.99286 0.717876,2.52379 0.306591,0.38137 0.687962,0.57205 1.144115,0.57205 0.448669,0 0.856213,-0.14582 1.222632,-0.43745 0.261722,-0.20938 0.474841,-0.45989 0.639359,-0.75153 l 0.157035,0 c -4e-6,0.49354 0.07103,0.83004 0.21312,1.00951 l 2.265796,0 c -0.104697,-0.64309 -0.157042,-1.37219 -0.157036,-2.18727 l 0,-7.71717 c -6e-6,-0.81508 -0.284165,-1.49557 -0.852477,-2.04146 -0.560846,-0.5384 -1.218899,-0.8076 -1.974159,-0.80761 -0.897348,10e-6 -1.637657,0.32904 -2.220929,0.98708 -0.598231,0.67302 -0.897346,1.46193 -0.897345,2.36674 l 0,0.52719 2.32188,0 0,-0.59449 c -3e-6,-0.15702 0.01495,-0.35519 0.04487,-0.59449 0.08225,-0.44118 0.287895,-0.66178 0.616925,-0.66179 0.276677,10e-6 0.467363,0.12714 0.572057,0.38137 0.04486,0.14957 0.0673,0.40382 0.0673,0.76275 l 0,1.37966 c -0.01496,0.0374 -0.03366,0.0748 -0.05608,0.11217 -0.02244,0.0299 -0.05609,0.0636 -0.100951,0.10095 -0.04487,0.0374 -0.08974,0.0711 -0.134602,0.10095 -0.03739,0.0224 -0.09348,0.0561 -0.168252,0.10096 -0.07478,0.0374 -0.138345,0.071 -0.190686,0.10095 -0.04487,0.0224 -0.11965,0.0598 -0.224336,0.11216 -0.09722,0.0524 -0.171995,0.0935 -0.224337,0.12339 -0.777701,0.41129 -1.383408,0.88613 -1.817123,1.42454 -0.643098,0.80013 -0.964647,1.83582 -0.964646,3.10705 m 2.277013,-0.34772 c -3e-6,-0.62814 0.13086,-1.19272 0.392588,-1.69374 0.2692,-0.50849 0.673005,-0.87864 1.211416,-1.11046 l 0,3.21922 c -4e-6,0.21686 -0.09348,0.40007 -0.28042,0.54963 -0.186951,0.14208 -0.415026,0.21312 -0.684226,0.21312 -0.246773,0 -0.422503,-0.16078 -0.52719,-0.48233 -0.07478,-0.21685 -0.112171,-0.44867 -0.112168,-0.69544"
           inkscape:connector-curvature="0"
           style="font-size:22.97203255px;font-style:normal;font-variant:normal;font-weight:normal;font-stretch:normal;line-height:125%;letter-spacing:0px;word-spacing:0px;fill:#000000;fill-opacity:1;stroke:none;font-family:League Gothic;-inkscape-font-specification:League Gothic" />
        <path
           id="path3173"
           d="m 77.437873,767.76245 2.32188,0 0,-8.72668 c -3e-6,-0.48605 0.168249,-0.87116 0.504757,-1.15533 0.269199,-0.25424 0.658048,-0.38136 1.166548,-0.38137 0.254243,1e-5 0.471101,0.0299 0.650575,0.0897 l 0,-2.57986 c -0.702925,10e-6 -1.293676,0.22435 -1.772256,0.67301 -0.164517,0.16452 -0.29538,0.33277 -0.392588,0.50475 -0.08974,0.17201 -0.142083,0.31035 -0.157036,0.41502 l 0,-1.4021 -2.32188,0 0,12.56283"
           inkscape:connector-curvature="0"
           style="font-size:22.97203255px;font-style:normal;font-variant:normal;font-weight:normal;font-stretch:normal;line-height:125%;letter-spacing:0px;word-spacing:0px;fill:#000000;fill-opacity:1;stroke:none;font-family:League Gothic;-inkscape-font-specification:League Gothic" />
        <path
           id="path3175"
           d="m 82.395705,757.28595 1.177765,0 0,6.43845 c -10e-7,1.1516 0.115906,2.03772 0.347722,2.65839 0.388847,1.03942 1.159067,1.55913 2.310663,1.55913 0.373889,0 0.673004,-0.0224 0.897345,-0.0673 0.03738,-0.007 0.09347,-0.0224 0.168252,-0.0449 0.08225,-0.0224 0.142075,-0.0374 0.179469,-0.0449 l 0,-2.27702 c -0.02992,0.007 -0.07478,0.015 -0.134601,0.0224 -0.05983,0.007 -0.104696,0.015 -0.134602,0.0224 -0.209386,0.0299 -0.40381,0.0449 -0.583274,0.0449 -0.321553,0 -0.534672,-0.25051 -0.639359,-0.75153 -0.05983,-0.27668 -0.08974,-0.71413 -0.08973,-1.31236 l 0,-6.24777 1.58157,0 0,-2.08633 -1.58157,0 0,-3.10705 -2.321881,0 0,3.10705 -1.177765,0 0,2.08633"
           inkscape:connector-curvature="0"
           style="font-size:22.97203255px;font-style:normal;font-variant:normal;font-weight:normal;font-stretch:normal;line-height:125%;letter-spacing:0px;word-spacing:0px;fill:#000000;fill-opacity:1;stroke:none;font-family:League Gothic;-inkscape-font-specification:League Gothic" />
        <path
           id="path3177"
           d="m 88.699554,767.76245 2.32188,0 0,-12.56283 -2.32188,0 0,12.56283 m 0,-14.55942 2.32188,0 0,-2.32188 -2.32188,0 0,2.32188"
           inkscape:connector-curvature="0"
           style="font-size:22.97203255px;font-style:normal;font-variant:normal;font-weight:normal;font-stretch:normal;line-height:125%;letter-spacing:0px;word-spacing:0px;fill:#000000;fill-opacity:1;stroke:none;font-family:League Gothic;-inkscape-font-specification:League Gothic" />
        <path
           id="path3179"
           d="m 92.782472,765.48544 c -10e-7,0.63562 0.145818,1.17403 0.437456,1.61522 0.329025,0.56084 0.777697,0.84126 1.346018,0.84126 0.239289,0 0.463625,-0.0523 0.673008,-0.15703 0.343979,-0.15704 0.732828,-0.4412 1.166549,-0.85248 l 0,0.83004 2.32188,0 0,-16.8813 -2.32188,0 0,5.1373 c -0.254252,-0.22432 -0.452416,-0.39258 -0.594491,-0.50476 -0.456154,-0.33649 -0.871176,-0.50474 -1.245066,-0.50475 -0.560843,10e-6 -1.009515,0.27669 -1.346018,0.83004 -0.291638,0.46364 -0.437457,1.00579 -0.437456,1.62644 l 0,8.02002 m 2.321881,-0.48232 0,-7.04416 c -4e-6,-0.21685 0.05982,-0.39632 0.179469,-0.53841 0.119642,-0.14954 0.265461,-0.22432 0.437455,-0.22433 0.171987,10e-6 0.329023,0.0823 0.471106,0.24677 0.142076,0.15704 0.213115,0.32903 0.21312,0.51597 l 0,7.04416 c -5e-6,0.21686 -0.07104,0.40007 -0.21312,0.54962 -0.134605,0.14208 -0.291641,0.21312 -0.471106,0.21312 -0.171994,0 -0.317813,-0.071 -0.437455,-0.21312 -0.11965,-0.14955 -0.179473,-0.33276 -0.179469,-0.54962"
           inkscape:connector-curvature="0"
           style="font-size:22.97203255px;font-style:normal;font-variant:normal;font-weight:normal;font-stretch:normal;line-height:125%;letter-spacing:0px;word-spacing:0px;fill:#000000;fill-opacity:1;stroke:none;font-family:League Gothic;-inkscape-font-specification:League Gothic" />
        <path
           id="path3181"
           d="m 100.37626,764.63296 c 0.0224,0.56832 0.14582,1.12169 0.37015,1.66009 0.49354,1.09925 1.36098,1.64887 2.60231,1.64887 0.75526,0 1.33479,-0.16825 1.7386,-0.50475 0.4038,-0.32903 0.70292,-0.7104 0.89735,-1.14412 0.19441,-0.44119 0.31032,-0.96838 0.34772,-1.58157 l 0,-6.46088 c -0.0224,-0.53092 -0.14583,-1.06559 -0.37016,-1.60401 -0.50102,-1.09176 -1.37219,-1.63764 -2.61351,-1.63765 -0.77023,10e-6 -1.34602,0.16826 -1.72739,0.50475 -0.76275,0.64311 -1.17777,1.57785 -1.24507,2.80421 l 0,6.31506 m 2.18728,0 0,-6.31506 c -0.007,-0.0598 -0.0112,-0.11964 -0.0112,-0.17947 0,-0.17198 0.0262,-0.32528 0.0785,-0.45989 0.11216,-0.42623 0.35146,-0.63935 0.71788,-0.63936 0.21685,10e-6 0.3851,0.0598 0.50475,0.17947 0.19442,0.24678 0.29163,0.57207 0.29164,0.97586 -1e-5,0.0449 -1e-5,0.086 0,0.12339 l 0,6.31506 c 0.007,0.0598 0.0112,0.11965 0.0112,0.17947 -1e-5,0.17947 -0.0262,0.33651 -0.0785,0.47111 -0.1047,0.41128 -0.34773,0.61692 -0.72909,0.61692 -0.20191,0 -0.36268,-0.0598 -0.48233,-0.17947 -0.2019,-0.26172 -0.30285,-0.58327 -0.30285,-0.96464 0,-0.0449 0,-0.086 0,-0.12339"
           inkscape:connector-curvature="0"
           style="font-size:22.97203255px;font-style:normal;font-variant:normal;font-weight:normal;font-stretch:normal;line-height:125%;letter-spacing:0px;word-spacing:0px;fill:#000000;fill-opacity:1;stroke:none;font-family:League Gothic;-inkscape-font-specification:League Gothic" />
        <path
           id="path3183"
           d="m 107.94761,772.08093 2.32188,0 0,-5.14852 c 0.25424,0.22434 0.45241,0.39259 0.59449,0.50476 0.45615,0.3365 0.87117,0.50475 1.24507,0.50475 0.56083,0 1.01698,-0.28042 1.36845,-0.84126 0.27667,-0.45615 0.41501,-0.99455 0.41502,-1.61522 l 0,-8.02002 c -1e-5,-0.6057 -0.13835,-1.14784 -0.41502,-1.62644 -0.36642,-0.55335 -0.82257,-0.83003 -1.36845,-0.83004 -0.23182,10e-6 -0.44868,0.0561 -0.65058,0.16825 -0.3739,0.16453 -0.77022,0.44495 -1.18898,0.84126 l 0,-0.81883 -2.32188,0 0,16.88131 m 2.32188,-7.07781 0,-7.04416 c 0,-0.21685 0.0673,-0.39632 0.2019,-0.53841 0.14208,-0.14954 0.30285,-0.22432 0.48233,-0.22433 0.17198,10e-6 0.3178,0.0748 0.43745,0.22433 0.12712,0.14209 0.19068,0.32156 0.19069,0.53841 l 0,7.04416 c -1e-5,0.21686 -0.0636,0.40007 -0.19069,0.54962 -0.11965,0.14208 -0.26547,0.21312 -0.43745,0.21312 -0.172,0 -0.32903,-0.0785 -0.47111,-0.23555 -0.14208,-0.16451 -0.21312,-0.34024 -0.21312,-0.52719"
           inkscape:connector-curvature="0"
           style="font-size:22.97203255px;font-style:normal;font-variant:normal;font-weight:normal;font-stretch:normal;line-height:125%;letter-spacing:0px;word-spacing:0px;fill:#000000;fill-opacity:1;stroke:none;font-family:League Gothic;-inkscape-font-specification:League Gothic" />
        <path
           id="path3185"
           d="m 115.66477,767.76245 2.32188,0 0,-12.56283 -2.32188,0 0,12.56283 m 0,-14.55942 2.32188,0 0,-2.32188 -2.32188,0 0,2.32188"
           inkscape:connector-curvature="0"
           style="font-size:22.97203255px;font-style:normal;font-variant:normal;font-weight:normal;font-stretch:normal;line-height:125%;letter-spacing:0px;word-spacing:0px;fill:#000000;fill-opacity:1;stroke:none;font-family:League Gothic;-inkscape-font-specification:League Gothic" />
        <path
           id="path3187"
           d="m 119.83743,767.76245 2.32188,0 0,-8.72668 c -1e-5,-0.48605 0.16825,-0.87116 0.50475,-1.15533 0.2692,-0.25424 0.65805,-0.38136 1.16655,-0.38137 0.25424,1e-5 0.4711,0.0299 0.65058,0.0897 l 0,-2.57986 c -0.70293,10e-6 -1.29368,0.22435 -1.77226,0.67301 -0.16452,0.16452 -0.29538,0.33277 -0.39259,0.50475 -0.0897,0.17201 -0.14208,0.31035 -0.15703,0.41502 l 0,-1.4021 -2.32188,0 0,12.56283"
           inkscape:connector-curvature="0"
           style="font-size:22.97203255px;font-style:normal;font-variant:normal;font-weight:normal;font-stretch:normal;line-height:125%;letter-spacing:0px;word-spacing:0px;fill:#000000;fill-opacity:1;stroke:none;font-family:League Gothic;-inkscape-font-specification:League Gothic" />
        <path
           id="path3189"
           d="m 125.12055,764.84608 c 0,1.1516 0.23929,1.99286 0.71787,2.52379 0.30659,0.38137 0.68796,0.57205 1.14412,0.57205 0.44867,0 0.85621,-0.14582 1.22263,-0.43745 0.26172,-0.20938 0.47484,-0.45989 0.63936,-0.75153 l 0.15703,0 c 0,0.49354 0.071,0.83004 0.21312,1.00951 l 2.2658,0 c -0.1047,-0.64309 -0.15704,-1.37219 -0.15704,-2.18727 l 0,-7.71717 c 0,-0.81508 -0.28416,-1.49557 -0.85247,-2.04146 -0.56085,-0.5384 -1.2189,-0.8076 -1.97416,-0.80761 -0.89735,10e-6 -1.63766,0.32904 -2.22093,0.98708 -0.59823,0.67302 -0.89735,1.46193 -0.89735,2.36674 l 0,0.52719 2.32188,0 0,-0.59449 c 0,-0.15702 0.015,-0.35519 0.0449,-0.59449 0.0823,-0.44118 0.2879,-0.66178 0.61692,-0.66179 0.27668,10e-6 0.46737,0.12714 0.57206,0.38137 0.0449,0.14957 0.0673,0.40382 0.0673,0.76275 l 0,1.37966 c -0.015,0.0374 -0.0336,0.0748 -0.0561,0.11217 -0.0224,0.0299 -0.0561,0.0636 -0.10095,0.10095 -0.0449,0.0374 -0.0897,0.0711 -0.1346,0.10095 -0.0374,0.0224 -0.0935,0.0561 -0.16826,0.10096 -0.0748,0.0374 -0.13834,0.071 -0.19068,0.10095 -0.0449,0.0224 -0.11965,0.0598 -0.22434,0.11216 -0.0972,0.0524 -0.17199,0.0935 -0.22433,0.12339 -0.77771,0.41129 -1.38341,0.88613 -1.81713,1.42454 -0.6431,0.80013 -0.96464,1.83582 -0.96464,3.10705 m 2.27701,-0.34772 c 0,-0.62814 0.13086,-1.19272 0.39259,-1.69374 0.2692,-0.50849 0.673,-0.87864 1.21141,-1.11046 l 0,3.21922 c 0,0.21686 -0.0935,0.40007 -0.28042,0.54963 -0.18695,0.14208 -0.41502,0.21312 -0.68422,0.21312 -0.24678,0 -0.42251,-0.16078 -0.52719,-0.48233 -0.0748,-0.21685 -0.11217,-0.44867 -0.11217,-0.69544"
           inkscape:connector-curvature="0"
           style="font-size:22.97203255px;font-style:normal;font-variant:normal;font-weight:normal;font-stretch:normal;line-height:125%;letter-spacing:0px;word-spacing:0px;fill:#000000;fill-opacity:1;stroke:none;font-family:League Gothic;-inkscape-font-specification:League Gothic" />
        <path
           id="path3191"
           d="m 132.19836,757.28595 1.17776,0 0,6.43845 c 0,1.1516 0.11591,2.03772 0.34772,2.65839 0.38885,1.03942 1.15907,1.55913 2.31067,1.55913 0.37389,0 0.673,-0.0224 0.89734,-0.0673 0.0374,-0.007 0.0935,-0.0224 0.16825,-0.0449 0.0823,-0.0224 0.14208,-0.0374 0.17947,-0.0449 l 0,-2.27702 c -0.0299,0.007 -0.0748,0.015 -0.1346,0.0224 -0.0598,0.007 -0.10469,0.015 -0.1346,0.0224 -0.20939,0.0299 -0.40381,0.0449 -0.58327,0.0449 -0.32156,0 -0.53468,-0.25051 -0.63936,-0.75153 -0.0598,-0.27668 -0.0897,-0.71413 -0.0897,-1.31236 l 0,-6.24777 1.58157,0 0,-2.08633 -1.58157,0 0,-3.10705 -2.32188,0 0,3.10705 -1.17776,0 0,2.08633"
           inkscape:connector-curvature="0"
           style="font-size:22.97203255px;font-style:normal;font-variant:normal;font-weight:normal;font-stretch:normal;line-height:125%;letter-spacing:0px;word-spacing:0px;fill:#000000;fill-opacity:1;stroke:none;font-family:League Gothic;-inkscape-font-specification:League Gothic" />
        <path
           id="path3193"
           d="m 138.13205,764.84608 c 0,1.1516 0.23929,1.99286 0.71788,2.52379 0.30659,0.38137 0.68796,0.57205 1.14411,0.57205 0.44867,0 0.85622,-0.14582 1.22263,-0.43745 0.26173,-0.20938 0.47485,-0.45989 0.63936,-0.75153 l 0.15704,0 c -1e-5,0.49354 0.071,0.83004 0.21312,1.00951 l 2.26579,0 c -0.10469,-0.64309 -0.15704,-1.37219 -0.15703,-2.18727 l 0,-7.71717 c -1e-5,-0.81508 -0.28417,-1.49557 -0.85248,-2.04146 -0.56085,-0.5384 -1.2189,-0.8076 -1.97416,-0.80761 -0.89735,10e-6 -1.63766,0.32904 -2.22093,0.98708 -0.59823,0.67302 -0.89734,1.46193 -0.89734,2.36674 l 0,0.52719 2.32188,0 0,-0.59449 c 0,-0.15702 0.0149,-0.35519 0.0449,-0.59449 0.0822,-0.44118 0.28789,-0.66178 0.61692,-0.66179 0.27668,10e-6 0.46736,0.12714 0.57206,0.38137 0.0449,0.14957 0.0673,0.40382 0.0673,0.76275 l 0,1.37966 c -0.015,0.0374 -0.0337,0.0748 -0.0561,0.11217 -0.0224,0.0299 -0.0561,0.0636 -0.10095,0.10095 -0.0449,0.0374 -0.0897,0.0711 -0.1346,0.10095 -0.0374,0.0224 -0.0935,0.0561 -0.16825,0.10096 -0.0748,0.0374 -0.13835,0.071 -0.19069,0.10095 -0.0449,0.0224 -0.11965,0.0598 -0.22433,0.11216 -0.0972,0.0524 -0.172,0.0935 -0.22434,0.12339 -0.7777,0.41129 -1.38341,0.88613 -1.81712,1.42454 -0.6431,0.80013 -0.96465,1.83582 -0.96465,3.10705 m 2.27701,-0.34772 c 0,-0.62814 0.13086,-1.19272 0.39259,-1.69374 0.2692,-0.50849 0.67301,-0.87864 1.21142,-1.11046 l 0,3.21922 c -1e-5,0.21686 -0.0935,0.40007 -0.28042,0.54963 -0.18695,0.14208 -0.41503,0.21312 -0.68423,0.21312 -0.24677,0 -0.4225,-0.16078 -0.52719,-0.48233 -0.0748,-0.21685 -0.11217,-0.44867 -0.11217,-0.69544"
           inkscape:connector-curvature="0"
           style="font-size:22.97203255px;font-style:normal;font-variant:normal;font-weight:normal;font-stretch:normal;line-height:125%;letter-spacing:0px;word-spacing:0px;fill:#000000;fill-opacity:1;stroke:none;font-family:League Gothic;-inkscape-font-specification:League Gothic" />
        <path
           id="path3195"
           d="m 145.58001,767.76245 2.41161,0 0,-2.54621 -2.41161,0 0,2.54621"
           inkscape:connector-curvature="0"
           style="font-size:22.97203255px;font-style:normal;font-variant:normal;font-weight:normal;font-stretch:normal;line-height:125%;letter-spacing:0px;word-spacing:0px;fill:#000000;fill-opacity:1;stroke:none;font-family:League Gothic;-inkscape-font-specification:League Gothic" />
        <path
           id="path3197"
           d="m 149.31521,764.22916 c 0,1.33854 0.28042,2.31066 0.84127,2.91637 0.48606,0.53093 1.19271,0.79639 2.11997,0.79639 1.01699,0 1.7573,-0.25051 2.22093,-0.75152 0.50849,-0.55337 0.76274,-1.50305 0.76275,-2.84907 l 0,-1.22264 -2.32189,0 0,1.74983 c 0,0.38885 -0.0449,0.65431 -0.1346,0.79639 -0.0897,0.14208 -0.26547,0.21312 -0.52719,0.21312 -0.19443,0 -0.34398,-0.0561 -0.44867,-0.16825 -0.0972,-0.11965 -0.15704,-0.23929 -0.17947,-0.35894 -0.015,-0.12712 -0.0224,-0.2879 -0.0224,-0.48232 l 0,-6.77496 c -1e-5,-0.19441 0.007,-0.35145 0.0224,-0.47111 0.0224,-0.12711 0.0822,-0.24675 0.17947,-0.35893 0.10469,-0.11964 0.25424,-0.17946 0.44867,-0.17947 0.26172,10e-6 0.43745,0.0711 0.52719,0.21312 0.0897,0.14209 0.1346,0.40755 0.1346,0.79639 l 0,1.51427 2.32189,0 0,-0.98708 c -1e-5,-1.34601 -0.25426,-2.2957 -0.76275,-2.84907 -0.46363,-0.50848 -1.20394,-0.76273 -2.22093,-0.76274 -0.91978,10e-6 -1.62644,0.26921 -2.11997,0.80761 -0.56085,0.60572 -0.84127,1.57784 -0.84127,2.91637 l 0,5.49624"
           inkscape:connector-curvature="0"
           style="font-size:22.97203255px;font-style:normal;font-variant:normal;font-weight:normal;font-stretch:normal;line-height:125%;letter-spacing:0px;word-spacing:0px;fill:#000000;fill-opacity:1;stroke:none;font-family:League Gothic;-inkscape-font-specification:League Gothic" />
        <path
           id="path3199"
           d="m 156.5052,764.63296 c 0.0224,0.56832 0.14581,1.12169 0.37015,1.66009 0.49354,1.09925 1.36097,1.64887 2.6023,1.64887 0.75526,0 1.3348,-0.16825 1.73861,-0.50475 0.4038,-0.32903 0.70291,-0.7104 0.89734,-1.14412 0.19442,-0.44119 0.31033,-0.96838 0.34772,-1.58157 l 0,-6.46088 c -0.0224,-0.53092 -0.14582,-1.06559 -0.37015,-1.60401 -0.50102,-1.09176 -1.3722,-1.63764 -2.61352,-1.63765 -0.77022,10e-6 -1.34602,0.16826 -1.72739,0.50475 -0.76274,0.64311 -1.17776,1.57785 -1.24506,2.80421 l 0,6.31506 m 2.18728,0 0,-6.31506 c -0.007,-0.0598 -0.0112,-0.11964 -0.0112,-0.17947 0,-0.17198 0.0262,-0.32528 0.0785,-0.45989 0.11216,-0.42623 0.35145,-0.63935 0.71787,-0.63936 0.21686,10e-6 0.38511,0.0598 0.50476,0.17947 0.19442,0.24678 0.29163,0.57207 0.29164,0.97586 -10e-6,0.0449 -10e-6,0.086 0,0.12339 l 0,6.31506 c 0.007,0.0598 0.0112,0.11965 0.0112,0.17947 0,0.17947 -0.0262,0.33651 -0.0785,0.47111 -0.1047,0.41128 -0.34773,0.61692 -0.7291,0.61692 -0.2019,0 -0.36268,-0.0598 -0.48232,-0.17947 -0.20191,-0.26172 -0.30286,-0.58327 -0.30285,-0.96464 -1e-5,-0.0449 -1e-5,-0.086 0,-0.12339"
           inkscape:connector-curvature="0"
           style="font-size:22.97203255px;font-style:normal;font-variant:normal;font-weight:normal;font-stretch:normal;line-height:125%;letter-spacing:0px;word-spacing:0px;fill:#000000;fill-opacity:1;stroke:none;font-family:League Gothic;-inkscape-font-specification:League Gothic" />
        <path
           id="path3201"
           d="m 164.07653,767.76245 2.32188,0 0,-9.90444 c 0.0449,-0.0748 0.12712,-0.17198 0.24677,-0.29164 0.2019,-0.20189 0.41128,-0.30284 0.62814,-0.30285 0.41128,10e-6 0.61692,0.18322 0.61693,0.54962 l 0,9.94931 2.17606,0 0,-9.90444 c 0.0299,-0.0598 0.1159,-0.15703 0.25799,-0.29164 0.20189,-0.20189 0.40753,-0.30284 0.61692,-0.30285 0.41875,10e-6 0.62813,0.18322 0.62814,0.54962 l 0,9.94931 2.17606,0 0,-10.29703 c -1e-5,-0.6057 -0.13835,-1.14784 -0.41502,-1.62644 -0.33651,-0.55335 -0.78145,-0.83003 -1.3348,-0.83004 -0.17948,10e-6 -0.38512,0.0636 -0.61692,0.19068 -0.45616,0.26922 -0.83005,0.56086 -1.12168,0.87491 -0.15705,0.15705 -0.28043,0.26922 -0.37016,0.33651 -0.32903,-0.93472 -0.84874,-1.40209 -1.55914,-1.4021 -0.19443,10e-6 -0.39259,0.0561 -0.59449,0.16825 -0.35894,0.19444 -0.71414,0.46738 -1.06559,0.81883 -0.16452,0.16452 -0.25426,0.25052 -0.26921,0.25798 l 0,-1.05438 -2.32188,0 0,12.56283"
           inkscape:connector-curvature="0"
           style="font-size:22.97203255px;font-style:normal;font-variant:normal;font-weight:normal;font-stretch:normal;line-height:125%;letter-spacing:0px;word-spacing:0px;fill:#000000;fill-opacity:1;stroke:none;font-family:League Gothic;-inkscape-font-specification:League Gothic" />
        <path
           id="path3203"
           d="m 175.19241,767.76245 2.41161,0 0,-2.54621 -2.41161,0 0,2.54621"
           inkscape:connector-curvature="0"
           style="font-size:22.97203255px;font-style:normal;font-variant:normal;font-weight:normal;font-stretch:normal;line-height:125%;letter-spacing:0px;word-spacing:0px;fill:#000000;fill-opacity:1;stroke:none;font-family:League Gothic;-inkscape-font-specification:League Gothic" />
        <path
           id="path3205"
           d="m 178.73691,764.84608 c 0,1.1516 0.23929,1.99286 0.71788,2.52379 0.30659,0.38137 0.68796,0.57205 1.14411,0.57205 0.44867,0 0.85621,-0.14582 1.22263,-0.43745 0.26172,-0.20938 0.47484,-0.45989 0.63936,-0.75153 l 0.15704,0 c -1e-5,0.49354 0.071,0.83004 0.21312,1.00951 l 2.26579,0 c -0.10469,-0.64309 -0.15704,-1.37219 -0.15703,-2.18727 l 0,-7.71717 c -1e-5,-0.81508 -0.28417,-1.49557 -0.85248,-2.04146 -0.56085,-0.5384 -1.2189,-0.8076 -1.97416,-0.80761 -0.89735,10e-6 -1.63766,0.32904 -2.22093,0.98708 -0.59823,0.67302 -0.89734,1.46193 -0.89734,2.36674 l 0,0.52719 2.32188,0 0,-0.59449 c -1e-5,-0.15702 0.0149,-0.35519 0.0449,-0.59449 0.0823,-0.44118 0.2879,-0.66178 0.61693,-0.66179 0.27668,10e-6 0.46736,0.12714 0.57206,0.38137 0.0449,0.14957 0.0673,0.40382 0.0673,0.76275 l 0,1.37966 c -0.015,0.0374 -0.0337,0.0748 -0.0561,0.11217 -0.0224,0.0299 -0.0561,0.0636 -0.10095,0.10095 -0.0449,0.0374 -0.0897,0.0711 -0.1346,0.10095 -0.0374,0.0224 -0.0935,0.0561 -0.16825,0.10096 -0.0748,0.0374 -0.13835,0.071 -0.19069,0.10095 -0.0449,0.0224 -0.11965,0.0598 -0.22433,0.11216 -0.0972,0.0524 -0.172,0.0935 -0.22434,0.12339 -0.7777,0.41129 -1.38341,0.88613 -1.81712,1.42454 -0.6431,0.80013 -0.96465,1.83582 -0.96465,3.10705 m 2.27701,-0.34772 c 0,-0.62814 0.13086,-1.19272 0.39259,-1.69374 0.2692,-0.50849 0.67301,-0.87864 1.21142,-1.11046 l 0,3.21922 c -1e-5,0.21686 -0.0935,0.40007 -0.28042,0.54963 -0.18695,0.14208 -0.41503,0.21312 -0.68423,0.21312 -0.24677,0 -0.4225,-0.16078 -0.52719,-0.48233 -0.0748,-0.21685 -0.11217,-0.44867 -0.11217,-0.69544"
           inkscape:connector-curvature="0"
           style="font-size:22.97203255px;font-style:normal;font-variant:normal;font-weight:normal;font-stretch:normal;line-height:125%;letter-spacing:0px;word-spacing:0px;fill:#000000;fill-opacity:1;stroke:none;font-family:League Gothic;-inkscape-font-specification:League Gothic" />
        <path
           id="path3207"
           d="m 186.51016,767.76245 2.32188,0 0,-8.72668 c -1e-5,-0.48605 0.16824,-0.87116 0.50475,-1.15533 0.2692,-0.25424 0.65805,-0.38136 1.16655,-0.38137 0.25424,1e-5 0.4711,0.0299 0.65058,0.0897 l 0,-2.57986 c -0.70293,10e-6 -1.29368,0.22435 -1.77226,0.67301 -0.16452,0.16452 -0.29538,0.33277 -0.39259,0.50475 -0.0897,0.17201 -0.14208,0.31035 -0.15703,0.41502 l 0,-1.4021 -2.32188,0 0,12.56283"
           inkscape:connector-curvature="0"
           style="font-size:22.97203255px;font-style:normal;font-variant:normal;font-weight:normal;font-stretch:normal;line-height:125%;letter-spacing:0px;word-spacing:0px;fill:#000000;fill-opacity:1;stroke:none;font-family:League Gothic;-inkscape-font-specification:League Gothic" />
      </g>
      <g
         id="text3150"
         style="font-size:40px;font-style:normal;font-variant:normal;font-weight:normal;font-stretch:normal;line-height:125%;letter-spacing:0px;word-spacing:0px;fill:#000000;fill-opacity:1;stroke:none;font-family:League Gothic;-inkscape-font-specification:League Gothic"
         transform="translate(0.02030509,-1.0295417)">
        <path
           id="path3210"
           d="m 15.133927,798.46985 c 0.03906,1.23698 0.279946,2.30469 0.722657,3.20312 0.390622,0.8724 0.950517,1.58855 1.679687,2.14844 0.820308,0.66406 1.940098,0.99609 3.359375,0.99609 1.393221,0 2.49999,-0.33203 3.320313,-0.99609 0.768217,-0.58594 1.341133,-1.30208 1.71875,-2.14844 0.442695,-0.89843 0.68358,-1.96614 0.722656,-3.20312 l 0,-23.35938 -4.316406,0 0,23.35938 c -9e-6,0.44271 -0.0586,0.80079 -0.175782,1.07422 -0.1823,0.71615 -0.605476,1.07422 -1.269531,1.07422 -0.351569,0 -0.631517,-0.10417 -0.839844,-0.3125 -0.403652,-0.46875 -0.605474,-1.08073 -0.605468,-1.83594 l 0,-23.35938 -4.316407,0 0,23.35938"
           inkscape:connector-curvature="0" />
        <path
           id="path3212"
           d="m 28.571427,786.26282 2.050782,0 0,11.21093 c -3e-6,2.00522 0.20182,3.54819 0.605468,4.62891 0.67708,1.8099 2.018224,2.71484 4.023438,2.71484 0.651034,0 1.171867,-0.0391 1.5625,-0.11718 0.06509,-0.013 0.162751,-0.0391 0.292969,-0.0781 0.14322,-0.0391 0.247386,-0.0651 0.3125,-0.0781 l 0,-3.96485 c -0.05209,0.013 -0.130218,0.0261 -0.234375,0.0391 -0.104176,0.013 -0.182301,0.026 -0.234375,0.0391 -0.364592,0.0521 -0.703133,0.0781 -1.015625,0.0781 -0.559903,10e-6 -0.930997,-0.43619 -1.113282,-1.30859 -0.104173,-0.48177 -0.156256,-1.24348 -0.15625,-2.28516 l 0,-10.8789 2.753907,0 0,-3.63282 -2.753907,0 0,-5.41015 -4.042968,0 0,5.41015 -2.050782,0 0,3.63282"
           inkscape:connector-curvature="0" />
        <path
           id="path3214"
           d="m 39.176896,799.05579 c 0.03906,0.98958 0.253905,1.95312 0.644531,2.89062 0.859373,1.91406 2.369788,2.87109 4.53125,2.87109 1.315097,0 2.32421,-0.29296 3.027344,-0.8789 0.703115,-0.57292 1.223948,-1.23698 1.5625,-1.99219 0.33853,-0.76822 0.540353,-1.68619 0.605469,-2.75391 l 0,-11.25 c -0.03907,-0.92446 -0.253918,-1.85545 -0.644531,-2.79296 -0.872406,-1.90102 -2.389332,-2.85154 -4.550782,-2.85157 -1.341151,3e-5 -2.343754,0.29299 -3.007812,0.87891 -1.328127,1.11981 -2.050783,2.74741 -2.167969,4.88281 l 0,10.9961 m 3.808594,0 0,-10.9961 c -0.01303,-0.10415 -0.01954,-0.20831 -0.01953,-0.3125 -5e-6,-0.29946 0.04557,-0.56639 0.136718,-0.80078 0.195307,-0.74217 0.611974,-1.11326 1.25,-1.11328 0.377598,2e-5 0.670566,0.10419 0.878907,0.3125 0.338534,0.42971 0.507804,0.99611 0.507812,1.69922 -8e-6,0.0781 -8e-6,0.14975 0,0.21484 l 0,10.9961 c 0.01301,0.10417 0.01952,0.20833 0.01953,0.3125 -7e-6,0.3125 -0.04558,0.58594 -0.136718,0.82031 -0.1823,0.71615 -0.605476,1.07422 -1.269532,1.07422 -0.351568,0 -0.631516,-0.10417 -0.839843,-0.3125 -0.351568,-0.45573 -0.527349,-1.01562 -0.527344,-1.67969 -5e-6,-0.0781 -5e-6,-0.14973 0,-0.21484"
           inkscape:connector-curvature="0" />
        <path
           id="path3216"
           d="m 52.36049,812.02454 4.042969,0 0,-8.96485 c 0.442702,0.39063 0.787754,0.6836 1.035156,0.87891 0.794263,0.58594 1.516919,0.8789 2.167969,0.8789 0.976552,0 1.770822,-0.48828 2.382812,-1.46484 0.481759,-0.79427 0.722644,-1.73177 0.722656,-2.8125 l 0,-13.96484 c -1.2e-5,-1.05467 -0.240897,-1.99868 -0.722656,-2.83203 -0.638031,-0.96352 -1.432301,-1.44529 -2.382812,-1.44532 -0.403655,3e-5 -0.781258,0.0977 -1.132813,0.29297 -0.651049,0.28648 -1.341152,0.77476 -2.070312,1.46485 l 0,-1.42579 -4.042969,0 0,29.39454 m 4.042969,-12.32422 0,-12.26563 c -6e-6,-0.37758 0.117181,-0.69008 0.351562,-0.9375 0.24739,-0.2604 0.527337,-0.3906 0.839844,-0.39062 0.299472,2e-5 0.553378,0.13022 0.761719,0.39062 0.221346,0.24742 0.332023,0.55992 0.332031,0.9375 l 0,12.26563 c -8e-6,0.37761 -0.110685,0.69662 -0.332031,0.95703 -0.208341,0.2474 -0.462247,0.3711 -0.761719,0.37109 -0.299486,10e-6 -0.572923,-0.13671 -0.820313,-0.41015 -0.247401,-0.28646 -0.371099,-0.59245 -0.371093,-0.91797"
           inkscape:connector-curvature="0" />
        <path
           id="path3218"
           d="m 65.79799,804.505 4.042969,0 0,-21.875 -4.042969,0 0,21.875 m 0,-25.48828 3.125,0 3.144531,-3.59375 -4.199219,0 -2.070312,3.59375"
           inkscape:connector-curvature="0" />
        <path
           id="path3220"
           d="m 72.419084,799.42688 c -10e-7,2.00521 0.416665,3.47005 1.25,4.39453 0.533851,0.66406 1.197913,0.99609 1.992187,0.99609 0.781245,0 1.49088,-0.2539 2.128906,-0.76171 0.455723,-0.36459 0.826816,-0.80078 1.113282,-1.3086 l 0.273437,0 c -8e-6,0.85938 0.12369,1.44532 0.371094,1.75781 l 3.945312,0 c -0.182303,-1.11979 -0.273449,-2.38932 -0.273437,-3.80859 l 0,-13.4375 c -1.2e-5,-1.41925 -0.494803,-2.60415 -1.484375,-3.55469 -0.976572,-0.93747 -2.122404,-1.40622 -3.4375,-1.40625 -1.562505,3e-5 -2.851567,0.57294 -3.867188,1.71875 -1.041668,1.1719 -1.562501,2.54559 -1.5625,4.1211 l 0,0.91797 4.042969,0 0,-1.03516 c -5e-6,-0.27342 0.02604,-0.61847 0.07813,-1.03516 0.143224,-0.76821 0.501296,-1.15232 1.074219,-1.15234 0.481764,2e-5 0.813795,0.22137 0.996094,0.66406 0.07812,0.26044 0.117179,0.70314 0.117187,1.32813 l 0,2.40234 c -0.02605,0.0651 -0.0586,0.13022 -0.09766,0.19531 -0.03907,0.0521 -0.09766,0.11069 -0.175781,0.17578 -0.07813,0.0651 -0.156258,0.12372 -0.234375,0.17579 -0.06511,0.0391 -0.162768,0.0977 -0.292969,0.17578 -0.130215,0.0651 -0.240892,0.12371 -0.332031,0.17578 -0.07813,0.0391 -0.20834,0.10418 -0.390625,0.19531 -0.169277,0.0912 -0.299485,0.16277 -0.390625,0.21484 -1.354172,0.71616 -2.408858,1.54299 -3.164063,2.48047 -1.119793,1.39324 -1.679688,3.19663 -1.679687,5.41016 m 3.964843,-0.60547 c -5e-6,-1.09374 0.22786,-2.07681 0.683594,-2.94922 0.468744,-0.8854 1.171868,-1.52994 2.109375,-1.93359 l 0,5.60547 c -8e-6,0.37761 -0.162768,0.69662 -0.488281,0.95703 -0.325528,0.2474 -0.722663,0.3711 -1.191406,0.37109 -0.429694,10e-6 -0.735683,-0.27994 -0.917969,-0.83984 -0.130213,-0.3776 -0.195318,-0.78125 -0.195313,-1.21094"
           inkscape:connector-curvature="0" />
        <path
           id="path3222"
           d="m 92.126115,804.505 4.316406,0 0,-11.75781 c 2.109367,10e-6 3.841139,-0.63801 5.195309,-1.91406 1.60155,-1.5104 2.40233,-3.8216 2.40235,-6.93359 -2e-5,-3.12498 -0.8008,-5.44269 -2.40235,-6.95313 -1.28907,-1.22393 -3.020838,-1.83591 -5.195309,-1.83594 l -4.316406,0 0,29.39453 m 4.316406,-16.15234 0,-8.84766 c 1.289055,3e-5 2.167961,0.34508 2.636719,1.03516 0.403637,0.59898 0.605459,1.77086 0.605469,3.51563 -1e-5,1.71876 -0.201832,2.84507 -0.605469,3.3789 -0.442717,0.612 -1.321622,0.91799 -2.636719,0.91797"
           inkscape:connector-curvature="0" />
        <path
           id="path3224"
           d="m 106.18861,804.505 4.04297,0 0,-21.875 -4.04297,0 0,21.875 m 0,-25.35156 4.04297,0 0,-4.04297 -4.04297,0 0,4.04297"
           inkscape:connector-curvature="0" />
        <path
           id="path3226"
           d="m 113.45424,804.505 4.04297,0 0,-15.19531 c -10e-6,-0.84634 0.29296,-1.51691 0.8789,-2.01172 0.46875,-0.44269 1.14583,-0.66404 2.03125,-0.66406 0.4427,2e-5 0.82031,0.0521 1.13282,0.15625 l 0,-4.49219 c -1.22397,3e-5 -2.25261,0.39065 -3.08594,1.17188 -0.28646,0.28648 -0.51433,0.57945 -0.68359,0.8789 -0.15626,0.2995 -0.24741,0.54039 -0.27344,0.72266 l 0,-2.44141 -4.04297,0 0,21.875"
           inkscape:connector-curvature="0" />
        <path
           id="path3228"
           d="m 122.65346,799.42688 c 0,2.00521 0.41666,3.47005 1.25,4.39453 0.53385,0.66406 1.19791,0.99609 1.99219,0.99609 0.78124,0 1.49088,-0.2539 2.1289,-0.76171 0.45572,-0.36459 0.82682,-0.80078 1.11328,-1.3086 l 0.27344,0 c -1e-5,0.85938 0.12369,1.44532 0.37109,1.75781 l 3.94532,0 c -0.18231,-1.11979 -0.27345,-2.38932 -0.27344,-3.80859 l 0,-13.4375 c -1e-5,-1.41925 -0.4948,-2.60415 -1.48438,-3.55469 -0.97657,-0.93747 -2.1224,-1.40622 -3.4375,-1.40625 -1.5625,3e-5 -2.85156,0.57294 -3.86718,1.71875 -1.04167,1.1719 -1.5625,2.54559 -1.5625,4.1211 l 0,0.91797 4.04297,0 0,-1.03516 c -1e-5,-0.27342 0.026,-0.61847 0.0781,-1.03516 0.14322,-0.76821 0.5013,-1.15232 1.07422,-1.15234 0.48176,2e-5 0.81379,0.22137 0.99609,0.66406 0.0781,0.26044 0.11718,0.70314 0.11719,1.32813 l 0,2.40234 c -0.026,0.0651 -0.0586,0.13022 -0.0977,0.19531 -0.0391,0.0521 -0.0977,0.11069 -0.17578,0.17578 -0.0781,0.0651 -0.15625,0.12372 -0.23437,0.17579 -0.0651,0.0391 -0.16277,0.0977 -0.29297,0.17578 -0.13022,0.0651 -0.24089,0.12371 -0.33203,0.17578 -0.0781,0.0391 -0.20834,0.10418 -0.39063,0.19531 -0.16927,0.0912 -0.29948,0.16277 -0.39062,0.21484 -1.35417,0.71616 -2.40886,1.54299 -3.16406,2.48047 -1.1198,1.39324 -1.67969,3.19663 -1.67969,5.41016 m 3.96484,-0.60547 c 0,-1.09374 0.22786,-2.07681 0.6836,-2.94922 0.46874,-0.8854 1.17186,-1.52994 2.10937,-1.93359 l 0,5.60547 c -1e-5,0.37761 -0.16277,0.69662 -0.48828,0.95703 -0.32553,0.2474 -0.72266,0.3711 -1.19141,0.37109 -0.42969,10e-6 -0.73568,-0.27994 -0.91797,-0.83984 -0.13021,-0.3776 -0.19531,-0.78125 -0.19531,-1.21094"
           inkscape:connector-curvature="0" />
        <path
           id="path3230"
           d="m 134.97768,786.26282 2.05078,0 0,11.21093 c 0,2.00522 0.20182,3.54819 0.60547,4.62891 0.67708,1.8099 2.01822,2.71484 4.02343,2.71484 0.65104,0 1.17187,-0.0391 1.5625,-0.11718 0.0651,-0.013 0.16276,-0.0391 0.29297,-0.0781 0.14322,-0.0391 0.24739,-0.0651 0.3125,-0.0781 l 0,-3.96485 c -0.0521,0.013 -0.13021,0.0261 -0.23437,0.0391 -0.10418,0.013 -0.1823,0.026 -0.23438,0.0391 -0.36459,0.0521 -0.70313,0.0781 -1.01562,0.0781 -0.5599,10e-6 -0.931,-0.43619 -1.11328,-1.30859 -0.10418,-0.48177 -0.15626,-1.24348 -0.15625,-2.28516 l 0,-10.8789 2.7539,0 0,-3.63282 -2.7539,0 0,-5.41015 -4.04297,0 0,5.41015 -2.05078,0 0,3.63282"
           inkscape:connector-curvature="0" />
        <path
           id="path3232"
           d="m 145.30971,799.42688 c 0,2.00521 0.41666,3.47005 1.25,4.39453 0.53385,0.66406 1.19791,0.99609 1.99219,0.99609 0.78124,0 1.49088,-0.2539 2.1289,-0.76171 0.45572,-0.36459 0.82682,-0.80078 1.11328,-1.3086 l 0.27344,0 c -1e-5,0.85938 0.12369,1.44532 0.37109,1.75781 l 3.94532,0 c -0.18231,-1.11979 -0.27345,-2.38932 -0.27344,-3.80859 l 0,-13.4375 c -1e-5,-1.41925 -0.4948,-2.60415 -1.48438,-3.55469 -0.97657,-0.93747 -2.1224,-1.40622 -3.4375,-1.40625 -1.5625,3e-5 -2.85156,0.57294 -3.86718,1.71875 -1.04167,1.1719 -1.5625,2.54559 -1.5625,4.1211 l 0,0.91797 4.04297,0 0,-1.03516 c -1e-5,-0.27342 0.026,-0.61847 0.0781,-1.03516 0.14322,-0.76821 0.5013,-1.15232 1.07422,-1.15234 0.48176,2e-5 0.81379,0.22137 0.99609,0.66406 0.0781,0.26044 0.11718,0.70314 0.11719,1.32813 l 0,2.40234 c -0.026,0.0651 -0.0586,0.13022 -0.0977,0.19531 -0.0391,0.0521 -0.0977,0.11069 -0.17578,0.17578 -0.0781,0.0651 -0.15625,0.12372 -0.23437,0.17579 -0.0651,0.0391 -0.16277,0.0977 -0.29297,0.17578 -0.13022,0.0651 -0.24089,0.12371 -0.33203,0.17578 -0.0781,0.0391 -0.20834,0.10418 -0.39063,0.19531 -0.16927,0.0912 -0.29948,0.16277 -0.39062,0.21484 -1.35417,0.71616 -2.40886,1.54299 -3.16406,2.48047 -1.1198,1.39324 -1.67969,3.19663 -1.67969,5.41016 m 3.96484,-0.60547 c 0,-1.09374 0.22786,-2.07681 0.6836,-2.94922 0.46874,-0.8854 1.17186,-1.52994 2.10937,-1.93359 l 0,5.60547 c -1e-5,0.37761 -0.16277,0.69662 -0.48828,0.95703 -0.32553,0.2474 -0.72266,0.3711 -1.19141,0.37109 -0.42969,10e-6 -0.73568,-0.27994 -0.91797,-0.83984 -0.13021,-0.3776 -0.19531,-0.78125 -0.19531,-1.21094"
           inkscape:connector-curvature="0" />
      </g>
    </g>
    <g
       transform="matrix(0.29190038,0,0,0.29190038,-50.422719,524.03071)"
       id="layer1-7"
       inkscape:label="Capa 1">
      <path
         sodipodi:nodetypes="cccccscc"
         id="path3007-0"
         d="m 335.47222,397.42201 c -33.91008,2.42215 -69.27344,20.70937 -90.70947,46.98968 -29.06577,35.60557 -38.51215,81.38419 -25.55366,124.49842 13.0796,43.11424 48.8063,77.75096 92.8894,89.98281 19.6194,5.44983 46.62635,5.69205 66.9724,0.48443 59.10041,-15.01732 101.12469,-68.78901 101.12469,-129.46382 0,-35.36337 -15.01733,-70.36342 -40.8132,-95.06933 C 410.4377,406.86839 376.1643,394.63654 335.47222,397.42201 z"
         inkscape:connector-curvature="0"
         style="fill:#ffffff;stroke:none" />
      <path
         id="path3007"
         d="m 338.24917,395.43446 c -35.00001,2.5 -71.50001,21.375 -93.62501,48.5 -29.99999,36.75 -39.74999,84 -26.37499,128.5 13.49999,44.5 50.37499,80.25 95.875,92.875 20.25,5.625 48.125,5.875 69.125,0.5 61,-15.5 104.375,-71 104.375,-133.625 0,-36.5 -15.5,-72.625 -42.125,-98.125 -29.875,-28.875 -65.25,-41.5 -107.25,-38.625 z m 42.5,19.875 c 43.75,12 78,47.875 87.625,91.875 3.25,15.375 2.875,39.25 -1.125,54.375 -13.25,50.875 -54.625,86.375 -105.875,91.125 -73.37501,6.75 -135.50001,-52.25 -132.12501,-125.5 0.875,-18.625 4,-31.125 12,-47.5 17.25,-35.125 47.125,-58.25 86.00001,-66.25 12.625,-2.625 40.625,-1.75 53.5,1.875 z"
         inkscape:connector-curvature="0"
         style="fill:#000000;stroke:#000000;stroke-width:0.08809523;stroke-opacity:1" />
      <path
         style="fill:#000000;stroke:none"
         id="path3009"
         d="m 297.62416,448.18446 0,7.875 -9.625,3.375 -9.75,3.25 9.375,-0.25 9.375,-0.25 0.375,51.25 c 0.25,50.125 0.25,51.375 -2.5,59.375 -5.5,15.875 -3.25,30.375 6.375,41.25 l 3.875,4.375 -3,-6.875 c -4.5,-10.125 -5,-15 -2.625,-23.125 4.625,-16 19.37501,-25.5 48.87501,-31.875 19.875,-4.125 28.875,-7 39,-12.5 20.875,-11.125 31.75,-29.875 29,-50.375 -4.375,-31.625 -47.125,-49.125 -100.875,-41.375 l -5.37501,0.875 0,-6.5 0,-6.375 -6.25,0 -6.25,0 0,7.875 z m 28.75001,17.375 c 7.5,3.125 14.25,9.875 17.75,17.75 2.25,5.125 2.75,8.625 2.75,18.25 0,10.625 -0.375,12.75 -3.625,19.375 -4.5,9.375 -12.375,17.875 -23.25,25 -4.5,3.125 -8.62501,5.625 -9.12501,5.625 -0.375,0 -0.75,-20.25 -0.75,-45 l 0,-45 5.37501,0.75 c 2.875,0.5 7.75,1.875 10.875,3.25 z"
         inkscape:connector-curvature="0" />
      <path
         style="fill:#77a1c8;fill-opacity:1;stroke:none"
         id="path3011"
         d="m 424.37417,510.80946 c -0.25,17.125 -10.375,31.875 -29,42.375 -10.25,5.625 -22.875,9.75 -42.375,13.75 -27,5.625 -36.375,10.75 -42.75001,23.5 -3,6 -3.875,9.375 -3.875,15.125 0,7.5 2.75,15.125 6.75001,18.375 1.875,1.5 1.875,1.25 0.125,-2.75 -4.50001,-10.75 -0.5,-25.25 9.25,-33.625 6.125,-5.25 16,-8.625 35.75,-12.25 36,-6.75 56.75,-18.75 65.875,-38.375 3.125,-6.625 3.75,-9.625 3.75,-17 0,-5 -0.75,-11.125 -1.625,-13.625 l -1.75,-4.625 -0.125,9.125 z"
         inkscape:connector-curvature="0" />
    </g>
    <g
       style="font-size:28.29599571px;font-style:normal;font-variant:normal;font-weight:normal;font-stretch:normal;line-height:125%;letter-spacing:0px;word-spacing:0px;fill:#000000;fill-opacity:1;stroke:none;font-family:League Gothic;-inkscape-font-specification:League Gothic"
       id="text3426">
      <path
         d="m 411.98862,659.39062 0,-20.79755 2.40516,0 c 2.8296,0 4.35758,0.56592 5.17817,2.15049 0.79228,1.58458 0.90547,4.18782 0.90547,8.26243 0,4.07462 -0.11319,6.64957 -0.90547,8.23414 -0.82059,1.58457 -2.34857,2.15049 -5.17817,2.15049 l -2.40516,0 m 3.05597,-3.05596 c 1.04695,0 1.64117,-0.11319 1.95242,-1.13184 0.14148,-0.48103 0.25467,-1.21673 0.28296,-2.20709 0.0283,-0.99036 0.0283,-2.32027 0.0283,-4.01803 0,-1.69776 0,-3.02767 -0.0283,-4.01803 -0.0283,-0.96207 -0.14148,-1.69776 -0.28296,-2.20709 -0.31125,-0.99036 -0.90547,-1.10354 -1.95242,-1.10354 l 0,14.68562"
         style=""
         id="path3684" />
      <path
         d="m 426.81838,647.59119 c 0,-0.25466 0,-0.6508 -0.0849,-0.93376 -0.11319,-0.28296 -0.33955,-0.48103 -0.7074,-0.48103 -0.48103,0 -0.67911,0.36784 -0.76399,0.82058 -0.0283,0.22637 -0.0566,0.48103 -0.0566,0.73569 0,0.25467 0,0.50933 0,0.7357 l -2.85789,0 0,-0.65081 c 0,-1.13184 0.42444,-2.15049 1.10354,-2.91448 0.67911,-0.764 1.64117,-1.21673 2.74471,-1.21673 0.93377,0 1.78265,0.36785 2.43346,0.99036 0.65081,0.62251 1.04695,1.49969 1.04695,2.51834 l 0,9.50746 c 0,1.3865 0.0849,2.00901 0.19807,2.68811 l -2.8013,0 c -0.25466,-0.31125 -0.25466,-1.04695 -0.25466,-1.24502 l -0.19808,0 c -0.14148,0.25466 -0.39614,0.62251 -0.79228,0.93377 -0.39615,0.31125 -0.93377,0.53762 -1.49969,0.53762 -0.36785,0 -0.96207,-0.14148 -1.4148,-0.7074 -0.48103,-0.53762 -0.87718,-1.49969 -0.87718,-3.11256 0,-1.72605 0.50933,-2.97108 1.18843,-3.81996 0.67911,-0.84887 1.52799,-1.3865 2.23539,-1.75435 0.7074,-0.36785 1.24502,-0.62251 1.35821,-0.93377 l 0,-1.69776 m 0,4.32929 c -1.38651,0.59422 -1.98072,1.98072 -1.98072,3.45211 0,0.19808 0.0283,0.53763 0.14148,0.84888 0.11318,0.33956 0.31125,0.59422 0.6508,0.59422 0.65081,0 1.18844,-0.39615 1.18844,-0.93377 l 0,-3.96144"
         style=""
         id="path3686" />
      <path
         d="m 433.11025,659.39062 -2.51834,-15.4779 2.77301,0 0.93377,8.96983 0.11318,0.99036 0.22637,0 0.11318,-0.99036 0.93377,-8.96983 2.77301,0 -2.51835,15.4779 -2.8296,0"
         style=""
         id="path3688" />
      <path
         d="m 439.84249,638.59307 2.8579,0 0,2.85789 -2.8579,0 0,-2.85789 m 0,20.79755 0,-15.4779 2.8579,0 0,15.4779 -2.8579,0"
         style=""
         id="path3690" />
      <path
         d="m 452.19767,659.39062 -2.85789,0 0,-1.01865 c -0.48104,0.45273 -0.90548,0.79229 -1.4431,1.04695 -0.28296,0.14148 -0.56592,0.19807 -0.82058,0.19807 -0.79229,0 -1.32992,-0.45273 -1.66947,-1.04695 -0.36784,-0.56592 -0.53762,-1.32991 -0.53762,-1.98072 l 0,-9.8753 c 0,-0.65081 0.16978,-1.4148 0.53762,-2.00902 0.33955,-0.56592 0.87718,-1.01865 1.66947,-1.01865 0.53762,0 1.10354,0.31125 1.52798,0.62251 0.25466,0.19807 0.48103,0.39614 0.7357,0.62251 l 0,-6.3383 2.85789,0 0,20.79755 m -2.85789,-12.08239 c 0,-0.45273 -0.42444,-0.93376 -0.84888,-0.93376 -0.42444,0 -0.764,0.39614 -0.764,0.93376 l 0,8.68688 c 0,0.53762 0.33956,0.93376 0.764,0.93376 0.42444,0 0.84888,-0.39614 0.84888,-0.93376 l 0,-8.68688"
         style=""
         id="path3692" />
      <path
         d="m 463.74907,646.06321 0,-3.19745 c 0,-0.56592 -0.11318,-0.96206 -0.39614,-1.30161 -0.14148,-0.14148 -0.36785,-0.22637 -0.62252,-0.22637 -0.53762,0 -0.79228,0.39614 -0.90547,0.76399 -0.0849,0.22637 -0.11318,0.48103 -0.11318,0.76399 l 0,12.50683 c 0,0.59422 0.14148,0.99036 0.42444,1.30162 0.14148,0.14148 0.33955,0.22637 0.59421,0.22637 0.53763,0 0.79229,-0.33955 0.90548,-0.76399 0.0849,-0.19808 0.11318,-0.45274 0.11318,-0.764 l 0,-3.76336 -1.21673,0 0,-2.57494 4.2727,0 0,10.35633 -1.81095,0 -0.36784,-0.99035 c -0.56592,0.70739 -1.38651,1.21672 -2.37687,1.21672 -0.99036,0 -1.66946,-0.25466 -2.17879,-0.7074 -0.50933,-0.42444 -0.84888,-0.96206 -1.07525,-1.52798 -0.25466,-0.65081 -0.36785,-1.4148 -0.33955,-2.26368 l 0,-12.25217 c 0.0283,-0.82058 0.19807,-1.58457 0.50933,-2.23538 0.25466,-0.56592 0.62251,-1.13184 1.18843,-1.55628 0.56592,-0.42444 1.35821,-0.7074 2.37686,-0.7074 1.01866,0 1.78265,0.28296 2.34857,0.7074 0.56592,0.42444 0.96207,0.99036 1.21673,1.55628 0.31126,0.65081 0.48103,1.4148 0.50933,2.23538 l 0,3.19745 -3.05597,0"
         style=""
         id="path3694" />
      <path
         d="m 474.73853,646.8555 c -0.25467,-0.0849 -0.53763,-0.11319 -0.79229,-0.11319 -0.45274,0 -0.99036,0.0566 -1.4431,0.48104 -0.53762,0.45273 -0.62251,0.93377 -0.62251,1.4148 l 0,10.75247 -2.85789,0 0,-15.4779 2.85789,0 0,1.72605 c 0.0283,-0.19807 0.22637,-0.6791 0.67911,-1.13184 0.45273,-0.42444 1.13184,-0.82058 2.17879,-0.82058 l 0,3.16915"
         style=""
         id="path3696" />
      <path
         d="m 480.09443,647.59119 c 0,-0.25466 0,-0.6508 -0.0849,-0.93376 -0.11318,-0.28296 -0.33955,-0.48103 -0.7074,-0.48103 -0.48103,0 -0.6791,0.36784 -0.76399,0.82058 -0.0283,0.22637 -0.0566,0.48103 -0.0566,0.73569 0,0.25467 0,0.50933 0,0.7357 l -2.8579,0 0,-0.65081 c 0,-1.13184 0.42444,-2.15049 1.10354,-2.91448 0.67911,-0.764 1.64117,-1.21673 2.74472,-1.21673 0.93376,0 1.78264,0.36785 2.43345,0.99036 0.65081,0.62251 1.04695,1.49969 1.04695,2.51834 l 0,9.50746 c 0,1.3865 0.0849,2.00901 0.19808,2.68811 l -2.80131,0 c -0.25466,-0.31125 -0.25466,-1.04695 -0.25466,-1.24502 l -0.19807,0 c -0.14148,0.25466 -0.39615,0.62251 -0.79229,0.93377 -0.39615,0.31125 -0.93377,0.53762 -1.49969,0.53762 -0.36785,0 -0.96206,-0.14148 -1.4148,-0.7074 -0.48103,-0.53762 -0.87718,-1.49969 -0.87718,-3.11256 0,-1.72605 0.50933,-2.97108 1.18844,-3.81996 0.6791,-0.84887 1.52798,-1.3865 2.23538,-1.75435 0.7074,-0.36785 1.24502,-0.62251 1.35821,-0.93377 l 0,-1.69776 m 0,4.32929 c -1.3865,0.59422 -1.98072,1.98072 -1.98072,3.45211 0,0.19808 0.0283,0.53763 0.14148,0.84888 0.11318,0.33956 0.31125,0.59422 0.65081,0.59422 0.6508,0 1.18843,-0.39615 1.18843,-0.93377 l 0,-3.96144"
         style=""
         id="path3698" />
      <path
         d="m 492.04286,653.84461 0,1.78265 c -0.0849,1.49968 -0.53763,2.54664 -1.55628,3.36722 -0.50933,0.42444 -1.21673,0.62251 -2.1505,0.62251 -1.83924,0 -2.77301,-1.01865 -3.22574,-2.03731 -0.25467,-0.59421 -0.42444,-1.27332 -0.45274,-2.03731 l 0,-7.7814 c 0.0849,-1.49969 0.56592,-2.60323 1.58458,-3.45211 0.48103,-0.42444 1.18843,-0.62251 2.1222,-0.62251 1.83923,0 2.773,1.01865 3.22574,2.00901 0.25466,0.59422 0.42444,1.24503 0.45274,1.98072 l 0,4.49907 -4.72544,0 0,3.36722 c 0.0283,0.59421 0.19808,1.01866 0.45274,1.32991 0.14148,0.14148 0.33955,0.22637 0.59422,0.22637 0.53762,0 0.79228,-0.33955 0.90547,-0.76399 0.0849,-0.22637 0.11318,-0.48103 0.11318,-0.79229 l 0,-1.69776 2.65983,0 m -4.72544,-3.90485 2.06561,0 0,-2.17879 c 0,-0.59421 -0.11318,-1.01866 -0.39614,-1.35821 -0.14148,-0.14148 -0.36785,-0.22636 -0.62251,-0.22636 -0.53763,0 -0.764,0.36784 -0.90548,0.79228 -0.0849,0.22637 -0.11318,0.48104 -0.14148,0.79229 l 0,2.17879"
         style=""
         id="path3700" />
      <path
         d="m 494.0028,638.59307 2.85789,0 0,6.3383 c 0.48103,-0.45273 0.90547,-0.79229 1.47139,-1.04695 0.25467,-0.14148 0.53763,-0.19807 0.79229,-0.19807 0.79229,0 1.32991,0.45273 1.69776,1.01865 0.33955,0.59422 0.50933,1.35821 0.50933,2.00902 l 0,9.8753 c 0,0.65081 -0.16978,1.4148 -0.50933,1.98072 -0.36785,0.59422 -0.90547,1.04695 -1.69776,1.04695 -0.53762,0 -1.10354,-0.31125 -1.52798,-0.62251 -0.25467,-0.19807 -0.48103,-0.39614 -0.7357,-0.62251 l 0,1.01865 -2.85789,0 0,-20.79755 m 2.85789,17.40204 c 0,0.53762 0.42444,0.93376 0.84888,0.93376 0.42444,0 0.76399,-0.39614 0.76399,-0.93376 l 0,-8.68688 c 0,-0.53762 -0.33955,-0.93376 -0.76399,-0.93376 -0.42444,0 -0.84888,0.48103 -0.84888,0.93376 l 0,8.68688"
         style=""
         id="path3702" />
      <path
         d="m 510.66737,653.84461 0,1.78265 c -0.0849,1.49968 -0.53763,2.54664 -1.55628,3.36722 -0.50933,0.42444 -1.21673,0.62251 -2.1505,0.62251 -1.83924,0 -2.77301,-1.01865 -3.22574,-2.03731 -0.25467,-0.59421 -0.42444,-1.27332 -0.45274,-2.03731 l 0,-7.7814 c 0.0849,-1.49969 0.56592,-2.60323 1.58458,-3.45211 0.48103,-0.42444 1.18843,-0.62251 2.1222,-0.62251 1.83924,0 2.77301,1.01865 3.22574,2.00901 0.25466,0.59422 0.42444,1.24503 0.45274,1.98072 l 0,4.49907 -4.72543,0 0,3.36722 c 0.0283,0.59421 0.19807,1.01866 0.45273,1.32991 0.14148,0.14148 0.33955,0.22637 0.59422,0.22637 0.53762,0 0.79229,-0.33955 0.90547,-0.76399 0.0849,-0.22637 0.11318,-0.48103 0.11318,-0.79229 l 0,-1.69776 2.65983,0 m -4.72543,-3.90485 2.0656,0 0,-2.17879 c 0,-0.59421 -0.11318,-1.01866 -0.39614,-1.35821 -0.14148,-0.14148 -0.36785,-0.22636 -0.62251,-0.22636 -0.53763,0 -0.76399,0.36784 -0.90547,0.79228 -0.0849,0.22637 -0.11319,0.48104 -0.14148,0.79229 l 0,2.17879"
         style=""
         id="path3704" />
      <path
         d="m 518.28783,646.8555 c -0.25466,-0.0849 -0.53762,-0.11319 -0.79229,-0.11319 -0.45273,0 -0.99036,0.0566 -1.44309,0.48104 -0.53763,0.45273 -0.62251,0.93377 -0.62251,1.4148 l 0,10.75247 -2.8579,0 0,-15.4779 2.8579,0 0,1.72605 c 0.0283,-0.19807 0.22636,-0.6791 0.6791,-1.13184 0.45274,-0.42444 1.13184,-0.82058 2.17879,-0.82058 l 0,3.16915"
         style=""
         id="path3706" />
    </g>
  </g>
</svg>
