<?xml version="1.0" encoding="UTF-8" standalone="no"?>
<!-- Created with Inkscape (http://www.inkscape.org/) -->

<svg
   xmlns:dc="http://purl.org/dc/elements/1.1/"
   xmlns:cc="http://creativecommons.org/ns#"
   xmlns:rdf="http://www.w3.org/1999/02/22-rdf-syntax-ns#"
   xmlns:svg="http://www.w3.org/2000/svg"
   xmlns="http://www.w3.org/2000/svg"
   xmlns:sodipodi="http://sodipodi.sourceforge.net/DTD/sodipodi-0.dtd"
   xmlns:inkscape="http://www.inkscape.org/namespaces/inkscape"
   width="744.09448"
   height="524.40942"
   id="svg2"
   version="1.1"
   inkscape:version="0.48.4 r9939"
   sodipodi:docname="pensamiento_crudo.svg">
  <defs
     id="defs4" />
  <sodipodi:namedview
     id="base"
     pagecolor="#ffffff"
     bordercolor="#666666"
     borderopacity="1.0"
     inkscape:pageopacity="0.0"
     inkscape:pageshadow="2"
     inkscape:zoom="1.4"
     inkscape:cx="547.94538"
     inkscape:cy="409.803"
     inkscape:document-units="mm"
     inkscape:current-layer="g3922"
     showgrid="false"
     showguides="true"
     inkscape:guide-bbox="true"
     units="mm"
     inkscape:window-width="1024"
     inkscape:window-height="714"
     inkscape:window-x="0"
     inkscape:window-y="30"
     inkscape:window-maximized="1">
    <sodipodi:guide
       orientation="1,0"
       position="372.04724,0"
       id="guide3168" />
  </sodipodi:namedview>
  <metadata
     id="metadata7">
    <rdf:RDF>
      <cc:Work
         rdf:about="">
        <dc:format>image/svg+xml</dc:format>
        <dc:type
           rdf:resource="http://purl.org/dc/dcmitype/StillImage" />
        <dc:title />
      </cc:Work>
    </rdf:RDF>
  </metadata>
  <g
     inkscape:label="Capa 1"
     inkscape:groupmode="layer"
     id="layer1"
     transform="translate(0,-527.9527)">
    <rect
       y="524.45721"
       x="-7.0438722e-07"
       height="527.90491"
       width="744.09448"
       id="rect3033"
       style="fill:#ffcc00;fill-opacity:1" />
    <g
       id="g3847"
       transform="matrix(0.10929874,0,0,0.10976979,379.02465,946.01697)"
       inkscape:export-filename="/srv/http/kiwwwi.com.ar/pastes/utopia-pirata-2.png"
       inkscape:export-xdpi="149"
       inkscape:export-ydpi="149" />
    <rect
       style="fill:#ffffff"
       id="rect3035"
       width="744.09448"
       height="173.31084"
       x="2.9508121e-07"
       y="589.1864" />
    <g
       id="g4077"
       transform="matrix(0.22827806,0,0,0.2292619,591.20735,849.87456)">
      <g
         inkscape:export-ydpi="149"
         inkscape:export-xdpi="149"
         inkscape:export-filename="/srv/http/kiwwwi.com.ar/pastes/utopia-pirata-2.png"
         id="g3851"
         transform="matrix(0.67937345,0,0,0.67937345,-35.215221,207.58407)"
         style="fill:#000000">
        <path
           d="m 910.84122,610.02908 c -15,21 -31.266,38.794 -49,60 l -24,27 c -20,19 -70,56 -93,71 -13,9 -27,16 -41,22 l -18.26,8.84 c 3,3 8.58,4.641 13.629,7 3,0 13.631,-5.84 16.631,-7.84 l 32,-18 c 6,-4 12,-9 19,-10 -3,7 -10,11 -17,15 l -19,11 c 0,0 -19.951,11.37 -22.68,13.26 5.469,2.16 13.68,4.641 18.889,6.74 5,0 11.791,-5 15.791,-7 11,-6 25,-15 36,-23 l 18,-12 c 14,-11 28,-23 41,-36 10,-9 20,-18 28,-29 11,-13 18,-28 26,-43 9,-14 12,-23 17,-38 1,-5 4,-13 2,-18 z"
           id="path719"
           inkscape:connector-curvature="0"
           style="fill:#000000;stroke:#000000;stroke-width:1" />
        <path
           d="m 451.84122,605.02908 c -3,11 1,24 5,34 9,24 24,45 39,65 9,13 24,29 35,40 l 12,10 26,23 c 21,16 60,40 84,51 l 32,14 13,5 c 15,6 30,10 46,13 9,2 19,5 28,5 -3,-11 -9,-10 -18,-13 l -33,-13 c -46,-19 -97,-38 -133,-74 7,0 12,6 17,10 7,5 16,11 24,16 22,13 72,36 97,45 10,4 27,11 37,11 8,1 19,-4 25,-8 -4,-4 -8,-3 -14,-4 l -31,-9 c -27,-7 -53,-17 -78,-30 l -14,-6 -19,-12 -23,-15 -24,-19 -41,-32 -38,-39 -19,-22 -20,-22 -15,-24 z"
           id="path725"
           inkscape:connector-curvature="0"
           style="fill:#000000;stroke:#000000;stroke-width:1" />
        <path
           d="m 772.84122,852.02908 c 2,4 6,10 6,15 0,11 -13,21 -23,20 -4,-1 -13,-6 -16,0 -1,2 -1,4 0,5 0,4 5,6 9,8 11,3 23,-1 32,-7 7,-4 12,-11 14,-19 l 2,-13 c 1,-4 5,-5 10,-12 6,-8 12,-22 20,-28 3,-2 6,-3 10,-4 -2,-3 -4,-5 -6,-8 -2,-1 -4,-3 -6,-3 -3,-1 -7,-1 -10,1 -14,7 -11,20 -19,30 -6,8 -13,12 -23,15 z"
           id="path731"
           inkscape:connector-curvature="0"
           style="fill:#000000;stroke:#000000;stroke-width:1" />
        <path
           d="m 804.84122,865.02908 c 7,3 13,2 20,2 l 15,1 c 7,0 9,-4 12,-10 1,-2 2,-6 0,-8 -2,-2 -6,-2 -9,-2 l -17,1 c -3,0 -8,0 -11,1 -5,3 -9,10 -10,15 z"
           id="path737"
           inkscape:connector-curvature="0"
           style="fill:#000000;stroke:#000000;stroke-width:1" />
        <path
           d="m 858.84122,879.02908 c -5,-2 -8,-4 -11,-8 -1,1 -2,1 -3,2 -1,5 12,17 14,6 z"
           id="path743"
           inkscape:connector-curvature="0"
           style="fill:#000000;stroke:#000000;stroke-width:1" />
        <path
           d="m 851.84122,845.02908 8,5 c -2,4 -7,12 -6,17 1,10 15,10 21,4 7,-8 7,-20 -3,-26 -6,-3 -13,-2 -20,0 z"
           id="path744"
           inkscape:connector-curvature="0"
           style="fill:#000000;stroke:#000000;stroke-width:1" />
        <path
           d="m 492.84122,873.02908 1,1 c 8,-2 13,-5 14,-13 -6,1 -12,7 -15,12 z"
           id="selection_x5F_to_x5F_path_x23_5"
           inkscape:connector-curvature="0"
           style="fill:#000000;stroke:#000000;stroke-width:1" />
        <path
           d="m 499.84122,836.02908 c -3,-2 -6,-3 -10,-3 -3,0 -6,0 -9,1 -10,4 -11,20 -3,27 4,4 14,6 18,1 4,-4 3,-9 1,-14 -1,-3 -3,-7 -1,-9 1,-2 3,-2 4,-3 z"
           id="selection_x5F_to_x5F_path_x23_4"
           inkscape:connector-curvature="0"
           style="fill:#000000;stroke:#000000;stroke-width:1" />
        <path
           d="m 498.84122,840.02908 c 1,3 6,15 8,17 3,2 6,2 9,2 l 18,-1 h 13 c 0,-3 0,-6 -1,-8 -3,-8 -14,-12 -22,-12 l -9,1 c -6,0 -11,-1 -16,1 z"
           id="selection_x5F_to_x5F_path_x23_3"
           inkscape:connector-curvature="0"
           style="fill:#000000;stroke:#000000;stroke-width:1" />
        <path
           d="m 517.84122,808.02908 c 19,5 19,21 27,32 3,4 11,10 12,14 1,3 0,4 1,11 2,9 8,18 16,23 9,6 17,10 28,7 6,-2 12,-6 9,-13 -3,-7 -14,0 -21,-2 -7,-3 -15,-13 -15,-21 l 4,-14 c -11,-4 -24,-13 -29,-24 -3,-7 -3,-17 -8,-22 -9,-7 -21,-1 -24,9 z"
           id="selection_x5F_to_x5F_path_x23_2"
           inkscape:connector-curvature="0"
           style="fill:#000000;stroke:#000000;stroke-width:1" />
        <path
           d="m 565.84122,831.02908 c 3,4 5,5 9,7 14,8 23,2 37,-1 l 29,-9 c -3.84,-2.58 -12.42,-7.95 -16,-10 l -19,5 -40,8 z"
           id="path758"
           inkscape:connector-curvature="0"
           style="fill:#000000;stroke:#000000;stroke-width:1" />
        <path
           d="m 579.84122,860.02908 c 26,0 50,-8 75,-14 0,0 11,-5.206 14.676,-5.206 -3.47,-2.529 -17.622,-7.638 -19.836,-9.634 -3,0.89 -14.84,4.84 -18.84,5.84 l -25,7 -12,3 c -7,3 -12,4 -14,13 z"
           id="path759"
           inkscape:connector-curvature="0"
           style="fill:#000000;stroke:#000000;stroke-width:1" />
      </g>
      <circle
         transform="matrix(0.67937348,0,0,0.67937344,172.06628,463.24141)"
         d="m 483.822,156.03101 c 0,59.52249 -48.25251,107.775 -107.775,107.775 -59.52249,0 -107.775,-48.25251 -107.775,-107.775 0,-59.522494 48.25251,-107.775006 107.775,-107.775006 59.52249,0 107.775,48.252512 107.775,107.775006 z"
         style="fill:none;stroke:#000000;stroke-width:20;stroke-opacity:1"
         sodipodi:ry="107.775"
         sodipodi:rx="107.775"
         sodipodi:cy="156.03101"
         sodipodi:cx="376.047"
         cx="376.047"
         cy="156.03101"
         r="107.775"
         id="circle3807" />
      <path
         transform="matrix(0.67937348,0,0,0.67937344,-233.93429,225.03699)"
         style="fill:#000000"
         inkscape:connector-curvature="0"
         d="m 972.7768,439.2957 c -31.919,0 -58.663,22.231 -65.598,52.05 h 32.187 c 5.808,-12.648 18.59,-21.432 33.411,-21.432 20.282,0 36.742,16.46 36.742,36.741 0,20.281 -16.46,36.742 -36.742,36.742 -14.821,0 -27.604,-8.785 -33.411,-21.433 h -32.187 c 6.935,29.819 33.679,52.05 65.598,52.05 37.183,0 67.359,-30.177 67.359,-67.359 0,-37.182 -30.177,-67.359 -67.359,-67.359 z"
         id="path3809" />
      <g
         inkscape:export-ydpi="149"
         inkscape:export-xdpi="149"
         inkscape:export-filename="/srv/http/kiwwwi.com.ar/pastes/utopia-pirata-2.png"
         id="text3059"
         style="font-size:121.8484726px;font-style:normal;font-weight:normal;line-height:125%;letter-spacing:0px;word-spacing:0px;fill:#ffffff;fill-opacity:1;stroke:none;font-family:Bitstream Vera Sans"
         transform="matrix(-0.72702905,0.19480685,-0.19480685,-0.72702905,-611.71218,-436.375)">
        <g
           transform="matrix(0.99707364,-0.07644708,0.07644708,0.99707364,125.06749,-81.555005)"
           id="g3922">
          <path
             transform="matrix(-0.8718552,-0.2336129,0.2336129,-0.8718552,-1786.4657,-3244.8873)"
             d="m -1183.8988,-1543.7299 c 0,70.2944 -56.9848,127.2793 -127.2792,127.2793 -70.2944,0 -127.2792,-56.9849 -127.2792,-127.2793 0,-70.2943 56.9848,-127.2792 127.2792,-127.2792 70.2944,0 127.2792,56.9849 127.2792,127.2792 z"
             sodipodi:ry="127.27922"
             sodipodi:rx="127.27922"
             sodipodi:cy="-1543.7299"
             sodipodi:cx="-1311.178"
             id="path3865"
             style="fill:none;stroke:none"
             sodipodi:type="arc"
             inkscape:export-filename="/srv/http/kiwwwi.com.ar/pastes/utopia-pirata-1.png"
             inkscape:export-xdpi="149"
             inkscape:export-ydpi="149" />
          <path
             d="m -778.04883,-1594.9487 -70.08465,-12.3215 c -3.57914,-0.7529 -6.69277,-2.0426 -9.22087,-3.848 -2.21027,-1.502 -4.19505,-3.583 -5.5732,-6.2996 -1.49816,-2.7377 -2.00858,-6.1679 -1.24904,-10.4881 0.75954,-4.3203 2.43037,-7.4907 4.77246,-9.5532 2.22209,-2.0837 4.77652,-3.243 7.36656,-3.9011 2.99226,-0.8348 6.35907,-0.9852 9.98041,-0.4723 l 70.08465,12.3215 -2.27862,12.9608 -70.08465,-12.3214 c -2.52017,-0.4431 -4.30577,-0.1384 -5.83684,0.8296 -0.70553,0.4946 -1.21325,1.2713 -1.40313,2.3514 -0.40087,2.2801 0.84934,3.6134 2.56507,4.4099 0.77676,0.5077 1.83573,0.8176 3.15582,1.0497 l 70.08465,12.3214 -2.27862,12.9609"
             style="font-style:normal;font-variant:normal;font-weight:normal;font-stretch:normal;fill:#000000;font-family:League Gothic;-inkscape-font-specification:League Gothic"
             id="path3897"
             inkscape:connector-curvature="0" />
          <path
             d="m -801.09593,-1568.8963 11.85811,6.5051 -18.28444,33.3309 -11.85812,-6.5051 5.97761,-10.8966 -66.66184,-36.5689 6.32923,-11.5376 66.66184,36.5689 5.97761,-10.8967"
             style="font-style:normal;font-variant:normal;font-weight:normal;font-stretch:normal;fill:#000000;font-family:League Gothic;-inkscape-font-specification:League Gothic"
             id="path3899"
             inkscape:connector-curvature="0" />
          <path
             d="m -902.22684,-1531.2768 c -2.40064,-2.7594 -4.10625,-5.6661 -5.0338,-8.6309 -0.857,-2.5312 -1.18494,-5.3882 -0.64563,-8.3863 0.45632,-3.0873 2.1181,-6.1311 5.32973,-9.1189 3.21164,-2.9879 6.45655,-4.5088 9.56871,-4.7413 3.02918,-0.3218 5.76585,0.2943 8.22867,1.3316 2.89022,1.139 5.66638,3.0497 8.24545,5.6431 l 35.93698,38.6289 c 2.31765,2.6701 4.02326,5.5768 4.95082,8.5417 0.85699,2.5312 1.35714,5.3944 0.81783,8.3924 -0.53932,2.9981 -2.20731,6.2141 -5.41895,9.202 -3.21163,2.9878 -6.45032,4.3365 -9.47949,4.6583 -3.02918,0.3217 -5.93806,-0.3006 -8.40087,-1.3379 -2.89023,-1.1389 -5.66638,-3.0497 -8.16246,-5.5539 l -35.93699,-38.6288 m 45.57191,29.6653 c 1.65991,1.7843 3.1787,2.7013 5.06676,2.9419 0.86104,0.031 1.82372,-0.3653 2.62663,-1.1122 1.69503,-1.5769 1.33601,-3.5729 0.61392,-5.0646 -0.39633,-0.9627 -1.05407,-1.8486 -1.88403,-2.7407 l -35.93698,-38.6289 c -1.74291,-1.8735 -3.35091,-2.7075 -5.15597,-2.8588 -0.86104,-0.031 -1.73451,0.2822 -2.53742,1.0292 -1.69503,1.5769 -1.502,3.3944 -0.61392,5.0645 0.31333,0.8735 0.97108,1.7594 1.88402,2.7408 l 35.93699,38.6288"
             style="font-style:normal;font-variant:normal;font-weight:normal;font-stretch:normal;fill:#000000;font-family:League Gothic;-inkscape-font-specification:League Gothic"
             id="path3901"
             inkscape:connector-curvature="0" />
          <path
             d="m -886.59996,-1457.8116 -12.05827,5.2702 c -5.24757,2.2934 -11.08073,3.2471 -16.75926,1.2077 -5.67853,-2.0394 -11.09081,-7.1207 -15.18979,-16.4994 -4.09898,-9.3786 -4.10323,-16.6905 -1.74292,-22.2434 2.3603,-5.5528 6.92473,-9.4094 12.1723,-11.7029 l -14.34645,-32.8252 12.05826,-5.2702 35.86613,82.0632 m -28.21022,-31.6862 c -3.68447,1.6103 -5.73635,3.305 -6.2466,5.7886 -0.55905,2.372 0.42353,5.5329 2.42423,10.1106 2.00069,4.5777 3.75077,7.6692 5.96893,9.0933 2.21816,1.4242 4.95321,1.2926 8.63767,-0.3177 l -10.78423,-24.6748"
             style="font-style:normal;font-variant:normal;font-weight:normal;font-stretch:normal;fill:#000000;font-family:League Gothic;-inkscape-font-specification:League Gothic"
             id="path3903"
             inkscape:connector-curvature="0" />
          <path
             d="m -948.99443,-1436.6047 -13.00674,2.0001 -13.61231,-88.5181 13.00674,-2.0001 13.61231,88.5181"
             style="font-style:normal;font-variant:normal;font-weight:normal;font-stretch:normal;fill:#000000;font-family:League Gothic;-inkscape-font-specification:League Gothic"
             id="path3905"
             inkscape:connector-curvature="0" />
          <path
             d="m -981.75508,-1521.0222 -23.62102,87.4398 -15.9797,-1.8289 -3.2539,-90.5157 12.7111,1.4548 0.3429,18.4359 12.59007,1.4409 4.49944,-17.8816 12.71111,1.4548 m -29.02582,57.5093 0.1,2.3417 0.7264,0.083 0.6264,-2.2585 6.9672,-27.656 -8.9583,-1.0253 0.5384,28.515"
             style="font-style:normal;font-variant:normal;font-weight:normal;font-stretch:normal;fill:#000000;font-family:League Gothic;-inkscape-font-specification:League Gothic"
             id="path3907"
             inkscape:connector-curvature="0" />
          <path
             d="m -1099.1166,-1462.6292 -10.788,-7.5362 c -4.6948,-3.2797 -8.5522,-7.758 -9.7757,-13.6663 -1.2235,-5.9083 0.2868,-13.1768 6.1483,-21.5675 5.8615,-8.3906 12.0967,-12.2098 18.0653,-13.094 5.9685,-0.8841 11.6402,0.9971 16.335,4.2767 l 20.5152,-29.3674 10.7881,7.5362 -51.2882,73.4185 m 12.3091,-40.5995 c -3.2963,-2.3027 -5.8127,-3.1688 -8.1976,-2.308 -2.3152,0.7609 -4.4989,3.2485 -7.3599,7.344 -2.8609,4.0954 -4.5849,7.2016 -4.6423,9.8369 -0.057,2.6354 1.4821,4.8999 4.7784,7.2026 l 15.4214,-22.0755"
             style="font-style:normal;font-variant:normal;font-weight:normal;font-stretch:normal;fill:#000000;font-family:League Gothic;-inkscape-font-specification:League Gothic"
             id="path3909"
             inkscape:connector-curvature="0" />
          <path
             d="m -1149.6319,-1504.5948 -8.5195,-10.0296 68.2572,-57.9801 8.5196,10.0296 -68.2573,57.9801"
             style="font-style:normal;font-variant:normal;font-weight:normal;font-stretch:normal;fill:#000000;font-family:League Gothic;-inkscape-font-specification:League Gothic"
             id="path3911"
             inkscape:connector-curvature="0" />
          <path
             d="m -1106.4208,-1601.3444 -31.2348,22.3102 1.5099,3.1948 34.1507,-16.1412 5.6233,11.8977 -80.97,38.2701 -5.6234,-11.8977 c -6.7168,-14.211 -1.5386,-24.071 13.7741,-31.3085 8.0419,-3.8009 16.302,-5.1443 21.5214,-2.0855 l 35.6254,-26.1376 5.6234,11.8977 m -40.7412,30.7118 c -0.781,-1.6525 -2.0427,-3.7516 -4.4181,-4.7852 -2.3754,-1.0337 -6.0267,-1.06 -11.7551,1.6476 -5.7285,2.7075 -8.1362,5.5975 -8.8454,8.0891 -0.7092,2.4916 0.222,4.7469 1.003,6.3994 l 24.0156,-11.3509"
             style="font-style:normal;font-variant:normal;font-weight:normal;font-stretch:normal;fill:#000000;font-family:League Gothic;-inkscape-font-specification:League Gothic"
             id="path3913"
             inkscape:connector-curvature="0" />
          <path
             d="m -1113.2219,-1617.132 -90.458,-4.5863 -1.5934,-16.0049 87.7782,-22.331 1.2675,12.7311 -17.946,4.2357 1.2554,12.6099 18.4288,0.6143 1.2675,12.7312 m -62.3486,-16.2013 -2.2675,0.5931 0.072,0.7275 2.34,0.1344 28.504,0.9582 -0.8933,-8.9724 -27.7556,6.5592"
             style="font-style:normal;font-variant:normal;font-weight:normal;font-stretch:normal;fill:#000000;font-family:League Gothic;-inkscape-font-specification:League Gothic"
             id="path3915"
             inkscape:connector-curvature="0" />
          <path
             d="m -1191.1447,-1674.8241 -13.2316,-2.8027 7.8779,-37.1915 13.2316,2.8027 -2.5754,12.1588 74.383,15.7558 -2.727,12.874 -74.383,-15.7558 -2.5755,12.1587"
             style="font-style:normal;font-variant:normal;font-weight:normal;font-stretch:normal;fill:#000000;font-family:League Gothic;-inkscape-font-specification:League Gothic"
             id="path3917"
             inkscape:connector-curvature="0" />
          <path
             d="m -1109.3262,-1695.6338 -70.438,-56.94 8.1301,-13.8779 84.1114,33.5999 -6.4672,11.0393 -17.0021,-7.1361 -6.4056,10.9341 14.5385,11.3415 -6.4671,11.0392 m -40.876,-49.7893 -2.1823,-0.8549 -0.3696,0.6309 1.8128,1.4856 22.4821,17.5485 4.5578,-7.78 -26.3008,-11.0301"
             style="font-style:normal;font-variant:normal;font-weight:normal;font-stretch:normal;fill:#000000;font-family:League Gothic;-inkscape-font-specification:League Gothic"
             id="path3919"
             inkscape:connector-curvature="0" />
          <g
             transform="matrix(-0.94534379,-0.33261832,0.33119094,-0.94128701,0,0)"
             style="font-size:316.4208374px;font-style:normal;font-weight:normal;line-height:125%;letter-spacing:0px;word-spacing:0px;fill:#000000;fill-opacity:1;stroke:none;font-family:Sans"
             id="text4354">
            <path
               d="m -129.10446,-589.23417 34.173452,0 c 14.871765,0 29.743571,3.79706 41.134709,14.55536 11.391139,10.75829 18.985251,28.4779 18.985251,55.05722 0,26.57933 -7.594112,43.98251 -18.985251,54.74081 -11.391138,10.7583 -26.262944,15.1882 -41.134709,15.1882 l 0,93.02772 -34.173452,0 0,-232.56931 m 34.173452,104.7353 c 10.441878,0 17.086729,-1.89853 20.883776,-7.27768 3.797046,-5.06273 4.746312,-13.60611 4.746312,-26.57935 0,-12.97325 -0.949266,-22.14947 -4.746312,-27.84504 -3.797047,-5.69557 -10.441898,-8.22694 -20.883776,-8.22694 l 0,69.92901"
               style="font-variant:normal;font-stretch:normal;font-family:League Gothic;-inkscape-font-specification:League Gothic"
               id="path4737" />
            <path
               d="m 58.483659,-418.68334 0,19.93451 c -0.949261,16.77029 -6.012007,28.47789 -17.403146,37.65408 -5.695569,4.74631 -13.606106,6.96126 -24.047983,6.96126 -20.5673341,0 -31.009247,-11.39116 -36.071976,-22.7823 -2.847784,-6.64483 -4.746313,-14.23895 -5.062733,-22.7823 l 0,-87.01573 c 0.949261,-16.77029 6.328428,-29.11073 17.7195668,-38.60334 5.3791489,-4.74631 13.2896856,-6.96126 23.7315632,-6.96126 20.567333,0 31.009247,11.39116 36.071975,22.46588 2.847785,6.64483 4.746313,13.92252 5.062733,22.14946 l 0,50.31091 -52.8422794,0 0,37.65408 c 0.3164206,6.64483 2.2149487,11.39115 5.0627334,14.87178 1.582103,1.5821 3.797053,2.53137 6.644838,2.53137 6.01199,0 8.859784,-3.79706 10.125466,-8.54337 0.949262,-2.53136 1.265684,-5.37915 1.265684,-8.85978 l 0,-18.98525 29.743558,0 m -52.8422794,-43.66608 23.0987214,0 0,-24.3644 c 0,-6.64483 -1.265687,-11.39115 -4.429892,-15.1882 -1.582103,-1.5821 -4.113474,-2.53137 -6.961258,-2.53137 -6.01199,0 -8.5433646,4.11348 -10.1254672,8.85979 -0.9492615,2.53136 -1.2656836,5.37915 -1.5821042,8.85978 l 0,24.3644"
               style="font-variant:normal;font-stretch:normal;font-family:League Gothic;-inkscape-font-specification:League Gothic"
               id="path4739" />
            <path
               d="m 111.74124,-356.66486 -31.958506,0 0,-173.08219 31.958506,0 0,14.55535 c 0.63284,-0.31642 1.89853,-1.5821 3.79705,-3.48062 3.48062,-3.48063 8.22695,-8.22695 13.92252,-11.39115 2.84778,-1.58211 5.37915,-2.21495 8.22694,-2.21495 8.54335,0 14.55536,5.06274 18.35241,11.39115 3.79704,6.64483 5.69557,15.18821 5.69557,22.46588 l 0,141.75653 -31.9585,0 0,-137.01022 c 0,-6.64483 -3.79706,-7.5941 -7.5941,-7.5941 -3.48063,0 -5.37916,1.89853 -7.5941,4.11347 -0.94927,1.26568 -1.89853,2.53137 -2.84779,4.11347 l 0,136.37738"
               style="font-variant:normal;font-stretch:normal;font-family:League Gothic;-inkscape-font-specification:League Gothic"
               id="path4741" />
            <path
               d="m 233.25672,-485.44814 c 0,-4.11346 0,-9.17621 -1.26568,-13.28967 -1.5821,-3.79705 -4.11348,-6.96126 -9.17621,-6.96126 -4.11346,0 -6.64483,3.16421 -7.91052,6.96126 -1.5821,3.79704 -1.89852,9.17621 -1.89852,13.28967 0,5.37915 2.84779,11.07474 6.96126,16.13747 3.79704,5.06272 8.85978,10.12547 13.92251,14.87178 6.64483,6.64483 14.55537,14.23894 19.93452,22.7823 5.37914,8.85977 9.49262,18.66884 9.49262,30.05998 0,11.07471 -2.53137,22.7823 -8.85978,31.64208 -6.64483,9.17619 -16.77032,15.82104 -31.95851,15.82104 -19.30165,0 -30.69282,-8.85979 -37.02123,-19.61809 -6.32842,-10.7583 -7.5941,-24.04799 -7.5941,-33.22419 l 29.74355,0 c 0,4.74631 0.31643,11.39116 2.53137,16.45388 2.21494,5.37915 5.69558,9.80905 12.34041,9.80905 9.1762,0 11.07473,-10.75832 11.07473,-20.88377 0,-10.44188 -10.12547,-20.88379 -19.93451,-30.69283 -7.59409,-7.27767 -14.87179,-13.92252 -20.56735,-22.46588 -5.69557,-8.54335 -9.80905,-18.036 -9.80905,-30.69282 0,-10.12545 1.89853,-21.83304 7.91052,-31.00924 6.01199,-8.85977 15.82106,-15.50462 31.00924,-15.82104 18.66881,-0.31642 29.11072,6.64485 34.48987,15.82104 5.37915,9.1762 6.32842,21.20021 6.32842,31.00924 l -29.74356,0"
               style="font-variant:normal;font-stretch:normal;font-family:League Gothic;-inkscape-font-specification:League Gothic"
               id="path4743" />
            <path
               d="m 330.90223,-488.61235 c 0,-2.84778 0,-7.27768 -0.94926,-10.44188 -1.26569,-3.16421 -3.79706,-5.37916 -7.91052,-5.37916 -5.37915,0 -7.59411,4.11348 -8.54337,9.17621 -0.31642,2.53136 -0.63284,5.37915 -0.63284,8.22694 0,2.84778 0,5.69558 0,8.22694 l -31.9585,0 0,-7.27768 c 0,-12.65682 4.74632,-24.04799 12.34041,-32.59134 7.59409,-8.54336 18.35242,-13.6061 30.69282,-13.6061 10.44188,0 19.93452,4.11348 27.21219,11.07473 7.27768,6.96125 11.70757,16.77031 11.70757,28.16145 l 0,106.3174 c 0,15.50461 0.94927,22.46589 2.21495,30.05998 l -31.32566,0 c -2.84779,-3.48062 -2.84779,-11.70757 -2.84779,-13.92251 l -2.21495,0 c -1.5821,2.84778 -4.42989,6.96126 -8.85978,10.44188 -4.42989,3.48063 -10.44189,6.012 -16.7703,6.012 -4.11347,0 -10.75832,-1.58211 -15.82105,-7.91052 -5.37914,-6.01199 -9.80904,-16.77032 -9.80904,-34.80629 0,-19.30165 5.69558,-33.2242 13.28967,-42.71682 7.5941,-9.49261 17.08674,-15.50462 24.99725,-19.61809 7.91051,-4.11346 13.92252,-6.96126 15.1882,-10.44188 l 0,-18.98526 m 0,48.41239 c -15.50461,6.64483 -22.14946,22.14948 -22.14946,38.60335 0,2.21494 0.31642,6.01199 1.5821,9.49262 1.26569,3.79705 3.48064,6.64484 7.27768,6.64484 7.27768,0 13.28968,-4.4299 13.28968,-10.44189 l 0,-44.29892"
               style="font-variant:normal;font-stretch:normal;font-family:League Gothic;-inkscape-font-specification:League Gothic"
               id="path4745" />
            <path
               d="m 465.81121,-356.66486 -30.05998,0 0,-137.01022 c 0,-6.64483 -5.06273,-7.5941 -8.54336,-7.5941 -3.48062,0 -6.32842,1.89853 -8.54336,4.11347 -1.26568,1.26568 -2.53137,2.53137 -3.48063,4.11347 l 0,136.37738 -31.9585,0 0,-173.08219 31.9585,0 0,14.55535 c 0.63284,-0.31642 1.89853,-1.5821 3.79705,-3.48062 3.48063,-3.48063 8.85979,-8.22695 14.55536,-11.39115 2.84778,-1.58211 5.37916,-2.21495 8.22694,-2.21495 11.39114,0 18.03599,9.17621 21.51662,19.30167 1.26568,-0.94926 2.84779,-2.53137 5.06273,-4.74631 4.11347,-4.42989 9.49263,-8.54337 15.50462,-12.02399 2.84779,-1.58211 5.69558,-2.53137 8.54336,-2.53137 8.54336,0 14.55537,5.06274 18.35241,11.39115 3.79705,6.64483 5.69558,15.18821 5.69558,22.46588 l 0,141.75653 -30.05998,0 0,-137.01022 c 0,-6.64483 -5.06274,-7.5941 -8.54336,-7.5941 -3.48063,0 -6.32842,1.89853 -8.54337,4.11347 -1.26568,1.26568 -2.53136,2.53137 -3.48063,4.11347 l 0,136.37738"
               style="font-variant:normal;font-stretch:normal;font-family:League Gothic;-inkscape-font-specification:League Gothic"
               id="path4747" />
            <path
               d="m 540.81778,-589.23417 31.95851,0 0,31.9585 -31.95851,0 0,-31.9585 m 0,232.56931 0,-173.08219 31.95851,0 0,173.08219 -31.95851,0"
               style="font-variant:normal;font-stretch:normal;font-family:League Gothic;-inkscape-font-specification:League Gothic"
               id="path4749" />
            <path
               d="m 677.72913,-418.68334 0,19.93451 c -0.94926,16.77029 -6.01201,28.47789 -17.40315,37.65408 -5.69557,4.74631 -13.6061,6.96126 -24.04798,6.96126 -20.56734,0 -31.00925,-11.39116 -36.07198,-22.7823 -2.84778,-6.64483 -4.74631,-14.23895 -5.06273,-22.7823 l 0,-87.01573 c 0.94926,-16.77029 6.32843,-29.11073 17.71957,-38.60334 5.37914,-4.74631 13.28968,-6.96126 23.73156,-6.96126 20.56733,0 31.00925,11.39116 36.07197,22.46588 2.84779,6.64483 4.74632,13.92252 5.06274,22.14946 l 0,50.31091 -52.84228,0 0,37.65408 c 0.31642,6.64483 2.21495,11.39115 5.06273,14.87178 1.5821,1.5821 3.79705,2.53137 6.64484,2.53137 6.01199,0 8.85978,-3.79706 10.12547,-8.54337 0.94926,-2.53136 1.26568,-5.37915 1.26568,-8.85978 l 0,-18.98525 29.74356,0 m -52.84228,-43.66608 23.09872,0 0,-24.3644 c 0,-6.64483 -1.26569,-11.39115 -4.42989,-15.1882 -1.58211,-1.5821 -4.11348,-2.53137 -6.96126,-2.53137 -6.01199,0 -8.54337,4.11348 -10.12547,8.85979 -0.94926,2.53136 -1.26568,5.37915 -1.5821,8.85978 l 0,24.3644"
               style="font-variant:normal;font-stretch:normal;font-family:League Gothic;-inkscape-font-specification:League Gothic"
               id="path4751" />
            <path
               d="m 730.98668,-356.66486 -31.95851,0 0,-173.08219 31.95851,0 0,14.55535 c 0.63284,-0.31642 1.89852,-1.5821 3.79705,-3.48062 3.48062,-3.48063 8.22694,-8.22695 13.92251,-11.39115 2.84779,-1.58211 5.37916,-2.21495 8.22694,-2.21495 8.54336,0 14.55537,5.06274 18.35241,11.39115 3.79705,6.64483 5.69558,15.18821 5.69558,22.46588 l 0,141.75653 -31.95851,0 0,-137.01022 c 0,-6.64483 -3.79705,-7.5941 -7.5941,-7.5941 -3.48062,0 -5.37915,1.89853 -7.5941,4.11347 -0.94926,1.26568 -1.89852,2.53137 -2.84778,4.11347 l 0,136.37738"
               style="font-variant:normal;font-stretch:normal;font-family:League Gothic;-inkscape-font-specification:League Gothic"
               id="path4753" />
            <path
               d="m 842.69316,-572.46387 0,42.71682 21.83304,0 0,28.79429 -21.83304,0 0,86.06647 c 0,5.37915 0,12.34042 1.26568,18.03599 1.26568,5.69557 3.79706,10.44189 8.85979,10.44189 2.53136,0 5.69557,-0.31643 7.91052,-0.63285 1.26568,-0.31642 2.53136,-0.31642 3.79705,-0.63284 l 0,31.32566 c -1.58211,0.31643 -3.16421,0.94927 -4.74632,1.26569 -3.1642,0.63284 -7.27768,0.94926 -12.34041,0.94926 -18.66881,0 -27.52862,-9.49264 -31.9585,-21.51662 -4.42989,-12.02398 -4.74632,-26.57936 -4.74632,-36.70481 l 0,-88.59784 -16.13746,0 0,-28.79429 16.13746,0 0,-42.71682 31.95851,0"
               style="font-variant:normal;font-stretch:normal;font-family:League Gothic;-inkscape-font-specification:League Gothic"
               id="path4755" />
            <path
               d="m 960.44619,-398.74883 c -0.94927,16.77029 -6.01201,28.47789 -17.08673,37.65408 -5.69557,4.74631 -13.60611,6.96126 -24.04798,6.96126 -20.56734,0 -30.69283,-11.39116 -35.75556,-22.7823 -2.84778,-6.64483 -4.74631,-14.23895 -5.06273,-22.7823 l 0,-87.01573 c 0.94926,-16.77029 6.01201,-29.11073 17.08672,-38.60334 5.37915,-4.74631 13.28969,-6.96126 23.73157,-6.96126 20.56733,0 31.00924,11.39116 36.07197,22.46588 2.84779,6.64483 4.74632,13.92252 5.06274,22.14946 l 0,88.91425 m -30.05998,-87.96499 c 0.31642,-6.64483 -0.94927,-11.39115 -4.11347,-15.1882 -1.58211,-1.5821 -4.11348,-2.53137 -6.96126,-2.53137 -6.01199,0 -8.54337,4.11348 -9.80905,8.85979 -0.94926,2.53136 -1.26568,5.37915 -0.94926,8.85978 l 0,87.01573 c -0.31642,6.64483 1.26568,11.39115 4.11347,14.87178 1.5821,1.5821 3.79705,2.53137 6.64484,2.53137 6.01199,0 8.85978,-3.79706 10.12546,-8.54337 0.94927,-2.53136 1.26569,-5.37915 0.94927,-8.85978 l 0,-87.01573"
               style="font-variant:normal;font-stretch:normal;font-family:League Gothic;-inkscape-font-specification:League Gothic"
               id="path4757" />
            <path
               d="m 1120.4315,-436.40291 0,31.95851 c -0.3164,9.49261 -2.2149,18.03599 -5.6956,25.31366 -2.8478,6.32842 -7.2777,12.34042 -13.6061,17.08673 -6.3284,5.06273 -14.8718,7.91052 -26.2629,7.91052 -11.3911,0 -20.2509,-2.84779 -26.5793,-7.91052 -6.3285,-4.74631 -10.4419,-10.75831 -13.2897,-17.08673 -3.4807,-7.27767 -5.3792,-15.82105 -5.6956,-25.31366 l 0,-137.01022 c 0.3164,-9.1762 2.2149,-17.71958 5.6956,-24.99725 2.8478,-6.32841 6.9612,-12.65684 13.2897,-17.40315 6.3284,-4.74631 15.1882,-7.91052 26.5793,-7.91052 11.3911,0 19.9345,3.16421 26.2629,7.91052 6.3284,4.74631 10.7583,11.07474 13.6061,17.40315 3.4807,7.27767 5.3792,15.82105 5.6956,24.99725 l 0,31.9585 -31.9585,0 0,-31.9585 c 0,-6.32842 -1.5821,-10.75832 -5.0627,-14.55536 -1.5821,-1.58211 -4.4299,-2.53137 -7.9106,-2.53137 -6.0119,0 -8.8597,4.4299 -10.4418,8.54336 -0.9493,2.53137 -1.2657,5.37916 -1.5821,8.54337 l 0,137.01022 c 0.3164,6.64483 2.2149,11.07473 5.3791,14.55536 1.5821,1.5821 3.7971,2.53136 6.6448,2.53136 7.2777,0 10.1255,-3.79705 11.7076,-8.54336 0.9493,-2.21494 1.2657,-5.06274 1.2657,-8.54336 l 0,-31.95851 31.9585,0"
               style="font-variant:normal;font-stretch:normal;font-family:League Gothic;-inkscape-font-specification:League Gothic"
               id="path4759" />
            <path
               d="m 1204.822,-496.83929 c -2.8478,-0.94926 -6.012,-1.26568 -8.8598,-1.26568 -5.0628,0 -11.0748,0.63285 -16.1375,5.37915 -6.012,5.06273 -6.9613,10.4419 -6.9613,15.82105 l 0,120.23991 -31.9585,0 0,-173.08219 31.9585,0 0,19.30167 c 0.3165,-2.21495 2.5314,-7.59411 7.5941,-12.65684 5.0628,-4.7463 12.6569,-9.1762 24.3645,-9.1762 l 0,35.43913"
               style="font-variant:normal;font-stretch:normal;font-family:League Gothic;-inkscape-font-specification:League Gothic"
               id="path4761" />
            <path
               d="m 1268.1359,-529.74705 31.9585,0 0,173.08219 -31.9585,0 0,-14.55535 c -0.6329,0.31642 -1.8986,1.5821 -3.4807,3.1642 -3.797,3.79705 -8.2269,8.22695 -13.9225,11.39115 -2.8478,1.58211 -5.6956,2.53137 -8.5434,2.53137 -8.5433,0 -14.5553,-5.06274 -18.3524,-11.70757 -3.797,-6.32841 -5.6955,-14.87179 -5.6955,-22.14946 l 0,-141.75653 31.9585,0 0,137.01022 c 0,6.64483 3.797,7.5941 7.5941,7.5941 3.4806,0 5.3791,-1.89853 7.5941,-4.11347 0.9492,-0.94926 1.8985,-2.53137 2.8478,-4.11347 l 0,-136.37738"
               style="font-variant:normal;font-stretch:normal;font-family:League Gothic;-inkscape-font-specification:League Gothic"
               id="path4763" />
            <path
               d="m 1406.377,-356.66486 -31.9585,0 0,-11.39115 c -5.3791,5.06273 -10.1254,8.85979 -16.1374,11.70757 -3.1642,1.58211 -6.3284,2.21495 -9.1762,2.21495 -8.8598,0 -14.8718,-5.06274 -18.6689,-11.70757 -4.1134,-6.32841 -6.012,-14.87179 -6.012,-22.14946 l 0,-110.43087 c 0,-7.27767 1.8986,-15.82105 6.012,-22.46588 3.7971,-6.32841 9.8091,-11.39115 18.6689,-11.39115 6.012,0 12.3404,3.48063 17.0867,6.96126 2.8478,2.21494 5.3792,4.42989 8.2269,6.96126 l 0,-70.87827 31.9585,0 0,232.56931 m -31.9585,-135.11169 c 0,-5.06273 -4.7463,-10.44189 -9.4926,-10.44189 -4.7463,0 -8.5433,4.4299 -8.5433,10.44189 l 0,97.14119 c 0,6.01199 3.797,10.44189 8.5433,10.44189 4.7463,0 9.4926,-4.4299 9.4926,-10.44189 l 0,-97.14119"
               style="font-variant:normal;font-stretch:normal;font-family:League Gothic;-inkscape-font-specification:League Gothic"
               id="path4765" />
            <path
               d="m 1511.0927,-398.74883 c -0.9493,16.77029 -6.012,28.47789 -17.0868,37.65408 -5.6955,4.74631 -13.6061,6.96126 -24.0479,6.96126 -20.5674,0 -30.6929,-11.39116 -35.7556,-22.7823 -2.8478,-6.64483 -4.7463,-14.23895 -5.0627,-22.7823 l 0,-87.01573 c 0.9492,-16.77029 6.012,-29.11073 17.0867,-38.60334 5.3791,-4.74631 13.2897,-6.96126 23.7316,-6.96126 20.5673,0 31.0092,11.39116 36.0719,22.46588 2.8478,6.64483 4.7463,13.92252 5.0628,22.14946 l 0,88.91425 m -30.06,-87.96499 c 0.3164,-6.64483 -0.9493,-11.39115 -4.1135,-15.1882 -1.5821,-1.5821 -4.1135,-2.53137 -6.9612,-2.53137 -6.012,0 -8.5434,4.11348 -9.8091,8.85979 -0.9492,2.53136 -1.2657,5.37915 -0.9492,8.85978 l 0,87.01573 c -0.3165,6.64483 1.2656,11.39115 4.1134,14.87178 1.5821,1.5821 3.7971,2.53137 6.6449,2.53137 6.012,0 8.8597,-3.79706 10.1254,-8.54337 0.9493,-2.53136 1.2657,-5.37915 0.9493,-8.85978 l 0,-87.01573"
               style="font-variant:normal;font-stretch:normal;font-family:League Gothic;-inkscape-font-specification:League Gothic"
               id="path4767" />
          </g>
          <g
             transform="matrix(-0.94534379,-0.33261832,0.33119094,-0.94128701,0,0)"
             style="font-size:172.54058838px;font-style:normal;font-weight:normal;line-height:125%;letter-spacing:0px;word-spacing:0px;fill:#000000;fill-opacity:1;stroke:none;font-family:Sans"
             id="text4358">
            <path
               d="m -129.10446,-653.21143 19.15201,-126.81733 22.775354,0 19.152006,126.81733 -18.116762,0 -3.450812,-25.88108 -17.944226,0 -3.45081,25.88108 -18.11676,0 m 31.574929,-85.58013 -0.517622,-3.27827 -1.035243,0 -0.517622,3.27827 -5.348762,40.02942 12.768007,0 -5.348758,-40.02942"
               style="font-variant:normal;font-stretch:normal;font-family:League Gothic;-inkscape-font-specification:League Gothic"
               id="path4770" />
            <path
               d="m -33.163801,-725.16085 c 0,-1.55286 0,-3.96844 -0.517621,-5.69384 -0.690162,-1.7254 -2.07049,-2.93319 -4.313515,-2.93319 -2.933187,0 -4.140975,2.24303 -4.658596,5.00368 -0.17254,1.38032 -0.345081,2.93319 -0.345081,4.48605 0,1.55287 0,3.10573 0,4.48606 l -17.4266,0 0,-3.96844 c 0,-6.90161 2.588113,-13.11309 6.729083,-17.77168 4.14097,-4.65859 10.007361,-7.41924 16.736437,-7.41924 5.693834,0 10.870061,2.24303 14.838491,6.03892 3.96843,3.79589 6.384002,9.14466 6.384002,15.35611 l 0,57.97364 c 0,8.45448 0.517622,12.25038 1.207784,16.39135 l -17.081518,0 c -1.552864,-1.89794 -1.552866,-6.384 -1.552866,-7.59178 l -1.207784,0 c -0.862702,1.55286 -2.41557,3.79589 -4.831136,5.69384 -2.415566,1.89794 -5.693843,3.27827 -9.144651,3.27827 -2.243026,0 -5.866383,-0.86271 -8.62703,-4.31352 -2.933187,-3.27826 -5.348758,-9.14466 -5.348758,-18.97946 0,-10.52497 3.105735,-18.11677 7.246705,-23.29298 4.14097,-5.17621 9.317196,-8.45449 13.630706,-10.69752 4.31351,-2.24302 7.591787,-3.79589 8.281948,-5.69384 l 0,-10.35243 m 0,26.39871 c -8.45448,3.62335 -12.077841,12.07785 -12.077841,21.04995 0,1.20778 0.172541,3.27827 0.862703,5.17622 0.690162,2.07048 1.897949,3.62335 3.968434,3.62335 3.968429,0 7.246704,-2.41557 7.246704,-5.69384 l 0,-24.15568"
               style="font-variant:normal;font-stretch:normal;font-family:League Gothic;-inkscape-font-specification:League Gothic"
               id="path4772" />
            <path
               d="m 30.220597,-729.64691 c -1.552864,-0.51762 -3.278273,-0.69016 -4.831137,-0.69016 -2.760646,0 -6.038923,0.34508 -8.79957,2.93319 -3.278267,2.76065 -3.795893,5.69384 -3.795893,8.62703 l 0,65.56542 -17.4265989,0 0,-94.3797 17.4265989,0 0,10.52498 c 0.172541,-1.20778 1.380328,-4.14098 4.140975,-6.90163 2.760646,-2.5881 6.90163,-5.00367 13.285625,-5.00367 l 0,19.32454"
               style="font-variant:normal;font-stretch:normal;font-family:League Gothic;-inkscape-font-specification:League Gothic"
               id="path4774" />
            <path
               d="m 80.289731,-676.15932 c -0.517621,9.14464 -3.278277,15.52865 -9.317192,20.53233 -3.105727,2.5881 -7.419251,3.79589 -13.113085,3.79589 -11.215127,0 -16.736439,-6.21147 -19.497086,-12.42292 -1.552864,-3.62335 -2.588109,-7.76433 -2.76065,-12.42293 l 0,-47.44866 c 0.517622,-9.14464 3.278278,-15.87374 9.317192,-21.04995 2.933187,-2.58811 7.246711,-3.79589 12.940544,-3.79589 11.215127,0 16.908981,6.21146 19.669627,12.25038 1.552864,3.62335 2.588109,7.59179 2.76065,12.07784 l 0,48.48391 m -16.391356,-47.96629 c 0.17254,-3.62335 -0.517624,-6.21146 -2.243028,-8.28195 -0.862702,-0.8627 -2.243029,-1.38032 -3.795893,-1.38032 -3.278268,0 -4.658596,2.24303 -5.348758,4.83114 -0.517621,1.38032 -0.690162,2.93319 -0.517622,4.83113 l 0,47.44866 c -0.17254,3.62335 0.690164,6.21147 2.243028,8.10941 0.862702,0.8627 2.070489,1.38033 3.623352,1.38033 3.278268,0 4.831138,-2.07049 5.521299,-4.6586 0.517621,-1.38032 0.690162,-2.93319 0.517622,-4.83114 l 0,-47.44866"
               style="font-variant:normal;font-stretch:normal;font-family:League Gothic;-inkscape-font-specification:League Gothic"
               id="path4776" />
            <path
               d="m 109.51108,-653.21143 -17.426595,0 0,-94.3797 17.426595,0 0,7.93687 c 0.34509,-0.17254 1.03525,-0.8627 2.07049,-1.89795 1.89795,-1.89794 4.48606,-4.48605 7.59179,-6.21146 1.55286,-0.8627 2.93319,-1.20778 4.48605,-1.20778 4.65859,0 7.93687,2.76065 10.00736,6.21146 2.07048,3.62335 3.10573,8.28195 3.10573,12.25038 l 0,77.29818 -17.4266,0 0,-74.71007 c 0,-3.62335 -2.07049,-4.14097 -4.14098,-4.14097 -1.89794,0 -2.93319,1.03524 -4.14097,2.24302 -0.51762,0.69016 -1.03524,1.38033 -1.55287,2.24303 l 0,74.36499"
               style="font-variant:normal;font-stretch:normal;font-family:League Gothic;-inkscape-font-specification:League Gothic"
               id="path4778" />
            <path
               d="m 207.89158,-746.03826 c 0,-4.14097 -0.17254,-8.79958 -1.38032,-12.42292 -1.20778,-3.45081 -3.10574,-5.86638 -6.03892,-5.86638 -4.83113,0.17254 -6.384,5.17622 -6.384,12.59546 0,4.31351 1.89795,8.79957 4.65859,13.6307 2.76065,4.83114 6.38401,9.83482 10.00736,15.18358 4.31351,6.38399 8.62703,12.94055 11.9053,19.32454 3.27826,6.384 5.5213,12.94055 5.5213,19.84217 0,8.45448 -1.38033,16.39136 -5.34876,22.25774 -3.96843,5.86637 -10.35245,9.66227 -20.53233,9.66227 -11.90529,0 -18.63439,-4.48606 -22.43028,-11.38768 -3.79589,-6.90162 -4.6586,-16.04628 -4.6586,-25.53601 l 18.28931,-1.7254 c 0,5.34875 0.17254,10.69752 1.55286,14.66595 1.20779,4.14097 3.27828,6.90162 7.24671,6.90162 5.52129,0 7.59178,-5.86639 7.59178,-13.97579 0,-4.14097 -2.07049,-8.97211 -4.83113,-13.97578 -1.55287,-2.41557 -3.10574,-5.00368 -4.83114,-7.59179 -3.62335,-5.17621 -7.59179,-11.0426 -11.73276,-17.4266 -4.14097,-6.384 -7.24671,-12.94055 -9.14465,-19.66963 -1.03524,-3.27826 -1.55287,-6.72908 -1.55287,-10.17989 0,-6.90162 1.55287,-14.32088 5.5213,-20.01471 3.96843,-5.52129 10.00737,-9.48973 18.80693,-9.66227 11.21512,-0.17254 17.77168,4.48606 21.39503,11.21514 3.62335,6.90161 4.6586,15.35611 4.6586,22.43027 l -18.28931,1.72541"
               style="font-variant:normal;font-stretch:normal;font-family:League Gothic;-inkscape-font-specification:League Gothic"
               id="path4780" />
            <path
               d="m 275.48435,-653.21143 -6.72908,-45.03309 -0.8627,-5.34876 -0.69017,0 -0.8627,5.34876 -6.72908,45.03309 -14.49341,0 -13.97579,-94.3797 15.87374,0 5.52129,49.34661 0.69017,5.34876 1.03524,0 0.8627,-5.34876 7.24671,-49.34661 10.35243,0 7.24671,49.34661 0.8627,5.34876 1.03524,0 0.69017,-5.34876 5.5213,-49.34661 15.87373,0 -13.97579,94.3797 -14.49341,0"
               style="font-variant:normal;font-stretch:normal;font-family:League Gothic;-inkscape-font-specification:League Gothic"
               id="path4782" />
            <path
               d="m 337.52888,-725.16085 c 0,-1.55286 0,-3.96844 -0.51762,-5.69384 -0.69016,-1.7254 -2.07049,-2.93319 -4.31352,-2.93319 -2.93318,0 -4.14097,2.24303 -4.65859,5.00368 -0.17254,1.38032 -0.34508,2.93319 -0.34508,4.48605 0,1.55287 0,3.10573 0,4.48606 l -17.4266,0 0,-3.96844 c 0,-6.90161 2.58811,-13.11309 6.72908,-17.77168 4.14097,-4.65859 10.00736,-7.41924 16.73644,-7.41924 5.69383,0 10.87006,2.24303 14.83849,6.03892 3.96843,3.79589 6.384,9.14466 6.384,15.35611 l 0,57.97364 c 0,8.45448 0.51762,12.25038 1.20778,16.39135 l -17.08152,0 c -1.55286,-1.89794 -1.55286,-6.384 -1.55286,-7.59178 l -1.20778,0 c -0.86271,1.55286 -2.41558,3.79589 -4.83114,5.69384 -2.41557,1.89794 -5.69384,3.27827 -9.14465,3.27827 -2.24303,0 -5.86638,-0.86271 -8.62703,-4.31352 -2.93319,-3.27826 -5.34876,-9.14466 -5.34876,-18.97946 0,-10.52497 3.10573,-18.11677 7.2467,-23.29298 4.14097,-5.17621 9.3172,-8.45449 13.63071,-10.69752 4.31351,-2.24302 7.59179,-3.79589 8.28195,-5.69384 l 0,-10.35243 m 0,26.39871 c -8.45448,3.62335 -12.07784,12.07785 -12.07784,21.04995 0,1.20778 0.17254,3.27827 0.8627,5.17622 0.69016,2.07048 1.89795,3.62335 3.96843,3.62335 3.96843,0 7.24671,-2.41557 7.24671,-5.69384 l 0,-24.15568"
               style="font-variant:normal;font-stretch:normal;font-family:League Gothic;-inkscape-font-specification:League Gothic"
               id="path4784" />
            <path
               d="m 400.91327,-729.64691 c -1.55286,-0.51762 -3.27827,-0.69016 -4.83114,-0.69016 -2.76064,0 -6.03892,0.34508 -8.79957,2.93319 -3.27826,2.76065 -3.79589,5.69384 -3.79589,8.62703 l 0,65.56542 -17.4266,0 0,-94.3797 17.4266,0 0,10.52498 c 0.17254,-1.20778 1.38033,-4.14098 4.14097,-6.90163 2.76065,-2.5881 6.90163,-5.00367 13.28563,-5.00367 l 0,19.32454"
               style="font-variant:normal;font-stretch:normal;font-family:League Gothic;-inkscape-font-specification:League Gothic"
               id="path4786" />
            <path
               d="m 429.57117,-770.88411 0,23.29298 11.9053,0 0,15.7012 -11.9053,0 0,46.93104 c 0,2.93318 0,6.72908 0.69017,9.83481 0.69016,3.10573 2.07049,5.69384 4.83113,5.69384 1.38033,0 3.10573,-0.17254 4.31352,-0.34508 0.69016,-0.17254 1.38032,-0.17254 2.07048,-0.34508 l 0,17.08151 c -0.8627,0.17255 -1.7254,0.51763 -2.5881,0.69017 -1.72541,0.34508 -3.96844,0.51762 -6.72909,0.51762 -10.17988,0 -15.01103,-5.17623 -17.4266,-11.73276 -2.41556,-6.55654 -2.58811,-14.49342 -2.58811,-20.01471 l 0,-48.31136 -8.79957,0 0,-15.7012 8.79957,0 0,-23.29298 17.4266,0"
               style="font-variant:normal;font-stretch:normal;font-family:League Gothic;-inkscape-font-specification:League Gothic"
               id="path4788" />
            <path
               d="m 445.78997,-667.35975 23.98315,-64.35764 -20.18725,0 0,-15.87374 38.64909,0 0,14.14833 -23.98314,64.35764 23.98314,0 0,15.87373 -42.44499,0 0,-14.14832"
               style="font-variant:normal;font-stretch:normal;font-family:League Gothic;-inkscape-font-specification:League Gothic"
               id="path4790" />
          </g>
        </g>
      </g>
    </g>
    <g
       id="g3234"
       transform="matrix(1.4188819,0,0,1.4188819,86.174225,-431.10108)">
      <g
         id="g3341"
         transform="matrix(0.83569431,0,0,0.83569431,2.5280846,126.85728)">
        <path
           id="path3155"
           d="m 15.386466,767.76245 2.32188,0 0,-9.90444 c 0.04486,-0.0748 0.112165,-0.17198 0.201903,-0.29164 0.201899,-0.20189 0.385107,-0.30284 0.549624,-0.30285 0.373889,10e-6 0.560836,0.18322 0.56084,0.54962 l 0,9.94931 2.310664,0 0,-10.29703 c -7e-6,-0.6057 -0.138348,-1.14784 -0.415022,-1.62644 -0.336511,-0.55335 -0.777705,-0.83003 -1.323584,-0.83004 -0.201908,10e-6 -0.40381,0.0561 -0.605708,0.16825 -0.276686,0.14957 -0.61319,0.42251 -1.009513,0.81883 -0.164517,0.16452 -0.254251,0.25052 -0.269204,0.25798 l 0,-5.37285 -2.32188,0 0,16.8813"
           inkscape:connector-curvature="0"
           style="font-size:22.97203255px;font-style:normal;font-variant:normal;font-weight:normal;font-stretch:normal;line-height:125%;letter-spacing:0px;word-spacing:0px;fill:#000000;fill-opacity:1;stroke:none;font-family:League Gothic;-inkscape-font-specification:League Gothic" />
        <path
           id="path3157"
           d="m 22.453058,757.28595 1.177765,0 0,6.43845 c -1e-6,1.1516 0.115906,2.03772 0.347722,2.65839 0.388847,1.03942 1.159067,1.55913 2.310663,1.55913 0.373889,0 0.673004,-0.0224 0.897345,-0.0673 0.03739,-0.007 0.09347,-0.0224 0.168252,-0.0449 0.08225,-0.0224 0.142075,-0.0374 0.179469,-0.0449 l 0,-2.27702 c -0.02992,0.007 -0.07478,0.015 -0.134601,0.0224 -0.05983,0.007 -0.104696,0.015 -0.134602,0.0224 -0.209386,0.0299 -0.40381,0.0449 -0.583274,0.0449 -0.321553,0 -0.534672,-0.25051 -0.639359,-0.75153 -0.05983,-0.27668 -0.08974,-0.71413 -0.08973,-1.31236 l 0,-6.24777 1.58157,0 0,-2.08633 -1.58157,0 0,-3.10705 -2.321881,0 0,3.10705 -1.177765,0 0,2.08633"
           inkscape:connector-curvature="0"
           style="font-size:22.97203255px;font-style:normal;font-variant:normal;font-weight:normal;font-stretch:normal;line-height:125%;letter-spacing:0px;word-spacing:0px;fill:#000000;fill-opacity:1;stroke:none;font-family:League Gothic;-inkscape-font-specification:League Gothic" />
        <path
           id="path3159"
           d="m 28.061465,757.28595 1.177766,0 0,6.43845 c -2e-6,1.1516 0.115905,2.03772 0.347721,2.65839 0.388847,1.03942 1.159067,1.55913 2.310663,1.55913 0.373889,0 0.673004,-0.0224 0.897345,-0.0673 0.03739,-0.007 0.09347,-0.0224 0.168252,-0.0449 0.08225,-0.0224 0.142075,-0.0374 0.179469,-0.0449 l 0,-2.27702 c -0.02992,0.007 -0.07478,0.015 -0.134601,0.0224 -0.05983,0.007 -0.104696,0.015 -0.134602,0.0224 -0.209385,0.0299 -0.40381,0.0449 -0.583274,0.0449 -0.321553,0 -0.534672,-0.25051 -0.639359,-0.75153 -0.05983,-0.27668 -0.08974,-0.71413 -0.08973,-1.31236 l 0,-6.24777 1.58157,0 0,-2.08633 -1.58157,0 0,-3.10705 -2.32188,0 0,3.10705 -1.177766,0 0,2.08633"
           inkscape:connector-curvature="0"
           style="font-size:22.97203255px;font-style:normal;font-variant:normal;font-weight:normal;font-stretch:normal;line-height:125%;letter-spacing:0px;word-spacing:0px;fill:#000000;fill-opacity:1;stroke:none;font-family:League Gothic;-inkscape-font-specification:League Gothic" />
        <path
           id="path3161"
           d="m 34.365314,772.08093 2.32188,0 0,-5.14852 c 0.254244,0.22434 0.452408,0.39259 0.594491,0.50476 0.456146,0.3365 0.871168,0.50475 1.245066,0.50475 0.560835,0 1.016985,-0.28042 1.368451,-0.84126 0.276675,-0.45615 0.415016,-0.99455 0.415022,-1.61522 l 0,-8.02002 c -6e-6,-0.6057 -0.138347,-1.14784 -0.415022,-1.62644 -0.366422,-0.55335 -0.822572,-0.83003 -1.368451,-0.83004 -0.231819,10e-6 -0.448677,0.0561 -0.650575,0.16825 -0.373898,0.16453 -0.770225,0.44495 -1.188982,0.84126 l 0,-0.81883 -2.32188,0 0,16.88131 m 2.32188,-7.07781 0,-7.04416 c -3e-6,-0.21685 0.0673,-0.39632 0.201902,-0.53841 0.142077,-0.14954 0.302851,-0.22432 0.482323,-0.22433 0.171987,10e-6 0.317806,0.0748 0.437456,0.22433 0.12712,0.14209 0.190681,0.32156 0.190686,0.53841 l 0,7.04416 c -5e-6,0.21686 -0.06357,0.40007 -0.190686,0.54962 -0.11965,0.14208 -0.265469,0.21312 -0.437456,0.21312 -0.171994,0 -0.32903,-0.0785 -0.471106,-0.23555 -0.142083,-0.16451 -0.213122,-0.34024 -0.213119,-0.52719"
           inkscape:connector-curvature="0"
           style="font-size:22.97203255px;font-style:normal;font-variant:normal;font-weight:normal;font-stretch:normal;line-height:125%;letter-spacing:0px;word-spacing:0px;fill:#000000;fill-opacity:1;stroke:none;font-family:League Gothic;-inkscape-font-specification:League Gothic" />
        <path
           id="path3163"
           d="m 41.992746,767.76245 2.411615,0 0,-2.54621 -2.411615,0 0,2.54621 m 0,-10.01661 2.411615,0 0,-2.54622 -2.411615,0 0,2.54622"
           inkscape:connector-curvature="0"
           style="font-size:22.97203255px;font-style:normal;font-variant:normal;font-weight:normal;font-stretch:normal;line-height:125%;letter-spacing:0px;word-spacing:0px;fill:#000000;fill-opacity:1;stroke:none;font-family:League Gothic;-inkscape-font-specification:League Gothic" />
        <path
           id="path3165"
           d="m 45.335356,769.41133 1.884425,0 6.023428,-18.53018 -1.817123,0 -6.09073,18.53018"
           inkscape:connector-curvature="0"
           style="font-size:22.97203255px;font-style:normal;font-variant:normal;font-weight:normal;font-stretch:normal;line-height:125%;letter-spacing:0px;word-spacing:0px;fill:#000000;fill-opacity:1;stroke:none;font-family:League Gothic;-inkscape-font-specification:League Gothic" />
        <path
           id="path3167"
           d="m 53.411463,769.41133 1.884425,0 6.023428,-18.53018 -1.817123,0 -6.09073,18.53018"
           inkscape:connector-curvature="0"
           style="font-size:22.97203255px;font-style:normal;font-variant:normal;font-weight:normal;font-stretch:normal;line-height:125%;letter-spacing:0px;word-spacing:0px;fill:#000000;fill-opacity:1;stroke:none;font-family:League Gothic;-inkscape-font-specification:League Gothic" />
        <path
           id="path3169"
           d="m 62.317611,772.08093 2.32188,0 0,-5.14852 c 0.254244,0.22434 0.452408,0.39259 0.594491,0.50476 0.456146,0.3365 0.871168,0.50475 1.245066,0.50475 0.560835,0 1.016985,-0.28042 1.368452,-0.84126 0.276674,-0.45615 0.415015,-0.99455 0.415022,-1.61522 l 0,-8.02002 c -7e-6,-0.6057 -0.138348,-1.14784 -0.415022,-1.62644 -0.366422,-0.55335 -0.822572,-0.83003 -1.368452,-0.83004 -0.231819,10e-6 -0.448677,0.0561 -0.650575,0.16825 -0.373898,0.16453 -0.770225,0.44495 -1.188982,0.84126 l 0,-0.81883 -2.32188,0 0,16.88131 m 2.32188,-7.07781 0,-7.04416 c -3e-6,-0.21685 0.0673,-0.39632 0.201903,-0.53841 0.142076,-0.14954 0.30285,-0.22432 0.482323,-0.22433 0.171987,10e-6 0.317805,0.0748 0.437455,0.22433 0.12712,0.14209 0.190682,0.32156 0.190686,0.53841 l 0,7.04416 c -4e-6,0.21686 -0.06357,0.40007 -0.190686,0.54962 -0.11965,0.14208 -0.265468,0.21312 -0.437455,0.21312 -0.171995,0 -0.32903,-0.0785 -0.471106,-0.23555 -0.142083,-0.16451 -0.213123,-0.34024 -0.21312,-0.52719"
           inkscape:connector-curvature="0"
           style="font-size:22.97203255px;font-style:normal;font-variant:normal;font-weight:normal;font-stretch:normal;line-height:125%;letter-spacing:0px;word-spacing:0px;fill:#000000;fill-opacity:1;stroke:none;font-family:League Gothic;-inkscape-font-specification:League Gothic" />
        <path
           id="path3171"
           d="m 69.664623,764.84608 c -1e-6,1.1516 0.239291,1.99286 0.717876,2.52379 0.306591,0.38137 0.687962,0.57205 1.144115,0.57205 0.448669,0 0.856213,-0.14582 1.222632,-0.43745 0.261722,-0.20938 0.474841,-0.45989 0.639359,-0.75153 l 0.157035,0 c -4e-6,0.49354 0.07103,0.83004 0.21312,1.00951 l 2.265796,0 c -0.104697,-0.64309 -0.157042,-1.37219 -0.157036,-2.18727 l 0,-7.71717 c -6e-6,-0.81508 -0.284165,-1.49557 -0.852477,-2.04146 -0.560846,-0.5384 -1.218899,-0.8076 -1.974159,-0.80761 -0.897348,10e-6 -1.637657,0.32904 -2.220929,0.98708 -0.598231,0.67302 -0.897346,1.46193 -0.897345,2.36674 l 0,0.52719 2.32188,0 0,-0.59449 c -3e-6,-0.15702 0.01495,-0.35519 0.04487,-0.59449 0.08225,-0.44118 0.287895,-0.66178 0.616925,-0.66179 0.276677,10e-6 0.467363,0.12714 0.572057,0.38137 0.04486,0.14957 0.0673,0.40382 0.0673,0.76275 l 0,1.37966 c -0.01496,0.0374 -0.03366,0.0748 -0.05608,0.11217 -0.02244,0.0299 -0.05609,0.0636 -0.100951,0.10095 -0.04487,0.0374 -0.08974,0.0711 -0.134602,0.10095 -0.03739,0.0224 -0.09348,0.0561 -0.168252,0.10096 -0.07478,0.0374 -0.138345,0.071 -0.190686,0.10095 -0.04487,0.0224 -0.11965,0.0598 -0.224336,0.11216 -0.09722,0.0524 -0.171995,0.0935 -0.224337,0.12339 -0.777701,0.41129 -1.383408,0.88613 -1.817123,1.42454 -0.643098,0.80013 -0.964647,1.83582 -0.964646,3.10705 m 2.277013,-0.34772 c -3e-6,-0.62814 0.13086,-1.19272 0.392588,-1.69374 0.2692,-0.50849 0.673005,-0.87864 1.211416,-1.11046 l 0,3.21922 c -4e-6,0.21686 -0.09348,0.40007 -0.28042,0.54963 -0.186951,0.14208 -0.415026,0.21312 -0.684226,0.21312 -0.246773,0 -0.422503,-0.16078 -0.52719,-0.48233 -0.07478,-0.21685 -0.112171,-0.44867 -0.112168,-0.69544"
           inkscape:connector-curvature="0"
           style="font-size:22.97203255px;font-style:normal;font-variant:normal;font-weight:normal;font-stretch:normal;line-height:125%;letter-spacing:0px;word-spacing:0px;fill:#000000;fill-opacity:1;stroke:none;font-family:League Gothic;-inkscape-font-specification:League Gothic" />
        <path
           id="path3173"
           d="m 77.437873,767.76245 2.32188,0 0,-8.72668 c -3e-6,-0.48605 0.168249,-0.87116 0.504757,-1.15533 0.269199,-0.25424 0.658048,-0.38136 1.166548,-0.38137 0.254243,1e-5 0.471101,0.0299 0.650575,0.0897 l 0,-2.57986 c -0.702925,10e-6 -1.293676,0.22435 -1.772256,0.67301 -0.164517,0.16452 -0.29538,0.33277 -0.392588,0.50475 -0.08974,0.17201 -0.142083,0.31035 -0.157036,0.41502 l 0,-1.4021 -2.32188,0 0,12.56283"
           inkscape:connector-curvature="0"
           style="font-size:22.97203255px;font-style:normal;font-variant:normal;font-weight:normal;font-stretch:normal;line-height:125%;letter-spacing:0px;word-spacing:0px;fill:#000000;fill-opacity:1;stroke:none;font-family:League Gothic;-inkscape-font-specification:League Gothic" />
        <path
           id="path3175"
           d="m 82.395705,757.28595 1.177765,0 0,6.43845 c -10e-7,1.1516 0.115906,2.03772 0.347722,2.65839 0.388847,1.03942 1.159067,1.55913 2.310663,1.55913 0.373889,0 0.673004,-0.0224 0.897345,-0.0673 0.03738,-0.007 0.09347,-0.0224 0.168252,-0.0449 0.08225,-0.0224 0.142075,-0.0374 0.179469,-0.0449 l 0,-2.27702 c -0.02992,0.007 -0.07478,0.015 -0.134601,0.0224 -0.05983,0.007 -0.104696,0.015 -0.134602,0.0224 -0.209386,0.0299 -0.40381,0.0449 -0.583274,0.0449 -0.321553,0 -0.534672,-0.25051 -0.639359,-0.75153 -0.05983,-0.27668 -0.08974,-0.71413 -0.08973,-1.31236 l 0,-6.24777 1.58157,0 0,-2.08633 -1.58157,0 0,-3.10705 -2.321881,0 0,3.10705 -1.177765,0 0,2.08633"
           inkscape:connector-curvature="0"
           style="font-size:22.97203255px;font-style:normal;font-variant:normal;font-weight:normal;font-stretch:normal;line-height:125%;letter-spacing:0px;word-spacing:0px;fill:#000000;fill-opacity:1;stroke:none;font-family:League Gothic;-inkscape-font-specification:League Gothic" />
        <path
           id="path3177"
           d="m 88.699554,767.76245 2.32188,0 0,-12.56283 -2.32188,0 0,12.56283 m 0,-14.55942 2.32188,0 0,-2.32188 -2.32188,0 0,2.32188"
           inkscape:connector-curvature="0"
           style="font-size:22.97203255px;font-style:normal;font-variant:normal;font-weight:normal;font-stretch:normal;line-height:125%;letter-spacing:0px;word-spacing:0px;fill:#000000;fill-opacity:1;stroke:none;font-family:League Gothic;-inkscape-font-specification:League Gothic" />
        <path
           id="path3179"
           d="m 92.782472,765.48544 c -10e-7,0.63562 0.145818,1.17403 0.437456,1.61522 0.329025,0.56084 0.777697,0.84126 1.346018,0.84126 0.239289,0 0.463625,-0.0523 0.673008,-0.15703 0.343979,-0.15704 0.732828,-0.4412 1.166549,-0.85248 l 0,0.83004 2.32188,0 0,-16.8813 -2.32188,0 0,5.1373 c -0.254252,-0.22432 -0.452416,-0.39258 -0.594491,-0.50476 -0.456154,-0.33649 -0.871176,-0.50474 -1.245066,-0.50475 -0.560843,10e-6 -1.009515,0.27669 -1.346018,0.83004 -0.291638,0.46364 -0.437457,1.00579 -0.437456,1.62644 l 0,8.02002 m 2.321881,-0.48232 0,-7.04416 c -4e-6,-0.21685 0.05982,-0.39632 0.179469,-0.53841 0.119642,-0.14954 0.265461,-0.22432 0.437455,-0.22433 0.171987,10e-6 0.329023,0.0823 0.471106,0.24677 0.142076,0.15704 0.213115,0.32903 0.21312,0.51597 l 0,7.04416 c -5e-6,0.21686 -0.07104,0.40007 -0.21312,0.54962 -0.134605,0.14208 -0.291641,0.21312 -0.471106,0.21312 -0.171994,0 -0.317813,-0.071 -0.437455,-0.21312 -0.11965,-0.14955 -0.179473,-0.33276 -0.179469,-0.54962"
           inkscape:connector-curvature="0"
           style="font-size:22.97203255px;font-style:normal;font-variant:normal;font-weight:normal;font-stretch:normal;line-height:125%;letter-spacing:0px;word-spacing:0px;fill:#000000;fill-opacity:1;stroke:none;font-family:League Gothic;-inkscape-font-specification:League Gothic" />
        <path
           id="path3181"
           d="m 100.37626,764.63296 c 0.0224,0.56832 0.14582,1.12169 0.37015,1.66009 0.49354,1.09925 1.36098,1.64887 2.60231,1.64887 0.75526,0 1.33479,-0.16825 1.7386,-0.50475 0.4038,-0.32903 0.70292,-0.7104 0.89735,-1.14412 0.19441,-0.44119 0.31032,-0.96838 0.34772,-1.58157 l 0,-6.46088 c -0.0224,-0.53092 -0.14583,-1.06559 -0.37016,-1.60401 -0.50102,-1.09176 -1.37219,-1.63764 -2.61351,-1.63765 -0.77023,10e-6 -1.34602,0.16826 -1.72739,0.50475 -0.76275,0.64311 -1.17777,1.57785 -1.24507,2.80421 l 0,6.31506 m 2.18728,0 0,-6.31506 c -0.007,-0.0598 -0.0112,-0.11964 -0.0112,-0.17947 0,-0.17198 0.0262,-0.32528 0.0785,-0.45989 0.11216,-0.42623 0.35146,-0.63935 0.71788,-0.63936 0.21685,10e-6 0.3851,0.0598 0.50475,0.17947 0.19442,0.24678 0.29163,0.57207 0.29164,0.97586 -1e-5,0.0449 -1e-5,0.086 0,0.12339 l 0,6.31506 c 0.007,0.0598 0.0112,0.11965 0.0112,0.17947 -1e-5,0.17947 -0.0262,0.33651 -0.0785,0.47111 -0.1047,0.41128 -0.34773,0.61692 -0.72909,0.61692 -0.20191,0 -0.36268,-0.0598 -0.48233,-0.17947 -0.2019,-0.26172 -0.30285,-0.58327 -0.30285,-0.96464 0,-0.0449 0,-0.086 0,-0.12339"
           inkscape:connector-curvature="0"
           style="font-size:22.97203255px;font-style:normal;font-variant:normal;font-weight:normal;font-stretch:normal;line-height:125%;letter-spacing:0px;word-spacing:0px;fill:#000000;fill-opacity:1;stroke:none;font-family:League Gothic;-inkscape-font-specification:League Gothic" />
        <path
           id="path3183"
           d="m 107.94761,772.08093 2.32188,0 0,-5.14852 c 0.25424,0.22434 0.45241,0.39259 0.59449,0.50476 0.45615,0.3365 0.87117,0.50475 1.24507,0.50475 0.56083,0 1.01698,-0.28042 1.36845,-0.84126 0.27667,-0.45615 0.41501,-0.99455 0.41502,-1.61522 l 0,-8.02002 c -1e-5,-0.6057 -0.13835,-1.14784 -0.41502,-1.62644 -0.36642,-0.55335 -0.82257,-0.83003 -1.36845,-0.83004 -0.23182,10e-6 -0.44868,0.0561 -0.65058,0.16825 -0.3739,0.16453 -0.77022,0.44495 -1.18898,0.84126 l 0,-0.81883 -2.32188,0 0,16.88131 m 2.32188,-7.07781 0,-7.04416 c 0,-0.21685 0.0673,-0.39632 0.2019,-0.53841 0.14208,-0.14954 0.30285,-0.22432 0.48233,-0.22433 0.17198,10e-6 0.3178,0.0748 0.43745,0.22433 0.12712,0.14209 0.19068,0.32156 0.19069,0.53841 l 0,7.04416 c -1e-5,0.21686 -0.0636,0.40007 -0.19069,0.54962 -0.11965,0.14208 -0.26547,0.21312 -0.43745,0.21312 -0.172,0 -0.32903,-0.0785 -0.47111,-0.23555 -0.14208,-0.16451 -0.21312,-0.34024 -0.21312,-0.52719"
           inkscape:connector-curvature="0"
           style="font-size:22.97203255px;font-style:normal;font-variant:normal;font-weight:normal;font-stretch:normal;line-height:125%;letter-spacing:0px;word-spacing:0px;fill:#000000;fill-opacity:1;stroke:none;font-family:League Gothic;-inkscape-font-specification:League Gothic" />
        <path
           id="path3185"
           d="m 115.66477,767.76245 2.32188,0 0,-12.56283 -2.32188,0 0,12.56283 m 0,-14.55942 2.32188,0 0,-2.32188 -2.32188,0 0,2.32188"
           inkscape:connector-curvature="0"
           style="font-size:22.97203255px;font-style:normal;font-variant:normal;font-weight:normal;font-stretch:normal;line-height:125%;letter-spacing:0px;word-spacing:0px;fill:#000000;fill-opacity:1;stroke:none;font-family:League Gothic;-inkscape-font-specification:League Gothic" />
        <path
           id="path3187"
           d="m 119.83743,767.76245 2.32188,0 0,-8.72668 c -1e-5,-0.48605 0.16825,-0.87116 0.50475,-1.15533 0.2692,-0.25424 0.65805,-0.38136 1.16655,-0.38137 0.25424,1e-5 0.4711,0.0299 0.65058,0.0897 l 0,-2.57986 c -0.70293,10e-6 -1.29368,0.22435 -1.77226,0.67301 -0.16452,0.16452 -0.29538,0.33277 -0.39259,0.50475 -0.0897,0.17201 -0.14208,0.31035 -0.15703,0.41502 l 0,-1.4021 -2.32188,0 0,12.56283"
           inkscape:connector-curvature="0"
           style="font-size:22.97203255px;font-style:normal;font-variant:normal;font-weight:normal;font-stretch:normal;line-height:125%;letter-spacing:0px;word-spacing:0px;fill:#000000;fill-opacity:1;stroke:none;font-family:League Gothic;-inkscape-font-specification:League Gothic" />
        <path
           id="path3189"
           d="m 125.12055,764.84608 c 0,1.1516 0.23929,1.99286 0.71787,2.52379 0.30659,0.38137 0.68796,0.57205 1.14412,0.57205 0.44867,0 0.85621,-0.14582 1.22263,-0.43745 0.26172,-0.20938 0.47484,-0.45989 0.63936,-0.75153 l 0.15703,0 c 0,0.49354 0.071,0.83004 0.21312,1.00951 l 2.2658,0 c -0.1047,-0.64309 -0.15704,-1.37219 -0.15704,-2.18727 l 0,-7.71717 c 0,-0.81508 -0.28416,-1.49557 -0.85247,-2.04146 -0.56085,-0.5384 -1.2189,-0.8076 -1.97416,-0.80761 -0.89735,10e-6 -1.63766,0.32904 -2.22093,0.98708 -0.59823,0.67302 -0.89735,1.46193 -0.89735,2.36674 l 0,0.52719 2.32188,0 0,-0.59449 c 0,-0.15702 0.015,-0.35519 0.0449,-0.59449 0.0823,-0.44118 0.2879,-0.66178 0.61692,-0.66179 0.27668,10e-6 0.46737,0.12714 0.57206,0.38137 0.0449,0.14957 0.0673,0.40382 0.0673,0.76275 l 0,1.37966 c -0.015,0.0374 -0.0336,0.0748 -0.0561,0.11217 -0.0224,0.0299 -0.0561,0.0636 -0.10095,0.10095 -0.0449,0.0374 -0.0897,0.0711 -0.1346,0.10095 -0.0374,0.0224 -0.0935,0.0561 -0.16826,0.10096 -0.0748,0.0374 -0.13834,0.071 -0.19068,0.10095 -0.0449,0.0224 -0.11965,0.0598 -0.22434,0.11216 -0.0972,0.0524 -0.17199,0.0935 -0.22433,0.12339 -0.77771,0.41129 -1.38341,0.88613 -1.81713,1.42454 -0.6431,0.80013 -0.96464,1.83582 -0.96464,3.10705 m 2.27701,-0.34772 c 0,-0.62814 0.13086,-1.19272 0.39259,-1.69374 0.2692,-0.50849 0.673,-0.87864 1.21141,-1.11046 l 0,3.21922 c 0,0.21686 -0.0935,0.40007 -0.28042,0.54963 -0.18695,0.14208 -0.41502,0.21312 -0.68422,0.21312 -0.24678,0 -0.42251,-0.16078 -0.52719,-0.48233 -0.0748,-0.21685 -0.11217,-0.44867 -0.11217,-0.69544"
           inkscape:connector-curvature="0"
           style="font-size:22.97203255px;font-style:normal;font-variant:normal;font-weight:normal;font-stretch:normal;line-height:125%;letter-spacing:0px;word-spacing:0px;fill:#000000;fill-opacity:1;stroke:none;font-family:League Gothic;-inkscape-font-specification:League Gothic" />
        <path
           id="path3191"
           d="m 132.19836,757.28595 1.17776,0 0,6.43845 c 0,1.1516 0.11591,2.03772 0.34772,2.65839 0.38885,1.03942 1.15907,1.55913 2.31067,1.55913 0.37389,0 0.673,-0.0224 0.89734,-0.0673 0.0374,-0.007 0.0935,-0.0224 0.16825,-0.0449 0.0823,-0.0224 0.14208,-0.0374 0.17947,-0.0449 l 0,-2.27702 c -0.0299,0.007 -0.0748,0.015 -0.1346,0.0224 -0.0598,0.007 -0.10469,0.015 -0.1346,0.0224 -0.20939,0.0299 -0.40381,0.0449 -0.58327,0.0449 -0.32156,0 -0.53468,-0.25051 -0.63936,-0.75153 -0.0598,-0.27668 -0.0897,-0.71413 -0.0897,-1.31236 l 0,-6.24777 1.58157,0 0,-2.08633 -1.58157,0 0,-3.10705 -2.32188,0 0,3.10705 -1.17776,0 0,2.08633"
           inkscape:connector-curvature="0"
           style="font-size:22.97203255px;font-style:normal;font-variant:normal;font-weight:normal;font-stretch:normal;line-height:125%;letter-spacing:0px;word-spacing:0px;fill:#000000;fill-opacity:1;stroke:none;font-family:League Gothic;-inkscape-font-specification:League Gothic" />
        <path
           id="path3193"
           d="m 138.13205,764.84608 c 0,1.1516 0.23929,1.99286 0.71788,2.52379 0.30659,0.38137 0.68796,0.57205 1.14411,0.57205 0.44867,0 0.85622,-0.14582 1.22263,-0.43745 0.26173,-0.20938 0.47485,-0.45989 0.63936,-0.75153 l 0.15704,0 c -1e-5,0.49354 0.071,0.83004 0.21312,1.00951 l 2.26579,0 c -0.10469,-0.64309 -0.15704,-1.37219 -0.15703,-2.18727 l 0,-7.71717 c -1e-5,-0.81508 -0.28417,-1.49557 -0.85248,-2.04146 -0.56085,-0.5384 -1.2189,-0.8076 -1.97416,-0.80761 -0.89735,10e-6 -1.63766,0.32904 -2.22093,0.98708 -0.59823,0.67302 -0.89734,1.46193 -0.89734,2.36674 l 0,0.52719 2.32188,0 0,-0.59449 c 0,-0.15702 0.0149,-0.35519 0.0449,-0.59449 0.0822,-0.44118 0.28789,-0.66178 0.61692,-0.66179 0.27668,10e-6 0.46736,0.12714 0.57206,0.38137 0.0449,0.14957 0.0673,0.40382 0.0673,0.76275 l 0,1.37966 c -0.015,0.0374 -0.0337,0.0748 -0.0561,0.11217 -0.0224,0.0299 -0.0561,0.0636 -0.10095,0.10095 -0.0449,0.0374 -0.0897,0.0711 -0.1346,0.10095 -0.0374,0.0224 -0.0935,0.0561 -0.16825,0.10096 -0.0748,0.0374 -0.13835,0.071 -0.19069,0.10095 -0.0449,0.0224 -0.11965,0.0598 -0.22433,0.11216 -0.0972,0.0524 -0.172,0.0935 -0.22434,0.12339 -0.7777,0.41129 -1.38341,0.88613 -1.81712,1.42454 -0.6431,0.80013 -0.96465,1.83582 -0.96465,3.10705 m 2.27701,-0.34772 c 0,-0.62814 0.13086,-1.19272 0.39259,-1.69374 0.2692,-0.50849 0.67301,-0.87864 1.21142,-1.11046 l 0,3.21922 c -1e-5,0.21686 -0.0935,0.40007 -0.28042,0.54963 -0.18695,0.14208 -0.41503,0.21312 -0.68423,0.21312 -0.24677,0 -0.4225,-0.16078 -0.52719,-0.48233 -0.0748,-0.21685 -0.11217,-0.44867 -0.11217,-0.69544"
           inkscape:connector-curvature="0"
           style="font-size:22.97203255px;font-style:normal;font-variant:normal;font-weight:normal;font-stretch:normal;line-height:125%;letter-spacing:0px;word-spacing:0px;fill:#000000;fill-opacity:1;stroke:none;font-family:League Gothic;-inkscape-font-specification:League Gothic" />
        <path
           id="path3195"
           d="m 145.58001,767.76245 2.41161,0 0,-2.54621 -2.41161,0 0,2.54621"
           inkscape:connector-curvature="0"
           style="font-size:22.97203255px;font-style:normal;font-variant:normal;font-weight:normal;font-stretch:normal;line-height:125%;letter-spacing:0px;word-spacing:0px;fill:#000000;fill-opacity:1;stroke:none;font-family:League Gothic;-inkscape-font-specification:League Gothic" />
        <path
           id="path3197"
           d="m 149.31521,764.22916 c 0,1.33854 0.28042,2.31066 0.84127,2.91637 0.48606,0.53093 1.19271,0.79639 2.11997,0.79639 1.01699,0 1.7573,-0.25051 2.22093,-0.75152 0.50849,-0.55337 0.76274,-1.50305 0.76275,-2.84907 l 0,-1.22264 -2.32189,0 0,1.74983 c 0,0.38885 -0.0449,0.65431 -0.1346,0.79639 -0.0897,0.14208 -0.26547,0.21312 -0.52719,0.21312 -0.19443,0 -0.34398,-0.0561 -0.44867,-0.16825 -0.0972,-0.11965 -0.15704,-0.23929 -0.17947,-0.35894 -0.015,-0.12712 -0.0224,-0.2879 -0.0224,-0.48232 l 0,-6.77496 c -1e-5,-0.19441 0.007,-0.35145 0.0224,-0.47111 0.0224,-0.12711 0.0822,-0.24675 0.17947,-0.35893 0.10469,-0.11964 0.25424,-0.17946 0.44867,-0.17947 0.26172,10e-6 0.43745,0.0711 0.52719,0.21312 0.0897,0.14209 0.1346,0.40755 0.1346,0.79639 l 0,1.51427 2.32189,0 0,-0.98708 c -1e-5,-1.34601 -0.25426,-2.2957 -0.76275,-2.84907 -0.46363,-0.50848 -1.20394,-0.76273 -2.22093,-0.76274 -0.91978,10e-6 -1.62644,0.26921 -2.11997,0.80761 -0.56085,0.60572 -0.84127,1.57784 -0.84127,2.91637 l 0,5.49624"
           inkscape:connector-curvature="0"
           style="font-size:22.97203255px;font-style:normal;font-variant:normal;font-weight:normal;font-stretch:normal;line-height:125%;letter-spacing:0px;word-spacing:0px;fill:#000000;fill-opacity:1;stroke:none;font-family:League Gothic;-inkscape-font-specification:League Gothic" />
        <path
           id="path3199"
           d="m 156.5052,764.63296 c 0.0224,0.56832 0.14581,1.12169 0.37015,1.66009 0.49354,1.09925 1.36097,1.64887 2.6023,1.64887 0.75526,0 1.3348,-0.16825 1.73861,-0.50475 0.4038,-0.32903 0.70291,-0.7104 0.89734,-1.14412 0.19442,-0.44119 0.31033,-0.96838 0.34772,-1.58157 l 0,-6.46088 c -0.0224,-0.53092 -0.14582,-1.06559 -0.37015,-1.60401 -0.50102,-1.09176 -1.3722,-1.63764 -2.61352,-1.63765 -0.77022,10e-6 -1.34602,0.16826 -1.72739,0.50475 -0.76274,0.64311 -1.17776,1.57785 -1.24506,2.80421 l 0,6.31506 m 2.18728,0 0,-6.31506 c -0.007,-0.0598 -0.0112,-0.11964 -0.0112,-0.17947 0,-0.17198 0.0262,-0.32528 0.0785,-0.45989 0.11216,-0.42623 0.35145,-0.63935 0.71787,-0.63936 0.21686,10e-6 0.38511,0.0598 0.50476,0.17947 0.19442,0.24678 0.29163,0.57207 0.29164,0.97586 -10e-6,0.0449 -10e-6,0.086 0,0.12339 l 0,6.31506 c 0.007,0.0598 0.0112,0.11965 0.0112,0.17947 0,0.17947 -0.0262,0.33651 -0.0785,0.47111 -0.1047,0.41128 -0.34773,0.61692 -0.7291,0.61692 -0.2019,0 -0.36268,-0.0598 -0.48232,-0.17947 -0.20191,-0.26172 -0.30286,-0.58327 -0.30285,-0.96464 -1e-5,-0.0449 -1e-5,-0.086 0,-0.12339"
           inkscape:connector-curvature="0"
           style="font-size:22.97203255px;font-style:normal;font-variant:normal;font-weight:normal;font-stretch:normal;line-height:125%;letter-spacing:0px;word-spacing:0px;fill:#000000;fill-opacity:1;stroke:none;font-family:League Gothic;-inkscape-font-specification:League Gothic" />
        <path
           id="path3201"
           d="m 164.07653,767.76245 2.32188,0 0,-9.90444 c 0.0449,-0.0748 0.12712,-0.17198 0.24677,-0.29164 0.2019,-0.20189 0.41128,-0.30284 0.62814,-0.30285 0.41128,10e-6 0.61692,0.18322 0.61693,0.54962 l 0,9.94931 2.17606,0 0,-9.90444 c 0.0299,-0.0598 0.1159,-0.15703 0.25799,-0.29164 0.20189,-0.20189 0.40753,-0.30284 0.61692,-0.30285 0.41875,10e-6 0.62813,0.18322 0.62814,0.54962 l 0,9.94931 2.17606,0 0,-10.29703 c -1e-5,-0.6057 -0.13835,-1.14784 -0.41502,-1.62644 -0.33651,-0.55335 -0.78145,-0.83003 -1.3348,-0.83004 -0.17948,10e-6 -0.38512,0.0636 -0.61692,0.19068 -0.45616,0.26922 -0.83005,0.56086 -1.12168,0.87491 -0.15705,0.15705 -0.28043,0.26922 -0.37016,0.33651 -0.32903,-0.93472 -0.84874,-1.40209 -1.55914,-1.4021 -0.19443,10e-6 -0.39259,0.0561 -0.59449,0.16825 -0.35894,0.19444 -0.71414,0.46738 -1.06559,0.81883 -0.16452,0.16452 -0.25426,0.25052 -0.26921,0.25798 l 0,-1.05438 -2.32188,0 0,12.56283"
           inkscape:connector-curvature="0"
           style="font-size:22.97203255px;font-style:normal;font-variant:normal;font-weight:normal;font-stretch:normal;line-height:125%;letter-spacing:0px;word-spacing:0px;fill:#000000;fill-opacity:1;stroke:none;font-family:League Gothic;-inkscape-font-specification:League Gothic" />
        <path
           id="path3203"
           d="m 175.19241,767.76245 2.41161,0 0,-2.54621 -2.41161,0 0,2.54621"
           inkscape:connector-curvature="0"
           style="font-size:22.97203255px;font-style:normal;font-variant:normal;font-weight:normal;font-stretch:normal;line-height:125%;letter-spacing:0px;word-spacing:0px;fill:#000000;fill-opacity:1;stroke:none;font-family:League Gothic;-inkscape-font-specification:League Gothic" />
        <path
           id="path3205"
           d="m 178.73691,764.84608 c 0,1.1516 0.23929,1.99286 0.71788,2.52379 0.30659,0.38137 0.68796,0.57205 1.14411,0.57205 0.44867,0 0.85621,-0.14582 1.22263,-0.43745 0.26172,-0.20938 0.47484,-0.45989 0.63936,-0.75153 l 0.15704,0 c -1e-5,0.49354 0.071,0.83004 0.21312,1.00951 l 2.26579,0 c -0.10469,-0.64309 -0.15704,-1.37219 -0.15703,-2.18727 l 0,-7.71717 c -1e-5,-0.81508 -0.28417,-1.49557 -0.85248,-2.04146 -0.56085,-0.5384 -1.2189,-0.8076 -1.97416,-0.80761 -0.89735,10e-6 -1.63766,0.32904 -2.22093,0.98708 -0.59823,0.67302 -0.89734,1.46193 -0.89734,2.36674 l 0,0.52719 2.32188,0 0,-0.59449 c -1e-5,-0.15702 0.0149,-0.35519 0.0449,-0.59449 0.0823,-0.44118 0.2879,-0.66178 0.61693,-0.66179 0.27668,10e-6 0.46736,0.12714 0.57206,0.38137 0.0449,0.14957 0.0673,0.40382 0.0673,0.76275 l 0,1.37966 c -0.015,0.0374 -0.0337,0.0748 -0.0561,0.11217 -0.0224,0.0299 -0.0561,0.0636 -0.10095,0.10095 -0.0449,0.0374 -0.0897,0.0711 -0.1346,0.10095 -0.0374,0.0224 -0.0935,0.0561 -0.16825,0.10096 -0.0748,0.0374 -0.13835,0.071 -0.19069,0.10095 -0.0449,0.0224 -0.11965,0.0598 -0.22433,0.11216 -0.0972,0.0524 -0.172,0.0935 -0.22434,0.12339 -0.7777,0.41129 -1.38341,0.88613 -1.81712,1.42454 -0.6431,0.80013 -0.96465,1.83582 -0.96465,3.10705 m 2.27701,-0.34772 c 0,-0.62814 0.13086,-1.19272 0.39259,-1.69374 0.2692,-0.50849 0.67301,-0.87864 1.21142,-1.11046 l 0,3.21922 c -1e-5,0.21686 -0.0935,0.40007 -0.28042,0.54963 -0.18695,0.14208 -0.41503,0.21312 -0.68423,0.21312 -0.24677,0 -0.4225,-0.16078 -0.52719,-0.48233 -0.0748,-0.21685 -0.11217,-0.44867 -0.11217,-0.69544"
           inkscape:connector-curvature="0"
           style="font-size:22.97203255px;font-style:normal;font-variant:normal;font-weight:normal;font-stretch:normal;line-height:125%;letter-spacing:0px;word-spacing:0px;fill:#000000;fill-opacity:1;stroke:none;font-family:League Gothic;-inkscape-font-specification:League Gothic" />
        <path
           id="path3207"
           d="m 186.51016,767.76245 2.32188,0 0,-8.72668 c -1e-5,-0.48605 0.16824,-0.87116 0.50475,-1.15533 0.2692,-0.25424 0.65805,-0.38136 1.16655,-0.38137 0.25424,1e-5 0.4711,0.0299 0.65058,0.0897 l 0,-2.57986 c -0.70293,10e-6 -1.29368,0.22435 -1.77226,0.67301 -0.16452,0.16452 -0.29538,0.33277 -0.39259,0.50475 -0.0897,0.17201 -0.14208,0.31035 -0.15703,0.41502 l 0,-1.4021 -2.32188,0 0,12.56283"
           inkscape:connector-curvature="0"
           style="font-size:22.97203255px;font-style:normal;font-variant:normal;font-weight:normal;font-stretch:normal;line-height:125%;letter-spacing:0px;word-spacing:0px;fill:#000000;fill-opacity:1;stroke:none;font-family:League Gothic;-inkscape-font-specification:League Gothic" />
      </g>
      <g
         id="text3150"
         style="font-size:40px;font-style:normal;font-variant:normal;font-weight:normal;font-stretch:normal;line-height:125%;letter-spacing:0px;word-spacing:0px;fill:#000000;fill-opacity:1;stroke:none;font-family:League Gothic;-inkscape-font-specification:League Gothic"
         transform="translate(0.02030509,-1.0295417)">
        <path
           id="path3210"
           d="m 15.133927,798.46985 c 0.03906,1.23698 0.279946,2.30469 0.722657,3.20312 0.390622,0.8724 0.950517,1.58855 1.679687,2.14844 0.820308,0.66406 1.940098,0.99609 3.359375,0.99609 1.393221,0 2.49999,-0.33203 3.320313,-0.99609 0.768217,-0.58594 1.341133,-1.30208 1.71875,-2.14844 0.442695,-0.89843 0.68358,-1.96614 0.722656,-3.20312 l 0,-23.35938 -4.316406,0 0,23.35938 c -9e-6,0.44271 -0.0586,0.80079 -0.175782,1.07422 -0.1823,0.71615 -0.605476,1.07422 -1.269531,1.07422 -0.351569,0 -0.631517,-0.10417 -0.839844,-0.3125 -0.403652,-0.46875 -0.605474,-1.08073 -0.605468,-1.83594 l 0,-23.35938 -4.316407,0 0,23.35938"
           inkscape:connector-curvature="0" />
        <path
           id="path3212"
           d="m 28.571427,786.26282 2.050782,0 0,11.21093 c -3e-6,2.00522 0.20182,3.54819 0.605468,4.62891 0.67708,1.8099 2.018224,2.71484 4.023438,2.71484 0.651034,0 1.171867,-0.0391 1.5625,-0.11718 0.06509,-0.013 0.162751,-0.0391 0.292969,-0.0781 0.14322,-0.0391 0.247386,-0.0651 0.3125,-0.0781 l 0,-3.96485 c -0.05209,0.013 -0.130218,0.0261 -0.234375,0.0391 -0.104176,0.013 -0.182301,0.026 -0.234375,0.0391 -0.364592,0.0521 -0.703133,0.0781 -1.015625,0.0781 -0.559903,10e-6 -0.930997,-0.43619 -1.113282,-1.30859 -0.104173,-0.48177 -0.156256,-1.24348 -0.15625,-2.28516 l 0,-10.8789 2.753907,0 0,-3.63282 -2.753907,0 0,-5.41015 -4.042968,0 0,5.41015 -2.050782,0 0,3.63282"
           inkscape:connector-curvature="0" />
        <path
           id="path3214"
           d="m 39.176896,799.05579 c 0.03906,0.98958 0.253905,1.95312 0.644531,2.89062 0.859373,1.91406 2.369788,2.87109 4.53125,2.87109 1.315097,0 2.32421,-0.29296 3.027344,-0.8789 0.703115,-0.57292 1.223948,-1.23698 1.5625,-1.99219 0.33853,-0.76822 0.540353,-1.68619 0.605469,-2.75391 l 0,-11.25 c -0.03907,-0.92446 -0.253918,-1.85545 -0.644531,-2.79296 -0.872406,-1.90102 -2.389332,-2.85154 -4.550782,-2.85157 -1.341151,3e-5 -2.343754,0.29299 -3.007812,0.87891 -1.328127,1.11981 -2.050783,2.74741 -2.167969,4.88281 l 0,10.9961 m 3.808594,0 0,-10.9961 c -0.01303,-0.10415 -0.01954,-0.20831 -0.01953,-0.3125 -5e-6,-0.29946 0.04557,-0.56639 0.136718,-0.80078 0.195307,-0.74217 0.611974,-1.11326 1.25,-1.11328 0.377598,2e-5 0.670566,0.10419 0.878907,0.3125 0.338534,0.42971 0.507804,0.99611 0.507812,1.69922 -8e-6,0.0781 -8e-6,0.14975 0,0.21484 l 0,10.9961 c 0.01301,0.10417 0.01952,0.20833 0.01953,0.3125 -7e-6,0.3125 -0.04558,0.58594 -0.136718,0.82031 -0.1823,0.71615 -0.605476,1.07422 -1.269532,1.07422 -0.351568,0 -0.631516,-0.10417 -0.839843,-0.3125 -0.351568,-0.45573 -0.527349,-1.01562 -0.527344,-1.67969 -5e-6,-0.0781 -5e-6,-0.14973 0,-0.21484"
           inkscape:connector-curvature="0" />
        <path
           id="path3216"
           d="m 52.36049,812.02454 4.042969,0 0,-8.96485 c 0.442702,0.39063 0.787754,0.6836 1.035156,0.87891 0.794263,0.58594 1.516919,0.8789 2.167969,0.8789 0.976552,0 1.770822,-0.48828 2.382812,-1.46484 0.481759,-0.79427 0.722644,-1.73177 0.722656,-2.8125 l 0,-13.96484 c -1.2e-5,-1.05467 -0.240897,-1.99868 -0.722656,-2.83203 -0.638031,-0.96352 -1.432301,-1.44529 -2.382812,-1.44532 -0.403655,3e-5 -0.781258,0.0977 -1.132813,0.29297 -0.651049,0.28648 -1.341152,0.77476 -2.070312,1.46485 l 0,-1.42579 -4.042969,0 0,29.39454 m 4.042969,-12.32422 0,-12.26563 c -6e-6,-0.37758 0.117181,-0.69008 0.351562,-0.9375 0.24739,-0.2604 0.527337,-0.3906 0.839844,-0.39062 0.299472,2e-5 0.553378,0.13022 0.761719,0.39062 0.221346,0.24742 0.332023,0.55992 0.332031,0.9375 l 0,12.26563 c -8e-6,0.37761 -0.110685,0.69662 -0.332031,0.95703 -0.208341,0.2474 -0.462247,0.3711 -0.761719,0.37109 -0.299486,10e-6 -0.572923,-0.13671 -0.820313,-0.41015 -0.247401,-0.28646 -0.371099,-0.59245 -0.371093,-0.91797"
           inkscape:connector-curvature="0" />
        <path
           id="path3218"
           d="m 65.79799,804.505 4.042969,0 0,-21.875 -4.042969,0 0,21.875 m 0,-25.48828 3.125,0 3.144531,-3.59375 -4.199219,0 -2.070312,3.59375"
           inkscape:connector-curvature="0" />
        <path
           id="path3220"
           d="m 72.419084,799.42688 c -10e-7,2.00521 0.416665,3.47005 1.25,4.39453 0.533851,0.66406 1.197913,0.99609 1.992187,0.99609 0.781245,0 1.49088,-0.2539 2.128906,-0.76171 0.455723,-0.36459 0.826816,-0.80078 1.113282,-1.3086 l 0.273437,0 c -8e-6,0.85938 0.12369,1.44532 0.371094,1.75781 l 3.945312,0 c -0.182303,-1.11979 -0.273449,-2.38932 -0.273437,-3.80859 l 0,-13.4375 c -1.2e-5,-1.41925 -0.494803,-2.60415 -1.484375,-3.55469 -0.976572,-0.93747 -2.122404,-1.40622 -3.4375,-1.40625 -1.562505,3e-5 -2.851567,0.57294 -3.867188,1.71875 -1.041668,1.1719 -1.562501,2.54559 -1.5625,4.1211 l 0,0.91797 4.042969,0 0,-1.03516 c -5e-6,-0.27342 0.02604,-0.61847 0.07813,-1.03516 0.143224,-0.76821 0.501296,-1.15232 1.074219,-1.15234 0.481764,2e-5 0.813795,0.22137 0.996094,0.66406 0.07812,0.26044 0.117179,0.70314 0.117187,1.32813 l 0,2.40234 c -0.02605,0.0651 -0.0586,0.13022 -0.09766,0.19531 -0.03907,0.0521 -0.09766,0.11069 -0.175781,0.17578 -0.07813,0.0651 -0.156258,0.12372 -0.234375,0.17579 -0.06511,0.0391 -0.162768,0.0977 -0.292969,0.17578 -0.130215,0.0651 -0.240892,0.12371 -0.332031,0.17578 -0.07813,0.0391 -0.20834,0.10418 -0.390625,0.19531 -0.169277,0.0912 -0.299485,0.16277 -0.390625,0.21484 -1.354172,0.71616 -2.408858,1.54299 -3.164063,2.48047 -1.119793,1.39324 -1.679688,3.19663 -1.679687,5.41016 m 3.964843,-0.60547 c -5e-6,-1.09374 0.22786,-2.07681 0.683594,-2.94922 0.468744,-0.8854 1.171868,-1.52994 2.109375,-1.93359 l 0,5.60547 c -8e-6,0.37761 -0.162768,0.69662 -0.488281,0.95703 -0.325528,0.2474 -0.722663,0.3711 -1.191406,0.37109 -0.429694,10e-6 -0.735683,-0.27994 -0.917969,-0.83984 -0.130213,-0.3776 -0.195318,-0.78125 -0.195313,-1.21094"
           inkscape:connector-curvature="0" />
        <path
           id="path3222"
           d="m 92.126115,804.505 4.316406,0 0,-11.75781 c 2.109367,10e-6 3.841139,-0.63801 5.195309,-1.91406 1.60155,-1.5104 2.40233,-3.8216 2.40235,-6.93359 -2e-5,-3.12498 -0.8008,-5.44269 -2.40235,-6.95313 -1.28907,-1.22393 -3.020838,-1.83591 -5.195309,-1.83594 l -4.316406,0 0,29.39453 m 4.316406,-16.15234 0,-8.84766 c 1.289055,3e-5 2.167961,0.34508 2.636719,1.03516 0.403637,0.59898 0.605459,1.77086 0.605469,3.51563 -1e-5,1.71876 -0.201832,2.84507 -0.605469,3.3789 -0.442717,0.612 -1.321622,0.91799 -2.636719,0.91797"
           inkscape:connector-curvature="0" />
        <path
           id="path3224"
           d="m 106.18861,804.505 4.04297,0 0,-21.875 -4.04297,0 0,21.875 m 0,-25.35156 4.04297,0 0,-4.04297 -4.04297,0 0,4.04297"
           inkscape:connector-curvature="0" />
        <path
           id="path3226"
           d="m 113.45424,804.505 4.04297,0 0,-15.19531 c -10e-6,-0.84634 0.29296,-1.51691 0.8789,-2.01172 0.46875,-0.44269 1.14583,-0.66404 2.03125,-0.66406 0.4427,2e-5 0.82031,0.0521 1.13282,0.15625 l 0,-4.49219 c -1.22397,3e-5 -2.25261,0.39065 -3.08594,1.17188 -0.28646,0.28648 -0.51433,0.57945 -0.68359,0.8789 -0.15626,0.2995 -0.24741,0.54039 -0.27344,0.72266 l 0,-2.44141 -4.04297,0 0,21.875"
           inkscape:connector-curvature="0" />
        <path
           id="path3228"
           d="m 122.65346,799.42688 c 0,2.00521 0.41666,3.47005 1.25,4.39453 0.53385,0.66406 1.19791,0.99609 1.99219,0.99609 0.78124,0 1.49088,-0.2539 2.1289,-0.76171 0.45572,-0.36459 0.82682,-0.80078 1.11328,-1.3086 l 0.27344,0 c -1e-5,0.85938 0.12369,1.44532 0.37109,1.75781 l 3.94532,0 c -0.18231,-1.11979 -0.27345,-2.38932 -0.27344,-3.80859 l 0,-13.4375 c -1e-5,-1.41925 -0.4948,-2.60415 -1.48438,-3.55469 -0.97657,-0.93747 -2.1224,-1.40622 -3.4375,-1.40625 -1.5625,3e-5 -2.85156,0.57294 -3.86718,1.71875 -1.04167,1.1719 -1.5625,2.54559 -1.5625,4.1211 l 0,0.91797 4.04297,0 0,-1.03516 c -1e-5,-0.27342 0.026,-0.61847 0.0781,-1.03516 0.14322,-0.76821 0.5013,-1.15232 1.07422,-1.15234 0.48176,2e-5 0.81379,0.22137 0.99609,0.66406 0.0781,0.26044 0.11718,0.70314 0.11719,1.32813 l 0,2.40234 c -0.026,0.0651 -0.0586,0.13022 -0.0977,0.19531 -0.0391,0.0521 -0.0977,0.11069 -0.17578,0.17578 -0.0781,0.0651 -0.15625,0.12372 -0.23437,0.17579 -0.0651,0.0391 -0.16277,0.0977 -0.29297,0.17578 -0.13022,0.0651 -0.24089,0.12371 -0.33203,0.17578 -0.0781,0.0391 -0.20834,0.10418 -0.39063,0.19531 -0.16927,0.0912 -0.29948,0.16277 -0.39062,0.21484 -1.35417,0.71616 -2.40886,1.54299 -3.16406,2.48047 -1.1198,1.39324 -1.67969,3.19663 -1.67969,5.41016 m 3.96484,-0.60547 c 0,-1.09374 0.22786,-2.07681 0.6836,-2.94922 0.46874,-0.8854 1.17186,-1.52994 2.10937,-1.93359 l 0,5.60547 c -1e-5,0.37761 -0.16277,0.69662 -0.48828,0.95703 -0.32553,0.2474 -0.72266,0.3711 -1.19141,0.37109 -0.42969,10e-6 -0.73568,-0.27994 -0.91797,-0.83984 -0.13021,-0.3776 -0.19531,-0.78125 -0.19531,-1.21094"
           inkscape:connector-curvature="0" />
        <path
           id="path3230"
           d="m 134.97768,786.26282 2.05078,0 0,11.21093 c 0,2.00522 0.20182,3.54819 0.60547,4.62891 0.67708,1.8099 2.01822,2.71484 4.02343,2.71484 0.65104,0 1.17187,-0.0391 1.5625,-0.11718 0.0651,-0.013 0.16276,-0.0391 0.29297,-0.0781 0.14322,-0.0391 0.24739,-0.0651 0.3125,-0.0781 l 0,-3.96485 c -0.0521,0.013 -0.13021,0.0261 -0.23437,0.0391 -0.10418,0.013 -0.1823,0.026 -0.23438,0.0391 -0.36459,0.0521 -0.70313,0.0781 -1.01562,0.0781 -0.5599,10e-6 -0.931,-0.43619 -1.11328,-1.30859 -0.10418,-0.48177 -0.15626,-1.24348 -0.15625,-2.28516 l 0,-10.8789 2.7539,0 0,-3.63282 -2.7539,0 0,-5.41015 -4.04297,0 0,5.41015 -2.05078,0 0,3.63282"
           inkscape:connector-curvature="0" />
        <path
           id="path3232"
           d="m 145.30971,799.42688 c 0,2.00521 0.41666,3.47005 1.25,4.39453 0.53385,0.66406 1.19791,0.99609 1.99219,0.99609 0.78124,0 1.49088,-0.2539 2.1289,-0.76171 0.45572,-0.36459 0.82682,-0.80078 1.11328,-1.3086 l 0.27344,0 c -1e-5,0.85938 0.12369,1.44532 0.37109,1.75781 l 3.94532,0 c -0.18231,-1.11979 -0.27345,-2.38932 -0.27344,-3.80859 l 0,-13.4375 c -1e-5,-1.41925 -0.4948,-2.60415 -1.48438,-3.55469 -0.97657,-0.93747 -2.1224,-1.40622 -3.4375,-1.40625 -1.5625,3e-5 -2.85156,0.57294 -3.86718,1.71875 -1.04167,1.1719 -1.5625,2.54559 -1.5625,4.1211 l 0,0.91797 4.04297,0 0,-1.03516 c -1e-5,-0.27342 0.026,-0.61847 0.0781,-1.03516 0.14322,-0.76821 0.5013,-1.15232 1.07422,-1.15234 0.48176,2e-5 0.81379,0.22137 0.99609,0.66406 0.0781,0.26044 0.11718,0.70314 0.11719,1.32813 l 0,2.40234 c -0.026,0.0651 -0.0586,0.13022 -0.0977,0.19531 -0.0391,0.0521 -0.0977,0.11069 -0.17578,0.17578 -0.0781,0.0651 -0.15625,0.12372 -0.23437,0.17579 -0.0651,0.0391 -0.16277,0.0977 -0.29297,0.17578 -0.13022,0.0651 -0.24089,0.12371 -0.33203,0.17578 -0.0781,0.0391 -0.20834,0.10418 -0.39063,0.19531 -0.16927,0.0912 -0.29948,0.16277 -0.39062,0.21484 -1.35417,0.71616 -2.40886,1.54299 -3.16406,2.48047 -1.1198,1.39324 -1.67969,3.19663 -1.67969,5.41016 m 3.96484,-0.60547 c 0,-1.09374 0.22786,-2.07681 0.6836,-2.94922 0.46874,-0.8854 1.17186,-1.52994 2.10937,-1.93359 l 0,5.60547 c -1e-5,0.37761 -0.16277,0.69662 -0.48828,0.95703 -0.32553,0.2474 -0.72266,0.3711 -1.19141,0.37109 -0.42969,10e-6 -0.73568,-0.27994 -0.91797,-0.83984 -0.13021,-0.3776 -0.19531,-0.78125 -0.19531,-1.21094"
           inkscape:connector-curvature="0" />
      </g>
    </g>
    <g
       transform="matrix(0.29190039,0,0,0.29190039,-50.42272,524.0307)"
       id="layer1-7"
       inkscape:label="Capa 1">
      <path
         sodipodi:nodetypes="cccccscc"
         id="path3007-0"
         d="m 335.47222,397.42201 c -33.91008,2.42215 -69.27344,20.70937 -90.70947,46.98968 -29.06577,35.60557 -38.51215,81.38419 -25.55366,124.49842 13.0796,43.11424 48.8063,77.75096 92.8894,89.98281 19.6194,5.44983 46.62635,5.69205 66.9724,0.48443 59.10041,-15.01732 101.12469,-68.78901 101.12469,-129.46382 0,-35.36337 -15.01733,-70.36342 -40.8132,-95.06933 C 410.4377,406.86839 376.1643,394.63654 335.47222,397.42201 z"
         inkscape:connector-curvature="0"
         style="fill:#ffffff;stroke:none" />
      <path
         id="path3007"
         d="m 338.24917,395.43446 c -35.00001,2.5 -71.50001,21.375 -93.62501,48.5 -29.99999,36.75 -39.74999,84 -26.37499,128.5 13.49999,44.5 50.37499,80.25 95.875,92.875 20.25,5.625 48.125,5.875 69.125,0.5 61,-15.5 104.375,-71 104.375,-133.625 0,-36.5 -15.5,-72.625 -42.125,-98.125 -29.875,-28.875 -65.25,-41.5 -107.25,-38.625 z m 42.5,19.875 c 43.75,12 78,47.875 87.625,91.875 3.25,15.375 2.875,39.25 -1.125,54.375 -13.25,50.875 -54.625,86.375 -105.875,91.125 -73.37501,6.75 -135.50001,-52.25 -132.12501,-125.5 0.875,-18.625 4,-31.125 12,-47.5 17.25,-35.125 47.125,-58.25 86.00001,-66.25 12.625,-2.625 40.625,-1.75 53.5,1.875 z"
         inkscape:connector-curvature="0"
         style="fill:#000000;stroke:#000000;stroke-width:0.125;stroke-opacity:1" />
      <path
         style="fill:#000000;stroke:none"
         id="path3009"
         d="m 297.62416,448.18446 0,7.875 -9.625,3.375 -9.75,3.25 9.375,-0.25 9.375,-0.25 0.375,51.25 c 0.25,50.125 0.25,51.375 -2.5,59.375 -5.5,15.875 -3.25,30.375 6.375,41.25 l 3.875,4.375 -3,-6.875 c -4.5,-10.125 -5,-15 -2.625,-23.125 4.625,-16 19.37501,-25.5 48.87501,-31.875 19.875,-4.125 28.875,-7 39,-12.5 20.875,-11.125 31.75,-29.875 29,-50.375 -4.375,-31.625 -47.125,-49.125 -100.875,-41.375 l -5.37501,0.875 0,-6.5 0,-6.375 -6.25,0 -6.25,0 0,7.875 z m 28.75001,17.375 c 7.5,3.125 14.25,9.875 17.75,17.75 2.25,5.125 2.75,8.625 2.75,18.25 0,10.625 -0.375,12.75 -3.625,19.375 -4.5,9.375 -12.375,17.875 -23.25,25 -4.5,3.125 -8.62501,5.625 -9.12501,5.625 -0.375,0 -0.75,-20.25 -0.75,-45 l 0,-45 5.37501,0.75 c 2.875,0.5 7.75,1.875 10.875,3.25 z"
         inkscape:connector-curvature="0" />
      <path
         style="fill:#77a1c8;fill-opacity:1;stroke:none"
         id="path3011"
         d="m 424.37417,510.80946 c -0.25,17.125 -10.375,31.875 -29,42.375 -10.25,5.625 -22.875,9.75 -42.375,13.75 -27,5.625 -36.375,10.75 -42.75001,23.5 -3,6 -3.875,9.375 -3.875,15.125 0,7.5 2.75,15.125 6.75001,18.375 1.875,1.5 1.875,1.25 0.125,-2.75 -4.50001,-10.75 -0.5,-25.25 9.25,-33.625 6.125,-5.25 16,-8.625 35.75,-12.25 36,-6.75 56.75,-18.75 65.875,-38.375 3.125,-6.625 3.75,-9.625 3.75,-17 0,-5 -0.75,-11.125 -1.625,-13.625 l -1.75,-4.625 -0.125,9.125 z"
         inkscape:connector-curvature="0" />
    </g>
    <g
       style="font-size:41.04612732px;font-style:normal;font-weight:normal;line-height:125%;letter-spacing:0px;word-spacing:0px;fill:#000000;fill-opacity:1;stroke:none;font-family:Sans"
       id="text3286" />
  </g>
</svg>
