<?xml version="1.0" encoding="UTF-8" standalone="no"?>
<!-- Created with Inkscape (http://www.inkscape.org/) -->

<svg
   xmlns:dc="http://purl.org/dc/elements/1.1/"
   xmlns:cc="http://creativecommons.org/ns#"
   xmlns:rdf="http://www.w3.org/1999/02/22-rdf-syntax-ns#"
   xmlns:svg="http://www.w3.org/2000/svg"
   xmlns="http://www.w3.org/2000/svg"
   xmlns:sodipodi="http://sodipodi.sourceforge.net/DTD/sodipodi-0.dtd"
   xmlns:inkscape="http://www.inkscape.org/namespaces/inkscape"
   width="793.70081"
   height="559.37006"
   id="svg2"
   version="1.1"
   inkscape:version="0.92.1 r"
   sodipodi:docname="quiero_ser_una_pirata.svg">
  <defs
     id="defs4" />
  <sodipodi:namedview
     id="base"
     pagecolor="#ffffff"
     bordercolor="#666666"
     borderopacity="1.0"
     inkscape:pageopacity="0.0"
     inkscape:pageshadow="2"
     inkscape:zoom="0.52838985"
     inkscape:cx="625.63096"
     inkscape:cy="401.07174"
     inkscape:document-units="mm"
     inkscape:current-layer="layer1"
     showgrid="false"
     showguides="true"
     inkscape:guide-bbox="true"
     units="mm"
     inkscape:window-width="1366"
     inkscape:window-height="746"
     inkscape:window-x="0"
     inkscape:window-y="22"
     inkscape:window-maximized="0">
    <sodipodi:guide
       orientation="1,0"
       position="396.85039,0"
       id="guide3168"
       inkscape:locked="false" />
  </sodipodi:namedview>
  <metadata
     id="metadata7">
    <rdf:RDF>
      <cc:Work
         rdf:about="">
        <dc:format>image/svg+xml</dc:format>
        <dc:type
           rdf:resource="http://purl.org/dc/dcmitype/StillImage" />
        <dc:title />
      </cc:Work>
    </rdf:RDF>
  </metadata>
  <g
     inkscape:label="Capa 1"
     inkscape:groupmode="layer"
     id="layer1"
     transform="translate(0,-563.14955)">
    <rect
       y="559.42102"
       x="-7.5134636e-07"
       height="563.09857"
       width="793.70081"
       id="rect3033"
       style="fill:#0088aa;fill-opacity:1;stroke-width:1.06666672" />
    <g
       id="g3847"
       transform="matrix(0.10929874,0,0,0.10976979,404.29296,1009.0848)"
       inkscape:export-filename="/srv/http/kiwwwi.com.ar/pastes/utopia-pirata-2.png"
       inkscape:export-xdpi="149"
       inkscape:export-ydpi="149" />
    <g
       id="g4077"
       transform="matrix(0.22827806,0,0,0.2292619,585.84817,885.19953)">
      <g
         inkscape:export-ydpi="149"
         inkscape:export-xdpi="149"
         inkscape:export-filename="/srv/http/kiwwwi.com.ar/pastes/utopia-pirata-2.png"
         id="g3851"
         transform="matrix(0.67937345,0,0,0.67937345,-37.562902,221.42301)"
         style="stroke:none">
        <path
           d="m 971.56397,650.69769 c -16,22.4 -33.3504,41.38026 -52.26667,64 l -25.6,28.8 c -21.33333,20.26666 -74.66667,59.73333 -99.2,75.73333 -13.86667,9.6 -28.8,17.06667 -43.73333,23.46667 l -19.47734,9.42933 c 3.2,3.2 9.152,4.9504 14.5376,7.46667 3.2,0 14.53974,-6.22934 17.73974,-8.36267 l 34.13333,-19.2 c 6.4,-4.26667 12.8,-9.6 20.26667,-10.66667 -3.2,7.46667 -10.66667,11.73334 -18.13334,16 l -20.26666,11.73334 c 0,0 -21.28107,12.128 -24.192,14.144 5.8336,2.304 14.592,4.9504 20.14826,7.18933 5.33334,0 12.57707,-5.33333 16.84374,-7.46667 11.73333,-6.4 26.66666,-16 38.4,-24.53333 l 19.2,-12.8 c 14.93333,-11.73333 29.86666,-24.53333 43.73333,-38.4 10.66667,-9.6 21.33333,-19.2 29.86667,-30.93333 11.73333,-13.86667 19.2,-29.86667 27.73333,-45.86667 9.6,-14.93333 12.8,-24.53333 18.13333,-40.53333 1.06667,-5.33334 4.26667,-13.86667 2.13334,-19.2 z"
           id="path719"
           inkscape:connector-curvature="0"
           style="fill:#ffffff;stroke:none;stroke-width:1.06666672" />
        <path
           d="m 481.96397,645.36435 c -3.2,11.73334 1.06666,25.6 5.33333,36.26667 9.6,25.6 25.6,48 41.6,69.33333 9.6,13.86667 25.6,30.93334 37.33333,42.66667 l 12.8,10.66667 27.73334,24.53333 c 22.4,17.06667 64,42.66667 89.6,54.4 l 34.13333,14.93333 13.86667,5.33334 c 16,6.4 32,10.66666 49.06666,13.86666 9.6,2.13334 20.26667,5.33334 29.86667,5.33334 -3.2,-11.73334 -9.6,-10.66667 -19.2,-13.86667 l -35.2,-13.86667 c -49.06667,-20.26666 -103.46667,-40.53333 -141.86667,-78.93333 7.46667,0 12.8,6.4 18.13334,10.66667 7.46666,5.33333 17.06666,11.73333 25.6,17.06666 23.46666,13.86667 76.8,38.4 103.46666,48 10.66667,4.26667 28.8,11.73334 39.46667,11.73334 8.53333,1.06666 20.26667,-4.26667 26.66667,-8.53334 -4.26667,-4.26666 -8.53334,-3.2 -14.93334,-4.26666 l -33.06666,-9.6 c -28.8,-7.46667 -56.53334,-18.13334 -83.2,-32 l -14.93334,-6.4 -20.26666,-12.8 -24.53334,-16 -25.6,-20.26667 -43.73333,-34.13333 -40.53333,-41.6 -20.26667,-23.46667 -21.33333,-23.46667 z"
           id="path725"
           inkscape:connector-curvature="0"
           style="fill:#ffffff;stroke:none;stroke-width:1.06666672" />
        <path
           d="m 824.36397,908.83102 c 2.13333,4.26667 6.4,10.66667 6.4,16 0,11.73333 -13.86667,22.4 -24.53334,21.33333 -4.26666,-1.06666 -13.86666,-6.4 -17.06666,0 -1.06667,2.13334 -1.06667,4.26667 0,5.33334 0,4.26666 5.33333,6.4 9.6,8.53333 11.73333,3.2 24.53333,-1.06667 34.13333,-7.46667 7.46667,-4.26666 12.8,-11.73333 14.93333,-20.26666 l 2.13334,-13.86667 c 1.06666,-4.26667 5.33333,-5.33333 10.66666,-12.8 6.4,-8.53333 12.8,-23.46667 21.33334,-29.86667 3.2,-2.13333 6.4,-3.2 10.66666,-4.26666 -2.13333,-3.2 -4.26666,-5.33334 -6.4,-8.53334 -2.13333,-1.06666 -4.26666,-3.2 -6.4,-3.2 -3.2,-1.06666 -7.46666,-1.06666 -10.66666,1.06667 -14.93334,7.46667 -11.73334,21.33333 -20.26667,32 -6.4,8.53333 -13.86667,12.8 -24.53333,16 z"
           id="path731"
           inkscape:connector-curvature="0"
           style="fill:#ffffff;stroke:none;stroke-width:1.06666672" />
        <path
           d="m 858.4973,922.69769 c 7.46667,3.2 13.86667,2.13333 21.33333,2.13333 l 16,1.06667 c 7.46667,0 9.6,-4.26667 12.8,-10.66667 1.06667,-2.13333 2.13334,-6.4 0,-8.53333 -2.13333,-2.13334 -6.4,-2.13334 -9.6,-2.13334 l -18.13333,1.06667 c -3.2,0 -8.53333,0 -11.73333,1.06667 -5.33334,3.2 -9.6,10.66666 -10.66667,16 z"
           id="path737"
           inkscape:connector-curvature="0"
           style="fill:#ffffff;stroke:none;stroke-width:1.06666672" />
        <path
           d="m 916.0973,937.63102 c -5.33333,-2.13333 -8.53333,-4.26667 -11.73333,-8.53333 -1.06667,1.06666 -2.13334,1.06666 -3.2,2.13333 -1.06667,5.33333 12.8,18.13333 14.93333,6.4 z"
           id="path743"
           inkscape:connector-curvature="0"
           style="fill:#ffffff;stroke:none;stroke-width:1.06666672" />
        <path
           d="m 908.63063,901.36435 8.53334,5.33334 c -2.13334,4.26666 -7.46667,12.8 -6.4,18.13333 1.06666,10.66667 16,10.66667 22.4,4.26667 7.46666,-8.53334 7.46666,-21.33334 -3.2,-27.73334 -6.4,-3.2 -13.86667,-2.13333 -21.33334,0 z"
           id="path744"
           inkscape:connector-curvature="0"
           style="fill:#ffffff;stroke:none;stroke-width:1.06666672" />
        <path
           d="m 525.6973,931.23102 1.06667,1.06667 c 8.53333,-2.13334 13.86666,-5.33334 14.93333,-13.86667 -6.4,1.06667 -12.8,7.46667 -16,12.8 z"
           id="selection_x5F_to_x5F_path_x23_5"
           inkscape:connector-curvature="0"
           style="fill:#ffffff;stroke:none;stroke-width:1.06666672" />
        <path
           d="m 533.16397,891.76435 c -3.2,-2.13333 -6.4,-3.2 -10.66667,-3.2 -3.2,0 -6.4,0 -9.6,1.06667 -10.66667,4.26667 -11.73333,21.33333 -3.2,28.8 4.26667,4.26667 14.93333,6.4 19.2,1.06667 4.26667,-4.26667 3.2,-9.6 1.06667,-14.93334 -1.06667,-3.2 -3.2,-7.46666 -1.06667,-9.6 1.06667,-2.13333 3.2,-2.13333 4.26667,-3.2 z"
           id="selection_x5F_to_x5F_path_x23_4"
           inkscape:connector-curvature="0"
           style="fill:#ffffff;stroke:none;stroke-width:1.06666672" />
        <path
           d="m 532.0973,896.03102 c 1.06667,3.2 6.4,16 8.53333,18.13333 3.2,2.13334 6.4,2.13334 9.6,2.13334 l 19.2,-1.06667 h 13.86667 c 0,-3.2 0,-6.4 -1.06667,-8.53333 -3.2,-8.53334 -14.93333,-12.8 -23.46666,-12.8 l -9.6,1.06666 c -6.4,0 -11.73334,-1.06666 -17.06667,1.06667 z"
           id="selection_x5F_to_x5F_path_x23_3"
           inkscape:connector-curvature="0"
           style="fill:#ffffff;stroke:none;stroke-width:1.06666672" />
        <path
           d="m 552.36397,861.89769 c 20.26666,5.33333 20.26666,22.4 28.8,34.13333 3.2,4.26667 11.73333,10.66667 12.8,14.93333 1.06666,3.2 0,4.26667 1.06666,11.73334 2.13334,9.6 8.53334,19.2 17.06667,24.53333 9.6,6.4 18.13333,10.66667 29.86667,7.46667 6.4,-2.13334 12.8,-6.4 9.6,-13.86667 -3.2,-7.46667 -14.93334,0 -22.4,-2.13333 -7.46667,-3.2 -16,-13.86667 -16,-22.4 l 4.26666,-14.93334 c -11.73333,-4.26666 -25.6,-13.86666 -30.93333,-25.6 -3.2,-7.46666 -3.2,-18.13333 -8.53333,-23.46666 -9.6,-7.46667 -22.4,-1.06667 -25.6,9.6 z"
           id="selection_x5F_to_x5F_path_x23_2"
           inkscape:connector-curvature="0"
           style="fill:#ffffff;stroke:none;stroke-width:1.06666672" />
        <path
           d="m 603.56397,886.43102 c 3.2,4.26667 5.33333,5.33333 9.6,7.46667 14.93333,8.53333 24.53333,2.13333 39.46666,-1.06667 l 30.93334,-9.6 c -4.096,-2.752 -13.248,-8.48 -17.06667,-10.66667 l -20.26667,5.33334 z"
           id="path758"
           inkscape:connector-curvature="0"
           style="fill:#ffffff;stroke:none;stroke-width:1.06666672" />
        <path
           d="m 618.4973,917.36435 c 27.73333,0 53.33333,-8.53333 80,-14.93333 0,0 11.73333,-5.55307 15.6544,-5.55307 -3.70133,-2.6976 -18.7968,-8.1472 -21.1584,-10.27626 -3.2,0.94933 -15.82933,5.16266 -20.096,6.22933 l -26.66667,7.46667 -12.8,3.2 c -7.46666,3.2 -12.8,4.26666 -14.93333,13.86666 z"
           id="path759"
           inkscape:connector-curvature="0"
           style="fill:#ffffff;stroke:none;stroke-width:1.06666672" />
      </g>
      <ellipse
         style="fill:none;stroke:#ffffff;stroke-width:14.49330044"
         cx="456.04547"
         cy="607.1944"
         id="circle3807"
         rx="78.100777"
         ry="78.100769" />
      <path
         style="fill:#ffffff;stroke-width:0.72466505"
         inkscape:connector-curvature="0"
         d="m 455.40743,558.38168 c -23.13058,0 -42.51102,16.11002 -47.53657,37.71881 h 23.32479 c 4.20886,-9.16556 13.47152,-15.53102 24.21178,-15.53102 14.69766,0 26.62565,11.92798 26.62565,26.62492 0,14.69693 -11.92799,26.62564 -26.62565,26.62564 -10.74026,0 -20.00365,-6.36618 -24.21178,-15.53175 h -23.32479 c 5.02555,21.60879 24.40599,37.71882 47.53657,37.71882 26.94522,0 48.81272,-21.86822 48.81272,-48.81271 0,-26.9445 -21.86822,-48.81271 -48.81272,-48.81271 z"
         id="path3809" />
      <g
         inkscape:export-ydpi="149"
         inkscape:export-xdpi="149"
         inkscape:export-filename="/srv/http/kiwwwi.com.ar/pastes/utopia-pirata-2.png"
         id="text3059"
         style="font-style:normal;font-weight:normal;font-size:121.8484726px;line-height:125%;font-family:'Bitstream Vera Sans';letter-spacing:0px;word-spacing:0px;fill:#ffffff;fill-opacity:1;stroke:none"
         transform="matrix(-0.72702905,0.19480685,-0.19480685,-0.72702905,-652.49299,-465.46667)">
        <g
           transform="rotate(-4.3843726,-1069.5699,-1786.0102)"
           id="g3922">
          <circle
             transform="rotate(-165)"
             id="path3865"
             style="fill:none;stroke:none;stroke-width:0.96278501"
             inkscape:export-filename="/srv/http/kiwwwi.com.ar/pastes/utopia-pirata-1.png"
             inkscape:export-xdpi="149"
             inkscape:export-ydpi="149"
             cx="1474.0784"
             cy="1363.7991"
             r="122.54252" />
          <path
             d="m -829.91875,-1701.2786 -74.75696,-13.1429 c -3.81775,-0.8031 -7.13896,-2.1788 -9.8356,-4.1046 -2.35762,-1.6021 -4.47472,-3.8218 -5.94474,-6.7196 -1.59804,-2.9202 -2.14249,-6.579 -1.33231,-11.1873 0.81017,-4.6083 2.59239,-7.99 5.09062,-10.19 2.37023,-2.2227 5.09496,-3.4592 7.85767,-4.1612 3.19174,-0.8905 6.783,-1.0509 10.64577,-0.5038 l 74.75696,13.1429 -2.43053,13.8249 -74.75696,-13.1428 c -2.68818,-0.4727 -4.59282,-0.1477 -6.22596,0.8849 -0.75257,0.5275 -1.29414,1.356 -1.49668,2.5081 -0.42759,2.4321 0.90597,3.8543 2.73608,4.7039 0.82854,0.5416 1.95811,0.8721 3.36621,1.1197 l 74.75696,13.1428 -2.43053,13.825"
             style="font-style:normal;font-variant:normal;font-weight:normal;font-stretch:normal;font-family:'League Gothic';-inkscape-font-specification:'League Gothic';fill:#ffffff;stroke-width:1.06666672"
             id="path3897"
             inkscape:connector-curvature="0" />
          <path
             d="m -854.50233,-1673.4894 12.64866,6.9388 -19.50341,35.5529 -12.64866,-6.9387 6.37612,-11.6231 -71.10596,-39.0068 6.75117,-12.3068 71.10597,39.0069 6.37611,-11.6232"
             style="font-style:normal;font-variant:normal;font-weight:normal;font-stretch:normal;font-family:'League Gothic';-inkscape-font-specification:'League Gothic';fill:#ffffff;stroke-width:1.06666672"
             id="path3899"
             inkscape:connector-curvature="0" />
          <path
             d="m -962.3753,-1633.3619 c -2.56068,-2.9434 -4.38,-6.0439 -5.36938,-9.2063 -0.91414,-2.7 -1.26394,-5.7474 -0.68867,-8.9454 0.48674,-3.2931 2.2593,-6.5398 5.68504,-9.7268 3.42575,-3.1871 6.88699,-4.8094 10.20662,-5.0574 3.23113,-0.3433 6.15024,0.3139 8.77725,1.4204 3.0829,1.2149 6.04414,3.253 8.79515,6.0193 l 38.33278,41.2041 c 2.47216,2.8481 4.29148,5.9486 5.28087,9.1112 0.91413,2.6999 1.44762,5.754 0.87235,8.9519 -0.57527,3.1979 -2.35446,6.6283 -5.78021,9.8154 -3.42574,3.187 -6.88034,4.6256 -10.11145,4.9689 -3.23113,0.3431 -6.33394,-0.3207 -8.96093,-1.4271 -3.08291,-1.2148 -6.04414,-3.253 -8.70663,-5.9242 l -38.33279,-41.204 m 48.61004,31.643 c 1.77057,1.9032 3.39061,2.8814 5.40455,3.138 0.91844,0.033 1.9453,-0.3897 2.80173,-1.1864 1.80804,-1.682 1.42508,-3.811 0.65485,-5.4022 -0.42275,-1.0269 -1.12434,-1.9718 -2.00963,-2.9234 l -38.33278,-41.2042 c -1.8591,-1.9984 -3.5743,-2.888 -5.4997,-3.0494 -0.91844,-0.033 -1.85014,0.3011 -2.70658,1.0979 -1.80803,1.682 -1.60213,3.6207 -0.65485,5.4021 0.33422,0.9317 1.03582,1.8767 2.00962,2.9235 l 38.33279,41.2041"
             style="font-style:normal;font-variant:normal;font-weight:normal;font-stretch:normal;font-family:'League Gothic';-inkscape-font-specification:'League Gothic';fill:#ffffff;stroke-width:1.06666672"
             id="path3901"
             inkscape:connector-curvature="0" />
          <path
             d="m -945.70662,-1554.999 -12.86216,5.6215 c -5.59741,2.4463 -11.81944,3.4636 -17.87654,1.2882 -6.0571,-2.1753 -11.8302,-7.5954 -16.20245,-17.5993 -4.37224,-10.0039 -4.37677,-17.8032 -1.85911,-23.7263 2.51765,-5.923 7.38638,-10.0367 12.98379,-12.4831 l -15.30288,-35.0136 12.86214,-5.6215 38.25721,87.5341 m -30.09091,-33.7987 c -3.9301,1.7177 -6.11877,3.5254 -6.66304,6.1746 -0.59632,2.5301 0.45177,5.9017 2.58585,10.7846 2.13407,4.8829 4.00082,8.1805 6.36686,9.6995 2.36604,1.5192 5.28342,1.3788 9.21351,-0.3389 l -11.50318,-26.3198"
             style="font-style:normal;font-variant:normal;font-weight:normal;font-stretch:normal;font-family:'League Gothic';-inkscape-font-specification:'League Gothic';fill:#ffffff;stroke-width:1.06666672"
             id="path3903"
             inkscape:connector-curvature="0" />
          <path
             d="m -1012.2607,-1532.3783 -13.8739,2.1334 -14.5198,-94.4193 13.8739,-2.1335 14.5198,94.4194"
             style="font-style:normal;font-variant:normal;font-weight:normal;font-stretch:normal;font-family:'League Gothic';-inkscape-font-specification:'League Gothic';fill:#ffffff;stroke-width:1.06666672"
             id="path3905"
             inkscape:connector-curvature="0" />
          <path
             d="m -1047.2054,-1622.4237 -25.1958,93.2691 -17.045,-1.9508 -3.4708,-96.5501 13.5585,1.5518 0.3658,19.665 13.4294,1.5369 4.7994,-19.0737 13.5585,1.5518 m -30.9609,61.3433 0.1067,2.4978 0.7748,0.089 0.6682,-2.409 7.4316,-29.4998 -9.5555,-1.0936 0.5743,30.416"
             style="font-style:normal;font-variant:normal;font-weight:normal;font-stretch:normal;font-family:'League Gothic';-inkscape-font-specification:'League Gothic';fill:#ffffff;stroke-width:1.06666672"
             id="path3907"
             inkscape:connector-curvature="0" />
          <path
             d="m -1172.391,-1560.1378 -11.5072,-8.0386 c -5.0078,-3.4984 -9.1224,-8.2752 -10.4275,-14.5774 -1.305,-6.3022 0.306,-14.0553 6.5582,-23.0053 6.2523,-8.95 12.9032,-13.0238 19.2697,-13.967 6.3664,-0.943 12.4162,1.0636 17.424,4.5618 l 21.8829,-31.3252 11.5073,8.0386 -54.7074,78.3131 m 13.1297,-43.3061 c -3.5161,-2.4563 -6.2002,-3.3801 -8.7441,-2.4619 -2.4696,0.8116 -4.7989,3.4651 -7.8506,7.8336 -3.0516,4.3684 -4.8906,7.6817 -4.9518,10.4927 -0.061,2.8111 1.5809,5.2265 5.097,7.6828 l 16.4495,-23.5472"
             style="font-style:normal;font-variant:normal;font-weight:normal;font-stretch:normal;font-family:'League Gothic';-inkscape-font-specification:'League Gothic';fill:#ffffff;stroke-width:1.06666672"
             id="path3909"
             inkscape:connector-curvature="0" />
          <path
             d="m -1226.274,-1604.9011 -9.0875,-10.6983 72.8077,-61.8454 9.0876,10.6982 -72.8078,61.8455"
             style="font-style:normal;font-variant:normal;font-weight:normal;font-stretch:normal;font-family:'League Gothic';-inkscape-font-specification:'League Gothic';fill:#ffffff;stroke-width:1.06666672"
             id="path3911"
             inkscape:connector-curvature="0" />
          <path
             d="m -1180.1822,-1708.1007 -33.3171,23.7976 1.6106,3.4077 36.4274,-17.2172 5.9982,12.6908 -86.368,40.8215 -5.9983,-12.6909 c -7.1646,-15.1584 -1.6412,-25.6757 14.6923,-33.3957 8.5781,-4.0543 17.3888,-5.4873 22.9562,-2.2246 l 38.0004,-27.8801 5.9983,12.6909 m -43.4573,32.7593 c -0.833,-1.7627 -2.1788,-4.0017 -4.7126,-5.1043 -2.5338,-1.1026 -6.4285,-1.1306 -12.5388,1.7575 -6.1104,2.888 -8.6786,5.9707 -9.4351,8.6284 -0.7565,2.6577 0.2368,5.0633 1.0699,6.826 l 25.6166,-12.1076"
             style="font-style:normal;font-variant:normal;font-weight:normal;font-stretch:normal;font-family:'League Gothic';-inkscape-font-specification:'League Gothic';fill:#ffffff;stroke-width:1.06666672"
             id="path3913"
             inkscape:connector-curvature="0" />
          <path
             d="m -1187.4367,-1724.9408 -96.4885,-4.8921 -1.6997,-17.0718 93.6301,-23.8198 1.352,13.5799 -19.1424,4.518 1.3391,13.4506 19.6574,0.6553 1.352,13.5799 m -66.5052,-17.2814 -2.4186,0.6327 0.077,0.776 2.496,0.1433 30.4042,1.0221 -0.9528,-9.5706 -29.606,6.9965"
             style="font-style:normal;font-variant:normal;font-weight:normal;font-stretch:normal;font-family:'League Gothic';-inkscape-font-specification:'League Gothic';fill:#ffffff;stroke-width:1.06666672"
             id="path3915"
             inkscape:connector-curvature="0" />
          <path
             d="m -1270.5543,-1786.479 -14.1138,-2.9896 8.4031,-39.6709 14.1137,2.9895 -2.747,12.9694 79.3418,16.8062 -2.9088,13.7323 -79.3418,-16.8062 -2.7472,12.9693"
             style="font-style:normal;font-variant:normal;font-weight:normal;font-stretch:normal;font-family:'League Gothic';-inkscape-font-specification:'League Gothic';fill:#ffffff;stroke-width:1.06666672"
             id="path3917"
             inkscape:connector-curvature="0" />
          <path
             d="m -1183.2813,-1808.6761 -75.1338,-60.736 8.6721,-14.803 89.7188,35.8398 -6.8984,11.7753 -18.1355,-7.6118 -6.8327,11.663 15.5078,12.0976 -6.8983,11.7751 m -43.601,-53.1085 -2.3278,-0.9119 -0.3943,0.6729 1.9337,1.5847 23.9809,18.7184 4.8616,-8.2987 -28.0541,-11.7654"
             style="font-style:normal;font-variant:normal;font-weight:normal;font-stretch:normal;font-family:'League Gothic';-inkscape-font-specification:'League Gothic';fill:#ffffff;stroke-width:1.06666672"
             id="path3919"
             inkscape:connector-curvature="0" />
        </g>
      </g>
    </g>
    <rect
       style="fill:#ffffff;stroke-width:1.06666672"
       id="rect3035"
       width="793.70081"
       height="184.8649"
       x="3.1475329e-07"
       y="628.46552" />
    <g
       id="g3234"
       transform="matrix(1.1081238,0,0,1.1081238,131.43091,-200.40214)">
      <g
         id="g3341"
         transform="matrix(0.83569431,0,0,0.83569431,2.6966236,135.31443)">
        <path
           id="path3155"
           d="m 16.41223,818.94661 h 2.476672 v -10.56473 c 0.04785,-0.0798 0.119643,-0.18345 0.215364,-0.31109 0.215359,-0.21534 0.41078,-0.32302 0.586265,-0.32304 0.398815,2e-5 0.598225,0.19544 0.59823,0.58627 v 10.61259 h 2.464708 v -10.9835 c -8e-6,-0.64608 -0.147571,-1.22436 -0.44269,-1.73486 -0.358945,-0.59024 -0.829552,-0.88537 -1.411823,-0.88538 -0.215369,1e-5 -0.430731,0.0598 -0.646089,0.17947 -0.295132,0.15954 -0.654069,0.45067 -1.076814,0.87341 -0.175484,0.17549 -0.271201,0.26723 -0.287151,0.27518 v -5.73104 H 16.41223 v 18.00672"
           inkscape:connector-curvature="0"
           style="font-style:normal;font-variant:normal;font-weight:normal;font-stretch:normal;font-size:22.97203255px;line-height:125%;font-family:'League Gothic';-inkscape-font-specification:'League Gothic';letter-spacing:0px;word-spacing:0px;fill:#000000;fill-opacity:1;stroke:none;stroke-width:1.06666672" />
        <path
           id="path3157"
           d="m 23.949929,807.77168 h 1.256282 v 6.86768 c -1e-6,1.22837 0.123633,2.17357 0.370904,2.83562 0.41477,1.10871 1.236338,1.66307 2.464707,1.66307 0.398815,0 0.717871,-0.0239 0.957168,-0.0718 0.03988,-0.007 0.0997,-0.0239 0.179469,-0.0479 0.08773,-0.0239 0.151546,-0.0399 0.191433,-0.0479 v -2.42882 c -0.03191,0.007 -0.07977,0.016 -0.143574,0.0239 -0.06382,0.007 -0.111676,0.016 -0.143576,0.0239 -0.223345,0.0319 -0.43073,0.0479 -0.622159,0.0479 -0.342989,0 -0.570316,-0.26721 -0.681982,-0.80163 -0.06382,-0.29512 -0.09572,-0.76174 -0.09571,-1.39985 v -6.66429 h 1.687008 v -2.22542 h -1.687008 v -3.31418 h -2.476674 v 3.31418 h -1.256282 v 2.22542"
           inkscape:connector-curvature="0"
           style="font-style:normal;font-variant:normal;font-weight:normal;font-stretch:normal;font-size:22.97203255px;line-height:125%;font-family:'League Gothic';-inkscape-font-specification:'League Gothic';letter-spacing:0px;word-spacing:0px;fill:#000000;fill-opacity:1;stroke:none;stroke-width:1.06666672" />
        <path
           id="path3159"
           d="m 29.932229,807.77168 h 1.256284 v 6.86768 c -2e-6,1.22837 0.123632,2.17357 0.370902,2.83562 0.414771,1.10871 1.236339,1.66307 2.464708,1.66307 0.398815,0 0.717871,-0.0239 0.957168,-0.0718 0.03988,-0.007 0.0997,-0.0239 0.179468,-0.0479 0.08773,-0.0239 0.151547,-0.0399 0.191434,-0.0479 v -2.42882 c -0.03191,0.007 -0.07977,0.016 -0.143574,0.0239 -0.06382,0.007 -0.111676,0.016 -0.143576,0.0239 -0.223344,0.0319 -0.43073,0.0479 -0.622159,0.0479 -0.34299,0 -0.570317,-0.26721 -0.681983,-0.80163 -0.06382,-0.29512 -0.09572,-0.76174 -0.09571,-1.39985 v -6.66429 h 1.687008 v -2.22542 h -1.687008 v -3.31418 h -2.476672 v 3.31418 h -1.256283 v 2.22542"
           inkscape:connector-curvature="0"
           style="font-style:normal;font-variant:normal;font-weight:normal;font-stretch:normal;font-size:22.97203255px;line-height:125%;font-family:'League Gothic';-inkscape-font-specification:'League Gothic';letter-spacing:0px;word-spacing:0px;fill:#000000;fill-opacity:1;stroke:none;stroke-width:1.06666672" />
        <path
           id="path3161"
           d="m 36.656335,823.55299 h 2.476672 v -5.49175 c 0.271194,0.23929 0.482568,0.41876 0.634124,0.53841 0.486555,0.35893 0.929246,0.5384 1.32807,0.5384 0.598224,0 1.084784,-0.29912 1.459681,-0.89735 0.29512,-0.48656 0.442684,-1.06085 0.44269,-1.7229 v -8.55469 c -6e-6,-0.64608 -0.14757,-1.22436 -0.44269,-1.73486 -0.39085,-0.59024 -0.87741,-0.88537 -1.459681,-0.88538 -0.247274,1e-5 -0.478589,0.0598 -0.693947,0.17947 -0.398824,0.17549 -0.821573,0.47461 -1.268247,0.89734 v -0.87342 h -2.476672 v 18.00673 m 2.476672,-7.54966 v -7.51377 c -3e-6,-0.23131 0.07179,-0.42274 0.215362,-0.57431 0.151549,-0.15951 0.323041,-0.23927 0.514478,-0.23928 0.183453,10e-6 0.338993,0.0798 0.46662,0.23928 0.135594,0.15157 0.203393,0.343 0.203398,0.57431 v 7.51377 c -5e-6,0.23132 -0.06781,0.42674 -0.203398,0.58626 -0.127627,0.15155 -0.283167,0.22733 -0.46662,0.22733 -0.18346,0 -0.350965,-0.0837 -0.502513,-0.25126 -0.151555,-0.17547 -0.22733,-0.36292 -0.227327,-0.56233"
           inkscape:connector-curvature="0"
           style="font-style:normal;font-variant:normal;font-weight:normal;font-stretch:normal;font-size:22.97203255px;line-height:125%;font-family:'League Gothic';-inkscape-font-specification:'League Gothic';letter-spacing:0px;word-spacing:0px;fill:#000000;fill-opacity:1;stroke:none;stroke-width:1.06666672" />
        <path
           id="path3163"
           d="m 44.792262,818.94661 h 2.57239 v -2.71595 h -2.57239 v 2.71595 m 0,-10.68438 h 2.57239 v -2.71597 h -2.57239 v 2.71597"
           inkscape:connector-curvature="0"
           style="font-style:normal;font-variant:normal;font-weight:normal;font-stretch:normal;font-size:22.97203255px;line-height:125%;font-family:'League Gothic';-inkscape-font-specification:'League Gothic';letter-spacing:0px;word-spacing:0px;fill:#000000;fill-opacity:1;stroke:none;stroke-width:1.06666672" />
        <path
           id="path3165"
           d="m 48.357713,820.70542 h 2.010053 l 6.42499,-19.76553 h -1.938264 l -6.496779,19.76553"
           inkscape:connector-curvature="0"
           style="font-style:normal;font-variant:normal;font-weight:normal;font-stretch:normal;font-size:22.97203255px;line-height:125%;font-family:'League Gothic';-inkscape-font-specification:'League Gothic';letter-spacing:0px;word-spacing:0px;fill:#000000;fill-opacity:1;stroke:none;stroke-width:1.06666672" />
        <path
           id="path3167"
           d="m 56.972227,820.70542 h 2.010054 l 6.424989,-19.76553 h -1.938264 l -6.496779,19.76553"
           inkscape:connector-curvature="0"
           style="font-style:normal;font-variant:normal;font-weight:normal;font-stretch:normal;font-size:22.97203255px;line-height:125%;font-family:'League Gothic';-inkscape-font-specification:'League Gothic';letter-spacing:0px;word-spacing:0px;fill:#000000;fill-opacity:1;stroke:none;stroke-width:1.06666672" />
        <path
           id="path3169"
           d="m 66.472118,823.55299 h 2.476672 v -5.49175 c 0.271194,0.23929 0.482569,0.41876 0.634124,0.53841 0.486556,0.35893 0.929246,0.5384 1.328071,0.5384 0.598224,0 1.084784,-0.29912 1.459682,-0.89735 0.295119,-0.48656 0.442682,-1.06085 0.44269,-1.7229 v -8.55469 c -8e-6,-0.64608 -0.147571,-1.22436 -0.44269,-1.73486 -0.39085,-0.59024 -0.87741,-0.88537 -1.459682,-0.88538 -0.247274,1e-5 -0.478589,0.0598 -0.693947,0.17947 -0.398825,0.17549 -0.821573,0.47461 -1.268248,0.89734 v -0.87342 h -2.476672 v 18.00673 m 2.476672,-7.54966 v -7.51377 c -3e-6,-0.23131 0.07179,-0.42274 0.215364,-0.57431 0.151547,-0.15951 0.32304,-0.23927 0.514477,-0.23928 0.183453,10e-6 0.338992,0.0798 0.466619,0.23928 0.135595,0.15157 0.203394,0.343 0.203399,0.57431 v 7.51377 c -5e-6,0.23132 -0.06781,0.42674 -0.203399,0.58626 -0.127627,0.15155 -0.283166,0.22733 -0.466619,0.22733 -0.183461,0 -0.350965,-0.0837 -0.502513,-0.25126 -0.151555,-0.17547 -0.227331,-0.36292 -0.227328,-0.56233"
           inkscape:connector-curvature="0"
           style="font-style:normal;font-variant:normal;font-weight:normal;font-stretch:normal;font-size:22.97203255px;line-height:125%;font-family:'League Gothic';-inkscape-font-specification:'League Gothic';letter-spacing:0px;word-spacing:0px;fill:#000000;fill-opacity:1;stroke:none;stroke-width:1.06666672" />
        <path
           id="path3171"
           d="m 74.308931,815.83582 c -10e-7,1.22837 0.255244,2.12572 0.765735,2.69204 0.32703,0.4068 0.733826,0.61019 1.220389,0.61019 0.47858,0 0.913294,-0.15554 1.304141,-0.46662 0.27917,-0.22333 0.506497,-0.49054 0.681983,-0.80163 h 0.167504 c -5e-6,0.52645 0.07577,0.88538 0.227328,1.07681 h 2.416849 c -0.111677,-0.68596 -0.167512,-1.46367 -0.167505,-2.33308 v -8.23165 c -7e-6,-0.86942 -0.30311,-1.59528 -0.909309,-2.17756 -0.598236,-0.57429 -1.300159,-0.86144 -2.10577,-0.86145 -0.957171,1e-5 -1.746834,0.35098 -2.368991,1.05288 -0.638113,0.71789 -0.957169,1.5594 -0.957168,2.52453 v 0.56233 h 2.476672 v -0.63412 c -3e-6,-0.16749 0.01595,-0.37887 0.04786,-0.63412 0.08773,-0.47059 0.307088,-0.7059 0.658053,-0.70591 0.295122,10e-6 0.498521,0.13561 0.610194,0.40679 0.04785,0.15954 0.07179,0.43074 0.07179,0.8136 v 1.47164 c -0.01596,0.0399 -0.0359,0.0798 -0.05982,0.11965 -0.02394,0.0319 -0.05983,0.0678 -0.107681,0.10768 -0.04786,0.0399 -0.09572,0.0758 -0.143575,0.10768 -0.03988,0.0239 -0.09971,0.0598 -0.179469,0.10769 -0.07977,0.0399 -0.147568,0.0757 -0.203399,0.10768 -0.04786,0.0239 -0.127626,0.0638 -0.239291,0.11964 -0.103702,0.0559 -0.183462,0.0997 -0.239293,0.13161 -0.829548,0.43871 -1.475635,0.94521 -1.938265,1.51951 -0.685971,0.85347 -1.028956,1.95821 -1.028955,3.31419 m 2.428813,-0.3709 c -3e-6,-0.67002 0.139584,-1.27224 0.418761,-1.80666 0.287147,-0.54239 0.717872,-0.93721 1.292177,-1.18449 v 3.43384 c -4e-6,0.23131 -0.09971,0.42674 -0.299115,0.58627 -0.199414,0.15155 -0.442694,0.22733 -0.729841,0.22733 -0.263224,0 -0.45067,-0.1715 -0.562336,-0.51449 -0.07977,-0.23131 -0.119649,-0.47858 -0.119646,-0.7418"
           inkscape:connector-curvature="0"
           style="font-style:normal;font-variant:normal;font-weight:normal;font-stretch:normal;font-size:22.97203255px;line-height:125%;font-family:'League Gothic';-inkscape-font-specification:'League Gothic';letter-spacing:0px;word-spacing:0px;fill:#000000;fill-opacity:1;stroke:none;stroke-width:1.06666672" />
        <path
           id="path3173"
           d="m 82.600398,818.94661 h 2.476672 v -9.30846 c -3e-6,-0.51845 0.179465,-0.92923 0.538407,-1.23235 0.287146,-0.27119 0.701918,-0.40678 1.244318,-0.40679 0.271193,10e-6 0.502508,0.0319 0.693947,0.0957 v -2.75185 c -0.749787,10e-6 -1.379921,0.2393 -1.890407,0.71787 -0.175484,0.17549 -0.315072,0.35496 -0.41876,0.5384 -0.09572,0.18348 -0.151555,0.33104 -0.167505,0.44269 v -1.49557 h -2.476672 v 13.40035"
           inkscape:connector-curvature="0"
           style="font-style:normal;font-variant:normal;font-weight:normal;font-stretch:normal;font-size:22.97203255px;line-height:125%;font-family:'League Gothic';-inkscape-font-specification:'League Gothic';letter-spacing:0px;word-spacing:0px;fill:#000000;fill-opacity:1;stroke:none;stroke-width:1.06666672" />
        <path
           id="path3175"
           d="m 87.888752,807.77168 h 1.256283 v 6.86768 c -10e-7,1.22837 0.123633,2.17357 0.370903,2.83562 0.41477,1.10871 1.236338,1.66307 2.464707,1.66307 0.398815,0 0.717871,-0.0239 0.957168,-0.0718 0.03987,-0.007 0.0997,-0.0239 0.179469,-0.0479 0.08773,-0.0239 0.151547,-0.0399 0.191434,-0.0479 v -2.42882 c -0.03191,0.007 -0.07977,0.016 -0.143575,0.0239 -0.06382,0.007 -0.111675,0.016 -0.143575,0.0239 -0.223345,0.0319 -0.430731,0.0479 -0.622159,0.0479 -0.34299,0 -0.570317,-0.26721 -0.681983,-0.80163 -0.06382,-0.29512 -0.09572,-0.76174 -0.09571,-1.39985 v -6.66429 h 1.687008 v -2.22542 h -1.687008 v -3.31418 h -2.476673 v 3.31418 h -1.256283 v 2.22542"
           inkscape:connector-curvature="0"
           style="font-style:normal;font-variant:normal;font-weight:normal;font-stretch:normal;font-size:22.97203255px;line-height:125%;font-family:'League Gothic';-inkscape-font-specification:'League Gothic';letter-spacing:0px;word-spacing:0px;fill:#000000;fill-opacity:1;stroke:none;stroke-width:1.06666672" />
        <path
           id="path3177"
           d="m 94.612858,818.94661 h 2.476672 v -13.40035 h -2.476672 v 13.40035 m 0,-15.53004 h 2.476672 v -2.47668 h -2.476672 v 2.47668"
           inkscape:connector-curvature="0"
           style="font-style:normal;font-variant:normal;font-weight:normal;font-stretch:normal;font-size:22.97203255px;line-height:125%;font-family:'League Gothic';-inkscape-font-specification:'League Gothic';letter-spacing:0px;word-spacing:0px;fill:#000000;fill-opacity:1;stroke:none;stroke-width:1.06666672" />
        <path
           id="path3179"
           d="m 98.96797,816.5178 c -10e-7,0.678 0.155539,1.2523 0.46662,1.7229 0.35096,0.59823 0.82954,0.89735 1.43575,0.89735 0.25524,0 0.49454,-0.0558 0.71788,-0.1675 0.36691,-0.16751 0.78168,-0.47061 1.24432,-0.90931 v 0.88537 h 2.47667 v -18.00672 h -2.47667 v 5.47979 c -0.27121,-0.23927 -0.48258,-0.41875 -0.63413,-0.53841 -0.48656,-0.35892 -0.92925,-0.53839 -1.32807,-0.5384 -0.59823,1e-5 -1.076814,0.29514 -1.43575,0.88538 -0.311081,0.49454 -0.466621,1.07284 -0.46662,1.73486 v 8.55469 m 2.47667,-0.51447 v -7.51377 c 0,-0.23131 0.0638,-0.42274 0.19144,-0.57431 0.12761,-0.15951 0.28316,-0.23927 0.46662,-0.23928 0.18345,10e-6 0.35095,0.0878 0.50251,0.26322 0.15155,0.16751 0.22732,0.35096 0.22733,0.55037 v 7.51377 c -10e-6,0.23132 -0.0758,0.42674 -0.22733,0.58626 -0.14358,0.15155 -0.31109,0.22733 -0.50251,0.22733 -0.18346,0 -0.33901,-0.0757 -0.46662,-0.22733 -0.12763,-0.15952 -0.19144,-0.35494 -0.19144,-0.58626"
           inkscape:connector-curvature="0"
           style="font-style:normal;font-variant:normal;font-weight:normal;font-stretch:normal;font-size:22.97203255px;line-height:125%;font-family:'League Gothic';-inkscape-font-specification:'League Gothic';letter-spacing:0px;word-spacing:0px;fill:#000000;fill-opacity:1;stroke:none;stroke-width:1.06666672" />
        <path
           id="path3181"
           d="m 107.06801,815.60849 c 0.0239,0.60621 0.15554,1.19647 0.39483,1.77076 0.52644,1.17254 1.45171,1.7588 2.77579,1.7588 0.80562,0 1.42378,-0.17947 1.85451,-0.5384 0.43072,-0.35097 0.74978,-0.75776 0.95717,-1.2204 0.20738,-0.4706 0.33101,-1.03294 0.37091,-1.687 v -6.89161 c -0.0239,-0.56631 -0.15556,-1.13663 -0.39484,-1.71094 -0.53442,-1.16455 -1.46367,-1.74682 -2.78775,-1.74683 -0.82157,1e-5 -1.43575,0.17948 -1.84254,0.5384 -0.8136,0.68598 -1.25629,1.68304 -1.32808,2.99116 v 6.73606 m 2.3331,0 v -6.73606 c -0.007,-0.0638 -0.0119,-0.12762 -0.0119,-0.19144 0,-0.18344 0.0279,-0.34696 0.0837,-0.49055 0.11963,-0.45464 0.37489,-0.68197 0.76573,-0.68198 0.23131,10e-6 0.41078,0.0638 0.5384,0.19143 0.20739,0.26324 0.31108,0.61021 0.31109,1.04092 -1e-5,0.0479 -1e-5,0.0917 0,0.13162 v 6.73606 c 0.007,0.0638 0.0119,0.12763 0.0119,0.19144 -1e-5,0.19143 -0.0279,0.35894 -0.0837,0.50251 -0.11168,0.4387 -0.37091,0.65805 -0.7777,0.65805 -0.21537,0 -0.38685,-0.0638 -0.51448,-0.19143 -0.21536,-0.27917 -0.32304,-0.62216 -0.32304,-1.02895 0,-0.0479 0,-0.0917 0,-0.13162"
           inkscape:connector-curvature="0"
           style="font-style:normal;font-variant:normal;font-weight:normal;font-stretch:normal;font-size:22.97203255px;line-height:125%;font-family:'League Gothic';-inkscape-font-specification:'League Gothic';letter-spacing:0px;word-spacing:0px;fill:#000000;fill-opacity:1;stroke:none;stroke-width:1.06666672" />
        <path
           id="path3183"
           d="m 115.14412,823.55299 h 2.47667 v -5.49175 c 0.27119,0.23929 0.48257,0.41876 0.63412,0.53841 0.48656,0.35893 0.92925,0.5384 1.32808,0.5384 0.59822,0 1.08478,-0.29912 1.45968,-0.89735 0.29511,-0.48656 0.44267,-1.06085 0.44268,-1.7229 v -8.55469 c -1e-5,-0.64608 -0.14757,-1.22436 -0.44268,-1.73486 -0.39085,-0.59024 -0.87741,-0.88537 -1.45968,-0.88538 -0.24728,1e-5 -0.4786,0.0598 -0.69396,0.17947 -0.39882,0.17549 -0.82156,0.47461 -1.26824,0.89734 v -0.87342 h -2.47667 v 18.00673 m 2.47667,-7.54966 v -7.51377 c 0,-0.23131 0.0718,-0.42274 0.21536,-0.57431 0.15155,-0.15951 0.32304,-0.23927 0.51448,-0.23928 0.18345,10e-6 0.33899,0.0798 0.46662,0.23928 0.13559,0.15157 0.20339,0.343 0.2034,0.57431 v 7.51377 c -1e-5,0.23132 -0.0678,0.42674 -0.2034,0.58626 -0.12763,0.15155 -0.28317,0.22733 -0.46662,0.22733 -0.18346,0 -0.35096,-0.0837 -0.50251,-0.25126 -0.15155,-0.17547 -0.22733,-0.36292 -0.22733,-0.56233"
           inkscape:connector-curvature="0"
           style="font-style:normal;font-variant:normal;font-weight:normal;font-stretch:normal;font-size:22.97203255px;line-height:125%;font-family:'League Gothic';-inkscape-font-specification:'League Gothic';letter-spacing:0px;word-spacing:0px;fill:#000000;fill-opacity:1;stroke:none;stroke-width:1.06666672" />
        <path
           id="path3185"
           d="m 123.37575,818.94661 h 2.47668 v -13.40035 h -2.47668 v 13.40035 m 0,-15.53004 h 2.47668 v -2.47668 h -2.47668 v 2.47668"
           inkscape:connector-curvature="0"
           style="font-style:normal;font-variant:normal;font-weight:normal;font-stretch:normal;font-size:22.97203255px;line-height:125%;font-family:'League Gothic';-inkscape-font-specification:'League Gothic';letter-spacing:0px;word-spacing:0px;fill:#000000;fill-opacity:1;stroke:none;stroke-width:1.06666672" />
        <path
           id="path3187"
           d="m 127.82659,818.94661 h 2.47667 v -9.30846 c -1e-5,-0.51845 0.17947,-0.92923 0.5384,-1.23235 0.28715,-0.27119 0.70192,-0.40678 1.24432,-0.40679 0.27119,10e-6 0.50251,0.0319 0.69396,0.0957 v -2.75185 c -0.7498,10e-6 -1.37993,0.2393 -1.89041,0.71787 -0.17549,0.17549 -0.31508,0.35496 -0.41877,0.5384 -0.0957,0.18348 -0.15155,0.33104 -0.1675,0.44269 v -1.49557 h -2.47667 v 13.40035"
           inkscape:connector-curvature="0"
           style="font-style:normal;font-variant:normal;font-weight:normal;font-stretch:normal;font-size:22.97203255px;line-height:125%;font-family:'League Gothic';-inkscape-font-specification:'League Gothic';letter-spacing:0px;word-spacing:0px;fill:#000000;fill-opacity:1;stroke:none;stroke-width:1.06666672" />
        <path
           id="path3189"
           d="m 133.46192,815.83582 c 0,1.22837 0.25524,2.12572 0.76573,2.69204 0.32703,0.4068 0.73382,0.61019 1.22039,0.61019 0.47858,0 0.91329,-0.15554 1.30414,-0.46662 0.27917,-0.22333 0.5065,-0.49054 0.68199,-0.80163 h 0.16749 c 0,0.52645 0.0757,0.88538 0.22733,1.07681 h 2.41686 c -0.11168,-0.68596 -0.16751,-1.46367 -0.16751,-2.33308 v -8.23165 c 0,-0.86942 -0.30311,-1.59528 -0.90931,-2.17756 -0.59824,-0.57429 -1.30016,-0.86144 -2.10577,-0.86145 -0.95717,1e-5 -1.74683,0.35098 -2.36899,1.05288 -0.63811,0.71789 -0.95717,1.5594 -0.95717,2.52453 v 0.56233 h 2.47667 v -0.63412 c 0,-0.16749 0.016,-0.37887 0.0479,-0.63412 0.0878,-0.47059 0.3071,-0.7059 0.65805,-0.70591 0.29513,10e-6 0.49853,0.13561 0.6102,0.40679 0.0479,0.15954 0.0718,0.43074 0.0718,0.8136 v 1.47164 c -0.016,0.0399 -0.0358,0.0798 -0.0598,0.11965 -0.0239,0.0319 -0.0598,0.0678 -0.10768,0.10768 -0.0479,0.0399 -0.0957,0.0758 -0.14358,0.10768 -0.0399,0.0239 -0.0997,0.0598 -0.17947,0.10769 -0.0798,0.0399 -0.14757,0.0757 -0.2034,0.10768 -0.0479,0.0239 -0.12762,0.0638 -0.23929,0.11964 -0.10368,0.0559 -0.18346,0.0997 -0.23929,0.13161 -0.82956,0.43871 -1.47564,0.94521 -1.93827,1.51951 -0.68597,0.85347 -1.02895,1.95821 -1.02895,3.31419 m 2.42881,-0.3709 c 0,-0.67002 0.13959,-1.27224 0.41876,-1.80666 0.28715,-0.54239 0.71787,-0.93721 1.29217,-1.18449 v 3.43384 c 0,0.23131 -0.0997,0.42674 -0.29911,0.58627 -0.19941,0.15155 -0.44269,0.22733 -0.72983,0.22733 -0.26324,0 -0.45068,-0.1715 -0.56234,-0.51449 -0.0798,-0.23131 -0.11965,-0.47858 -0.11965,-0.7418"
           inkscape:connector-curvature="0"
           style="font-style:normal;font-variant:normal;font-weight:normal;font-stretch:normal;font-size:22.97203255px;line-height:125%;font-family:'League Gothic';-inkscape-font-specification:'League Gothic';letter-spacing:0px;word-spacing:0px;fill:#000000;fill-opacity:1;stroke:none;stroke-width:1.06666672" />
        <path
           id="path3191"
           d="m 141.01158,807.77168 h 1.25628 v 6.86768 c 0,1.22837 0.12364,2.17357 0.3709,2.83562 0.41478,1.10871 1.23634,1.66307 2.46472,1.66307 0.39881,0 0.71786,-0.0239 0.95716,-0.0718 0.0399,-0.007 0.0997,-0.0239 0.17947,-0.0479 0.0878,-0.0239 0.15155,-0.0399 0.19143,-0.0479 v -2.42882 c -0.0319,0.007 -0.0798,0.016 -0.14357,0.0239 -0.0638,0.007 -0.11167,0.016 -0.14358,0.0239 -0.22334,0.0319 -0.43073,0.0479 -0.62215,0.0479 -0.343,0 -0.57033,-0.26721 -0.68198,-0.80163 -0.0638,-0.29512 -0.0957,-0.76174 -0.0957,-1.39985 v -6.66429 h 1.687 v -2.22542 h -1.687 v -3.31418 h -2.47668 v 3.31418 h -1.25627 v 2.22542"
           inkscape:connector-curvature="0"
           style="font-style:normal;font-variant:normal;font-weight:normal;font-stretch:normal;font-size:22.97203255px;line-height:125%;font-family:'League Gothic';-inkscape-font-specification:'League Gothic';letter-spacing:0px;word-spacing:0px;fill:#000000;fill-opacity:1;stroke:none;stroke-width:1.06666672" />
        <path
           id="path3193"
           d="m 147.34085,815.83582 c 0,1.22837 0.25525,2.12572 0.76574,2.69204 0.32703,0.4068 0.73383,0.61019 1.22039,0.61019 0.47858,0 0.9133,-0.15554 1.30413,-0.46662 0.27918,-0.22333 0.50651,-0.49054 0.68199,-0.80163 h 0.16751 c -1e-5,0.52645 0.0757,0.88538 0.22733,1.07681 h 2.41684 c -0.11167,-0.68596 -0.16751,-1.46367 -0.1675,-2.33308 v -8.23165 c -1e-5,-0.86942 -0.30311,-1.59528 -0.90931,-2.17756 -0.59824,-0.57429 -1.30016,-0.86144 -2.10577,-0.86145 -0.95718,1e-5 -1.74684,0.35098 -2.36899,1.05288 -0.63812,0.71789 -0.95717,1.5594 -0.95717,2.52453 v 0.56233 h 2.47667 v -0.63412 c 0,-0.16749 0.0159,-0.37887 0.0479,-0.63412 0.0877,-0.47059 0.30708,-0.7059 0.65805,-0.70591 0.29512,10e-6 0.49851,0.13561 0.61019,0.40679 0.0479,0.15954 0.0718,0.43074 0.0718,0.8136 v 1.47164 c -0.016,0.0399 -0.0359,0.0798 -0.0598,0.11965 -0.0239,0.0319 -0.0598,0.0678 -0.10768,0.10768 -0.0479,0.0399 -0.0957,0.0758 -0.14357,0.10768 -0.0399,0.0239 -0.0997,0.0598 -0.17947,0.10769 -0.0798,0.0399 -0.14757,0.0757 -0.2034,0.10768 -0.0479,0.0239 -0.12763,0.0638 -0.23929,0.11964 -0.10368,0.0559 -0.18346,0.0997 -0.23929,0.13161 -0.82955,0.43871 -1.47564,0.94521 -1.93827,1.51951 -0.68597,0.85347 -1.02896,1.95821 -1.02896,3.31419 m 2.42882,-0.3709 c 0,-0.67002 0.13958,-1.27224 0.41876,-1.80666 0.28714,-0.54239 0.71788,-0.93721 1.29218,-1.18449 v 3.43384 c -1e-5,0.23131 -0.0997,0.42674 -0.29912,0.58627 -0.19941,0.15155 -0.44269,0.22733 -0.72984,0.22733 -0.26322,0 -0.45067,-0.1715 -0.56234,-0.51449 -0.0798,-0.23131 -0.11964,-0.47858 -0.11964,-0.7418"
           inkscape:connector-curvature="0"
           style="font-style:normal;font-variant:normal;font-weight:normal;font-stretch:normal;font-size:22.97203255px;line-height:125%;font-family:'League Gothic';-inkscape-font-specification:'League Gothic';letter-spacing:0px;word-spacing:0px;fill:#000000;fill-opacity:1;stroke:none;stroke-width:1.06666672" />
        <path
           id="path3195"
           d="m 155.28534,818.94661 h 2.57239 v -2.71595 h -2.57239 v 2.71595"
           inkscape:connector-curvature="0"
           style="font-style:normal;font-variant:normal;font-weight:normal;font-stretch:normal;font-size:22.97203255px;line-height:125%;font-family:'League Gothic';-inkscape-font-specification:'League Gothic';letter-spacing:0px;word-spacing:0px;fill:#000000;fill-opacity:1;stroke:none;stroke-width:1.06666672" />
        <path
           id="path3197"
           d="m 159.26956,815.17777 c 0,1.42778 0.29911,2.4647 0.89735,3.1108 0.51847,0.56632 1.27223,0.84948 2.2613,0.84948 1.08479,0 1.87446,-0.26721 2.369,-0.80162 0.54238,-0.59026 0.81358,-1.60326 0.8136,-3.03901 v -1.30415 h -2.47669 v 1.86648 c 0,0.41478 -0.0479,0.69794 -0.14357,0.84949 -0.0957,0.15155 -0.28317,0.22733 -0.56234,0.22733 -0.20739,0 -0.36691,-0.0598 -0.47858,-0.17947 -0.10368,-0.12763 -0.16751,-0.25524 -0.19143,-0.38287 -0.016,-0.1356 -0.0239,-0.30709 -0.0239,-0.51448 v -7.22662 c -1e-5,-0.20737 0.007,-0.37488 0.0239,-0.50252 0.0239,-0.13558 0.0877,-0.2632 0.19143,-0.38286 0.11167,-0.12761 0.27119,-0.19142 0.47858,-0.19143 0.27917,10e-6 0.46662,0.0758 0.56234,0.22733 0.0957,0.15156 0.14357,0.43472 0.14357,0.84948 v 1.61522 h 2.47669 v -1.05288 c -2e-5,-1.43575 -0.27122,-2.44875 -0.8136,-3.03901 -0.49454,-0.54238 -1.28421,-0.81358 -2.369,-0.81359 -0.9811,1e-5 -1.73487,0.28716 -2.2613,0.86145 -0.59824,0.6461 -0.89735,1.68303 -0.89735,3.11079 v 5.86266"
           inkscape:connector-curvature="0"
           style="font-style:normal;font-variant:normal;font-weight:normal;font-stretch:normal;font-size:22.97203255px;line-height:125%;font-family:'League Gothic';-inkscape-font-specification:'League Gothic';letter-spacing:0px;word-spacing:0px;fill:#000000;fill-opacity:1;stroke:none;stroke-width:1.06666672" />
        <path
           id="path3199"
           d="m 166.93888,815.60849 c 0.0239,0.60621 0.15553,1.19647 0.39483,1.77076 0.52644,1.17254 1.4517,1.7588 2.77578,1.7588 0.80561,0 1.42379,-0.17947 1.85452,-0.5384 0.43072,-0.35097 0.74977,-0.75776 0.95716,-1.2204 0.20738,-0.4706 0.33102,-1.03294 0.3709,-1.687 v -6.89161 c -0.0239,-0.56631 -0.15554,-1.13663 -0.39482,-1.71094 -0.53442,-1.16455 -1.46368,-1.74682 -2.78776,-1.74683 -0.82156,1e-5 -1.43575,0.17948 -1.84255,0.5384 -0.81359,0.68598 -1.25627,1.68304 -1.32806,2.99116 v 6.73606 m 2.3331,0 v -6.73606 c -0.007,-0.0638 -0.012,-0.12762 -0.012,-0.19144 0,-0.18344 0.028,-0.34696 0.0837,-0.49055 0.11963,-0.45464 0.37488,-0.68197 0.76572,-0.68198 0.23132,10e-6 0.41079,0.0638 0.53841,0.19143 0.20739,0.26324 0.31108,0.61021 0.31109,1.04092 -1e-5,0.0479 -1e-5,0.0917 0,0.13162 v 6.73606 c 0.007,0.0638 0.0119,0.12763 0.0119,0.19144 0,0.19143 -0.0279,0.35894 -0.0837,0.50251 -0.11168,0.4387 -0.37091,0.65805 -0.77771,0.65805 -0.21536,0 -0.38686,-0.0638 -0.51447,-0.19143 -0.21537,-0.27917 -0.32305,-0.62216 -0.32304,-1.02895 -1e-5,-0.0479 -1e-5,-0.0917 0,-0.13162"
           inkscape:connector-curvature="0"
           style="font-style:normal;font-variant:normal;font-weight:normal;font-stretch:normal;font-size:22.97203255px;line-height:125%;font-family:'League Gothic';-inkscape-font-specification:'League Gothic';letter-spacing:0px;word-spacing:0px;fill:#000000;fill-opacity:1;stroke:none;stroke-width:1.06666672" />
        <path
           id="path3201"
           d="m 175.01497,818.94661 h 2.47667 v -10.56473 c 0.0479,-0.0798 0.13559,-0.18345 0.26322,-0.31109 0.21536,-0.21534 0.4387,-0.32302 0.67001,-0.32304 0.4387,2e-5 0.65805,0.19544 0.65806,0.58627 v 10.61259 h 2.32113 v -10.56473 c 0.0319,-0.0638 0.12363,-0.1675 0.27519,-0.31109 0.21535,-0.21534 0.4347,-0.32302 0.65805,-0.32304 0.44667,2e-5 0.67001,0.19544 0.67002,0.58627 v 10.61259 h 2.32113 v -10.9835 c -1e-5,-0.64608 -0.14758,-1.22436 -0.44269,-1.73486 -0.35894,-0.59024 -0.83355,-0.88537 -1.42379,-0.88538 -0.19144,1e-5 -0.41079,0.0678 -0.65804,0.20339 -0.48658,0.28717 -0.88539,0.59825 -1.19646,0.93324 -0.16752,0.16752 -0.29913,0.28717 -0.39484,0.35894 -0.35097,-0.99703 -0.90532,-1.49556 -1.66308,-1.49557 -0.2074,1e-5 -0.41877,0.0598 -0.63413,0.17947 -0.38287,0.2074 -0.76175,0.49853 -1.13663,0.87341 -0.17548,0.17549 -0.27121,0.26723 -0.28715,0.27518 v -1.12467 h -2.47667 v 13.40035"
           inkscape:connector-curvature="0"
           style="font-style:normal;font-variant:normal;font-weight:normal;font-stretch:normal;font-size:22.97203255px;line-height:125%;font-family:'League Gothic';-inkscape-font-specification:'League Gothic';letter-spacing:0px;word-spacing:0px;fill:#000000;fill-opacity:1;stroke:none;stroke-width:1.06666672" />
        <path
           id="path3203"
           d="m 186.8719,818.94661 h 2.57239 v -2.71595 h -2.57239 v 2.71595"
           inkscape:connector-curvature="0"
           style="font-style:normal;font-variant:normal;font-weight:normal;font-stretch:normal;font-size:22.97203255px;line-height:125%;font-family:'League Gothic';-inkscape-font-specification:'League Gothic';letter-spacing:0px;word-spacing:0px;fill:#000000;fill-opacity:1;stroke:none;stroke-width:1.06666672" />
        <path
           id="path3205"
           d="m 190.6527,815.83582 c 0,1.22837 0.25525,2.12572 0.76574,2.69204 0.32703,0.4068 0.73383,0.61019 1.22039,0.61019 0.47858,0 0.91329,-0.15554 1.30414,-0.46662 0.27916,-0.22333 0.50649,-0.49054 0.68198,-0.80163 h 0.16751 c -1e-5,0.52645 0.0757,0.88538 0.22733,1.07681 h 2.41684 c -0.11167,-0.68596 -0.16751,-1.46367 -0.1675,-2.33308 v -8.23165 c -1e-5,-0.86942 -0.30311,-1.59528 -0.90931,-2.17756 -0.59824,-0.57429 -1.30016,-0.86144 -2.10577,-0.86145 -0.95718,1e-5 -1.74684,0.35098 -2.36899,1.05288 -0.63812,0.71789 -0.95717,1.5594 -0.95717,2.52453 v 0.56233 h 2.47668 v -0.63412 c -2e-5,-0.16749 0.0159,-0.37887 0.0479,-0.63412 0.0878,-0.47059 0.30709,-0.7059 0.65806,-0.70591 0.29512,10e-6 0.49851,0.13561 0.61019,0.40679 0.0479,0.15954 0.0718,0.43074 0.0718,0.8136 v 1.47164 c -0.016,0.0399 -0.0359,0.0798 -0.0598,0.11965 -0.0239,0.0319 -0.0598,0.0678 -0.10768,0.10768 -0.0479,0.0399 -0.0957,0.0758 -0.14357,0.10768 -0.0399,0.0239 -0.0997,0.0598 -0.17947,0.10769 -0.0798,0.0399 -0.14757,0.0757 -0.2034,0.10768 -0.0479,0.0239 -0.12763,0.0638 -0.23929,0.11964 -0.10368,0.0559 -0.18346,0.0997 -0.23929,0.13161 -0.82955,0.43871 -1.47564,0.94521 -1.93826,1.51951 -0.68598,0.85347 -1.02896,1.95821 -1.02896,3.31419 m 2.42881,-0.3709 c 0,-0.67002 0.13958,-1.27224 0.41876,-1.80666 0.28715,-0.54239 0.71788,-0.93721 1.29218,-1.18449 v 3.43384 c -1e-5,0.23131 -0.0997,0.42674 -0.29911,0.58627 -0.19942,0.15155 -0.4427,0.22733 -0.72985,0.22733 -0.26322,0 -0.45067,-0.1715 -0.56234,-0.51449 -0.0798,-0.23131 -0.11964,-0.47858 -0.11964,-0.7418"
           inkscape:connector-curvature="0"
           style="font-style:normal;font-variant:normal;font-weight:normal;font-stretch:normal;font-size:22.97203255px;line-height:125%;font-family:'League Gothic';-inkscape-font-specification:'League Gothic';letter-spacing:0px;word-spacing:0px;fill:#000000;fill-opacity:1;stroke:none;stroke-width:1.06666672" />
        <path
           id="path3207"
           d="m 198.94417,818.94661 h 2.47667 v -9.30846 c -1e-5,-0.51845 0.17946,-0.92923 0.5384,-1.23235 0.28715,-0.27119 0.70192,-0.40678 1.24432,-0.40679 0.27119,10e-6 0.50251,0.0319 0.69395,0.0957 v -2.75185 c -0.74979,10e-6 -1.37992,0.2393 -1.89041,0.71787 -0.17548,0.17549 -0.31507,0.35496 -0.41876,0.5384 -0.0957,0.18348 -0.15155,0.33104 -0.1675,0.44269 v -1.49557 h -2.47667 v 13.40035"
           inkscape:connector-curvature="0"
           style="font-style:normal;font-variant:normal;font-weight:normal;font-stretch:normal;font-size:22.97203255px;line-height:125%;font-family:'League Gothic';-inkscape-font-specification:'League Gothic';letter-spacing:0px;word-spacing:0px;fill:#000000;fill-opacity:1;stroke:none;stroke-width:1.06666672" />
      </g>
      <g
         id="text3150"
         style="font-style:normal;font-variant:normal;font-weight:normal;font-stretch:normal;font-size:40px;line-height:125%;font-family:'League Gothic';-inkscape-font-specification:'League Gothic';letter-spacing:0px;word-spacing:0px;fill:#000000;fill-opacity:1;stroke:none"
         transform="translate(0.02165876,-1.0981778)">
        <path
           id="path3210"
           d="m 16.142855,851.70117 c 0.04166,1.31945 0.29861,2.45834 0.770835,3.41666 0.416663,0.93056 1.013884,1.69446 1.791666,2.29167 0.874995,0.70833 2.069438,1.0625 3.583333,1.0625 1.486102,0 2.666656,-0.35417 3.541667,-1.0625 0.819432,-0.625 1.430542,-1.38888 1.833334,-2.29167 0.472208,-0.95832 0.729152,-2.09721 0.770833,-3.41666 V 826.7845 h -4.604167 v 24.91667 c -9e-6,0.47223 -0.06251,0.85418 -0.187501,1.14584 -0.194453,0.76389 -0.645841,1.14583 -1.354166,1.14583 -0.375007,0 -0.673618,-0.11111 -0.895834,-0.33333 -0.430562,-0.5 -0.645838,-1.15278 -0.645832,-1.95834 V 826.7845 h -4.604168 v 24.91667"
           inkscape:connector-curvature="0"
           style="stroke-width:1.06666672" />
        <path
           id="path3212"
           d="m 30.476189,838.68034 h 2.187501 v 11.95833 c -4e-6,2.1389 0.215274,3.78473 0.645832,4.9375 0.722219,1.93056 2.152772,2.89583 4.291667,2.89583 0.694437,0 1.249992,-0.0417 1.666667,-0.12499 0.06943,-0.0139 0.173601,-0.0417 0.3125,-0.0833 0.152768,-0.0417 0.263879,-0.0694 0.333334,-0.0833 v -4.22917 c -0.05556,0.0139 -0.1389,0.0278 -0.25,0.0417 -0.111121,0.0139 -0.194455,0.0277 -0.25,0.0417 -0.388899,0.0556 -0.750009,0.0833 -1.083334,0.0833 -0.59723,10e-6 -0.993063,-0.46527 -1.187501,-1.39583 -0.111117,-0.51389 -0.166673,-1.32638 -0.166666,-2.4375 v -11.60416 h 2.937501 v -3.87501 h -2.937501 v -5.77083 H 32.66369 v 5.77083 h -2.187501 v 3.87501"
           inkscape:connector-curvature="0"
           style="stroke-width:1.06666672" />
        <path
           id="path3214"
           d="m 41.788689,852.32618 c 0.04166,1.05555 0.270832,2.08332 0.6875,3.08332 0.916664,2.04167 2.527774,3.0625 4.833333,3.0625 1.40277,0 2.479157,-0.31249 3.229167,-0.93749 0.749989,-0.61112 1.305545,-1.31945 1.666667,-2.12501 0.361098,-0.81943 0.576376,-1.7986 0.645833,-2.9375 v -12 c -0.04167,-0.98609 -0.270846,-1.97915 -0.687499,-2.97916 -0.930567,-2.02775 -2.548621,-3.04164 -4.854168,-3.04167 -1.430561,3e-5 -2.500004,0.31252 -3.208333,0.9375 -1.416668,1.19447 -2.187502,2.93057 -2.3125,5.20833 v 11.72918 m 4.0625,0 V 840.597 c -0.0139,-0.11109 -0.02084,-0.22219 -0.02083,-0.33333 -5e-6,-0.31942 0.04861,-0.60415 0.145833,-0.85417 0.208327,-0.79164 0.652772,-1.18747 1.333333,-1.18749 0.402771,2e-5 0.715271,0.11113 0.937501,0.33333 0.361103,0.45836 0.541658,1.06252 0.541666,1.8125 -8e-6,0.0833 -8e-6,0.15973 0,0.22916 v 11.72918 c 0.01388,0.11111 0.02082,0.22221 0.02083,0.33333 -7e-6,0.33333 -0.04862,0.625 -0.145832,0.875 -0.194454,0.76389 -0.645841,1.14583 -1.354168,1.14583 -0.375006,0 -0.673617,-0.11111 -0.895832,-0.33333 -0.375006,-0.48611 -0.562506,-1.08333 -0.562501,-1.79167 -5e-6,-0.0833 -5e-6,-0.15971 0,-0.22916"
           inkscape:connector-curvature="0"
           style="stroke-width:1.06666672" />
        <path
           id="path3216"
           d="M 55.851189,866.15951 H 60.16369 V 856.597 c 0.472215,0.41667 0.840271,0.72918 1.104166,0.93751 0.847214,0.625 1.618047,0.93749 2.3125,0.93749 1.041656,0 1.888877,-0.52083 2.541666,-1.5625 0.513877,-0.84722 0.770821,-1.84722 0.770833,-3 v -14.89583 c -1.2e-5,-1.12498 -0.256956,-2.13192 -0.770833,-3.02083 -0.680566,-1.02775 -1.527787,-1.54164 -2.541666,-1.54167 -0.430565,3e-5 -0.833342,0.10421 -1.208334,0.3125 -0.694452,0.30558 -1.430562,0.82641 -2.208332,1.56251 v -1.52085 h -4.312501 v 31.35418 m 4.312501,-13.14584 v -13.08333 c -7e-6,-0.40276 0.124993,-0.73609 0.374999,-1 0.263883,-0.27776 0.562493,-0.41664 0.895834,-0.41667 0.319436,3e-5 0.59027,0.13891 0.8125,0.41667 0.236102,0.26391 0.354158,0.59724 0.354166,1 v 13.08333 c -8e-6,0.40279 -0.118064,0.74307 -0.354166,1.02084 -0.22223,0.26389 -0.493064,0.39584 -0.8125,0.39583 -0.319452,10e-6 -0.611118,-0.14583 -0.875001,-0.4375 -0.263894,-0.30555 -0.395839,-0.63194 -0.395832,-0.97917"
           inkscape:connector-curvature="0"
           style="stroke-width:1.06666672" />
        <path
           id="path3218"
           d="m 70.184523,858.13867 h 4.3125 v -23.33334 h -4.3125 v 23.33334 m 0,-27.1875 h 3.333333 l 3.354166,-3.83334 h -4.479167 l -2.208332,3.83334"
           inkscape:connector-curvature="0"
           style="stroke-width:1.06666672" />
        <path
           id="path3220"
           d="m 77.247023,852.72201 c -10e-7,2.13889 0.444443,3.70138 1.333333,4.68749 0.569441,0.70833 1.277774,1.0625 2.125,1.0625 0.833328,0 1.590272,-0.27083 2.270833,-0.81249 0.486104,-0.3889 0.881937,-0.85417 1.187501,-1.39584 h 0.291666 c -9e-6,0.91667 0.131936,1.54167 0.395833,1.875 h 4.208333 c -0.194456,-1.19445 -0.291679,-2.54861 -0.291666,-4.0625 v -14.33333 c -1.3e-5,-1.51387 -0.52779,-2.77776 -1.583333,-3.79167 -1.041677,-0.99997 -2.263898,-1.49997 -3.666667,-1.5 -1.666672,3e-5 -3.041671,0.61113 -4.125001,1.83333 -1.111112,1.25003 -1.666667,2.7153 -1.666666,4.39584 v 0.97917 h 4.3125 v -1.10417 c -5e-6,-0.29165 0.02778,-0.6597 0.08334,-1.10417 0.152772,-0.81943 0.534715,-1.22914 1.145833,-1.22916 0.513882,2e-5 0.868048,0.23612 1.062501,0.70833 0.08333,0.2778 0.124991,0.75001 0.124999,1.41667 v 2.56249 c -0.02779,0.0694 -0.06251,0.13891 -0.104171,0.20833 -0.04167,0.0556 -0.10417,0.11807 -0.187499,0.1875 -0.08334,0.0694 -0.166676,0.13197 -0.25,0.18751 -0.06945,0.0417 -0.17362,0.10422 -0.312501,0.1875 -0.138896,0.0694 -0.256951,0.13196 -0.354166,0.1875 -0.08334,0.0417 -0.222229,0.11113 -0.416667,0.20833 -0.180562,0.0973 -0.31945,0.17362 -0.416666,0.22916 -1.44445,0.76391 -2.569449,1.64586 -3.375001,2.64584 -1.194446,1.48612 -1.791667,3.40974 -1.791666,5.77084 m 4.229166,-0.64584 c -5e-6,-1.16666 0.243051,-2.21526 0.729167,-3.14583 0.499993,-0.94443 1.249992,-1.63194 2.25,-2.0625 v 5.97917 c -9e-6,0.40278 -0.173619,0.74306 -0.520833,1.02083 -0.34723,0.26389 -0.770841,0.39584 -1.270833,0.39583 -0.458341,10e-6 -0.784729,-0.2986 -0.979167,-0.89583 -0.138894,-0.40277 -0.208339,-0.83333 -0.208334,-1.29167"
           inkscape:connector-curvature="0"
           style="stroke-width:1.06666672" />
        <path
           id="path3222"
           d="m 98.267856,858.13867 h 4.604164 V 845.597 c 2.24999,10e-6 4.09722,-0.68054 5.54167,-2.04166 1.70832,-1.61109 2.56248,-4.07637 2.5625,-7.39583 -2e-5,-3.33331 -0.85418,-5.80554 -2.5625,-7.41667 -1.37501,-1.30553 -3.22223,-1.95831 -5.54167,-1.95834 h -4.604164 v 31.35417 m 4.604164,-17.22917 v -9.4375 c 1.37499,3e-5 2.31249,0.36809 2.8125,1.10417 0.43055,0.63891 0.64583,1.88892 0.64584,3.75001 -1e-5,1.83334 -0.21529,3.03474 -0.64584,3.60416 -0.47223,0.6528 -1.40973,0.97919 -2.8125,0.97916"
           inkscape:connector-curvature="0"
           style="stroke-width:1.06666672" />
        <path
           id="path3224"
           d="m 113.26785,858.13867 h 4.3125 v -23.33334 h -4.3125 v 23.33334 m 0,-27.04167 h 4.3125 v -4.3125 h -4.3125 v 4.3125"
           inkscape:connector-curvature="0"
           style="stroke-width:1.06666672" />
        <path
           id="path3226"
           d="m 121.01786,858.13867 h 4.3125 v -16.20833 c -1e-5,-0.90277 0.31249,-1.61804 0.93749,-2.14584 0.5,-0.4722 1.22222,-0.70831 2.16667,-0.70833 0.47221,2e-5 0.87499,0.0556 1.20834,0.16667 v -4.79167 c -1.30557,3e-5 -2.40279,0.41669 -3.29167,1.25 -0.30556,0.30558 -0.54862,0.61808 -0.72916,0.9375 -0.16668,0.31946 -0.26391,0.57641 -0.29167,0.77083 v -2.60417 h -4.3125 v 23.33334"
           inkscape:connector-curvature="0"
           style="stroke-width:1.06666672" />
        <path
           id="path3228"
           d="m 130.83036,852.72201 c 0,2.13889 0.44443,3.70138 1.33333,4.68749 0.56944,0.70833 1.27777,1.0625 2.125,1.0625 0.83333,0 1.59028,-0.27083 2.27083,-0.81249 0.4861,-0.3889 0.88194,-0.85417 1.1875,-1.39584 h 0.29167 c -1e-5,0.91667 0.13193,1.54167 0.39583,1.875 h 4.20834 c -0.19447,-1.19445 -0.29168,-2.54861 -0.29167,-4.0625 v -14.33333 c -1e-5,-1.51387 -0.52779,-2.77776 -1.58334,-3.79167 -1.04167,-0.99997 -2.26389,-1.49997 -3.66667,-1.5 -1.66666,3e-5 -3.04166,0.61113 -4.12499,1.83333 -1.11111,1.25003 -1.66666,2.7153 -1.66666,4.39584 v 0.97917 h 4.3125 v -1.10417 c -1e-5,-0.29165 0.0277,-0.6597 0.0833,-1.10417 0.15277,-0.81943 0.53472,-1.22914 1.14584,-1.22916 0.51388,2e-5 0.86804,0.23612 1.06249,0.70833 0.0833,0.2778 0.125,0.75001 0.12501,1.41667 v 2.56249 c -0.0277,0.0694 -0.0625,0.13891 -0.10422,0.20833 -0.0417,0.0556 -0.10421,0.11807 -0.1875,0.1875 -0.0833,0.0694 -0.16666,0.13197 -0.24999,0.18751 -0.0694,0.0417 -0.17362,0.10422 -0.3125,0.1875 -0.1389,0.0694 -0.25695,0.13196 -0.35417,0.1875 -0.0833,0.0417 -0.22223,0.11113 -0.41667,0.20833 -0.18055,0.0973 -0.31944,0.17362 -0.41666,0.22916 -1.44445,0.76391 -2.56945,1.64586 -3.375,2.64584 -1.19445,1.48612 -1.79167,3.40974 -1.79167,5.77084 m 4.22917,-0.64584 c 0,-1.16666 0.24305,-2.21526 0.72917,-3.14583 0.49999,-0.94443 1.24998,-1.63194 2.24999,-2.0625 v 5.97917 c -1e-5,0.40278 -0.17362,0.74306 -0.52083,1.02083 -0.34723,0.26389 -0.77084,0.39584 -1.27084,0.39583 -0.45833,10e-6 -0.78472,-0.2986 -0.97916,-0.89583 -0.13889,-0.40277 -0.20833,-0.83333 -0.20833,-1.29167"
           inkscape:connector-curvature="0"
           style="stroke-width:1.06666672" />
        <path
           id="path3230"
           d="m 143.97619,838.68034 h 2.1875 v 11.95833 c 0,2.1389 0.21528,3.78473 0.64584,4.9375 0.72221,1.93056 2.15276,2.89583 4.29165,2.89583 0.69445,0 1.25,-0.0417 1.66667,-0.12499 0.0694,-0.0139 0.17361,-0.0417 0.3125,-0.0833 0.15277,-0.0417 0.26388,-0.0694 0.33334,-0.0833 v -4.22917 c -0.0556,0.0139 -0.1389,0.0278 -0.25,0.0417 -0.11112,0.0139 -0.19445,0.0277 -0.25,0.0417 -0.3889,0.0556 -0.75001,0.0833 -1.08333,0.0833 -0.59723,10e-6 -0.99307,-0.46527 -1.1875,-1.39583 -0.11113,-0.51389 -0.16668,-1.32638 -0.16667,-2.4375 v -11.60416 h 2.9375 v -3.87501 h -2.9375 v -5.77083 h -4.3125 v 5.77083 h -2.1875 v 3.87501"
           inkscape:connector-curvature="0"
           style="stroke-width:1.06666672" />
        <path
           id="path3232"
           d="m 154.99702,852.72201 c 0,2.13889 0.44444,3.70138 1.33334,4.68749 0.56944,0.70833 1.27777,1.0625 2.125,1.0625 0.83332,0 1.59027,-0.27083 2.27083,-0.81249 0.4861,-0.3889 0.88194,-0.85417 1.1875,-1.39584 h 0.29166 c -1e-5,0.91667 0.13194,1.54167 0.39583,1.875 h 4.20835 c -0.19447,-1.19445 -0.29168,-2.54861 -0.29167,-4.0625 v -14.33333 c -1e-5,-1.51387 -0.52779,-2.77776 -1.58334,-3.79167 -1.04168,-0.99997 -2.2639,-1.49997 -3.66667,-1.5 -1.66667,3e-5 -3.04166,0.61113 -4.12499,1.83333 -1.11112,1.25003 -1.66667,2.7153 -1.66667,4.39584 v 0.97917 h 4.3125 v -1.10417 c -1e-5,-0.29165 0.0277,-0.6597 0.0833,-1.10417 0.15277,-0.81943 0.53472,-1.22914 1.14583,-1.22916 0.51388,2e-5 0.86805,0.23612 1.0625,0.70833 0.0833,0.2778 0.12499,0.75001 0.125,1.41667 v 2.56249 c -0.0277,0.0694 -0.0625,0.13891 -0.10421,0.20833 -0.0417,0.0556 -0.10421,0.11807 -0.1875,0.1875 -0.0833,0.0694 -0.16667,0.13197 -0.24999,0.18751 -0.0694,0.0417 -0.17362,0.10422 -0.3125,0.1875 -0.13891,0.0694 -0.25695,0.13196 -0.35417,0.1875 -0.0833,0.0417 -0.22223,0.11113 -0.41667,0.20833 -0.18056,0.0973 -0.31945,0.17362 -0.41666,0.22916 -1.44445,0.76391 -2.56945,1.64586 -3.375,2.64584 -1.19445,1.48612 -1.79167,3.40974 -1.79167,5.77084 m 4.22916,-0.64584 c 0,-1.16666 0.24305,-2.21526 0.72918,-3.14583 0.49999,-0.94443 1.24998,-1.63194 2.24999,-2.0625 v 5.97917 c -10e-6,0.40278 -0.17362,0.74306 -0.52083,1.02083 -0.34723,0.26389 -0.77084,0.39584 -1.27084,0.39583 -0.45833,10e-6 -0.78472,-0.2986 -0.97917,-0.89583 -0.13889,-0.40277 -0.20833,-0.83333 -0.20833,-1.29167"
           inkscape:connector-curvature="0"
           style="stroke-width:1.06666672" />
      </g>
    </g>
    <g
       id="g8064"
       transform="matrix(0.24927978,0,0,0.24927978,-162.74969,811.34964)">
      <g
         id="g8060"
         transform="translate(678.73162,-905.77532)">
        <path
           style="fill:#000000;stroke:none;stroke-width:1.06666672"
           id="path33273"
           d="m 317.46577,478.06342 v 8.4 l -10.26667,3.6 -10.4,3.46667 10,-0.26667 10,-0.26666 0.4,54.66666 c 0.26667,53.46667 0.26667,54.8 -2.66666,63.33334 -5.86667,16.93333 -3.46667,32.4 6.8,44 l 4.13333,4.66666 -3.2,-7.33333 c -4.8,-10.8 -5.33333,-16 -2.8,-24.66667 4.93333,-17.06666 20.66668,-27.2 52.13334,-34 21.2,-4.4 30.8,-7.46666 41.6,-13.33333 22.26667,-11.86667 33.86667,-31.86667 30.93334,-53.73333 -4.66667,-33.73334 -50.26667,-52.4 -107.6,-44.13334 l -5.73335,0.93334 v -6.93334 -6.8 h -6.66666 -6.66667 z m 30.66668,18.53334 c 8,3.33333 15.2,10.53333 18.93333,18.93333 2.4,5.46667 2.93333,9.2 2.93333,19.46667 0,11.33333 -0.4,13.6 -3.86666,20.66666 -4.8,10 -13.2,19.06667 -24.8,26.66667 -4.8,3.33333 -9.20001,6 -9.73335,6 -0.4,0 -0.8,-21.6 -0.8,-48 v -48 l 5.73335,0.8 c 3.06666,0.53333 8.26666,2 11.6,3.46667 z"
           inkscape:connector-curvature="0" />
        <path
           style="fill:#77a1c8;fill-opacity:1;stroke:none;stroke-width:1.06666672"
           id="path33275"
           d="m 452.66578,544.86342 c -0.26667,18.26667 -11.06667,34 -30.93333,45.2 -10.93334,6 -24.4,10.4 -45.2,14.66667 -28.8,6 -38.8,11.46667 -45.60001,25.06667 -3.2,6.4 -4.13334,10 -4.13334,16.13333 0,8 2.93334,16.13333 7.20001,19.6 2,1.6 2,1.33333 0.13334,-2.93333 -4.80001,-11.46667 -0.53334,-26.93334 9.86666,-35.86667 6.53334,-5.6 17.06667,-9.2 38.13334,-13.06667 38.4,-7.2 60.53333,-20 70.26666,-40.93333 3.33334,-7.06667 4,-10.26667 4,-18.13333 0,-5.33334 -0.8,-11.86667 -1.73333,-14.53334 l -1.86667,-4.93333 z"
           inkscape:connector-curvature="0" />
      </g>
      <circle
         style="opacity:1;fill:none;fill-opacity:1;fill-rule:nonzero;stroke:#000000;stroke-width:15.48300076;stroke-miterlimit:4;stroke-dasharray:none;stroke-dashoffset:0;stroke-opacity:1"
         id="path7258"
         cx="337.72714"
         cy="1055.3307"
         r="136.2955"
         transform="rotate(-90)" />
    </g>
    <g
       aria-label="Quiero ser"
       style="font-style:normal;font-variant:normal;font-weight:normal;font-stretch:normal;font-size:36.52587509px;line-height:22.8286705px;font-family:tradegothiclt-boldcondtwenty;-inkscape-font-specification:tradegothiclt-boldcondtwenty;text-align:end;letter-spacing:0px;word-spacing:0px;text-anchor:end;fill:#000000;fill-opacity:1;stroke:none;stroke-width:0.91314685px;stroke-linecap:butt;stroke-linejoin:miter;stroke-opacity:1"
       id="text4835">
      <path
         d="m 500.89276,673.14833 v 4.31006 h -4.31005 v -4.31006 z m 0.1461,26.37169 h -4.60226 l 0.80357,-18.6282 h 2.99513 z"
         style="stroke-width:0.91314685px"
         id="path4872" />
      <path
         d="m 513.25106,683.37558 q 0.36526,0.18263 0.87662,0.54789 0.54789,0.32873 1.20536,1.05925 v -12.05354 q 0,-1.49756 -0.51136,-2.19155 -0.51137,-0.73052 -1.89935,-0.73052 -1.38798,0 -1.89935,0.73052 -0.51136,0.69399 -0.51136,2.19155 v 13.36847 q 0,1.49756 0.51136,2.22808 0.51137,0.69399 1.89935,0.69399 1.02272,0 1.53409,-0.40179 -0.40179,-0.73051 -0.69399,-0.98619 -0.29221,-0.25568 -0.51137,-0.43831 z m 7.96264,11.39607 q -0.62094,0 -1.20535,-0.073 -0.58441,-0.0731 -1.1323,-0.32873 -0.54789,-0.25568 -1.1323,-0.76705 -0.54789,-0.47483 -1.13231,-1.2784 -1.49756,0.84009 -3.68911,0.84009 -1.78977,0 -3.1047,-0.51136 -1.2784,-0.54789 -2.15503,-1.46103 -0.84009,-0.91315 -1.2784,-2.15503 -0.40179,-1.24188 -0.40179,-2.62986 V 672.8196 q 0,-1.38798 0.40179,-2.62986 0.43831,-1.24188 1.2784,-2.15503 0.87663,-0.91314 2.15503,-1.42451 1.31493,-0.54789 3.1047,-0.54789 1.78977,0 3.06817,0.54789 1.31494,0.51137 2.15503,1.42451 0.87662,0.91315 1.27841,2.15503 0.43831,1.24188 0.43831,2.62986 v 13.58763 q 0,1.93587 -0.76705,3.3969 0.76705,0.65747 1.24188,0.8401 0.51136,0.1461 0.87662,0.18263 z"
         style="stroke-width:0.91314685px"
         id="path4874" />
      <path
         d="m 536.29889,673.14833 v 19.65093 h -3.87174 v -1.9724 q -0.65747,0.54789 -1.16883,0.9862 -0.51136,0.43831 -1.05925,0.73051 -0.54789,0.29221 -1.20535,0.43831 -0.65747,0.18263 -1.53409,0.18263 -1.64367,0 -2.55681,-1.09577 -0.87662,-1.09578 -0.87662,-3.03165 v -15.88876 h 4.0909 v 15.23129 q 0,0.73052 0.40178,1.09578 0.40178,0.32873 1.05925,0.32873 0.65747,0 1.27841,-0.36526 0.62094,-0.36525 1.35145,-0.87662 v -15.41392 z"
         style="stroke-width:0.91314685px"
         id="path4876" />
      <path
         d="m 540.25681,670.15321 v -3.72564 h 4.0909 v 3.72564 z m 0,22.64605 v -19.65093 h 4.0909 v 19.65093 z"
         style="stroke-width:0.91314685px"
         id="path4878" />
      <path
         d="m 556.75395,680.38046 v -1.02273 q 0,-1.71671 -0.58441,-2.44723 -0.58442,-0.76704 -1.68019,-0.76704 -1.09578,0 -1.68019,0.76704 -0.58442,0.73052 -0.58442,2.44723 v 1.02273 z m 4.0909,3.36038 h -8.62011 v 2.84902 q 0,1.71671 0.58442,2.48376 0.58441,0.73051 1.68019,0.73051 1.09577,0 1.68019,-0.73051 0.58441,-0.76705 0.58441,-2.48376 v -0.43831 h 4.0909 q -0.0365,1.57061 -0.40179,2.84901 -0.32873,1.27841 -1.09577,2.22808 -0.76705,0.91315 -1.9724,1.42451 -1.16883,0.51136 -2.88554,0.51136 -1.75325,0 -2.9586,-0.51136 -1.20535,-0.54789 -1.9724,-1.49756 -0.76704,-0.9862 -1.09577,-2.33766 -0.32874,-1.35145 -0.32874,-2.95859 v -5.77109 q 0,-1.60714 0.32874,-2.9586 0.32873,-1.35145 1.09577,-2.30113 0.76705,-0.98619 1.9724,-1.49756 1.20535,-0.54788 2.9586,-0.54788 1.75324,0 2.95859,0.54788 1.20536,0.51137 1.9724,1.49756 0.76704,0.94968 1.09577,2.30113 0.32874,1.35146 0.32874,2.9586 z"
         style="stroke-width:0.91314685px"
         id="path4880" />
      <path
         d="m 564.54709,692.79926 v -19.65093 h 3.90827 v 2.30113 h 0.073 q 0.73052,-1.2784 1.93587,-1.97239 1.24188,-0.69399 2.70292,-0.69399 h 0.84009 v 4.27352 q -0.54789,-0.1461 -1.1323,-0.25568 -0.58441,-0.1461 -1.49756,-0.1461 -1.05925,0 -1.89935,0.65746 -0.84009,0.65747 -0.84009,1.9724 v 13.51458 z"
         style="stroke-width:0.91314685px"
         id="path4882" />
      <path
         d="m 585.14712,679.35773 q 0,-1.71671 -0.58442,-2.44723 -0.58441,-0.76704 -1.68019,-0.76704 -1.09578,0 -1.68019,0.76704 -0.58441,0.73052 -0.58441,2.44723 v 7.23213 q 0,1.71671 0.58441,2.48376 0.58441,0.73051 1.68019,0.73051 1.09578,0 1.68019,-0.73051 0.58442,-0.76705 0.58442,-2.48376 z m -8.62011,0.73052 q 0,-1.60714 0.32873,-2.9586 0.32873,-1.35145 1.09578,-2.30113 0.76704,-0.98619 1.9724,-1.49756 1.20535,-0.54788 2.95859,-0.54788 1.75324,0 2.9586,0.54788 1.20535,0.51137 1.97239,1.49756 0.76705,0.94968 1.09578,2.30113 0.32873,1.35146 0.32873,2.9586 v 5.77109 q 0,1.60714 -0.32873,2.95859 -0.32873,1.35146 -1.09578,2.33766 -0.76704,0.94967 -1.97239,1.49756 -1.20536,0.51136 -2.9586,0.51136 -1.75324,0 -2.95859,-0.51136 -1.20536,-0.54789 -1.9724,-1.49756 -0.76705,-0.9862 -1.09578,-2.33766 -0.32873,-1.35145 -0.32873,-2.95859 z"
         style="stroke-width:0.91314685px"
         id="path4884" />
      <path
         d="m 608.52425,678.59069 q -0.43831,-2.44723 -2.33766,-2.44723 -0.80357,0 -1.31493,0.40178 -0.47484,0.40179 -0.47484,1.16883 0,0.76704 0.54789,1.42451 0.58442,0.62094 1.42451,1.2784 0.87662,0.62094 1.86282,1.35146 0.9862,0.69399 1.82629,1.57061 0.87663,0.8401 1.42451,1.9724 0.58442,1.09578 0.58442,2.55681 0,1.31493 -0.43831,2.30113 -0.40179,0.9862 -1.16883,1.68019 -0.76704,0.65747 -1.82629,0.9862 -1.05926,0.32873 -2.30113,0.32873 -2.70292,0 -4.23701,-1.42451 -1.53408,-1.46103 -2.00892,-4.05437 l 3.57954,-0.9862 q 0.18263,1.24188 0.73051,2.19156 0.58442,0.91314 1.9724,0.91314 0.80357,0 1.31493,-0.43831 0.51136,-0.43831 0.51136,-1.2784 0,-0.8401 -0.58441,-1.53409 -0.54789,-0.73052 -1.42451,-1.38798 -0.84009,-0.65747 -1.82629,-1.35146 -0.9862,-0.69399 -1.86282,-1.53409 -0.8401,-0.84009 -1.42451,-1.86282 -0.54789,-1.02272 -0.54789,-2.37418 0,-1.16883 0.40179,-2.1185 0.43831,-0.9862 1.16882,-1.68019 0.76705,-0.69399 1.75325,-1.05925 0.98619,-0.40178 2.15502,-0.40178 2.41071,0 3.9448,1.46103 1.57061,1.46104 2.04545,3.76217 z"
         style="stroke-width:0.91314685px"
         id="path4886" />
      <path
         d="m 623.6705,680.38046 v -1.02273 q 0,-1.71671 -0.58441,-2.44723 -0.58442,-0.76704 -1.68019,-0.76704 -1.09578,0 -1.6802,0.76704 -0.58441,0.73052 -0.58441,2.44723 v 1.02273 z m 4.0909,3.36038 h -8.62011 v 2.84902 q 0,1.71671 0.58441,2.48376 0.58442,0.73051 1.6802,0.73051 1.09577,0 1.68019,-0.73051 0.58441,-0.76705 0.58441,-2.48376 v -0.43831 h 4.0909 q -0.0365,1.57061 -0.40179,2.84901 -0.32873,1.27841 -1.09577,2.22808 -0.76705,0.91315 -1.9724,1.42451 -1.16883,0.51136 -2.88554,0.51136 -1.75325,0 -2.9586,-0.51136 -1.20535,-0.54789 -1.9724,-1.49756 -0.76704,-0.9862 -1.09577,-2.33766 -0.32874,-1.35145 -0.32874,-2.95859 v -5.77109 q 0,-1.60714 0.32874,-2.9586 0.32873,-1.35145 1.09577,-2.30113 0.76705,-0.98619 1.9724,-1.49756 1.20535,-0.54788 2.9586,-0.54788 1.75324,0 2.95859,0.54788 1.20535,0.51137 1.9724,1.49756 0.76704,0.94968 1.09577,2.30113 0.32874,1.35146 0.32874,2.9586 z"
         style="stroke-width:0.91314685px"
         id="path4888" />
      <path
         d="m 631.46363,692.79926 v -19.65093 h 3.90827 v 2.30113 h 0.073 q 0.73052,-1.2784 1.93587,-1.97239 1.24188,-0.69399 2.70292,-0.69399 h 0.84009 v 4.27352 q -0.54788,-0.1461 -1.1323,-0.25568 -0.58441,-0.1461 -1.49756,-0.1461 -1.05925,0 -1.89934,0.65746 -0.8401,0.65747 -0.8401,1.9724 v 13.51458 z"
         style="stroke-width:0.91314685px"
         id="path4890" />
    </g>
    <g
       aria-label="pirata!"
       style="font-style:normal;font-variant:normal;font-weight:normal;font-stretch:normal;font-size:102.23015594px;line-height:63.89384842px;font-family:tradegothiclt-boldcondtwenty;-inkscape-font-specification:tradegothiclt-boldcondtwenty;text-align:end;letter-spacing:0px;word-spacing:0px;text-anchor:end;fill:#000000;fill-opacity:1;stroke:none;stroke-width:2.55575395px;stroke-linecap:butt;stroke-linejoin:miter;stroke-opacity:1"
       id="text4835-3">
      <path
         d="m 507.62321,760.69548 q 1.73791,1.22676 3.27136,2.0446 1.53345,0.81784 3.27137,0.81784 1.12453,0 2.14683,-0.30669 1.0223,-0.40892 1.73791,-1.43122 0.81784,-1.0223 1.22676,-2.65798 0.40892,-1.73792 0.40892,-4.49813 v -20.44603 q 0,-2.76022 -0.40892,-4.3959 -0.40892,-1.73791 -1.22676,-2.76021 -0.71561,-1.0223 -1.73791,-1.32899 -1.0223,-0.40893 -2.14683,-0.40893 -1.73792,0 -3.27137,0.81785 -1.53345,0.81784 -3.27136,2.0446 z m -0.61338,-43.75451 v 5.72489 h 0.20446 q 2.86244,-3.57805 5.41819,-5.11151 2.55576,-1.63568 6.84942,-1.63568 5.4182,0 8.48511,3.88475 3.16913,3.88474 3.16913,11.44977 v 26.37538 q 0,7.56504 -3.16913,11.44978 -3.06691,3.88475 -8.48511,3.88475 -1.84014,0 -3.37359,-0.40892 -1.43122,-0.30669 -2.76021,-1.0223 -1.329,-0.81785 -2.76022,-1.84015 -1.32899,-1.0223 -2.96467,-2.45352 v 22.08171 h -11.44978 v -72.37895 z"
         style="stroke-width:2.55575395px"
         id="path4857" />
      <path
         d="m 541.60036,708.5581 v -10.42748 h 11.44978 v 10.42748 z m 0,63.3827 v -54.99983 h 11.44978 v 54.99983 z"
         style="stroke-width:2.55575395px"
         id="path4859" />
      <path
         d="m 564.26031,771.9408 v -54.99983 h 10.93863 v 6.4405 h 0.20446 q 2.0446,-3.57805 5.4182,-5.52043 3.47582,-1.94237 7.56503,-1.94237 h 2.35129 v 11.96093 q -1.53345,-0.40892 -3.16913,-0.71561 -1.63568,-0.40892 -4.19144,-0.40892 -2.96467,0 -5.31597,1.84014 -2.35129,1.84014 -2.35129,5.52043 v 37.82516 z"
         style="stroke-width:2.55575395px"
         id="path4861" />
      <path
         d="m 620.79199,744.03196 q -3.88475,2.24907 -6.4405,4.08921 -2.55575,1.84014 -3.98698,3.57806 -1.43122,1.73791 -2.0446,3.37359 -0.51115,1.63568 -0.51115,3.47583 0,2.65798 1.32899,3.88474 1.32899,1.12453 3.98698,1.12453 2.35129,0 4.29366,-1.53345 1.94238,-1.53345 3.3736,-3.57805 z m -23.61517,-10.93862 q 0.51115,-8.38288 5.4182,-12.77877 4.90705,-4.3959 12.98323,-4.3959 7.97395,0 12.26762,3.68029 4.3959,3.68028 4.3959,11.24531 v 35.26941 q 0,1.32899 0.20446,2.86244 0.30669,1.53345 0.51115,2.96468 h -10.93863 q -0.10223,-1.12454 -0.30669,-2.14684 -0.20446,-1.12453 -0.30669,-2.14683 -3.27136,2.65798 -6.23604,3.98698 -2.96467,1.32899 -7.15611,1.32899 -5.82712,0 -8.79179,-3.47583 -2.86245,-3.57805 -2.86245,-8.89402 0,-4.49813 1.43122,-8.07618 1.53346,-3.57806 4.60036,-6.54273 3.06691,-2.96468 7.66726,-5.4182 4.60036,-2.55576 10.73417,-4.90705 v -3.27136 q 0,-7.05389 -5.62266,-7.05389 -3.88475,0 -5.11151,2.14684 -1.22676,2.0446 -1.43122,5.62266 z"
         style="stroke-width:2.55575395px"
         id="path4863" />
      <path
         d="m 639.23016,726.34615 v -9.40518 h 6.33827 V 702.1176 h 11.44977 v 14.82337 h 7.66727 v 9.40518 h -7.66727 v 31.69134 q 0,4.49813 3.88475,4.49813 h 3.78252 v 9.8141 q -1.12454,0.30669 -2.3513,0.40892 -1.22676,0.20446 -3.37359,0.20446 -6.4405,0 -9.91633,-2.96468 -3.47582,-3.0669 -3.47582,-9.40517 v -34.2471 z"
         style="stroke-width:2.55575395px"
         id="path4865" />
      <path
         d="m 694.46958,744.03196 q -3.88475,2.24907 -6.4405,4.08921 -2.55576,1.84014 -3.98698,3.57806 -1.43122,1.73791 -2.0446,3.37359 -0.51115,1.63568 -0.51115,3.47583 0,2.65798 1.32899,3.88474 1.32899,1.12453 3.98698,1.12453 2.35129,0 4.29366,-1.53345 1.94238,-1.53345 3.3736,-3.57805 z m -23.61517,-10.93862 q 0.51115,-8.38288 5.4182,-12.77877 4.90705,-4.3959 12.98323,-4.3959 7.97395,0 12.26762,3.68029 4.3959,3.68028 4.3959,11.24531 v 35.26941 q 0,1.32899 0.20446,2.86244 0.30669,1.53345 0.51115,2.96468 h -10.93863 q -0.10223,-1.12454 -0.30669,-2.14684 -0.20446,-1.12453 -0.30669,-2.14683 -3.27137,2.65798 -6.23604,3.98698 -2.96467,1.32899 -7.15611,1.32899 -5.82712,0 -8.79179,-3.47583 -2.86245,-3.57805 -2.86245,-8.89402 0,-4.49813 1.43122,-8.07618 1.53346,-3.57806 4.60036,-6.54273 3.06691,-2.96468 7.66726,-5.4182 4.60036,-2.55576 10.73417,-4.90705 v -3.27136 q 0,-7.05389 -5.62266,-7.05389 -3.88475,0 -5.11151,2.14684 -1.22676,2.0446 -1.43122,5.62266 z"
         style="stroke-width:2.55575395px"
         id="path4867" />
      <path
         d="m 720.06387,771.9408 v -12.06316 h 12.06315 v 12.06316 z m -0.40893,-73.81018 h 12.881 l -2.24906,52.13738 h -8.38287 z"
         style="stroke-width:2.55575395px"
         id="path4869" />
    </g>
  </g>
</svg>
