<?xml version="1.0" encoding="UTF-8" standalone="no"?>
<!-- Created with Inkscape (http://www.inkscape.org/) -->

<svg
   xmlns:dc="http://purl.org/dc/elements/1.1/"
   xmlns:cc="http://creativecommons.org/ns#"
   xmlns:rdf="http://www.w3.org/1999/02/22-rdf-syntax-ns#"
   xmlns:svg="http://www.w3.org/2000/svg"
   xmlns="http://www.w3.org/2000/svg"
   xmlns:sodipodi="http://sodipodi.sourceforge.net/DTD/sodipodi-0.dtd"
   xmlns:inkscape="http://www.inkscape.org/namespaces/inkscape"
   width="372.04724"
   height="524.40942"
   id="svg2"
   version="1.1"
   inkscape:version="0.48.4 r9939"
   sodipodi:docname="zona_temporalmente_autonoma.svg">
  <defs
     id="defs4" />
  <sodipodi:namedview
     id="base"
     pagecolor="#ffffff"
     bordercolor="#666666"
     borderopacity="1.0"
     inkscape:pageopacity="0.0"
     inkscape:pageshadow="2"
     inkscape:zoom="0.9899495"
     inkscape:cx="146.25414"
     inkscape:cy="270.35564"
     inkscape:document-units="mm"
     inkscape:current-layer="layer1"
     showgrid="false"
     showguides="true"
     inkscape:guide-bbox="true"
     units="mm"
     inkscape:window-width="1024"
     inkscape:window-height="714"
     inkscape:window-x="0"
     inkscape:window-y="30"
     inkscape:window-maximized="1">
    <sodipodi:guide
       orientation="1,0"
       position="372.04724,0"
       id="guide3168" />
  </sodipodi:namedview>
  <metadata
     id="metadata7">
    <rdf:RDF>
      <cc:Work
         rdf:about="">
        <dc:format>image/svg+xml</dc:format>
        <dc:type
           rdf:resource="http://purl.org/dc/dcmitype/StillImage" />
        <dc:title></dc:title>
      </cc:Work>
    </rdf:RDF>
  </metadata>
  <g
     inkscape:label="Capa 1"
     inkscape:groupmode="layer"
     id="layer1"
     transform="translate(0,-527.95267)">
    <rect
       y="524.45721"
       x="-7.0438722e-07"
       height="527.90491"
       width="372.04724"
       id="rect3033"
       style="fill:#216778;fill-opacity:1" />
    <g
       id="g3847"
       transform="matrix(0.10929874,0,0,0.10976979,379.02465,946.01697)"
       inkscape:export-filename="/srv/http/kiwwwi.com.ar/pastes/utopia-pirata-2.png"
       inkscape:export-xdpi="149"
       inkscape:export-ydpi="149" />
    <g
       id="g4077"
       transform="matrix(0.22827806,0,0,0.2292619,223.84644,849.87456)">
      <g
         inkscape:export-ydpi="149"
         inkscape:export-xdpi="149"
         inkscape:export-filename="/srv/http/kiwwwi.com.ar/pastes/utopia-pirata-2.png"
         id="g3851"
         transform="matrix(0.67937345,0,0,0.67937345,-35.215221,207.58407)">
        <path
           d="m 910.84122,610.02908 c -15,21 -31.266,38.794 -49,60 l -24,27 c -20,19 -70,56 -93,71 -13,9 -27,16 -41,22 l -18.26,8.84 c 3,3 8.58,4.641 13.629,7 3,0 13.631,-5.84 16.631,-7.84 l 32,-18 c 6,-4 12,-9 19,-10 -3,7 -10,11 -17,15 l -19,11 c 0,0 -19.951,11.37 -22.68,13.26 5.469,2.16 13.68,4.641 18.889,6.74 5,0 11.791,-5 15.791,-7 11,-6 25,-15 36,-23 l 18,-12 c 14,-11 28,-23 41,-36 10,-9 20,-18 28,-29 11,-13 18,-28 26,-43 9,-14 12,-23 17,-38 1,-5 4,-13 2,-18 z"
           id="path719"
           inkscape:connector-curvature="0"
           style="fill:#ffffff;stroke:#000000;stroke-width:1" />
        <path
           d="m 451.84122,605.02908 c -3,11 1,24 5,34 9,24 24,45 39,65 9,13 24,29 35,40 l 12,10 26,23 c 21,16 60,40 84,51 l 32,14 13,5 c 15,6 30,10 46,13 9,2 19,5 28,5 -3,-11 -9,-10 -18,-13 l -33,-13 c -46,-19 -97,-38 -133,-74 7,0 12,6 17,10 7,5 16,11 24,16 22,13 72,36 97,45 10,4 27,11 37,11 8,1 19,-4 25,-8 -4,-4 -8,-3 -14,-4 l -31,-9 c -27,-7 -53,-17 -78,-30 l -14,-6 -19,-12 -23,-15 -24,-19 -41,-32 -38,-39 -19,-22 -20,-22 -15,-24 z"
           id="path725"
           inkscape:connector-curvature="0"
           style="fill:#ffffff;stroke:#000000;stroke-width:1" />
        <path
           d="m 772.84122,852.02908 c 2,4 6,10 6,15 0,11 -13,21 -23,20 -4,-1 -13,-6 -16,0 -1,2 -1,4 0,5 0,4 5,6 9,8 11,3 23,-1 32,-7 7,-4 12,-11 14,-19 l 2,-13 c 1,-4 5,-5 10,-12 6,-8 12,-22 20,-28 3,-2 6,-3 10,-4 -2,-3 -4,-5 -6,-8 -2,-1 -4,-3 -6,-3 -3,-1 -7,-1 -10,1 -14,7 -11,20 -19,30 -6,8 -13,12 -23,15 z"
           id="path731"
           inkscape:connector-curvature="0"
           style="fill:#ffffff;stroke:#000000;stroke-width:1" />
        <path
           d="m 804.84122,865.02908 c 7,3 13,2 20,2 l 15,1 c 7,0 9,-4 12,-10 1,-2 2,-6 0,-8 -2,-2 -6,-2 -9,-2 l -17,1 c -3,0 -8,0 -11,1 -5,3 -9,10 -10,15 z"
           id="path737"
           inkscape:connector-curvature="0"
           style="fill:#ffffff;stroke:#000000;stroke-width:1" />
        <path
           d="m 858.84122,879.02908 c -5,-2 -8,-4 -11,-8 -1,1 -2,1 -3,2 -1,5 12,17 14,6 z"
           id="path743"
           inkscape:connector-curvature="0"
           style="fill:#ffffff;stroke:#000000;stroke-width:1" />
        <path
           d="m 851.84122,845.02908 8,5 c -2,4 -7,12 -6,17 1,10 15,10 21,4 7,-8 7,-20 -3,-26 -6,-3 -13,-2 -20,0 z"
           id="path744"
           inkscape:connector-curvature="0"
           style="fill:#ffffff;stroke:#000000;stroke-width:1" />
        <path
           d="m 492.84122,873.02908 1,1 c 8,-2 13,-5 14,-13 -6,1 -12,7 -15,12 z"
           id="selection_x5F_to_x5F_path_x23_5"
           inkscape:connector-curvature="0"
           style="fill:#ffffff;stroke:#000000;stroke-width:1" />
        <path
           d="m 499.84122,836.02908 c -3,-2 -6,-3 -10,-3 -3,0 -6,0 -9,1 -10,4 -11,20 -3,27 4,4 14,6 18,1 4,-4 3,-9 1,-14 -1,-3 -3,-7 -1,-9 1,-2 3,-2 4,-3 z"
           id="selection_x5F_to_x5F_path_x23_4"
           inkscape:connector-curvature="0"
           style="fill:#ffffff;stroke:#000000;stroke-width:1" />
        <path
           d="m 498.84122,840.02908 c 1,3 6,15 8,17 3,2 6,2 9,2 l 18,-1 h 13 c 0,-3 0,-6 -1,-8 -3,-8 -14,-12 -22,-12 l -9,1 c -6,0 -11,-1 -16,1 z"
           id="selection_x5F_to_x5F_path_x23_3"
           inkscape:connector-curvature="0"
           style="fill:#ffffff;stroke:#000000;stroke-width:1" />
        <path
           d="m 517.84122,808.02908 c 19,5 19,21 27,32 3,4 11,10 12,14 1,3 0,4 1,11 2,9 8,18 16,23 9,6 17,10 28,7 6,-2 12,-6 9,-13 -3,-7 -14,0 -21,-2 -7,-3 -15,-13 -15,-21 l 4,-14 c -11,-4 -24,-13 -29,-24 -3,-7 -3,-17 -8,-22 -9,-7 -21,-1 -24,9 z"
           id="selection_x5F_to_x5F_path_x23_2"
           inkscape:connector-curvature="0"
           style="fill:#ffffff;stroke:#000000;stroke-width:1" />
        <path
           d="m 565.84122,831.02908 c 3,4 5,5 9,7 14,8 23,2 37,-1 l 29,-9 c -3.84,-2.58 -12.42,-7.95 -16,-10 l -19,5 -40,8 z"
           id="path758"
           inkscape:connector-curvature="0"
           style="fill:#ffffff;stroke:#000000;stroke-width:1" />
        <path
           d="m 579.84122,860.02908 c 26,0 50,-8 75,-14 0,0 11,-5.206 14.676,-5.206 -3.47,-2.529 -17.622,-7.638 -19.836,-9.634 -3,0.89 -14.84,4.84 -18.84,5.84 l -25,7 -12,3 c -7,3 -12,4 -14,13 z"
           id="path759"
           inkscape:connector-curvature="0"
           style="fill:#ffffff;stroke:#000000;stroke-width:1" />
      </g>
      <circle
         transform="matrix(0.67937348,0,0,0.67937344,172.06628,463.24141)"
         d="m 483.822,156.03101 c 0,59.52249 -48.25251,107.775 -107.775,107.775 -59.52249,0 -107.775,-48.25251 -107.775,-107.775 0,-59.522494 48.25251,-107.775006 107.775,-107.775006 59.52249,0 107.775,48.252512 107.775,107.775006 z"
         style="fill:none;stroke:#ffffff;stroke-width:20"
         sodipodi:ry="107.775"
         sodipodi:rx="107.775"
         sodipodi:cy="156.03101"
         sodipodi:cx="376.047"
         cx="376.047"
         cy="156.03101"
         r="107.775"
         id="circle3807" />
      <path
         transform="matrix(0.67937348,0,0,0.67937344,-233.93429,225.03699)"
         style="fill:#ffffff"
         inkscape:connector-curvature="0"
         d="m 972.7768,439.2957 c -31.919,0 -58.663,22.231 -65.598,52.05 h 32.187 c 5.808,-12.648 18.59,-21.432 33.411,-21.432 20.282,0 36.742,16.46 36.742,36.741 0,20.281 -16.46,36.742 -36.742,36.742 -14.821,0 -27.604,-8.785 -33.411,-21.433 h -32.187 c 6.935,29.819 33.679,52.05 65.598,52.05 37.183,0 67.359,-30.177 67.359,-67.359 0,-37.182 -30.177,-67.359 -67.359,-67.359 z"
         id="path3809" />
      <g
         inkscape:export-ydpi="149"
         inkscape:export-xdpi="149"
         inkscape:export-filename="/srv/http/kiwwwi.com.ar/pastes/utopia-pirata-2.png"
         id="text3059"
         style="font-size:121.8484726px;font-style:normal;font-weight:normal;line-height:125%;letter-spacing:0px;word-spacing:0px;fill:#ffffff;fill-opacity:1;stroke:none;font-family:Bitstream Vera Sans"
         transform="matrix(-0.72702905,0.19480685,-0.19480685,-0.72702905,-611.71218,-436.375)">
        <g
           transform="matrix(0.99707364,-0.07644708,0.07644708,0.99707364,125.06749,-81.555005)"
           id="g3922">
          <path
             transform="matrix(-0.8718552,-0.2336129,0.2336129,-0.8718552,-1786.4657,-3244.8873)"
             d="m -1183.8988,-1543.7299 c 0,70.2944 -56.9848,127.2793 -127.2792,127.2793 -70.2944,0 -127.2792,-56.9849 -127.2792,-127.2793 0,-70.2943 56.9848,-127.2792 127.2792,-127.2792 70.2944,0 127.2792,56.9849 127.2792,127.2792 z"
             sodipodi:ry="127.27922"
             sodipodi:rx="127.27922"
             sodipodi:cy="-1543.7299"
             sodipodi:cx="-1311.178"
             id="path3865"
             style="fill:none;stroke:none"
             sodipodi:type="arc"
             inkscape:export-filename="/srv/http/kiwwwi.com.ar/pastes/utopia-pirata-1.png"
             inkscape:export-xdpi="149"
             inkscape:export-ydpi="149" />
          <path
             d="m -778.04883,-1594.9487 -70.08465,-12.3215 c -3.57914,-0.7529 -6.69277,-2.0426 -9.22087,-3.848 -2.21027,-1.502 -4.19505,-3.583 -5.5732,-6.2996 -1.49816,-2.7377 -2.00858,-6.1679 -1.24904,-10.4881 0.75954,-4.3203 2.43037,-7.4907 4.77246,-9.5532 2.22209,-2.0837 4.77652,-3.243 7.36656,-3.9011 2.99226,-0.8348 6.35907,-0.9852 9.98041,-0.4723 l 70.08465,12.3215 -2.27862,12.9608 -70.08465,-12.3214 c -2.52017,-0.4431 -4.30577,-0.1384 -5.83684,0.8296 -0.70553,0.4946 -1.21325,1.2713 -1.40313,2.3514 -0.40087,2.2801 0.84934,3.6134 2.56507,4.4099 0.77676,0.5077 1.83573,0.8176 3.15582,1.0497 l 70.08465,12.3214 -2.27862,12.9609"
             style="font-style:normal;font-variant:normal;font-weight:normal;font-stretch:normal;fill:#ffffff;font-family:League Gothic;-inkscape-font-specification:League Gothic"
             id="path3897"
             inkscape:connector-curvature="0" />
          <path
             d="m -801.09593,-1568.8963 11.85811,6.5051 -18.28444,33.3309 -11.85812,-6.5051 5.97761,-10.8966 -66.66184,-36.5689 6.32923,-11.5376 66.66184,36.5689 5.97761,-10.8967"
             style="font-style:normal;font-variant:normal;font-weight:normal;font-stretch:normal;fill:#ffffff;font-family:League Gothic;-inkscape-font-specification:League Gothic"
             id="path3899"
             inkscape:connector-curvature="0" />
          <path
             d="m -902.22684,-1531.2768 c -2.40064,-2.7594 -4.10625,-5.6661 -5.0338,-8.6309 -0.857,-2.5312 -1.18494,-5.3882 -0.64563,-8.3863 0.45632,-3.0873 2.1181,-6.1311 5.32973,-9.1189 3.21164,-2.9879 6.45655,-4.5088 9.56871,-4.7413 3.02918,-0.3218 5.76585,0.2943 8.22867,1.3316 2.89022,1.139 5.66638,3.0497 8.24545,5.6431 l 35.93698,38.6289 c 2.31765,2.6701 4.02326,5.5768 4.95082,8.5417 0.85699,2.5312 1.35714,5.3944 0.81783,8.3924 -0.53932,2.9981 -2.20731,6.2141 -5.41895,9.202 -3.21163,2.9878 -6.45032,4.3365 -9.47949,4.6583 -3.02918,0.3217 -5.93806,-0.3006 -8.40087,-1.3379 -2.89023,-1.1389 -5.66638,-3.0497 -8.16246,-5.5539 l -35.93699,-38.6288 m 45.57191,29.6653 c 1.65991,1.7843 3.1787,2.7013 5.06676,2.9419 0.86104,0.031 1.82372,-0.3653 2.62663,-1.1122 1.69503,-1.5769 1.33601,-3.5729 0.61392,-5.0646 -0.39633,-0.9627 -1.05407,-1.8486 -1.88403,-2.7407 l -35.93698,-38.6289 c -1.74291,-1.8735 -3.35091,-2.7075 -5.15597,-2.8588 -0.86104,-0.031 -1.73451,0.2822 -2.53742,1.0292 -1.69503,1.5769 -1.502,3.3944 -0.61392,5.0645 0.31333,0.8735 0.97108,1.7594 1.88402,2.7408 l 35.93699,38.6288"
             style="font-style:normal;font-variant:normal;font-weight:normal;font-stretch:normal;fill:#ffffff;font-family:League Gothic;-inkscape-font-specification:League Gothic"
             id="path3901"
             inkscape:connector-curvature="0" />
          <path
             d="m -886.59996,-1457.8116 -12.05827,5.2702 c -5.24757,2.2934 -11.08073,3.2471 -16.75926,1.2077 -5.67853,-2.0394 -11.09081,-7.1207 -15.18979,-16.4994 -4.09898,-9.3786 -4.10323,-16.6905 -1.74292,-22.2434 2.3603,-5.5528 6.92473,-9.4094 12.1723,-11.7029 l -14.34645,-32.8252 12.05826,-5.2702 35.86613,82.0632 m -28.21022,-31.6862 c -3.68447,1.6103 -5.73635,3.305 -6.2466,5.7886 -0.55905,2.372 0.42353,5.5329 2.42423,10.1106 2.00069,4.5777 3.75077,7.6692 5.96893,9.0933 2.21816,1.4242 4.95321,1.2926 8.63767,-0.3177 l -10.78423,-24.6748"
             style="font-style:normal;font-variant:normal;font-weight:normal;font-stretch:normal;fill:#ffffff;font-family:League Gothic;-inkscape-font-specification:League Gothic"
             id="path3903"
             inkscape:connector-curvature="0" />
          <path
             d="m -948.99443,-1436.6047 -13.00674,2.0001 -13.61231,-88.5181 13.00674,-2.0001 13.61231,88.5181"
             style="font-style:normal;font-variant:normal;font-weight:normal;font-stretch:normal;fill:#ffffff;font-family:League Gothic;-inkscape-font-specification:League Gothic"
             id="path3905"
             inkscape:connector-curvature="0" />
          <path
             d="m -981.75508,-1521.0222 -23.62102,87.4398 -15.9797,-1.8289 -3.2539,-90.5157 12.7111,1.4548 0.3429,18.4359 12.59007,1.4409 4.49944,-17.8816 12.71111,1.4548 m -29.02582,57.5093 0.1,2.3417 0.7264,0.083 0.6264,-2.2585 6.9672,-27.656 -8.9583,-1.0253 0.5384,28.515"
             style="font-style:normal;font-variant:normal;font-weight:normal;font-stretch:normal;fill:#ffffff;font-family:League Gothic;-inkscape-font-specification:League Gothic"
             id="path3907"
             inkscape:connector-curvature="0" />
          <path
             d="m -1099.1166,-1462.6292 -10.788,-7.5362 c -4.6948,-3.2797 -8.5522,-7.758 -9.7757,-13.6663 -1.2235,-5.9083 0.2868,-13.1768 6.1483,-21.5675 5.8615,-8.3906 12.0967,-12.2098 18.0653,-13.094 5.9685,-0.8841 11.6402,0.9971 16.335,4.2767 l 20.5152,-29.3674 10.7881,7.5362 -51.2882,73.4185 m 12.3091,-40.5995 c -3.2963,-2.3027 -5.8127,-3.1688 -8.1976,-2.308 -2.3152,0.7609 -4.4989,3.2485 -7.3599,7.344 -2.8609,4.0954 -4.5849,7.2016 -4.6423,9.8369 -0.057,2.6354 1.4821,4.8999 4.7784,7.2026 l 15.4214,-22.0755"
             style="font-style:normal;font-variant:normal;font-weight:normal;font-stretch:normal;fill:#ffffff;font-family:League Gothic;-inkscape-font-specification:League Gothic"
             id="path3909"
             inkscape:connector-curvature="0" />
          <path
             d="m -1149.6319,-1504.5948 -8.5195,-10.0296 68.2572,-57.9801 8.5196,10.0296 -68.2573,57.9801"
             style="font-style:normal;font-variant:normal;font-weight:normal;font-stretch:normal;fill:#ffffff;font-family:League Gothic;-inkscape-font-specification:League Gothic"
             id="path3911"
             inkscape:connector-curvature="0" />
          <path
             d="m -1106.4208,-1601.3444 -31.2348,22.3102 1.5099,3.1948 34.1507,-16.1412 5.6233,11.8977 -80.97,38.2701 -5.6234,-11.8977 c -6.7168,-14.211 -1.5386,-24.071 13.7741,-31.3085 8.0419,-3.8009 16.302,-5.1443 21.5214,-2.0855 l 35.6254,-26.1376 5.6234,11.8977 m -40.7412,30.7118 c -0.781,-1.6525 -2.0427,-3.7516 -4.4181,-4.7852 -2.3754,-1.0337 -6.0267,-1.06 -11.7551,1.6476 -5.7285,2.7075 -8.1362,5.5975 -8.8454,8.0891 -0.7092,2.4916 0.222,4.7469 1.003,6.3994 l 24.0156,-11.3509"
             style="font-style:normal;font-variant:normal;font-weight:normal;font-stretch:normal;fill:#ffffff;font-family:League Gothic;-inkscape-font-specification:League Gothic"
             id="path3913"
             inkscape:connector-curvature="0" />
          <path
             d="m -1113.2219,-1617.132 -90.458,-4.5863 -1.5934,-16.0049 87.7782,-22.331 1.2675,12.7311 -17.946,4.2357 1.2554,12.6099 18.4288,0.6143 1.2675,12.7312 m -62.3486,-16.2013 -2.2675,0.5931 0.072,0.7275 2.34,0.1344 28.504,0.9582 -0.8933,-8.9724 -27.7556,6.5592"
             style="font-style:normal;font-variant:normal;font-weight:normal;font-stretch:normal;fill:#ffffff;font-family:League Gothic;-inkscape-font-specification:League Gothic"
             id="path3915"
             inkscape:connector-curvature="0" />
          <path
             d="m -1191.1447,-1674.8241 -13.2316,-2.8027 7.8779,-37.1915 13.2316,2.8027 -2.5754,12.1588 74.383,15.7558 -2.727,12.874 -74.383,-15.7558 -2.5755,12.1587"
             style="font-style:normal;font-variant:normal;font-weight:normal;font-stretch:normal;fill:#ffffff;font-family:League Gothic;-inkscape-font-specification:League Gothic"
             id="path3917"
             inkscape:connector-curvature="0" />
          <path
             d="m -1109.3262,-1695.6338 -70.438,-56.94 8.1301,-13.8779 84.1114,33.5999 -6.4672,11.0393 -17.0021,-7.1361 -6.4056,10.9341 14.5385,11.3415 -6.4671,11.0392 m -40.876,-49.7893 -2.1823,-0.8549 -0.3696,0.6309 1.8128,1.4856 22.4821,17.5485 4.5578,-7.78 -26.3008,-11.0301"
             style="font-style:normal;font-variant:normal;font-weight:normal;font-stretch:normal;fill:#ffffff;font-family:League Gothic;-inkscape-font-specification:League Gothic"
             id="path3919"
             inkscape:connector-curvature="0" />
        </g>
      </g>
    </g>
    <rect
       style="fill:#ffffff"
       id="rect3035"
       width="372.04724"
       height="173.31084"
       x="2.9508121e-07"
       y="589.1864" />
    <g
       style="font-size:41.04612732px;font-style:normal;font-weight:normal;line-height:125%;letter-spacing:0px;word-spacing:0px;fill:#000000;fill-opacity:1;stroke:none;font-family:Sans"
       id="text3286"
       transform="translate(-355.09549,0)">
      <path
         d="m 412.79858,665.55341 6.9368,-21.01562 -5.95169,0 0,-4.39194 10.75409,0 0,4.39194 -7.05994,21.38503 7.05994,0 0,4.39194 -11.7392,0 0,-4.76135"
         style="font-variant:normal;font-stretch:normal;font-family:League Gothic;-inkscape-font-specification:League Gothic"
         id="path3352"
         inkscape:connector-curvature="0" />
      <path
         d="m 436.87791,664.85562 c -0.12314,2.17545 -0.77988,3.69416 -2.21649,4.88449 -0.73883,0.61569 -1.76499,0.90302 -3.11951,0.90302 -2.66799,0 -3.98147,-1.47766 -4.63821,-2.95532 -0.36941,-0.86197 -0.61569,-1.84708 -0.65674,-2.95533 l 0,-11.28768 c 0.12314,-2.17544 0.77988,-3.77624 2.21649,-5.00763 0.69779,-0.61569 1.72394,-0.90301 3.07846,-0.90301 2.668,0 4.02252,1.47766 4.67926,2.91427 0.36942,0.86197 0.61569,1.80603 0.65674,2.87323 l 0,11.53396 m -3.89938,-11.41082 c 0.041,-0.86197 -0.12314,-1.47766 -0.5336,-1.97021 -0.20523,-0.20523 -0.5336,-0.32837 -0.90302,-0.32837 -0.77987,0 -1.10824,0.5336 -1.27243,1.14929 -0.12313,0.32837 -0.16418,0.69778 -0.12313,1.14929 l 0,11.28768 c -0.041,0.86197 0.16418,1.47767 0.53359,1.92917 0.20524,0.20523 0.49256,0.32837 0.86197,0.32837 0.77988,0 1.1493,-0.49255 1.31348,-1.10824 0.12314,-0.32837 0.16418,-0.69779 0.12314,-1.1493 l 0,-11.28768"
         style="font-variant:normal;font-stretch:normal;font-family:League Gothic;-inkscape-font-specification:League Gothic"
         id="path3354"
         inkscape:connector-curvature="0" />
      <path
         d="m 443.82946,670.31476 -4.14566,0 0,-22.45223 4.14566,0 0,1.88812 c 0.0821,-0.041 0.24627,-0.20523 0.49255,-0.45151 0.45151,-0.45151 1.0672,-1.0672 1.80603,-1.47766 0.36941,-0.20523 0.69778,-0.28732 1.0672,-0.28732 1.10824,0 1.88812,0.65674 2.38067,1.47766 0.49256,0.86197 0.73883,1.97021 0.73883,2.91427 l 0,18.38867 -4.14565,0 0,-17.77297 c 0,-0.86197 -0.49256,-0.98511 -0.98511,-0.98511 -0.45151,0 -0.69779,0.24628 -0.98511,0.5336 -0.12314,0.16418 -0.24628,0.32837 -0.36941,0.5336 l 0,17.69088"
         style="font-variant:normal;font-stretch:normal;font-family:League Gothic;-inkscape-font-specification:League Gothic"
         id="path3356"
         inkscape:connector-curvature="0" />
      <path
         d="m 459.59245,653.19852 c 0,-0.36941 0,-0.94406 -0.12314,-1.35452 -0.16418,-0.41046 -0.49255,-0.69778 -1.02615,-0.69778 -0.69778,0 -0.98511,0.5336 -1.10825,1.19033 -0.041,0.32837 -0.0821,0.69779 -0.0821,1.0672 0,0.36942 0,0.73883 0,1.0672 l -4.14566,0 0,-0.94406 c 0,-1.64184 0.61569,-3.1195 1.6008,-4.22775 0.98511,-1.10824 2.38068,-1.76498 3.98148,-1.76498 1.35452,0 2.5859,0.5336 3.52996,1.43661 0.94406,0.90302 1.51871,2.17545 1.51871,3.65311 l 0,13.7915 c 0,2.01125 0.12314,2.91427 0.28732,3.89938 l -4.06356,0 c -0.36942,-0.45151 -0.36942,-1.51871 -0.36942,-1.80603 l -0.28732,0 c -0.20523,0.36941 -0.57465,0.90301 -1.14929,1.35452 -0.57465,0.45151 -1.35453,0.77988 -2.17545,0.77988 -0.5336,0 -1.39557,-0.20523 -2.05231,-1.02616 -0.69778,-0.77987 -1.27243,-2.17544 -1.27243,-4.51507 0,-2.50381 0.73884,-4.30984 1.72394,-5.54123 0.98511,-1.23138 2.21649,-2.01126 3.24265,-2.54486 1.02615,-0.5336 1.80603,-0.90301 1.97021,-1.35452 l 0,-2.46277 m 0,6.28006 c -2.01126,0.86197 -2.87323,2.87323 -2.87323,5.00763 0,0.28732 0.041,0.77988 0.20523,1.23138 0.16419,0.49256 0.45151,0.86197 0.94406,0.86197 0.94406,0 1.72394,-0.57465 1.72394,-1.35452 l 0,-5.74646"
         style="font-variant:normal;font-stretch:normal;font-family:League Gothic;-inkscape-font-specification:League Gothic"
         id="path3358"
         inkscape:connector-curvature="0" />
      <path
         d="m 471.31369,644.70197 0,-4.55612 12.80639,0 0,4.55612 -4.18671,0 0,25.61279 -4.43298,0 0,-25.61279 -4.1867,0"
         style="font-variant:normal;font-stretch:normal;font-family:League Gothic;-inkscape-font-specification:League Gothic"
         id="path3360"
         inkscape:connector-curvature="0" />
      <path
         d="m 495.123,662.26972 0,2.5859 c -0.12313,2.17545 -0.77987,3.69416 -2.25753,4.88449 -0.73883,0.61569 -1.76499,0.90302 -3.11951,0.90302 -2.66799,0 -4.02252,-1.47766 -4.67926,-2.95532 -0.36941,-0.86197 -0.61569,-1.84708 -0.65673,-2.95533 l 0,-11.28768 c 0.12313,-2.17544 0.82092,-3.77624 2.29858,-5.00763 0.69778,-0.61569 1.72394,-0.90301 3.07846,-0.90301 2.66799,0 4.02252,1.47766 4.67926,2.91427 0.36941,0.86197 0.61569,1.80603 0.65673,2.87323 l 0,6.52634 -6.8547,0 0,4.88448 c 0.041,0.86197 0.28732,1.47767 0.65674,1.92917 0.20523,0.20523 0.49255,0.32837 0.86197,0.32837 0.77987,0 1.14929,-0.49255 1.31347,-1.10824 0.12314,-0.32837 0.16419,-0.69779 0.16419,-1.1493 l 0,-2.46276 3.85833,0 m -6.8547,-5.66437 2.99637,0 0,-3.16055 c 0,-0.86197 -0.16419,-1.47766 -0.57465,-1.97021 -0.20523,-0.20523 -0.5336,-0.32837 -0.90301,-0.32837 -0.77988,0 -1.10825,0.5336 -1.31348,1.14929 -0.12314,0.32837 -0.16418,0.69778 -0.20523,1.14929 l 0,3.16055"
         style="font-variant:normal;font-stretch:normal;font-family:League Gothic;-inkscape-font-specification:League Gothic"
         id="path3362"
         inkscape:connector-curvature="0" />
      <path
         d="m 508.59896,670.31476 -3.89938,0 0,-17.77297 c 0,-0.86197 -0.65674,-0.98511 -1.10824,-0.98511 -0.45151,0 -0.82093,0.24628 -1.10825,0.5336 -0.16418,0.16418 -0.32837,0.32837 -0.45151,0.5336 l 0,17.69088 -4.14566,0 0,-22.45223 4.14566,0 0,1.88812 c 0.0821,-0.041 0.24628,-0.20523 0.49256,-0.45151 0.4515,-0.45151 1.14929,-1.0672 1.88812,-1.47766 0.36941,-0.20523 0.69778,-0.28732 1.0672,-0.28732 1.47766,0 2.33963,1.19034 2.79113,2.50381 0.16419,-0.12314 0.36942,-0.32837 0.65674,-0.61569 0.5336,-0.57465 1.23139,-1.10825 2.01126,-1.55975 0.36942,-0.20523 0.73883,-0.32837 1.10825,-0.32837 1.10824,0 1.88812,0.65674 2.38067,1.47766 0.49256,0.86197 0.73883,1.97021 0.73883,2.91427 l 0,18.38867 -3.89938,0 0,-17.77297 c 0,-0.86197 -0.65674,-0.98511 -1.10824,-0.98511 -0.45151,0 -0.82093,0.24628 -1.10825,0.5336 -0.16418,0.16418 -0.32837,0.32837 -0.45151,0.5336 l 0,17.69088"
         style="font-variant:normal;font-stretch:normal;font-family:League Gothic;-inkscape-font-specification:League Gothic"
         id="path3364"
         inkscape:connector-curvature="0" />
      <path
         d="m 518.32882,647.86253 4.14566,0 0,1.47766 c 0.69778,-0.65674 1.31347,-1.14929 2.1344,-1.51871 0.36941,-0.20523 0.77987,-0.28732 1.14929,-0.28732 1.14929,0 1.92917,0.65674 2.46277,1.47766 0.49255,0.86197 0.73883,1.97021 0.73883,2.91427 l 0,14.3251 c 0,0.94406 -0.24628,2.05231 -0.73883,2.87323 -0.5336,0.86197 -1.31348,1.51871 -2.46277,1.51871 -0.77988,0 -1.6008,-0.45151 -2.21649,-0.90302 -0.36942,-0.28732 -0.69779,-0.57464 -1.0672,-0.90301 l 0,9.19433 -4.14566,0 0,-30.1689 m 4.14566,17.52669 c 0,0.65674 0.61569,1.35453 1.23138,1.35453 0.61569,0 1.10825,-0.57465 1.10825,-1.35453 l 0,-12.60116 c 0,-0.77987 -0.49256,-1.35452 -1.10825,-1.35452 -0.61569,0 -1.23138,0.57465 -1.23138,1.35452 l 0,12.60116"
         style="font-variant:normal;font-stretch:normal;font-family:League Gothic;-inkscape-font-specification:League Gothic"
         id="path3366"
         inkscape:connector-curvature="0" />
      <path
         d="m 542.37928,664.85562 c -0.12313,2.17545 -0.77987,3.69416 -2.21649,4.88449 -0.73883,0.61569 -1.76498,0.90302 -3.1195,0.90302 -2.668,0 -3.98148,-1.47766 -4.63822,-2.95532 -0.36941,-0.86197 -0.61569,-1.84708 -0.65673,-2.95533 l 0,-11.28768 c 0.12313,-2.17544 0.77987,-3.77624 2.21649,-5.00763 0.69778,-0.61569 1.72394,-0.90301 3.07846,-0.90301 2.66799,0 4.02252,1.47766 4.67926,2.91427 0.36941,0.86197 0.61569,1.80603 0.65673,2.87323 l 0,11.53396 M 538.4799,653.4448 c 0.041,-0.86197 -0.12314,-1.47766 -0.5336,-1.97021 -0.20523,-0.20523 -0.5336,-0.32837 -0.90301,-0.32837 -0.77988,0 -1.10825,0.5336 -1.27243,1.14929 -0.12314,0.32837 -0.16419,0.69778 -0.12314,1.14929 l 0,11.28768 c -0.0411,0.86197 0.16418,1.47767 0.5336,1.92917 0.20523,0.20523 0.49255,0.32837 0.86197,0.32837 0.77987,0 1.14929,-0.49255 1.31347,-1.10824 0.12314,-0.32837 0.16419,-0.69779 0.12314,-1.1493 l 0,-11.28768"
         style="font-variant:normal;font-stretch:normal;font-family:League Gothic;-inkscape-font-specification:League Gothic"
         id="path3368"
         inkscape:connector-curvature="0" />
      <path
         d="m 553.47648,652.13132 c -0.36941,-0.12313 -0.77987,-0.16418 -1.14929,-0.16418 -0.65674,0 -1.43661,0.0821 -2.09335,0.69778 -0.77988,0.65674 -0.90302,1.35453 -0.90302,2.05231 l 0,15.59753 -4.14566,0 0,-22.45223 4.14566,0 0,2.50381 c 0.041,-0.28732 0.32837,-0.98511 0.98511,-1.64184 0.65674,-0.6157 1.64185,-1.19034 3.16055,-1.19034 l 0,4.59716"
         style="font-variant:normal;font-stretch:normal;font-family:League Gothic;-inkscape-font-specification:League Gothic"
         id="path3370"
         inkscape:connector-curvature="0" />
      <path
         d="m 561.24576,653.19852 c 0,-0.36941 -10e-6,-0.94406 -0.12314,-1.35452 -0.16419,-0.41046 -0.49256,-0.69778 -1.02616,-0.69778 -0.69778,0 -0.9851,0.5336 -1.10824,1.19033 -0.041,0.32837 -0.0821,0.69779 -0.0821,1.0672 0,0.36942 0,0.73883 0,1.0672 l -4.14566,0 0,-0.94406 c 0,-1.64184 0.61569,-3.1195 1.6008,-4.22775 0.9851,-1.10824 2.38067,-1.76498 3.98147,-1.76498 1.35452,0 2.58591,0.5336 3.52997,1.43661 0.94406,0.90302 1.5187,2.17545 1.5187,3.65311 l 0,13.7915 c 0,2.01125 0.12314,2.91427 0.28733,3.89938 l -4.06357,0 c -0.36941,-0.45151 -0.36941,-1.51871 -0.36941,-1.80603 l -0.28733,0 c -0.20523,0.36941 -0.57464,0.90301 -1.14929,1.35452 -0.57464,0.45151 -1.35452,0.77988 -2.17544,0.77988 -0.5336,0 -1.39557,-0.20523 -2.05231,-1.02616 -0.69778,-0.77987 -1.27243,-2.17544 -1.27243,-4.51507 0,-2.50381 0.73883,-4.30984 1.72394,-5.54123 0.9851,-1.23138 2.21649,-2.01126 3.24264,-2.54486 1.02615,-0.5336 1.80603,-0.90301 1.97022,-1.35452 l 0,-2.46277 m 0,6.28006 c -2.01126,0.86197 -2.87323,2.87323 -2.87323,5.00763 0,0.28732 0.041,0.77988 0.20523,1.23138 0.16418,0.49256 0.4515,0.86197 0.94406,0.86197 0.94406,0 1.72394,-0.57465 1.72394,-1.35452 l 0,-5.74646"
         style="font-variant:normal;font-stretch:normal;font-family:League Gothic;-inkscape-font-specification:League Gothic"
         id="path3372"
         inkscape:connector-curvature="0" />
      <path
         d="m 568.03311,670.31476 0,-30.16891 4.14566,0 0,30.16891 -4.14566,0"
         style="font-variant:normal;font-stretch:normal;font-family:League Gothic;-inkscape-font-specification:League Gothic"
         id="path3374"
         inkscape:connector-curvature="0" />
      <path
         d="m 586.20179,670.31476 -3.89938,0 0,-17.77297 c 0,-0.86197 -0.65674,-0.98511 -1.10824,-0.98511 -0.45151,0 -0.82093,0.24628 -1.10825,0.5336 -0.16418,0.16418 -0.32837,0.32837 -0.45151,0.5336 l 0,17.69088 -4.14566,0 0,-22.45223 4.14566,0 0,1.88812 c 0.0821,-0.041 0.24628,-0.20523 0.49256,-0.45151 0.4515,-0.45151 1.14929,-1.0672 1.88812,-1.47766 0.36941,-0.20523 0.69778,-0.28732 1.0672,-0.28732 1.47766,0 2.33963,1.19034 2.79113,2.50381 0.16419,-0.12314 0.36942,-0.32837 0.65674,-0.61569 0.5336,-0.57465 1.23139,-1.10825 2.01126,-1.55975 0.36942,-0.20523 0.73883,-0.32837 1.10825,-0.32837 1.10824,0 1.88812,0.65674 2.38067,1.47766 0.49256,0.86197 0.73883,1.97021 0.73883,2.91427 l 0,18.38867 -3.89938,0 0,-17.77297 c 0,-0.86197 -0.65674,-0.98511 -1.10824,-0.98511 -0.45151,0 -0.82093,0.24628 -1.10825,0.5336 -0.16418,0.16418 -0.32837,0.32837 -0.45151,0.5336 l 0,17.69088"
         style="font-variant:normal;font-stretch:normal;font-family:League Gothic;-inkscape-font-specification:League Gothic"
         id="path3376"
         inkscape:connector-curvature="0" />
      <path
         d="m 606.31633,662.26972 0,2.5859 c -0.12314,2.17545 -0.77988,3.69416 -2.25754,4.88449 -0.73883,0.61569 -1.76499,0.90302 -3.11951,0.90302 -2.66799,0 -4.02252,-1.47766 -4.67926,-2.95532 -0.36941,-0.86197 -0.61569,-1.84708 -0.65673,-2.95533 l 0,-11.28768 c 0.12313,-2.17544 0.82092,-3.77624 2.29858,-5.00763 0.69778,-0.61569 1.72394,-0.90301 3.07846,-0.90301 2.66799,0 4.02252,1.47766 4.67926,2.91427 0.36941,0.86197 0.61569,1.80603 0.65674,2.87323 l 0,6.52634 -6.85471,0 0,4.88448 c 0.041,0.86197 0.28733,1.47767 0.65674,1.92917 0.20523,0.20523 0.49255,0.32837 0.86197,0.32837 0.77987,0 1.14929,-0.49255 1.31348,-1.10824 0.12313,-0.32837 0.16418,-0.69779 0.16418,-1.1493 l 0,-2.46276 3.85834,0 m -6.85471,-5.66437 2.99637,0 0,-3.16055 c 0,-0.86197 -0.16419,-1.47766 -0.57465,-1.97021 -0.20523,-0.20523 -0.5336,-0.32837 -0.90301,-0.32837 -0.77988,0 -1.10825,0.5336 -1.31348,1.14929 -0.12314,0.32837 -0.16418,0.69778 -0.20523,1.14929 l 0,3.16055"
         style="font-variant:normal;font-stretch:normal;font-family:League Gothic;-inkscape-font-specification:League Gothic"
         id="path3378"
         inkscape:connector-curvature="0" />
      <path
         d="m 613.2249,670.31476 -4.14566,0 0,-22.45223 4.14566,0 0,1.88812 c 0.0821,-0.041 0.24627,-0.20523 0.49255,-0.45151 0.45151,-0.45151 1.0672,-1.0672 1.80603,-1.47766 0.36942,-0.20523 0.69778,-0.28732 1.0672,-0.28732 1.10824,0 1.88812,0.65674 2.38067,1.47766 0.49256,0.86197 0.73884,1.97021 0.73884,2.91427 l 0,18.38867 -4.14566,0 0,-17.77297 c 0,-0.86197 -0.49256,-0.98511 -0.98511,-0.98511 -0.45151,0 -0.69779,0.24628 -0.98511,0.5336 -0.12314,0.16418 -0.24627,0.32837 -0.36941,0.5336 l 0,17.69088"
         style="font-variant:normal;font-stretch:normal;font-family:League Gothic;-inkscape-font-specification:League Gothic"
         id="path3380"
         inkscape:connector-curvature="0" />
      <path
         d="m 627.71547,642.3213 0,5.54123 2.83218,0 0,3.73519 -2.83218,0 0,11.16455 c 0,0.69778 0,1.6008 0.16418,2.33963 0.16419,0.73883 0.49256,1.35452 1.14929,1.35452 0.32837,0 0.73883,-0.041 1.02616,-0.0821 0.16418,-0.0411 0.32837,-0.0411 0.49255,-0.0821 l 0,4.06356 c -0.20523,0.041 -0.41046,0.12314 -0.61569,0.16419 -0.41046,0.0821 -0.94406,0.12314 -1.6008,0.12314 -2.42172,0 -3.57101,-1.23139 -4.14566,-2.79114 -0.57465,-1.55975 -0.61569,-3.44788 -0.61569,-4.76135 l 0,-11.49292 -2.09335,0 0,-3.73519 2.09335,0 0,-5.54123 4.14566,0"
         style="font-variant:normal;font-stretch:normal;font-family:League Gothic;-inkscape-font-specification:League Gothic"
         id="path3382"
         inkscape:connector-curvature="0" />
      <path
         d="m 643.11354,662.26972 0,2.5859 c -0.12314,2.17545 -0.77988,3.69416 -2.25754,4.88449 -0.73883,0.61569 -1.76499,0.90302 -3.11951,0.90302 -2.66799,0 -4.02252,-1.47766 -4.67926,-2.95532 -0.36941,-0.86197 -0.61569,-1.84708 -0.65673,-2.95533 l 0,-11.28768 c 0.12314,-2.17544 0.82092,-3.77624 2.29858,-5.00763 0.69778,-0.61569 1.72394,-0.90301 3.07846,-0.90301 2.668,0 4.02252,1.47766 4.67926,2.91427 0.36941,0.86197 0.61569,1.80603 0.65674,2.87323 l 0,6.52634 -6.85471,0 0,4.88448 c 0.0411,0.86197 0.28733,1.47767 0.65674,1.92917 0.20523,0.20523 0.49255,0.32837 0.86197,0.32837 0.77988,0 1.14929,-0.49255 1.31348,-1.10824 0.12313,-0.32837 0.16418,-0.69779 0.16418,-1.1493 l 0,-2.46276 3.85834,0 m -6.85471,-5.66437 2.99637,0 0,-3.16055 c 0,-0.86197 -0.16418,-1.47766 -0.57465,-1.97021 -0.20523,-0.20523 -0.5336,-0.32837 -0.90301,-0.32837 -0.77988,0 -1.10825,0.5336 -1.31348,1.14929 -0.12313,0.32837 -0.16418,0.69778 -0.20523,1.14929 l 0,3.16055"
         style="font-variant:normal;font-stretch:normal;font-family:League Gothic;-inkscape-font-specification:League Gothic"
         id="path3384"
         inkscape:connector-curvature="0" />
    </g>
    <g
       style="font-size:85.08076477px;font-style:normal;font-weight:normal;line-height:125%;letter-spacing:0px;word-spacing:0px;fill:#000000;fill-opacity:1;stroke:none;font-family:Sans"
       id="text3290"
       transform="translate(-355.09549,0)">
      <path
         d="m 411.7884,738.66803 9.44396,-62.53436 11.23067,0 9.44396,62.53436 -8.93348,0 -1.70162,-12.76211 -8.8484,0 -1.70161,12.76211 -8.93348,0 m 15.56978,-42.20006 -0.25524,-1.61653 -0.51049,0 -0.25524,1.61653 -2.6375,19.73874 6.29597,0 -2.6375,-19.73874"
         style="font-variant:normal;font-stretch:normal;font-family:League Gothic;-inkscape-font-specification:League Gothic"
         id="path3335"
         inkscape:connector-curvature="0" />
      <path
         d="m 459.35253,692.12885 8.59316,0 0,46.53918 -8.59316,0 0,-3.91372 c -0.17016,0.0851 -0.51048,0.42541 -0.93588,0.85081 -1.02097,1.02097 -2.21211,2.2121 -3.74356,3.06291 -0.76572,0.4254 -1.53145,0.68065 -2.29718,0.68065 -2.29718,0 -3.91371,-1.3613 -4.93468,-3.14799 -1.02097,-1.70162 -1.53146,-3.9988 -1.53146,-5.95566 l 0,-38.11618 8.59316,0 0,36.83997 c 0,1.7867 1.02097,2.04194 2.04194,2.04194 0.93589,0 1.44637,-0.51048 2.04194,-1.10605 0.25524,-0.25524 0.51048,-0.68065 0.76572,-1.10605 l 0,-36.66981"
         style="font-variant:normal;font-stretch:normal;font-family:League Gothic;-inkscape-font-specification:League Gothic"
         id="path3337"
         inkscape:connector-curvature="0" />
      <path
         d="m 484.70926,680.64295 0,11.4859 5.87057,0 0,7.74235 -5.87057,0 0,23.14197 c 0,1.44637 0,3.31815 0.34032,4.8496 0.34033,1.53145 1.02098,2.80767 2.38227,2.80767 0.68064,0 1.53145,-0.0851 2.12702,-0.17016 0.34032,-0.0851 0.68064,-0.0851 1.02096,-0.17017 l 0,8.423 c -0.4254,0.0851 -0.8508,0.25524 -1.27621,0.34032 -0.8508,0.17016 -1.95686,0.25525 -3.31815,0.25525 -5.01976,0 -7.40202,-2.55243 -8.59315,-5.7855 -1.19113,-3.23306 -1.27622,-7.14678 -1.27622,-9.86936 l 0,-23.82262 -4.33911,0 0,-7.74235 4.33911,0 0,-11.4859 8.59316,0"
         style="font-variant:normal;font-stretch:normal;font-family:League Gothic;-inkscape-font-specification:League Gothic"
         id="path3339"
         inkscape:connector-curvature="0" />
      <path
         d="m 515.86078,676.81431 -6.72138,7.65727 -6.6363,0 4.4242,-7.65727 8.93348,0 m 0.51049,50.53798 c -0.25524,4.50927 -1.61654,7.65727 -4.59436,10.12461 -1.53146,1.27621 -3.65848,1.87178 -6.46614,1.87178 -5.53025,0 -8.25284,-3.06291 -9.61413,-6.12582 -0.76572,-1.78669 -1.27621,-3.82864 -1.36129,-6.12581 l 0,-23.39721 c 0.25524,-4.50928 1.61654,-7.82744 4.59436,-10.37986 1.44637,-1.27621 3.5734,-1.87177 6.38106,-1.87177 5.53024,0 8.33791,3.06291 9.69921,6.04073 0.76572,1.78669 1.27621,3.74356 1.36129,5.95565 l 0,23.9077 m -8.08268,-23.65245 c 0.0851,-1.7867 -0.25524,-3.06291 -1.10605,-4.08388 -0.4254,-0.4254 -1.10605,-0.68065 -1.87177,-0.68065 -1.61654,0 -2.29718,1.10605 -2.63751,2.38226 -0.25524,0.68065 -0.34032,1.44638 -0.25524,2.38227 l 0,23.39721 c -0.0851,1.78669 0.34033,3.0629 1.10605,3.99879 0.42541,0.42541 1.02097,0.68065 1.7867,0.68065 1.61653,0 2.38226,-1.02097 2.72258,-2.29718 0.25524,-0.68065 0.34033,-1.44638 0.25524,-2.38226 l 0,-23.39721"
         style="font-variant:normal;font-stretch:normal;font-family:League Gothic;-inkscape-font-specification:League Gothic"
         id="path3341"
         inkscape:connector-curvature="0" />
      <path
         d="m 530.7805,738.66803 -8.59316,0 0,-46.53918 8.59316,0 0,3.91372 c 0.17016,-0.0851 0.51048,-0.42541 1.02097,-0.93589 0.93589,-0.93589 2.2121,-2.2121 3.74355,-3.06291 0.76573,-0.4254 1.44638,-0.59556 2.2121,-0.59556 2.29718,0 3.91372,1.36129 4.93469,3.0629 1.02096,1.7867 1.53145,4.08388 1.53145,6.04074 l 0,38.11618 -8.59316,0 0,-36.83997 c 0,-1.7867 -1.02097,-2.04194 -2.04194,-2.04194 -0.93588,0 -1.44637,0.51049 -2.04193,1.10605 -0.25525,0.34032 -0.51049,0.68065 -0.76573,1.10605 l 0,36.66981"
         style="font-variant:normal;font-stretch:normal;font-family:League Gothic;-inkscape-font-specification:League Gothic"
         id="path3343"
         inkscape:connector-curvature="0" />
      <path
         d="m 572.20553,727.35229 c -0.25525,4.50927 -1.61654,7.65727 -4.59437,10.12461 -1.53145,1.27621 -3.65847,1.87178 -6.46613,1.87178 -5.53025,0 -8.25284,-3.06291 -9.61413,-6.12582 -0.76573,-1.78669 -1.27621,-3.82864 -1.36129,-6.12581 l 0,-23.39721 c 0.25524,-4.50928 1.61654,-7.82744 4.59436,-10.37986 1.44637,-1.27621 3.57339,-1.87177 6.38106,-1.87177 5.53024,0 8.33791,3.06291 9.6992,6.04073 0.76573,1.78669 1.27622,3.74356 1.3613,5.95565 l 0,23.9077 m -8.08268,-23.65245 c 0.0851,-1.7867 -0.25524,-3.06291 -1.10605,-4.08388 -0.4254,-0.4254 -1.10605,-0.68065 -1.87177,-0.68065 -1.61654,0 -2.29718,1.10605 -2.63751,2.38226 -0.25524,0.68065 -0.34032,1.44638 -0.25524,2.38227 l 0,23.39721 c -0.0851,1.78669 0.34032,3.0629 1.10605,3.99879 0.4254,0.42541 1.02097,0.68065 1.7867,0.68065 1.61653,0 2.38226,-1.02097 2.72258,-2.29718 0.25524,-0.68065 0.34032,-1.44638 0.25524,-2.38226 l 0,-23.39721"
         style="font-variant:normal;font-stretch:normal;font-family:League Gothic;-inkscape-font-specification:League Gothic"
         id="path3345"
         inkscape:connector-curvature="0" />
      <path
         d="m 600.22767,738.66803 -8.08267,0 0,-36.83997 c 0,-1.7867 -1.36129,-2.04194 -2.29718,-2.04194 -0.93589,0 -1.70162,0.51049 -2.29718,1.10605 -0.34032,0.34032 -0.68065,0.68065 -0.93589,1.10605 l 0,36.66981 -8.59316,0 0,-46.53918 8.59316,0 0,3.91372 c 0.17016,-0.0851 0.51049,-0.42541 1.02097,-0.93589 0.93589,-0.93589 2.38226,-2.2121 3.91371,-3.06291 0.76573,-0.4254 1.44638,-0.59556 2.2121,-0.59556 3.06291,0 4.84961,2.46734 5.7855,5.18992 0.34032,-0.25524 0.76572,-0.68064 1.36129,-1.27621 1.10605,-1.19113 2.55242,-2.29718 4.16896,-3.23307 0.76572,-0.4254 1.53145,-0.68064 2.29718,-0.68064 2.29718,0 3.91371,1.36129 4.93468,3.0629 1.02097,1.7867 1.53145,4.08388 1.53145,6.04074 l 0,38.11618 -8.08267,0 0,-36.83997 c 0,-1.7867 -1.36129,-2.04194 -2.29718,-2.04194 -0.93589,0 -1.70161,0.51049 -2.29718,1.10605 -0.34032,0.34032 -0.68065,0.68065 -0.93589,1.10605 l 0,36.66981"
         style="font-variant:normal;font-stretch:normal;font-family:League Gothic;-inkscape-font-specification:League Gothic"
         id="path3347"
         inkscape:connector-curvature="0" />
      <path
         d="m 632.91464,703.18935 c 0,-0.76573 0,-1.95686 -0.25525,-2.80766 -0.34032,-0.85081 -1.02097,-1.44638 -2.12701,-1.44638 -1.44638,0 -2.04194,1.10605 -2.29719,2.46734 -0.0851,0.68065 -0.17016,1.44638 -0.17016,2.2121 0,0.76573 0,1.53146 0,2.2121 l -8.59315,0 0,-1.95685 c 0,-3.40323 1.27621,-6.46614 3.31815,-8.76332 2.04193,-2.29718 4.93468,-3.65847 8.25283,-3.65847 2.80766,0 5.36009,1.10605 7.31695,2.97782 1.95685,1.87178 3.14798,4.50929 3.14798,7.57219 l 0,28.58714 c 0,4.16895 0.25525,6.04073 0.59557,8.08267 l -8.423,0 c -0.76572,-0.93589 -0.76572,-3.14799 -0.76572,-3.74355 l -0.59557,0 c -0.4254,0.76572 -1.19113,1.87177 -2.38226,2.80766 -1.19113,0.93589 -2.80767,1.61654 -4.50928,1.61654 -1.10605,0 -2.89275,-0.42541 -4.25404,-2.12702 -1.44637,-1.61654 -2.6375,-4.50929 -2.6375,-9.35889 0,-5.18992 1.53145,-8.93348 3.57339,-11.4859 2.04194,-2.55242 4.59436,-4.16896 6.72138,-5.27501 2.12702,-1.10605 3.74355,-1.87178 4.08388,-2.80766 l 0,-5.10485 m 0,13.01736 c -4.16896,1.78669 -5.95566,5.95566 -5.95566,10.37985 0,0.59557 0.0851,1.61654 0.42541,2.55242 0.34032,1.02097 0.93589,1.7867 1.95685,1.7867 1.95686,0 3.5734,-1.19113 3.5734,-2.80767 l 0,-11.9113"
         style="font-variant:normal;font-stretch:normal;font-family:League Gothic;-inkscape-font-specification:League Gothic"
         id="path3349"
         inkscape:connector-curvature="0" />
    </g>
    <g
       style="font-size:31.78085518px;font-style:normal;font-weight:normal;line-height:125%;letter-spacing:0px;word-spacing:0px;fill:#000000;fill-opacity:1;stroke:none;font-family:Sans"
       id="text3294"
       transform="translate(-355.09549,0)">
      <path
         d="m 418.90047,620.95299 -2.66959,0 0,10.16987 -3.43233,0 0,-23.35892 3.43233,0 0,9.66138 2.66959,0 0,-9.66138 3.43233,0 0,23.35892 -3.43233,0 0,-10.16987"
         style="font-variant:normal;font-stretch:normal;font-family:League Gothic;-inkscape-font-specification:League Gothic"
         id="path3318"
         inkscape:connector-curvature="0" />
      <path
         d="m 429.76505,617.87025 c 0,-0.28603 0,-0.73096 -0.0953,-1.04877 -0.12712,-0.31781 -0.38137,-0.54028 -0.79452,-0.54028 -0.54027,0 -0.76274,0.41316 -0.85808,0.92165 -0.0318,0.25425 -0.0636,0.54027 -0.0636,0.8263 0,0.28603 0,0.57206 0,0.8263 l -3.20987,0 0,-0.73096 c 0,-1.27123 0.47671,-2.41534 1.23945,-3.27342 0.76274,-0.85809 1.84329,-1.36658 3.08275,-1.36658 1.04876,0 2.00219,0.41315 2.73315,1.11233 0.73096,0.69918 1.17589,1.68439 1.17589,2.8285 l 0,10.67836 c 0,1.55726 0.0953,2.25644 0.22247,3.01918 l -3.14631,0 c -0.28603,-0.34959 -0.28603,-1.17589 -0.28603,-1.39835 l -0.22246,0 c -0.15891,0.28602 -0.44493,0.69918 -0.88987,1.04876 -0.44493,0.34959 -1.04876,0.60384 -1.68438,0.60384 -0.41315,0 -1.08055,-0.1589 -1.58904,-0.79452 -0.54028,-0.60384 -0.98521,-1.68439 -0.98521,-3.49589 0,-1.93864 0.57206,-3.337 1.3348,-4.29042 0.76274,-0.95342 1.71616,-1.55726 2.51068,-1.97041 0.79452,-0.41315 1.39836,-0.69918 1.52548,-1.04877 l 0,-1.90685 m 0,4.86247 c -1.55726,0.6674 -2.22466,2.22466 -2.22466,3.87726 0,0.22247 0.0318,0.60384 0.15891,0.95343 0.12712,0.38137 0.34959,0.6674 0.73096,0.6674 0.73096,0 1.33479,-0.44494 1.33479,-1.04877 l 0,-4.44932"
         style="font-variant:normal;font-stretch:normal;font-family:League Gothic;-inkscape-font-specification:League Gothic"
         id="path3320"
         inkscape:connector-curvature="0" />
      <path
         d="m 438.35433,607.76394 0,11.09151 0.1589,0 0.19069,-0.57205 1.55726,-4.54466 2.89206,0 -2.32001,5.65699 2.92384,11.72713 -3.08274,0 -1.58904,-7.02357 -0.0636,-0.25424 -0.1589,0 -0.0953,0.25424 -0.41315,1.01699 0,6.00658 -3.20987,0 0,-23.35892 3.20987,0"
         style="font-variant:normal;font-stretch:normal;font-family:League Gothic;-inkscape-font-specification:League Gothic"
         id="path3322"
         inkscape:connector-curvature="0" />
      <path
         d="m 445.07598,607.76394 3.20987,0 0,3.20986 -3.20987,0 0,-3.20986 m 0,23.35892 0,-17.38412 3.20987,0 0,17.38412 -3.20987,0"
         style="font-variant:normal;font-stretch:normal;font-family:League Gothic;-inkscape-font-specification:League Gothic"
         id="path3324"
         inkscape:connector-curvature="0" />
      <path
         d="m 459.14348,631.12286 -3.01919,0 0,-13.76111 c 0,-0.66739 -0.50849,-0.76274 -0.85808,-0.76274 -0.34959,0 -0.63562,0.19069 -0.85808,0.41315 -0.12712,0.12713 -0.25425,0.25425 -0.34959,0.41316 l 0,13.69754 -3.20987,0 0,-17.38412 3.20987,0 0,1.46192 c 0.0636,-0.0318 0.19068,-0.15891 0.38137,-0.34959 0.34959,-0.34959 0.88986,-0.82631 1.46192,-1.14411 0.28603,-0.15891 0.54027,-0.22247 0.8263,-0.22247 1.14411,0 1.81151,0.92164 2.1611,1.93863 0.12712,-0.0953 0.28603,-0.25425 0.50849,-0.47671 0.41315,-0.44493 0.95343,-0.85808 1.55726,-1.20767 0.28603,-0.15891 0.57206,-0.25425 0.85809,-0.25425 0.85808,0 1.46192,0.50849 1.84329,1.14411 0.38137,0.6674 0.57205,1.52548 0.57205,2.25644 l 0,14.23782 -3.01918,0 0,-13.76111 c 0,-0.66739 -0.50849,-0.76274 -0.85808,-0.76274 -0.34959,0 -0.63562,0.19069 -0.85808,0.41315 -0.12713,0.12713 -0.25425,0.25425 -0.34959,0.41316 l 0,13.69754"
         style="font-variant:normal;font-stretch:normal;font-family:League Gothic;-inkscape-font-specification:League Gothic"
         id="path3326"
         inkscape:connector-curvature="0" />
      <path
         d="m 471.58072,631.12286 0,-23.35892 3.01918,0 c 2.03397,0 3.62302,0.38137 4.67178,1.36657 1.04877,0.98521 1.58905,2.51069 1.58905,4.83069 0,1.11233 -0.0953,1.93863 -0.44494,2.70137 -0.34958,0.76274 -0.88986,1.39836 -1.68438,2.12932 0.85808,0.47671 1.4937,1.36658 2.00219,2.86028 0.25425,0.73096 0.38137,1.68439 0.38137,2.86028 0,1.74794 -0.31781,3.30521 -1.11233,4.51288 -0.79452,1.20767 -2.1611,2.00219 -4.19507,2.09753 l -4.22685,0 m 3.43233,-13.72933 c 0.28603,0 0.95343,0.0318 1.52548,-0.34959 0.57206,-0.38136 1.01699,-1.14411 1.01699,-2.76493 0,-1.62082 -0.44493,-2.38356 -1.01699,-2.76493 -0.57205,-0.38137 -1.23945,-0.34959 -1.52548,-0.34959 l 0,6.22904 m 0,10.32878 c 0.28603,0 0.95343,0.0636 1.52548,-0.34959 0.57206,-0.41315 1.01699,-1.33479 1.01699,-3.24164 0,-1.90685 -0.44493,-2.8285 -1.01699,-3.24165 -0.57205,-0.41315 -1.23945,-0.34959 -1.52548,-0.34959 l 0,7.18247"
         style="font-variant:normal;font-stretch:normal;font-family:League Gothic;-inkscape-font-specification:League Gothic"
         id="path3328"
         inkscape:connector-curvature="0" />
      <path
         d="m 491.16666,624.89382 0,2.00219 c -0.0953,1.68438 -0.60383,2.86028 -1.74794,3.78192 -0.57206,0.47671 -1.36658,0.69918 -2.41535,0.69918 -2.06575,0 -3.11452,-1.14411 -3.62302,-2.28822 -0.28602,-0.6674 -0.47671,-1.43014 -0.50849,-2.28822 l 0,-8.73974 c 0.0953,-1.68438 0.63562,-2.92384 1.77973,-3.87726 0.54027,-0.47671 1.3348,-0.69918 2.38356,-0.69918 2.06576,0 3.11453,1.14411 3.62302,2.25644 0.28603,0.6674 0.47671,1.39836 0.50849,2.22466 l 0,5.05316 -5.3074,0 0,3.78192 c 0.0318,0.66739 0.22247,1.14411 0.5085,1.4937 0.1589,0.1589 0.38137,0.25424 0.66739,0.25424 0.60384,0 0.88987,-0.38137 1.01699,-0.85808 0.0953,-0.25425 0.12712,-0.54027 0.12712,-0.88986 l 0,-1.90685 2.9874,0 m -5.3074,-4.38576 2.32,0 0,-2.44713 c 0,-0.6674 -0.12712,-1.14411 -0.44493,-1.52548 -0.1589,-0.1589 -0.41315,-0.25425 -0.69918,-0.25425 -0.60383,0 -0.85808,0.41316 -1.01698,0.88987 -0.0953,0.25424 -0.12713,0.54027 -0.15891,0.88986 l 0,2.44713"
         style="font-variant:normal;font-stretch:normal;font-family:League Gothic;-inkscape-font-specification:League Gothic"
         id="path3330"
         inkscape:connector-curvature="0" />
      <path
         d="m 492.41902,634.42807 c 0.0318,0.0318 0.0953,0.0318 0.19069,0.0318 0.1589,0.0318 0.95343,0.0954 1.46192,-0.28602 0.50849,-0.38137 0.85808,-0.92165 1.04877,-1.58905 0.0953,-0.31781 0.12712,-0.63561 0.12712,-0.95342 l -2.95562,-17.89262 3.14631,0 1.27123,10.67836 0.0636,0.88987 0.12712,0 0.0636,-0.88987 1.27123,-10.67836 3.1463,0 -3.08274,18.68714 c -0.1589,1.23945 -0.63562,2.44713 -1.39836,3.36877 -0.76274,0.92164 -1.77972,1.55726 -3.05096,1.55726 -0.0953,0 -0.22246,0 -0.38137,0 -0.28603,0 -0.6674,-0.0318 -1.04877,-0.0636 l 0,-2.86028"
         style="font-variant:normal;font-stretch:normal;font-family:League Gothic;-inkscape-font-specification:League Gothic"
         id="path3332"
         inkscape:connector-curvature="0" />
    </g>
  </g>
</svg>
