<?xml version="1.0" encoding="UTF-8" standalone="no"?>
<!-- Created with Inkscape (http://www.inkscape.org/) -->

<svg
   xmlns:dc="http://purl.org/dc/elements/1.1/"
   xmlns:cc="http://creativecommons.org/ns#"
   xmlns:rdf="http://www.w3.org/1999/02/22-rdf-syntax-ns#"
   xmlns:svg="http://www.w3.org/2000/svg"
   xmlns="http://www.w3.org/2000/svg"
   xmlns:sodipodi="http://sodipodi.sourceforge.net/DTD/sodipodi-0.dtd"
   xmlns:inkscape="http://www.inkscape.org/namespaces/inkscape"
   width="372.04724"
   height="524.40942"
   id="svg2"
   version="1.1"
   inkscape:version="0.91 r13725"
   sodipodi:docname="single_las_nuevas_anarquistas.svg">
  <defs
     id="defs4" />
  <sodipodi:namedview
     id="base"
     pagecolor="#ffffff"
     bordercolor="#666666"
     borderopacity="1.0"
     inkscape:pageopacity="0.0"
     inkscape:pageshadow="2"
     inkscape:zoom="1.138198"
     inkscape:cx="63.615949"
     inkscape:cy="214.51442"
     inkscape:document-units="mm"
     inkscape:current-layer="layer1"
     showgrid="false"
     showguides="true"
     inkscape:guide-bbox="true"
     units="mm"
     inkscape:window-width="1366"
     inkscape:window-height="746"
     inkscape:window-x="0"
     inkscape:window-y="22"
     inkscape:window-maximized="0">
    <sodipodi:guide
       orientation="1,0"
       position="372.04724,0"
       id="guide3168" />
    <sodipodi:guide
       orientation="0,1"
       position="72.857143,271.42857"
       id="guide3277" />
  </sodipodi:namedview>
  <metadata
     id="metadata7">
    <rdf:RDF>
      <cc:Work
         rdf:about="">
        <dc:format>image/svg+xml</dc:format>
        <dc:type
           rdf:resource="http://purl.org/dc/dcmitype/StillImage" />
        <dc:title />
      </cc:Work>
    </rdf:RDF>
  </metadata>
  <g
     inkscape:label="Capa 1"
     inkscape:groupmode="layer"
     id="layer1"
     transform="translate(0,-527.95267)">
    <g
       id="layer1-8"
       inkscape:label="Capa 1"
       transform="matrix(0.16088167,0,0,0.16157504,44.613147,909.65661)">
      <rect
         style="fill:#d40000"
         id="rect3033"
         width="2312.552"
         height="3245.6094"
         x="-277.30411"
         y="-2362.3945" />
      <g
         inkscape:export-ydpi="149"
         inkscape:export-xdpi="149"
         inkscape:export-filename="/srv/http/kiwwwi.com.ar/pastes/utopia-pirata-2.png"
         transform="matrix(0.67937345,0,0,0.67937345,-233.93427,225.03697)"
         id="g3847" />
      <g
         id="g4077"
         transform="matrix(1.418919,0,0,1.418919,1084.9399,-369.99562)">
        <g
           transform="matrix(0.67937345,0,0,0.67937345,-35.215221,207.58407)"
           id="g3851"
           inkscape:export-filename="/srv/http/kiwwwi.com.ar/pastes/utopia-pirata-2.png"
           inkscape:export-xdpi="149"
           inkscape:export-ydpi="149">
          <path
             style="fill:#ffffff;stroke:#000000;stroke-width:0.70476186"
             inkscape:connector-curvature="0"
             id="path719"
             d="m 910.84122,610.02908 c -15,21 -31.266,38.794 -49,60 l -24,27 c -20,19 -70,56 -93,71 -13,9 -27,16 -41,22 l -18.26,8.84 c 3,3 8.58,4.641 13.629,7 3,0 13.631,-5.84 16.631,-7.84 l 32,-18 c 6,-4 12,-9 19,-10 -3,7 -10,11 -17,15 l -19,11 c 0,0 -19.951,11.37 -22.68,13.26 5.469,2.16 13.68,4.641 18.889,6.74 5,0 11.791,-5 15.791,-7 11,-6 25,-15 36,-23 l 18,-12 c 14,-11 28,-23 41,-36 10,-9 20,-18 28,-29 11,-13 18,-28 26,-43 9,-14 12,-23 17,-38 1,-5 4,-13 2,-18 z" />
          <path
             style="fill:#ffffff;stroke:#000000;stroke-width:0.70476186"
             inkscape:connector-curvature="0"
             id="path725"
             d="m 451.84122,605.02908 c -3,11 1,24 5,34 9,24 24,45 39,65 9,13 24,29 35,40 l 12,10 26,23 c 21,16 60,40 84,51 l 32,14 13,5 c 15,6 30,10 46,13 9,2 19,5 28,5 -3,-11 -9,-10 -18,-13 l -33,-13 c -46,-19 -97,-38 -133,-74 7,0 12,6 17,10 7,5 16,11 24,16 22,13 72,36 97,45 10,4 27,11 37,11 8,1 19,-4 25,-8 -4,-4 -8,-3 -14,-4 l -31,-9 c -27,-7 -53,-17 -78,-30 l -14,-6 -19,-12 -23,-15 -24,-19 -41,-32 -38,-39 -19,-22 -20,-22 -15,-24 z" />
          <path
             style="fill:#ffffff;stroke:#000000;stroke-width:0.70476186"
             inkscape:connector-curvature="0"
             id="path731"
             d="m 772.84122,852.02908 c 2,4 6,10 6,15 0,11 -13,21 -23,20 -4,-1 -13,-6 -16,0 -1,2 -1,4 0,5 0,4 5,6 9,8 11,3 23,-1 32,-7 7,-4 12,-11 14,-19 l 2,-13 c 1,-4 5,-5 10,-12 6,-8 12,-22 20,-28 3,-2 6,-3 10,-4 -2,-3 -4,-5 -6,-8 -2,-1 -4,-3 -6,-3 -3,-1 -7,-1 -10,1 -14,7 -11,20 -19,30 -6,8 -13,12 -23,15 z" />
          <path
             style="fill:#ffffff;stroke:#000000;stroke-width:0.70476186"
             inkscape:connector-curvature="0"
             id="path737"
             d="m 804.84122,865.02908 c 7,3 13,2 20,2 l 15,1 c 7,0 9,-4 12,-10 1,-2 2,-6 0,-8 -2,-2 -6,-2 -9,-2 l -17,1 c -3,0 -8,0 -11,1 -5,3 -9,10 -10,15 z" />
          <path
             style="fill:#ffffff;stroke:#000000;stroke-width:0.70476186"
             inkscape:connector-curvature="0"
             id="path743"
             d="m 858.84122,879.02908 c -5,-2 -8,-4 -11,-8 -1,1 -2,1 -3,2 -1,5 12,17 14,6 z" />
          <path
             style="fill:#ffffff;stroke:#000000;stroke-width:0.70476186"
             inkscape:connector-curvature="0"
             id="path744"
             d="m 851.84122,845.02908 8,5 c -2,4 -7,12 -6,17 1,10 15,10 21,4 7,-8 7,-20 -3,-26 -6,-3 -13,-2 -20,0 z" />
          <path
             style="fill:#ffffff;stroke:#000000;stroke-width:0.70476186"
             inkscape:connector-curvature="0"
             id="selection_x5F_to_x5F_path_x23_5"
             d="m 492.84122,873.02908 1,1 c 8,-2 13,-5 14,-13 -6,1 -12,7 -15,12 z" />
          <path
             style="fill:#ffffff;stroke:#000000;stroke-width:0.70476186"
             inkscape:connector-curvature="0"
             id="selection_x5F_to_x5F_path_x23_4"
             d="m 499.84122,836.02908 c -3,-2 -6,-3 -10,-3 -3,0 -6,0 -9,1 -10,4 -11,20 -3,27 4,4 14,6 18,1 4,-4 3,-9 1,-14 -1,-3 -3,-7 -1,-9 1,-2 3,-2 4,-3 z" />
          <path
             style="fill:#ffffff;stroke:#000000;stroke-width:0.70476186"
             inkscape:connector-curvature="0"
             id="selection_x5F_to_x5F_path_x23_3"
             d="m 498.84122,840.02908 c 1,3 6,15 8,17 3,2 6,2 9,2 l 18,-1 h 13 c 0,-3 0,-6 -1,-8 -3,-8 -14,-12 -22,-12 l -9,1 c -6,0 -11,-1 -16,1 z" />
          <path
             style="fill:#ffffff;stroke:#000000;stroke-width:0.70476186"
             inkscape:connector-curvature="0"
             id="selection_x5F_to_x5F_path_x23_2"
             d="m 517.84122,808.02908 c 19,5 19,21 27,32 3,4 11,10 12,14 1,3 0,4 1,11 2,9 8,18 16,23 9,6 17,10 28,7 6,-2 12,-6 9,-13 -3,-7 -14,0 -21,-2 -7,-3 -15,-13 -15,-21 l 4,-14 c -11,-4 -24,-13 -29,-24 -3,-7 -3,-17 -8,-22 -9,-7 -21,-1 -24,9 z" />
          <path
             style="fill:#ffffff;stroke:#000000;stroke-width:0.70476186"
             inkscape:connector-curvature="0"
             id="path758"
             d="m 565.84122,831.02908 c 3,4 5,5 9,7 14,8 23,2 37,-1 l 29,-9 c -3.84,-2.58 -12.42,-7.95 -16,-10 l -19,5 -40,8 z" />
          <path
             style="fill:#ffffff;stroke:#000000;stroke-width:0.70476186"
             inkscape:connector-curvature="0"
             id="path759"
             d="m 579.84122,860.02908 c 26,0 50,-8 75,-14 0,0 11,-5.206 14.676,-5.206 -3.47,-2.529 -17.622,-7.638 -19.836,-9.634 -3,0.89 -14.84,4.84 -18.84,5.84 l -25,7 -12,3 c -7,3 -12,4 -14,13 z" />
        </g>
        <circle
           id="circle3807"
           r="107.775"
           cy="156.03101"
           cx="376.047"
           sodipodi:cx="376.047"
           sodipodi:cy="156.03101"
           sodipodi:rx="107.775"
           sodipodi:ry="107.775"
           style="fill:none;stroke:#ffffff;stroke-width:14.09523773"
           transform="matrix(0.67937348,0,0,0.67937344,172.06628,463.24141)" />
        <path
           id="path3809"
           d="m 972.7768,439.2957 c -31.919,0 -58.663,22.231 -65.598,52.05 h 32.187 c 5.808,-12.648 18.59,-21.432 33.411,-21.432 20.282,0 36.742,16.46 36.742,36.741 0,20.281 -16.46,36.742 -36.742,36.742 -14.821,0 -27.604,-8.785 -33.411,-21.433 h -32.187 c 6.935,29.819 33.679,52.05 65.598,52.05 37.183,0 67.359,-30.177 67.359,-67.359 0,-37.182 -30.177,-67.359 -67.359,-67.359 z"
           inkscape:connector-curvature="0"
           style="fill:#ffffff"
           transform="matrix(0.67937348,0,0,0.67937344,-233.93429,225.03699)" />
        <g
           transform="matrix(-0.72702905,0.19480685,-0.19480685,-0.72702905,-611.71218,-436.375)"
           style="font-size:121.8484726px;font-style:normal;font-weight:normal;line-height:125%;letter-spacing:0px;word-spacing:0px;fill:#ffffff;fill-opacity:1;stroke:none;font-family:Bitstream Vera Sans"
           id="text3059"
           inkscape:export-filename="/srv/http/kiwwwi.com.ar/pastes/utopia-pirata-2.png"
           inkscape:export-xdpi="149"
           inkscape:export-ydpi="149">
          <g
             id="g3922"
             transform="matrix(0.99707364,-0.07644708,0.07644708,0.99707364,125.06749,-81.555005)">
            <path
               inkscape:export-ydpi="149"
               inkscape:export-xdpi="149"
               inkscape:export-filename="/srv/http/kiwwwi.com.ar/pastes/utopia-pirata-1.png"
               sodipodi:type="arc"
               style="fill:none;stroke:none"
               id="path3865"
               sodipodi:cx="-1311.178"
               sodipodi:cy="-1543.7299"
               sodipodi:rx="127.27922"
               sodipodi:ry="127.27922"
               d="m -1183.8988,-1543.7299 a 127.27922,127.27922 0 0 1 -127.2792,127.2793 127.27922,127.27922 0 0 1 -127.2792,-127.2793 127.27922,127.27922 0 0 1 127.2792,-127.2792 127.27922,127.27922 0 0 1 127.2792,127.2792 z"
               transform="matrix(-0.8718552,-0.2336129,0.2336129,-0.8718552,-1786.4657,-3244.8873)" />
            <path
               inkscape:connector-curvature="0"
               id="path3897"
               style="font-style:normal;font-variant:normal;font-weight:normal;font-stretch:normal;fill:#ffffff;font-family:League Gothic;-inkscape-font-specification:League Gothic"
               d="m -778.04883,-1594.9487 -70.08465,-12.3215 c -3.57914,-0.7529 -6.69277,-2.0426 -9.22087,-3.848 -2.21027,-1.502 -4.19505,-3.583 -5.5732,-6.2996 -1.49816,-2.7377 -2.00858,-6.1679 -1.24904,-10.4881 0.75954,-4.3203 2.43037,-7.4907 4.77246,-9.5532 2.22209,-2.0837 4.77652,-3.243 7.36656,-3.9011 2.99226,-0.8348 6.35907,-0.9852 9.98041,-0.4723 l 70.08465,12.3215 -2.27862,12.9608 -70.08465,-12.3214 c -2.52017,-0.4431 -4.30577,-0.1384 -5.83684,0.8296 -0.70553,0.4946 -1.21325,1.2713 -1.40313,2.3514 -0.40087,2.2801 0.84934,3.6134 2.56507,4.4099 0.77676,0.5077 1.83573,0.8176 3.15582,1.0497 l 70.08465,12.3214 -2.27862,12.9609" />
            <path
               inkscape:connector-curvature="0"
               id="path3899"
               style="font-style:normal;font-variant:normal;font-weight:normal;font-stretch:normal;fill:#ffffff;font-family:League Gothic;-inkscape-font-specification:League Gothic"
               d="m -801.09593,-1568.8963 11.85811,6.5051 -18.28444,33.3309 -11.85812,-6.5051 5.97761,-10.8966 -66.66184,-36.5689 6.32923,-11.5376 66.66184,36.5689 5.97761,-10.8967" />
            <path
               inkscape:connector-curvature="0"
               id="path3901"
               style="font-style:normal;font-variant:normal;font-weight:normal;font-stretch:normal;fill:#ffffff;font-family:League Gothic;-inkscape-font-specification:League Gothic"
               d="m -902.22684,-1531.2768 c -2.40064,-2.7594 -4.10625,-5.6661 -5.0338,-8.6309 -0.857,-2.5312 -1.18494,-5.3882 -0.64563,-8.3863 0.45632,-3.0873 2.1181,-6.1311 5.32973,-9.1189 3.21164,-2.9879 6.45655,-4.5088 9.56871,-4.7413 3.02918,-0.3218 5.76585,0.2943 8.22867,1.3316 2.89022,1.139 5.66638,3.0497 8.24545,5.6431 l 35.93698,38.6289 c 2.31765,2.6701 4.02326,5.5768 4.95082,8.5417 0.85699,2.5312 1.35714,5.3944 0.81783,8.3924 -0.53932,2.9981 -2.20731,6.2141 -5.41895,9.202 -3.21163,2.9878 -6.45032,4.3365 -9.47949,4.6583 -3.02918,0.3217 -5.93806,-0.3006 -8.40087,-1.3379 -2.89023,-1.1389 -5.66638,-3.0497 -8.16246,-5.5539 l -35.93699,-38.6288 m 45.57191,29.6653 c 1.65991,1.7843 3.1787,2.7013 5.06676,2.9419 0.86104,0.031 1.82372,-0.3653 2.62663,-1.1122 1.69503,-1.5769 1.33601,-3.5729 0.61392,-5.0646 -0.39633,-0.9627 -1.05407,-1.8486 -1.88403,-2.7407 l -35.93698,-38.6289 c -1.74291,-1.8735 -3.35091,-2.7075 -5.15597,-2.8588 -0.86104,-0.031 -1.73451,0.2822 -2.53742,1.0292 -1.69503,1.5769 -1.502,3.3944 -0.61392,5.0645 0.31333,0.8735 0.97108,1.7594 1.88402,2.7408 l 35.93699,38.6288" />
            <path
               inkscape:connector-curvature="0"
               id="path3903"
               style="font-style:normal;font-variant:normal;font-weight:normal;font-stretch:normal;fill:#ffffff;font-family:League Gothic;-inkscape-font-specification:League Gothic"
               d="m -886.59996,-1457.8116 -12.05827,5.2702 c -5.24757,2.2934 -11.08073,3.2471 -16.75926,1.2077 -5.67853,-2.0394 -11.09081,-7.1207 -15.18979,-16.4994 -4.09898,-9.3786 -4.10323,-16.6905 -1.74292,-22.2434 2.3603,-5.5528 6.92473,-9.4094 12.1723,-11.7029 l -14.34645,-32.8252 12.05826,-5.2702 35.86613,82.0632 m -28.21022,-31.6862 c -3.68447,1.6103 -5.73635,3.305 -6.2466,5.7886 -0.55905,2.372 0.42353,5.5329 2.42423,10.1106 2.00069,4.5777 3.75077,7.6692 5.96893,9.0933 2.21816,1.4242 4.95321,1.2926 8.63767,-0.3177 l -10.78423,-24.6748" />
            <path
               inkscape:connector-curvature="0"
               id="path3905"
               style="font-style:normal;font-variant:normal;font-weight:normal;font-stretch:normal;fill:#ffffff;font-family:League Gothic;-inkscape-font-specification:League Gothic"
               d="m -948.99443,-1436.6047 -13.00674,2.0001 -13.61231,-88.5181 13.00674,-2.0001 13.61231,88.5181" />
            <path
               inkscape:connector-curvature="0"
               id="path3907"
               style="font-style:normal;font-variant:normal;font-weight:normal;font-stretch:normal;fill:#ffffff;font-family:League Gothic;-inkscape-font-specification:League Gothic"
               d="m -981.75508,-1521.0222 -23.62102,87.4398 -15.9797,-1.8289 -3.2539,-90.5157 12.7111,1.4548 0.3429,18.4359 12.59007,1.4409 4.49944,-17.8816 12.71111,1.4548 m -29.02582,57.5093 0.1,2.3417 0.7264,0.083 0.6264,-2.2585 6.9672,-27.656 -8.9583,-1.0253 0.5384,28.515" />
            <path
               inkscape:connector-curvature="0"
               id="path3909"
               style="font-style:normal;font-variant:normal;font-weight:normal;font-stretch:normal;fill:#ffffff;font-family:League Gothic;-inkscape-font-specification:League Gothic"
               d="m -1099.1166,-1462.6292 -10.788,-7.5362 c -4.6948,-3.2797 -8.5522,-7.758 -9.7757,-13.6663 -1.2235,-5.9083 0.2868,-13.1768 6.1483,-21.5675 5.8615,-8.3906 12.0967,-12.2098 18.0653,-13.094 5.9685,-0.8841 11.6402,0.9971 16.335,4.2767 l 20.5152,-29.3674 10.7881,7.5362 -51.2882,73.4185 m 12.3091,-40.5995 c -3.2963,-2.3027 -5.8127,-3.1688 -8.1976,-2.308 -2.3152,0.7609 -4.4989,3.2485 -7.3599,7.344 -2.8609,4.0954 -4.5849,7.2016 -4.6423,9.8369 -0.057,2.6354 1.4821,4.8999 4.7784,7.2026 l 15.4214,-22.0755" />
            <path
               inkscape:connector-curvature="0"
               id="path3911"
               style="font-style:normal;font-variant:normal;font-weight:normal;font-stretch:normal;fill:#ffffff;font-family:League Gothic;-inkscape-font-specification:League Gothic"
               d="m -1149.6319,-1504.5948 -8.5195,-10.0296 68.2572,-57.9801 8.5196,10.0296 -68.2573,57.9801" />
            <path
               inkscape:connector-curvature="0"
               id="path3913"
               style="font-style:normal;font-variant:normal;font-weight:normal;font-stretch:normal;fill:#ffffff;font-family:League Gothic;-inkscape-font-specification:League Gothic"
               d="m -1106.4208,-1601.3444 -31.2348,22.3102 1.5099,3.1948 34.1507,-16.1412 5.6233,11.8977 -80.97,38.2701 -5.6234,-11.8977 c -6.7168,-14.211 -1.5386,-24.071 13.7741,-31.3085 8.0419,-3.8009 16.302,-5.1443 21.5214,-2.0855 l 35.6254,-26.1376 5.6234,11.8977 m -40.7412,30.7118 c -0.781,-1.6525 -2.0427,-3.7516 -4.4181,-4.7852 -2.3754,-1.0337 -6.0267,-1.06 -11.7551,1.6476 -5.7285,2.7075 -8.1362,5.5975 -8.8454,8.0891 -0.7092,2.4916 0.222,4.7469 1.003,6.3994 l 24.0156,-11.3509" />
            <path
               inkscape:connector-curvature="0"
               id="path3915"
               style="font-style:normal;font-variant:normal;font-weight:normal;font-stretch:normal;fill:#ffffff;font-family:League Gothic;-inkscape-font-specification:League Gothic"
               d="m -1113.2219,-1617.132 -90.458,-4.5863 -1.5934,-16.0049 87.7782,-22.331 1.2675,12.7311 -17.946,4.2357 1.2554,12.6099 18.4288,0.6143 1.2675,12.7312 m -62.3486,-16.2013 -2.2675,0.5931 0.072,0.7275 2.34,0.1344 28.504,0.9582 -0.8933,-8.9724 -27.7556,6.5592" />
            <path
               inkscape:connector-curvature="0"
               id="path3917"
               style="font-style:normal;font-variant:normal;font-weight:normal;font-stretch:normal;fill:#ffffff;font-family:League Gothic;-inkscape-font-specification:League Gothic"
               d="m -1191.1447,-1674.8241 -13.2316,-2.8027 7.8779,-37.1915 13.2316,2.8027 -2.5754,12.1588 74.383,15.7558 -2.727,12.874 -74.383,-15.7558 -2.5755,12.1587" />
            <path
               inkscape:connector-curvature="0"
               id="path3919"
               style="font-style:normal;font-variant:normal;font-weight:normal;font-stretch:normal;fill:#ffffff;font-family:League Gothic;-inkscape-font-specification:League Gothic"
               d="m -1109.3262,-1695.6338 -70.438,-56.94 8.1301,-13.8779 84.1114,33.5999 -6.4672,11.0393 -17.0021,-7.1361 -6.4056,10.9341 14.5385,11.3415 -6.4671,11.0392 m -40.876,-49.7893 -2.1823,-0.8549 -0.3696,0.6309 1.8128,1.4856 22.4821,17.5485 4.5578,-7.78 -26.3008,-11.0301" />
          </g>
        </g>
      </g>
    </g>
    <rect
       style="fill:#ffffff"
       id="rect3035"
       width="372.04724"
       height="173.31024"
       x="0"
       y="589.18805" />
    <g
       transform="translate(-372.04724,0)"
       style="font-style:normal;font-variant:normal;font-weight:normal;font-stretch:normal;font-size:47.7713356px;line-height:125%;font-family:FontAwesome;-inkscape-font-specification:FontAwesome;text-align:end;letter-spacing:0px;word-spacing:0px;text-anchor:end;fill:#000000;fill-opacity:1;stroke:none;stroke-width:1px;stroke-linecap:butt;stroke-linejoin:miter;stroke-opacity:1"
       id="text4417">
      <path
         inkscape:connector-curvature="0"
         d="m 411.98861,667.74573 5.1593,0 0,30.3348 6.8313,0 0,4.77714 -11.9906,0 0,-35.11194 z"
         style="font-style:normal;font-variant:normal;font-weight:normal;font-stretch:normal;font-family:'League Gothic';-inkscape-font-specification:'League Gothic'"
         id="path4484" />
      <path
         inkscape:connector-curvature="0"
         d="m 433.38644,682.93702 c 0,-0.42994 0,-1.09874 -0.14332,-1.57646 -0.19108,-0.47771 -0.57325,-0.81211 -1.19428,-0.81211 -0.81211,0 -1.14651,0.62103 -1.28983,1.38537 -0.0478,0.38217 -0.0955,0.81211 -0.0955,1.24206 0,0.42994 0,0.85988 0,1.24205 l -4.82491,0 0,-1.09874 c 0,-1.91085 0.71657,-3.63062 1.86309,-4.92045 1.14651,-1.28982 2.77073,-2.05417 4.63382,-2.05417 1.57645,0 3.00959,0.62103 4.10833,1.672 1.09874,1.05097 1.76754,2.53188 1.76754,4.25165 l 0,16.05117 c 0,2.34079 0.14331,3.39176 0.3344,4.53828 l -4.72936,0 c -0.42994,-0.52549 -0.42994,-1.76754 -0.42994,-2.10194 l -0.3344,0 c -0.23886,0.42994 -0.6688,1.05097 -1.3376,1.57645 -0.6688,0.52549 -1.57646,0.90766 -2.53188,0.90766 -0.62103,0 -1.62423,-0.23886 -2.38857,-1.19429 -0.81211,-0.90765 -1.48091,-2.53188 -1.48091,-5.25484 0,-2.91406 0.85988,-5.01599 2.0064,-6.44913 1.14651,-1.43314 2.57965,-2.3408 3.77393,-2.96183 1.19428,-0.62102 2.10194,-1.05097 2.29303,-1.57645 l 0,-2.86628 z m 0,7.30901 c -2.3408,1.0032 -3.344,3.344 -3.344,5.82811 0,0.3344 0.0478,0.90765 0.23886,1.43314 0.19108,0.57325 0.52548,1.00319 1.09874,1.00319 1.09874,0 2.0064,-0.66879 2.0064,-1.57645 l 0,-6.68799 z"
         style="font-style:normal;font-variant:normal;font-weight:normal;font-stretch:normal;font-family:'League Gothic';-inkscape-font-specification:'League Gothic'"
         id="path4486" />
      <path
         inkscape:connector-curvature="0"
         d="m 448.59489,683.41473 c 0,-0.62102 0,-1.38537 -0.19109,-2.00639 -0.23885,-0.57326 -0.62102,-1.05097 -1.38537,-1.05097 -0.62102,0 -1.00319,0.47771 -1.19428,1.05097 -0.23886,0.57325 -0.28663,1.38537 -0.28663,2.00639 0,0.81212 0.42994,1.672 1.05097,2.43634 0.57326,0.76434 1.3376,1.52868 2.10194,2.24525 1.0032,1.0032 2.19748,2.14971 3.00959,3.43954 0.81212,1.3376 1.43314,2.81851 1.43314,4.53828 0,1.67199 -0.38217,3.43953 -1.33759,4.77713 -1.0032,1.38537 -2.53188,2.38857 -4.82491,2.38857 -2.91405,0 -4.63382,-1.3376 -5.58924,-2.96183 -0.95543,-1.62422 -1.14652,-3.63062 -1.14652,-5.01599 l 4.49051,0 c 0,0.71657 0.0478,1.71977 0.38217,2.48411 0.3344,0.81212 0.85988,1.48091 1.86308,1.48091 1.38537,0 1.672,-1.62422 1.672,-3.1529 0,-1.57646 -1.52868,-3.15291 -3.0096,-4.63382 -1.14651,-1.09874 -2.24525,-2.10194 -3.10513,-3.39177 -0.85989,-1.28982 -1.48091,-2.72296 -1.48091,-4.63382 0,-1.52868 0.28662,-3.29622 1.19428,-4.68159 0.90766,-1.3376 2.38857,-2.34079 4.68159,-2.38857 2.81851,-0.0478 4.39496,1.0032 5.20708,2.38857 0.81211,1.38537 0.95542,3.20068 0.95542,4.68159 l -4.4905,0 z"
         style="font-style:normal;font-variant:normal;font-weight:normal;font-stretch:normal;font-family:'League Gothic';-inkscape-font-specification:'League Gothic'"
         id="path4488" />
      <path
         inkscape:connector-curvature="0"
         d="m 468.22368,702.85767 -4.8249,0 0,-26.13092 4.8249,0 0,2.19748 c 0.0955,-0.0478 0.28663,-0.23886 0.57326,-0.52549 0.52548,-0.52548 1.24205,-1.24205 2.10194,-1.71977 0.42994,-0.23885 0.81211,-0.3344 1.24205,-0.3344 1.28983,0 2.19748,0.76435 2.77074,1.71977 0.57325,1.0032 0.85988,2.29303 0.85988,3.39177 l 0,21.40156 -4.8249,0 0,-20.68499 c 0,-1.0032 -0.57326,-1.14651 -1.14651,-1.14651 -0.52549,0 -0.81212,0.28662 -1.14652,0.62102 -0.14331,0.19109 -0.28662,0.38217 -0.42994,0.62103 l 0,20.58945 z"
         style="font-style:normal;font-variant:normal;font-weight:normal;font-stretch:normal;font-family:'League Gothic';-inkscape-font-specification:'League Gothic'"
         id="path4490" />
      <path
         inkscape:connector-curvature="0"
         d="m 486.99259,676.72675 4.8249,0 0,26.13092 -4.8249,0 0,-2.19749 c -0.0955,0.0478 -0.28663,0.23886 -0.52549,0.47772 -0.57325,0.57325 -1.24205,1.24205 -2.10193,1.71977 -0.42995,0.23885 -0.85989,0.38217 -1.28983,0.38217 -1.28983,0 -2.19748,-0.76434 -2.77074,-1.76754 -0.57325,-0.95543 -0.85988,-2.24526 -0.85988,-3.344 l 0,-21.40155 4.8249,0 0,20.68498 c 0,1.0032 0.57326,1.14652 1.14651,1.14652 0.52549,0 0.81212,-0.28663 1.14652,-0.62103 0.14331,-0.14332 0.28662,-0.38217 0.42994,-0.62103 l 0,-20.58944 z"
         style="font-style:normal;font-variant:normal;font-weight:normal;font-stretch:normal;font-family:'League Gothic';-inkscape-font-specification:'League Gothic'"
         id="path4492" />
      <path
         inkscape:connector-curvature="0"
         d="m 507.58129,693.49448 0,3.0096 c -0.14332,2.53188 -0.90766,4.29942 -2.62743,5.68479 -0.85988,0.71657 -2.05416,1.05097 -3.63062,1.05097 -3.10513,0 -4.68159,-1.71977 -5.44593,-3.43954 -0.42994,-1.0032 -0.71657,-2.14971 -0.76434,-3.43954 l 0,-13.13711 c 0.14331,-2.53188 0.95543,-4.39497 2.67519,-5.82811 0.81212,-0.71657 2.0064,-1.05097 3.58285,-1.05097 3.10514,0 4.6816,1.71977 5.44594,3.39177 0.42994,1.0032 0.71657,2.10194 0.76434,3.34399 l 0,7.59565 -7.97782,0 0,5.68478 c 0.0478,1.0032 0.3344,1.71977 0.76435,2.24526 0.23885,0.23885 0.57325,0.38217 1.00319,0.38217 0.90766,0 1.3376,-0.57326 1.52869,-1.28983 0.14331,-0.38217 0.19108,-0.81211 0.19108,-1.3376 l 0,-2.86628 4.49051,0 z m -7.97782,-6.59244 3.48731,0 0,-3.67839 c 0,-1.0032 -0.19108,-1.71977 -0.6688,-2.29303 -0.23885,-0.23885 -0.62102,-0.38217 -1.05097,-0.38217 -0.90765,0 -1.28982,0.62103 -1.52868,1.3376 -0.14331,0.38217 -0.19108,0.81211 -0.23886,1.3376 l 0,3.67839 z"
         style="font-style:normal;font-variant:normal;font-weight:normal;font-stretch:normal;font-family:'League Gothic';-inkscape-font-specification:'League Gothic'"
         id="path4494" />
      <path
         inkscape:connector-curvature="0"
         d="m 513.33326,702.85767 -4.25165,-26.13092 4.68159,0 1.57645,15.14351 0.19109,1.672 0.38217,0 0.19108,-1.672 1.57646,-15.14351 4.68159,0 -4.25165,26.13092 -4.77713,0 z"
         style="font-style:normal;font-variant:normal;font-weight:normal;font-stretch:normal;font-family:'League Gothic';-inkscape-font-specification:'League Gothic'"
         id="path4496" />
      <path
         inkscape:connector-curvature="0"
         d="m 531.6349,682.93702 c 0,-0.42994 0,-1.09874 -0.14331,-1.57646 -0.19109,-0.47771 -0.57326,-0.81211 -1.19428,-0.81211 -0.81212,0 -1.14652,0.62103 -1.28983,1.38537 -0.0478,0.38217 -0.0955,0.81211 -0.0955,1.24206 0,0.42994 0,0.85988 0,1.24205 l -4.82491,0 0,-1.09874 c 0,-1.91085 0.71657,-3.63062 1.86309,-4.92045 1.14651,-1.28982 2.77073,-2.05417 4.63381,-2.05417 1.57646,0 3.0096,0.62103 4.10834,1.672 1.09874,1.05097 1.76754,2.53188 1.76754,4.25165 l 0,16.05117 c 0,2.34079 0.14331,3.39176 0.3344,4.53828 l -4.72936,0 c -0.42995,-0.52549 -0.42995,-1.76754 -0.42995,-2.10194 l -0.3344,0 c -0.23885,0.42994 -0.66879,1.05097 -1.33759,1.57645 -0.6688,0.52549 -1.57646,0.90766 -2.53188,0.90766 -0.62103,0 -1.62423,-0.23886 -2.38857,-1.19429 -0.81211,-0.90765 -1.48091,-2.53188 -1.48091,-5.25484 0,-2.91406 0.85988,-5.01599 2.00639,-6.44913 1.14652,-1.43314 2.57966,-2.3408 3.77394,-2.96183 1.19428,-0.62102 2.10194,-1.05097 2.29302,-1.57645 l 0,-2.86628 z m 0,7.30901 c -2.34079,1.0032 -3.34399,3.344 -3.34399,5.82811 0,0.3344 0.0478,0.90765 0.23886,1.43314 0.19108,0.57325 0.52548,1.00319 1.09874,1.00319 1.09874,0 2.00639,-0.66879 2.00639,-1.57645 l 0,-6.68799 z"
         style="font-style:normal;font-variant:normal;font-weight:normal;font-stretch:normal;font-family:'League Gothic';-inkscape-font-specification:'League Gothic'"
         id="path4498" />
      <path
         inkscape:connector-curvature="0"
         d="m 546.84335,683.41473 c 0,-0.62102 0,-1.38537 -0.19108,-2.00639 -0.23886,-0.57326 -0.62103,-1.05097 -1.38537,-1.05097 -0.62103,0 -1.0032,0.47771 -1.19428,1.05097 -0.23886,0.57325 -0.28663,1.38537 -0.28663,2.00639 0,0.81212 0.42994,1.672 1.05097,2.43634 0.57325,0.76434 1.3376,1.52868 2.10194,2.24525 1.00319,1.0032 2.19748,2.14971 3.00959,3.43954 0.81211,1.3376 1.43314,2.81851 1.43314,4.53828 0,1.67199 -0.38217,3.43953 -1.3376,4.77713 -1.00319,1.38537 -2.53188,2.38857 -4.8249,2.38857 -2.91405,0 -4.63382,-1.3376 -5.58925,-2.96183 -0.95542,-1.62422 -1.14651,-3.63062 -1.14651,-5.01599 l 4.49051,0 c 0,0.71657 0.0478,1.71977 0.38217,2.48411 0.3344,0.81212 0.85988,1.48091 1.86308,1.48091 1.38537,0 1.672,-1.62422 1.672,-3.1529 0,-1.57646 -1.52869,-3.15291 -3.0096,-4.63382 -1.14651,-1.09874 -2.24525,-2.10194 -3.10514,-3.39177 -0.85988,-1.28982 -1.48091,-2.72296 -1.48091,-4.63382 0,-1.52868 0.28663,-3.29622 1.19429,-4.68159 0.90765,-1.3376 2.38856,-2.34079 4.68159,-2.38857 2.81851,-0.0478 4.39496,1.0032 5.20707,2.38857 0.81212,1.38537 0.95543,3.20068 0.95543,4.68159 l -4.49051,0 z"
         style="font-style:normal;font-variant:normal;font-weight:normal;font-stretch:normal;font-family:'League Gothic';-inkscape-font-specification:'League Gothic'"
         id="path4500" />
      <path
         inkscape:connector-curvature="0"
         d="m 568.95625,682.93702 c 0,-0.42994 0,-1.09874 -0.14331,-1.57646 -0.19109,-0.47771 -0.57326,-0.81211 -1.19428,-0.81211 -0.81212,0 -1.14652,0.62103 -1.28983,1.38537 -0.0478,0.38217 -0.0955,0.81211 -0.0955,1.24206 0,0.42994 0,0.85988 0,1.24205 l -4.82491,0 0,-1.09874 c 0,-1.91085 0.71657,-3.63062 1.86309,-4.92045 1.14651,-1.28982 2.77073,-2.05417 4.63381,-2.05417 1.57646,0 3.0096,0.62103 4.10834,1.672 1.09874,1.05097 1.76754,2.53188 1.76754,4.25165 l 0,16.05117 c 0,2.34079 0.14331,3.39176 0.3344,4.53828 l -4.72936,0 c -0.42995,-0.52549 -0.42995,-1.76754 -0.42995,-2.10194 l -0.3344,0 c -0.23885,0.42994 -0.66879,1.05097 -1.33759,1.57645 -0.6688,0.52549 -1.57646,0.90766 -2.53188,0.90766 -0.62103,0 -1.62423,-0.23886 -2.38857,-1.19429 -0.81211,-0.90765 -1.48091,-2.53188 -1.48091,-5.25484 0,-2.91406 0.85988,-5.01599 2.00639,-6.44913 1.14652,-1.43314 2.57966,-2.3408 3.77394,-2.96183 1.19428,-0.62102 2.10194,-1.05097 2.29302,-1.57645 l 0,-2.86628 z m 0,7.30901 c -2.34079,1.0032 -3.34399,3.344 -3.34399,5.82811 0,0.3344 0.0478,0.90765 0.23886,1.43314 0.19108,0.57325 0.52548,1.00319 1.09874,1.00319 1.09874,0 2.00639,-0.66879 2.00639,-1.57645 l 0,-6.68799 z"
         style="font-style:normal;font-variant:normal;font-weight:normal;font-stretch:normal;font-family:'League Gothic';-inkscape-font-specification:'League Gothic'"
         id="path4502" />
      <path
         inkscape:connector-curvature="0"
         d="m 581.68061,702.85767 -4.8249,0 0,-26.13092 4.8249,0 0,2.19748 c 0.0955,-0.0478 0.28663,-0.23886 0.57326,-0.52549 0.52548,-0.52548 1.24205,-1.24205 2.10193,-1.71977 0.42995,-0.23885 0.81212,-0.3344 1.24206,-0.3344 1.28983,0 2.19748,0.76435 2.77074,1.71977 0.57325,1.0032 0.85988,2.29303 0.85988,3.39177 l 0,21.40156 -4.8249,0 0,-20.68499 c 0,-1.0032 -0.57326,-1.14651 -1.14652,-1.14651 -0.52548,0 -0.81211,0.28662 -1.14651,0.62102 -0.14331,0.19109 -0.28663,0.38217 -0.42994,0.62103 l 0,20.58945 z"
         style="font-style:normal;font-variant:normal;font-weight:normal;font-stretch:normal;font-family:'League Gothic';-inkscape-font-specification:'League Gothic'"
         id="path4504" />
      <path
         inkscape:connector-curvature="0"
         d="m 600.02629,682.93702 c 0,-0.42994 0,-1.09874 -0.14331,-1.57646 -0.19109,-0.47771 -0.57326,-0.81211 -1.19429,-0.81211 -0.81211,0 -1.14651,0.62103 -1.28982,1.38537 -0.0478,0.38217 -0.0955,0.81211 -0.0955,1.24206 0,0.42994 0,0.85988 0,1.24205 l -4.82491,0 0,-1.09874 c 0,-1.91085 0.71657,-3.63062 1.86308,-4.92045 1.14652,-1.28982 2.77074,-2.05417 4.63382,-2.05417 1.57646,0 3.0096,0.62103 4.10834,1.672 1.09874,1.05097 1.76754,2.53188 1.76754,4.25165 l 0,16.05117 c 0,2.34079 0.14331,3.39176 0.3344,4.53828 l -4.72937,0 c -0.42994,-0.52549 -0.42994,-1.76754 -0.42994,-2.10194 l -0.3344,0 c -0.23885,0.42994 -0.6688,1.05097 -1.33759,1.57645 -0.6688,0.52549 -1.57646,0.90766 -2.53189,0.90766 -0.62102,0 -1.62422,-0.23886 -2.38856,-1.19429 -0.81212,-0.90765 -1.48091,-2.53188 -1.48091,-5.25484 0,-2.91406 0.85988,-5.01599 2.00639,-6.44913 1.14651,-1.43314 2.57965,-2.3408 3.77394,-2.96183 1.19428,-0.62102 2.10194,-1.05097 2.29302,-1.57645 l 0,-2.86628 z m 0,7.30901 c -2.34079,1.0032 -3.34399,3.344 -3.34399,5.82811 0,0.3344 0.0478,0.90765 0.23886,1.43314 0.19108,0.57325 0.52548,1.00319 1.09874,1.00319 1.09874,0 2.00639,-0.66879 2.00639,-1.57645 l 0,-6.68799 z"
         style="font-style:normal;font-variant:normal;font-weight:normal;font-stretch:normal;font-family:'League Gothic';-inkscape-font-specification:'League Gothic'"
         id="path4506" />
      <path
         inkscape:connector-curvature="0"
         d="m 617.57554,681.69496 c -0.42994,-0.14331 -0.90766,-0.19108 -1.3376,-0.19108 -0.76434,0 -1.672,0.0955 -2.43634,0.81211 -0.90765,0.76434 -1.05097,1.57646 -1.05097,2.38857 l 0,18.15311 -4.8249,0 0,-26.13092 4.8249,0 0,2.91405 c 0.0478,-0.3344 0.38217,-1.14652 1.14651,-1.91086 0.76435,-0.71657 1.91086,-1.38537 3.6784,-1.38537 l 0,5.35039 z"
         style="font-style:normal;font-variant:normal;font-weight:normal;font-stretch:normal;font-family:'League Gothic';-inkscape-font-specification:'League Gothic'"
         id="path4508" />
      <path
         inkscape:connector-curvature="0"
         d="m 631.86364,711.83868 -4.8249,0 0,-10.70078 c -0.81211,0.76434 -1.52868,1.3376 -2.43634,1.76754 -0.47771,0.23885 -0.95543,0.3344 -1.38537,0.3344 -1.3376,0 -2.24525,-0.76434 -2.81851,-1.76754 -0.62102,-0.95543 -0.90765,-2.24526 -0.90765,-3.344 l 0,-16.67219 c 0,-1.09874 0.28663,-2.38857 0.90765,-3.39177 0.57326,-0.95542 1.48091,-1.71977 2.81851,-1.71977 0.90766,0 1.86308,0.52549 2.57965,1.05097 0.42995,0.3344 0.81212,0.6688 1.24206,1.05097 l 0,-1.71976 4.8249,0 0,35.11193 z m -4.8249,-29.37937 c 0,-0.90766 -0.71657,-1.57646 -1.43314,-1.57646 -0.71657,0 -1.28983,0.6688 -1.28983,1.57646 l 0,14.6658 c 0,0.90765 0.57326,1.57645 1.28983,1.57645 0.71657,0 1.43314,-0.81211 1.43314,-1.57645 l 0,-14.6658 z"
         style="font-style:normal;font-variant:normal;font-weight:normal;font-stretch:normal;font-family:'League Gothic';-inkscape-font-specification:'League Gothic'"
         id="path4510" />
      <path
         inkscape:connector-curvature="0"
         d="m 643.18247,676.72675 4.8249,0 0,26.13092 -4.8249,0 0,-2.19749 c -0.0955,0.0478 -0.28663,0.23886 -0.52549,0.47772 -0.57325,0.57325 -1.24205,1.24205 -2.10193,1.71977 -0.42995,0.23885 -0.85989,0.38217 -1.28983,0.38217 -1.28983,0 -2.19748,-0.76434 -2.77074,-1.76754 -0.57325,-0.95543 -0.85988,-2.24526 -0.85988,-3.344 l 0,-21.40155 4.8249,0 0,20.68498 c 0,1.0032 0.57326,1.14652 1.14651,1.14652 0.52549,0 0.81212,-0.28663 1.14652,-0.62103 0.14331,-0.14332 0.28663,-0.38217 0.42994,-0.62103 l 0,-20.58944 z"
         style="font-style:normal;font-variant:normal;font-weight:normal;font-stretch:normal;font-family:'League Gothic';-inkscape-font-specification:'League Gothic'"
         id="path4512" />
      <path
         inkscape:connector-curvature="0"
         d="m 651.87162,667.74573 4.82491,0 0,4.82491 -4.82491,0 0,-4.82491 z m 0,35.11194 0,-26.13092 4.82491,0 0,26.13092 -4.82491,0 z"
         style="font-style:normal;font-variant:normal;font-weight:normal;font-stretch:normal;font-family:'League Gothic';-inkscape-font-specification:'League Gothic'"
         id="path4514" />
      <path
         inkscape:connector-curvature="0"
         d="m 667.57794,683.41473 c 0,-0.62102 0,-1.38537 -0.19108,-2.00639 -0.23886,-0.57326 -0.62103,-1.05097 -1.38537,-1.05097 -0.62103,0 -1.0032,0.47771 -1.19428,1.05097 -0.23886,0.57325 -0.28663,1.38537 -0.28663,2.00639 0,0.81212 0.42994,1.672 1.05097,2.43634 0.57325,0.76434 1.33759,1.52868 2.10194,2.24525 1.00319,1.0032 2.19748,2.14971 3.00959,3.43954 0.81211,1.3376 1.43314,2.81851 1.43314,4.53828 0,1.67199 -0.38217,3.43953 -1.3376,4.77713 -1.0032,1.38537 -2.53188,2.38857 -4.8249,2.38857 -2.91405,0 -4.63382,-1.3376 -5.58925,-2.96183 -0.95543,-1.62422 -1.14651,-3.63062 -1.14651,-5.01599 l 4.4905,0 c 0,0.71657 0.0478,1.71977 0.38218,2.48411 0.33439,0.81212 0.85988,1.48091 1.86308,1.48091 1.38537,0 1.67199,-1.62422 1.67199,-3.1529 0,-1.57646 -1.52868,-3.15291 -3.00959,-4.63382 -1.14651,-1.09874 -2.24525,-2.10194 -3.10514,-3.39177 -0.85988,-1.28982 -1.48091,-2.72296 -1.48091,-4.63382 0,-1.52868 0.28663,-3.29622 1.19429,-4.68159 0.90765,-1.3376 2.38856,-2.34079 4.68159,-2.38857 2.8185,-0.0478 4.39496,1.0032 5.20707,2.38857 0.81211,1.38537 0.95543,3.20068 0.95543,4.68159 l -4.49051,0 z"
         style="font-style:normal;font-variant:normal;font-weight:normal;font-stretch:normal;font-family:'League Gothic';-inkscape-font-specification:'League Gothic'"
         id="path4516" />
      <path
         inkscape:connector-curvature="0"
         d="m 680.37244,670.27762 0,6.44913 3.29622,0 0,4.34719 -3.29622,0 0,12.9938 c 0,0.81211 0,1.86308 0.19108,2.72297 0.19109,0.85988 0.57326,1.57645 1.3376,1.57645 0.38217,0 0.85988,-0.0478 1.19428,-0.0955 0.19109,-0.0478 0.38217,-0.0478 0.57326,-0.0955 l 0,4.72936 c -0.23886,0.0478 -0.47771,0.14331 -0.71657,0.19108 -0.47771,0.0955 -1.09874,0.14332 -1.86308,0.14332 -2.81851,0 -4.15611,-1.43314 -4.82491,-3.24845 -0.6688,-1.81531 -0.71657,-4.0128 -0.71657,-5.54148 l 0,-13.37597 -2.43634,0 0,-4.34719 2.43634,0 0,-6.44913 4.82491,0 z"
         style="font-style:normal;font-variant:normal;font-weight:normal;font-stretch:normal;font-family:'League Gothic';-inkscape-font-specification:'League Gothic'"
         id="path4518" />
      <path
         inkscape:connector-curvature="0"
         d="m 693.42299,682.93702 c 0,-0.42994 0,-1.09874 -0.14331,-1.57646 -0.19109,-0.47771 -0.57326,-0.81211 -1.19429,-0.81211 -0.81211,0 -1.14651,0.62103 -1.28982,1.38537 -0.0478,0.38217 -0.0956,0.81211 -0.0956,1.24206 0,0.42994 0,0.85988 0,1.24205 l -4.8249,0 0,-1.09874 c 0,-1.91085 0.71657,-3.63062 1.86308,-4.92045 1.14651,-1.28982 2.77074,-2.05417 4.63382,-2.05417 1.57645,0 3.00959,0.62103 4.10834,1.672 1.09874,1.05097 1.76753,2.53188 1.76753,4.25165 l 0,16.05117 c 0,2.34079 0.14332,3.39176 0.3344,4.53828 l -4.72936,0 c -0.42994,-0.52549 -0.42994,-1.76754 -0.42994,-2.10194 l -0.3344,0 c -0.23886,0.42994 -0.6688,1.05097 -1.3376,1.57645 -0.6688,0.52549 -1.57645,0.90766 -2.53188,0.90766 -0.62103,0 -1.62422,-0.23886 -2.38856,-1.19429 -0.81212,-0.90765 -1.48092,-2.53188 -1.48092,-5.25484 0,-2.91406 0.85989,-5.01599 2.0064,-6.44913 1.14651,-1.43314 2.57965,-2.3408 3.77394,-2.96183 1.19428,-0.62102 2.10193,-1.05097 2.29302,-1.57645 l 0,-2.86628 z m 0,7.30901 c -2.3408,1.0032 -3.34399,3.344 -3.34399,5.82811 0,0.3344 0.0478,0.90765 0.23885,1.43314 0.19109,0.57325 0.52549,1.00319 1.09874,1.00319 1.09874,0 2.0064,-0.66879 2.0064,-1.57645 l 0,-6.68799 z"
         style="font-style:normal;font-variant:normal;font-weight:normal;font-stretch:normal;font-family:'League Gothic';-inkscape-font-specification:'League Gothic'"
         id="path4520" />
      <path
         inkscape:connector-curvature="0"
         d="m 708.63142,683.41473 c 0,-0.62102 0,-1.38537 -0.19108,-2.00639 -0.23886,-0.57326 -0.62103,-1.05097 -1.38537,-1.05097 -0.62103,0 -1.0032,0.47771 -1.19428,1.05097 -0.23886,0.57325 -0.28663,1.38537 -0.28663,2.00639 0,0.81212 0.42994,1.672 1.05097,2.43634 0.57325,0.76434 1.3376,1.52868 2.10194,2.24525 1.0032,1.0032 2.19748,2.14971 3.00959,3.43954 0.81211,1.3376 1.43314,2.81851 1.43314,4.53828 0,1.67199 -0.38217,3.43953 -1.3376,4.77713 -1.00319,1.38537 -2.53188,2.38857 -4.8249,2.38857 -2.91405,0 -4.63382,-1.3376 -5.58925,-2.96183 -0.95542,-1.62422 -1.14651,-3.63062 -1.14651,-5.01599 l 4.49051,0 c 0,0.71657 0.0478,1.71977 0.38217,2.48411 0.3344,0.81212 0.85988,1.48091 1.86308,1.48091 1.38537,0 1.672,-1.62422 1.672,-3.1529 0,-1.57646 -1.52869,-3.15291 -3.0096,-4.63382 -1.14651,-1.09874 -2.24525,-2.10194 -3.10513,-3.39177 -0.85989,-1.28982 -1.48092,-2.72296 -1.48092,-4.63382 0,-1.52868 0.28663,-3.29622 1.19429,-4.68159 0.90765,-1.3376 2.38856,-2.34079 4.68159,-2.38857 2.81851,-0.0478 4.39496,1.0032 5.20707,2.38857 0.81212,1.38537 0.95543,3.20068 0.95543,4.68159 l -4.49051,0 z"
         style="font-style:normal;font-variant:normal;font-weight:normal;font-stretch:normal;font-family:'League Gothic';-inkscape-font-specification:'League Gothic'"
         id="path4522" />
    </g>
    <g
       style="font-size:28.29599571px;font-style:normal;font-variant:normal;font-weight:normal;font-stretch:normal;line-height:125%;letter-spacing:0px;word-spacing:0px;fill:#000000;fill-opacity:1;stroke:none;font-family:League Gothic;-inkscape-font-specification:League Gothic"
       id="text3426">
      <path
         d="m 39.941376,659.39062 0,-20.79755 2.405159,0 c 2.829597,0 4.357585,0.56592 5.178168,2.15049 0.792287,1.58458 0.905472,4.18782 0.905472,8.26243 0,4.07462 -0.113185,6.64957 -0.905472,8.23414 -0.820583,1.58457 -2.348571,2.15049 -5.178168,2.15049 l -2.405159,0 m 3.055967,-3.05596 c 1.046951,0 1.641168,-0.11319 1.952424,-1.13184 0.14148,-0.48103 0.254664,-1.21673 0.28296,-2.20709 0.0283,-0.99036 0.0283,-2.32027 0.0283,-4.01803 0,-1.69776 0,-3.02767 -0.0283,-4.01803 -0.0283,-0.96207 -0.14148,-1.69776 -0.28296,-2.20709 -0.311256,-0.99036 -0.905473,-1.10354 -1.952424,-1.10354 l 0,14.68562"
         style=""
         id="path3595" />
      <path
         d="m 54.77113,647.59119 c 0,-0.25466 0,-0.6508 -0.08489,-0.93376 -0.113183,-0.28296 -0.339552,-0.48103 -0.707399,-0.48103 -0.481032,0 -0.679104,0.36784 -0.763992,0.82058 -0.0283,0.22637 -0.05659,0.48103 -0.05659,0.73569 0,0.25467 0,0.50933 0,0.7357 l -2.857896,0 0,-0.65081 c 0,-1.13184 0.424441,-2.15049 1.103544,-2.91448 0.679103,-0.764 1.641169,-1.21673 2.744712,-1.21673 0.933766,0 1.782648,0.36785 2.433455,0.99036 0.650807,0.62251 1.046952,1.49969 1.046952,2.51834 l 0,9.50746 c 0,1.3865 0.08489,2.00901 0.198072,2.68811 l -2.801304,0 c -0.254663,-0.31125 -0.254664,-1.04695 -0.254664,-1.24502 l -0.198072,0 c -0.141479,0.25466 -0.396144,0.62251 -0.792287,0.93377 -0.396144,0.31125 -0.933769,0.53762 -1.499688,0.53762 -0.367848,0 -0.962064,-0.14148 -1.4148,-0.7074 -0.481031,-0.53762 -0.877176,-1.49969 -0.877176,-3.11256 0,-1.72605 0.509329,-2.97108 1.188432,-3.81996 0.679103,-0.84887 1.527984,-1.3865 2.235384,-1.75435 0.707399,-0.36785 1.245024,-0.62251 1.358207,-0.93377 l 0,-1.69776 m 0,4.32929 c -1.386502,0.59422 -1.980719,1.98072 -1.980719,3.45211 0,0.19808 0.0283,0.53763 0.14148,0.84888 0.113184,0.33956 0.311256,0.59422 0.650808,0.59422 0.650807,0 1.188431,-0.39615 1.188431,-0.93377 l 0,-3.96144"
         style=""
         id="path3597" />
      <path
         d="m 61.06301,659.39062 -2.518344,-15.4779 2.773008,0 0.933768,8.96983 0.113184,0.99036 0.226368,0 0.113184,-0.99036 0.933768,-8.96983 2.773007,0 -2.518344,15.4779 -2.829599,0"
         style=""
         id="path3599" />
      <path
         d="m 67.795246,638.59307 2.857896,0 0,2.85789 -2.857896,0 0,-2.85789 m 0,20.79755 0,-15.4779 2.857896,0 0,15.4779 -2.857896,0"
         style=""
         id="path3601" />
      <path
         d="m 80.150427,659.39062 -2.857896,0 0,-1.01865 c -0.481031,0.45273 -0.905472,0.79229 -1.443095,1.04695 -0.28296,0.14148 -0.565921,0.19807 -0.820584,0.19807 -0.792287,0 -1.329912,-0.45273 -1.669464,-1.04695 -0.367848,-0.56592 -0.537624,-1.32991 -0.537624,-1.98072 l 0,-9.8753 c 0,-0.65081 0.169776,-1.4148 0.537624,-2.00902 0.339552,-0.56592 0.877177,-1.01865 1.669464,-1.01865 0.537623,0 1.103544,0.31125 1.527983,0.62251 0.254664,0.19807 0.481033,0.39614 0.735696,0.62251 l 0,-6.3383 2.857896,0 0,20.79755 m -2.857896,-12.08239 c 0,-0.45273 -0.42444,-0.93376 -0.848879,-0.93376 -0.42444,0 -0.763992,0.39614 -0.763992,0.93376 l 0,8.68688 c 0,0.53762 0.339552,0.93376 0.763992,0.93376 0.424439,0 0.848879,-0.39614 0.848879,-0.93376 l 0,-8.68688"
         style=""
         id="path3603" />
      <path
         d="m 91.701825,646.06321 0,-3.19745 c 0,-0.56592 -0.113184,-0.96206 -0.396144,-1.30161 -0.14148,-0.14148 -0.367848,-0.22637 -0.622512,-0.22637 -0.537623,0 -0.792288,0.39614 -0.905472,0.76399 -0.08489,0.22637 -0.113184,0.48103 -0.113184,0.76399 l 0,12.50683 c 0,0.59422 0.141481,0.99036 0.42444,1.30162 0.14148,0.14148 0.339553,0.22637 0.594216,0.22637 0.537624,0 0.792288,-0.33955 0.905472,-0.76399 0.08489,-0.19808 0.113184,-0.45274 0.113184,-0.764 l 0,-3.76336 -1.216728,0 0,-2.57494 4.272696,0 0,10.35633 -1.810944,0 -0.367848,-0.99035 c -0.565919,0.70739 -1.386505,1.21672 -2.376864,1.21672 -0.990359,0 -1.669464,-0.25466 -2.178791,-0.7074 -0.509328,-0.42444 -0.84888,-0.96206 -1.075248,-1.52798 -0.254664,-0.65081 -0.367848,-1.4148 -0.339552,-2.26368 l 0,-12.25217 c 0.0283,-0.82058 0.198072,-1.58457 0.509328,-2.23538 0.254663,-0.56592 0.622512,-1.13184 1.188432,-1.55628 0.565919,-0.42444 1.358208,-0.7074 2.376863,-0.7074 1.018655,0 1.782649,0.28296 2.348568,0.7074 0.565919,0.42444 0.962064,0.99036 1.216728,1.55628 0.311255,0.65081 0.481032,1.4148 0.509328,2.23538 l 0,3.19745 -3.055968,0"
         style=""
         id="path3605" />
      <path
         d="m 102.69128,646.8555 c -0.25466,-0.0849 -0.53762,-0.11319 -0.79229,-0.11319 -0.45273,0 -0.99036,0.0566 -1.44309,0.48104 -0.537625,0.45273 -0.622514,0.93377 -0.622514,1.4148 l 0,10.75247 -2.857895,0 0,-15.4779 2.857895,0 0,1.72605 c 0.0283,-0.19807 0.226364,-0.6791 0.679104,-1.13184 0.45274,-0.42444 1.13184,-0.82058 2.17879,-0.82058 l 0,3.16915"
         style=""
         id="path3607" />
      <path
         d="m 108.04718,647.59119 c 0,-0.25466 0,-0.6508 -0.0849,-0.93376 -0.11318,-0.28296 -0.33955,-0.48103 -0.70739,-0.48103 -0.48104,0 -0.67911,0.36784 -0.764,0.82058 -0.0283,0.22637 -0.0566,0.48103 -0.0566,0.73569 0,0.25467 0,0.50933 0,0.7357 l -2.85789,0 0,-0.65081 c 0,-1.13184 0.42444,-2.15049 1.10354,-2.91448 0.6791,-0.764 1.64117,-1.21673 2.74471,-1.21673 0.93377,0 1.78265,0.36785 2.43346,0.99036 0.6508,0.62251 1.04695,1.49969 1.04695,2.51834 l 0,9.50746 c 0,1.3865 0.0849,2.00901 0.19807,2.68811 l -2.8013,0 c -0.25467,-0.31125 -0.25467,-1.04695 -0.25467,-1.24502 l -0.19807,0 c -0.14148,0.25466 -0.39614,0.62251 -0.79229,0.93377 -0.39614,0.31125 -0.93377,0.53762 -1.49968,0.53762 -0.36785,0 -0.96207,-0.14148 -1.4148,-0.7074 -0.48104,-0.53762 -0.87718,-1.49969 -0.87718,-3.11256 0,-1.72605 0.50933,-2.97108 1.18843,-3.81996 0.6791,-0.84887 1.52799,-1.3865 2.23539,-1.75435 0.70739,-0.36785 1.24502,-0.62251 1.3582,-0.93377 l 0,-1.69776 m 0,4.32929 c -1.3865,0.59422 -1.98072,1.98072 -1.98072,3.45211 0,0.19808 0.0283,0.53763 0.14148,0.84888 0.11319,0.33956 0.31126,0.59422 0.65081,0.59422 0.65081,0 1.18843,-0.39615 1.18843,-0.93377 l 0,-3.96144"
         style=""
         id="path3609" />
      <path
         d="m 119.99561,653.84461 0,1.78265 c -0.0849,1.49968 -0.53762,2.54664 -1.55628,3.36722 -0.50933,0.42444 -1.21673,0.62251 -2.1505,0.62251 -1.83923,0 -2.773,-1.01865 -3.22574,-2.03731 -0.25466,-0.59421 -0.42444,-1.27332 -0.45273,-2.03731 l 0,-7.7814 c 0.0849,-1.49969 0.56592,-2.60323 1.58457,-3.45211 0.48103,-0.42444 1.18843,-0.62251 2.1222,-0.62251 1.83924,0 2.77301,1.01865 3.22574,2.00901 0.25467,0.59422 0.42444,1.24503 0.45274,1.98072 l 0,4.49907 -4.72543,0 0,3.36722 c 0.0283,0.59421 0.19807,1.01866 0.45273,1.32991 0.14148,0.14148 0.33956,0.22637 0.59422,0.22637 0.53762,0 0.79229,-0.33955 0.90547,-0.76399 0.0849,-0.22637 0.11319,-0.48103 0.11319,-0.79229 l 0,-1.69776 2.65982,0 m -4.72543,-3.90485 2.06561,0 0,-2.17879 c 0,-0.59421 -0.11319,-1.01866 -0.39615,-1.35821 -0.14148,-0.14148 -0.36785,-0.22636 -0.62251,-0.22636 -0.53762,0 -0.76399,0.36784 -0.90547,0.79228 -0.0849,0.22637 -0.11318,0.48104 -0.14148,0.79229 l 0,2.17879"
         style=""
         id="path3611" />
      <path
         d="m 121.95555,638.59307 2.8579,0 0,6.3383 c 0.48103,-0.45273 0.90547,-0.79229 1.47139,-1.04695 0.25466,-0.14148 0.53762,-0.19807 0.79229,-0.19807 0.79228,0 1.32991,0.45273 1.69776,1.01865 0.33955,0.59422 0.50932,1.35821 0.50932,2.00902 l 0,9.8753 c 0,0.65081 -0.16977,1.4148 -0.50932,1.98072 -0.36785,0.59422 -0.90548,1.04695 -1.69776,1.04695 -0.53763,0 -1.10355,-0.31125 -1.52799,-0.62251 -0.25466,-0.19807 -0.48103,-0.39614 -0.73569,-0.62251 l 0,1.01865 -2.8579,0 0,-20.79755 m 2.8579,17.40204 c 0,0.53762 0.42444,0.93376 0.84888,0.93376 0.42444,0 0.76399,-0.39614 0.76399,-0.93376 l 0,-8.68688 c 0,-0.53762 -0.33955,-0.93376 -0.76399,-0.93376 -0.42444,0 -0.84888,0.48103 -0.84888,0.93376 l 0,8.68688"
         style=""
         id="path3613" />
      <path
         d="m 138.62012,653.84461 0,1.78265 c -0.0849,1.49968 -0.53762,2.54664 -1.55628,3.36722 -0.50933,0.42444 -1.21673,0.62251 -2.15049,0.62251 -1.83924,0 -2.77301,-1.01865 -3.22575,-2.03731 -0.25466,-0.59421 -0.42444,-1.27332 -0.45273,-2.03731 l 0,-7.7814 c 0.0849,-1.49969 0.56592,-2.60323 1.58457,-3.45211 0.48103,-0.42444 1.18844,-0.62251 2.1222,-0.62251 1.83924,0 2.77301,1.01865 3.22575,2.00901 0.25466,0.59422 0.42444,1.24503 0.45273,1.98072 l 0,4.49907 -4.72543,0 0,3.36722 c 0.0283,0.59421 0.19807,1.01866 0.45274,1.32991 0.14148,0.14148 0.33955,0.22637 0.59421,0.22637 0.53763,0 0.79229,-0.33955 0.90547,-0.76399 0.0849,-0.22637 0.11319,-0.48103 0.11319,-0.79229 l 0,-1.69776 2.65982,0 m -4.72543,-3.90485 2.06561,0 0,-2.17879 c 0,-0.59421 -0.11319,-1.01866 -0.39615,-1.35821 -0.14148,-0.14148 -0.36784,-0.22636 -0.62251,-0.22636 -0.53762,0 -0.76399,0.36784 -0.90547,0.79228 -0.0849,0.22637 -0.11318,0.48104 -0.14148,0.79229 l 0,2.17879"
         style=""
         id="path3615" />
      <path
         d="m 146.24059,646.8555 c -0.25467,-0.0849 -0.53763,-0.11319 -0.79229,-0.11319 -0.45274,0 -0.99036,0.0566 -1.4431,0.48104 -0.53762,0.45273 -0.62251,0.93377 -0.62251,1.4148 l 0,10.75247 -2.85789,0 0,-15.4779 2.85789,0 0,1.72605 c 0.0283,-0.19807 0.22637,-0.6791 0.67911,-1.13184 0.45273,-0.42444 1.13184,-0.82058 2.17879,-0.82058 l 0,3.16915"
         style=""
         id="path3617" />
    </g>
  </g>
</svg>
