<?xml version="1.0" encoding="UTF-8" standalone="no"?>
<!-- Created with Inkscape (http://www.inkscape.org/) -->

<svg
   xmlns:dc="http://purl.org/dc/elements/1.1/"
   xmlns:cc="http://creativecommons.org/ns#"
   xmlns:rdf="http://www.w3.org/1999/02/22-rdf-syntax-ns#"
   xmlns:svg="http://www.w3.org/2000/svg"
   xmlns="http://www.w3.org/2000/svg"
   xmlns:sodipodi="http://sodipodi.sourceforge.net/DTD/sodipodi-0.dtd"
   xmlns:inkscape="http://www.inkscape.org/namespaces/inkscape"
   width="372.04724"
   height="262.20471"
   id="svg2"
   version="1.1"
   inkscape:version="0.48.4 r9939"
   sodipodi:docname="slider_historia_del_copyright.svg">
  <defs
     id="defs4" />
  <sodipodi:namedview
     id="base"
     pagecolor="#ffffff"
     bordercolor="#666666"
     borderopacity="1.0"
     inkscape:pageopacity="0.0"
     inkscape:pageshadow="2"
     inkscape:zoom="0.7"
     inkscape:cx="296.85053"
     inkscape:cy="261.44175"
     inkscape:document-units="mm"
     inkscape:current-layer="layer1"
     showgrid="false"
     showguides="true"
     inkscape:guide-bbox="true"
     units="mm"
     inkscape:window-width="1360"
     inkscape:window-height="749"
     inkscape:window-x="0"
     inkscape:window-y="19"
     inkscape:window-maximized="1">
    <sodipodi:guide
       orientation="1,0"
       position="262.20472,0"
       id="guide3168" />
    <sodipodi:guide
       orientation="0,1"
       position="72.857143,271.42857"
       id="guide3277" />
  </sodipodi:namedview>
  <metadata
     id="metadata7">
    <rdf:RDF>
      <cc:Work
         rdf:about="">
        <dc:format>image/svg+xml</dc:format>
        <dc:type
           rdf:resource="http://purl.org/dc/dcmitype/StillImage" />
        <dc:title></dc:title>
      </cc:Work>
    </rdf:RDF>
  </metadata>
  <g
     inkscape:label="Capa 1"
     inkscape:groupmode="layer"
     id="layer1"
     transform="translate(0,-790.15737)">
    <g
       id="layer1-8"
       inkscape:label="Capa 1"
       transform="matrix(0.16098061,0,0,0.0802526,416.91662,981.48184)">
      <rect
         style="fill:#660080"
         id="rect3033"
         width="2311.1309"
         height="3267.2429"
         x="-2589.8562"
         y="-2384.0276" />
      <g
         inkscape:export-ydpi="149"
         inkscape:export-xdpi="149"
         inkscape:export-filename="/srv/http/kiwwwi.com.ar/pastes/utopia-pirata-2.png"
         transform="matrix(0.67937345,0,0,0.67937345,-233.93427,225.03697)"
         id="g3847" />
    </g>
    <rect
       style="fill:#ffffff"
       id="rect3035"
       width="372.04724"
       height="173.31082"
       x="-2.0465302e-07"
       y="808.18512" />
    <g
       id="g3370"
       transform="matrix(1.418919,0,0,1.418919,-373.67568,-220.85448)">
      <g
         id="text3025"
         style="font-size:40px;font-style:normal;font-variant:normal;font-weight:normal;font-stretch:normal;line-height:125%;letter-spacing:0px;word-spacing:0px;fill:#000000;fill-opacity:1;stroke:none;font-family:League Gothic;-inkscape-font-specification:League Gothic"
         transform="translate(-0.25254936,-1.7019788)">
        <path
           id="path3042"
           d="m 279.52057,812.36212 4.31641,0 0,-12.79297 3.35937,0 0,12.79297 4.31641,0 0,-29.39453 -4.31641,0 0,12.14844 -3.35937,0 0,-12.14844 -4.31641,0 0,29.39453"
           inkscape:connector-curvature="0" />
        <path
           id="path3044"
           d="m 294.75494,812.36212 4.04297,0 0,-21.875 -4.04297,0 0,21.875 m 0,-25.35156 4.04297,0 0,-4.04297 -4.04297,0 0,4.04297"
           inkscape:connector-curvature="0" />
        <path
           id="path3046"
           d="m 301.14166,805.99493 c 0,1.70574 0.31901,3.10548 0.95703,4.19922 0.96354,1.65365 2.52604,2.48047 4.6875,2.48047 1.71875,0 3.05989,-0.66406 4.02344,-1.99219 0.7552,-1.05468 1.1328,-2.38931 1.13281,-4.0039 -10e-6,-1.21093 -0.40365,-2.47395 -1.21093,-3.78906 -0.4297,-0.67708 -1.26954,-1.64062 -2.51953,-2.89063 -0.78126,-0.72915 -1.3672,-1.35415 -1.75782,-1.875 -0.58594,-0.71613 -0.87891,-1.39972 -0.8789,-2.05078 -1e-5,-0.72915 0.0781,-1.28905 0.23437,-1.67969 0.18229,-0.58592 0.52083,-0.87889 1.01563,-0.8789 0.53384,1e-5 0.91796,0.29298 1.15234,0.8789 0.10416,0.35158 0.15624,0.91148 0.15625,1.67969 l 3.76953,0 c -1e-5,-1.70571 -0.26694,-3.00779 -0.80078,-3.90625 -0.79428,-1.34113 -2.18751,-2.0117 -4.17969,-2.01172 -0.0521,2e-5 -0.11068,2e-5 -0.17578,0 -1.71875,0.0391 -3.02735,0.70966 -3.92578,2.01172 -0.66406,1.00262 -0.9961,2.3047 -0.99609,3.90625 -1e-5,1.3672 0.41015,2.66277 1.23047,3.88672 0.45572,0.67709 1.32161,1.62761 2.59765,2.85156 0.54687,0.54688 0.96354,0.98308 1.25,1.30859 0.28645,0.31251 0.5664,0.71616 0.83985,1.21094 0.28645,0.48178 0.42967,0.931 0.42968,1.34766 -10e-6,1.75781 -0.46224,2.63672 -1.38672,2.63672 -0.71615,0 -1.23698,-0.41016 -1.5625,-1.23047 -0.22135,-0.52083 -0.33203,-1.21744 -0.33203,-2.08985 l -3.75,0"
           inkscape:connector-curvature="0" />
        <path
           id="path3048"
           d="m 313.15338,794.11993 2.05078,0 0,11.21094 c 0,2.00521 0.20182,3.54818 0.60547,4.62891 0.67708,1.80989 2.01823,2.71484 4.02344,2.71484 0.65103,0 1.17187,-0.0391 1.5625,-0.11719 0.0651,-0.013 0.16275,-0.0391 0.29297,-0.0781 0.14322,-0.0391 0.24738,-0.0651 0.3125,-0.0781 l 0,-3.96484 c -0.0521,0.013 -0.13022,0.0261 -0.23438,0.0391 -0.10417,0.013 -0.1823,0.026 -0.23437,0.0391 -0.36459,0.0521 -0.70314,0.0781 -1.01563,0.0781 -0.5599,0 -0.93099,-0.43619 -1.11328,-1.30859 -0.10417,-0.48177 -0.15626,-1.24349 -0.15625,-2.28516 l 0,-10.87891 2.75391,0 0,-3.63281 -2.75391,0 0,-5.41015 -4.04297,0 0,5.41015 -2.05078,0 0,3.63281"
           inkscape:connector-curvature="0" />
        <path
           id="path3050"
           d="m 323.75885,806.9129 c 0.0391,0.98959 0.2539,1.95313 0.64453,2.89063 0.85937,1.91406 2.36979,2.87109 4.53125,2.87109 1.3151,0 2.32421,-0.29297 3.02735,-0.8789 0.70311,-0.57292 1.22394,-1.23698 1.5625,-1.99219 0.33853,-0.76823 0.54035,-1.6862 0.60546,-2.75391 l 0,-11.25 c -0.0391,-0.92446 -0.25391,-1.85545 -0.64453,-2.79297 -0.8724,-1.90102 -2.38933,-2.85154 -4.55078,-2.85156 -1.34115,2e-5 -2.34375,0.29299 -3.00781,0.87891 -1.32813,1.11981 -2.05078,2.74741 -2.16797,4.88281 l 0,10.99609 m 3.80859,0 0,-10.99609 c -0.013,-0.10415 -0.0195,-0.20832 -0.0195,-0.3125 0,-0.29946 0.0456,-0.56639 0.13672,-0.80078 0.19531,-0.74217 0.61197,-1.11326 1.25,-1.11328 0.3776,2e-5 0.67057,0.10418 0.87891,0.3125 0.33853,0.4297 0.5078,0.99611 0.50781,1.69922 -10e-6,0.0781 -10e-6,0.14975 0,0.21484 l 0,10.99609 c 0.013,0.10417 0.0195,0.20834 0.0195,0.3125 -1e-5,0.31251 -0.0456,0.58594 -0.13672,0.82032 -0.1823,0.71614 -0.60547,1.07422 -1.26953,1.07421 -0.35157,1e-5 -0.63151,-0.10416 -0.83984,-0.3125 -0.35157,-0.45572 -0.52735,-1.01562 -0.52735,-1.67968 0,-0.0781 0,-0.14974 0,-0.21485"
           inkscape:connector-curvature="0" />
        <path
           id="path3052"
           d="m 336.94244,812.36212 4.04297,0 0,-15.19531 c 0,-0.84634 0.29297,-1.51691 0.87891,-2.01172 0.46874,-0.44269 1.14582,-0.66404 2.03125,-0.66406 0.4427,2e-5 0.8203,0.0521 1.13281,0.15625 l 0,-4.49219 c -1.22397,2e-5 -2.25261,0.39065 -3.08594,1.17188 -0.28646,0.28647 -0.51433,0.57944 -0.68359,0.8789 -0.15626,0.2995 -0.2474,0.54039 -0.27344,0.72266 l 0,-2.44141 -4.04297,0 0,21.875"
           inkscape:connector-curvature="0" />
        <path
           id="path3054"
           d="m 346.78619,812.36212 4.04297,0 0,-21.875 -4.04297,0 0,21.875 m 0,-25.35156 4.04297,0 0,-4.04297 -4.04297,0 0,4.04297"
           inkscape:connector-curvature="0" />
        <path
           id="path3056"
           d="m 353.40729,807.284 c 0,2.00521 0.41666,3.47005 1.25,4.39453 0.53385,0.66406 1.19791,0.99609 1.99219,0.99609 0.78124,0 1.49087,-0.2539 2.1289,-0.76172 0.45572,-0.36458 0.82682,-0.80078 1.11328,-1.30859 l 0.27344,0 c -10e-6,0.85937 0.12369,1.44531 0.37109,1.75781 l 3.94532,0 c -0.18231,-1.11979 -0.27345,-2.38932 -0.27344,-3.80859 l 0,-13.4375 c -1e-5,-1.41925 -0.4948,-2.60415 -1.48438,-3.55469 -0.97657,-0.93748 -2.1224,-1.40623 -3.4375,-1.40625 -1.5625,2e-5 -2.85156,0.57294 -3.86718,1.71875 -1.04167,1.17189 -1.56251,2.54559 -1.5625,4.12109 l 0,0.91797 4.04297,0 0,-1.03515 c -10e-6,-0.27342 0.026,-0.61848 0.0781,-1.03516 0.14322,-0.76821 0.5013,-1.15232 1.07422,-1.15234 0.48176,2e-5 0.81379,0.22137 0.99609,0.66406 0.0781,0.26043 0.11718,0.70314 0.11719,1.32812 l 0,2.40235 c -0.026,0.0651 -0.0586,0.13022 -0.0977,0.19531 -0.0391,0.0521 -0.0977,0.11069 -0.17578,0.17578 -0.0781,0.0651 -0.15625,0.12371 -0.23437,0.17578 -0.0651,0.0391 -0.16277,0.0977 -0.29297,0.17578 -0.13022,0.0651 -0.24089,0.12372 -0.33203,0.17579 -0.0781,0.0391 -0.20834,0.10418 -0.39063,0.19531 -0.16927,0.0912 -0.29948,0.16277 -0.39062,0.21484 -1.35417,0.71616 -2.40886,1.54298 -3.16406,2.48047 -1.1198,1.39324 -1.67969,3.19662 -1.67969,5.41016 m 3.96484,-0.60547 c 0,-1.09375 0.22786,-2.07682 0.6836,-2.94922 0.46874,-0.88541 1.17186,-1.52994 2.10937,-1.93359 l 0,5.60546 c -10e-6,0.37761 -0.16277,0.69662 -0.48828,0.95704 -0.32553,0.24739 -0.72266,0.37109 -1.19141,0.37109 -0.42969,0 -0.73568,-0.27994 -0.91797,-0.83984 -0.13021,-0.3776 -0.19531,-0.78125 -0.19531,-1.21094"
           inkscape:connector-curvature="0" />
        <path
           id="path3058"
           d="m 372.95807,808.39728 c 0,1.10677 0.2539,2.04427 0.76172,2.8125 0.57291,0.97656 1.35416,1.46484 2.34375,1.46484 0.41666,0 0.80728,-0.0911 1.17187,-0.27344 0.59895,-0.27343 1.27604,-0.76822 2.03125,-1.48437 l 0,1.44531 4.04297,0 0,-29.39453 -4.04297,0 0,8.94531 c -0.44271,-0.3906 -0.78776,-0.68357 -1.03515,-0.8789 -0.79428,-0.58592 -1.51694,-0.87889 -2.16797,-0.87891 -0.97657,2e-5 -1.75782,0.48179 -2.34375,1.44531 -0.50782,0.80731 -0.76172,1.75132 -0.76172,2.83203 l 0,13.96485 m 4.04297,-0.83985 0,-12.26562 c -10e-6,-0.37759 0.10416,-0.69009 0.3125,-0.9375 0.20832,-0.2604 0.46223,-0.39061 0.76172,-0.39063 0.29947,2e-5 0.57291,0.14325 0.82031,0.42969 0.24739,0.27346 0.37108,0.57294 0.37109,0.89844 l 0,12.26562 c -10e-6,0.37761 -0.1237,0.69662 -0.37109,0.95704 -0.23438,0.24739 -0.50782,0.37109 -0.82031,0.37109 -0.29949,0 -0.5534,-0.1237 -0.76172,-0.37109 -0.20834,-0.26042 -0.31251,-0.57943 -0.3125,-0.95704"
           inkscape:connector-curvature="0" />
        <path
           id="path3060"
           d="m 386.23932,806.9129 c 0.0391,1.01563 0.24739,1.97917 0.625,2.89063 0.85937,1.91406 2.38281,2.87109 4.57031,2.87109 1.3151,0 2.32421,-0.29297 3.02735,-0.8789 0.71613,-0.57292 1.24347,-1.23698 1.58203,-1.99219 0.35155,-0.75521 0.55988,-1.67318 0.625,-2.75391 l 0,-2.51953 -3.75,0 0,2.38281 c -1e-5,0.44272 -0.0586,0.82032 -0.17578,1.13282 -0.1823,0.71614 -0.60548,1.07422 -1.26954,1.07421 -0.35156,1e-5 -0.63151,-0.10416 -0.83984,-0.3125 -0.39063,-0.5078 -0.60547,-1.13931 -0.64453,-1.89453 l 0,-4.74609 6.67969,0 0,-6.36719 c -0.0391,-0.92446 -0.25392,-1.85545 -0.64453,-2.79297 -0.87241,-1.90102 -2.38934,-2.85154 -4.55079,-2.85156 -1.34115,2e-5 -2.34375,0.29299 -3.00781,0.87891 -1.36719,1.13283 -2.10938,2.76043 -2.22656,4.88281 l 0,10.99609 m 3.75,-7.91015 0,-3.08594 c 0.0391,-0.5078 0.10416,-0.87889 0.19531,-1.11328 0.23437,-0.74217 0.66406,-1.11326 1.28906,-1.11328 0.3776,2e-5 0.67057,0.10418 0.87891,0.3125 0.3776,0.46876 0.5664,1.10678 0.56641,1.91406 l 0,3.08594 -2.92969,0"
           inkscape:connector-curvature="0" />
        <path
           id="path3062"
           d="m 399.44244,812.36212 4.04297,0 0,-29.39453 -4.04297,0 0,29.39453"
           inkscape:connector-curvature="0" />
        <path
           id="path3064"
           d="m 412.60651,806.32697 c 0.0391,1.26302 0.27343,2.33073 0.70312,3.20312 0.39062,0.8724 0.95052,1.58854 1.67969,2.14844 0.82031,0.66406 1.9401,0.99609 3.35937,0.99609 1.39322,0 2.49999,-0.33203 3.32032,-0.99609 0.79426,-0.59896 1.37368,-1.3151 1.73828,-2.14844 0.42967,-0.87239 0.66405,-1.9401 0.70312,-3.20312 l 0,-4.04297 -4.02343,0 0,4.04297 c -10e-6,0.44271 -0.0586,0.80078 -0.17579,1.07421 -0.23438,0.71615 -0.72266,1.07423 -1.46484,1.07422 -0.35157,10e-6 -0.63152,-0.10416 -0.83984,-0.3125 -0.41668,-0.48176 -0.64454,-1.09374 -0.6836,-1.83593 l 0,-17.32422 c 0.0521,-0.50779 0.11718,-0.86586 0.19532,-1.07422 0.27343,-0.72914 0.71613,-1.09373 1.32812,-1.09375 0.4427,2e-5 0.77473,0.1107 0.99609,0.33203 0.42968,0.46877 0.64453,1.08075 0.64454,1.83594 l 0,4.04297 4.02343,0 0,-4.04297 c -0.0391,-1.23696 -0.27345,-2.29164 -0.70312,-3.16407 -0.37762,-0.87236 -0.95704,-1.60153 -1.73828,-2.1875 -0.89845,-0.67705 -2.00522,-1.01559 -3.32032,-1.01562 -1.34115,3e-5 -2.46094,0.33857 -3.35937,1.01562 -0.71615,0.54691 -1.27605,1.27607 -1.67969,2.1875 -0.42969,0.87243 -0.66406,1.92711 -0.70312,3.16407 l 0,17.32422"
           inkscape:connector-curvature="0" />
        <path
           id="path3066"
           d="m 426.33698,806.9129 c 0.0391,0.98959 0.2539,1.95313 0.64453,2.89063 0.85937,1.91406 2.36978,2.87109 4.53125,2.87109 1.31509,0 2.32421,-0.29297 3.02734,-0.8789 0.70311,-0.57292 1.22395,-1.23698 1.5625,-1.99219 0.33853,-0.76823 0.54035,-1.6862 0.60547,-2.75391 l 0,-11.25 c -0.0391,-0.92446 -0.25392,-1.85545 -0.64453,-2.79297 -0.87241,-1.90102 -2.38933,-2.85154 -4.55078,-2.85156 -1.34115,2e-5 -2.34376,0.29299 -3.00782,0.87891 -1.32812,1.11981 -2.05078,2.74741 -2.16796,4.88281 l 0,10.99609 m 3.80859,0 0,-10.99609 c -0.013,-0.10415 -0.0195,-0.20832 -0.0195,-0.3125 -1e-5,-0.29946 0.0456,-0.56639 0.13672,-0.80078 0.1953,-0.74217 0.61197,-1.11326 1.25,-1.11328 0.37759,2e-5 0.67056,0.10418 0.8789,0.3125 0.33854,0.4297 0.50781,0.99611 0.50782,1.69922 -1e-5,0.0781 -1e-5,0.14975 0,0.21484 l 0,10.99609 c 0.013,0.10417 0.0195,0.20834 0.0195,0.3125 -1e-5,0.31251 -0.0456,0.58594 -0.13672,0.82032 -0.1823,0.71614 -0.60548,1.07422 -1.26953,1.07421 -0.35157,1e-5 -0.63152,-0.10416 -0.83985,-0.3125 -0.35157,-0.45572 -0.52735,-1.01562 -0.52734,-1.67968 -1e-5,-0.0781 -1e-5,-0.14974 0,-0.21485"
           inkscape:connector-curvature="0" />
        <path
           id="path3068"
           d="m 439.52057,819.88165 4.04297,0 0,-8.96484 c 0.4427,0.39063 0.78775,0.68359 1.03515,0.87891 0.79427,0.58593 1.51692,0.8789 2.16797,0.8789 0.97656,0 1.77083,-0.48828 2.38282,-1.46484 0.48175,-0.79427 0.72264,-1.73177 0.72265,-2.8125 l 0,-13.96485 c -1e-5,-1.05466 -0.2409,-1.99867 -0.72265,-2.83203 -0.63804,-0.96352 -1.43231,-1.44529 -2.38282,-1.44531 -0.40365,2e-5 -0.78126,0.0977 -1.13281,0.29297 -0.65105,0.28648 -1.34115,0.77476 -2.07031,1.46484 l 0,-1.42578 -4.04297,0 0,29.39453 m 4.04297,-12.32422 0,-12.26562 c -10e-6,-0.37759 0.11718,-0.69009 0.35156,-0.9375 0.24739,-0.2604 0.52734,-0.39061 0.83984,-0.39063 0.29948,2e-5 0.55338,0.13023 0.76172,0.39063 0.22135,0.24741 0.33203,0.55991 0.33203,0.9375 l 0,12.26562 c 0,0.37761 -0.11068,0.69662 -0.33203,0.95704 -0.20834,0.24739 -0.46224,0.37109 -0.76172,0.37109 -0.29948,0 -0.57292,-0.13672 -0.82031,-0.41016 -0.2474,-0.28645 -0.3711,-0.59244 -0.37109,-0.91797"
           inkscape:connector-curvature="0" />
        <path
           id="path3070"
           d="m 451.84479,790.48712 3.71094,22.51953 c -10e-6,0.44271 -0.0521,0.83985 -0.15625,1.19141 -0.23438,0.84635 -0.67709,1.51692 -1.32813,2.01172 -0.27344,0.20833 -0.63802,0.33202 -1.09375,0.37109 -0.44271,0.0391 -0.69011,0.0326 -0.74219,-0.0195 -0.13021,0 -0.20833,-0.013 -0.23437,-0.0391 l 0,3.59375 c 0.65104,0.0521 1.08724,0.0781 1.30859,0.0781 l 0.48828,0 c 1.48437,0 2.76692,-0.65105 3.84766,-1.95312 0.96353,-1.15886 1.54947,-2.57162 1.75781,-4.23828 l 3.86719,-23.51563 -3.94531,0 -1.60157,13.4375 -0.0781,1.11328 -0.17578,0 -0.0781,-1.11328 -1.60156,-13.4375 -3.94531,0"
           inkscape:connector-curvature="0" />
        <path
           id="path3072"
           d="m 465.37994,812.36212 4.04297,0 0,-15.19531 c 0,-0.84634 0.29297,-1.51691 0.87891,-2.01172 0.46874,-0.44269 1.14582,-0.66404 2.03125,-0.66406 0.4427,2e-5 0.8203,0.0521 1.13281,0.15625 l 0,-4.49219 c -1.22397,2e-5 -2.25261,0.39065 -3.08594,1.17188 -0.28646,0.28647 -0.51433,0.57944 -0.68359,0.8789 -0.15626,0.2995 -0.2474,0.54039 -0.27344,0.72266 l 0,-2.44141 -4.04297,0 0,21.875"
           inkscape:connector-curvature="0" />
        <path
           id="path3074"
           d="m 475.22369,812.36212 4.04297,0 0,-21.875 -4.04297,0 0,21.875 m 0,-25.35156 4.04297,0 0,-4.04297 -4.04297,0 0,4.04297"
           inkscape:connector-curvature="0" />
        <path
           id="path3076"
           d="m 481.12213,815.95587 c 0,1.52343 0.59896,2.61718 1.79688,3.28125 1.02864,0.59895 2.59114,0.91796 4.6875,0.95703 1.90103,0 3.47655,-0.39714 4.72656,-1.1914 1.45832,-0.95053 2.18749,-2.41537 2.1875,-4.39453 -1e-5,-1.69271 -0.61199,-2.97526 -1.83594,-3.84766 -0.92449,-0.625 -2.17449,-1.03515 -3.75,-1.23047 -0.88542,-0.13021 -1.58204,-0.27994 -2.08984,-0.44922 -0.66407,-0.16927 -0.9961,-0.47526 -0.9961,-0.91797 0,-0.32551 0.1888,-0.65754 0.56641,-0.99609 0.0781,0.026 0.20833,0.0391 0.39063,0.0391 l 0.37109,0 c 1.24999,10e-6 2.23306,-0.27994 2.94922,-0.83984 1.3802,-1.05468 2.12889,-2.57812 2.24609,-4.57031 l 0,-6.19141 c -1e-5,-0.1953 -0.013,-0.33202 -0.0391,-0.41016 -0.026,-0.0781 -0.0391,-0.22133 -0.0391,-0.42968 -0.0261,-0.0521 -0.0651,-0.22785 -0.11719,-0.52735 0.55988,-0.31248 1.34113,-0.46873 2.34375,-0.46875 l 0,-3.61328 c -0.55991,2e-5 -1.19793,0.26695 -1.91406,0.80078 -0.4297,0.2995 -0.89845,0.70315 -1.40625,1.21094 -0.95053,-1.34113 -2.29168,-2.0117 -4.02344,-2.01172 -1.28907,2e-5 -2.26563,0.29299 -2.92969,0.87891 -1.3151,1.08075 -2.05078,2.64324 -2.20703,4.6875 l 0,5.95703 c 0.026,0.45574 0.13672,1.05469 0.33203,1.79687 0.36458,1.34116 1.02864,2.33074 1.99219,2.96875 -0.625,0.32553 -1.1849,0.79428 -1.67969,1.40625 -0.5599,0.69011 -0.83984,1.31511 -0.83984,1.875 0,1.51042 0.8138,2.48047 2.4414,2.91016 -0.92448,0.42969 -1.64713,0.88541 -2.16796,1.36719 -0.66407,0.62499 -0.9961,1.27604 -0.9961,1.95312 m 3.92578,-0.66406 c 0,-0.71615 0.49479,-1.36068 1.48438,-1.93359 l 2.07031,0.41015 c 0.91145,0.14323 1.52343,0.35156 1.83594,0.625 0.22134,0.22135 0.33202,0.53385 0.33203,0.9375 -10e-6,0.46875 -0.34506,0.83984 -1.03516,1.11328 -0.59896,0.23437 -1.28256,0.35156 -2.05078,0.35157 -0.88542,-10e-6 -1.54948,-0.13673 -1.99219,-0.41016 -0.42969,-0.27344 -0.64453,-0.63803 -0.64453,-1.09375 m 0.95703,-13.41797 0,-5.99609 c -0.013,-0.10415 -0.0195,-0.20832 -0.0195,-0.3125 0,-0.23436 0.0326,-0.46223 0.0977,-0.6836 0.15624,-0.66404 0.52083,-0.99607 1.09375,-0.99609 0.32551,2e-5 0.57291,0.10418 0.74219,0.3125 0.32551,0.46877 0.48827,1.02866 0.48828,1.67969 l 0,5.99609 c -1e-5,0.40366 -0.0391,0.7422 -0.11719,1.01563 -0.20834,0.63803 -0.57943,0.95704 -1.11328,0.95703 -0.29949,10e-6 -0.54037,-0.11067 -0.72266,-0.33203 -0.29948,-0.33854 -0.44922,-0.8138 -0.44922,-1.42579 0,-0.0651 0,-0.1367 0,-0.21484"
           inkscape:connector-curvature="0" />
        <path
           id="path3078"
           d="m 496.16119,812.36212 4.04297,0 0,-17.24609 c 0.0781,-0.13019 0.19531,-0.29946 0.35157,-0.50781 0.35155,-0.35155 0.67056,-0.52733 0.95703,-0.52735 0.65103,2e-5 0.97655,0.31903 0.97656,0.95703 l 0,17.32422 4.02344,0 0,-17.92969 c -2e-5,-1.05466 -0.2409,-1.99867 -0.72266,-2.83203 -0.58595,-0.96352 -1.35418,-1.44529 -2.30469,-1.44531 -0.35157,2e-5 -0.70313,0.0977 -1.05468,0.29297 -0.48178,0.26044 -1.06772,0.7357 -1.75782,1.42578 -0.28646,0.28648 -0.44271,0.43622 -0.46875,0.44922 l 0,-9.35547 -4.04297,0 0,29.39453"
           inkscape:connector-curvature="0" />
        <path
           id="path3080"
           d="m 508.46588,794.11993 2.05078,0 0,11.21094 c 0,2.00521 0.20182,3.54818 0.60547,4.62891 0.67708,1.80989 2.01823,2.71484 4.02344,2.71484 0.65103,0 1.17187,-0.0391 1.5625,-0.11719 0.0651,-0.013 0.16275,-0.0391 0.29297,-0.0781 0.14322,-0.0391 0.24738,-0.0651 0.3125,-0.0781 l 0,-3.96484 c -0.0521,0.013 -0.13022,0.0261 -0.23438,0.0391 -0.10417,0.013 -0.1823,0.026 -0.23437,0.0391 -0.36459,0.0521 -0.70314,0.0781 -1.01563,0.0781 -0.5599,0 -0.93099,-0.43619 -1.11328,-1.30859 -0.10417,-0.48177 -0.15626,-1.24349 -0.15625,-2.28516 l 0,-10.87891 2.75391,0 0,-3.63281 -2.75391,0 0,-5.41015 -4.04297,0 0,5.41015 -2.05078,0 0,3.63281"
           inkscape:connector-curvature="0" />
      </g>
      <g
         id="text3029"
         style="font-size:25.41747856px;font-style:normal;font-variant:normal;font-weight:normal;font-stretch:normal;line-height:125%;letter-spacing:0px;word-spacing:0px;fill:#000000;fill-opacity:1;stroke:none;font-family:League Gothic;-inkscape-font-specification:League Gothic"
         transform="matrix(0.74895077,0,0,0.74895077,69.920882,196.21142)">
        <path
           id="path3083"
           d="m 279.52056,773.07458 2.7428,0 0,-7.8809 0.73225,0 1.42725,7.8809 2.7428,0 -1.74993,-9.04753 c 0.5047,-0.33922 0.8853,-0.88529 1.1418,-1.63823 0.25648,-0.76119 0.38473,-1.62995 0.38474,-2.60629 -1e-5,-1.79542 -0.37648,-3.13993 -1.12939,-4.03353 -0.75294,-0.90184 -1.93611,-1.35277 -3.54952,-1.35279 l -2.7428,0 0,18.67837 m 2.7428,-10.42513 0,-5.53525 c 0.57917,10e-6 1.01356,0.12826 1.30315,0.38473 0.48815,0.43026 0.73223,1.22456 0.73224,2.38289 -10e-6,1.15009 -0.24409,1.94025 -0.73224,2.37048 -0.29787,0.26478 -0.73225,0.39716 -1.30315,0.39715"
           inkscape:connector-curvature="0" />
        <path
           id="path3085"
           d="m 288.70461,773.07458 2.56905,0 0,-13.90018 -2.56905,0 0,13.90018 m 0,-16.10931 2.56905,0 0,-2.56906 -2.56905,0 0,2.56906"
           inkscape:connector-curvature="0" />
        <path
           id="path3087"
           d="m 293.12288,769.16516 c 0,1.48103 0.31027,2.55664 0.93082,3.22683 0.5378,0.58744 1.31969,0.88117 2.34565,0.88117 1.12525,0 1.94437,-0.27718 2.45736,-0.83153 0.56262,-0.61227 0.84393,-1.66306 0.84394,-3.15236 l 0,-1.35279 -2.56905,0 0,1.9361 c -10e-6,0.43024 -0.0496,0.72397 -0.14893,0.88117 -0.0993,0.15721 -0.29373,0.23581 -0.58332,0.23581 -0.21512,0 -0.3806,-0.062 -0.49643,-0.18617 -0.10757,-0.13238 -0.17376,-0.26476 -0.19858,-0.39714 -0.0165,-0.14066 -0.0248,-0.31855 -0.0248,-0.53367 l 0,-7.49617 c 0,-0.21511 0.008,-0.38887 0.0248,-0.52126 0.0248,-0.14064 0.091,-0.27303 0.19858,-0.39715 0.11583,-0.13237 0.28131,-0.19856 0.49643,-0.19857 0.28959,1e-5 0.48402,0.0786 0.58332,0.23581 0.0993,0.15721 0.14892,0.45094 0.14893,0.88117 l 0,1.67547 2.56905,0 0,-1.09216 c -10e-6,-1.48929 -0.28132,-2.54008 -0.84394,-3.15236 -0.51299,-0.56262 -1.33211,-0.84393 -2.45736,-0.84394 -1.01769,10e-6 -1.79958,0.29787 -2.34565,0.89358 -0.62055,0.6702 -0.93082,1.74581 -0.93082,3.22683 l 0,6.08133"
           inkscape:connector-curvature="0" />
        <path
           id="path3089"
           d="m 301.31406,773.07458 2.56906,0 0,-4.803 0.32268,-0.81912 0.0869,-0.19858 0.12411,0 0.0496,0.19858 1.26591,5.62212 2.46976,0 -2.33324,-9.38262 1.84922,-4.51756 -2.30843,0 -1.2535,3.63639 -0.14893,0.44679 -0.1241,0 0,-8.86137 -2.56906,0 0,18.67837"
           inkscape:connector-curvature="0" />
        <path
           id="path3091"
           d="m 313.17886,773.07458 2.74281,0 0,-8.12912 2.54423,0 0,-2.82968 -2.54423,0 0,-4.9023 3.78531,0 0,-2.81727 -6.52812,0 0,18.67837"
           inkscape:connector-curvature="0" />
        <path
           id="path3093"
           d="m 320.4144,769.84776 c 0,1.27418 0.26477,2.205 0.7943,2.79244 0.33923,0.42197 0.7612,0.63296 1.26591,0.63296 0.49643,0 0.94736,-0.16134 1.35279,-0.48403 0.28958,-0.23166 0.52538,-0.50884 0.70742,-0.83152 l 0.17375,0 c -1e-5,0.54608 0.0786,0.9184 0.2358,1.11697 l 2.507,0 c -0.11584,-0.71155 -0.17376,-1.51826 -0.17375,-2.42012 l 0,-8.53868 c -1e-5,-0.90185 -0.31442,-1.65477 -0.94323,-2.25878 -0.62055,-0.59571 -1.34865,-0.89357 -2.18431,-0.89358 -0.99288,10e-6 -1.81199,0.36406 -2.45736,1.09215 -0.66191,0.74467 -0.99287,1.61757 -0.99287,2.6187 l 0,0.58331 2.56906,0 0,-0.65778 c -1e-5,-0.17374 0.0165,-0.393 0.0496,-0.65777 0.091,-0.48815 0.31854,-0.73223 0.6826,-0.73224 0.30613,10e-6 0.51711,0.14066 0.63295,0.42197 0.0496,0.16548 0.0745,0.4468 0.0745,0.84393 l 0,1.52654 c -0.0166,0.0414 -0.0372,0.0827 -0.0621,0.12411 -0.0248,0.0331 -0.0621,0.0703 -0.11169,0.1117 -0.0497,0.0414 -0.0993,0.0786 -0.14894,0.1117 -0.0414,0.0248 -0.10342,0.0621 -0.18616,0.1117 -0.0827,0.0414 -0.15307,0.0786 -0.21098,0.11169 -0.0496,0.0248 -0.13239,0.0662 -0.24822,0.12411 -0.10757,0.0579 -0.1903,0.10343 -0.24822,0.13652 -0.86049,0.45508 -1.53068,0.98047 -2.01056,1.57618 -0.71156,0.88532 -1.06734,2.03126 -1.06734,3.43782 m 2.51941,-0.38474 c 0,-0.69501 0.14479,-1.31969 0.43438,-1.87404 0.29786,-0.56262 0.74465,-0.97218 1.34038,-1.22868 l 0,3.56192 c -1e-5,0.23995 -0.10343,0.44266 -0.31027,0.60813 -0.20686,0.15721 -0.45921,0.23581 -0.75707,0.23581 -0.27304,0 -0.46748,-0.17789 -0.58331,-0.53367 -0.0827,-0.23994 -0.12411,-0.49643 -0.12411,-0.76947"
           inkscape:connector-curvature="0" />
        <path
           id="path3095"
           d="m 329.01514,773.07458 2.56906,0 0,-18.67837 -2.56906,0 0,18.67837"
           inkscape:connector-curvature="0" />
        <path
           id="path3097"
           d="m 333.63199,773.07458 2.56905,0 0,-4.803 0.32268,-0.81912 0.0869,-0.19858 0.12411,0 0.0496,0.19858 1.26591,5.62212 2.46977,0 -2.33325,-9.38262 1.84922,-4.51756 -2.30842,0 -1.2535,3.63639 -0.14893,0.44679 -0.12411,0 0,-8.86137 -2.56905,0 0,18.67837"
           inkscape:connector-curvature="0" />
        <path
           id="path3099"
           d="m 340.75583,759.1744 2.27119,13.90018 2.53182,0 2.27119,-13.90018 -2.49458,0 -0.84394,8.05466 -0.0993,0.89358 -0.19857,0 -0.0993,-0.89358 -0.84394,-8.05466 -2.49459,0"
           inkscape:connector-curvature="0" />
        <path
           id="path3101"
           d="m 349.07112,773.07458 2.56905,0 0,-13.90018 -2.56905,0 0,13.90018 m 0,-16.10931 2.56905,0 0,-2.56906 -2.56905,0 0,2.56906"
           inkscape:connector-curvature="0" />
        <path
           id="path3103"
           d="m 353.68796,773.07458 2.56906,0 0,-10.9588 c 0.0496,-0.0827 0.1241,-0.19029 0.22339,-0.32268 0.22339,-0.22339 0.42611,-0.33509 0.60814,-0.3351 0.41369,10e-6 0.62053,0.20273 0.62054,0.60814 l 0,11.00844 2.55664,0 0,-11.39318 c -1e-5,-0.67018 -0.15307,-1.27004 -0.4592,-1.79958 -0.37234,-0.61225 -0.8605,-0.91839 -1.46449,-0.9184 -0.2234,10e-6 -0.44679,0.0621 -0.67018,0.18616 -0.30614,0.16549 -0.67847,0.46749 -1.11698,0.90599 -0.18203,0.18204 -0.28132,0.27719 -0.29786,0.28545 l 0,-1.16662 -2.56906,0 0,13.90018"
           inkscape:connector-curvature="0" />
        <path
           id="path3105"
           d="m 361.40754,775.35819 c 0,0.96804 0.3806,1.66305 1.1418,2.08502 0.65363,0.3806 1.6465,0.58331 2.97861,0.60814 1.20798,-10e-6 2.20913,-0.25236 3.00343,-0.75707 0.92667,-0.604 1.39001,-1.53481 1.39002,-2.79244 -1e-5,-1.07561 -0.38888,-1.89059 -1.16662,-2.44495 -0.58746,-0.39714 -1.38175,-0.65777 -2.38289,-0.78188 -0.56263,-0.0827 -1.00529,-0.17789 -1.32797,-0.28545 -0.42197,-0.10756 -0.63295,-0.302 -0.63295,-0.58331 0,-0.20685 0.11997,-0.41783 0.35991,-0.63296 0.0496,0.0166 0.13238,0.0248 0.24822,0.0248 l 0.23581,0 c 0.79429,10e-6 1.41897,-0.17788 1.87404,-0.53366 0.87703,-0.67019 1.35278,-1.63824 1.42725,-2.90415 l 0,-3.93425 c 0,-0.1241 -0.008,-0.21097 -0.0248,-0.26063 -0.0165,-0.0496 -0.0248,-0.14064 -0.0248,-0.27304 -0.0166,-0.0331 -0.0414,-0.14478 -0.0745,-0.33509 0.35577,-0.19856 0.85221,-0.29785 1.48931,-0.29786 l 0,-2.29601 c -0.35579,10e-6 -0.76121,0.16963 -1.21627,0.50884 -0.27304,0.19032 -0.5709,0.44681 -0.89358,0.76948 -0.604,-0.8522 -1.45622,-1.27831 -2.55664,-1.27832 -0.81912,10e-6 -1.43967,0.18617 -1.86163,0.55849 -0.83567,0.68674 -1.30315,1.67961 -1.40243,2.97861 l 0,3.78531 c 0.0165,0.2896 0.0869,0.6702 0.21098,1.14181 0.23167,0.85221 0.65364,1.48103 1.26591,1.88645 -0.39715,0.20685 -0.75293,0.50471 -1.06733,0.89358 -0.35578,0.43852 -0.53367,0.83567 -0.53367,1.19145 0,0.95977 0.51712,1.57618 1.55136,1.84922 -0.58745,0.27304 -1.04665,0.56262 -1.37761,0.86876 -0.42197,0.39715 -0.63295,0.81084 -0.63295,1.24109 m 2.49458,-0.42197 c 0,-0.45507 0.31441,-0.86463 0.94323,-1.22868 l 1.31555,0.26063 c 0.57917,0.091 0.96805,0.22339 1.16663,0.39715 0.14065,0.14065 0.21097,0.33923 0.21098,0.59572 -1e-5,0.29786 -0.21926,0.53366 -0.65778,0.70742 -0.3806,0.14893 -0.81498,0.22339 -1.30314,0.22339 -0.56263,0 -0.9846,-0.0869 -1.26591,-0.26062 -0.27304,-0.17376 -0.40956,-0.40543 -0.40956,-0.69501 m 0.60814,-8.52628 0,-3.81014 c -0.008,-0.0662 -0.0124,-0.13237 -0.0124,-0.19857 -10e-6,-0.14892 0.0207,-0.29371 0.062,-0.43438 0.0993,-0.42196 0.33095,-0.63294 0.69501,-0.63296 0.20684,2e-5 0.36405,0.0662 0.47161,0.19858 0.20685,0.29787 0.31027,0.65365 0.31027,1.06733 l 0,3.81014 c 0,0.2565 -0.0248,0.47162 -0.0745,0.64537 -0.13239,0.40543 -0.36819,0.60814 -0.70742,0.60813 -0.19031,10e-6 -0.34337,-0.0703 -0.4592,-0.21098 -0.19031,-0.21512 -0.28546,-0.51712 -0.28545,-0.906 -1e-5,-0.0414 -1e-5,-0.0869 0,-0.13652"
           inkscape:connector-curvature="0" />
        <path
           id="path3107"
           d="m 370.76534,769.61195 c 0.0248,0.64537 0.1572,1.25764 0.39715,1.83681 0.54607,1.21627 1.51412,1.8244 2.90414,1.8244 0.83566,0 1.47689,-0.18616 1.92369,-0.55849 0.45506,-0.36405 0.79015,-0.78602 1.00528,-1.26591 0.22339,-0.47989 0.35577,-1.0632 0.39715,-1.74993 l 0,-1.60101 -2.38289,0 0,1.51413 c -1e-5,0.28132 -0.0372,0.52126 -0.1117,0.71983 -0.11584,0.45507 -0.38474,0.6826 -0.80671,0.6826 -0.2234,0 -0.40129,-0.0662 -0.53366,-0.19857 -0.24822,-0.32269 -0.38474,-0.72397 -0.40956,-1.20386 l 0,-3.01584 4.24452,0 0,-4.04595 c -0.0248,-0.58744 -0.16135,-1.17902 -0.40956,-1.77476 -0.55436,-1.20797 -1.51827,-1.81197 -2.89174,-1.81198 -0.85221,10e-6 -1.4893,0.18617 -1.91127,0.55849 -0.86876,0.71984 -1.34038,1.75408 -1.41484,3.10272 l 0,6.98732 m 2.38289,-5.02641 0,-1.96091 c 0.0248,-0.32268 0.0662,-0.55848 0.12411,-0.70742 0.14892,-0.47161 0.42196,-0.70741 0.81911,-0.70742 0.23994,10e-6 0.42611,0.0662 0.55849,0.19857 0.23994,0.29787 0.35991,0.70329 0.35992,1.21627 l 0,1.96091 -1.86163,0"
           inkscape:connector-curvature="0" />
      </g>
    </g>
    <g
       id="g3234"
       transform="matrix(1.4188819,0,0,1.4188819,86.174224,-431.10105)" />
  </g>
</svg>
