<?xml version="1.0" encoding="UTF-8" standalone="no"?>
<!-- Created with Inkscape (http://www.inkscape.org/) -->

<svg
   xmlns:dc="http://purl.org/dc/elements/1.1/"
   xmlns:cc="http://creativecommons.org/ns#"
   xmlns:rdf="http://www.w3.org/1999/02/22-rdf-syntax-ns#"
   xmlns:svg="http://www.w3.org/2000/svg"
   xmlns="http://www.w3.org/2000/svg"
   xmlns:sodipodi="http://sodipodi.sourceforge.net/DTD/sodipodi-0.dtd"
   xmlns:inkscape="http://www.inkscape.org/namespaces/inkscape"
   width="372.04724"
   height="262.20471"
   id="svg2"
   version="1.1"
   inkscape:version="0.48.4 r9939"
   sodipodi:docname="slider_zona_temporalmente_autonoma.svg">
  <defs
     id="defs4" />
  <sodipodi:namedview
     id="base"
     pagecolor="#ffffff"
     bordercolor="#666666"
     borderopacity="1.0"
     inkscape:pageopacity="0.0"
     inkscape:pageshadow="2"
     inkscape:zoom="0.9899495"
     inkscape:cx="146.25414"
     inkscape:cy="226.14533"
     inkscape:document-units="mm"
     inkscape:current-layer="layer1"
     showgrid="false"
     showguides="true"
     inkscape:guide-bbox="true"
     units="mm"
     inkscape:window-width="1024"
     inkscape:window-height="714"
     inkscape:window-x="0"
     inkscape:window-y="30"
     inkscape:window-maximized="1">
    <sodipodi:guide
       orientation="1,0"
       position="372.04724,0"
       id="guide3168" />
  </sodipodi:namedview>
  <metadata
     id="metadata7">
    <rdf:RDF>
      <cc:Work
         rdf:about="">
        <dc:format>image/svg+xml</dc:format>
        <dc:type
           rdf:resource="http://purl.org/dc/dcmitype/StillImage" />
        <dc:title />
      </cc:Work>
    </rdf:RDF>
  </metadata>
  <g
     inkscape:label="Capa 1"
     inkscape:groupmode="layer"
     id="layer1"
     transform="translate(0,-790.15737)">
    <rect
       y="790.15741"
       x="-7.0438722e-07"
       height="262.20471"
       width="372.04724"
       id="rect3033"
       style="fill:#216778;fill-opacity:1" />
    <g
       id="g3847"
       transform="matrix(0.10929874,0,0,0.10976979,379.02465,946.01697)"
       inkscape:export-filename="/srv/http/kiwwwi.com.ar/pastes/utopia-pirata-2.png"
       inkscape:export-xdpi="149"
       inkscape:export-ydpi="149" />
    <g
       id="g3405"
       transform="translate(-2.9508122e-7,178.9987)">
      <rect
         y="629.1864"
         x="2.9508121e-07"
         height="173.31084"
         width="372.04724"
         id="rect3035"
         style="fill:#ffffff" />
      <g
         transform="translate(-355.09549,40)"
         id="text3286"
         style="font-size:41.04612732px;font-style:normal;font-weight:normal;line-height:125%;letter-spacing:0px;word-spacing:0px;fill:#000000;fill-opacity:1;stroke:none;font-family:Sans">
        <path
           inkscape:connector-curvature="0"
           id="path3352"
           style="font-variant:normal;font-stretch:normal;font-family:League Gothic;-inkscape-font-specification:League Gothic"
           d="m 412.79858,665.55341 6.9368,-21.01562 -5.95169,0 0,-4.39194 10.75409,0 0,4.39194 -7.05994,21.38503 7.05994,0 0,4.39194 -11.7392,0 0,-4.76135" />
        <path
           inkscape:connector-curvature="0"
           id="path3354"
           style="font-variant:normal;font-stretch:normal;font-family:League Gothic;-inkscape-font-specification:League Gothic"
           d="m 436.87791,664.85562 c -0.12314,2.17545 -0.77988,3.69416 -2.21649,4.88449 -0.73883,0.61569 -1.76499,0.90302 -3.11951,0.90302 -2.66799,0 -3.98147,-1.47766 -4.63821,-2.95532 -0.36941,-0.86197 -0.61569,-1.84708 -0.65674,-2.95533 l 0,-11.28768 c 0.12314,-2.17544 0.77988,-3.77624 2.21649,-5.00763 0.69779,-0.61569 1.72394,-0.90301 3.07846,-0.90301 2.668,0 4.02252,1.47766 4.67926,2.91427 0.36942,0.86197 0.61569,1.80603 0.65674,2.87323 l 0,11.53396 m -3.89938,-11.41082 c 0.041,-0.86197 -0.12314,-1.47766 -0.5336,-1.97021 -0.20523,-0.20523 -0.5336,-0.32837 -0.90302,-0.32837 -0.77987,0 -1.10824,0.5336 -1.27243,1.14929 -0.12313,0.32837 -0.16418,0.69778 -0.12313,1.14929 l 0,11.28768 c -0.041,0.86197 0.16418,1.47767 0.53359,1.92917 0.20524,0.20523 0.49256,0.32837 0.86197,0.32837 0.77988,0 1.1493,-0.49255 1.31348,-1.10824 0.12314,-0.32837 0.16418,-0.69779 0.12314,-1.1493 l 0,-11.28768" />
        <path
           inkscape:connector-curvature="0"
           id="path3356"
           style="font-variant:normal;font-stretch:normal;font-family:League Gothic;-inkscape-font-specification:League Gothic"
           d="m 443.82946,670.31476 -4.14566,0 0,-22.45223 4.14566,0 0,1.88812 c 0.0821,-0.041 0.24627,-0.20523 0.49255,-0.45151 0.45151,-0.45151 1.0672,-1.0672 1.80603,-1.47766 0.36941,-0.20523 0.69778,-0.28732 1.0672,-0.28732 1.10824,0 1.88812,0.65674 2.38067,1.47766 0.49256,0.86197 0.73883,1.97021 0.73883,2.91427 l 0,18.38867 -4.14565,0 0,-17.77297 c 0,-0.86197 -0.49256,-0.98511 -0.98511,-0.98511 -0.45151,0 -0.69779,0.24628 -0.98511,0.5336 -0.12314,0.16418 -0.24628,0.32837 -0.36941,0.5336 l 0,17.69088" />
        <path
           inkscape:connector-curvature="0"
           id="path3358"
           style="font-variant:normal;font-stretch:normal;font-family:League Gothic;-inkscape-font-specification:League Gothic"
           d="m 459.59245,653.19852 c 0,-0.36941 0,-0.94406 -0.12314,-1.35452 -0.16418,-0.41046 -0.49255,-0.69778 -1.02615,-0.69778 -0.69778,0 -0.98511,0.5336 -1.10825,1.19033 -0.041,0.32837 -0.0821,0.69779 -0.0821,1.0672 0,0.36942 0,0.73883 0,1.0672 l -4.14566,0 0,-0.94406 c 0,-1.64184 0.61569,-3.1195 1.6008,-4.22775 0.98511,-1.10824 2.38068,-1.76498 3.98148,-1.76498 1.35452,0 2.5859,0.5336 3.52996,1.43661 0.94406,0.90302 1.51871,2.17545 1.51871,3.65311 l 0,13.7915 c 0,2.01125 0.12314,2.91427 0.28732,3.89938 l -4.06356,0 c -0.36942,-0.45151 -0.36942,-1.51871 -0.36942,-1.80603 l -0.28732,0 c -0.20523,0.36941 -0.57465,0.90301 -1.14929,1.35452 -0.57465,0.45151 -1.35453,0.77988 -2.17545,0.77988 -0.5336,0 -1.39557,-0.20523 -2.05231,-1.02616 -0.69778,-0.77987 -1.27243,-2.17544 -1.27243,-4.51507 0,-2.50381 0.73884,-4.30984 1.72394,-5.54123 0.98511,-1.23138 2.21649,-2.01126 3.24265,-2.54486 1.02615,-0.5336 1.80603,-0.90301 1.97021,-1.35452 l 0,-2.46277 m 0,6.28006 c -2.01126,0.86197 -2.87323,2.87323 -2.87323,5.00763 0,0.28732 0.041,0.77988 0.20523,1.23138 0.16419,0.49256 0.45151,0.86197 0.94406,0.86197 0.94406,0 1.72394,-0.57465 1.72394,-1.35452 l 0,-5.74646" />
        <path
           inkscape:connector-curvature="0"
           id="path3360"
           style="font-variant:normal;font-stretch:normal;font-family:League Gothic;-inkscape-font-specification:League Gothic"
           d="m 471.31369,644.70197 0,-4.55612 12.80639,0 0,4.55612 -4.18671,0 0,25.61279 -4.43298,0 0,-25.61279 -4.1867,0" />
        <path
           inkscape:connector-curvature="0"
           id="path3362"
           style="font-variant:normal;font-stretch:normal;font-family:League Gothic;-inkscape-font-specification:League Gothic"
           d="m 495.123,662.26972 0,2.5859 c -0.12313,2.17545 -0.77987,3.69416 -2.25753,4.88449 -0.73883,0.61569 -1.76499,0.90302 -3.11951,0.90302 -2.66799,0 -4.02252,-1.47766 -4.67926,-2.95532 -0.36941,-0.86197 -0.61569,-1.84708 -0.65673,-2.95533 l 0,-11.28768 c 0.12313,-2.17544 0.82092,-3.77624 2.29858,-5.00763 0.69778,-0.61569 1.72394,-0.90301 3.07846,-0.90301 2.66799,0 4.02252,1.47766 4.67926,2.91427 0.36941,0.86197 0.61569,1.80603 0.65673,2.87323 l 0,6.52634 -6.8547,0 0,4.88448 c 0.041,0.86197 0.28732,1.47767 0.65674,1.92917 0.20523,0.20523 0.49255,0.32837 0.86197,0.32837 0.77987,0 1.14929,-0.49255 1.31347,-1.10824 0.12314,-0.32837 0.16419,-0.69779 0.16419,-1.1493 l 0,-2.46276 3.85833,0 m -6.8547,-5.66437 2.99637,0 0,-3.16055 c 0,-0.86197 -0.16419,-1.47766 -0.57465,-1.97021 -0.20523,-0.20523 -0.5336,-0.32837 -0.90301,-0.32837 -0.77988,0 -1.10825,0.5336 -1.31348,1.14929 -0.12314,0.32837 -0.16418,0.69778 -0.20523,1.14929 l 0,3.16055" />
        <path
           inkscape:connector-curvature="0"
           id="path3364"
           style="font-variant:normal;font-stretch:normal;font-family:League Gothic;-inkscape-font-specification:League Gothic"
           d="m 508.59896,670.31476 -3.89938,0 0,-17.77297 c 0,-0.86197 -0.65674,-0.98511 -1.10824,-0.98511 -0.45151,0 -0.82093,0.24628 -1.10825,0.5336 -0.16418,0.16418 -0.32837,0.32837 -0.45151,0.5336 l 0,17.69088 -4.14566,0 0,-22.45223 4.14566,0 0,1.88812 c 0.0821,-0.041 0.24628,-0.20523 0.49256,-0.45151 0.4515,-0.45151 1.14929,-1.0672 1.88812,-1.47766 0.36941,-0.20523 0.69778,-0.28732 1.0672,-0.28732 1.47766,0 2.33963,1.19034 2.79113,2.50381 0.16419,-0.12314 0.36942,-0.32837 0.65674,-0.61569 0.5336,-0.57465 1.23139,-1.10825 2.01126,-1.55975 0.36942,-0.20523 0.73883,-0.32837 1.10825,-0.32837 1.10824,0 1.88812,0.65674 2.38067,1.47766 0.49256,0.86197 0.73883,1.97021 0.73883,2.91427 l 0,18.38867 -3.89938,0 0,-17.77297 c 0,-0.86197 -0.65674,-0.98511 -1.10824,-0.98511 -0.45151,0 -0.82093,0.24628 -1.10825,0.5336 -0.16418,0.16418 -0.32837,0.32837 -0.45151,0.5336 l 0,17.69088" />
        <path
           inkscape:connector-curvature="0"
           id="path3366"
           style="font-variant:normal;font-stretch:normal;font-family:League Gothic;-inkscape-font-specification:League Gothic"
           d="m 518.32882,647.86253 4.14566,0 0,1.47766 c 0.69778,-0.65674 1.31347,-1.14929 2.1344,-1.51871 0.36941,-0.20523 0.77987,-0.28732 1.14929,-0.28732 1.14929,0 1.92917,0.65674 2.46277,1.47766 0.49255,0.86197 0.73883,1.97021 0.73883,2.91427 l 0,14.3251 c 0,0.94406 -0.24628,2.05231 -0.73883,2.87323 -0.5336,0.86197 -1.31348,1.51871 -2.46277,1.51871 -0.77988,0 -1.6008,-0.45151 -2.21649,-0.90302 -0.36942,-0.28732 -0.69779,-0.57464 -1.0672,-0.90301 l 0,9.19433 -4.14566,0 0,-30.1689 m 4.14566,17.52669 c 0,0.65674 0.61569,1.35453 1.23138,1.35453 0.61569,0 1.10825,-0.57465 1.10825,-1.35453 l 0,-12.60116 c 0,-0.77987 -0.49256,-1.35452 -1.10825,-1.35452 -0.61569,0 -1.23138,0.57465 -1.23138,1.35452 l 0,12.60116" />
        <path
           inkscape:connector-curvature="0"
           id="path3368"
           style="font-variant:normal;font-stretch:normal;font-family:League Gothic;-inkscape-font-specification:League Gothic"
           d="m 542.37928,664.85562 c -0.12313,2.17545 -0.77987,3.69416 -2.21649,4.88449 -0.73883,0.61569 -1.76498,0.90302 -3.1195,0.90302 -2.668,0 -3.98148,-1.47766 -4.63822,-2.95532 -0.36941,-0.86197 -0.61569,-1.84708 -0.65673,-2.95533 l 0,-11.28768 c 0.12313,-2.17544 0.77987,-3.77624 2.21649,-5.00763 0.69778,-0.61569 1.72394,-0.90301 3.07846,-0.90301 2.66799,0 4.02252,1.47766 4.67926,2.91427 0.36941,0.86197 0.61569,1.80603 0.65673,2.87323 l 0,11.53396 M 538.4799,653.4448 c 0.041,-0.86197 -0.12314,-1.47766 -0.5336,-1.97021 -0.20523,-0.20523 -0.5336,-0.32837 -0.90301,-0.32837 -0.77988,0 -1.10825,0.5336 -1.27243,1.14929 -0.12314,0.32837 -0.16419,0.69778 -0.12314,1.14929 l 0,11.28768 c -0.0411,0.86197 0.16418,1.47767 0.5336,1.92917 0.20523,0.20523 0.49255,0.32837 0.86197,0.32837 0.77987,0 1.14929,-0.49255 1.31347,-1.10824 0.12314,-0.32837 0.16419,-0.69779 0.12314,-1.1493 l 0,-11.28768" />
        <path
           inkscape:connector-curvature="0"
           id="path3370"
           style="font-variant:normal;font-stretch:normal;font-family:League Gothic;-inkscape-font-specification:League Gothic"
           d="m 553.47648,652.13132 c -0.36941,-0.12313 -0.77987,-0.16418 -1.14929,-0.16418 -0.65674,0 -1.43661,0.0821 -2.09335,0.69778 -0.77988,0.65674 -0.90302,1.35453 -0.90302,2.05231 l 0,15.59753 -4.14566,0 0,-22.45223 4.14566,0 0,2.50381 c 0.041,-0.28732 0.32837,-0.98511 0.98511,-1.64184 0.65674,-0.6157 1.64185,-1.19034 3.16055,-1.19034 l 0,4.59716" />
        <path
           inkscape:connector-curvature="0"
           id="path3372"
           style="font-variant:normal;font-stretch:normal;font-family:League Gothic;-inkscape-font-specification:League Gothic"
           d="m 561.24576,653.19852 c 0,-0.36941 -10e-6,-0.94406 -0.12314,-1.35452 -0.16419,-0.41046 -0.49256,-0.69778 -1.02616,-0.69778 -0.69778,0 -0.9851,0.5336 -1.10824,1.19033 -0.041,0.32837 -0.0821,0.69779 -0.0821,1.0672 0,0.36942 0,0.73883 0,1.0672 l -4.14566,0 0,-0.94406 c 0,-1.64184 0.61569,-3.1195 1.6008,-4.22775 0.9851,-1.10824 2.38067,-1.76498 3.98147,-1.76498 1.35452,0 2.58591,0.5336 3.52997,1.43661 0.94406,0.90302 1.5187,2.17545 1.5187,3.65311 l 0,13.7915 c 0,2.01125 0.12314,2.91427 0.28733,3.89938 l -4.06357,0 c -0.36941,-0.45151 -0.36941,-1.51871 -0.36941,-1.80603 l -0.28733,0 c -0.20523,0.36941 -0.57464,0.90301 -1.14929,1.35452 -0.57464,0.45151 -1.35452,0.77988 -2.17544,0.77988 -0.5336,0 -1.39557,-0.20523 -2.05231,-1.02616 -0.69778,-0.77987 -1.27243,-2.17544 -1.27243,-4.51507 0,-2.50381 0.73883,-4.30984 1.72394,-5.54123 0.9851,-1.23138 2.21649,-2.01126 3.24264,-2.54486 1.02615,-0.5336 1.80603,-0.90301 1.97022,-1.35452 l 0,-2.46277 m 0,6.28006 c -2.01126,0.86197 -2.87323,2.87323 -2.87323,5.00763 0,0.28732 0.041,0.77988 0.20523,1.23138 0.16418,0.49256 0.4515,0.86197 0.94406,0.86197 0.94406,0 1.72394,-0.57465 1.72394,-1.35452 l 0,-5.74646" />
        <path
           inkscape:connector-curvature="0"
           id="path3374"
           style="font-variant:normal;font-stretch:normal;font-family:League Gothic;-inkscape-font-specification:League Gothic"
           d="m 568.03311,670.31476 0,-30.16891 4.14566,0 0,30.16891 -4.14566,0" />
        <path
           inkscape:connector-curvature="0"
           id="path3376"
           style="font-variant:normal;font-stretch:normal;font-family:League Gothic;-inkscape-font-specification:League Gothic"
           d="m 586.20179,670.31476 -3.89938,0 0,-17.77297 c 0,-0.86197 -0.65674,-0.98511 -1.10824,-0.98511 -0.45151,0 -0.82093,0.24628 -1.10825,0.5336 -0.16418,0.16418 -0.32837,0.32837 -0.45151,0.5336 l 0,17.69088 -4.14566,0 0,-22.45223 4.14566,0 0,1.88812 c 0.0821,-0.041 0.24628,-0.20523 0.49256,-0.45151 0.4515,-0.45151 1.14929,-1.0672 1.88812,-1.47766 0.36941,-0.20523 0.69778,-0.28732 1.0672,-0.28732 1.47766,0 2.33963,1.19034 2.79113,2.50381 0.16419,-0.12314 0.36942,-0.32837 0.65674,-0.61569 0.5336,-0.57465 1.23139,-1.10825 2.01126,-1.55975 0.36942,-0.20523 0.73883,-0.32837 1.10825,-0.32837 1.10824,0 1.88812,0.65674 2.38067,1.47766 0.49256,0.86197 0.73883,1.97021 0.73883,2.91427 l 0,18.38867 -3.89938,0 0,-17.77297 c 0,-0.86197 -0.65674,-0.98511 -1.10824,-0.98511 -0.45151,0 -0.82093,0.24628 -1.10825,0.5336 -0.16418,0.16418 -0.32837,0.32837 -0.45151,0.5336 l 0,17.69088" />
        <path
           inkscape:connector-curvature="0"
           id="path3378"
           style="font-variant:normal;font-stretch:normal;font-family:League Gothic;-inkscape-font-specification:League Gothic"
           d="m 606.31633,662.26972 0,2.5859 c -0.12314,2.17545 -0.77988,3.69416 -2.25754,4.88449 -0.73883,0.61569 -1.76499,0.90302 -3.11951,0.90302 -2.66799,0 -4.02252,-1.47766 -4.67926,-2.95532 -0.36941,-0.86197 -0.61569,-1.84708 -0.65673,-2.95533 l 0,-11.28768 c 0.12313,-2.17544 0.82092,-3.77624 2.29858,-5.00763 0.69778,-0.61569 1.72394,-0.90301 3.07846,-0.90301 2.66799,0 4.02252,1.47766 4.67926,2.91427 0.36941,0.86197 0.61569,1.80603 0.65674,2.87323 l 0,6.52634 -6.85471,0 0,4.88448 c 0.041,0.86197 0.28733,1.47767 0.65674,1.92917 0.20523,0.20523 0.49255,0.32837 0.86197,0.32837 0.77987,0 1.14929,-0.49255 1.31348,-1.10824 0.12313,-0.32837 0.16418,-0.69779 0.16418,-1.1493 l 0,-2.46276 3.85834,0 m -6.85471,-5.66437 2.99637,0 0,-3.16055 c 0,-0.86197 -0.16419,-1.47766 -0.57465,-1.97021 -0.20523,-0.20523 -0.5336,-0.32837 -0.90301,-0.32837 -0.77988,0 -1.10825,0.5336 -1.31348,1.14929 -0.12314,0.32837 -0.16418,0.69778 -0.20523,1.14929 l 0,3.16055" />
        <path
           inkscape:connector-curvature="0"
           id="path3380"
           style="font-variant:normal;font-stretch:normal;font-family:League Gothic;-inkscape-font-specification:League Gothic"
           d="m 613.2249,670.31476 -4.14566,0 0,-22.45223 4.14566,0 0,1.88812 c 0.0821,-0.041 0.24627,-0.20523 0.49255,-0.45151 0.45151,-0.45151 1.0672,-1.0672 1.80603,-1.47766 0.36942,-0.20523 0.69778,-0.28732 1.0672,-0.28732 1.10824,0 1.88812,0.65674 2.38067,1.47766 0.49256,0.86197 0.73884,1.97021 0.73884,2.91427 l 0,18.38867 -4.14566,0 0,-17.77297 c 0,-0.86197 -0.49256,-0.98511 -0.98511,-0.98511 -0.45151,0 -0.69779,0.24628 -0.98511,0.5336 -0.12314,0.16418 -0.24627,0.32837 -0.36941,0.5336 l 0,17.69088" />
        <path
           inkscape:connector-curvature="0"
           id="path3382"
           style="font-variant:normal;font-stretch:normal;font-family:League Gothic;-inkscape-font-specification:League Gothic"
           d="m 627.71547,642.3213 0,5.54123 2.83218,0 0,3.73519 -2.83218,0 0,11.16455 c 0,0.69778 0,1.6008 0.16418,2.33963 0.16419,0.73883 0.49256,1.35452 1.14929,1.35452 0.32837,0 0.73883,-0.041 1.02616,-0.0821 0.16418,-0.0411 0.32837,-0.0411 0.49255,-0.0821 l 0,4.06356 c -0.20523,0.041 -0.41046,0.12314 -0.61569,0.16419 -0.41046,0.0821 -0.94406,0.12314 -1.6008,0.12314 -2.42172,0 -3.57101,-1.23139 -4.14566,-2.79114 -0.57465,-1.55975 -0.61569,-3.44788 -0.61569,-4.76135 l 0,-11.49292 -2.09335,0 0,-3.73519 2.09335,0 0,-5.54123 4.14566,0" />
        <path
           inkscape:connector-curvature="0"
           id="path3384"
           style="font-variant:normal;font-stretch:normal;font-family:League Gothic;-inkscape-font-specification:League Gothic"
           d="m 643.11354,662.26972 0,2.5859 c -0.12314,2.17545 -0.77988,3.69416 -2.25754,4.88449 -0.73883,0.61569 -1.76499,0.90302 -3.11951,0.90302 -2.66799,0 -4.02252,-1.47766 -4.67926,-2.95532 -0.36941,-0.86197 -0.61569,-1.84708 -0.65673,-2.95533 l 0,-11.28768 c 0.12314,-2.17544 0.82092,-3.77624 2.29858,-5.00763 0.69778,-0.61569 1.72394,-0.90301 3.07846,-0.90301 2.668,0 4.02252,1.47766 4.67926,2.91427 0.36941,0.86197 0.61569,1.80603 0.65674,2.87323 l 0,6.52634 -6.85471,0 0,4.88448 c 0.0411,0.86197 0.28733,1.47767 0.65674,1.92917 0.20523,0.20523 0.49255,0.32837 0.86197,0.32837 0.77988,0 1.14929,-0.49255 1.31348,-1.10824 0.12313,-0.32837 0.16418,-0.69779 0.16418,-1.1493 l 0,-2.46276 3.85834,0 m -6.85471,-5.66437 2.99637,0 0,-3.16055 c 0,-0.86197 -0.16418,-1.47766 -0.57465,-1.97021 -0.20523,-0.20523 -0.5336,-0.32837 -0.90301,-0.32837 -0.77988,0 -1.10825,0.5336 -1.31348,1.14929 -0.12313,0.32837 -0.16418,0.69778 -0.20523,1.14929 l 0,3.16055" />
      </g>
      <g
         transform="translate(-355.09549,40)"
         id="text3290"
         style="font-size:85.08076477px;font-style:normal;font-weight:normal;line-height:125%;letter-spacing:0px;word-spacing:0px;fill:#000000;fill-opacity:1;stroke:none;font-family:Sans">
        <path
           inkscape:connector-curvature="0"
           id="path3335"
           style="font-variant:normal;font-stretch:normal;font-family:League Gothic;-inkscape-font-specification:League Gothic"
           d="m 411.7884,738.66803 9.44396,-62.53436 11.23067,0 9.44396,62.53436 -8.93348,0 -1.70162,-12.76211 -8.8484,0 -1.70161,12.76211 -8.93348,0 m 15.56978,-42.20006 -0.25524,-1.61653 -0.51049,0 -0.25524,1.61653 -2.6375,19.73874 6.29597,0 -2.6375,-19.73874" />
        <path
           inkscape:connector-curvature="0"
           id="path3337"
           style="font-variant:normal;font-stretch:normal;font-family:League Gothic;-inkscape-font-specification:League Gothic"
           d="m 459.35253,692.12885 8.59316,0 0,46.53918 -8.59316,0 0,-3.91372 c -0.17016,0.0851 -0.51048,0.42541 -0.93588,0.85081 -1.02097,1.02097 -2.21211,2.2121 -3.74356,3.06291 -0.76572,0.4254 -1.53145,0.68065 -2.29718,0.68065 -2.29718,0 -3.91371,-1.3613 -4.93468,-3.14799 -1.02097,-1.70162 -1.53146,-3.9988 -1.53146,-5.95566 l 0,-38.11618 8.59316,0 0,36.83997 c 0,1.7867 1.02097,2.04194 2.04194,2.04194 0.93589,0 1.44637,-0.51048 2.04194,-1.10605 0.25524,-0.25524 0.51048,-0.68065 0.76572,-1.10605 l 0,-36.66981" />
        <path
           inkscape:connector-curvature="0"
           id="path3339"
           style="font-variant:normal;font-stretch:normal;font-family:League Gothic;-inkscape-font-specification:League Gothic"
           d="m 484.70926,680.64295 0,11.4859 5.87057,0 0,7.74235 -5.87057,0 0,23.14197 c 0,1.44637 0,3.31815 0.34032,4.8496 0.34033,1.53145 1.02098,2.80767 2.38227,2.80767 0.68064,0 1.53145,-0.0851 2.12702,-0.17016 0.34032,-0.0851 0.68064,-0.0851 1.02096,-0.17017 l 0,8.423 c -0.4254,0.0851 -0.8508,0.25524 -1.27621,0.34032 -0.8508,0.17016 -1.95686,0.25525 -3.31815,0.25525 -5.01976,0 -7.40202,-2.55243 -8.59315,-5.7855 -1.19113,-3.23306 -1.27622,-7.14678 -1.27622,-9.86936 l 0,-23.82262 -4.33911,0 0,-7.74235 4.33911,0 0,-11.4859 8.59316,0" />
        <path
           inkscape:connector-curvature="0"
           id="path3341"
           style="font-variant:normal;font-stretch:normal;font-family:League Gothic;-inkscape-font-specification:League Gothic"
           d="m 515.86078,676.81431 -6.72138,7.65727 -6.6363,0 4.4242,-7.65727 8.93348,0 m 0.51049,50.53798 c -0.25524,4.50927 -1.61654,7.65727 -4.59436,10.12461 -1.53146,1.27621 -3.65848,1.87178 -6.46614,1.87178 -5.53025,0 -8.25284,-3.06291 -9.61413,-6.12582 -0.76572,-1.78669 -1.27621,-3.82864 -1.36129,-6.12581 l 0,-23.39721 c 0.25524,-4.50928 1.61654,-7.82744 4.59436,-10.37986 1.44637,-1.27621 3.5734,-1.87177 6.38106,-1.87177 5.53024,0 8.33791,3.06291 9.69921,6.04073 0.76572,1.78669 1.27621,3.74356 1.36129,5.95565 l 0,23.9077 m -8.08268,-23.65245 c 0.0851,-1.7867 -0.25524,-3.06291 -1.10605,-4.08388 -0.4254,-0.4254 -1.10605,-0.68065 -1.87177,-0.68065 -1.61654,0 -2.29718,1.10605 -2.63751,2.38226 -0.25524,0.68065 -0.34032,1.44638 -0.25524,2.38227 l 0,23.39721 c -0.0851,1.78669 0.34033,3.0629 1.10605,3.99879 0.42541,0.42541 1.02097,0.68065 1.7867,0.68065 1.61653,0 2.38226,-1.02097 2.72258,-2.29718 0.25524,-0.68065 0.34033,-1.44638 0.25524,-2.38226 l 0,-23.39721" />
        <path
           inkscape:connector-curvature="0"
           id="path3343"
           style="font-variant:normal;font-stretch:normal;font-family:League Gothic;-inkscape-font-specification:League Gothic"
           d="m 530.7805,738.66803 -8.59316,0 0,-46.53918 8.59316,0 0,3.91372 c 0.17016,-0.0851 0.51048,-0.42541 1.02097,-0.93589 0.93589,-0.93589 2.2121,-2.2121 3.74355,-3.06291 0.76573,-0.4254 1.44638,-0.59556 2.2121,-0.59556 2.29718,0 3.91372,1.36129 4.93469,3.0629 1.02096,1.7867 1.53145,4.08388 1.53145,6.04074 l 0,38.11618 -8.59316,0 0,-36.83997 c 0,-1.7867 -1.02097,-2.04194 -2.04194,-2.04194 -0.93588,0 -1.44637,0.51049 -2.04193,1.10605 -0.25525,0.34032 -0.51049,0.68065 -0.76573,1.10605 l 0,36.66981" />
        <path
           inkscape:connector-curvature="0"
           id="path3345"
           style="font-variant:normal;font-stretch:normal;font-family:League Gothic;-inkscape-font-specification:League Gothic"
           d="m 572.20553,727.35229 c -0.25525,4.50927 -1.61654,7.65727 -4.59437,10.12461 -1.53145,1.27621 -3.65847,1.87178 -6.46613,1.87178 -5.53025,0 -8.25284,-3.06291 -9.61413,-6.12582 -0.76573,-1.78669 -1.27621,-3.82864 -1.36129,-6.12581 l 0,-23.39721 c 0.25524,-4.50928 1.61654,-7.82744 4.59436,-10.37986 1.44637,-1.27621 3.57339,-1.87177 6.38106,-1.87177 5.53024,0 8.33791,3.06291 9.6992,6.04073 0.76573,1.78669 1.27622,3.74356 1.3613,5.95565 l 0,23.9077 m -8.08268,-23.65245 c 0.0851,-1.7867 -0.25524,-3.06291 -1.10605,-4.08388 -0.4254,-0.4254 -1.10605,-0.68065 -1.87177,-0.68065 -1.61654,0 -2.29718,1.10605 -2.63751,2.38226 -0.25524,0.68065 -0.34032,1.44638 -0.25524,2.38227 l 0,23.39721 c -0.0851,1.78669 0.34032,3.0629 1.10605,3.99879 0.4254,0.42541 1.02097,0.68065 1.7867,0.68065 1.61653,0 2.38226,-1.02097 2.72258,-2.29718 0.25524,-0.68065 0.34032,-1.44638 0.25524,-2.38226 l 0,-23.39721" />
        <path
           inkscape:connector-curvature="0"
           id="path3347"
           style="font-variant:normal;font-stretch:normal;font-family:League Gothic;-inkscape-font-specification:League Gothic"
           d="m 600.22767,738.66803 -8.08267,0 0,-36.83997 c 0,-1.7867 -1.36129,-2.04194 -2.29718,-2.04194 -0.93589,0 -1.70162,0.51049 -2.29718,1.10605 -0.34032,0.34032 -0.68065,0.68065 -0.93589,1.10605 l 0,36.66981 -8.59316,0 0,-46.53918 8.59316,0 0,3.91372 c 0.17016,-0.0851 0.51049,-0.42541 1.02097,-0.93589 0.93589,-0.93589 2.38226,-2.2121 3.91371,-3.06291 0.76573,-0.4254 1.44638,-0.59556 2.2121,-0.59556 3.06291,0 4.84961,2.46734 5.7855,5.18992 0.34032,-0.25524 0.76572,-0.68064 1.36129,-1.27621 1.10605,-1.19113 2.55242,-2.29718 4.16896,-3.23307 0.76572,-0.4254 1.53145,-0.68064 2.29718,-0.68064 2.29718,0 3.91371,1.36129 4.93468,3.0629 1.02097,1.7867 1.53145,4.08388 1.53145,6.04074 l 0,38.11618 -8.08267,0 0,-36.83997 c 0,-1.7867 -1.36129,-2.04194 -2.29718,-2.04194 -0.93589,0 -1.70161,0.51049 -2.29718,1.10605 -0.34032,0.34032 -0.68065,0.68065 -0.93589,1.10605 l 0,36.66981" />
        <path
           inkscape:connector-curvature="0"
           id="path3349"
           style="font-variant:normal;font-stretch:normal;font-family:League Gothic;-inkscape-font-specification:League Gothic"
           d="m 632.91464,703.18935 c 0,-0.76573 0,-1.95686 -0.25525,-2.80766 -0.34032,-0.85081 -1.02097,-1.44638 -2.12701,-1.44638 -1.44638,0 -2.04194,1.10605 -2.29719,2.46734 -0.0851,0.68065 -0.17016,1.44638 -0.17016,2.2121 0,0.76573 0,1.53146 0,2.2121 l -8.59315,0 0,-1.95685 c 0,-3.40323 1.27621,-6.46614 3.31815,-8.76332 2.04193,-2.29718 4.93468,-3.65847 8.25283,-3.65847 2.80766,0 5.36009,1.10605 7.31695,2.97782 1.95685,1.87178 3.14798,4.50929 3.14798,7.57219 l 0,28.58714 c 0,4.16895 0.25525,6.04073 0.59557,8.08267 l -8.423,0 c -0.76572,-0.93589 -0.76572,-3.14799 -0.76572,-3.74355 l -0.59557,0 c -0.4254,0.76572 -1.19113,1.87177 -2.38226,2.80766 -1.19113,0.93589 -2.80767,1.61654 -4.50928,1.61654 -1.10605,0 -2.89275,-0.42541 -4.25404,-2.12702 -1.44637,-1.61654 -2.6375,-4.50929 -2.6375,-9.35889 0,-5.18992 1.53145,-8.93348 3.57339,-11.4859 2.04194,-2.55242 4.59436,-4.16896 6.72138,-5.27501 2.12702,-1.10605 3.74355,-1.87178 4.08388,-2.80766 l 0,-5.10485 m 0,13.01736 c -4.16896,1.78669 -5.95566,5.95566 -5.95566,10.37985 0,0.59557 0.0851,1.61654 0.42541,2.55242 0.34032,1.02097 0.93589,1.7867 1.95685,1.7867 1.95686,0 3.5734,-1.19113 3.5734,-2.80767 l 0,-11.9113" />
      </g>
      <g
         transform="translate(-355.09549,40)"
         id="text3294"
         style="font-size:31.78085518px;font-style:normal;font-weight:normal;line-height:125%;letter-spacing:0px;word-spacing:0px;fill:#000000;fill-opacity:1;stroke:none;font-family:Sans">
        <path
           inkscape:connector-curvature="0"
           id="path3318"
           style="font-variant:normal;font-stretch:normal;font-family:League Gothic;-inkscape-font-specification:League Gothic"
           d="m 418.90047,620.95299 -2.66959,0 0,10.16987 -3.43233,0 0,-23.35892 3.43233,0 0,9.66138 2.66959,0 0,-9.66138 3.43233,0 0,23.35892 -3.43233,0 0,-10.16987" />
        <path
           inkscape:connector-curvature="0"
           id="path3320"
           style="font-variant:normal;font-stretch:normal;font-family:League Gothic;-inkscape-font-specification:League Gothic"
           d="m 429.76505,617.87025 c 0,-0.28603 0,-0.73096 -0.0953,-1.04877 -0.12712,-0.31781 -0.38137,-0.54028 -0.79452,-0.54028 -0.54027,0 -0.76274,0.41316 -0.85808,0.92165 -0.0318,0.25425 -0.0636,0.54027 -0.0636,0.8263 0,0.28603 0,0.57206 0,0.8263 l -3.20987,0 0,-0.73096 c 0,-1.27123 0.47671,-2.41534 1.23945,-3.27342 0.76274,-0.85809 1.84329,-1.36658 3.08275,-1.36658 1.04876,0 2.00219,0.41315 2.73315,1.11233 0.73096,0.69918 1.17589,1.68439 1.17589,2.8285 l 0,10.67836 c 0,1.55726 0.0953,2.25644 0.22247,3.01918 l -3.14631,0 c -0.28603,-0.34959 -0.28603,-1.17589 -0.28603,-1.39835 l -0.22246,0 c -0.15891,0.28602 -0.44493,0.69918 -0.88987,1.04876 -0.44493,0.34959 -1.04876,0.60384 -1.68438,0.60384 -0.41315,0 -1.08055,-0.1589 -1.58904,-0.79452 -0.54028,-0.60384 -0.98521,-1.68439 -0.98521,-3.49589 0,-1.93864 0.57206,-3.337 1.3348,-4.29042 0.76274,-0.95342 1.71616,-1.55726 2.51068,-1.97041 0.79452,-0.41315 1.39836,-0.69918 1.52548,-1.04877 l 0,-1.90685 m 0,4.86247 c -1.55726,0.6674 -2.22466,2.22466 -2.22466,3.87726 0,0.22247 0.0318,0.60384 0.15891,0.95343 0.12712,0.38137 0.34959,0.6674 0.73096,0.6674 0.73096,0 1.33479,-0.44494 1.33479,-1.04877 l 0,-4.44932" />
        <path
           inkscape:connector-curvature="0"
           id="path3322"
           style="font-variant:normal;font-stretch:normal;font-family:League Gothic;-inkscape-font-specification:League Gothic"
           d="m 438.35433,607.76394 0,11.09151 0.1589,0 0.19069,-0.57205 1.55726,-4.54466 2.89206,0 -2.32001,5.65699 2.92384,11.72713 -3.08274,0 -1.58904,-7.02357 -0.0636,-0.25424 -0.1589,0 -0.0953,0.25424 -0.41315,1.01699 0,6.00658 -3.20987,0 0,-23.35892 3.20987,0" />
        <path
           inkscape:connector-curvature="0"
           id="path3324"
           style="font-variant:normal;font-stretch:normal;font-family:League Gothic;-inkscape-font-specification:League Gothic"
           d="m 445.07598,607.76394 3.20987,0 0,3.20986 -3.20987,0 0,-3.20986 m 0,23.35892 0,-17.38412 3.20987,0 0,17.38412 -3.20987,0" />
        <path
           inkscape:connector-curvature="0"
           id="path3326"
           style="font-variant:normal;font-stretch:normal;font-family:League Gothic;-inkscape-font-specification:League Gothic"
           d="m 459.14348,631.12286 -3.01919,0 0,-13.76111 c 0,-0.66739 -0.50849,-0.76274 -0.85808,-0.76274 -0.34959,0 -0.63562,0.19069 -0.85808,0.41315 -0.12712,0.12713 -0.25425,0.25425 -0.34959,0.41316 l 0,13.69754 -3.20987,0 0,-17.38412 3.20987,0 0,1.46192 c 0.0636,-0.0318 0.19068,-0.15891 0.38137,-0.34959 0.34959,-0.34959 0.88986,-0.82631 1.46192,-1.14411 0.28603,-0.15891 0.54027,-0.22247 0.8263,-0.22247 1.14411,0 1.81151,0.92164 2.1611,1.93863 0.12712,-0.0953 0.28603,-0.25425 0.50849,-0.47671 0.41315,-0.44493 0.95343,-0.85808 1.55726,-1.20767 0.28603,-0.15891 0.57206,-0.25425 0.85809,-0.25425 0.85808,0 1.46192,0.50849 1.84329,1.14411 0.38137,0.6674 0.57205,1.52548 0.57205,2.25644 l 0,14.23782 -3.01918,0 0,-13.76111 c 0,-0.66739 -0.50849,-0.76274 -0.85808,-0.76274 -0.34959,0 -0.63562,0.19069 -0.85808,0.41315 -0.12713,0.12713 -0.25425,0.25425 -0.34959,0.41316 l 0,13.69754" />
        <path
           inkscape:connector-curvature="0"
           id="path3328"
           style="font-variant:normal;font-stretch:normal;font-family:League Gothic;-inkscape-font-specification:League Gothic"
           d="m 471.58072,631.12286 0,-23.35892 3.01918,0 c 2.03397,0 3.62302,0.38137 4.67178,1.36657 1.04877,0.98521 1.58905,2.51069 1.58905,4.83069 0,1.11233 -0.0953,1.93863 -0.44494,2.70137 -0.34958,0.76274 -0.88986,1.39836 -1.68438,2.12932 0.85808,0.47671 1.4937,1.36658 2.00219,2.86028 0.25425,0.73096 0.38137,1.68439 0.38137,2.86028 0,1.74794 -0.31781,3.30521 -1.11233,4.51288 -0.79452,1.20767 -2.1611,2.00219 -4.19507,2.09753 l -4.22685,0 m 3.43233,-13.72933 c 0.28603,0 0.95343,0.0318 1.52548,-0.34959 0.57206,-0.38136 1.01699,-1.14411 1.01699,-2.76493 0,-1.62082 -0.44493,-2.38356 -1.01699,-2.76493 -0.57205,-0.38137 -1.23945,-0.34959 -1.52548,-0.34959 l 0,6.22904 m 0,10.32878 c 0.28603,0 0.95343,0.0636 1.52548,-0.34959 0.57206,-0.41315 1.01699,-1.33479 1.01699,-3.24164 0,-1.90685 -0.44493,-2.8285 -1.01699,-3.24165 -0.57205,-0.41315 -1.23945,-0.34959 -1.52548,-0.34959 l 0,7.18247" />
        <path
           inkscape:connector-curvature="0"
           id="path3330"
           style="font-variant:normal;font-stretch:normal;font-family:League Gothic;-inkscape-font-specification:League Gothic"
           d="m 491.16666,624.89382 0,2.00219 c -0.0953,1.68438 -0.60383,2.86028 -1.74794,3.78192 -0.57206,0.47671 -1.36658,0.69918 -2.41535,0.69918 -2.06575,0 -3.11452,-1.14411 -3.62302,-2.28822 -0.28602,-0.6674 -0.47671,-1.43014 -0.50849,-2.28822 l 0,-8.73974 c 0.0953,-1.68438 0.63562,-2.92384 1.77973,-3.87726 0.54027,-0.47671 1.3348,-0.69918 2.38356,-0.69918 2.06576,0 3.11453,1.14411 3.62302,2.25644 0.28603,0.6674 0.47671,1.39836 0.50849,2.22466 l 0,5.05316 -5.3074,0 0,3.78192 c 0.0318,0.66739 0.22247,1.14411 0.5085,1.4937 0.1589,0.1589 0.38137,0.25424 0.66739,0.25424 0.60384,0 0.88987,-0.38137 1.01699,-0.85808 0.0953,-0.25425 0.12712,-0.54027 0.12712,-0.88986 l 0,-1.90685 2.9874,0 m -5.3074,-4.38576 2.32,0 0,-2.44713 c 0,-0.6674 -0.12712,-1.14411 -0.44493,-1.52548 -0.1589,-0.1589 -0.41315,-0.25425 -0.69918,-0.25425 -0.60383,0 -0.85808,0.41316 -1.01698,0.88987 -0.0953,0.25424 -0.12713,0.54027 -0.15891,0.88986 l 0,2.44713" />
        <path
           inkscape:connector-curvature="0"
           id="path3332"
           style="font-variant:normal;font-stretch:normal;font-family:League Gothic;-inkscape-font-specification:League Gothic"
           d="m 492.41902,634.42807 c 0.0318,0.0318 0.0953,0.0318 0.19069,0.0318 0.1589,0.0318 0.95343,0.0954 1.46192,-0.28602 0.50849,-0.38137 0.85808,-0.92165 1.04877,-1.58905 0.0953,-0.31781 0.12712,-0.63561 0.12712,-0.95342 l -2.95562,-17.89262 3.14631,0 1.27123,10.67836 0.0636,0.88987 0.12712,0 0.0636,-0.88987 1.27123,-10.67836 3.1463,0 -3.08274,18.68714 c -0.1589,1.23945 -0.63562,2.44713 -1.39836,3.36877 -0.76274,0.92164 -1.77972,1.55726 -3.05096,1.55726 -0.0953,0 -0.22246,0 -0.38137,0 -0.28603,0 -0.6674,-0.0318 -1.04877,-0.0636 l 0,-2.86028" />
      </g>
    </g>
  </g>
</svg>
