<?xml version="1.0" encoding="UTF-8" standalone="no"?>
<!-- Created with Inkscape (http://www.inkscape.org/) -->

<svg
   xmlns:dc="http://purl.org/dc/elements/1.1/"
   xmlns:cc="http://creativecommons.org/ns#"
   xmlns:rdf="http://www.w3.org/1999/02/22-rdf-syntax-ns#"
   xmlns:svg="http://www.w3.org/2000/svg"
   xmlns="http://www.w3.org/2000/svg"
   xmlns:sodipodi="http://sodipodi.sourceforge.net/DTD/sodipodi-0.dtd"
   xmlns:inkscape="http://www.inkscape.org/namespaces/inkscape"
   width="372.04724"
   height="262.20471"
   id="svg2"
   version="1.1"
   inkscape:version="0.48.5 r10040"
   sodipodi:docname="slider_la_tirania_de_la_falta_de_estructuras.svg">
  <defs
     id="defs4" />
  <sodipodi:namedview
     id="base"
     pagecolor="#ffffff"
     bordercolor="#666666"
     borderopacity="1.0"
     inkscape:pageopacity="0.0"
     inkscape:pageshadow="2"
     inkscape:zoom="0.7"
     inkscape:cx="380.60472"
     inkscape:cy="223.47395"
     inkscape:document-units="mm"
     inkscape:current-layer="g3853"
     showgrid="false"
     showguides="true"
     inkscape:guide-bbox="true"
     units="mm"
     inkscape:window-width="1024"
     inkscape:window-height="713"
     inkscape:window-x="0"
     inkscape:window-y="31"
     inkscape:window-maximized="1">
    <sodipodi:guide
       orientation="1,0"
       position="262.20472,0"
       id="guide3168" />
    <sodipodi:guide
       orientation="0,1"
       position="72.857143,271.42857"
       id="guide3277" />
  </sodipodi:namedview>
  <metadata
     id="metadata7">
    <rdf:RDF>
      <cc:Work
         rdf:about="">
        <dc:format>image/svg+xml</dc:format>
        <dc:type
           rdf:resource="http://purl.org/dc/dcmitype/StillImage" />
        <dc:title />
      </cc:Work>
    </rdf:RDF>
  </metadata>
  <g
     inkscape:label="Capa 1"
     inkscape:groupmode="layer"
     id="layer1"
     transform="translate(0,-790.15737)">
    <g
       id="layer1-8"
       inkscape:label="Capa 1"
       transform="matrix(0.16088167,0,0,0.16157504,416.66039,909.65661)">
      <g
         inkscape:export-ydpi="149"
         inkscape:export-xdpi="149"
         inkscape:export-filename="/srv/http/kiwwwi.com.ar/pastes/utopia-pirata-2.png"
         transform="matrix(0.67937345,0,0,0.67937345,-233.93427,225.03697)"
         id="g3847" />
    </g>
    <g
       transform="matrix(1.1857515,0,0,1.1857515,89.761277,-251.10555)"
       id="g3341" />
    <g
       id="g3631"
       transform="translate(-342.85715,0)">
      <g
         id="g3709"
         transform="translate(-29.999994,0)">
        <g
           id="g3806"
           transform="translate(0,267.42858)">
          <g
             id="g3853"
             transform="translate(0,3.9999997)">
            <rect
               style="fill:#ff6600"
               id="rect3033"
               width="372.04724"
               height="265.74802"
               x="372.85715"
               y="515.18549" />
            <g
               id="g3433"
               transform="translate(-3.2167969e-6,-52.429862)">
              <rect
                 y="589.1864"
                 x="372.85715"
                 height="173.31082"
                 width="372.04724"
                 id="rect3035"
                 style="fill:#ffffff" />
              <g
                 transform="matrix(1.4188819,0,0,1.4188819,-316.93984,-345.99042)"
                 id="g3435"
                 style="font-size:40px;font-style:normal;font-variant:normal;font-weight:normal;font-stretch:normal;line-height:125%;letter-spacing:0px;word-spacing:0px;fill:#000000;fill-opacity:1;stroke:none;font-family:League Gothic;-inkscape-font-specification:League Gothic">
                <g
                   style="font-size:28.1912117px;line-height:125%;fill:#000000;font-family:FontAwesome;-inkscape-font-specification:FontAwesome"
                   id="text3305"
                   transform="translate(13.24981,0)">
                  <g
                     id="g3402">
                    <path
                       inkscape:connector-curvature="0"
                       id="path3316"
                       style="font-family:League Gothic;-inkscape-font-specification:League Gothic"
                       d="m 512.25231,706.81389 4.6321,0 0,27.23504 6.13325,0 0,4.28899 -10.76535,0 0,-31.52403" />
                    <path
                       inkscape:connector-curvature="0"
                       id="path3318"
                       style="font-family:League Gothic;-inkscape-font-specification:League Gothic"
                       d="m 531.4636,720.45286 c 0,-0.38601 0,-0.98647 -0.12871,-1.41536 -0.17157,-0.4289 -0.51469,-0.72913 -1.07225,-0.72913 -0.72912,0 -1.02936,0.55758 -1.15802,1.2438 -0.0429,0.34312 -0.0858,0.72914 -0.0858,1.11515 0,0.386 0,0.77201 0,1.11513 l -4.33186,0 0,-0.98647 c 0,-1.71559 0.64335,-3.25962 1.6727,-4.41766 1.02936,-1.15802 2.48761,-1.84426 4.16032,-1.84426 1.41536,0 2.70205,0.55758 3.68852,1.50116 0.98647,0.94356 1.58693,2.27315 1.58693,3.81718 l 0,14.41098 c 0,2.1016 0.12871,3.04518 0.30021,4.07454 l -4.24609,0 c -0.38601,-0.4718 -0.38601,-1.58693 -0.38601,-1.88716 l -0.30023,0 c -0.21444,0.38601 -0.60044,0.94358 -1.20091,1.41536 -0.60046,0.4718 -1.41536,0.81492 -2.27315,0.81492 -0.55757,0 -1.45825,-0.21446 -2.14449,-1.07226 -0.72912,-0.8149 -1.32959,-2.27315 -1.32959,-4.71787 0,-2.61628 0.77202,-4.50344 1.80137,-5.79012 1.02936,-1.2867 2.31606,-2.10161 3.38831,-2.65918 1.07223,-0.55756 1.88714,-0.94357 2.05869,-1.41536 l 0,-2.57339 m 0,6.56215 c -2.10158,0.90068 -3.00227,3.00228 -3.00227,5.23255 0,0.30023 0.0429,0.81491 0.21443,1.2867 0.17157,0.51467 0.4718,0.90069 0.98647,0.90069 0.98647,0 1.80137,-0.60046 1.80137,-1.41537 l 0,-6.00457" />
                    <path
                       inkscape:connector-curvature="0"
                       id="path3320"
                       style="font-family:League Gothic;-inkscape-font-specification:League Gothic"
                       d="m 550.57369,709.08706 0,5.79012 2.9594,0 0,3.90297 -2.9594,0 0,11.66603 c 0,0.72913 0,1.67271 0.17156,2.44473 0.17156,0.77201 0.51468,1.41536 1.20092,1.41536 0.34312,0 0.77201,-0.0429 1.07224,-0.0858 0.17156,-0.0429 0.34312,-0.0429 0.51468,-0.0858 l 0,4.24609 c -0.21444,0.0429 -0.4289,0.12871 -0.64335,0.17155 -0.4289,0.0858 -0.98646,0.12871 -1.6727,0.12871 -2.53049,0 -3.73142,-1.2867 -4.33186,-2.91652 -0.60047,-1.6298 -0.64335,-3.60274 -0.64335,-4.97522 l 0,-12.00915 -2.18738,0 0,-3.90297 2.18738,0 0,-5.79012 4.33186,0" />
                    <path
                       inkscape:connector-curvature="0"
                       id="path3322"
                       style="font-family:League Gothic;-inkscape-font-specification:League Gothic"
                       d="m 555.81228,706.81389 4.33187,0 0,4.33189 -4.33187,0 0,-4.33189 m 0,31.52403 0,-23.46074 4.33187,0 0,23.46074 -4.33187,0" />
                    <path
                       inkscape:connector-curvature="0"
                       id="path3324"
                       style="font-family:League Gothic;-inkscape-font-specification:League Gothic"
                       d="m 572.26656,719.33773 c -0.386,-0.12871 -0.81491,-0.17157 -1.20092,-0.17157 -0.68624,0 -1.50114,0.0858 -2.18738,0.72913 -0.8149,0.68624 -0.94358,1.41536 -0.94358,2.14449 l 0,16.29814 -4.33187,0 0,-23.46074 4.33187,0 0,2.61629 c 0.0429,-0.30023 0.34312,-1.02936 1.02936,-1.7156 0.68624,-0.64335 1.71559,-1.24381 3.30252,-1.24381 l 0,4.80367" />
                    <path
                       inkscape:connector-curvature="0"
                       id="path3326"
                       style="font-family:League Gothic;-inkscape-font-specification:League Gothic"
                       d="m 580.38479,720.45286 c 0,-0.38601 0,-0.98647 -0.12871,-1.41536 -0.17155,-0.4289 -0.51467,-0.72913 -1.07225,-0.72913 -0.72912,0 -1.02935,0.55758 -1.15802,1.2438 -0.0429,0.34312 -0.0858,0.72914 -0.0858,1.11515 0,0.386 0,0.77201 0,1.11513 l -4.33189,0 0,-0.98647 c 0,-1.71559 0.64335,-3.25962 1.67271,-4.41766 1.02936,-1.15802 2.48761,-1.84426 4.16032,-1.84426 1.41536,0 2.70206,0.55758 3.68851,1.50116 0.98647,0.94356 1.58694,2.27315 1.58694,3.81718 l 0,14.41098 c 0,2.1016 0.12871,3.04518 0.30023,4.07454 l -4.24609,0 c -0.38601,-0.4718 -0.38603,-1.58693 -0.38603,-1.88716 l -0.30021,0 c -0.21446,0.38601 -0.60046,0.94358 -1.20093,1.41536 -0.60044,0.4718 -1.41536,0.81492 -2.27315,0.81492 -0.55757,0 -1.45825,-0.21446 -2.14449,-1.07226 -0.72913,-0.8149 -1.32959,-2.27315 -1.32959,-4.71787 0,-2.61628 0.77202,-4.50344 1.80137,-5.79012 1.02936,-1.2867 2.31606,-2.10161 3.3883,-2.65918 1.07225,-0.55756 1.88715,-0.94357 2.0587,-1.41536 l 0,-2.57339 m 0,6.56215 c -2.10158,0.90068 -3.00228,3.00228 -3.00228,5.23255 0,0.30023 0.0429,0.81491 0.21446,1.2867 0.17155,0.51467 0.47178,0.90069 0.98645,0.90069 0.98647,0 1.80137,-0.60046 1.80137,-1.41537 l 0,-6.00457" />
                    <path
                       inkscape:connector-curvature="0"
                       id="path3328"
                       style="font-family:League Gothic;-inkscape-font-specification:League Gothic"
                       d="m 591.8089,738.33792 -4.33188,0 0,-23.46074 4.33188,0 0,1.97294 c 0.0858,-0.0429 0.25733,-0.21446 0.51467,-0.4718 0.47179,-0.47178 1.11514,-1.11513 1.88715,-1.54403 0.38601,-0.21444 0.72913,-0.30023 1.11513,-0.30023 1.15804,0 1.97294,0.68624 2.48763,1.54405 0.51467,0.90067 0.77201,2.05871 0.77201,3.04516 l 0,19.21465 -4.33188,0 0,-18.5713 c 0,-0.90067 -0.51467,-1.02935 -1.02934,-1.02935 -0.4718,0 -0.72914,0.25734 -1.02936,0.55757 -0.12871,0.17155 -0.25734,0.34312 -0.38601,0.55756 l 0,18.48552" />
                    <path
                       inkscape:connector-curvature="0"
                       id="path3330"
                       style="font-family:League Gothic;-inkscape-font-specification:League Gothic"
                       d="m 608.70279,707.15701 -3.3883,3.86009 -3.3454,0 2.23027,-3.86009 4.50343,0 m -6.7337,31.18091 0,-23.46074 4.33187,0 0,23.46074 -4.33187,0" />
                    <path
                       inkscape:connector-curvature="0"
                       id="path3332"
                       style="font-family:League Gothic;-inkscape-font-specification:League Gothic"
                       d="m 616.32177,720.45286 c 0,-0.38601 0,-0.98647 -0.1287,-1.41536 -0.17156,-0.4289 -0.51468,-0.72913 -1.07225,-0.72913 -0.72913,0 -1.02936,0.55758 -1.15802,1.2438 -0.0429,0.34312 -0.0858,0.72914 -0.0858,1.11515 0,0.386 0,0.77201 0,1.11513 l -4.33188,0 0,-0.98647 c 0,-1.71559 0.64335,-3.25962 1.67271,-4.41766 1.02935,-1.15802 2.48761,-1.84426 4.16031,-1.84426 1.41537,0 2.70207,0.55758 3.68852,1.50116 0.98647,0.94356 1.58693,2.27315 1.58693,3.81718 l 0,14.41098 c 0,2.1016 0.12871,3.04518 0.30023,4.07454 l -4.24609,0 c -0.38601,-0.4718 -0.38601,-1.58693 -0.38601,-1.88716 l -0.30023,0 c -0.21445,0.38601 -0.60046,0.94358 -1.20092,1.41536 -0.60045,0.4718 -1.41537,0.81492 -2.27315,0.81492 -0.55758,0 -1.45826,-0.21446 -2.14449,-1.07226 -0.72913,-0.8149 -1.32959,-2.27315 -1.32959,-4.71787 0,-2.61628 0.77201,-4.50344 1.80137,-5.79012 1.02936,-1.2867 2.31606,-2.10161 3.3883,-2.65918 1.07224,-0.55756 1.88715,-0.94357 2.05871,-1.41536 l 0,-2.57339 m 0,6.56215 c -2.1016,0.90068 -3.00229,3.00228 -3.00229,5.23255 0,0.30023 0.0429,0.81491 0.21445,1.2867 0.17156,0.51467 0.47179,0.90069 0.98646,0.90069 0.98647,0 1.80138,-0.60046 1.80138,-1.41537 l 0,-6.00457" />
                  </g>
                  <g
                     id="g3378">
                    <path
                       inkscape:connector-curvature="0"
                       id="path3334"
                       style="font-family:League Gothic;-inkscape-font-specification:League Gothic"
                       d="m 519.44107,765.23716 -2.84731,0 0,-1.01488 c -0.47925,0.45106 -0.90212,0.78935 -1.43775,1.04307 -0.28191,0.14096 -0.56383,0.19734 -0.81755,0.19734 -0.78935,0 -1.32498,-0.45106 -1.66328,-1.04308 -0.36648,-0.56382 -0.53563,-1.32498 -0.53563,-1.97338 l 0,-9.83873 c 0,-0.6484 0.16915,-1.40956 0.53563,-2.00158 0.3383,-0.56382 0.87393,-1.01488 1.66328,-1.01488 0.53563,0 1.09946,0.3101 1.52233,0.6202 0.25372,0.19734 0.47925,0.39468 0.73297,0.62021 l 0,-6.31483 2.84731,0 0,20.72054 m -2.84731,-12.03765 c 0,-0.45106 -0.42287,-0.93031 -0.84574,-0.93031 -0.42286,0 -0.76116,0.39468 -0.76116,0.93031 l 0,8.6547 c 0,0.53564 0.3383,0.93031 0.76116,0.93031 0.42287,0 0.84574,-0.39467 0.84574,-0.93031 l 0,-8.6547" />
                    <path
                       inkscape:connector-curvature="0"
                       id="path3336"
                       style="font-family:League Gothic;-inkscape-font-specification:League Gothic"
                       d="m 528.85517,759.71168 0,1.77605 c -0.0846,1.49413 -0.53563,2.53721 -1.55051,3.35475 -0.50744,0.42287 -1.21223,0.62021 -2.14253,0.62021 -1.83243,0 -2.76274,-1.01488 -3.2138,-2.02977 -0.25372,-0.59201 -0.42287,-1.2686 -0.45106,-2.02976 l 0,-7.75259 c 0.0846,-1.49413 0.56382,-2.59359 1.57871,-3.43933 0.47925,-0.42286 1.18403,-0.6202 2.11434,-0.6202 1.83242,0 2.76274,1.01488 3.21379,2.00157 0.25373,0.59202 0.42287,1.24042 0.45106,1.97339 l 0,4.4824 -4.70793,0 0,3.35476 c 0.0282,0.59201 0.19734,1.01488 0.45106,1.32498 0.14096,0.14096 0.3383,0.22553 0.59202,0.22553 0.53563,0 0.78935,-0.33829 0.90212,-0.76116 0.0846,-0.22553 0.11276,-0.47925 0.11276,-0.78935 l 0,-1.69148 2.64997,0 m -4.70793,-3.89038 2.05796,0 0,-2.17073 c 0,-0.59201 -0.11276,-1.01488 -0.39468,-1.35318 -0.14095,-0.14095 -0.36648,-0.22553 -0.6202,-0.22553 -0.53564,0 -0.76117,0.36649 -0.90212,0.78936 -0.0846,0.22553 -0.11277,0.47925 -0.14096,0.78935 l 0,2.17073" />
                    <path
                       inkscape:connector-curvature="0"
                       id="path3338"
                       style="font-family:League Gothic;-inkscape-font-specification:League Gothic"
                       d="m 535.15767,765.23716 0,-20.72054 2.84731,0 0,20.72054 -2.84731,0" />
                    <path
                       inkscape:connector-curvature="0"
                       id="path3340"
                       style="font-family:League Gothic;-inkscape-font-specification:League Gothic"
                       d="m 544.5916,753.48142 c 0,-0.25372 0,-0.64839 -0.0846,-0.93031 -0.11276,-0.28191 -0.33829,-0.47925 -0.70478,-0.47925 -0.47925,0 -0.67659,0.36649 -0.76116,0.81755 -0.0282,0.22553 -0.0564,0.47925 -0.0564,0.73297 0,0.25372 0,0.50744 0,0.73297 l -2.84732,0 0,-0.6484 c 0,-1.12764 0.42287,-2.14253 1.09946,-2.90369 0.67659,-0.76116 1.63509,-1.21222 2.73455,-1.21222 0.93031,0 1.77605,0.36648 2.42444,0.98669 0.6484,0.62021 1.04308,1.49414 1.04308,2.50902 l 0,9.47224 c 0,1.38137 0.0846,2.00158 0.19734,2.67817 l -2.79093,0 c -0.25372,-0.3101 -0.25372,-1.04308 -0.25372,-1.24041 l -0.19734,0 c -0.14096,0.25372 -0.39468,0.6202 -0.78936,0.93031 -0.39467,0.3101 -0.93031,0.53563 -1.49413,0.53563 -0.36649,0 -0.9585,-0.14096 -1.40956,-0.70478 -0.47925,-0.53563 -0.87393,-1.49414 -0.87393,-3.10103 0,-1.71967 0.50744,-2.96008 1.18403,-3.80582 0.67659,-0.84573 1.52233,-1.38137 2.22711,-1.74785 0.70478,-0.36649 1.24041,-0.62021 1.35318,-0.93031 l 0,-1.69148 m 0,4.31326 c -1.38137,0.59201 -1.97339,1.97339 -1.97339,3.43933 0,0.19734 0.0282,0.53563 0.14096,0.84573 0.11276,0.3383 0.3101,0.59202 0.64839,0.59202 0.6484,0 1.18404,-0.39468 1.18404,-0.93031 l 0,-3.94677" />
                    <path
                       inkscape:connector-curvature="0"
                       id="path3342"
                       style="font-family:League Gothic;-inkscape-font-specification:League Gothic"
                       d="m 554.30523,765.23716 0,-12.85519 -1.43775,0 0,-2.5654 1.43775,0 0,-0.42287 c 0,-0.78935 0.0282,-2.05796 0.42287,-3.10103 0.39468,-1.04308 1.18403,-1.88882 2.84731,-1.88882 0.45106,0 0.76116,0.0282 0.98669,0.11277 l 0.3383,0.0846 0,2.45264 c -0.0846,-0.0282 -0.16915,-0.0282 -0.25372,-0.0564 -0.19734,-0.0282 -0.39468,-0.0564 -0.59202,-0.0564 -0.47925,0 -0.70478,0.42287 -0.81754,0.9585 -0.0564,0.28192 -0.0846,0.56383 -0.0846,0.84574 0,0.28191 0,0.50744 0,0.67659 l 0,0.39468 1.43776,0 0,2.5654 -1.43776,0 0,12.85519 -2.84731,0" />
                    <path
                       inkscape:connector-curvature="0"
                       id="path3344"
                       style="font-family:League Gothic;-inkscape-font-specification:League Gothic"
                       d="m 564.52366,753.48142 c 0,-0.25372 0,-0.64839 -0.0846,-0.93031 -0.11276,-0.28191 -0.33829,-0.47925 -0.70478,-0.47925 -0.47925,0 -0.67659,0.36649 -0.76116,0.81755 -0.0282,0.22553 -0.0564,0.47925 -0.0564,0.73297 0,0.25372 0,0.50744 0,0.73297 l -2.84731,0 0,-0.6484 c 0,-1.12764 0.42287,-2.14253 1.09946,-2.90369 0.67659,-0.76116 1.63509,-1.21222 2.73455,-1.21222 0.93031,0 1.77604,0.36648 2.42444,0.98669 0.6484,0.62021 1.04308,1.49414 1.04308,2.50902 l 0,9.47224 c 0,1.38137 0.0846,2.00158 0.19733,2.67817 l -2.79093,0 c -0.25372,-0.3101 -0.25372,-1.04308 -0.25372,-1.24041 l -0.19733,0 c -0.14096,0.25372 -0.39468,0.6202 -0.78936,0.93031 -0.39468,0.3101 -0.93031,0.53563 -1.49413,0.53563 -0.36649,0 -0.9585,-0.14096 -1.40956,-0.70478 -0.47925,-0.53563 -0.87393,-1.49414 -0.87393,-3.10103 0,-1.71967 0.50744,-2.96008 1.18403,-3.80582 0.67659,-0.84573 1.52233,-1.38137 2.22711,-1.74785 0.70478,-0.36649 1.24041,-0.62021 1.35317,-0.93031 l 0,-1.69148 m 0,4.31326 c -1.38136,0.59201 -1.97338,1.97339 -1.97338,3.43933 0,0.19734 0.0282,0.53563 0.14095,0.84573 0.11277,0.3383 0.31011,0.59202 0.6484,0.59202 0.6484,0 1.18403,-0.39468 1.18403,-0.93031 l 0,-3.94677" />
                    <path
                       inkscape:connector-curvature="0"
                       id="path3346"
                       style="font-family:League Gothic;-inkscape-font-specification:League Gothic"
                       d="m 569.18535,765.23716 0,-20.72054 2.84731,0 0,20.72054 -2.84731,0" />
                    <path
                       inkscape:connector-curvature="0"
                       id="path3348"
                       style="font-family:League Gothic;-inkscape-font-specification:League Gothic"
                       d="m 577.63522,746.01075 0,3.80582 1.94519,0 0,2.5654 -1.94519,0 0,7.66801 c 0,0.47925 0,1.09945 0.11277,1.6069 0.11276,0.50744 0.33829,0.93031 0.78935,0.93031 0.22553,0 0.50744,-0.0282 0.70478,-0.0564 0.11277,-0.0282 0.22553,-0.0282 0.33829,-0.0564 l 0,2.79093 c -0.14095,0.0282 -0.28191,0.0846 -0.42286,0.11277 -0.28192,0.0564 -0.6484,0.0846 -1.09946,0.0846 -1.66328,0 -2.45264,-0.84574 -2.84731,-1.917 -0.39468,-1.07127 -0.42287,-2.36807 -0.42287,-3.27018 l 0,-7.89354 -1.43775,0 0,-2.5654 1.43775,0 0,-3.80582 2.84731,0" />
                    <path
                       inkscape:connector-curvature="0"
                       id="path3350"
                       style="font-family:League Gothic;-inkscape-font-specification:League Gothic"
                       d="m 585.33671,753.48142 c 0,-0.25372 0,-0.64839 -0.0846,-0.93031 -0.11277,-0.28191 -0.3383,-0.47925 -0.70478,-0.47925 -0.47925,0 -0.67659,0.36649 -0.76117,0.81755 -0.0282,0.22553 -0.0564,0.47925 -0.0564,0.73297 0,0.25372 0,0.50744 0,0.73297 l -2.84731,0 0,-0.6484 c 0,-1.12764 0.42287,-2.14253 1.09946,-2.90369 0.67658,-0.76116 1.63509,-1.21222 2.73454,-1.21222 0.93031,0 1.77605,0.36648 2.42445,0.98669 0.64839,0.62021 1.04307,1.49414 1.04307,2.50902 l 0,9.47224 c 0,1.38137 0.0846,2.00158 0.19734,2.67817 l -2.79093,0 c -0.25372,-0.3101 -0.25372,-1.04308 -0.25372,-1.24041 l -0.19734,0 c -0.14096,0.25372 -0.39468,0.6202 -0.78935,0.93031 -0.39468,0.3101 -0.93031,0.53563 -1.49414,0.53563 -0.36648,0 -0.9585,-0.14096 -1.40956,-0.70478 -0.47925,-0.53563 -0.87393,-1.49414 -0.87393,-3.10103 0,-1.71967 0.50745,-2.96008 1.18404,-3.80582 0.67658,-0.84573 1.52232,-1.38137 2.2271,-1.74785 0.70478,-0.36649 1.24041,-0.62021 1.35318,-0.93031 l 0,-1.69148 m 0,4.31326 c -1.38137,0.59201 -1.97339,1.97339 -1.97339,3.43933 0,0.19734 0.0282,0.53563 0.14096,0.84573 0.11277,0.3383 0.3101,0.59202 0.6484,0.59202 0.6484,0 1.18403,-0.39468 1.18403,-0.93031 l 0,-3.94677" />
                    <path
                       inkscape:connector-curvature="0"
                       id="path3352"
                       style="font-family:League Gothic;-inkscape-font-specification:League Gothic"
                       d="m 601.64708,765.23716 -2.84731,0 0,-1.01488 c -0.47925,0.45106 -0.90212,0.78935 -1.43775,1.04307 -0.28192,0.14096 -0.56383,0.19734 -0.81755,0.19734 -0.78935,0 -1.32499,-0.45106 -1.66328,-1.04308 -0.36649,-0.56382 -0.53563,-1.32498 -0.53563,-1.97338 l 0,-9.83873 c 0,-0.6484 0.16914,-1.40956 0.53563,-2.00158 0.33829,-0.56382 0.87393,-1.01488 1.66328,-1.01488 0.53563,0 1.09946,0.3101 1.52233,0.6202 0.25372,0.19734 0.47925,0.39468 0.73297,0.62021 l 0,-6.31483 2.84731,0 0,20.72054 m -2.84731,-12.03765 c 0,-0.45106 -0.42287,-0.93031 -0.84574,-0.93031 -0.42287,0 -0.76116,0.39468 -0.76116,0.93031 l 0,8.6547 c 0,0.53564 0.33829,0.93031 0.76116,0.93031 0.42287,0 0.84574,-0.39467 0.84574,-0.93031 l 0,-8.6547" />
                    <path
                       inkscape:connector-curvature="0"
                       id="path3354"
                       style="font-family:League Gothic;-inkscape-font-specification:League Gothic"
                       d="m 611.06119,759.71168 0,1.77605 c -0.0846,1.49413 -0.53564,2.53721 -1.55052,3.35475 -0.50744,0.42287 -1.21222,0.62021 -2.14253,0.62021 -1.83243,0 -2.76274,-1.01488 -3.2138,-2.02977 -0.25372,-0.59201 -0.42287,-1.2686 -0.45106,-2.02976 l 0,-7.75259 c 0.0846,-1.49413 0.56383,-2.59359 1.57871,-3.43933 0.47925,-0.42286 1.18403,-0.6202 2.11434,-0.6202 1.83243,0 2.76274,1.01488 3.2138,2.00157 0.25372,0.59202 0.42287,1.24042 0.45106,1.97339 l 0,4.4824 -4.70793,0 0,3.35476 c 0.0282,0.59201 0.19733,1.01488 0.45105,1.32498 0.14096,0.14096 0.3383,0.22553 0.59202,0.22553 0.53563,0 0.78935,-0.33829 0.90212,-0.76116 0.0846,-0.22553 0.11276,-0.47925 0.11276,-0.78935 l 0,-1.69148 2.64998,0 m -4.70793,-3.89038 2.05795,0 0,-2.17073 c 0,-0.59201 -0.11276,-1.01488 -0.39467,-1.35318 -0.14096,-0.14095 -0.36649,-0.22553 -0.62021,-0.22553 -0.53563,0 -0.76116,0.36649 -0.90212,0.78936 -0.0846,0.22553 -0.11276,0.47925 -0.14095,0.78935 l 0,2.17073" />
                    <path
                       inkscape:connector-curvature="0"
                       id="path3356"
                       style="font-family:League Gothic;-inkscape-font-specification:League Gothic"
                       d="m 624.49606,759.71168 0,1.77605 c -0.0846,1.49413 -0.53563,2.53721 -1.55051,3.35475 -0.50744,0.42287 -1.21223,0.62021 -2.14254,0.62021 -1.83242,0 -2.76273,-1.01488 -3.21379,-2.02977 -0.25372,-0.59201 -0.42287,-1.2686 -0.45106,-2.02976 l 0,-7.75259 c 0.0846,-1.49413 0.56382,-2.59359 1.5787,-3.43933 0.47925,-0.42286 1.18404,-0.6202 2.11435,-0.6202 1.83242,0 2.76273,1.01488 3.21379,2.00157 0.25372,0.59202 0.42287,1.24042 0.45106,1.97339 l 0,4.4824 -4.70793,0 0,3.35476 c 0.0282,0.59201 0.19734,1.01488 0.45106,1.32498 0.14096,0.14096 0.3383,0.22553 0.59202,0.22553 0.53563,0 0.78935,-0.33829 0.90211,-0.76116 0.0846,-0.22553 0.11277,-0.47925 0.11277,-0.78935 l 0,-1.69148 2.64997,0 m -4.70793,-3.89038 2.05796,0 0,-2.17073 c 0,-0.59201 -0.11277,-1.01488 -0.39468,-1.35318 -0.14095,-0.14095 -0.36648,-0.22553 -0.6202,-0.22553 -0.53564,0 -0.76117,0.36649 -0.90212,0.78936 -0.0846,0.22553 -0.11277,0.47925 -0.14096,0.78935 l 0,2.17073" />
                    <path
                       inkscape:connector-curvature="0"
                       id="path3358"
                       style="font-family:League Gothic;-inkscape-font-specification:League Gothic"
                       d="m 630.65187,753.76334 c 0,-0.36649 0,-0.81755 -0.11276,-1.18403 -0.14096,-0.3383 -0.36649,-0.62021 -0.81755,-0.62021 -0.36648,0 -0.59201,0.28191 -0.70478,0.62021 -0.14095,0.33829 -0.16915,0.81754 -0.16915,1.18403 0,0.47925 0.25373,0.98669 0.62021,1.43775 0.3383,0.45106 0.78936,0.90212 1.24041,1.32499 0.59202,0.59201 1.2968,1.2686 1.77605,2.02976 0.47925,0.78936 0.84574,1.66329 0.84574,2.67817 0,0.98669 -0.22553,2.02977 -0.78936,2.81912 -0.59201,0.81754 -1.49413,1.40956 -2.84731,1.40956 -1.71966,0 -2.73455,-0.78936 -3.29837,-1.74786 -0.56382,-0.9585 -0.67659,-2.14253 -0.67659,-2.96007 l 2.64997,0 c 0,0.42287 0.0282,1.01488 0.22553,1.46594 0.19734,0.47925 0.50745,0.87393 1.09946,0.87393 0.81754,0 0.98669,-0.9585 0.98669,-1.86062 0,-0.93031 -0.90212,-1.86062 -1.77604,-2.73455 -0.67659,-0.6484 -1.32499,-1.24041 -1.83243,-2.00158 -0.50744,-0.76116 -0.87393,-1.6069 -0.87393,-2.73454 0,-0.90212 0.16915,-1.9452 0.70478,-2.76274 0.53563,-0.78936 1.40956,-1.38137 2.76274,-1.40956 1.66328,-0.0282 2.59359,0.59201 3.07284,1.40956 0.47925,0.81754 0.56383,1.88881 0.56383,2.76274 l -2.64998,0" />
                    <path
                       inkscape:connector-curvature="0"
                       id="path3360"
                       style="font-family:League Gothic;-inkscape-font-specification:League Gothic"
                       d="m 638.20228,746.01075 0,3.80582 1.94519,0 0,2.5654 -1.94519,0 0,7.66801 c 0,0.47925 0,1.09945 0.11276,1.6069 0.11277,0.50744 0.3383,0.93031 0.78935,0.93031 0.22553,0 0.50745,-0.0282 0.70479,-0.0564 0.11276,-0.0282 0.22552,-0.0282 0.33829,-0.0564 l 0,2.79093 c -0.14096,0.0282 -0.28191,0.0846 -0.42287,0.11277 -0.28191,0.0564 -0.6484,0.0846 -1.09946,0.0846 -1.66328,0 -2.45263,-0.84574 -2.84731,-1.917 -0.39467,-1.07127 -0.42287,-2.36807 -0.42287,-3.27018 l 0,-7.89354 -1.43775,0 0,-2.5654 1.43775,0 0,-3.80582 2.84732,0" />
                    <path
                       inkscape:connector-curvature="0"
                       id="path3362"
                       style="font-family:League Gothic;-inkscape-font-specification:League Gothic"
                       d="m 647.34019,752.74845 c -0.25372,-0.0846 -0.53564,-0.11276 -0.78936,-0.11276 -0.45106,0 -0.98669,0.0564 -1.43775,0.47925 -0.53563,0.45106 -0.62021,0.93031 -0.62021,1.40956 l 0,10.71266 -2.84731,0 0,-15.42059 2.84731,0 0,1.71966 c 0.0282,-0.19734 0.22553,-0.67659 0.67659,-1.12765 0.45106,-0.42287 1.12765,-0.81754 2.17073,-0.81754 l 0,3.15741" />
                    <path
                       inkscape:connector-curvature="0"
                       id="path3364"
                       style="font-family:League Gothic;-inkscape-font-specification:League Gothic"
                       d="m 652.98107,749.81657 2.84732,0 0,15.42059 -2.84732,0 0,-1.2968 c -0.0564,0.0282 -0.16914,0.14096 -0.3101,0.28192 -0.33829,0.33829 -0.73297,0.73297 -1.24041,1.01488 -0.25372,0.14096 -0.50744,0.22553 -0.76116,0.22553 -0.76117,0 -1.2968,-0.45106 -1.6351,-1.04308 -0.33829,-0.56382 -0.50744,-1.32498 -0.50744,-1.97338 l 0,-12.62966 2.84732,0 0,12.20679 c 0,0.59202 0.33829,0.67659 0.67658,0.67659 0.31011,0 0.47926,-0.16915 0.67659,-0.36648 0.0846,-0.0846 0.16915,-0.22553 0.25372,-0.36649 l 0,-12.15041" />
                    <path
                       inkscape:connector-curvature="0"
                       id="path3366"
                       style="font-family:League Gothic;-inkscape-font-specification:League Gothic"
                       d="m 660.62045,761.68507 c 0,0.56382 0.0282,1.24041 0.78935,1.24041 0.6484,0 0.81755,-0.3101 0.81755,-1.24041 l 0,-2.14253 2.84731,0 0,1.49413 c 0,1.71966 -0.3101,2.81912 -0.93031,3.49571 -0.62021,0.67659 -1.52233,0.93031 -2.73455,0.93031 -1.01488,0 -1.94519,-0.28191 -2.59359,-0.98669 -0.6484,-0.70478 -1.04307,-1.86062 -1.04307,-3.58029 l 0,-6.7377 c 0,-1.71966 0.39467,-2.8755 1.04307,-3.58028 0.6484,-0.70478 1.57871,-0.98669 2.59359,-0.98669 1.21222,0 2.11434,0.25372 2.73455,0.93031 0.62021,0.67659 0.93031,1.77605 0.93031,3.49571 l 0,1.21222 -2.84731,0 0,-1.86062 c 0,-0.93031 -0.16915,-1.24041 -0.81755,-1.24041 -0.76116,0 -0.78935,0.67659 -0.78935,1.24041 l 0,8.31641" />
                    <path
                       inkscape:connector-curvature="0"
                       id="path3368"
                       style="font-family:League Gothic;-inkscape-font-specification:League Gothic"
                       d="m 670.13762,746.01075 0,3.80582 1.9452,0 0,2.5654 -1.9452,0 0,7.66801 c 0,0.47925 0,1.09945 0.11277,1.6069 0.11276,0.50744 0.33829,0.93031 0.78935,0.93031 0.22553,0 0.50745,-0.0282 0.70478,-0.0564 0.11277,-0.0282 0.22553,-0.0282 0.3383,-0.0564 l 0,2.79093 c -0.14096,0.0282 -0.28191,0.0846 -0.42287,0.11277 -0.28191,0.0564 -0.6484,0.0846 -1.09946,0.0846 -1.66328,0 -2.45263,-0.84574 -2.84731,-1.917 -0.39468,-1.07127 -0.42287,-2.36807 -0.42287,-3.27018 l 0,-7.89354 -1.43775,0 0,-2.5654 1.43775,0 0,-3.80582 2.84731,0" />
                    <path
                       inkscape:connector-curvature="0"
                       id="path3370"
                       style="font-family:League Gothic;-inkscape-font-specification:League Gothic"
                       d="m 677.97876,749.81657 2.84731,0 0,15.42059 -2.84731,0 0,-1.2968 c -0.0564,0.0282 -0.16915,0.14096 -0.31011,0.28192 -0.33829,0.33829 -0.73297,0.73297 -1.24041,1.01488 -0.25372,0.14096 -0.50744,0.22553 -0.76116,0.22553 -0.76117,0 -1.2968,-0.45106 -1.63509,-1.04308 -0.3383,-0.56382 -0.50745,-1.32498 -0.50745,-1.97338 l 0,-12.62966 2.84732,0 0,12.20679 c 0,0.59202 0.33829,0.67659 0.67659,0.67659 0.3101,0 0.47925,-0.16915 0.67658,-0.36648 0.0846,-0.0846 0.16915,-0.22553 0.25373,-0.36649 l 0,-12.15041" />
                    <path
                       inkscape:connector-curvature="0"
                       id="path3372"
                       style="font-family:League Gothic;-inkscape-font-specification:League Gothic"
                       d="m 688.80109,752.74845 c -0.25372,-0.0846 -0.53563,-0.11276 -0.78935,-0.11276 -0.45106,0 -0.98669,0.0564 -1.43775,0.47925 -0.53563,0.45106 -0.62021,0.93031 -0.62021,1.40956 l 0,10.71266 -2.84731,0 0,-15.42059 2.84731,0 0,1.71966 c 0.0282,-0.19734 0.22553,-0.67659 0.67659,-1.12765 0.45106,-0.42287 1.12765,-0.81754 2.17072,-0.81754 l 0,3.15741" />
                    <path
                       inkscape:connector-curvature="0"
                       id="path3374"
                       style="font-family:League Gothic;-inkscape-font-specification:League Gothic"
                       d="m 694.13716,753.48142 c 0,-0.25372 0,-0.64839 -0.0846,-0.93031 -0.11277,-0.28191 -0.3383,-0.47925 -0.70478,-0.47925 -0.47925,0 -0.67659,0.36649 -0.76116,0.81755 -0.0282,0.22553 -0.0564,0.47925 -0.0564,0.73297 0,0.25372 0,0.50744 0,0.73297 l -2.84731,0 0,-0.6484 c 0,-1.12764 0.42287,-2.14253 1.09946,-2.90369 0.67659,-0.76116 1.63509,-1.21222 2.73455,-1.21222 0.9303,0 1.77604,0.36648 2.42444,0.98669 0.6484,0.62021 1.04307,1.49414 1.04307,2.50902 l 0,9.47224 c 0,1.38137 0.0846,2.00158 0.19734,2.67817 l -2.79093,0 c -0.25372,-0.3101 -0.25372,-1.04308 -0.25372,-1.24041 l -0.19734,0 c -0.14095,0.25372 -0.39467,0.6202 -0.78935,0.93031 -0.39468,0.3101 -0.93031,0.53563 -1.49413,0.53563 -0.36649,0 -0.95851,-0.14096 -1.40956,-0.70478 -0.47925,-0.53563 -0.87393,-1.49414 -0.87393,-3.10103 0,-1.71967 0.50744,-2.96008 1.18403,-3.80582 0.67659,-0.84573 1.52232,-1.38137 2.2271,-1.74785 0.70478,-0.36649 1.24042,-0.62021 1.35318,-0.93031 l 0,-1.69148 m 0,4.31326 c -1.38137,0.59201 -1.97338,1.97339 -1.97338,3.43933 0,0.19734 0.0282,0.53563 0.14095,0.84573 0.11277,0.3383 0.31011,0.59202 0.6484,0.59202 0.6484,0 1.18403,-0.39468 1.18403,-0.93031 l 0,-3.94677" />
                    <path
                       inkscape:connector-curvature="0"
                       id="path3376"
                       style="font-family:League Gothic;-inkscape-font-specification:League Gothic"
                       d="m 703.11209,753.76334 c 0,-0.36649 0,-0.81755 -0.11276,-1.18403 -0.14096,-0.3383 -0.36649,-0.62021 -0.81755,-0.62021 -0.36648,0 -0.59201,0.28191 -0.70478,0.62021 -0.14095,0.33829 -0.16915,0.81754 -0.16915,1.18403 0,0.47925 0.25373,0.98669 0.62021,1.43775 0.3383,0.45106 0.78936,0.90212 1.24041,1.32499 0.59202,0.59201 1.2968,1.2686 1.77605,2.02976 0.47925,0.78936 0.84574,1.66329 0.84574,2.67817 0,0.98669 -0.22553,2.02977 -0.78936,2.81912 -0.59201,0.81754 -1.49413,1.40956 -2.84731,1.40956 -1.71966,0 -2.73455,-0.78936 -3.29837,-1.74786 -0.56382,-0.9585 -0.67659,-2.14253 -0.67659,-2.96007 l 2.64997,0 c 0,0.42287 0.0282,1.01488 0.22553,1.46594 0.19734,0.47925 0.50745,0.87393 1.09946,0.87393 0.81755,0 0.98669,-0.9585 0.98669,-1.86062 0,-0.93031 -0.90212,-1.86062 -1.77604,-2.73455 -0.67659,-0.6484 -1.32499,-1.24041 -1.83243,-2.00158 -0.50744,-0.76116 -0.87393,-1.6069 -0.87393,-2.73454 0,-0.90212 0.16915,-1.9452 0.70478,-2.76274 0.53563,-0.78936 1.40956,-1.38137 2.76274,-1.40956 1.66328,-0.0282 2.59359,0.59201 3.07284,1.40956 0.47925,0.81754 0.56383,1.88881 0.56383,2.76274 l -2.64998,0" />
                  </g>
                </g>
                <g
                   id="g3426"
                   transform="translate(0,7.047803)">
                  <g
                     id="text3309"
                     style="font-size:28.1912117px;line-height:125%;fill:#000000;font-family:FontAwesome;-inkscape-font-specification:FontAwesome">
                    <path
                       id="path3414"
                       style="font-family:League Gothic;-inkscape-font-specification:League Gothic"
                       d="m 525.38936,691.3641 c 0.59202,0.0846 1.04308,-0.0564 1.38137,-0.50744 0.16915,-0.19734 0.25372,-0.53564 0.25372,-1.01489 l 0,-16.40728 3.04465,0 0,16.88653 c 0,1.12765 -0.28191,2.17073 -0.98669,2.93189 -0.70478,0.76116 -1.88881,1.21222 -3.69305,1.09946 l 0,-2.98827"
                       inkscape:connector-curvature="0" />
                    <path
                       id="path3416"
                       style="font-family:League Gothic;-inkscape-font-specification:League Gothic"
                       d="m 539.23213,690.4056 c -0.0846,1.49413 -0.53564,2.53721 -1.52233,3.35475 -0.50744,0.42287 -1.21222,0.62021 -2.14253,0.62021 -1.83243,0 -2.73455,-1.01489 -3.18561,-2.02977 -0.25372,-0.59201 -0.42286,-1.2686 -0.45106,-2.02977 l 0,-7.75258 c 0.0846,-1.49413 0.53564,-2.59359 1.52233,-3.43933 0.47925,-0.42286 1.18403,-0.6202 2.11434,-0.6202 1.83243,0 2.76274,1.01488 3.2138,2.00157 0.25372,0.59202 0.42287,1.24042 0.45106,1.97339 l 0,7.92173 m -2.67817,-7.83716 c 0.0282,-0.59201 -0.0846,-1.01488 -0.36648,-1.35318 -0.14096,-0.14095 -0.36649,-0.22553 -0.62021,-0.22553 -0.53563,0 -0.76116,0.36649 -0.87393,0.78936 -0.0846,0.22553 -0.11276,0.47925 -0.0846,0.78935 l 0,7.75258 c -0.0282,0.59202 0.11276,1.01489 0.36649,1.32499 0.14095,0.14096 0.33829,0.22553 0.59201,0.22553 0.53563,0 0.78935,-0.33829 0.90212,-0.76116 0.0846,-0.22553 0.11276,-0.47925 0.0846,-0.78936 l 0,-7.75258"
                       inkscape:connector-curvature="0" />
                    <path
                       id="path3418"
                       style="font-family:League Gothic;-inkscape-font-specification:League Gothic"
                       d="m 546.85389,681.66632 c -0.25372,-0.0846 -0.53564,-0.11276 -0.78936,-0.11276 -0.45106,0 -0.98669,0.0564 -1.43775,0.47925 -0.53563,0.45106 -0.62021,0.93031 -0.62021,1.40956 l 0,10.71266 -2.84731,0 0,-15.42059 2.84731,0 0,1.71966 c 0.0282,-0.19734 0.22553,-0.67659 0.67659,-1.12765 0.45106,-0.42287 1.12765,-0.81754 2.17073,-0.81754 l 0,3.15741"
                       inkscape:connector-curvature="0" />
                    <path
                       id="path3420"
                       style="font-family:League Gothic;-inkscape-font-specification:League Gothic"
                       d="m 555.1192,688.62955 0,1.77605 c -0.0846,1.49413 -0.53564,2.53721 -1.55052,3.35475 -0.50744,0.42287 -1.21222,0.62021 -2.14253,0.62021 -1.83243,0 -2.76274,-1.01489 -3.2138,-2.02977 -0.25372,-0.59201 -0.42287,-1.2686 -0.45106,-2.02977 l 0,-7.75258 c 0.0846,-1.49413 0.56383,-2.59359 1.57871,-3.43933 0.47925,-0.42286 1.18403,-0.6202 2.11434,-0.6202 1.83243,0 2.76274,1.01488 3.2138,2.00157 0.25372,0.59202 0.42287,1.24042 0.45106,1.97339 l 0,4.4824 -4.70793,0 0,3.35475 c 0.0282,0.59202 0.19733,1.01489 0.45105,1.32499 0.14096,0.14096 0.3383,0.22553 0.59202,0.22553 0.53563,0 0.78935,-0.33829 0.90212,-0.76116 0.0846,-0.22553 0.11276,-0.47925 0.11276,-0.78936 l 0,-1.69147 2.64998,0 m -4.70793,-3.89039 2.05795,0 0,-2.17072 c 0,-0.59201 -0.11276,-1.01488 -0.39467,-1.35318 -0.14096,-0.14095 -0.36649,-0.22553 -0.62021,-0.22553 -0.53563,0 -0.76116,0.36649 -0.90212,0.78936 -0.0846,0.22553 -0.11276,0.47925 -0.14095,0.78935 l 0,2.17072"
                       inkscape:connector-curvature="0" />
                    <path
                       id="path3422"
                       style="font-family:League Gothic;-inkscape-font-specification:League Gothic"
                       d="m 564.20426,688.62955 0,1.77605 c -0.0846,1.49413 -0.53564,2.53721 -1.55052,3.35475 -0.50744,0.42287 -1.21222,0.62021 -2.14253,0.62021 -1.83243,0 -2.76274,-1.01489 -3.2138,-2.02977 -0.25372,-0.59201 -0.42287,-1.2686 -0.45106,-2.02977 l 0,-7.75258 c 0.0846,-1.49413 0.56383,-2.59359 1.57871,-3.43933 0.47925,-0.42286 1.18403,-0.6202 2.11434,-0.6202 1.83243,0 2.76274,1.01488 3.2138,2.00157 0.25372,0.59202 0.42286,1.24042 0.45106,1.97339 l 0,4.4824 -4.70794,0 0,3.35475 c 0.0282,0.59202 0.19734,1.01489 0.45106,1.32499 0.14096,0.14096 0.3383,0.22553 0.59202,0.22553 0.53563,0 0.78935,-0.33829 0.90212,-0.76116 0.0846,-0.22553 0.11276,-0.47925 0.11276,-0.78936 l 0,-1.69147 2.64998,0 m -4.70794,-3.89039 2.05796,0 0,-2.17072 c 0,-0.59201 -0.11276,-1.01488 -0.39467,-1.35318 -0.14096,-0.14095 -0.36649,-0.22553 -0.62021,-0.22553 -0.53563,0 -0.76116,0.36649 -0.90212,0.78936 -0.0846,0.22553 -0.11277,0.47925 -0.14096,0.78935 l 0,2.17072"
                       inkscape:connector-curvature="0" />
                    <path
                       id="path3424"
                       style="font-family:League Gothic;-inkscape-font-specification:League Gothic"
                       d="m 568.94919,694.15503 -2.84731,0 0,-15.42059 2.84731,0 0,1.29679 c 0.0564,-0.0282 0.16915,-0.14095 0.33829,-0.3101 0.31011,-0.3101 0.73298,-0.73297 1.24042,-1.01488 0.25372,-0.14096 0.47925,-0.19734 0.73297,-0.19734 0.76116,0 1.29679,0.45106 1.63509,1.01488 0.33829,0.59202 0.50744,1.35318 0.50744,2.00158 l 0,12.62966 -2.84731,0 0,-12.2068 c 0,-0.59201 -0.3383,-0.67658 -0.67659,-0.67658 -0.3101,0 -0.47925,0.16914 -0.67659,0.36648 -0.0846,0.11277 -0.16915,0.22553 -0.25372,0.36649 l 0,12.15041"
                       inkscape:connector-curvature="0" />
                  </g>
                </g>
              </g>
            </g>
          </g>
        </g>
      </g>
    </g>
  </g>
</svg>
