<?xml version="1.0" encoding="UTF-8" standalone="no"?>
<!-- Created with Inkscape (http://www.inkscape.org/) -->

<svg
   xmlns:dc="http://purl.org/dc/elements/1.1/"
   xmlns:cc="http://creativecommons.org/ns#"
   xmlns:rdf="http://www.w3.org/1999/02/22-rdf-syntax-ns#"
   xmlns:svg="http://www.w3.org/2000/svg"
   xmlns="http://www.w3.org/2000/svg"
   xmlns:sodipodi="http://sodipodi.sourceforge.net/DTD/sodipodi-0.dtd"
   xmlns:inkscape="http://www.inkscape.org/namespaces/inkscape"
   width="372.04724"
   height="262.20471"
   id="svg2"
   version="1.1"
   inkscape:version="0.48.4 r9939"
   sodipodi:docname="single_los_nuevos_anarquistas.svg">
  <defs
     id="defs4" />
  <sodipodi:namedview
     id="base"
     pagecolor="#ffffff"
     bordercolor="#666666"
     borderopacity="1.0"
     inkscape:pageopacity="0.0"
     inkscape:pageshadow="2"
     inkscape:zoom="0.7"
     inkscape:cx="253.66704"
     inkscape:cy="261.44175"
     inkscape:document-units="mm"
     inkscape:current-layer="layer1"
     showgrid="false"
     showguides="true"
     inkscape:guide-bbox="true"
     units="mm"
     inkscape:window-width="1360"
     inkscape:window-height="749"
     inkscape:window-x="0"
     inkscape:window-y="19"
     inkscape:window-maximized="1">
    <sodipodi:guide
       orientation="1,0"
       position="372.04724,0"
       id="guide3168" />
    <sodipodi:guide
       orientation="0,1"
       position="72.857143,271.42857"
       id="guide3277" />
  </sodipodi:namedview>
  <metadata
     id="metadata7">
    <rdf:RDF>
      <cc:Work
         rdf:about="">
        <dc:format>image/svg+xml</dc:format>
        <dc:type
           rdf:resource="http://purl.org/dc/dcmitype/StillImage" />
        <dc:title></dc:title>
      </cc:Work>
    </rdf:RDF>
  </metadata>
  <g
     inkscape:label="Capa 1"
     inkscape:groupmode="layer"
     id="layer1"
     transform="translate(0,-790.15737)">
    <g
       id="layer1-8"
       inkscape:label="Capa 1"
       transform="matrix(0.16088167,0,0,0.16157504,44.613147,909.65661)">
      <rect
         style="fill:#d40000"
         id="rect3033"
         width="2312.552"
         height="1622.8047"
         x="-277.30411"
         y="-739.58978" />
      <g
         inkscape:export-ydpi="149"
         inkscape:export-xdpi="149"
         inkscape:export-filename="/srv/http/kiwwwi.com.ar/pastes/utopia-pirata-2.png"
         transform="matrix(0.67937345,0,0,0.67937345,-233.93427,225.03697)"
         id="g3847" />
    </g>
    <rect
       style="fill:#ffffff"
       id="rect3035"
       width="372.04724"
       height="173.31024"
       x="0"
       y="808.18567" />
    <g
       style="font-size:47.7713356px;font-style:normal;font-variant:normal;font-weight:normal;font-stretch:normal;line-height:125%;letter-spacing:0px;word-spacing:0px;fill:#000000;fill-opacity:1;stroke:none;font-family:League Gothic;-inkscape-font-specification:League Gothic"
       id="text3422">
      <path
         d="m 39.941363,886.74335 5.159305,0 0,30.3348 6.831301,0 0,4.77714 -11.990606,0 0,-35.11194"
         style=""
         id="path3494" />
      <path
         d="m 65.973009,915.5017 c -0.143314,2.53188 -0.907657,4.29942 -2.579652,5.68479 -0.859883,0.71657 -2.054169,1.05097 -3.630621,1.05097 -3.105134,0 -4.633821,-1.71977 -5.398161,-3.43954 -0.429942,-1.0032 -0.71657,-2.14971 -0.764342,-3.43954 l 0,-13.13711 c 0.143314,-2.53188 0.907657,-4.39497 2.579652,-5.82811 0.812112,-0.71657 2.006398,-1.05097 3.582851,-1.05097 3.105133,0 4.681591,1.71977 5.445932,3.39177 0.429941,1.0032 0.71657,2.10194 0.764341,3.34399 l 0,13.42375 m -4.538277,-13.28043 c 0.04777,-1.0032 -0.143314,-1.71977 -0.621027,-2.29303 -0.238857,-0.23885 -0.621028,-0.38217 -1.050969,-0.38217 -0.907655,0 -1.289827,0.62103 -1.480912,1.3376 -0.143314,0.38217 -0.191085,0.81211 -0.143314,1.3376 l 0,13.13711 c -0.04777,1.0032 0.191086,1.71977 0.621027,2.24526 0.238857,0.23885 0.573257,0.38217 1.003199,0.38217 0.907654,0 1.337597,-0.57326 1.528682,-1.28983 0.143314,-0.38217 0.191086,-0.81211 0.143314,-1.3376 l 0,-13.13711"
         style=""
         id="path3496" />
      <path
         d="m 76.454338,902.41235 c 0,-0.62102 0,-1.38537 -0.191085,-2.00639 -0.238857,-0.57326 -0.621028,-1.05097 -1.385369,-1.05097 -0.621027,0 -1.003198,0.47771 -1.194283,1.05097 -0.238857,0.57325 -0.286628,1.38537 -0.286628,2.00639 0,0.81211 0.429942,1.672 1.050969,2.43634 0.573255,0.76434 1.337598,1.52868 2.101939,2.24525 1.003197,1.0032 2.197482,2.14971 3.009594,3.43954 0.812112,1.3376 1.43314,2.81851 1.43314,4.53828 0,1.67199 -0.382172,3.43953 -1.337597,4.77713 -1.003197,1.38537 -2.531883,2.38857 -4.824905,2.38857 -2.914049,0 -4.633821,-1.3376 -5.589247,-2.96183 -0.955425,-1.62422 -1.146512,-3.63062 -1.146512,-5.01599 l 4.490506,0 c 0,0.71657 0.04777,1.71977 0.382171,2.48411 0.334399,0.81211 0.859885,1.48091 1.863082,1.48091 1.385367,0 1.671996,-1.62422 1.671996,-3.1529 0,-1.57646 -1.528684,-3.15291 -3.009594,-4.63382 -1.146511,-1.09874 -2.245253,-2.10194 -3.105136,-3.39177 -0.859884,-1.28982 -1.480912,-2.72297 -1.480912,-4.63382 0,-1.52868 0.286629,-3.29622 1.194284,-4.68159 0.907654,-1.33759 2.388569,-2.34079 4.68159,-2.38857 2.818506,-0.0478 4.394964,1.0032 5.207076,2.38857 0.812112,1.38537 0.955427,3.20068 0.955427,4.68159 l -4.490506,0"
         style=""
         id="path3498" />
      <path
         d="m 96.083132,921.85529 -4.824905,0 0,-26.13092 4.824905,0 0,2.19748 c 0.09554,-0.0478 0.286629,-0.23886 0.573256,-0.52549 0.525484,-0.52548 1.242056,-1.24205 2.101939,-1.71977 0.429942,-0.23885 0.812113,-0.3344 1.242053,-0.3344 1.28983,0 2.19748,0.76435 2.77074,1.71977 0.57325,1.0032 0.85988,2.29303 0.85988,3.39177 l 0,21.40156 -4.824902,0 0,-20.68499 c 0,-1.0032 -0.573256,-1.14651 -1.146512,-1.14651 -0.525484,0 -0.812113,0.28662 -1.146512,0.62102 -0.143314,0.19109 -0.286628,0.38217 -0.429942,0.62103 l 0,20.58945"
         style=""
         id="path3500" />
      <path
         d="m 114.85204,895.72437 4.82491,0 0,26.13092 -4.82491,0 0,-2.19749 c -0.0955,0.0478 -0.28663,0.23886 -0.52548,0.47772 -0.57326,0.57325 -1.24206,1.24205 -2.10194,1.71977 -0.42994,0.23885 -0.85989,0.38217 -1.28983,0.38217 -1.28982,0 -2.19748,-0.76435 -2.77073,-1.76754 -0.57326,-0.95543 -0.85989,-2.24526 -0.85989,-3.344 l 0,-21.40155 4.82491,0 0,20.68498 c 0,1.0032 0.57325,1.14652 1.14651,1.14652 0.52548,0 0.81211,-0.28663 1.14651,-0.62103 0.14331,-0.14332 0.28663,-0.38217 0.42994,-0.62103 l 0,-20.58944"
         style=""
         id="path3502" />
      <path
         d="m 135.44074,912.4921 0,3.0096 c -0.14331,2.53188 -0.90765,4.29942 -2.62742,5.68479 -0.85988,0.71657 -2.05417,1.05097 -3.63062,1.05097 -3.10514,0 -4.68159,-1.71977 -5.44594,-3.43954 -0.42994,-1.0032 -0.71657,-2.14971 -0.76434,-3.43954 l 0,-13.13711 c 0.14332,-2.53188 0.95543,-4.39497 2.6752,-5.82811 0.81211,-0.71657 2.0064,-1.05097 3.58285,-1.05097 3.10513,0 4.68159,1.71977 5.44593,3.39177 0.42994,1.0032 0.71657,2.10194 0.76434,3.34399 l 0,7.59565 -7.97781,0 0,5.68478 c 0.0478,1.0032 0.3344,1.71977 0.76434,2.24526 0.23886,0.23885 0.57326,0.38217 1.0032,0.38217 0.90765,0 1.3376,-0.57326 1.52868,-1.28983 0.14332,-0.38217 0.19109,-0.81211 0.19109,-1.3376 l 0,-2.86628 4.4905,0 m -7.97781,-6.59244 3.48731,0 0,-3.67839 c 0,-1.0032 -0.19109,-1.71977 -0.6688,-2.29303 -0.23886,-0.23885 -0.62103,-0.38217 -1.05097,-0.38217 -0.90766,0 -1.28983,0.62103 -1.52868,1.3376 -0.14332,0.38217 -0.19109,0.81211 -0.23886,1.3376 l 0,3.67839"
         style=""
         id="path3504" />
      <path
         d="m 141.19271,921.85529 -4.25165,-26.13092 4.68159,0 1.57646,15.14351 0.19108,1.672 0.38217,0 0.19109,-1.672 1.57645,-15.14351 4.68159,0 -4.25165,26.13092 -4.77713,0"
         style=""
         id="path3506" />
      <path
         d="m 164.31479,915.5017 c -0.14332,2.53188 -0.90766,4.29942 -2.57966,5.68479 -0.85988,0.71657 -2.05417,1.05097 -3.63062,1.05097 -3.10513,0 -4.63382,-1.71977 -5.39816,-3.43954 -0.42994,-1.0032 -0.71657,-2.14971 -0.76434,-3.43954 l 0,-13.13711 c 0.14331,-2.53188 0.90766,-4.39497 2.57965,-5.82811 0.81211,-0.71657 2.0064,-1.05097 3.58285,-1.05097 3.10514,0 4.68159,1.71977 5.44593,3.39177 0.42995,1.0032 0.71657,2.10194 0.76435,3.34399 l 0,13.42375 m -4.53828,-13.28043 c 0.0478,-1.0032 -0.14332,-1.71977 -0.62103,-2.29303 -0.23886,-0.23885 -0.62103,-0.38217 -1.05097,-0.38217 -0.90765,0 -1.28982,0.62103 -1.48091,1.3376 -0.14331,0.38217 -0.19109,0.81211 -0.14331,1.3376 l 0,13.13711 c -0.0478,1.0032 0.19108,1.71977 0.62102,2.24526 0.23886,0.23885 0.57326,0.38217 1.0032,0.38217 0.90766,0 1.3376,-0.57326 1.52868,-1.28983 0.14332,-0.38217 0.19109,-0.81211 0.14332,-1.3376 l 0,-13.13711"
         style=""
         id="path3508" />
      <path
         d="m 174.79612,902.41235 c 0,-0.62102 0,-1.38537 -0.19109,-2.00639 -0.23886,-0.57326 -0.62103,-1.05097 -1.38537,-1.05097 -0.62102,0 -1.0032,0.47771 -1.19428,1.05097 -0.23886,0.57325 -0.28663,1.38537 -0.28663,2.00639 0,0.81211 0.42994,1.672 1.05097,2.43634 0.57326,0.76434 1.3376,1.52868 2.10194,2.24525 1.0032,1.0032 2.19748,2.14971 3.00959,3.43954 0.81211,1.3376 1.43314,2.81851 1.43314,4.53828 0,1.67199 -0.38217,3.43953 -1.33759,4.77713 -1.0032,1.38537 -2.53189,2.38857 -4.82491,2.38857 -2.91405,0 -4.63382,-1.3376 -5.58925,-2.96183 -0.95542,-1.62422 -1.14651,-3.63062 -1.14651,-5.01599 l 4.49051,0 c 0,0.71657 0.0478,1.71977 0.38217,2.48411 0.3344,0.81211 0.85988,1.48091 1.86308,1.48091 1.38537,0 1.672,-1.62422 1.672,-3.1529 0,-1.57646 -1.52869,-3.15291 -3.0096,-4.63382 -1.14651,-1.09874 -2.24525,-2.10194 -3.10513,-3.39177 -0.85989,-1.28982 -1.48092,-2.72297 -1.48092,-4.63382 0,-1.52868 0.28663,-3.29622 1.19429,-4.68159 0.90765,-1.33759 2.38857,-2.34079 4.68159,-2.38857 2.81851,-0.0478 4.39496,1.0032 5.20707,2.38857 0.81212,1.38537 0.95543,3.20068 0.95543,4.68159 l -4.4905,0"
         style=""
         id="path3510" />
      <path
         d="m 196.90902,901.93464 c 0,-0.42994 0,-1.09874 -0.14331,-1.57646 -0.19109,-0.47771 -0.57326,-0.81211 -1.19428,-0.81211 -0.81212,0 -1.14652,0.62103 -1.28983,1.38537 -0.0478,0.38217 -0.0955,0.81211 -0.0955,1.24206 0,0.42994 0,0.85988 0,1.24205 l -4.82491,0 0,-1.09874 c 0,-1.91085 0.71657,-3.63062 1.86308,-4.92045 1.14652,-1.28982 2.77074,-2.05417 4.63382,-2.05417 1.57646,0 3.0096,0.62103 4.10834,1.672 1.09874,1.05097 1.76754,2.53188 1.76754,4.25165 l 0,16.05117 c 0,2.34079 0.14331,3.39176 0.3344,4.53828 l -4.72936,0 c -0.42995,-0.52549 -0.42995,-1.76754 -0.42995,-2.10194 l -0.3344,0 c -0.23885,0.42994 -0.6688,1.05097 -1.33759,1.57645 -0.6688,0.52549 -1.57646,0.90766 -2.53188,0.90766 -0.62103,0 -1.62423,-0.23886 -2.38857,-1.19429 -0.81211,-0.90765 -1.48091,-2.53188 -1.48091,-5.25484 0,-2.91405 0.85988,-5.016 2.00639,-6.44913 1.14651,-1.43314 2.57966,-2.3408 3.77394,-2.96183 1.19428,-0.62102 2.10194,-1.05097 2.29302,-1.57645 l 0,-2.86628 m 0,7.30901 c -2.34079,1.0032 -3.34399,3.344 -3.34399,5.82811 0,0.3344 0.0478,0.90765 0.23886,1.43314 0.19108,0.57325 0.52548,1.00319 1.09874,1.00319 1.09874,0 2.00639,-0.6688 2.00639,-1.57645 l 0,-6.68799"
         style=""
         id="path3512" />
      <path
         d="m 209.63336,921.85529 -4.8249,0 0,-26.13092 4.8249,0 0,2.19748 c 0.0956,-0.0478 0.28663,-0.23886 0.57326,-0.52549 0.52548,-0.52548 1.24206,-1.24205 2.10194,-1.71977 0.42994,-0.23885 0.81211,-0.3344 1.24205,-0.3344 1.28983,0 2.19749,0.76435 2.77074,1.71977 0.57326,1.0032 0.85989,2.29303 0.85989,3.39177 l 0,21.40156 -4.82491,0 0,-20.68499 c 0,-1.0032 -0.57326,-1.14651 -1.14651,-1.14651 -0.52549,0 -0.81211,0.28662 -1.14651,0.62102 -0.14332,0.19109 -0.28663,0.38217 -0.42995,0.62103 l 0,20.58945"
         style=""
         id="path3514" />
      <path
         d="m 227.97905,901.93464 c 0,-0.42994 0,-1.09874 -0.14332,-1.57646 -0.19108,-0.47771 -0.57325,-0.81211 -1.19428,-0.81211 -0.81211,0 -1.14651,0.62103 -1.28983,1.38537 -0.0478,0.38217 -0.0955,0.81211 -0.0955,1.24206 0,0.42994 0,0.85988 0,1.24205 l -4.82491,0 0,-1.09874 c 0,-1.91085 0.71658,-3.63062 1.86309,-4.92045 1.14651,-1.28982 2.77074,-2.05417 4.63382,-2.05417 1.57645,0 3.00959,0.62103 4.10833,1.672 1.09874,1.05097 1.76754,2.53188 1.76754,4.25165 l 0,16.05117 c 0,2.34079 0.14332,3.39176 0.3344,4.53828 l -4.72936,0 c -0.42994,-0.52549 -0.42994,-1.76754 -0.42994,-2.10194 l -0.3344,0 c -0.23886,0.42994 -0.6688,1.05097 -1.3376,1.57645 -0.6688,0.52549 -1.57646,0.90766 -2.53188,0.90766 -0.62103,0 -1.62423,-0.23886 -2.38857,-1.19429 -0.81211,-0.90765 -1.48091,-2.53188 -1.48091,-5.25484 0,-2.91405 0.85989,-5.016 2.0064,-6.44913 1.14651,-1.43314 2.57965,-2.3408 3.77393,-2.96183 1.19428,-0.62102 2.10194,-1.05097 2.29303,-1.57645 l 0,-2.86628 m 0,7.30901 c -2.3408,1.0032 -3.344,3.344 -3.344,5.82811 0,0.3344 0.0478,0.90765 0.23886,1.43314 0.19108,0.57325 0.52548,1.00319 1.09874,1.00319 1.09874,0 2.0064,-0.6688 2.0064,-1.57645 l 0,-6.68799"
         style=""
         id="path3516" />
      <path
         d="m 245.52829,900.69258 c -0.42994,-0.14331 -0.90765,-0.19108 -1.3376,-0.19108 -0.76434,0 -1.67199,0.0955 -2.43633,0.81211 -0.90766,0.76434 -1.05097,1.57646 -1.05097,2.38857 l 0,18.15311 -4.82491,0 0,-26.13092 4.82491,0 0,2.91405 c 0.0478,-0.3344 0.38217,-1.14652 1.14651,-1.91086 0.76434,-0.71657 1.91085,-1.38537 3.67839,-1.38537 l 0,5.35039"
         style=""
         id="path3518" />
      <path
         d="m 259.8164,930.8363 -4.82491,0 0,-10.70078 c -0.81211,0.76434 -1.52868,1.3376 -2.43633,1.76754 -0.47772,0.23885 -0.95543,0.3344 -1.38537,0.3344 -1.3376,0 -2.24526,-0.76435 -2.81851,-1.76754 -0.62103,-0.95543 -0.90766,-2.24526 -0.90766,-3.344 l 0,-16.67219 c 0,-1.09874 0.28663,-2.38857 0.90766,-3.39177 0.57325,-0.95542 1.48091,-1.71977 2.81851,-1.71977 0.90765,0 1.86308,0.52549 2.57965,1.05097 0.42994,0.3344 0.81211,0.6688 1.24205,1.05097 l 0,-1.71976 4.82491,0 0,35.11193 m -4.82491,-29.37937 c 0,-0.90766 -0.71657,-1.57646 -1.43314,-1.57646 -0.71657,0 -1.28982,0.6688 -1.28982,1.57646 l 0,14.6658 c 0,0.90765 0.57325,1.57645 1.28982,1.57645 0.71657,0 1.43314,-0.81211 1.43314,-1.57645 l 0,-14.6658"
         style=""
         id="path3520" />
      <path
         d="m 271.13522,895.72437 4.82491,0 0,26.13092 -4.82491,0 0,-2.19749 c -0.0955,0.0478 -0.28663,0.23886 -0.52548,0.47772 -0.57326,0.57325 -1.24206,1.24205 -2.10194,1.71977 -0.42994,0.23885 -0.85988,0.38217 -1.28983,0.38217 -1.28982,0 -2.19748,-0.76435 -2.77073,-1.76754 -0.57326,-0.95543 -0.85989,-2.24526 -0.85989,-3.344 l 0,-21.40155 4.82491,0 0,20.68498 c 0,1.0032 0.57325,1.14652 1.14651,1.14652 0.52548,0 0.81211,-0.28663 1.14651,-0.62103 0.14331,-0.14332 0.28663,-0.38217 0.42994,-0.62103 l 0,-20.58944"
         style=""
         id="path3522" />
      <path
         d="m 279.82439,886.74335 4.8249,0 0,4.82491 -4.8249,0 0,-4.82491 m 0,35.11194 0,-26.13092 4.8249,0 0,26.13092 -4.8249,0"
         style=""
         id="path3524" />
      <path
         d="m 295.5307,902.41235 c 0,-0.62102 0,-1.38537 -0.19109,-2.00639 -0.23885,-0.57326 -0.62103,-1.05097 -1.38537,-1.05097 -0.62102,0 -1.0032,0.47771 -1.19428,1.05097 -0.23886,0.57325 -0.28663,1.38537 -0.28663,2.00639 0,0.81211 0.42994,1.672 1.05097,2.43634 0.57326,0.76434 1.3376,1.52868 2.10194,2.24525 1.0032,1.0032 2.19748,2.14971 3.00959,3.43954 0.81212,1.3376 1.43314,2.81851 1.43314,4.53828 0,1.67199 -0.38217,3.43953 -1.33759,4.77713 -1.0032,1.38537 -2.53189,2.38857 -4.82491,2.38857 -2.91405,0 -4.63382,-1.3376 -5.58924,-2.96183 -0.95543,-1.62422 -1.14652,-3.63062 -1.14652,-5.01599 l 4.49051,0 c 0,0.71657 0.0478,1.71977 0.38217,2.48411 0.3344,0.81211 0.85988,1.48091 1.86308,1.48091 1.38537,0 1.672,-1.62422 1.672,-3.1529 0,-1.57646 -1.52869,-3.15291 -3.0096,-4.63382 -1.14651,-1.09874 -2.24525,-2.10194 -3.10513,-3.39177 -0.85989,-1.28982 -1.48091,-2.72297 -1.48091,-4.63382 0,-1.52868 0.28662,-3.29622 1.19428,-4.68159 0.90765,-1.33759 2.38857,-2.34079 4.68159,-2.38857 2.81851,-0.0478 4.39496,1.0032 5.20708,2.38857 0.81211,1.38537 0.95542,3.20068 0.95542,4.68159 l -4.4905,0"
         style=""
         id="path3526" />
      <path
         d="m 308.32522,889.27523 0,6.44914 3.29622,0 0,4.34719 -3.29622,0 0,12.9938 c 0,0.81211 0,1.86308 0.19109,2.72297 0.19108,0.85988 0.57325,1.57645 1.33759,1.57645 0.38217,0 0.85989,-0.0478 1.19429,-0.0955 0.19108,-0.0478 0.38217,-0.0478 0.57325,-0.0956 l 0,4.72937 c -0.23885,0.0478 -0.47771,0.14331 -0.71657,0.19108 -0.47771,0.0955 -1.09874,0.14332 -1.86308,0.14332 -2.8185,0 -4.1561,-1.43315 -4.8249,-3.24845 -0.6688,-1.81531 -0.71657,-4.0128 -0.71657,-5.54148 l 0,-13.37597 -2.43634,0 0,-4.34719 2.43634,0 0,-6.44914 4.8249,0"
         style=""
         id="path3528" />
      <path
         d="m 321.37574,901.93464 c 0,-0.42994 0,-1.09874 -0.14331,-1.57646 -0.19109,-0.47771 -0.57326,-0.81211 -1.19428,-0.81211 -0.81212,0 -1.14652,0.62103 -1.28983,1.38537 -0.0478,0.38217 -0.0955,0.81211 -0.0955,1.24206 0,0.42994 0,0.85988 0,1.24205 l -4.82491,0 0,-1.09874 c 0,-1.91085 0.71657,-3.63062 1.86308,-4.92045 1.14652,-1.28982 2.77074,-2.05417 4.63382,-2.05417 1.57646,0 3.0096,0.62103 4.10834,1.672 1.09874,1.05097 1.76754,2.53188 1.76754,4.25165 l 0,16.05117 c 0,2.34079 0.14331,3.39176 0.3344,4.53828 l -4.72936,0 c -0.42995,-0.52549 -0.42995,-1.76754 -0.42995,-2.10194 l -0.3344,0 c -0.23885,0.42994 -0.66879,1.05097 -1.33759,1.57645 -0.6688,0.52549 -1.57646,0.90766 -2.53188,0.90766 -0.62103,0 -1.62423,-0.23886 -2.38857,-1.19429 -0.81211,-0.90765 -1.48091,-2.53188 -1.48091,-5.25484 0,-2.91405 0.85988,-5.016 2.00639,-6.44913 1.14652,-1.43314 2.57966,-2.3408 3.77394,-2.96183 1.19428,-0.62102 2.10194,-1.05097 2.29302,-1.57645 l 0,-2.86628 m 0,7.30901 c -2.34079,1.0032 -3.34399,3.344 -3.34399,5.82811 0,0.3344 0.0478,0.90765 0.23886,1.43314 0.19108,0.57325 0.52548,1.00319 1.09874,1.00319 1.09874,0 2.00639,-0.6688 2.00639,-1.57645 l 0,-6.68799"
         style=""
         id="path3530" />
      <path
         d="m 336.58418,902.41235 c 0,-0.62102 0,-1.38537 -0.19109,-2.00639 -0.23885,-0.57326 -0.62102,-1.05097 -1.38537,-1.05097 -0.62102,0 -1.00319,0.47771 -1.19428,1.05097 -0.23885,0.57325 -0.28663,1.38537 -0.28663,2.00639 0,0.81211 0.42995,1.672 1.05097,2.43634 0.57326,0.76434 1.3376,1.52868 2.10194,2.24525 1.0032,1.0032 2.19748,2.14971 3.0096,3.43954 0.81211,1.3376 1.43314,2.81851 1.43314,4.53828 0,1.67199 -0.38218,3.43953 -1.3376,4.77713 -1.0032,1.38537 -2.53188,2.38857 -4.82491,2.38857 -2.91404,0 -4.63382,-1.3376 -5.58924,-2.96183 -0.95543,-1.62422 -1.14651,-3.63062 -1.14651,-5.01599 l 4.4905,0 c 0,0.71657 0.0478,1.71977 0.38217,2.48411 0.3344,0.81211 0.85989,1.48091 1.86308,1.48091 1.38537,0 1.672,-1.62422 1.672,-3.1529 0,-1.57646 -1.52868,-3.15291 -3.00959,-4.63382 -1.14651,-1.09874 -2.24526,-2.10194 -3.10514,-3.39177 -0.85988,-1.28982 -1.48091,-2.72297 -1.48091,-4.63382 0,-1.52868 0.28663,-3.29622 1.19428,-4.68159 0.90766,-1.33759 2.38857,-2.34079 4.68159,-2.38857 2.81851,-0.0478 4.39497,1.0032 5.20708,2.38857 0.81211,1.38537 0.95542,3.20068 0.95542,4.68159 l -4.4905,0"
         style=""
         id="path3532" />
    </g>
    <g
       style="font-size:28.29599571px;font-style:normal;font-variant:normal;font-weight:normal;font-stretch:normal;line-height:125%;letter-spacing:0px;word-spacing:0px;fill:#000000;fill-opacity:1;stroke:none;font-family:League Gothic;-inkscape-font-specification:League Gothic"
       id="text3426">
      <path
         d="m 39.941372,878.38824 0,-20.79755 2.40516,0 c 2.829596,0 4.357584,0.56592 5.178167,2.15049 0.792287,1.58458 0.905472,4.18781 0.905472,8.26243 0,4.07462 -0.113185,6.64956 -0.905472,8.23414 -0.820583,1.58457 -2.348571,2.15049 -5.178167,2.15049 l -2.40516,0 m 3.055968,-3.05596 c 1.04695,0 1.641168,-0.11319 1.952423,-1.13184 0.14148,-0.48103 0.254664,-1.21673 0.28296,-2.20709 0.0283,-0.99036 0.0283,-2.32027 0.0283,-4.01803 0,-1.69776 0,-3.02767 -0.0283,-4.01803 -0.0283,-0.96207 -0.14148,-1.69776 -0.28296,-2.20709 -0.311255,-0.99036 -0.905473,-1.10354 -1.952423,-1.10354 l 0,14.68562"
         style=""
         id="path3469" />
      <path
         d="m 54.771127,866.58881 c 0,-0.25466 0,-0.6508 -0.08489,-0.93376 -0.113184,-0.28296 -0.339553,-0.48104 -0.7074,-0.48104 -0.481032,0 -0.679104,0.36785 -0.763992,0.82059 -0.0283,0.22637 -0.05659,0.48103 -0.05659,0.73569 0,0.25467 0,0.50933 0,0.7357 l -2.857896,0 0,-0.65081 c 0,-1.13184 0.424441,-2.15049 1.103544,-2.91449 0.679103,-0.76399 1.641169,-1.21672 2.744712,-1.21672 0.933767,0 1.782648,0.36785 2.433455,0.99036 0.650808,0.62251 1.046952,1.49969 1.046952,2.51834 l 0,9.50746 c 0,1.3865 0.08489,2.00901 0.198072,2.68811 l -2.801303,0 c -0.254664,-0.31125 -0.254664,-1.04695 -0.254664,-1.24502 l -0.198072,0 c -0.14148,0.25466 -0.396145,0.62251 -0.792288,0.93377 -0.396144,0.31125 -0.933769,0.53762 -1.499688,0.53762 -0.367848,0 -0.962064,-0.14148 -1.4148,-0.7074 -0.481031,-0.53762 -0.877176,-1.49969 -0.877176,-3.11256 0,-1.72605 0.509329,-2.97108 1.188432,-3.81996 0.679103,-0.84888 1.527985,-1.3865 2.235384,-1.75435 0.707399,-0.36785 1.245024,-0.62251 1.358208,-0.93377 l 0,-1.69776 m 0,4.32929 c -1.386503,0.59422 -1.98072,1.98072 -1.98072,3.45211 0,0.19808 0.0283,0.53763 0.14148,0.84888 0.113184,0.33955 0.311256,0.59422 0.650808,0.59422 0.650807,0 1.188432,-0.39615 1.188432,-0.93377 l 0,-3.96144"
         style=""
         id="path3471" />
      <path
         d="m 61.063006,878.38824 -2.518344,-15.47791 2.773008,0 0.933768,8.96984 0.113184,0.99036 0.226368,0 0.113184,-0.99036 0.933768,-8.96984 2.773007,0 -2.518343,15.47791 -2.8296,0"
         style=""
         id="path3473" />
      <path
         d="m 67.795242,857.59069 2.857896,0 0,2.85789 -2.857896,0 0,-2.85789 m 0,20.79755 0,-15.47791 2.857896,0 0,15.47791 -2.857896,0"
         style=""
         id="path3475" />
      <path
         d="m 80.150423,878.38824 -2.857895,0 0,-1.01865 c -0.481032,0.45273 -0.905473,0.79229 -1.443096,1.04695 -0.28296,0.14148 -0.56592,0.19807 -0.820584,0.19807 -0.792287,0 -1.329912,-0.45273 -1.669464,-1.04695 -0.367847,-0.56592 -0.537624,-1.32991 -0.537624,-1.98072 l 0,-9.8753 c 0,-0.65081 0.169777,-1.4148 0.537624,-2.00902 0.339552,-0.56592 0.877177,-1.01865 1.669464,-1.01865 0.537623,0 1.103544,0.31125 1.527984,0.62251 0.254663,0.19807 0.481032,0.39614 0.735696,0.62251 l 0,-6.3383 2.857895,0 0,20.79755 m -2.857895,-12.08239 c 0,-0.45273 -0.424441,-0.93376 -0.84888,-0.93376 -0.42444,0 -0.763992,0.39614 -0.763992,0.93376 l 0,8.68688 c 0,0.53762 0.339552,0.93376 0.763992,0.93376 0.424439,0 0.84888,-0.39614 0.84888,-0.93376 l 0,-8.68688"
         style=""
         id="path3477" />
      <path
         d="m 91.701821,865.06083 0,-3.19745 c 0,-0.56592 -0.113184,-0.96206 -0.396144,-1.30161 -0.14148,-0.14148 -0.367848,-0.22637 -0.622512,-0.22637 -0.537623,0 -0.792288,0.39614 -0.905471,0.76399 -0.08489,0.22637 -0.113184,0.48103 -0.113184,0.76399 l 0,12.50683 c 0,0.59422 0.14148,0.99036 0.42444,1.30162 0.141479,0.14148 0.339552,0.22637 0.594215,0.22637 0.537624,0 0.792288,-0.33956 0.905472,-0.76399 0.08489,-0.19808 0.113184,-0.45274 0.113184,-0.764 l 0,-3.76336 -1.216728,0 0,-2.57494 4.272696,0 0,10.35633 -1.810944,0 -0.367848,-0.99036 c -0.565919,0.7074 -1.386505,1.21673 -2.376864,1.21673 -0.990358,0 -1.669464,-0.25466 -2.178791,-0.7074 -0.509328,-0.42444 -0.84888,-0.96206 -1.075248,-1.52798 -0.254664,-0.65081 -0.367848,-1.4148 -0.339552,-2.26368 l 0,-12.25217 c 0.0283,-0.82058 0.198072,-1.58457 0.509328,-2.23538 0.254664,-0.56592 0.622512,-1.13184 1.188432,-1.55628 0.565919,-0.42444 1.358209,-0.7074 2.376863,-0.7074 1.018655,0 1.782649,0.28296 2.348568,0.7074 0.565919,0.42444 0.962064,0.99036 1.216728,1.55628 0.311256,0.65081 0.481032,1.4148 0.509328,2.23538 l 0,3.19745 -3.055968,0"
         style=""
         id="path3479" />
      <path
         d="m 102.69128,865.85312 c -0.25467,-0.0849 -0.53763,-0.11319 -0.79229,-0.11319 -0.45274,0 -0.99036,0.0566 -1.4431,0.48104 -0.537619,0.45273 -0.622508,0.93376 -0.622508,1.4148 l 0,10.75247 -2.857895,0 0,-15.47791 2.857895,0 0,1.72606 c 0.0283,-0.19807 0.226368,-0.6791 0.679108,-1.13184 0.45273,-0.42444 1.13184,-0.82058 2.17879,-0.82058 l 0,3.16915"
         style=""
         id="path3481" />
      <path
         d="m 108.04718,866.58881 c 0,-0.25466 0,-0.6508 -0.0849,-0.93376 -0.11318,-0.28296 -0.33955,-0.48104 -0.7074,-0.48104 -0.48103,0 -0.6791,0.36785 -0.76399,0.82059 -0.0283,0.22637 -0.0566,0.48103 -0.0566,0.73569 0,0.25467 0,0.50933 0,0.7357 l -2.8579,0 0,-0.65081 c 0,-1.13184 0.42444,-2.15049 1.10355,-2.91449 0.6791,-0.76399 1.64116,-1.21672 2.74471,-1.21672 0.93376,0 1.78265,0.36785 2.43345,0.99036 0.65081,0.62251 1.04695,1.49969 1.04695,2.51834 l 0,9.50746 c 0,1.3865 0.0849,2.00901 0.19808,2.68811 l -2.80131,0 c -0.25466,-0.31125 -0.25466,-1.04695 -0.25466,-1.24502 l -0.19807,0 c -0.14148,0.25466 -0.39615,0.62251 -0.79229,0.93377 -0.39614,0.31125 -0.93377,0.53762 -1.49969,0.53762 -0.36785,0 -0.96206,-0.14148 -1.4148,-0.7074 -0.48103,-0.53762 -0.87717,-1.49969 -0.87717,-3.11256 0,-1.72605 0.50932,-2.97108 1.18843,-3.81996 0.6791,-0.84888 1.52798,-1.3865 2.23538,-1.75435 0.7074,-0.36785 1.24503,-0.62251 1.35821,-0.93377 l 0,-1.69776 m 0,4.32929 c -1.3865,0.59422 -1.98072,1.98072 -1.98072,3.45211 0,0.19808 0.0283,0.53763 0.14148,0.84888 0.11318,0.33955 0.31126,0.59422 0.65081,0.59422 0.6508,0 1.18843,-0.39615 1.18843,-0.93377 l 0,-3.96144"
         style=""
         id="path3483" />
      <path
         d="m 119.99561,872.84223 0,1.78265 c -0.0849,1.49968 -0.53763,2.54664 -1.55628,3.36722 -0.50933,0.42444 -1.21673,0.62251 -2.1505,0.62251 -1.83924,0 -2.77301,-1.01865 -3.22574,-2.03731 -0.25467,-0.59421 -0.42444,-1.27332 -0.45274,-2.03731 l 0,-7.7814 c 0.0849,-1.49969 0.56592,-2.60323 1.58458,-3.45211 0.48103,-0.42444 1.18843,-0.62251 2.1222,-0.62251 1.83923,0 2.77301,1.01865 3.22574,2.00901 0.25466,0.59422 0.42444,1.24503 0.45274,1.98072 l 0,4.49907 -4.72543,0 0,3.36722 c 0.0283,0.59421 0.19807,1.01866 0.45273,1.32991 0.14148,0.14148 0.33955,0.22637 0.59422,0.22637 0.53762,0 0.79229,-0.33955 0.90547,-0.76399 0.0849,-0.22637 0.11318,-0.48104 0.11318,-0.79229 l 0,-1.69776 2.65983,0 m -4.72543,-3.90485 2.0656,0 0,-2.17879 c 0,-0.59421 -0.11318,-1.01866 -0.39614,-1.35821 -0.14148,-0.14148 -0.36785,-0.22637 -0.62251,-0.22637 -0.53763,0 -0.76399,0.36785 -0.90547,0.79229 -0.0849,0.22637 -0.11319,0.48103 -0.14148,0.79229 l 0,2.17879"
         style=""
         id="path3485" />
      <path
         d="m 121.95555,857.59069 2.85789,0 0,6.3383 c 0.48103,-0.45273 0.90548,-0.79229 1.47139,-1.04695 0.25467,-0.14148 0.53763,-0.19807 0.79229,-0.19807 0.79229,0 1.32991,0.45273 1.69776,1.01865 0.33955,0.59422 0.50933,1.35821 0.50933,2.00902 l 0,9.8753 c 0,0.65081 -0.16978,1.4148 -0.50933,1.98072 -0.36785,0.59422 -0.90547,1.04695 -1.69776,1.04695 -0.53762,0 -1.10354,-0.31125 -1.52798,-0.62251 -0.25466,-0.19807 -0.48103,-0.39614 -0.7357,-0.62251 l 0,1.01865 -2.85789,0 0,-20.79755 m 2.85789,17.40204 c 0,0.53762 0.42444,0.93376 0.84888,0.93376 0.42444,0 0.76399,-0.39614 0.76399,-0.93376 l 0,-8.68688 c 0,-0.53762 -0.33955,-0.93376 -0.76399,-0.93376 -0.42444,0 -0.84888,0.48103 -0.84888,0.93376 l 0,8.68688"
         style=""
         id="path3487" />
      <path
         d="m 138.62012,872.84223 0,1.78265 c -0.0849,1.49968 -0.53763,2.54664 -1.55628,3.36722 -0.50933,0.42444 -1.21673,0.62251 -2.1505,0.62251 -1.83924,0 -2.77301,-1.01865 -3.22574,-2.03731 -0.25466,-0.59421 -0.42444,-1.27332 -0.45274,-2.03731 l 0,-7.7814 c 0.0849,-1.49969 0.56592,-2.60323 1.58458,-3.45211 0.48103,-0.42444 1.18843,-0.62251 2.1222,-0.62251 1.83924,0 2.77301,1.01865 3.22574,2.00901 0.25467,0.59422 0.42444,1.24503 0.45274,1.98072 l 0,4.49907 -4.72543,0 0,3.36722 c 0.0283,0.59421 0.19807,1.01866 0.45273,1.32991 0.14148,0.14148 0.33956,0.22637 0.59422,0.22637 0.53762,0 0.79229,-0.33955 0.90547,-0.76399 0.0849,-0.22637 0.11318,-0.48104 0.11318,-0.79229 l 0,-1.69776 2.65983,0 m -4.72543,-3.90485 2.0656,0 0,-2.17879 c 0,-0.59421 -0.11318,-1.01866 -0.39614,-1.35821 -0.14148,-0.14148 -0.36785,-0.22637 -0.62251,-0.22637 -0.53762,0 -0.76399,0.36785 -0.90547,0.79229 -0.0849,0.22637 -0.11319,0.48103 -0.14148,0.79229 l 0,2.17879"
         style=""
         id="path3489" />
      <path
         d="m 146.24058,865.85312 c -0.25466,-0.0849 -0.53762,-0.11319 -0.79228,-0.11319 -0.45274,0 -0.99037,0.0566 -1.4431,0.48104 -0.53762,0.45273 -0.62251,0.93376 -0.62251,1.4148 l 0,10.75247 -2.8579,0 0,-15.47791 2.8579,0 0,1.72606 c 0.0283,-0.19807 0.22637,-0.6791 0.6791,-1.13184 0.45274,-0.42444 1.13184,-0.82058 2.17879,-0.82058 l 0,3.16915"
         style=""
         id="path3491" />
    </g>
  </g>
</svg>
