<?xml version="1.0" encoding="UTF-8" standalone="no"?>
<!-- Created with Inkscape (http://www.inkscape.org/) -->

<svg
   xmlns:dc="http://purl.org/dc/elements/1.1/"
   xmlns:cc="http://creativecommons.org/ns#"
   xmlns:rdf="http://www.w3.org/1999/02/22-rdf-syntax-ns#"
   xmlns:svg="http://www.w3.org/2000/svg"
   xmlns="http://www.w3.org/2000/svg"
   xmlns:sodipodi="http://sodipodi.sourceforge.net/DTD/sodipodi-0.dtd"
   xmlns:inkscape="http://www.inkscape.org/namespaces/inkscape"
   width="210mm"
   height="148mm"
   id="svg2"
   version="1.1"
   inkscape:version="0.92.1 r"
   sodipodi:docname="software_libre.svg">
  <defs
     id="defs4" />
  <sodipodi:namedview
     id="base"
     pagecolor="#ffffff"
     bordercolor="#666666"
     borderopacity="1.0"
     inkscape:pageopacity="0.0"
     inkscape:pageshadow="2"
     inkscape:zoom="0.50799626"
     inkscape:cx="343.46417"
     inkscape:cy="320.0438"
     inkscape:document-units="mm"
     inkscape:current-layer="layer1"
     showgrid="false"
     showguides="true"
     inkscape:guide-bbox="true"
     units="mm"
     inkscape:window-width="1280"
     inkscape:window-height="758"
     inkscape:window-x="0"
     inkscape:window-y="42"
     inkscape:window-maximized="0">
    <sodipodi:guide
       orientation="1,0"
       position="396.85039,279.68503"
       id="guide3168"
       inkscape:locked="false" />
    <sodipodi:guide
       orientation="0,1"
       position="559.37008,279.68503"
       id="guide3277"
       inkscape:locked="false" />
  </sodipodi:namedview>
  <metadata
     id="metadata7">
    <rdf:RDF>
      <cc:Work
         rdf:about="">
        <dc:format>image/svg+xml</dc:format>
        <dc:type
           rdf:resource="http://purl.org/dc/dcmitype/StillImage" />
        <dc:title></dc:title>
      </cc:Work>
    </rdf:RDF>
  </metadata>
  <g
     inkscape:label="Capa 1"
     inkscape:groupmode="layer"
     id="layer1"
     transform="translate(0,-563.14955)">
    <rect
       y="563.1496"
       x="-7.5134636e-07"
       height="559.37006"
       width="793.70081"
       id="rect3033"
       style="fill:#164450;stroke-width:1.0634563" />
    <g
       id="g3847"
       transform="matrix(0.10929874,0,0,0.10976979,404.29296,1009.0848)"
       inkscape:export-filename="/srv/http/kiwwwi.com.ar/pastes/utopia-pirata-2.png"
       inkscape:export-xdpi="149"
       inkscape:export-ydpi="149" />
    <rect
       style="fill:#ffffff;stroke-width:1.06666672"
       id="rect3035"
       width="793.70081"
       height="184.86488"
       x="3.1475327e-07"
       y="628.46552" />
    <g
       style="stroke:none"
       transform="matrix(0.15508605,0,0,0.15575444,594.25513,935.96338)"
       id="g3851"
       inkscape:export-filename="/srv/http/kiwwwi.com.ar/pastes/utopia-pirata-2.png"
       inkscape:export-xdpi="149"
       inkscape:export-ydpi="149">
      <path
         style="fill:#ffffff;stroke:none;stroke-width:0.751746"
         inkscape:connector-curvature="0"
         id="path719"
         d="m 971.56397,650.69769 c -16,22.4 -33.3504,41.38026 -52.26667,64 l -25.6,28.8 c -21.33333,20.26666 -74.66667,59.73333 -99.2,75.73333 -13.86667,9.6 -28.8,17.06667 -43.73333,23.46667 l -19.47734,9.42933 c 3.2,3.2 9.152,4.9504 14.5376,7.46667 3.2,0 14.53974,-6.22934 17.73974,-8.36267 l 34.13333,-19.2 c 6.4,-4.26667 12.8,-9.6 20.26667,-10.66667 -3.2,7.46667 -10.66667,11.73334 -18.13334,16 l -20.26666,11.73334 c 0,0 -21.28107,12.128 -24.192,14.144 5.8336,2.304 14.592,4.9504 20.14826,7.18933 5.33334,0 12.57707,-5.33333 16.84374,-7.46667 11.73333,-6.4 26.66666,-16 38.4,-24.53333 l 19.2,-12.8 c 14.93333,-11.73333 29.86666,-24.53333 43.73333,-38.4 10.66667,-9.6 21.33333,-19.2 29.86667,-30.93333 11.73333,-13.86667 19.2,-29.86667 27.73333,-45.86667 9.6,-14.93333 12.8,-24.53333 18.13333,-40.53333 1.06667,-5.33334 4.26667,-13.86667 2.13334,-19.2 z" />
      <path
         style="fill:#ffffff;stroke:none;stroke-width:0.751746"
         inkscape:connector-curvature="0"
         id="path725"
         d="m 481.96397,645.36435 c -3.2,11.73334 1.06666,25.6 5.33333,36.26667 9.6,25.6 25.6,48 41.6,69.33333 9.6,13.86667 25.6,30.93334 37.33333,42.66667 l 12.8,10.66667 27.73334,24.53333 c 22.4,17.06667 64,42.66667 89.6,54.4 l 34.13333,14.93333 13.86667,5.33334 c 16,6.4 32,10.66666 49.06666,13.86666 9.6,2.13334 20.26667,5.33334 29.86667,5.33334 -3.2,-11.73334 -9.6,-10.66667 -19.2,-13.86667 l -35.2,-13.86667 c -49.06667,-20.26666 -103.46667,-40.53333 -141.86667,-78.93333 7.46667,0 12.8,6.4 18.13334,10.66667 7.46666,5.33333 17.06666,11.73333 25.6,17.06666 23.46666,13.86667 76.8,38.4 103.46666,48 10.66667,4.26667 28.8,11.73334 39.46667,11.73334 8.53333,1.06666 20.26667,-4.26667 26.66667,-8.53334 -4.26667,-4.26666 -8.53334,-3.2 -14.93334,-4.26666 l -33.06666,-9.6 c -28.8,-7.46667 -56.53334,-18.13334 -83.2,-32 l -14.93334,-6.4 -20.26666,-12.8 -24.53334,-16 -25.6,-20.26667 -43.73333,-34.13333 -40.53333,-41.6 -20.26667,-23.46667 -21.33333,-23.46667 z" />
      <path
         style="fill:#ffffff;stroke:none;stroke-width:0.751746"
         inkscape:connector-curvature="0"
         id="path731"
         d="m 824.36397,908.83102 c 2.13333,4.26667 6.4,10.66667 6.4,16 0,11.73333 -13.86667,22.4 -24.53334,21.33333 -4.26666,-1.06666 -13.86666,-6.4 -17.06666,0 -1.06667,2.13334 -1.06667,4.26667 0,5.33334 0,4.26666 5.33333,6.4 9.6,8.53333 11.73333,3.2 24.53333,-1.06667 34.13333,-7.46667 7.46667,-4.26666 12.8,-11.73333 14.93333,-20.26666 l 2.13334,-13.86667 c 1.06666,-4.26667 5.33333,-5.33333 10.66666,-12.8 6.4,-8.53333 12.8,-23.46667 21.33334,-29.86667 3.2,-2.13333 6.4,-3.2 10.66666,-4.26666 -2.13333,-3.2 -4.26666,-5.33334 -6.4,-8.53334 -2.13333,-1.06666 -4.26666,-3.2 -6.4,-3.2 -3.2,-1.06666 -7.46666,-1.06666 -10.66666,1.06667 -14.93334,7.46667 -11.73334,21.33333 -20.26667,32 -6.4,8.53333 -13.86667,12.8 -24.53333,16 z" />
      <path
         style="fill:#ffffff;stroke:none;stroke-width:0.751746"
         inkscape:connector-curvature="0"
         id="path737"
         d="m 858.4973,922.69769 c 7.46667,3.2 13.86667,2.13333 21.33333,2.13333 l 16,1.06667 c 7.46667,0 9.6,-4.26667 12.8,-10.66667 1.06667,-2.13333 2.13334,-6.4 0,-8.53333 -2.13333,-2.13334 -6.4,-2.13334 -9.6,-2.13334 l -18.13333,1.06667 c -3.2,0 -8.53333,0 -11.73333,1.06667 -5.33334,3.2 -9.6,10.66666 -10.66667,16 z" />
      <path
         style="fill:#ffffff;stroke:none;stroke-width:0.751746"
         inkscape:connector-curvature="0"
         id="path743"
         d="m 916.0973,937.63102 c -5.33333,-2.13333 -8.53333,-4.26667 -11.73333,-8.53333 -1.06667,1.06666 -2.13334,1.06666 -3.2,2.13333 -1.06667,5.33333 12.8,18.13333 14.93333,6.4 z" />
      <path
         style="fill:#ffffff;stroke:none;stroke-width:0.751746"
         inkscape:connector-curvature="0"
         id="path744"
         d="m 908.63063,901.36435 8.53334,5.33334 c -2.13334,4.26666 -7.46667,12.8 -6.4,18.13333 1.06666,10.66667 16,10.66667 22.4,4.26667 7.46666,-8.53334 7.46666,-21.33334 -3.2,-27.73334 -6.4,-3.2 -13.86667,-2.13333 -21.33334,0 z" />
      <path
         style="fill:#ffffff;stroke:none;stroke-width:0.751746"
         inkscape:connector-curvature="0"
         id="selection_x5F_to_x5F_path_x23_5"
         d="m 525.6973,931.23102 1.06667,1.06667 c 8.53333,-2.13334 13.86666,-5.33334 14.93333,-13.86667 -6.4,1.06667 -12.8,7.46667 -16,12.8 z" />
      <path
         style="fill:#ffffff;stroke:none;stroke-width:0.751746"
         inkscape:connector-curvature="0"
         id="selection_x5F_to_x5F_path_x23_4"
         d="m 533.16397,891.76435 c -3.2,-2.13333 -6.4,-3.2 -10.66667,-3.2 -3.2,0 -6.4,0 -9.6,1.06667 -10.66667,4.26667 -11.73333,21.33333 -3.2,28.8 4.26667,4.26667 14.93333,6.4 19.2,1.06667 4.26667,-4.26667 3.2,-9.6 1.06667,-14.93334 -1.06667,-3.2 -3.2,-7.46666 -1.06667,-9.6 1.06667,-2.13333 3.2,-2.13333 4.26667,-3.2 z" />
      <path
         style="fill:#ffffff;stroke:none;stroke-width:0.751746"
         inkscape:connector-curvature="0"
         id="selection_x5F_to_x5F_path_x23_3"
         d="m 532.0973,896.03102 c 1.06667,3.2 6.4,16 8.53333,18.13333 3.2,2.13334 6.4,2.13334 9.6,2.13334 l 19.2,-1.06667 h 13.86667 c 0,-3.2 0,-6.4 -1.06667,-8.53333 -3.2,-8.53334 -14.93333,-12.8 -23.46666,-12.8 l -9.6,1.06666 c -6.4,0 -11.73334,-1.06666 -17.06667,1.06667 z" />
      <path
         style="fill:#ffffff;stroke:none;stroke-width:0.751746"
         inkscape:connector-curvature="0"
         id="selection_x5F_to_x5F_path_x23_2"
         d="m 552.36397,861.89769 c 20.26666,5.33333 20.26666,22.4 28.8,34.13333 3.2,4.26667 11.73333,10.66667 12.8,14.93333 1.06666,3.2 0,4.26667 1.06666,11.73334 2.13334,9.6 8.53334,19.2 17.06667,24.53333 9.6,6.4 18.13333,10.66667 29.86667,7.46667 6.4,-2.13334 12.8,-6.4 9.6,-13.86667 -3.2,-7.46667 -14.93334,0 -22.4,-2.13333 -7.46667,-3.2 -16,-13.86667 -16,-22.4 l 4.26666,-14.93334 c -11.73333,-4.26666 -25.6,-13.86666 -30.93333,-25.6 -3.2,-7.46666 -3.2,-18.13333 -8.53333,-23.46666 -9.6,-7.46667 -22.4,-1.06667 -25.6,9.6 z" />
      <path
         style="fill:#ffffff;stroke:none;stroke-width:0.751746"
         inkscape:connector-curvature="0"
         id="path758"
         d="m 603.56397,886.43102 c 3.2,4.26667 5.33333,5.33333 9.6,7.46667 14.93333,8.53333 24.53333,2.13333 39.46666,-1.06667 l 30.93334,-9.6 c -4.096,-2.752 -13.248,-8.48 -17.06667,-10.66667 l -20.26667,5.33334 z" />
      <path
         style="fill:#ffffff;stroke:none;stroke-width:0.751746"
         inkscape:connector-curvature="0"
         id="path759"
         d="m 618.4973,917.36435 c 27.73333,0 53.33333,-8.53333 80,-14.93333 0,0 11.73333,-5.55307 15.6544,-5.55307 -3.70133,-2.6976 -18.7968,-8.1472 -21.1584,-10.27626 -3.2,0.94933 -15.82933,5.16266 -20.096,6.22933 l -26.66667,7.46667 -12.8,3.2 c -7.46666,3.2 -12.8,4.26666 -14.93333,13.86666 z" />
    </g>
    <ellipse
       id="circle3807"
       cy="1024.406"
       cx="706.93512"
       style="fill:none;stroke:#ffffff;stroke-width:2.33672571"
       rx="17.828695"
       ry="17.905529" />
    <path
       id="path3809"
       d="m 706.78943,1013.2152 c -5.2802,0 -9.70433,3.6934 -10.85155,8.6474 h 5.32453 c 0.96079,-2.1013 3.07525,-3.5606 5.52702,-3.5606 3.35516,0 6.07805,2.7346 6.07805,6.1041 0,3.3694 -2.72289,6.1042 -6.07805,6.1042 -2.45177,0 -4.56639,-1.4595 -5.52702,-3.5608 h -5.32453 c 1.14722,4.954 5.57135,8.6474 10.85155,8.6474 6.15101,0 11.14287,-5.0135 11.14287,-11.1908 0,-6.1774 -4.99203,-11.1909 -11.14287,-11.1909 z"
       inkscape:connector-curvature="0"
       style="fill:#ffffff;stroke-width:1.06666672" />
    <g
       transform="matrix(-0.16596478,0.04466179,-0.04447013,-0.16668005,453.88007,778.48575)"
       style="font-style:normal;font-weight:normal;font-size:121.8484726px;line-height:125%;font-family:'Bitstream Vera Sans';letter-spacing:0px;word-spacing:0px;fill:#ffffff;fill-opacity:1;stroke:none"
       id="text3059"
       inkscape:export-filename="/srv/http/kiwwwi.com.ar/pastes/utopia-pirata-2.png"
       inkscape:export-xdpi="149"
       inkscape:export-ydpi="149">
      <g
         id="g3922"
         transform="rotate(-4.3843726,-1069.5699,-1786.0102)">
        <circle
           inkscape:export-ydpi="149"
           inkscape:export-xdpi="149"
           inkscape:export-filename="/srv/http/kiwwwi.com.ar/pastes/utopia-pirata-1.png"
           style="fill:none;stroke:none;stroke-width:0.96278501"
           id="path3865"
           transform="rotate(-165)"
           cx="1474.0784"
           cy="1363.7991"
           r="122.54252" />
        <path
           inkscape:connector-curvature="0"
           id="path3897"
           style="font-style:normal;font-variant:normal;font-weight:normal;font-stretch:normal;font-family:'League Gothic';-inkscape-font-specification:'League Gothic';fill:#ffffff;stroke-width:1.06666672"
           d="m -829.91875,-1701.2786 -74.75696,-13.1429 c -3.81775,-0.8031 -7.13896,-2.1788 -9.8356,-4.1046 -2.35762,-1.6021 -4.47472,-3.8218 -5.94474,-6.7196 -1.59804,-2.9202 -2.14249,-6.579 -1.33231,-11.1873 0.81017,-4.6083 2.59239,-7.99 5.09062,-10.19 2.37023,-2.2227 5.09496,-3.4592 7.85767,-4.1612 3.19174,-0.8905 6.783,-1.0509 10.64577,-0.5038 l 74.75696,13.1429 -2.43053,13.8249 -74.75696,-13.1428 c -2.68818,-0.4727 -4.59282,-0.1477 -6.22596,0.8849 -0.75257,0.5275 -1.29414,1.356 -1.49668,2.5081 -0.42759,2.4321 0.90597,3.8543 2.73608,4.7039 0.82854,0.5416 1.95811,0.8721 3.36621,1.1197 l 74.75696,13.1428 -2.43053,13.825" />
        <path
           inkscape:connector-curvature="0"
           id="path3899"
           style="font-style:normal;font-variant:normal;font-weight:normal;font-stretch:normal;font-family:'League Gothic';-inkscape-font-specification:'League Gothic';fill:#ffffff;stroke-width:1.06666672"
           d="m -854.50233,-1673.4894 12.64866,6.9388 -19.50341,35.5529 -12.64866,-6.9387 6.37612,-11.6231 -71.10596,-39.0068 6.75117,-12.3068 71.10597,39.0069 6.37611,-11.6232" />
        <path
           inkscape:connector-curvature="0"
           id="path3901"
           style="font-style:normal;font-variant:normal;font-weight:normal;font-stretch:normal;font-family:'League Gothic';-inkscape-font-specification:'League Gothic';fill:#ffffff;stroke-width:1.06666672"
           d="m -962.3753,-1633.3619 c -2.56068,-2.9434 -4.38,-6.0439 -5.36938,-9.2063 -0.91414,-2.7 -1.26394,-5.7474 -0.68867,-8.9454 0.48674,-3.2931 2.2593,-6.5398 5.68504,-9.7268 3.42575,-3.1871 6.88699,-4.8094 10.20662,-5.0574 3.23113,-0.3433 6.15024,0.3139 8.77725,1.4204 3.0829,1.2149 6.04414,3.253 8.79515,6.0193 l 38.33278,41.2041 c 2.47216,2.8481 4.29148,5.9486 5.28087,9.1112 0.91413,2.6999 1.44762,5.754 0.87235,8.9519 -0.57527,3.1979 -2.35446,6.6283 -5.78021,9.8154 -3.42574,3.187 -6.88034,4.6256 -10.11145,4.9689 -3.23113,0.3431 -6.33394,-0.3207 -8.96093,-1.4271 -3.08291,-1.2148 -6.04414,-3.253 -8.70663,-5.9242 l -38.33279,-41.204 m 48.61004,31.643 c 1.77057,1.9032 3.39061,2.8814 5.40455,3.138 0.91844,0.033 1.9453,-0.3897 2.80173,-1.1864 1.80804,-1.682 1.42508,-3.811 0.65485,-5.4022 -0.42275,-1.0269 -1.12434,-1.9718 -2.00963,-2.9234 l -38.33278,-41.2042 c -1.8591,-1.9984 -3.5743,-2.888 -5.4997,-3.0494 -0.91844,-0.033 -1.85014,0.3011 -2.70658,1.0979 -1.80803,1.682 -1.60213,3.6207 -0.65485,5.4021 0.33422,0.9317 1.03582,1.8767 2.00962,2.9235 l 38.33279,41.2041" />
        <path
           inkscape:connector-curvature="0"
           id="path3903"
           style="font-style:normal;font-variant:normal;font-weight:normal;font-stretch:normal;font-family:'League Gothic';-inkscape-font-specification:'League Gothic';fill:#ffffff;stroke-width:1.06666672"
           d="m -945.70662,-1554.999 -12.86216,5.6215 c -5.59741,2.4463 -11.81944,3.4636 -17.87654,1.2882 -6.0571,-2.1753 -11.8302,-7.5954 -16.20245,-17.5993 -4.37224,-10.0039 -4.37677,-17.8032 -1.85911,-23.7263 2.51765,-5.923 7.38638,-10.0367 12.98379,-12.4831 l -15.30288,-35.0136 12.86214,-5.6215 38.25721,87.5341 m -30.09091,-33.7987 c -3.9301,1.7177 -6.11877,3.5254 -6.66304,6.1746 -0.59632,2.5301 0.45177,5.9017 2.58585,10.7846 2.13407,4.8829 4.00082,8.1805 6.36686,9.6995 2.36604,1.5192 5.28342,1.3788 9.21351,-0.3389 l -11.50318,-26.3198" />
        <path
           inkscape:connector-curvature="0"
           id="path3905"
           style="font-style:normal;font-variant:normal;font-weight:normal;font-stretch:normal;font-family:'League Gothic';-inkscape-font-specification:'League Gothic';fill:#ffffff;stroke-width:1.06666672"
           d="m -1012.2607,-1532.3783 -13.8739,2.1334 -14.5198,-94.4193 13.8739,-2.1335 14.5198,94.4194" />
        <path
           inkscape:connector-curvature="0"
           id="path3907"
           style="font-style:normal;font-variant:normal;font-weight:normal;font-stretch:normal;font-family:'League Gothic';-inkscape-font-specification:'League Gothic';fill:#ffffff;stroke-width:1.06666672"
           d="m -1047.2054,-1622.4237 -25.1958,93.2691 -17.045,-1.9508 -3.4708,-96.5501 13.5585,1.5518 0.3658,19.665 13.4294,1.5369 4.7994,-19.0737 13.5585,1.5518 m -30.9609,61.3433 0.1067,2.4978 0.7748,0.089 0.6682,-2.409 7.4316,-29.4998 -9.5555,-1.0936 0.5743,30.416" />
        <path
           inkscape:connector-curvature="0"
           id="path3909"
           style="font-style:normal;font-variant:normal;font-weight:normal;font-stretch:normal;font-family:'League Gothic';-inkscape-font-specification:'League Gothic';fill:#ffffff;stroke-width:1.06666672"
           d="m -1172.391,-1560.1378 -11.5072,-8.0386 c -5.0078,-3.4984 -9.1224,-8.2752 -10.4275,-14.5774 -1.305,-6.3022 0.306,-14.0553 6.5582,-23.0053 6.2523,-8.95 12.9032,-13.0238 19.2697,-13.967 6.3664,-0.943 12.4162,1.0636 17.424,4.5618 l 21.8829,-31.3252 11.5073,8.0386 -54.7074,78.3131 m 13.1297,-43.3061 c -3.5161,-2.4563 -6.2002,-3.3801 -8.7441,-2.4619 -2.4696,0.8116 -4.7989,3.4651 -7.8506,7.8336 -3.0516,4.3684 -4.8906,7.6817 -4.9518,10.4927 -0.061,2.8111 1.5809,5.2265 5.097,7.6828 l 16.4495,-23.5472" />
        <path
           inkscape:connector-curvature="0"
           id="path3911"
           style="font-style:normal;font-variant:normal;font-weight:normal;font-stretch:normal;font-family:'League Gothic';-inkscape-font-specification:'League Gothic';fill:#ffffff;stroke-width:1.06666672"
           d="m -1226.274,-1604.9011 -9.0875,-10.6983 72.8077,-61.8454 9.0876,10.6982 -72.8078,61.8455" />
        <path
           inkscape:connector-curvature="0"
           id="path3913"
           style="font-style:normal;font-variant:normal;font-weight:normal;font-stretch:normal;font-family:'League Gothic';-inkscape-font-specification:'League Gothic';fill:#ffffff;stroke-width:1.06666672"
           d="m -1180.1822,-1708.1007 -33.3171,23.7976 1.6106,3.4077 36.4274,-17.2172 5.9982,12.6908 -86.368,40.8215 -5.9983,-12.6909 c -7.1646,-15.1584 -1.6412,-25.6757 14.6923,-33.3957 8.5781,-4.0543 17.3888,-5.4873 22.9562,-2.2246 l 38.0004,-27.8801 5.9983,12.6909 m -43.4573,32.7593 c -0.833,-1.7627 -2.1788,-4.0017 -4.7126,-5.1043 -2.5338,-1.1026 -6.4285,-1.1306 -12.5388,1.7575 -6.1104,2.888 -8.6786,5.9707 -9.4351,8.6284 -0.7565,2.6577 0.2368,5.0633 1.0699,6.826 l 25.6166,-12.1076" />
        <path
           inkscape:connector-curvature="0"
           id="path3915"
           style="font-style:normal;font-variant:normal;font-weight:normal;font-stretch:normal;font-family:'League Gothic';-inkscape-font-specification:'League Gothic';fill:#ffffff;stroke-width:1.06666672"
           d="m -1187.4367,-1724.9408 -96.4885,-4.8921 -1.6997,-17.0718 93.6301,-23.8198 1.352,13.5799 -19.1424,4.518 1.3391,13.4506 19.6574,0.6553 1.352,13.5799 m -66.5052,-17.2814 -2.4186,0.6327 0.077,0.776 2.496,0.1433 30.4042,1.0221 -0.9528,-9.5706 -29.606,6.9965" />
        <path
           inkscape:connector-curvature="0"
           id="path3917"
           style="font-style:normal;font-variant:normal;font-weight:normal;font-stretch:normal;font-family:'League Gothic';-inkscape-font-specification:'League Gothic';fill:#ffffff;stroke-width:1.06666672"
           d="m -1270.5543,-1786.479 -14.1138,-2.9896 8.4031,-39.6709 14.1137,2.9895 -2.747,12.9694 79.3418,16.8062 -2.9088,13.7323 -79.3418,-16.8062 -2.7472,12.9693" />
        <path
           inkscape:connector-curvature="0"
           id="path3919"
           style="font-style:normal;font-variant:normal;font-weight:normal;font-stretch:normal;font-family:'League Gothic';-inkscape-font-specification:'League Gothic';fill:#ffffff;stroke-width:1.06666672"
           d="m -1183.2813,-1808.6761 -75.1338,-60.736 8.6721,-14.803 89.7188,35.8398 -6.8984,11.7753 -18.1355,-7.6118 -6.8327,11.663 15.5078,12.0976 -6.8983,11.7751 m -43.601,-53.1085 -2.3278,-0.9119 -0.3943,0.6729 1.9337,1.5847 23.9809,18.7184 4.8616,-8.2987 -28.0541,-11.7654" />
      </g>
    </g>
    <g
       id="g8064"
       transform="matrix(0.24927978,0,0,0.24927978,-164.38421,808.22107)">
      <g
         id="g8060"
         transform="translate(678.73162,-905.77532)">
        <path
           style="fill:#000000;stroke:none;stroke-width:1.06666672"
           id="path33273"
           d="m 317.46577,478.06342 v 8.4 l -10.26667,3.6 -10.4,3.46667 10,-0.26667 10,-0.26666 0.4,54.66666 c 0.26667,53.46667 0.26667,54.8 -2.66666,63.33334 -5.86667,16.93333 -3.46667,32.4 6.8,44 l 4.13333,4.66666 -3.2,-7.33333 c -4.8,-10.8 -5.33333,-16 -2.8,-24.66667 4.93333,-17.06666 20.66668,-27.2 52.13334,-34 21.2,-4.4 30.8,-7.46666 41.6,-13.33333 22.26667,-11.86667 33.86667,-31.86667 30.93334,-53.73333 -4.66667,-33.73334 -50.26667,-52.4 -107.6,-44.13334 l -5.73335,0.93334 v -6.93334 -6.8 h -6.66666 -6.66667 z m 30.66668,18.53334 c 8,3.33333 15.2,10.53333 18.93333,18.93333 2.4,5.46667 2.93333,9.2 2.93333,19.46667 0,11.33333 -0.4,13.6 -3.86666,20.66666 -4.8,10 -13.2,19.06667 -24.8,26.66667 -4.8,3.33333 -9.20001,6 -9.73335,6 -0.4,0 -0.8,-21.6 -0.8,-48 v -48 l 5.73335,0.8 c 3.06666,0.53333 8.26666,2 11.6,3.46667 z"
           inkscape:connector-curvature="0" />
        <path
           style="fill:#77a1c8;fill-opacity:1;stroke:none;stroke-width:1.06666672"
           id="path33275"
           d="m 452.66578,544.86342 c -0.26667,18.26667 -11.06667,34 -30.93333,45.2 -10.93334,6 -24.4,10.4 -45.2,14.66667 -28.8,6 -38.8,11.46667 -45.60001,25.06667 -3.2,6.4 -4.13334,10 -4.13334,16.13333 0,8 2.93334,16.13333 7.20001,19.6 2,1.6 2,1.33333 0.13334,-2.93333 -4.80001,-11.46667 -0.53334,-26.93334 9.86666,-35.86667 6.53334,-5.6 17.06667,-9.2 38.13334,-13.06667 38.4,-7.2 60.53333,-20 70.26666,-40.93333 3.33334,-7.06667 4,-10.26667 4,-18.13333 0,-5.33334 -0.8,-11.86667 -1.73333,-14.53334 l -1.86667,-4.93333 z"
           inkscape:connector-curvature="0" />
      </g>
      <circle
         style="opacity:1;fill:none;fill-opacity:1;fill-rule:nonzero;stroke:#000000;stroke-width:15.48300076;stroke-miterlimit:4;stroke-dasharray:none;stroke-dashoffset:0;stroke-opacity:1"
         id="path7258"
         cx="337.72714"
         cy="1055.3307"
         r="136.2955"
         transform="rotate(-90)" />
    </g>
    <g
       id="g20799"
       transform="matrix(0.8539892,0,0,0.8539892,46.873884,105.81757)">
      <g
         transform="matrix(1.4188819,0,0,1.4188819,91.919172,-459.84112)"
         id="g3234">
        <g
           transform="matrix(0.83569431,0,0,0.83569431,2.6966236,135.31443)"
           id="g3341">
          <path
             style="font-style:normal;font-variant:normal;font-weight:normal;font-stretch:normal;font-size:22.97203255px;line-height:125%;font-family:'League Gothic';-inkscape-font-specification:'League Gothic';letter-spacing:0px;word-spacing:0px;fill:#000000;fill-opacity:1;stroke:none;stroke-width:1.06666672"
             inkscape:connector-curvature="0"
             d="m 16.41223,818.94661 h 2.476672 v -10.56473 c 0.04785,-0.0798 0.119643,-0.18345 0.215364,-0.31109 0.215359,-0.21534 0.41078,-0.32302 0.586265,-0.32304 0.398815,2e-5 0.598225,0.19544 0.59823,0.58627 v 10.61259 h 2.464708 v -10.9835 c -8e-6,-0.64608 -0.147571,-1.22436 -0.44269,-1.73486 -0.358945,-0.59024 -0.829552,-0.88537 -1.411823,-0.88538 -0.215369,1e-5 -0.430731,0.0598 -0.646089,0.17947 -0.295132,0.15954 -0.654069,0.45067 -1.076814,0.87341 -0.175484,0.17549 -0.271201,0.26723 -0.287151,0.27518 v -5.73104 H 16.41223 v 18.00672"
             id="path3155" />
          <path
             style="font-style:normal;font-variant:normal;font-weight:normal;font-stretch:normal;font-size:22.97203255px;line-height:125%;font-family:'League Gothic';-inkscape-font-specification:'League Gothic';letter-spacing:0px;word-spacing:0px;fill:#000000;fill-opacity:1;stroke:none;stroke-width:1.06666672"
             inkscape:connector-curvature="0"
             d="m 23.949929,807.77168 h 1.256282 v 6.86768 c -1e-6,1.22837 0.123633,2.17357 0.370904,2.83562 0.41477,1.10871 1.236338,1.66307 2.464707,1.66307 0.398815,0 0.717871,-0.0239 0.957168,-0.0718 0.03988,-0.007 0.0997,-0.0239 0.179469,-0.0479 0.08773,-0.0239 0.151546,-0.0399 0.191433,-0.0479 v -2.42882 c -0.03191,0.007 -0.07977,0.016 -0.143574,0.0239 -0.06382,0.007 -0.111676,0.016 -0.143576,0.0239 -0.223345,0.0319 -0.43073,0.0479 -0.622159,0.0479 -0.342989,0 -0.570316,-0.26721 -0.681982,-0.80163 -0.06382,-0.29512 -0.09572,-0.76174 -0.09571,-1.39985 v -6.66429 h 1.687008 v -2.22542 h -1.687008 v -3.31418 h -2.476674 v 3.31418 h -1.256282 v 2.22542"
             id="path3157" />
          <path
             style="font-style:normal;font-variant:normal;font-weight:normal;font-stretch:normal;font-size:22.97203255px;line-height:125%;font-family:'League Gothic';-inkscape-font-specification:'League Gothic';letter-spacing:0px;word-spacing:0px;fill:#000000;fill-opacity:1;stroke:none;stroke-width:1.06666672"
             inkscape:connector-curvature="0"
             d="m 29.932229,807.77168 h 1.256284 v 6.86768 c -2e-6,1.22837 0.123632,2.17357 0.370902,2.83562 0.414771,1.10871 1.236339,1.66307 2.464708,1.66307 0.398815,0 0.717871,-0.0239 0.957168,-0.0718 0.03988,-0.007 0.0997,-0.0239 0.179468,-0.0479 0.08773,-0.0239 0.151547,-0.0399 0.191434,-0.0479 v -2.42882 c -0.03191,0.007 -0.07977,0.016 -0.143574,0.0239 -0.06382,0.007 -0.111676,0.016 -0.143576,0.0239 -0.223344,0.0319 -0.43073,0.0479 -0.622159,0.0479 -0.34299,0 -0.570317,-0.26721 -0.681983,-0.80163 -0.06382,-0.29512 -0.09572,-0.76174 -0.09571,-1.39985 v -6.66429 h 1.687008 v -2.22542 h -1.687008 v -3.31418 h -2.476672 v 3.31418 h -1.256283 v 2.22542"
             id="path3159" />
          <path
             style="font-style:normal;font-variant:normal;font-weight:normal;font-stretch:normal;font-size:22.97203255px;line-height:125%;font-family:'League Gothic';-inkscape-font-specification:'League Gothic';letter-spacing:0px;word-spacing:0px;fill:#000000;fill-opacity:1;stroke:none;stroke-width:1.06666672"
             inkscape:connector-curvature="0"
             d="m 36.656335,823.55299 h 2.476672 v -5.49175 c 0.271194,0.23929 0.482568,0.41876 0.634124,0.53841 0.486555,0.35893 0.929246,0.5384 1.32807,0.5384 0.598224,0 1.084784,-0.29912 1.459681,-0.89735 0.29512,-0.48656 0.442684,-1.06085 0.44269,-1.7229 v -8.55469 c -6e-6,-0.64608 -0.14757,-1.22436 -0.44269,-1.73486 -0.39085,-0.59024 -0.87741,-0.88537 -1.459681,-0.88538 -0.247274,1e-5 -0.478589,0.0598 -0.693947,0.17947 -0.398824,0.17549 -0.821573,0.47461 -1.268247,0.89734 v -0.87342 h -2.476672 v 18.00673 m 2.476672,-7.54966 v -7.51377 c -3e-6,-0.23131 0.07179,-0.42274 0.215362,-0.57431 0.151549,-0.15951 0.323041,-0.23927 0.514478,-0.23928 0.183453,10e-6 0.338993,0.0798 0.46662,0.23928 0.135594,0.15157 0.203393,0.343 0.203398,0.57431 v 7.51377 c -5e-6,0.23132 -0.06781,0.42674 -0.203398,0.58626 -0.127627,0.15155 -0.283167,0.22733 -0.46662,0.22733 -0.18346,0 -0.350965,-0.0837 -0.502513,-0.25126 -0.151555,-0.17547 -0.22733,-0.36292 -0.227327,-0.56233"
             id="path3161" />
          <path
             style="font-style:normal;font-variant:normal;font-weight:normal;font-stretch:normal;font-size:22.97203255px;line-height:125%;font-family:'League Gothic';-inkscape-font-specification:'League Gothic';letter-spacing:0px;word-spacing:0px;fill:#000000;fill-opacity:1;stroke:none;stroke-width:1.06666672"
             inkscape:connector-curvature="0"
             d="m 44.792262,818.94661 h 2.57239 v -2.71595 h -2.57239 v 2.71595 m 0,-10.68438 h 2.57239 v -2.71597 h -2.57239 v 2.71597"
             id="path3163" />
          <path
             style="font-style:normal;font-variant:normal;font-weight:normal;font-stretch:normal;font-size:22.97203255px;line-height:125%;font-family:'League Gothic';-inkscape-font-specification:'League Gothic';letter-spacing:0px;word-spacing:0px;fill:#000000;fill-opacity:1;stroke:none;stroke-width:1.06666672"
             inkscape:connector-curvature="0"
             d="m 48.357713,820.70542 h 2.010053 l 6.42499,-19.76553 h -1.938264 l -6.496779,19.76553"
             id="path3165" />
          <path
             style="font-style:normal;font-variant:normal;font-weight:normal;font-stretch:normal;font-size:22.97203255px;line-height:125%;font-family:'League Gothic';-inkscape-font-specification:'League Gothic';letter-spacing:0px;word-spacing:0px;fill:#000000;fill-opacity:1;stroke:none;stroke-width:1.06666672"
             inkscape:connector-curvature="0"
             d="m 56.972227,820.70542 h 2.010054 l 6.424989,-19.76553 h -1.938264 l -6.496779,19.76553"
             id="path3167" />
          <path
             style="font-style:normal;font-variant:normal;font-weight:normal;font-stretch:normal;font-size:22.97203255px;line-height:125%;font-family:'League Gothic';-inkscape-font-specification:'League Gothic';letter-spacing:0px;word-spacing:0px;fill:#000000;fill-opacity:1;stroke:none;stroke-width:1.06666672"
             inkscape:connector-curvature="0"
             d="m 66.472118,823.55299 h 2.476672 v -5.49175 c 0.271194,0.23929 0.482569,0.41876 0.634124,0.53841 0.486556,0.35893 0.929246,0.5384 1.328071,0.5384 0.598224,0 1.084784,-0.29912 1.459682,-0.89735 0.295119,-0.48656 0.442682,-1.06085 0.44269,-1.7229 v -8.55469 c -8e-6,-0.64608 -0.147571,-1.22436 -0.44269,-1.73486 -0.39085,-0.59024 -0.87741,-0.88537 -1.459682,-0.88538 -0.247274,1e-5 -0.478589,0.0598 -0.693947,0.17947 -0.398825,0.17549 -0.821573,0.47461 -1.268248,0.89734 v -0.87342 h -2.476672 v 18.00673 m 2.476672,-7.54966 v -7.51377 c -3e-6,-0.23131 0.07179,-0.42274 0.215364,-0.57431 0.151547,-0.15951 0.32304,-0.23927 0.514477,-0.23928 0.183453,10e-6 0.338992,0.0798 0.466619,0.23928 0.135595,0.15157 0.203394,0.343 0.203399,0.57431 v 7.51377 c -5e-6,0.23132 -0.06781,0.42674 -0.203399,0.58626 -0.127627,0.15155 -0.283166,0.22733 -0.466619,0.22733 -0.183461,0 -0.350965,-0.0837 -0.502513,-0.25126 -0.151555,-0.17547 -0.227331,-0.36292 -0.227328,-0.56233"
             id="path3169" />
          <path
             style="font-style:normal;font-variant:normal;font-weight:normal;font-stretch:normal;font-size:22.97203255px;line-height:125%;font-family:'League Gothic';-inkscape-font-specification:'League Gothic';letter-spacing:0px;word-spacing:0px;fill:#000000;fill-opacity:1;stroke:none;stroke-width:1.06666672"
             inkscape:connector-curvature="0"
             d="m 74.308931,815.83582 c -10e-7,1.22837 0.255244,2.12572 0.765735,2.69204 0.32703,0.4068 0.733826,0.61019 1.220389,0.61019 0.47858,0 0.913294,-0.15554 1.304141,-0.46662 0.27917,-0.22333 0.506497,-0.49054 0.681983,-0.80163 h 0.167504 c -5e-6,0.52645 0.07577,0.88538 0.227328,1.07681 h 2.416849 c -0.111677,-0.68596 -0.167512,-1.46367 -0.167505,-2.33308 v -8.23165 c -7e-6,-0.86942 -0.30311,-1.59528 -0.909309,-2.17756 -0.598236,-0.57429 -1.300159,-0.86144 -2.10577,-0.86145 -0.957171,1e-5 -1.746834,0.35098 -2.368991,1.05288 -0.638113,0.71789 -0.957169,1.5594 -0.957168,2.52453 v 0.56233 h 2.476672 v -0.63412 c -3e-6,-0.16749 0.01595,-0.37887 0.04786,-0.63412 0.08773,-0.47059 0.307088,-0.7059 0.658053,-0.70591 0.295122,10e-6 0.498521,0.13561 0.610194,0.40679 0.04785,0.15954 0.07179,0.43074 0.07179,0.8136 v 1.47164 c -0.01596,0.0399 -0.0359,0.0798 -0.05982,0.11965 -0.02394,0.0319 -0.05983,0.0678 -0.107681,0.10768 -0.04786,0.0399 -0.09572,0.0758 -0.143575,0.10768 -0.03988,0.0239 -0.09971,0.0598 -0.179469,0.10769 -0.07977,0.0399 -0.147568,0.0757 -0.203399,0.10768 -0.04786,0.0239 -0.127626,0.0638 -0.239291,0.11964 -0.103702,0.0559 -0.183462,0.0997 -0.239293,0.13161 -0.829548,0.43871 -1.475635,0.94521 -1.938265,1.51951 -0.685971,0.85347 -1.028956,1.95821 -1.028955,3.31419 m 2.428813,-0.3709 c -3e-6,-0.67002 0.139584,-1.27224 0.418761,-1.80666 0.287147,-0.54239 0.717872,-0.93721 1.292177,-1.18449 v 3.43384 c -4e-6,0.23131 -0.09971,0.42674 -0.299115,0.58627 -0.199414,0.15155 -0.442694,0.22733 -0.729841,0.22733 -0.263224,0 -0.45067,-0.1715 -0.562336,-0.51449 -0.07977,-0.23131 -0.119649,-0.47858 -0.119646,-0.7418"
             id="path3171" />
          <path
             style="font-style:normal;font-variant:normal;font-weight:normal;font-stretch:normal;font-size:22.97203255px;line-height:125%;font-family:'League Gothic';-inkscape-font-specification:'League Gothic';letter-spacing:0px;word-spacing:0px;fill:#000000;fill-opacity:1;stroke:none;stroke-width:1.06666672"
             inkscape:connector-curvature="0"
             d="m 82.600398,818.94661 h 2.476672 v -9.30846 c -3e-6,-0.51845 0.179465,-0.92923 0.538407,-1.23235 0.287146,-0.27119 0.701918,-0.40678 1.244318,-0.40679 0.271193,10e-6 0.502508,0.0319 0.693947,0.0957 v -2.75185 c -0.749787,10e-6 -1.379921,0.2393 -1.890407,0.71787 -0.175484,0.17549 -0.315072,0.35496 -0.41876,0.5384 -0.09572,0.18348 -0.151555,0.33104 -0.167505,0.44269 v -1.49557 h -2.476672 v 13.40035"
             id="path3173" />
          <path
             style="font-style:normal;font-variant:normal;font-weight:normal;font-stretch:normal;font-size:22.97203255px;line-height:125%;font-family:'League Gothic';-inkscape-font-specification:'League Gothic';letter-spacing:0px;word-spacing:0px;fill:#000000;fill-opacity:1;stroke:none;stroke-width:1.06666672"
             inkscape:connector-curvature="0"
             d="m 87.888752,807.77168 h 1.256283 v 6.86768 c -10e-7,1.22837 0.123633,2.17357 0.370903,2.83562 0.41477,1.10871 1.236338,1.66307 2.464707,1.66307 0.398815,0 0.717871,-0.0239 0.957168,-0.0718 0.03987,-0.007 0.0997,-0.0239 0.179469,-0.0479 0.08773,-0.0239 0.151547,-0.0399 0.191434,-0.0479 v -2.42882 c -0.03191,0.007 -0.07977,0.016 -0.143575,0.0239 -0.06382,0.007 -0.111675,0.016 -0.143575,0.0239 -0.223345,0.0319 -0.430731,0.0479 -0.622159,0.0479 -0.34299,0 -0.570317,-0.26721 -0.681983,-0.80163 -0.06382,-0.29512 -0.09572,-0.76174 -0.09571,-1.39985 v -6.66429 h 1.687008 v -2.22542 h -1.687008 v -3.31418 h -2.476673 v 3.31418 h -1.256283 v 2.22542"
             id="path3175" />
          <path
             style="font-style:normal;font-variant:normal;font-weight:normal;font-stretch:normal;font-size:22.97203255px;line-height:125%;font-family:'League Gothic';-inkscape-font-specification:'League Gothic';letter-spacing:0px;word-spacing:0px;fill:#000000;fill-opacity:1;stroke:none;stroke-width:1.06666672"
             inkscape:connector-curvature="0"
             d="m 94.612858,818.94661 h 2.476672 v -13.40035 h -2.476672 v 13.40035 m 0,-15.53004 h 2.476672 v -2.47668 h -2.476672 v 2.47668"
             id="path3177" />
          <path
             style="font-style:normal;font-variant:normal;font-weight:normal;font-stretch:normal;font-size:22.97203255px;line-height:125%;font-family:'League Gothic';-inkscape-font-specification:'League Gothic';letter-spacing:0px;word-spacing:0px;fill:#000000;fill-opacity:1;stroke:none;stroke-width:1.06666672"
             inkscape:connector-curvature="0"
             d="m 98.96797,816.5178 c -10e-7,0.678 0.155539,1.2523 0.46662,1.7229 0.35096,0.59823 0.82954,0.89735 1.43575,0.89735 0.25524,0 0.49454,-0.0558 0.71788,-0.1675 0.36691,-0.16751 0.78168,-0.47061 1.24432,-0.90931 v 0.88537 h 2.47667 v -18.00672 h -2.47667 v 5.47979 c -0.27121,-0.23927 -0.48258,-0.41875 -0.63413,-0.53841 -0.48656,-0.35892 -0.92925,-0.53839 -1.32807,-0.5384 -0.59823,1e-5 -1.076814,0.29514 -1.43575,0.88538 -0.311081,0.49454 -0.466621,1.07284 -0.46662,1.73486 v 8.55469 m 2.47667,-0.51447 v -7.51377 c 0,-0.23131 0.0638,-0.42274 0.19144,-0.57431 0.12761,-0.15951 0.28316,-0.23927 0.46662,-0.23928 0.18345,10e-6 0.35095,0.0878 0.50251,0.26322 0.15155,0.16751 0.22732,0.35096 0.22733,0.55037 v 7.51377 c -10e-6,0.23132 -0.0758,0.42674 -0.22733,0.58626 -0.14358,0.15155 -0.31109,0.22733 -0.50251,0.22733 -0.18346,0 -0.33901,-0.0757 -0.46662,-0.22733 -0.12763,-0.15952 -0.19144,-0.35494 -0.19144,-0.58626"
             id="path3179" />
          <path
             style="font-style:normal;font-variant:normal;font-weight:normal;font-stretch:normal;font-size:22.97203255px;line-height:125%;font-family:'League Gothic';-inkscape-font-specification:'League Gothic';letter-spacing:0px;word-spacing:0px;fill:#000000;fill-opacity:1;stroke:none;stroke-width:1.06666672"
             inkscape:connector-curvature="0"
             d="m 107.06801,815.60849 c 0.0239,0.60621 0.15554,1.19647 0.39483,1.77076 0.52644,1.17254 1.45171,1.7588 2.77579,1.7588 0.80562,0 1.42378,-0.17947 1.85451,-0.5384 0.43072,-0.35097 0.74978,-0.75776 0.95717,-1.2204 0.20738,-0.4706 0.33101,-1.03294 0.37091,-1.687 v -6.89161 c -0.0239,-0.56631 -0.15556,-1.13663 -0.39484,-1.71094 -0.53442,-1.16455 -1.46367,-1.74682 -2.78775,-1.74683 -0.82157,1e-5 -1.43575,0.17948 -1.84254,0.5384 -0.8136,0.68598 -1.25629,1.68304 -1.32808,2.99116 v 6.73606 m 2.3331,0 v -6.73606 c -0.007,-0.0638 -0.0119,-0.12762 -0.0119,-0.19144 0,-0.18344 0.0279,-0.34696 0.0837,-0.49055 0.11963,-0.45464 0.37489,-0.68197 0.76573,-0.68198 0.23131,10e-6 0.41078,0.0638 0.5384,0.19143 0.20739,0.26324 0.31108,0.61021 0.31109,1.04092 -1e-5,0.0479 -1e-5,0.0917 0,0.13162 v 6.73606 c 0.007,0.0638 0.0119,0.12763 0.0119,0.19144 -1e-5,0.19143 -0.0279,0.35894 -0.0837,0.50251 -0.11168,0.4387 -0.37091,0.65805 -0.7777,0.65805 -0.21537,0 -0.38685,-0.0638 -0.51448,-0.19143 -0.21536,-0.27917 -0.32304,-0.62216 -0.32304,-1.02895 0,-0.0479 0,-0.0917 0,-0.13162"
             id="path3181" />
          <path
             style="font-style:normal;font-variant:normal;font-weight:normal;font-stretch:normal;font-size:22.97203255px;line-height:125%;font-family:'League Gothic';-inkscape-font-specification:'League Gothic';letter-spacing:0px;word-spacing:0px;fill:#000000;fill-opacity:1;stroke:none;stroke-width:1.06666672"
             inkscape:connector-curvature="0"
             d="m 115.14412,823.55299 h 2.47667 v -5.49175 c 0.27119,0.23929 0.48257,0.41876 0.63412,0.53841 0.48656,0.35893 0.92925,0.5384 1.32808,0.5384 0.59822,0 1.08478,-0.29912 1.45968,-0.89735 0.29511,-0.48656 0.44267,-1.06085 0.44268,-1.7229 v -8.55469 c -1e-5,-0.64608 -0.14757,-1.22436 -0.44268,-1.73486 -0.39085,-0.59024 -0.87741,-0.88537 -1.45968,-0.88538 -0.24728,1e-5 -0.4786,0.0598 -0.69396,0.17947 -0.39882,0.17549 -0.82156,0.47461 -1.26824,0.89734 v -0.87342 h -2.47667 v 18.00673 m 2.47667,-7.54966 v -7.51377 c 0,-0.23131 0.0718,-0.42274 0.21536,-0.57431 0.15155,-0.15951 0.32304,-0.23927 0.51448,-0.23928 0.18345,10e-6 0.33899,0.0798 0.46662,0.23928 0.13559,0.15157 0.20339,0.343 0.2034,0.57431 v 7.51377 c -1e-5,0.23132 -0.0678,0.42674 -0.2034,0.58626 -0.12763,0.15155 -0.28317,0.22733 -0.46662,0.22733 -0.18346,0 -0.35096,-0.0837 -0.50251,-0.25126 -0.15155,-0.17547 -0.22733,-0.36292 -0.22733,-0.56233"
             id="path3183" />
          <path
             style="font-style:normal;font-variant:normal;font-weight:normal;font-stretch:normal;font-size:22.97203255px;line-height:125%;font-family:'League Gothic';-inkscape-font-specification:'League Gothic';letter-spacing:0px;word-spacing:0px;fill:#000000;fill-opacity:1;stroke:none;stroke-width:1.06666672"
             inkscape:connector-curvature="0"
             d="m 123.37575,818.94661 h 2.47668 v -13.40035 h -2.47668 v 13.40035 m 0,-15.53004 h 2.47668 v -2.47668 h -2.47668 v 2.47668"
             id="path3185" />
          <path
             style="font-style:normal;font-variant:normal;font-weight:normal;font-stretch:normal;font-size:22.97203255px;line-height:125%;font-family:'League Gothic';-inkscape-font-specification:'League Gothic';letter-spacing:0px;word-spacing:0px;fill:#000000;fill-opacity:1;stroke:none;stroke-width:1.06666672"
             inkscape:connector-curvature="0"
             d="m 127.82659,818.94661 h 2.47667 v -9.30846 c -1e-5,-0.51845 0.17947,-0.92923 0.5384,-1.23235 0.28715,-0.27119 0.70192,-0.40678 1.24432,-0.40679 0.27119,10e-6 0.50251,0.0319 0.69396,0.0957 v -2.75185 c -0.7498,10e-6 -1.37993,0.2393 -1.89041,0.71787 -0.17549,0.17549 -0.31508,0.35496 -0.41877,0.5384 -0.0957,0.18348 -0.15155,0.33104 -0.1675,0.44269 v -1.49557 h -2.47667 v 13.40035"
             id="path3187" />
          <path
             style="font-style:normal;font-variant:normal;font-weight:normal;font-stretch:normal;font-size:22.97203255px;line-height:125%;font-family:'League Gothic';-inkscape-font-specification:'League Gothic';letter-spacing:0px;word-spacing:0px;fill:#000000;fill-opacity:1;stroke:none;stroke-width:1.06666672"
             inkscape:connector-curvature="0"
             d="m 133.46192,815.83582 c 0,1.22837 0.25524,2.12572 0.76573,2.69204 0.32703,0.4068 0.73382,0.61019 1.22039,0.61019 0.47858,0 0.91329,-0.15554 1.30414,-0.46662 0.27917,-0.22333 0.5065,-0.49054 0.68199,-0.80163 h 0.16749 c 0,0.52645 0.0757,0.88538 0.22733,1.07681 h 2.41686 c -0.11168,-0.68596 -0.16751,-1.46367 -0.16751,-2.33308 v -8.23165 c 0,-0.86942 -0.30311,-1.59528 -0.90931,-2.17756 -0.59824,-0.57429 -1.30016,-0.86144 -2.10577,-0.86145 -0.95717,1e-5 -1.74683,0.35098 -2.36899,1.05288 -0.63811,0.71789 -0.95717,1.5594 -0.95717,2.52453 v 0.56233 h 2.47667 v -0.63412 c 0,-0.16749 0.016,-0.37887 0.0479,-0.63412 0.0878,-0.47059 0.3071,-0.7059 0.65805,-0.70591 0.29513,10e-6 0.49853,0.13561 0.6102,0.40679 0.0479,0.15954 0.0718,0.43074 0.0718,0.8136 v 1.47164 c -0.016,0.0399 -0.0358,0.0798 -0.0598,0.11965 -0.0239,0.0319 -0.0598,0.0678 -0.10768,0.10768 -0.0479,0.0399 -0.0957,0.0758 -0.14358,0.10768 -0.0399,0.0239 -0.0997,0.0598 -0.17947,0.10769 -0.0798,0.0399 -0.14757,0.0757 -0.2034,0.10768 -0.0479,0.0239 -0.12762,0.0638 -0.23929,0.11964 -0.10368,0.0559 -0.18346,0.0997 -0.23929,0.13161 -0.82956,0.43871 -1.47564,0.94521 -1.93827,1.51951 -0.68597,0.85347 -1.02895,1.95821 -1.02895,3.31419 m 2.42881,-0.3709 c 0,-0.67002 0.13959,-1.27224 0.41876,-1.80666 0.28715,-0.54239 0.71787,-0.93721 1.29217,-1.18449 v 3.43384 c 0,0.23131 -0.0997,0.42674 -0.29911,0.58627 -0.19941,0.15155 -0.44269,0.22733 -0.72983,0.22733 -0.26324,0 -0.45068,-0.1715 -0.56234,-0.51449 -0.0798,-0.23131 -0.11965,-0.47858 -0.11965,-0.7418"
             id="path3189" />
          <path
             style="font-style:normal;font-variant:normal;font-weight:normal;font-stretch:normal;font-size:22.97203255px;line-height:125%;font-family:'League Gothic';-inkscape-font-specification:'League Gothic';letter-spacing:0px;word-spacing:0px;fill:#000000;fill-opacity:1;stroke:none;stroke-width:1.06666672"
             inkscape:connector-curvature="0"
             d="m 141.01158,807.77168 h 1.25628 v 6.86768 c 0,1.22837 0.12364,2.17357 0.3709,2.83562 0.41478,1.10871 1.23634,1.66307 2.46472,1.66307 0.39881,0 0.71786,-0.0239 0.95716,-0.0718 0.0399,-0.007 0.0997,-0.0239 0.17947,-0.0479 0.0878,-0.0239 0.15155,-0.0399 0.19143,-0.0479 v -2.42882 c -0.0319,0.007 -0.0798,0.016 -0.14357,0.0239 -0.0638,0.007 -0.11167,0.016 -0.14358,0.0239 -0.22334,0.0319 -0.43073,0.0479 -0.62215,0.0479 -0.343,0 -0.57033,-0.26721 -0.68198,-0.80163 -0.0638,-0.29512 -0.0957,-0.76174 -0.0957,-1.39985 v -6.66429 h 1.687 v -2.22542 h -1.687 v -3.31418 h -2.47668 v 3.31418 h -1.25627 v 2.22542"
             id="path3191" />
          <path
             style="font-style:normal;font-variant:normal;font-weight:normal;font-stretch:normal;font-size:22.97203255px;line-height:125%;font-family:'League Gothic';-inkscape-font-specification:'League Gothic';letter-spacing:0px;word-spacing:0px;fill:#000000;fill-opacity:1;stroke:none;stroke-width:1.06666672"
             inkscape:connector-curvature="0"
             d="m 147.34085,815.83582 c 0,1.22837 0.25525,2.12572 0.76574,2.69204 0.32703,0.4068 0.73383,0.61019 1.22039,0.61019 0.47858,0 0.9133,-0.15554 1.30413,-0.46662 0.27918,-0.22333 0.50651,-0.49054 0.68199,-0.80163 h 0.16751 c -1e-5,0.52645 0.0757,0.88538 0.22733,1.07681 h 2.41684 c -0.11167,-0.68596 -0.16751,-1.46367 -0.1675,-2.33308 v -8.23165 c -1e-5,-0.86942 -0.30311,-1.59528 -0.90931,-2.17756 -0.59824,-0.57429 -1.30016,-0.86144 -2.10577,-0.86145 -0.95718,1e-5 -1.74684,0.35098 -2.36899,1.05288 -0.63812,0.71789 -0.95717,1.5594 -0.95717,2.52453 v 0.56233 h 2.47667 v -0.63412 c 0,-0.16749 0.0159,-0.37887 0.0479,-0.63412 0.0877,-0.47059 0.30708,-0.7059 0.65805,-0.70591 0.29512,10e-6 0.49851,0.13561 0.61019,0.40679 0.0479,0.15954 0.0718,0.43074 0.0718,0.8136 v 1.47164 c -0.016,0.0399 -0.0359,0.0798 -0.0598,0.11965 -0.0239,0.0319 -0.0598,0.0678 -0.10768,0.10768 -0.0479,0.0399 -0.0957,0.0758 -0.14357,0.10768 -0.0399,0.0239 -0.0997,0.0598 -0.17947,0.10769 -0.0798,0.0399 -0.14757,0.0757 -0.2034,0.10768 -0.0479,0.0239 -0.12763,0.0638 -0.23929,0.11964 -0.10368,0.0559 -0.18346,0.0997 -0.23929,0.13161 -0.82955,0.43871 -1.47564,0.94521 -1.93827,1.51951 -0.68597,0.85347 -1.02896,1.95821 -1.02896,3.31419 m 2.42882,-0.3709 c 0,-0.67002 0.13958,-1.27224 0.41876,-1.80666 0.28714,-0.54239 0.71788,-0.93721 1.29218,-1.18449 v 3.43384 c -1e-5,0.23131 -0.0997,0.42674 -0.29912,0.58627 -0.19941,0.15155 -0.44269,0.22733 -0.72984,0.22733 -0.26322,0 -0.45067,-0.1715 -0.56234,-0.51449 -0.0798,-0.23131 -0.11964,-0.47858 -0.11964,-0.7418"
             id="path3193" />
          <path
             style="font-style:normal;font-variant:normal;font-weight:normal;font-stretch:normal;font-size:22.97203255px;line-height:125%;font-family:'League Gothic';-inkscape-font-specification:'League Gothic';letter-spacing:0px;word-spacing:0px;fill:#000000;fill-opacity:1;stroke:none;stroke-width:1.06666672"
             inkscape:connector-curvature="0"
             d="m 155.28534,818.94661 h 2.57239 v -2.71595 h -2.57239 v 2.71595"
             id="path3195" />
          <path
             style="font-style:normal;font-variant:normal;font-weight:normal;font-stretch:normal;font-size:22.97203255px;line-height:125%;font-family:'League Gothic';-inkscape-font-specification:'League Gothic';letter-spacing:0px;word-spacing:0px;fill:#000000;fill-opacity:1;stroke:none;stroke-width:1.06666672"
             inkscape:connector-curvature="0"
             d="m 159.26956,815.17777 c 0,1.42778 0.29911,2.4647 0.89735,3.1108 0.51847,0.56632 1.27223,0.84948 2.2613,0.84948 1.08479,0 1.87446,-0.26721 2.369,-0.80162 0.54238,-0.59026 0.81358,-1.60326 0.8136,-3.03901 v -1.30415 h -2.47669 v 1.86648 c 0,0.41478 -0.0479,0.69794 -0.14357,0.84949 -0.0957,0.15155 -0.28317,0.22733 -0.56234,0.22733 -0.20739,0 -0.36691,-0.0598 -0.47858,-0.17947 -0.10368,-0.12763 -0.16751,-0.25524 -0.19143,-0.38287 -0.016,-0.1356 -0.0239,-0.30709 -0.0239,-0.51448 v -7.22662 c -1e-5,-0.20737 0.007,-0.37488 0.0239,-0.50252 0.0239,-0.13558 0.0877,-0.2632 0.19143,-0.38286 0.11167,-0.12761 0.27119,-0.19142 0.47858,-0.19143 0.27917,10e-6 0.46662,0.0758 0.56234,0.22733 0.0957,0.15156 0.14357,0.43472 0.14357,0.84948 v 1.61522 h 2.47669 v -1.05288 c -2e-5,-1.43575 -0.27122,-2.44875 -0.8136,-3.03901 -0.49454,-0.54238 -1.28421,-0.81358 -2.369,-0.81359 -0.9811,1e-5 -1.73487,0.28716 -2.2613,0.86145 -0.59824,0.6461 -0.89735,1.68303 -0.89735,3.11079 v 5.86266"
             id="path3197" />
          <path
             style="font-style:normal;font-variant:normal;font-weight:normal;font-stretch:normal;font-size:22.97203255px;line-height:125%;font-family:'League Gothic';-inkscape-font-specification:'League Gothic';letter-spacing:0px;word-spacing:0px;fill:#000000;fill-opacity:1;stroke:none;stroke-width:1.06666672"
             inkscape:connector-curvature="0"
             d="m 166.93888,815.60849 c 0.0239,0.60621 0.15553,1.19647 0.39483,1.77076 0.52644,1.17254 1.4517,1.7588 2.77578,1.7588 0.80561,0 1.42379,-0.17947 1.85452,-0.5384 0.43072,-0.35097 0.74977,-0.75776 0.95716,-1.2204 0.20738,-0.4706 0.33102,-1.03294 0.3709,-1.687 v -6.89161 c -0.0239,-0.56631 -0.15554,-1.13663 -0.39482,-1.71094 -0.53442,-1.16455 -1.46368,-1.74682 -2.78776,-1.74683 -0.82156,1e-5 -1.43575,0.17948 -1.84255,0.5384 -0.81359,0.68598 -1.25627,1.68304 -1.32806,2.99116 v 6.73606 m 2.3331,0 v -6.73606 c -0.007,-0.0638 -0.012,-0.12762 -0.012,-0.19144 0,-0.18344 0.028,-0.34696 0.0837,-0.49055 0.11963,-0.45464 0.37488,-0.68197 0.76572,-0.68198 0.23132,10e-6 0.41079,0.0638 0.53841,0.19143 0.20739,0.26324 0.31108,0.61021 0.31109,1.04092 -1e-5,0.0479 -1e-5,0.0917 0,0.13162 v 6.73606 c 0.007,0.0638 0.0119,0.12763 0.0119,0.19144 0,0.19143 -0.0279,0.35894 -0.0837,0.50251 -0.11168,0.4387 -0.37091,0.65805 -0.77771,0.65805 -0.21536,0 -0.38686,-0.0638 -0.51447,-0.19143 -0.21537,-0.27917 -0.32305,-0.62216 -0.32304,-1.02895 -1e-5,-0.0479 -1e-5,-0.0917 0,-0.13162"
             id="path3199" />
          <path
             style="font-style:normal;font-variant:normal;font-weight:normal;font-stretch:normal;font-size:22.97203255px;line-height:125%;font-family:'League Gothic';-inkscape-font-specification:'League Gothic';letter-spacing:0px;word-spacing:0px;fill:#000000;fill-opacity:1;stroke:none;stroke-width:1.06666672"
             inkscape:connector-curvature="0"
             d="m 175.01497,818.94661 h 2.47667 v -10.56473 c 0.0479,-0.0798 0.13559,-0.18345 0.26322,-0.31109 0.21536,-0.21534 0.4387,-0.32302 0.67001,-0.32304 0.4387,2e-5 0.65805,0.19544 0.65806,0.58627 v 10.61259 h 2.32113 v -10.56473 c 0.0319,-0.0638 0.12363,-0.1675 0.27519,-0.31109 0.21535,-0.21534 0.4347,-0.32302 0.65805,-0.32304 0.44667,2e-5 0.67001,0.19544 0.67002,0.58627 v 10.61259 h 2.32113 v -10.9835 c -1e-5,-0.64608 -0.14758,-1.22436 -0.44269,-1.73486 -0.35894,-0.59024 -0.83355,-0.88537 -1.42379,-0.88538 -0.19144,1e-5 -0.41079,0.0678 -0.65804,0.20339 -0.48658,0.28717 -0.88539,0.59825 -1.19646,0.93324 -0.16752,0.16752 -0.29913,0.28717 -0.39484,0.35894 -0.35097,-0.99703 -0.90532,-1.49556 -1.66308,-1.49557 -0.2074,1e-5 -0.41877,0.0598 -0.63413,0.17947 -0.38287,0.2074 -0.76175,0.49853 -1.13663,0.87341 -0.17548,0.17549 -0.27121,0.26723 -0.28715,0.27518 v -1.12467 h -2.47667 v 13.40035"
             id="path3201" />
          <path
             style="font-style:normal;font-variant:normal;font-weight:normal;font-stretch:normal;font-size:22.97203255px;line-height:125%;font-family:'League Gothic';-inkscape-font-specification:'League Gothic';letter-spacing:0px;word-spacing:0px;fill:#000000;fill-opacity:1;stroke:none;stroke-width:1.06666672"
             inkscape:connector-curvature="0"
             d="m 186.8719,818.94661 h 2.57239 v -2.71595 h -2.57239 v 2.71595"
             id="path3203" />
          <path
             style="font-style:normal;font-variant:normal;font-weight:normal;font-stretch:normal;font-size:22.97203255px;line-height:125%;font-family:'League Gothic';-inkscape-font-specification:'League Gothic';letter-spacing:0px;word-spacing:0px;fill:#000000;fill-opacity:1;stroke:none;stroke-width:1.06666672"
             inkscape:connector-curvature="0"
             d="m 190.6527,815.83582 c 0,1.22837 0.25525,2.12572 0.76574,2.69204 0.32703,0.4068 0.73383,0.61019 1.22039,0.61019 0.47858,0 0.91329,-0.15554 1.30414,-0.46662 0.27916,-0.22333 0.50649,-0.49054 0.68198,-0.80163 h 0.16751 c -1e-5,0.52645 0.0757,0.88538 0.22733,1.07681 h 2.41684 c -0.11167,-0.68596 -0.16751,-1.46367 -0.1675,-2.33308 v -8.23165 c -1e-5,-0.86942 -0.30311,-1.59528 -0.90931,-2.17756 -0.59824,-0.57429 -1.30016,-0.86144 -2.10577,-0.86145 -0.95718,1e-5 -1.74684,0.35098 -2.36899,1.05288 -0.63812,0.71789 -0.95717,1.5594 -0.95717,2.52453 v 0.56233 h 2.47668 v -0.63412 c -2e-5,-0.16749 0.0159,-0.37887 0.0479,-0.63412 0.0878,-0.47059 0.30709,-0.7059 0.65806,-0.70591 0.29512,10e-6 0.49851,0.13561 0.61019,0.40679 0.0479,0.15954 0.0718,0.43074 0.0718,0.8136 v 1.47164 c -0.016,0.0399 -0.0359,0.0798 -0.0598,0.11965 -0.0239,0.0319 -0.0598,0.0678 -0.10768,0.10768 -0.0479,0.0399 -0.0957,0.0758 -0.14357,0.10768 -0.0399,0.0239 -0.0997,0.0598 -0.17947,0.10769 -0.0798,0.0399 -0.14757,0.0757 -0.2034,0.10768 -0.0479,0.0239 -0.12763,0.0638 -0.23929,0.11964 -0.10368,0.0559 -0.18346,0.0997 -0.23929,0.13161 -0.82955,0.43871 -1.47564,0.94521 -1.93826,1.51951 -0.68598,0.85347 -1.02896,1.95821 -1.02896,3.31419 m 2.42881,-0.3709 c 0,-0.67002 0.13958,-1.27224 0.41876,-1.80666 0.28715,-0.54239 0.71788,-0.93721 1.29218,-1.18449 v 3.43384 c -1e-5,0.23131 -0.0997,0.42674 -0.29911,0.58627 -0.19942,0.15155 -0.4427,0.22733 -0.72985,0.22733 -0.26322,0 -0.45067,-0.1715 -0.56234,-0.51449 -0.0798,-0.23131 -0.11964,-0.47858 -0.11964,-0.7418"
             id="path3205" />
          <path
             style="font-style:normal;font-variant:normal;font-weight:normal;font-stretch:normal;font-size:22.97203255px;line-height:125%;font-family:'League Gothic';-inkscape-font-specification:'League Gothic';letter-spacing:0px;word-spacing:0px;fill:#000000;fill-opacity:1;stroke:none;stroke-width:1.06666672"
             inkscape:connector-curvature="0"
             d="m 198.94417,818.94661 h 2.47667 v -9.30846 c -1e-5,-0.51845 0.17946,-0.92923 0.5384,-1.23235 0.28715,-0.27119 0.70192,-0.40678 1.24432,-0.40679 0.27119,10e-6 0.50251,0.0319 0.69395,0.0957 v -2.75185 c -0.74979,10e-6 -1.37992,0.2393 -1.89041,0.71787 -0.17548,0.17549 -0.31507,0.35496 -0.41876,0.5384 -0.0957,0.18348 -0.15155,0.33104 -0.1675,0.44269 v -1.49557 h -2.47667 v 13.40035"
             id="path3207" />
        </g>
        <g
           transform="translate(0.02165876,-1.0981778)"
           style="font-style:normal;font-variant:normal;font-weight:normal;font-stretch:normal;font-size:40px;line-height:125%;font-family:'League Gothic';-inkscape-font-specification:'League Gothic';letter-spacing:0px;word-spacing:0px;fill:#000000;fill-opacity:1;stroke:none"
           id="text3150">
          <path
             inkscape:connector-curvature="0"
             d="m 16.142855,851.70117 c 0.04166,1.31945 0.29861,2.45834 0.770835,3.41666 0.416663,0.93056 1.013884,1.69446 1.791666,2.29167 0.874995,0.70833 2.069438,1.0625 3.583333,1.0625 1.486102,0 2.666656,-0.35417 3.541667,-1.0625 0.819432,-0.625 1.430542,-1.38888 1.833334,-2.29167 0.472208,-0.95832 0.729152,-2.09721 0.770833,-3.41666 V 826.7845 h -4.604167 v 24.91667 c -9e-6,0.47223 -0.06251,0.85418 -0.187501,1.14584 -0.194453,0.76389 -0.645841,1.14583 -1.354166,1.14583 -0.375007,0 -0.673618,-0.11111 -0.895834,-0.33333 -0.430562,-0.5 -0.645838,-1.15278 -0.645832,-1.95834 V 826.7845 h -4.604168 v 24.91667"
             id="path3210"
             style="stroke-width:1.06666672" />
          <path
             inkscape:connector-curvature="0"
             d="m 30.476189,838.68034 h 2.187501 v 11.95833 c -4e-6,2.1389 0.215274,3.78473 0.645832,4.9375 0.722219,1.93056 2.152772,2.89583 4.291667,2.89583 0.694437,0 1.249992,-0.0417 1.666667,-0.12499 0.06943,-0.0139 0.173601,-0.0417 0.3125,-0.0833 0.152768,-0.0417 0.263879,-0.0694 0.333334,-0.0833 v -4.22917 c -0.05556,0.0139 -0.1389,0.0278 -0.25,0.0417 -0.111121,0.0139 -0.194455,0.0277 -0.25,0.0417 -0.388899,0.0556 -0.750009,0.0833 -1.083334,0.0833 -0.59723,10e-6 -0.993063,-0.46527 -1.187501,-1.39583 -0.111117,-0.51389 -0.166673,-1.32638 -0.166666,-2.4375 v -11.60416 h 2.937501 v -3.87501 h -2.937501 v -5.77083 H 32.66369 v 5.77083 h -2.187501 v 3.87501"
             id="path3212"
             style="stroke-width:1.06666672" />
          <path
             inkscape:connector-curvature="0"
             d="m 41.788689,852.32618 c 0.04166,1.05555 0.270832,2.08332 0.6875,3.08332 0.916664,2.04167 2.527774,3.0625 4.833333,3.0625 1.40277,0 2.479157,-0.31249 3.229167,-0.93749 0.749989,-0.61112 1.305545,-1.31945 1.666667,-2.12501 0.361098,-0.81943 0.576376,-1.7986 0.645833,-2.9375 v -12 c -0.04167,-0.98609 -0.270846,-1.97915 -0.687499,-2.97916 -0.930567,-2.02775 -2.548621,-3.04164 -4.854168,-3.04167 -1.430561,3e-5 -2.500004,0.31252 -3.208333,0.9375 -1.416668,1.19447 -2.187502,2.93057 -2.3125,5.20833 v 11.72918 m 4.0625,0 V 840.597 c -0.0139,-0.11109 -0.02084,-0.22219 -0.02083,-0.33333 -5e-6,-0.31942 0.04861,-0.60415 0.145833,-0.85417 0.208327,-0.79164 0.652772,-1.18747 1.333333,-1.18749 0.402771,2e-5 0.715271,0.11113 0.937501,0.33333 0.361103,0.45836 0.541658,1.06252 0.541666,1.8125 -8e-6,0.0833 -8e-6,0.15973 0,0.22916 v 11.72918 c 0.01388,0.11111 0.02082,0.22221 0.02083,0.33333 -7e-6,0.33333 -0.04862,0.625 -0.145832,0.875 -0.194454,0.76389 -0.645841,1.14583 -1.354168,1.14583 -0.375006,0 -0.673617,-0.11111 -0.895832,-0.33333 -0.375006,-0.48611 -0.562506,-1.08333 -0.562501,-1.79167 -5e-6,-0.0833 -5e-6,-0.15971 0,-0.22916"
             id="path3214"
             style="stroke-width:1.06666672" />
          <path
             inkscape:connector-curvature="0"
             d="M 55.851189,866.15951 H 60.16369 V 856.597 c 0.472215,0.41667 0.840271,0.72918 1.104166,0.93751 0.847214,0.625 1.618047,0.93749 2.3125,0.93749 1.041656,0 1.888877,-0.52083 2.541666,-1.5625 0.513877,-0.84722 0.770821,-1.84722 0.770833,-3 v -14.89583 c -1.2e-5,-1.12498 -0.256956,-2.13192 -0.770833,-3.02083 -0.680566,-1.02775 -1.527787,-1.54164 -2.541666,-1.54167 -0.430565,3e-5 -0.833342,0.10421 -1.208334,0.3125 -0.694452,0.30558 -1.430562,0.82641 -2.208332,1.56251 v -1.52085 h -4.312501 v 31.35418 m 4.312501,-13.14584 v -13.08333 c -7e-6,-0.40276 0.124993,-0.73609 0.374999,-1 0.263883,-0.27776 0.562493,-0.41664 0.895834,-0.41667 0.319436,3e-5 0.59027,0.13891 0.8125,0.41667 0.236102,0.26391 0.354158,0.59724 0.354166,1 v 13.08333 c -8e-6,0.40279 -0.118064,0.74307 -0.354166,1.02084 -0.22223,0.26389 -0.493064,0.39584 -0.8125,0.39583 -0.319452,10e-6 -0.611118,-0.14583 -0.875001,-0.4375 -0.263894,-0.30555 -0.395839,-0.63194 -0.395832,-0.97917"
             id="path3216"
             style="stroke-width:1.06666672" />
          <path
             inkscape:connector-curvature="0"
             d="m 70.184523,858.13867 h 4.3125 v -23.33334 h -4.3125 v 23.33334 m 0,-27.1875 h 3.333333 l 3.354166,-3.83334 h -4.479167 l -2.208332,3.83334"
             id="path3218"
             style="stroke-width:1.06666672" />
          <path
             inkscape:connector-curvature="0"
             d="m 77.247023,852.72201 c -10e-7,2.13889 0.444443,3.70138 1.333333,4.68749 0.569441,0.70833 1.277774,1.0625 2.125,1.0625 0.833328,0 1.590272,-0.27083 2.270833,-0.81249 0.486104,-0.3889 0.881937,-0.85417 1.187501,-1.39584 h 0.291666 c -9e-6,0.91667 0.131936,1.54167 0.395833,1.875 h 4.208333 c -0.194456,-1.19445 -0.291679,-2.54861 -0.291666,-4.0625 v -14.33333 c -1.3e-5,-1.51387 -0.52779,-2.77776 -1.583333,-3.79167 -1.041677,-0.99997 -2.263898,-1.49997 -3.666667,-1.5 -1.666672,3e-5 -3.041671,0.61113 -4.125001,1.83333 -1.111112,1.25003 -1.666667,2.7153 -1.666666,4.39584 v 0.97917 h 4.3125 v -1.10417 c -5e-6,-0.29165 0.02778,-0.6597 0.08334,-1.10417 0.152772,-0.81943 0.534715,-1.22914 1.145833,-1.22916 0.513882,2e-5 0.868048,0.23612 1.062501,0.70833 0.08333,0.2778 0.124991,0.75001 0.124999,1.41667 v 2.56249 c -0.02779,0.0694 -0.06251,0.13891 -0.104171,0.20833 -0.04167,0.0556 -0.10417,0.11807 -0.187499,0.1875 -0.08334,0.0694 -0.166676,0.13197 -0.25,0.18751 -0.06945,0.0417 -0.17362,0.10422 -0.312501,0.1875 -0.138896,0.0694 -0.256951,0.13196 -0.354166,0.1875 -0.08334,0.0417 -0.222229,0.11113 -0.416667,0.20833 -0.180562,0.0973 -0.31945,0.17362 -0.416666,0.22916 -1.44445,0.76391 -2.569449,1.64586 -3.375001,2.64584 -1.194446,1.48612 -1.791667,3.40974 -1.791666,5.77084 m 4.229166,-0.64584 c -5e-6,-1.16666 0.243051,-2.21526 0.729167,-3.14583 0.499993,-0.94443 1.249992,-1.63194 2.25,-2.0625 v 5.97917 c -9e-6,0.40278 -0.173619,0.74306 -0.520833,1.02083 -0.34723,0.26389 -0.770841,0.39584 -1.270833,0.39583 -0.458341,10e-6 -0.784729,-0.2986 -0.979167,-0.89583 -0.138894,-0.40277 -0.208339,-0.83333 -0.208334,-1.29167"
             id="path3220"
             style="stroke-width:1.06666672" />
          <path
             inkscape:connector-curvature="0"
             d="m 98.267856,858.13867 h 4.604164 V 845.597 c 2.24999,10e-6 4.09722,-0.68054 5.54167,-2.04166 1.70832,-1.61109 2.56248,-4.07637 2.5625,-7.39583 -2e-5,-3.33331 -0.85418,-5.80554 -2.5625,-7.41667 -1.37501,-1.30553 -3.22223,-1.95831 -5.54167,-1.95834 h -4.604164 v 31.35417 m 4.604164,-17.22917 v -9.4375 c 1.37499,3e-5 2.31249,0.36809 2.8125,1.10417 0.43055,0.63891 0.64583,1.88892 0.64584,3.75001 -1e-5,1.83334 -0.21529,3.03474 -0.64584,3.60416 -0.47223,0.6528 -1.40973,0.97919 -2.8125,0.97916"
             id="path3222"
             style="stroke-width:1.06666672" />
          <path
             inkscape:connector-curvature="0"
             d="m 113.26785,858.13867 h 4.3125 v -23.33334 h -4.3125 v 23.33334 m 0,-27.04167 h 4.3125 v -4.3125 h -4.3125 v 4.3125"
             id="path3224"
             style="stroke-width:1.06666672" />
          <path
             inkscape:connector-curvature="0"
             d="m 121.01786,858.13867 h 4.3125 v -16.20833 c -1e-5,-0.90277 0.31249,-1.61804 0.93749,-2.14584 0.5,-0.4722 1.22222,-0.70831 2.16667,-0.70833 0.47221,2e-5 0.87499,0.0556 1.20834,0.16667 v -4.79167 c -1.30557,3e-5 -2.40279,0.41669 -3.29167,1.25 -0.30556,0.30558 -0.54862,0.61808 -0.72916,0.9375 -0.16668,0.31946 -0.26391,0.57641 -0.29167,0.77083 v -2.60417 h -4.3125 v 23.33334"
             id="path3226"
             style="stroke-width:1.06666672" />
          <path
             inkscape:connector-curvature="0"
             d="m 130.83036,852.72201 c 0,2.13889 0.44443,3.70138 1.33333,4.68749 0.56944,0.70833 1.27777,1.0625 2.125,1.0625 0.83333,0 1.59028,-0.27083 2.27083,-0.81249 0.4861,-0.3889 0.88194,-0.85417 1.1875,-1.39584 h 0.29167 c -1e-5,0.91667 0.13193,1.54167 0.39583,1.875 h 4.20834 c -0.19447,-1.19445 -0.29168,-2.54861 -0.29167,-4.0625 v -14.33333 c -1e-5,-1.51387 -0.52779,-2.77776 -1.58334,-3.79167 -1.04167,-0.99997 -2.26389,-1.49997 -3.66667,-1.5 -1.66666,3e-5 -3.04166,0.61113 -4.12499,1.83333 -1.11111,1.25003 -1.66666,2.7153 -1.66666,4.39584 v 0.97917 h 4.3125 v -1.10417 c -1e-5,-0.29165 0.0277,-0.6597 0.0833,-1.10417 0.15277,-0.81943 0.53472,-1.22914 1.14584,-1.22916 0.51388,2e-5 0.86804,0.23612 1.06249,0.70833 0.0833,0.2778 0.125,0.75001 0.12501,1.41667 v 2.56249 c -0.0277,0.0694 -0.0625,0.13891 -0.10422,0.20833 -0.0417,0.0556 -0.10421,0.11807 -0.1875,0.1875 -0.0833,0.0694 -0.16666,0.13197 -0.24999,0.18751 -0.0694,0.0417 -0.17362,0.10422 -0.3125,0.1875 -0.1389,0.0694 -0.25695,0.13196 -0.35417,0.1875 -0.0833,0.0417 -0.22223,0.11113 -0.41667,0.20833 -0.18055,0.0973 -0.31944,0.17362 -0.41666,0.22916 -1.44445,0.76391 -2.56945,1.64586 -3.375,2.64584 -1.19445,1.48612 -1.79167,3.40974 -1.79167,5.77084 m 4.22917,-0.64584 c 0,-1.16666 0.24305,-2.21526 0.72917,-3.14583 0.49999,-0.94443 1.24998,-1.63194 2.24999,-2.0625 v 5.97917 c -1e-5,0.40278 -0.17362,0.74306 -0.52083,1.02083 -0.34723,0.26389 -0.77084,0.39584 -1.27084,0.39583 -0.45833,10e-6 -0.78472,-0.2986 -0.97916,-0.89583 -0.13889,-0.40277 -0.20833,-0.83333 -0.20833,-1.29167"
             id="path3228"
             style="stroke-width:1.06666672" />
          <path
             inkscape:connector-curvature="0"
             d="m 143.97619,838.68034 h 2.1875 v 11.95833 c 0,2.1389 0.21528,3.78473 0.64584,4.9375 0.72221,1.93056 2.15276,2.89583 4.29165,2.89583 0.69445,0 1.25,-0.0417 1.66667,-0.12499 0.0694,-0.0139 0.17361,-0.0417 0.3125,-0.0833 0.15277,-0.0417 0.26388,-0.0694 0.33334,-0.0833 v -4.22917 c -0.0556,0.0139 -0.1389,0.0278 -0.25,0.0417 -0.11112,0.0139 -0.19445,0.0277 -0.25,0.0417 -0.3889,0.0556 -0.75001,0.0833 -1.08333,0.0833 -0.59723,10e-6 -0.99307,-0.46527 -1.1875,-1.39583 -0.11113,-0.51389 -0.16668,-1.32638 -0.16667,-2.4375 v -11.60416 h 2.9375 v -3.87501 h -2.9375 v -5.77083 h -4.3125 v 5.77083 h -2.1875 v 3.87501"
             id="path3230"
             style="stroke-width:1.06666672" />
          <path
             inkscape:connector-curvature="0"
             d="m 154.99702,852.72201 c 0,2.13889 0.44444,3.70138 1.33334,4.68749 0.56944,0.70833 1.27777,1.0625 2.125,1.0625 0.83332,0 1.59027,-0.27083 2.27083,-0.81249 0.4861,-0.3889 0.88194,-0.85417 1.1875,-1.39584 h 0.29166 c -1e-5,0.91667 0.13194,1.54167 0.39583,1.875 h 4.20835 c -0.19447,-1.19445 -0.29168,-2.54861 -0.29167,-4.0625 v -14.33333 c -1e-5,-1.51387 -0.52779,-2.77776 -1.58334,-3.79167 -1.04168,-0.99997 -2.2639,-1.49997 -3.66667,-1.5 -1.66667,3e-5 -3.04166,0.61113 -4.12499,1.83333 -1.11112,1.25003 -1.66667,2.7153 -1.66667,4.39584 v 0.97917 h 4.3125 v -1.10417 c -1e-5,-0.29165 0.0277,-0.6597 0.0833,-1.10417 0.15277,-0.81943 0.53472,-1.22914 1.14583,-1.22916 0.51388,2e-5 0.86805,0.23612 1.0625,0.70833 0.0833,0.2778 0.12499,0.75001 0.125,1.41667 v 2.56249 c -0.0277,0.0694 -0.0625,0.13891 -0.10421,0.20833 -0.0417,0.0556 -0.10421,0.11807 -0.1875,0.1875 -0.0833,0.0694 -0.16667,0.13197 -0.24999,0.18751 -0.0694,0.0417 -0.17362,0.10422 -0.3125,0.1875 -0.13891,0.0694 -0.25695,0.13196 -0.35417,0.1875 -0.0833,0.0417 -0.22223,0.11113 -0.41667,0.20833 -0.18056,0.0973 -0.31945,0.17362 -0.41666,0.22916 -1.44445,0.76391 -2.56945,1.64586 -3.375,2.64584 -1.19445,1.48612 -1.79167,3.40974 -1.79167,5.77084 m 4.22916,-0.64584 c 0,-1.16666 0.24305,-2.21526 0.72918,-3.14583 0.49999,-0.94443 1.24998,-1.63194 2.24999,-2.0625 v 5.97917 c -10e-6,0.40278 -0.17362,0.74306 -0.52083,1.02083 -0.34723,0.26389 -0.77084,0.39584 -1.27084,0.39583 -0.45833,10e-6 -0.78472,-0.2986 -0.97917,-0.89583 -0.13889,-0.40277 -0.20833,-0.83333 -0.20833,-1.29167"
             id="path3232"
             style="stroke-width:1.06666672" />
        </g>
      </g>
    </g>
    <g
       transform="translate(716.49365,-48.186563)"
       id="g3134">
      <g
         style="font-style:normal;font-variant:normal;font-weight:normal;font-stretch:normal;font-size:70.77178192px;line-height:125%;font-family:FontAwesome;-inkscape-font-specification:FontAwesome;letter-spacing:0px;word-spacing:0px;fill:#000000;fill-opacity:1;stroke:none"
         id="text3110-2">
        <path
           d="m -251.60902,781.45297 c 0,-1.81175 -0.0755,-3.84998 -0.60392,-5.43527 -0.52843,-1.5098 -1.35881,-2.56666 -2.64214,-2.56666 -2.11372,0.0755 -2.79313,2.2647 -2.79313,5.51076 0,1.88725 0.83039,3.84999 2.03823,5.9637 1.20784,2.11372 2.79313,4.30293 4.37841,6.64312 1.88725,2.79312 3.77449,5.66174 5.20881,8.45487 1.4343,2.79312 2.41567,5.66174 2.41567,8.68133 0,3.69901 -0.60392,7.17154 -2.34018,9.7382 -1.73627,2.56665 -4.5294,4.22743 -8.9833,4.22743 -5.2088,0 -8.15292,-1.96274 -9.8137,-4.98233 -1.66076,-3.01959 -2.03822,-7.02057 -2.03822,-11.1725 l 8.00192,-0.75491 c 0,2.3402 0.0755,4.68039 0.67942,6.41664 0.52842,1.81177 1.43431,3.01961 3.17058,3.01961 2.41567,0 3.32155,-2.56667 3.32155,-6.11469 0,-1.81175 -0.90588,-3.92547 -2.11372,-6.11468 -0.6794,-1.05686 -1.35882,-2.18921 -2.11372,-3.32155 -1.58528,-2.2647 -3.32156,-4.83136 -5.13331,-7.62448 -1.81176,-2.79312 -3.17057,-5.66175 -4.00096,-8.60585 -0.45294,-1.43431 -0.67941,-2.94412 -0.67941,-4.45391 0,-3.01959 0.67941,-6.26566 2.41568,-8.75683 1.73626,-2.41567 4.37842,-4.15194 8.22839,-4.22743 4.90684,-0.0755 7.77547,1.96274 9.36075,4.90684 1.58529,3.0196 2.03823,6.71861 2.03823,9.81369 l -8.00193,0.7549"
           style="font-weight:bold;font-family:'League Gothic';-inkscape-font-specification:'League Gothic Bold';stroke-width:1.06666672"
           id="path3080"
           inkscape:connector-curvature="0" />
        <path
           d="m -220.29958,812.02638 c -0.22647,4.00096 -1.43432,6.79409 -4.07646,8.98329 -1.35882,1.13236 -3.24606,1.66078 -5.73723,1.66078 -4.90684,0 -7.32252,-2.71763 -8.53036,-5.43527 -0.67941,-1.58528 -1.13235,-3.39705 -1.20784,-5.43527 v -20.75972 c 0.22647,-4.00097 1.43432,-6.94508 4.07646,-9.20977 1.28332,-1.13235 3.17057,-1.66078 5.66174,-1.66078 4.90684,0 7.39801,2.71765 8.60585,5.35979 0.67941,1.58528 1.13235,3.32156 1.20784,5.28429 v 21.21266 m -7.17155,-20.98619 c 0.0755,-1.58529 -0.22646,-2.71764 -0.98136,-3.62352 -0.37745,-0.37745 -0.98138,-0.60391 -1.66078,-0.60391 -1.4343,0 -2.03823,0.98136 -2.34019,2.11371 -0.22647,0.60392 -0.30195,1.28333 -0.22647,2.11372 v 20.75972 c -0.0755,1.58528 0.30197,2.71764 0.98137,3.54803 0.37745,0.37745 0.90588,0.60391 1.58529,0.60391 1.4343,0 2.11372,-0.90588 2.41568,-2.03822 0.22646,-0.60392 0.30195,-1.28334 0.22646,-2.11372 v -20.75972"
           style="font-weight:bold;font-family:'League Gothic';-inkscape-font-specification:'League Gothic Bold';stroke-width:1.06666672"
           id="path3082"
           inkscape:connector-curvature="0" />
        <path
           d="m -213.84874,822.06654 v -34.42339 h -3.84998 v -6.86959 h 3.84998 v -1.13234 c 0,-2.11372 0.0755,-5.51078 1.13236,-8.3039 1.05685,-2.79312 3.17057,-5.05782 7.62448,-5.05782 1.20783,0 2.03821,0.0755 2.64214,0.30196 l 0.90588,0.22647 v 6.56762 c -0.22648,-0.0755 -0.45294,-0.0755 -0.67942,-0.15097 -0.52842,-0.0755 -1.05685,-0.15099 -1.58528,-0.15099 -1.28332,0 -1.88725,1.13235 -2.18921,2.56666 -0.15098,0.7549 -0.22647,1.5098 -0.22647,2.2647 0,0.75489 0,1.35882 0,1.81175 v 1.05686 h 3.84999 v 6.86959 h -3.84999 v 34.42339 h -7.62448"
           style="font-weight:bold;font-family:'League Gothic';-inkscape-font-specification:'League Gothic Bold';stroke-width:1.06666672"
           id="path3084"
           inkscape:connector-curvature="0" />
        <path
           d="m -188.67875,770.58242 v 10.19114 h 5.20881 v 6.86959 h -5.20881 v 20.53324 c 0,1.28333 0,2.94411 0.30196,4.30293 0.30196,1.35881 0.90588,2.49117 2.11372,2.49117 0.60391,0 1.35881,-0.0755 1.88724,-0.15098 0.30196,-0.0755 0.60393,-0.0755 0.90589,-0.15099 v 7.47351 c -0.37745,0.0755 -0.7549,0.22647 -1.13235,0.30196 -0.7549,0.15098 -1.73627,0.22646 -2.94411,0.22646 -4.4539,0 -6.56763,-2.26469 -7.62448,-5.13331 -1.05686,-2.86861 -1.13235,-6.34115 -1.13235,-8.75683 v -21.13716 h -3.84999 v -6.86959 h 3.84999 v -10.19114 h 7.62448"
           style="font-weight:bold;font-family:'League Gothic';-inkscape-font-specification:'League Gothic Bold';stroke-width:1.06666672"
           id="path3086"
           inkscape:connector-curvature="0" />
        <path
           d="m -162.32215,822.06654 -2.94411,-19.70287 -0.37745,-2.34018 h -0.30196 l -0.37746,2.34018 -2.9441,19.70287 h -6.34115 l -6.11468,-41.29298 h 6.94507 l 2.41568,21.59011 0.30196,2.34019 h 0.45294 l 0.37745,-2.34019 3.17057,-21.59011 h 4.5294 l 3.17057,21.59011 0.37745,2.34019 h 0.45294 l 0.30196,-2.34019 2.41568,-21.59011 h 6.94506 l -6.11467,41.29298 h -6.34115"
           style="font-weight:bold;font-family:'League Gothic';-inkscape-font-specification:'League Gothic Bold';stroke-width:1.06666672"
           id="path3088"
           inkscape:connector-curvature="0" />
        <path
           d="m -135.17646,790.58724 c 0,-0.6794 0,-1.73626 -0.22647,-2.49115 -0.30196,-0.75491 -0.90588,-1.28333 -1.88725,-1.28333 -1.28332,0 -1.81176,0.98136 -2.03823,2.1892 -0.0755,0.60392 -0.15097,1.28333 -0.15097,1.96273 0,0.67942 0,1.35883 0,1.96274 h -7.62448 v -1.73626 c 0,-3.0196 1.13234,-5.73724 2.94411,-7.77546 1.81175,-2.03823 4.37841,-3.24607 7.32251,-3.24607 2.49116,0 4.75586,0.98137 6.49213,2.64215 1.73627,1.66078 2.79313,4.00097 2.79313,6.7186 V 814.895 c 0,3.69899 0.22647,5.35978 0.52843,7.17154 h -7.47351 c -0.6794,-0.83039 -0.6794,-2.79313 -0.6794,-3.32156 h -0.52844 c -0.37744,0.6794 -1.05685,1.66078 -2.11371,2.49117 -1.05686,0.83039 -2.49117,1.4343 -4.00096,1.4343 -0.98137,0 -2.56666,-0.37745 -3.7745,-1.88724 -1.28333,-1.4343 -2.34018,-4.00097 -2.34018,-8.30389 0,-4.60488 1.35882,-7.92645 3.17057,-10.19114 1.81175,-2.26469 4.07646,-3.69901 5.9637,-4.68037 1.88724,-0.98137 3.32156,-1.66078 3.62352,-2.49117 v -4.5294 m 0,11.54997 c -3.69901,1.58528 -5.2843,5.28429 -5.2843,9.20976 0,0.52843 0.0755,1.43431 0.37745,2.2647 0.30197,0.90588 0.83039,1.58529 1.73627,1.58529 1.73627,0 3.17058,-1.05686 3.17058,-2.49117 v -10.56858"
           style="font-weight:bold;font-family:'League Gothic';-inkscape-font-specification:'League Gothic Bold';stroke-width:1.06666672"
           id="path3090"
           inkscape:connector-curvature="0" />
        <path
           d="m -107.44454,788.62451 c -0.67942,-0.22647 -1.43432,-0.30196 -2.11372,-0.30196 -1.20784,0 -2.64216,0.15099 -3.84999,1.28333 -1.43431,1.20784 -1.66077,2.49117 -1.66077,3.77449 v 28.68617 h -7.62448 v -41.29298 h 7.62448 v 4.60488 c 0.0755,-0.52842 0.60391,-1.81175 1.81175,-3.01959 1.20784,-1.13235 3.0196,-2.18921 5.81273,-2.18921 v 8.45487"
           style="font-weight:bold;font-family:'League Gothic';-inkscape-font-specification:'League Gothic Bold';stroke-width:1.06666672"
           id="path3092"
           inkscape:connector-curvature="0" />
        <path
           d="m -85.311846,807.27052 v 4.75586 c -0.22647,4.00096 -1.434311,6.79409 -4.151945,8.98329 -1.358817,1.13236 -3.246068,1.66078 -5.737232,1.66078 -4.906837,0 -7.398007,-2.71763 -8.605847,-5.43527 -0.67941,-1.58528 -1.13235,-3.39705 -1.20784,-5.43527 v -20.75972 c 0.22647,-4.00097 1.5098,-6.94508 4.22743,-9.20977 1.283331,-1.13235 3.170582,-1.66078 5.661746,-1.66078 4.90684,0 7.398012,2.71765 8.605849,5.35979 0.679409,1.58528 1.132348,3.32156 1.207839,5.28429 v 12.00289 H -97.91866 v 8.9833 c 0.07549,1.58528 0.52843,2.71764 1.207839,3.54803 0.377448,0.37745 0.905879,0.60391 1.585287,0.60391 1.434307,0 2.113717,-0.90588 2.415677,-2.03822 0.226469,-0.60392 0.301959,-1.28334 0.301959,-2.11372 v -4.52939 h 7.096052 M -97.91866,796.85291 h 5.510762 v -5.81272 c 0,-1.58529 -0.301959,-2.71764 -1.056858,-3.62352 -0.377449,-0.37745 -0.981369,-0.60391 -1.660778,-0.60391 -1.434306,0 -2.038227,0.98136 -2.415677,2.11371 -0.226469,0.60392 -0.301959,1.28333 -0.377449,2.11372 v 5.81272"
           style="font-weight:bold;font-family:'League Gothic';-inkscape-font-specification:'League Gothic Bold';stroke-width:1.06666672"
           id="path3094"
           inkscape:connector-curvature="0" />
        <path
           d="m -68.43514,766.58146 h 8.152909 v 47.93609 h 10.795056 v 7.54899 H -68.43514 v -55.48508"
           style="font-weight:bold;font-family:'League Gothic';-inkscape-font-specification:'League Gothic Bold';stroke-width:1.06666672"
           id="path3096"
           inkscape:connector-curvature="0" />
        <path
           d="m -46.171517,766.58146 h 7.62448 v 7.62448 h -7.62448 v -7.62448 m 0,55.48508 v -41.29298 h 7.62448 v 41.29298 h -7.62448"
           style="font-weight:bold;font-family:'League Gothic';-inkscape-font-specification:'League Gothic Bold';stroke-width:1.06666672"
           id="path3098"
           inkscape:connector-curvature="0" />
        <path
           d="m -32.459473,766.58146 h 7.62448 v 16.90974 c 1.283327,-1.20784 2.415678,-2.11372 3.925475,-2.79313 0.679408,-0.37745 1.434308,-0.52843 2.113717,-0.52843 2.113716,0 3.548026,1.20784 4.529395,2.71763 0.905877,1.5853 1.358818,3.62352 1.358818,5.35979 v 26.34597 c 0,1.73627 -0.452941,3.7745 -1.358818,5.2843 -0.981369,1.58528 -2.415679,2.79312 -4.529395,2.79312 -1.434307,0 -2.944107,-0.83039 -4.076455,-1.66078 -0.679408,-0.52842 -1.283329,-1.05685 -1.962737,-1.66077 v 2.71764 h -7.62448 v -55.48508 m 7.62448,46.42628 c 0,1.43432 1.13235,2.49117 2.264698,2.49117 1.132346,0 2.038227,-1.05685 2.038227,-2.49117 v -23.17539 c 0,-1.43431 -0.905881,-2.49117 -2.038227,-2.49117 -1.132348,0 -2.264698,1.28333 -2.264698,2.49117 v 23.17539"
           style="font-weight:bold;font-family:'League Gothic';-inkscape-font-specification:'League Gothic Bold';stroke-width:1.06666672"
           id="path3100"
           inkscape:connector-curvature="0" />
        <path
           d="m 8.1493665,788.62451 c -0.6794084,-0.22647 -1.4343088,-0.30196 -2.1137172,-0.30196 -1.2078372,0 -2.6421478,0.15099 -3.849985,1.28333 -1.43430661,1.20784 -1.66077775,2.49117 -1.66077775,3.77449 v 28.68617 H -7.0995934 v -41.29298 h 7.62447995 v 4.60488 c 0.0754898,-0.52842 0.60392035,-1.81175 1.81175765,-3.01959 1.2078372,-1.13235 3.0195988,-2.18921 5.8127223,-2.18921 v 8.45487"
           style="font-weight:bold;font-family:'League Gothic';-inkscape-font-specification:'League Gothic Bold';stroke-width:1.06666672"
           id="path3102"
           inkscape:connector-curvature="0" />
        <path
           d="m 30.28205,807.27052 v 4.75586 c -0.226469,4.00096 -1.434311,6.79409 -4.151944,8.98329 -1.358817,1.13236 -3.246069,1.66078 -5.737233,1.66078 -4.906839,0 -7.398011,-2.71763 -8.605849,-5.43527 -0.679408,-1.58528 -1.132348,-3.39705 -1.207838,-5.43527 v -20.75972 c 0.226469,-4.00097 1.509801,-6.94508 4.227435,-9.20977 1.283327,-1.13235 3.170578,-1.66078 5.661742,-1.66078 4.906838,0 7.398011,2.71765 8.605848,5.35979 0.679409,1.58528 1.132349,3.32156 1.207839,5.28429 v 12.00289 H 17.675236 v 8.9833 c 0.07549,1.58528 0.52843,2.71764 1.207839,3.54803 0.377449,0.37745 0.90588,0.60391 1.585288,0.60391 1.434307,0 2.113717,-0.90588 2.415676,-2.03822 0.22647,-0.60392 0.30196,-1.28334 0.30196,-2.11372 v -4.52939 H 30.28205 M 17.675236,796.85291 h 5.510763 v -5.81272 c 0,-1.58529 -0.30196,-2.71764 -1.056859,-3.62352 -0.377448,-0.37745 -0.981368,-0.60391 -1.660777,-0.60391 -1.434306,0 -2.038228,0.98136 -2.415677,2.11371 -0.226469,0.60392 -0.30196,1.28333 -0.37745,2.11372 v 5.81272"
           style="font-weight:bold;font-family:'League Gothic';-inkscape-font-specification:'League Gothic Bold';stroke-width:1.06666672"
           id="path3104"
           inkscape:connector-curvature="0" />
      </g>
      <g
         style="font-style:normal;font-variant:normal;font-weight:normal;font-stretch:normal;font-size:47.18118668px;line-height:125%;font-family:FontAwesome;-inkscape-font-specification:FontAwesome;letter-spacing:0px;word-spacing:0px;fill:#000000;fill-opacity:1;stroke:none"
         id="text3114">
        <path
           d="m -257.7237,731.51642 v -5.68691 c 0,-1.00652 -0.2013,-1.7111 -0.70457,-2.31502 -0.25163,-0.25163 -0.65425,-0.40262 -1.10719,-0.40262 -0.9562,0 -1.40914,0.70458 -1.61045,1.35883 -0.15098,0.40261 -0.2013,0.85555 -0.2013,1.35881 v 22.24436 c 0,1.05686 0.25164,1.76144 0.7549,2.31503 0.25163,0.25162 0.60392,0.40261 1.05685,0.40261 0.95621,0 1.40916,-0.60393 1.61046,-1.35882 0.15097,-0.35228 0.2013,-0.80522 0.2013,-1.35882 v -6.69343 h -2.16404 v -4.57973 h 7.59931 v 18.41954 h -3.22089 l -0.65425,-1.76143 c -1.00653,1.25816 -2.46601,2.16404 -4.22744,2.16404 -1.76143,0 -2.96927,-0.45294 -3.87514,-1.25817 -0.90588,-0.7549 -1.50981,-1.7111 -1.91241,-2.71763 -0.45294,-1.15751 -0.65425,-2.51633 -0.60393,-4.02613 v -21.79142 c 0.0503,-1.45946 0.35229,-2.81829 0.90588,-3.97579 0.45294,-1.00654 1.10719,-2.01307 2.11372,-2.76797 1.00654,-0.7549 2.41568,-1.25817 4.22743,-1.25817 1.81176,0 3.17059,0.50327 4.17711,1.25817 1.00653,0.7549 1.71111,1.76143 2.16405,2.76797 0.55359,1.1575 0.85555,2.51633 0.90587,3.97579 v 5.68691 h -5.43527"
           style="font-family:'League Gothic';-inkscape-font-specification:'League Gothic';stroke-width:1.06666672"
           id="path3107"
           inkscape:connector-curvature="0" />
        <path
           d="m -242.60685,735.94516 -0.45294,-1.7111 h -0.30195 v 20.98619 h -4.98233 V 718.2302 h 4.83134 l 5.2843,19.27508 0.45294,1.7111 h 0.30195 V 718.2302 h 4.98234 v 36.99005 h -4.83135 l -5.2843,-19.27509"
           style="font-family:'League Gothic';-inkscape-font-specification:'League Gothic';stroke-width:1.06666672"
           id="path3109"
           inkscape:connector-curvature="0" />
        <path
           d="m -214.04493,718.2302 v 29.39073 c -0.0503,1.5098 -0.35229,2.86862 -0.90588,4.02613 -0.45293,1.00653 -1.15751,1.96273 -2.16404,2.71763 -1.00653,0.80523 -2.36535,1.25817 -4.17711,1.25817 -1.81175,0 -3.2209,-0.45294 -4.22743,-1.25817 -1.00653,-0.7549 -1.66078,-1.7111 -2.11372,-2.71763 -0.55359,-1.15751 -0.85555,-2.51633 -0.90588,-4.02613 V 718.2302 h 5.43528 v 29.39073 c 0,1.05686 0.25162,1.76143 0.75489,2.31503 0.25164,0.25162 0.60392,0.40261 1.05686,0.40261 0.95621,0 1.40914,-0.60392 1.61046,-1.35883 0.15097,-0.35227 0.2013,-0.80521 0.2013,-1.35881 V 718.2302 h 5.43527"
           style="font-family:'League Gothic';-inkscape-font-specification:'League Gothic';stroke-width:1.06666672"
           id="path3111"
           inkscape:connector-curvature="0" />
      </g>
    </g>
  </g>
</svg>
