<?xml version="1.0" encoding="UTF-8" standalone="no"?>
<!-- Created with Inkscape (http://www.inkscape.org/) -->

<svg
   xmlns:dc="http://purl.org/dc/elements/1.1/"
   xmlns:cc="http://creativecommons.org/ns#"
   xmlns:rdf="http://www.w3.org/1999/02/22-rdf-syntax-ns#"
   xmlns:svg="http://www.w3.org/2000/svg"
   xmlns="http://www.w3.org/2000/svg"
   xmlns:sodipodi="http://sodipodi.sourceforge.net/DTD/sodipodi-0.dtd"
   xmlns:inkscape="http://www.inkscape.org/namespaces/inkscape"
   width="105mm"
   height="148mm"
   viewBox="0 0 105 148"
   version="1.1"
   id="svg12359"
   inkscape:version="0.92.2 5c3e80d, 2017-08-06"
   sodipodi:docname="copyrightHistory.svg">
  <defs
     id="defs12353" />
  <sodipodi:namedview
     id="base"
     pagecolor="#ffffff"
     bordercolor="#666666"
     borderopacity="1.0"
     inkscape:pageopacity="0.0"
     inkscape:pageshadow="2"
     inkscape:zoom="0.98994949"
     inkscape:cx="27.849309"
     inkscape:cy="248.44651"
     inkscape:document-units="mm"
     inkscape:current-layer="layer1"
     showgrid="false"
     inkscape:window-width="1920"
     inkscape:window-height="1053"
     inkscape:window-x="0"
     inkscape:window-y="27"
     inkscape:window-maximized="0" />
  <metadata
     id="metadata12356">
    <rdf:RDF>
      <cc:Work
         rdf:about="">
        <dc:format>image/svg+xml</dc:format>
        <dc:type
           rdf:resource="http://purl.org/dc/dcmitype/StillImage" />
        <dc:title></dc:title>
      </cc:Work>
    </rdf:RDF>
  </metadata>
  <g
     inkscape:label="Layer 1"
     inkscape:groupmode="layer"
     id="layer1"
     transform="translate(0,-149)">
    <g
       transform="matrix(0.58458348,0,0,-0.58458192,1.8067776e-4,287.99997)"
       inkscape:label="ink_ext_XXXXXX"
       id="g50570">
      <g
         transform="scale(0.1)"
         id="g50572">
        <path
           inkscape:connector-curvature="0"
           id="path50574"
           style="fill:#231f20;fill-opacity:1;fill-rule:evenodd;stroke:none"
           d="m 68.0508,317.234 c -13.9336,16.805 0.4023,56.274 20.4453,56.274 10.1641,0 14.5389,-4.719 12.9839,-14 -5.5737,-33.199 57.051,-4.985 71.125,32.047 7.77,20.422 7.77,20.422 7.77,20.422 21.73,-20.723 21.73,-20.723 21.73,-20.723 v 0 c 32.192,-30.711 60.04,-39.238 80.754,-24.727 9.332,6.539 16.969,15.286 16.969,19.434 0,10.781 -27.008,9.336 -38.398,-2.055 -12.985,-12.976 -12.09,-2.422 2.117,25.043 13.031,25.207 56.363,64.606 70.894,64.469 5.168,-0.051 -2.312,-9.313 -16.609,-20.582 -37.754,-29.75 -31.902,-38.969 7.629,-12.012 18.492,12.614 38.293,21.141 43.996,18.953 5.711,-2.187 10.371,-1.679 10.371,1.129 0,2.817 -8.094,8.371 -17.996,12.352 -11.949,4.805 -13.668,7.406 -5.113,7.742 9.765,0.383 13.949,11.66 17.261,46.504 2.403,25.305 6.817,52.125 9.813,59.609 4.82,12.047 -0.813,13.524 -49.258,12.907 -129.59,-1.653 -225.359,74.898 -237.0858,189.488 -4.0508,39.633 -3.7656,40.238 31.1448,66.254 19.379,14.437 35.238,29.351 35.238,33.136 0,3.782 -29.699,32.133 -66,62.997 -79.9414,67.965 -108.5859,97.615 -94.31247,97.615 5.76563,0 44.19137,-27.11 85.38677,-60.252 C 130.105,956.125 169,927.023 175.332,924.59 c 14.731,-5.649 15.449,-1.055 40.766,260.92 21.031,217.59 26.004,253.19 27.101,194 1.199,-64.6 19.321,-36.25 52.582,82.29 13.207,47.07 13.102,49.77 -4.226,106.81 -12.141,39.96 -19.95,55.09 -24.625,47.71 -4.317,-6.81 -6.903,4.55 -6.981,30.72 -0.332,113.1 -48.84,20.84 -87.508,-166.46 -5.101,-24.71 -14.714,-51.71 -21.355,-60 -11.746,-14.65 -11.969,-14.62 -7.961,0.93 2.266,8.8 8.035,55.6 12.828,104 10.594,107.06 12.375,114.65 42.293,180 13.098,28.6 26.18,64.6 29.074,80 4.883,25.99 7.328,21.39 34.11,-64 15.867,-50.6 34.699,-112.7 41.851,-138 7.149,-25.3 17.055,-46.01 22.016,-46.01 13.976,0 63.316,38.18 96.766,74.86 30.234,33.15 30.234,33.15 30.234,33.15 -13.125,-31.88 -13.125,-31.88 -13.125,-31.88 v 0 c -24.602,-59.75 -1.434,-143.65 62.59,-226.63 38.301,-49.64 67.078,-71.69 78.57,-60.19 4.906,4.9 -1.016,20.81 -16.394,44.03 -24.028,36.27 -40.106,95.91 -40.106,148.74 0,23.88 -1.723,26.46 -12,17.92 -8.949,-7.42 -12.004,-7.55 -12.004,-0.49 0,5.2 17.508,28.14 38.902,50.97 46.875,50.04 145.102,217.38 145.102,247.21 0,11.73 -5.062,44.05 -11.242,71.82 -6.188,27.78 -13.688,68.15 -16.676,89.72 -5.43,39.22 -5.43,39.22 -5.43,39.22 C 614.543,2000 614.543,2000 614.543,2000 v 0 c -32.965,-32.96 -36.5,-40.41 -42.633,-89.85 -6.48,-52.24 -8.289,-55.58 -58.265,-107.35 -28.375,-29.39 -61.016,-72.04 -72.551,-94.8 -29.301,-57.82 -39.926,-61.93 -34.867,-13.48 2.242,21.44 6.753,49.48 10.023,62.3 5.305,20.77 4.297,22.62 -9.238,16.97 -8.352,-3.49 -24.18,-8.17 -35.18,-10.41 -20,-4.06 -20,-4.06 -20,-4.06 20,22.07 20,22.07 20,22.07 v 0 c 11,12.15 39.09,36.3 62.43,53.67 46.578,34.67 54.121,47.56 61.718,105.42 4.032,30.67 11.801,45.92 36.485,71.61 17.254,17.95 31.367,36.76 31.367,41.79 0,5.03 7.328,15.78 16.289,23.89 18.762,16.98 47.711,78.44 47.711,101.28 0,8.53 -3.73,22.47 -8.281,30.99 -6.754,12.61 -5.645,15.46 5.996,15.43 10.742,-0.02 14.644,-7.07 15.742,-28.37 0.801,-15.58 12.477,-88.47 25.945,-161.97 13.469,-73.49 26.477,-147.12 28.903,-163.62 2.492,-16.9 8.929,-30 14.746,-30 22.07,0 179.699,116.01 230.894,169.94 29.672,31.26 56.297,54.48 59.173,51.61 2.87,-2.87 -9.981,-21.72 -28.555,-41.87 -41.266,-44.77 -56.567,-79.51 -56.567,-128.48 0,-44.19 21.633,-83.86 53.805,-98.68 12.207,-5.62 42.887,-12.14 68.177,-14.48 45.53,-4.22 46.37,-3.91 84.01,31.09 53.26,49.53 97.53,82.01 103.56,75.99 2.81,-2.82 -9.76,-18.85 -27.94,-35.63 -25.29,-23.36 -45.14,-56.81 -84.49,-142.47 -73.46,-159.84 -92.41,-225.37 -101.44,-350.72 -5,-69.44 -4.72,-126.95 0.85,-172.08 4.6,-37.28 9.17,-68.59 10.15,-69.57 6.39,-6.39 53.72,56.09 160.63,212.03 55.4,80.82 61.72,96.12 48.38,117.27 -5.57,8.83 -12.48,27.41 -15.37,41.29 -4.26,20.44 -1.52,28.81 14.42,44 17.1,16.3 21.32,31.95 32.36,119.79 14.85,118.16 27.54,162.29 28.47,98.97 0.32,-22.01 -3.79,-75.31 -9.13,-118.46 -7.58,-61.21 -7.59,-81.85 -0.08,-93.9 5.31,-8.48 9.64,-24.47 9.64,-35.53 0,-11.06 3.76,-20.11 8.35,-20.11 4.58,0 38.12,29.7 74.51,65.99 36.4,36.31 76.74,75.63 89.66,87.39 25.12,22.88 29.93,28.23 82.76,92.06 18.86,22.8 39.53,43.46 45.92,45.91 14.2,5.45 9.72,-2.56 -29.03,-51.88 -36,-45.8 -120.76,-216.04 -147.14,-295.47 -34.29,-103.33 -47.68,-187.33 -42.67,-267.72 4.87,-78.21 29.56,-169.958 56.06,-208.282 40.76,-58.977 115.45,-134.672 166.1,-168.348 50.54,-33.597 71.48,-51.652 59.91,-51.652 -2.48,0 -32.39,14.269 -66.47,31.719 -50.18,25.687 -75.65,33.289 -133.96,39.98 -84.96,9.738 -145.74,10.672 -150.39,2.301 -8.5,-15.289 7.78,-82.395 24.13,-99.469 36.73,-38.348 54.78,-52.934 71.85,-58.062 9.68,-2.911 19.85,-12.399 22.61,-21.094 2.76,-8.692 14.64,-21.922 26.41,-29.403 11.76,-7.48 24.04,-17.289 27.27,-21.789 9.99,-13.921 6.73,-47.75 -6.42,-66.527 -25.2,-35.988 -14.17,-47.43 96.21,-99.73 112.65,-53.391 165.41,-63.735 183.26,-35.926 16.82,26.203 -16.17,54.914 -48.73,42.414 -9.53,-3.656 -10.54,-7.27 -3.88,-13.938 6.67,-6.664 12.44,-6.144 22.26,2.008 11.6,9.625 12.9,9.137 10.34,-3.883 -4.35,-22.164 -27.72,-34.519 -44.92,-23.754 -22.96,14.379 -22.19,48.032 1.46,63.532 25.6,16.777 56.41,10.211 86.54,-18.449 25.51,-24.262 29.78,-67.266 9.55,-96.153 -12.46,-17.777 -12.46,-17.777 -12.46,-17.777 -846.565,0 -846.565,0 -846.565,0 v 0 c -734.117,0 -847.855,1.558 -856.3042,11.726 v 0 m 407.7772,84.274 v 0 c 0,-8.891 -5.332,-16 -11.996,-16 -6.668,0 -12,7.109 -12,16 0,8.887 5.332,15.996 12,15.996 6.664,0 11.996,-7.109 11.996,-15.996 m 904.002,-0.988 v 0 c 0,-3.86 -0.96,-7.012 -2.13,-7.012 -6.29,0 -116.31,68.226 -113.9,70.633 4.82,4.824 116.03,-56.153 116.03,-63.621 m -771.998,21.277 v 0 c 0,0 0,0 24,-10.992 0,0 0,0 -24,0.281 -30.426,0.352 -53.879,5.957 -63.598,15.199 -11.953,11.356 36.45,7.938 63.598,-4.488 m -149.469,21.777 v 0 c -2.66,-23.023 -26.078,-34.859 -32.64,-16.5 -5.375,15.035 8.578,38.434 22.922,38.434 8.636,0 11.5,-6.469 9.718,-21.934 m 286.614,3.93 v 0 c -19.153,-12.098 -38.047,-21.785 -41.985,-21.527 -3.937,0.257 -0.414,4.761 7.832,10 8.246,5.246 27.145,17.523 41.996,27.289 14.856,9.765 27.004,15.168 27,12 -0.011,-3.164 -15.687,-15.661 -34.843,-27.762 m 216.39,14.055 v 0 c 41.263,-35.832 31.082,-41.563 -13.625,-7.672 -42.328,32.082 -54.258,33.519 -83.996,10.121 -13.211,-10.387 -20.758,-13.024 -18.574,-6.485 2.016,6.055 12.703,17.758 23.75,26.008 25.785,19.246 52.191,12.973 92.445,-21.972 M 618.141,446.625 v 0 c 10.765,-10.766 11.019,-12.949 1.406,-12.168 -24.785,2.012 -86.793,19.383 -93.102,26.078 -12.445,13.227 78.336,-0.551 91.696,-13.91 m 47.929,19.754 v 0 c 40.047,-20.551 21.696,-25.555 -29.257,-7.984 -23.665,8.16 -60.563,17.156 -82.004,20.003 -21.442,2.84 -38.981,8.305 -38.981,12.137 0,8.879 8.59,8.703 71.043,-1.43 28.07,-4.554 63.711,-14.785 79.199,-22.726 m 406.25,15.918 v 0 c -2.45,-3.969 -16.17,-11.16 -30.47,-15.973 v 0 c 0,0 0,0 -26.02,-8.765 0,0 0,0 20,15.796 20.38,16.094 44.58,22.02 36.49,8.942 m -628.574,-4.891 v 0 c -5.43,-6.543 -16.758,-11.898 -25.176,-11.898 -12.355,0 -13.789,2.82 -7.457,14.66 4.313,8.059 13.399,19.266 20.188,24.895 10.203,8.472 13.207,7.996 17.332,-2.758 2.746,-7.149 0.543,-18.356 -4.887,-24.899 m 278.942,-4.773 v 0 c -14.583,-9.242 -18.782,-8.528 -78.856,13.437 -28.602,10.457 -69.215,19.11 -90.254,19.223 -26.953,0.152 -39.648,3.863 -42.988,12.559 -2.602,6.793 -3.254,13.828 -1.445,15.64 6.21,6.211 106.699,-11.367 157.156,-27.492 63.051,-20.148 70.394,-24.492 56.387,-33.367 m 109.66,33.715 v 0 c -2.973,-4.817 -12.84,-12.735 -21.926,-17.598 -11.836,-6.332 -14.988,-6.355 -11.109,-0.082 2.972,4.812 12.843,12.734 21.925,17.598 11.836,6.332 14.989,6.355 11.11,0.082 m 523.482,-21.821 v 0 c 0,-6.582 -6.57,-2.343 -17.02,10.981 -9.95,12.691 -9.67,12.969 3.02,3.023 7.7,-6.043 14,-12.343 14,-14.004 m -595.959,13.047 v 0 c -7.476,-12.101 -27.57,-8.801 -73.019,11.989 -22.539,10.304 -63.938,22.855 -91.997,27.886 -82.925,14.871 -87.023,16.008 -87.023,24.211 0,4.317 15.297,7.789 34,7.711 65.109,-0.266 228.914,-54.199 218.039,-71.797 m -316.039,39.52 v 0 c 0,-3.156 -9.004,-11.645 -20,-18.852 -15.867,-10.394 -20,-10.844 -20,-2.156 0,13.809 27.481,39.269 34.648,32.105 2.942,-2.941 5.352,-7.937 5.352,-11.097 m 357.731,-12.602 v 0 c 5.324,-16.301 -17.7,-17.402 -47.215,-2.262 -44.645,22.907 -146.5,55.274 -173.926,55.274 -13.527,0 -24.594,3.605 -24.594,8.004 0,10.758 55.395,10.168 87.219,-0.93 33.887,-11.808 38.578,-4.961 21.269,31.027 -18.171,37.79 -36.878,89.903 -32.265,89.903 5.211,0 40.215,-71.77 50.726,-104 8.075,-24.75 15.328,-30.32 62.489,-48 29.343,-11.004 54.679,-24.055 56.297,-29.016 m 332.597,-1.164 v 0 c -33.1,-22.969 -45.65,-22.449 -15.02,0.621 98.7,74.352 93.76,71.692 113.52,61.114 10.27,-5.497 26.88,-19.083 36.92,-30.196 v 0 c 0,0 0,0 18.25,-20.199 0,0 0,0 -26.82,19.418 -14.76,10.68 -31.75,22.937 -37.76,27.227 -7.91,5.652 -18.17,1.187 -37.18,-16.176 -14.43,-13.188 -37.79,-32 -51.91,-41.809 m -249.055,15.52 v 0 c -53.148,-36.762 -52.562,-29.508 0.774,9.547 28.496,20.863 45.953,22.304 45.953,3.785 0,-4.614 -5.727,-6.188 -12.727,-3.504 -7,2.691 -22.296,-1.738 -34,-9.828 m 567.285,-4.668 v 0 c -15.56,-18.75 -61.97,-16.461 -72.69,3.586 -4.79,8.937 -14.82,15.238 -22.29,13.996 -10.89,-1.805 -13.39,3.699 -12.67,27.746 1.03,33.89 -10.48,38.789 -32.91,14 -7.96,-8.801 -18.42,-15.906 -23.24,-15.781 -4.82,0.117 4.69,12.718 21.12,27.996 21.92,20.382 37.12,27.785 57.02,27.785 28.31,0 52.92,-18.227 37.49,-27.762 -14.53,-8.976 -9.23,-16.676 16.93,-24.586 32.4,-9.789 45.61,-29.668 31.24,-46.98 m -616.562,11.047 v 0 c 0,-8.055 -20.765,-9.375 -37.996,-2.418 -12.18,4.91 -13.379,26.699 -1.477,26.699 13.68,0 39.473,-15.871 39.473,-24.281 M 1064.4,566.27 v 0 c -19.48,-11.422 -41.98,-20.477 -50,-20.133 -9.01,0.39 -5.41,3.843 9.43,9.043 13.2,4.629 29.4,12.8 36,18.156 12.73,10.336 40,21.707 40,16.68 0,-1.641 -15.94,-12.328 -35.43,-23.746 m -643.818,-4.36 v 0 c -8.633,-4.621 -17.621,-8.402 -19.973,-8.402 -8.468,0 4.711,22.859 15.582,27.027 17.832,6.848 21.657,-9.387 4.391,-18.625 m 447.25,2.664 v 0 c 0,-13.789 3.66,-14.48 -46,8.645 -48.055,22.367 -59.016,43.859 -12.004,23.523 16.504,-7.133 36.305,-14.804 44.004,-17.035 7.699,-2.234 14,-9.047 14,-15.133 m -109.965,38.934 v 0 c 6.719,-23.102 10.641,-42 8.719,-42 -6.645,0 -42.598,84.062 -42.676,99.781 -0.078,15.703 -0.027,15.703 10.836,0 6,-8.68 16.406,-34.684 23.121,-57.781 m 241.961,-34 v 0 c -2.719,-4.399 -10.34,-8 -16.941,-8 -6.598,0 -9.778,3.601 -7.059,8 2.723,4.398 10.348,7.996 16.945,7.996 6.602,0 9.777,-3.598 7.055,-7.996 m -272.23,26 v 0 c 2.922,-9.903 1.949,-18.004 -2.164,-18.004 -4.11,0 -18.317,27.004 -31.567,60 -13.246,33.004 -20.726,60 -16.621,60 7.246,0 39.594,-65.531 50.352,-101.996 m 172.23,-10 v 0 c 0,-4.399 -4.496,-7.899 -10,-7.778 -16.535,0.372 -110.238,44.59 -124.316,58.668 -21.481,21.477 2.011,15.766 61.25,-14.89 29.761,-15.399 58.375,-28 63.59,-28 5.214,0 9.476,-3.602 9.476,-8 m 72.004,4 v 0 c -23.711,-13.555 -29.59,-14.371 -35.441,-4.906 -4.411,7.132 21.125,16.839 43.437,16.511 7.082,-0.101 3.805,-4.859 -7.996,-11.605 m 187.998,21.91 v 0 c -13.2,-4.555 -31.2,-10.719 -40,-13.703 -8.8,-2.988 -1.6,3.824 16,15.137 17.6,11.32 39.02,20.589 47.6,20.617 19.98,0.051 7.97,-11.168 -23.6,-22.051 m 142.61,2.898 v 0 c -22.81,-21.152 -34.61,-26.031 -34.61,-14.312 0,8.641 48.17,44 53.15,39.016 2.15,-2.141 -6.2,-13.258 -18.54,-24.704 m -658.608,-0.808 v 0 c 8.27,-9.961 7.418,-11.817 -5.023,-10.91 -31.153,2.265 -50.977,8.281 -50.977,15.465 0,12.14 45.195,8.464 56,-4.555 M 386.5,616.785 v 0 c 1.465,-4.004 -20.137,-7.242 -48.004,-7.199 -55.68,0.086 -118.238,23.691 -146.266,55.184 -21.621,24.3 -20.453,68.289 2.411,90.914 10.441,10.336 16.156,12.785 13.597,5.824 -2.855,-7.77 6.117,-19.051 25.457,-32 C 305.309,681.566 384.043,623.484 386.5,616.785 m 625.21,6.723 v 0 c 0.07,-7.703 -3.59,-14 -8.13,-14 -11.584,0 -18.475,21.367 -12.174,37.777 4.528,11.797 6.352,12.086 12.734,1.996 4.1,-6.472 7.5,-18.074 7.57,-25.773 m -106.948,30.469 v 0 c 2.429,-6.344 3.218,-17.356 1.746,-24.469 -2.149,-10.391 -4.649,-10.953 -12.676,-2.867 -12.074,12.152 -13.273,38.867 -1.754,38.867 4.543,0 10.246,-5.192 12.684,-11.531 m 38.551,-29.309 v 0 c -6.981,-11.293 -19.481,-8.352 -19.481,4.59 0,7.133 4.691,9.945 11.953,7.16 6.574,-2.52 9.961,-7.809 7.528,-11.75 m 299.047,14.516 v 0 c -32.87,-24.184 -39.45,-26.289 -36.53,-11.68 2.47,12.324 61.28,49.391 67.88,42.785 2.64,-2.629 3.29,-5.824 1.46,-7.105 -1.84,-1.282 -16.6,-12.079 -32.81,-24 m -195.25,23.914 v 0 c 9.98,-14.805 12.41,-25.106 7.17,-30.34 -11.44,-11.445 -28.29,11.699 -24.97,34.308 2.69,18.27 2.85,18.239 17.8,-3.968 m -415.278,-13.59 v 0 c 2.801,-4.535 -3.918,-8 -15.527,-8 -11.262,0 -20.477,3.601 -20.477,8 0,4.398 6.988,7.996 15.527,7.996 8.543,0 17.754,-3.598 20.477,-7.996 m 180,-4.856 v 0 c 0,-6.476 -15.246,-2.839 -19.945,4.762 -2.801,4.535 0.41,5.879 7.527,3.145 6.832,-2.621 12.418,-6.176 12.418,-7.907 m 147.52,30.856 v 0 c 6.472,-18.699 9.226,-33.906 6.121,-33.789 -12.481,0.472 -49.993,28.336 -53.418,39.679 -9.75,32.309 -37.028,169.973 -34.227,172.774 3.738,3.738 64.414,-129.231 81.524,-178.664 m 136.698,-17.653 v 0 c -13.82,-22.363 -42.6,13.665 -29.55,36.989 6.41,11.457 9.09,10.465 21.03,-7.754 7.52,-11.485 11.36,-24.641 8.52,-29.235 m -228.218,10.258 v 0 c 0,-18.781 -15.801,-11.32 -31.82,15.024 -8.574,14.093 -13.907,27.312 -11.852,29.363 5.863,5.867 43.672,-32.562 43.672,-44.387 m 365.998,21.535 v 0 c -23.1,-10.472 -45.08,-20.617 -48.85,-22.539 -3.76,-1.921 -4.89,6.829 -2.51,19.45 2.39,12.621 6.54,39.754 9.24,60.293 5.32,40.511 12.63,49.707 45.8,57.625 27.15,6.48 38.32,-11.27 38.32,-60.852 0,-34.402 -0.65,-35.234 -42,-53.977 m -614.002,-8.613 v 0 c 0,-4.14 -2.996,-7.527 -6.664,-7.527 -10.414,0 -17.344,9.512 -12.562,17.246 5.113,8.273 19.226,1.141 19.226,-9.719 m 511.882,6.469 v 0 c 0.07,-7.699 -3.41,-13.996 -7.73,-13.996 -9.58,0 -20.19,38.621 -12.68,46.14 6.96,6.95 20.25,-13.988 20.41,-32.144 m -775.882,34.719 v 0 c 19.801,-17.731 34.199,-32.164 32.004,-32.075 -6.41,0.262 -121.797,69.954 -130.914,79.071 -5.719,5.719 -5.23,8.285 1.566,8.285 20.149,0 62.422,-24.008 97.344,-55.281 m 112.297,-11.942 v 0 c -4.348,-11.422 -8.887,-20.492 -10.098,-20.144 -19.812,5.691 -20.593,10.218 -4.242,24.566 12.492,10.961 14.969,17.11 8.047,19.985 -16.961,7.042 -11.027,20.222 6.586,14.632 11.254,-3.574 20.176,-0.531 27.742,9.465 10.664,14.067 11.176,13.965 11.418,-2.344 0.156,-10.441 -5.922,-18.683 -15.648,-21.226 -8.75,-2.289 -19.457,-13.504 -23.805,-24.934 m 307.051,-7.918 v 0 c -17.84,-6.843 -25.656,-6.062 -31.344,3.145 -8.426,13.633 2.684,22.031 23.809,17.992 22.89,-4.375 26.3,-13.934 7.535,-21.137 m 96.367,71.52 v 0 c 6.801,-39.028 10.582,-72.75 8.383,-74.942 -2.192,-2.191 -6.492,8.286 -9.559,23.289 -4.918,24.059 -6.105,25.114 -10.054,8.938 v 0 c 0,0 0,0 -4.485,-18.34 0,0 0,0 -27.996,20.61 -26.469,19.484 -28.219,23.691 -32.004,77.136 -3.488,49.324 -2.101,57.547 10.86,64.477 21.707,11.594 28.695,0.242 38.324,-62.278 10.929,-70.988 18.597,-78.648 11.922,-11.914 -7.086,70.774 -0.231,58.118 14.609,-26.976 m 64.922,25.273 v 0 c 20.375,-42.14 35.703,-80.629 34.066,-85.539 -1.629,-4.906 -19.996,27.875 -40.804,72.848 -20.805,44.976 -36.137,83.469 -34.067,85.539 2.074,2.074 20.434,-30.711 40.805,-72.848 m 39.609,-17.433 v 0 c 35.496,-80.258 16.227,-67.504 -22.945,15.187 -20.606,43.5 -36.039,80.524 -34.297,82.266 4.766,4.769 34.188,-45.313 57.242,-97.453 M 699.828,736.652 v 0 c 0,-12.531 -53.926,-8.082 -58.89,4.856 -3.301,8.601 0.804,12 14.492,12 24.261,0 44.398,-7.645 44.398,-16.856 m 328.002,4.032 v 0 c 0,-1.746 -3.69,-3.18 -8.2,-3.18 -4.51,0 -11.94,9.902 -16.53,22.004 -4.584,12.097 -18.897,42.808 -31.799,68.242 -27.492,54.152 -28.844,61.102 -8.297,42.508 11.805,-10.688 16.129,-11.406 19.496,-3.242 5.23,12.675 23.23,-7.157 44.93,-49.512 37.9,-73.953 25.73,-86.797 -14.95,-15.77 -15.035,26.266 -28.796,46.289 -30.585,44.504 -1.782,-1.785 7.824,-25.55 21.345,-52.808 13.52,-27.262 24.59,-50.992 24.59,-52.746 m -440.064,29.035 v 0 c 18.07,-11.422 0.093,-22.192 -27.938,-16.731 -13.195,2.575 -24,9.141 -24,14.602 0,5.453 2.703,9.914 6.004,9.914 28.488,0 35.488,-1.188 45.934,-7.785 m 152.062,-9.492 v 0 c 0,-8.821 -2.441,-8.332 -67.996,13.675 -30.801,10.34 -63.414,18.981 -72.473,19.203 -9.054,0.219 -23.457,5.688 -32,12.149 -14.589,11.035 -13.789,11.758 13.215,11.996 41.11,0.367 159.254,-41.941 159.254,-57.023 m 322.132,39.281 v 0 c 7.49,-16.5 10.31,-30 6.28,-30 -4.03,0 -9.88,8.051 -13.01,17.894 -3.12,9.844 -14.69,31.516 -25.71,48.164 -11.02,16.645 -18.1,32.204 -15.73,34.567 5.37,5.375 30.22,-31.047 48.17,-70.625 m 50.88,-10.266 v 0 c -5.39,-14.047 -17.88,-15.273 -25.76,-2.523 -3.13,5.074 1.11,14.187 9.44,20.277 16.28,11.91 24.34,3.141 16.32,-17.754 m -742.086,36.481 v 0 c 9.766,-42.731 6.473,-51.207 -5.996,-15.43 -11.074,31.77 -11.445,103.105 -0.617,119.215 5.679,8.445 6.64,0.16 3.246,-28 -2.645,-22 -1.137,-56.102 3.367,-75.785 m 413.766,4.875 v 0 c 6.156,-16.043 0.851,-48.176 -6.688,-40.516 -3.301,3.352 -6.055,13.59 -6.121,22.762 -0.106,13.687 -1.512,14.523 -7.879,4.66 -5.918,-9.152 -7.637,-6.313 -7.246,12.004 0.277,13.195 2.332,19.476 4.562,13.949 2.227,-5.527 7.368,-7.996 11.426,-5.492 4.051,2.504 9.43,-0.813 11.946,-7.367 m -281.219,-29.91 v 0 c -8.512,-3.329 -22.672,-6.165 -31.469,-6.297 -13.137,-0.2 -12.027,1.914 6.191,11.793 12.204,6.621 26.364,9.453 31.469,6.296 6.231,-3.847 4.196,-7.722 -6.191,-11.792 m 244.469,38.82 v 0 c 0.035,-7.699 -1.184,-14 -2.696,-14 -3.554,0 -25.234,25.215 -32.039,37.25 -3.953,7.004 -0.375,7.004 14.723,0 10.972,-5.086 19.976,-15.551 20.012,-23.25 m 418.06,32.285 v 0 c 7.7,-7.855 11.2,-14.289 7.78,-14.289 -6.58,0 -81.88,83.609 -93.66,104.004 -3.82,6.597 10.8,-7.676 32.47,-31.719 21.68,-24.043 45.71,-50.144 53.41,-57.996 m -931.103,62.641 v 0 c -28.75,-20.137 -32,-16.192 -27.278,33.07 2.422,25.305 8.18,87.286 12.793,137.726 4.606,50.46 9.738,93.09 11.399,94.75 2.964,2.97 20.058,-52.18 20.144,-64.98 0.028,-3.57 9.852,-26.52 21.828,-50.99 v 0 c 0,0 0,0 21.785,-44.49 0,0 0,0 -29.785,-25.01 -30.336,-25.467 -36.644,-42.944 -21.105,-58.475 6.23,-6.234 3.476,-12.312 -9.781,-21.601 m 440.156,17.074 v 0 c 2.414,-15.262 -8.242,-3.031 -23.633,27.14 -14.57,28.562 -15.059,32.432 -3.531,28.012 16.258,-6.24 52.109,1.82 52.109,11.72 0,3.92 -14.183,7.13 -31.527,7.13 -17.34,0 -33.75,3.6 -36.469,8 -3.137,5.07 17.902,7.98 57.527,7.94 59.7,-0.04 66.11,1.82 144.371,42.01 64.868,33.3 81.922,45.59 82,59.07 0.125,20.93 19.68,38.39 36,32.12 6.653,-2.55 12.102,-12.57 12.102,-22.26 0,-9.69 5.836,-24.07 12.969,-31.96 7.238,-7.99 10.734,-20.16 7.906,-27.52 -4.121,-10.75 -11.738,-12.19 -41.129,-7.78 -29.98,4.5 -43.793,1.66 -81.906,-16.79 v 0 c 0,0 0,0 -45.844,-22.21 0,0 0,0 31.883,-2.91 26.945,-2.45 34.559,0.46 49.219,18.85 22.933,28.75 43.453,21.68 41.523,-14.32 -0.773,-14.43 0.121,-31.56 1.985,-38.05 4.73,-16.466 -27.391,-20.114 -40.286,-4.58 -7.906,9.52 -27.164,12.4 -83.3,12.41 -60.364,0.02 -78.918,-3.1 -107.024,-17.987 -30.101,-15.945 -38.246,-27.137 -34.945,-48.035 m 385.877,63.242 v 0 c 8.93,-16.914 14.22,-32.762 11.76,-35.227 -2.47,-2.457 -9.93,8.563 -16.58,24.497 -17.14,41.02 -14.39,47.14 4.82,10.73 m -718.17,62.3 v 0 c -24.488,-22.69 -33.434,-24.31 -39.985,-7.23 -12.246,31.9 11.11,100.93 49.645,146.73 25.07,29.79 41.445,33.34 22.844,4.96 -11.973,-18.28 -12.012,-21.67 -0.469,-39.29 11.746,-17.92 11.48,-20.75 -3.844,-40.23 -9.066,-11.53 -14.371,-26.45 -11.793,-33.17 2.805,-7.3 -3.793,-20.08 -16.398,-31.77 m 431.187,33.75 v 0 c -62.726,-24.91 -119.539,-45.29 -126.25,-45.29 -19.343,0 -23.695,21.83 -23.695,118.88 v 0 c 0,0 0,0 0,90.87 0,0 0,0 26.875,22.44 33.656,28.1 214.684,122.26 223.984,116.51 3.786,-2.34 9.247,-25.05 12.129,-50.48 2.887,-25.42 11.344,-75.97 18.793,-112.33 13.211,-64.47 13.16,-66.48 -2.117,-80.72 -8.617,-8.03 -66.988,-34.98 -129.719,-59.88 m -105.945,-9.29 c 0,6.6 3.598,12 7.996,12 4.402,0 8.004,-5.4 8.004,-12 0,-6.6 -3.602,-12 -8.004,-12 -4.398,0 -7.996,5.4 -7.996,12 v 0 m 28.828,16.72 c -6.07,15.82 0.496,27.28 15.645,27.28 6.965,0 11.527,-7.92 11.527,-20 0,-22.37 -19.391,-27.56 -27.172,-7.28 v 0 m 94.082,39.23 c -2.769,7.21 -1.199,16.96 3.488,21.65 12.192,12.18 35.282,1.05 32.098,-15.48 -3.547,-18.42 -29.18,-22.87 -35.586,-6.17 v 0 m 58.637,9.16 c -7.465,7.47 1.559,18.89 14.922,18.89 6.344,0 11.527,-5.4 11.527,-12 0,-12.05 -16.883,-16.45 -26.449,-6.89 v 0 m -201.305,18.12 c -6.797,21.42 9.367,50.4 26.297,47.14 9.547,-1.84 13.461,-10.71 13.461,-30.48 0,-22.5 -3.344,-28.37 -17.312,-30.36 -11.676,-1.66 -18.989,2.8 -22.446,13.7 v 0 m 59.758,56.12 c 0,8.79 11.5,22.45 26.941,32 33.903,20.95 37.059,20.81 37.059,-1.63 0,-11.68 -8.375,-23.22 -23.234,-32 -30.075,-17.76 -40.766,-17.34 -40.766,1.63 v 0 m 97.996,6.4 c -18.695,6.7 -11.375,48.01 11.735,66.18 20.523,16.15 22.3,16.32 32,3.05 12.406,-16.96 12.718,-23.45 2.082,-43.33 -9.797,-18.31 -31.993,-30.86 -45.817,-25.9 v 0 m -276.719,31.63 v 0 c 1.297,-1.29 -15.562,-19.99 -37.464,-41.57 -21.899,-21.56 -39.813,-34.67 -39.813,-29.13 0,5.54 -9.566,18.94 -21.258,29.78 -11.687,10.83 -18.836,22.11 -15.886,25.06 5.531,5.54 110.238,20.04 114.421,15.86 m 666.711,30.6 v 0 c -22.75,-28.59 -42.97,-51.99 -44.92,-51.99 -1.95,0 15.19,27.79 38.1,61.75 22.92,33.96 43.13,57.35 44.92,51.98 1.79,-5.37 -15.36,-33.16 -38.1,-61.74 m -517.054,105.26 v 0 c -69.805,-65.43 -74.934,-68.6 -74.934,-46.29 0,23.13 14.309,53.06 55.094,115.27 v 0 c 0,0 0,0 35.554,54.23 0,0 0,0 22.676,-21.73 12.473,-11.94 22.672,-26.78 22.672,-32.98 0,-6.19 -27.48,-37.02 -61.062,-68.5 m 659.934,63.93 v 0 c -54.25,-63.13 -62.87,-69.63 -62.87,-47.47 0,8.51 24.31,36.8 56,65.17 30.8,27.58 56,47.74 56,44.81 0,-2.93 -22.11,-31.06 -49.13,-62.51 M 315.918,1449.67 v 0 c -4.758,-8.89 -10.32,-16.16 -12.367,-16.16 -6.281,0 -3.883,27.35 3.402,38.85 10.84,17.11 19.094,-3.77 8.965,-22.69 m 52.645,81.25 v 0 c -6.422,-12.41 -17.313,-27.26 -24.204,-32.97 -10.804,-8.97 -12.527,-7.64 -12.527,9.66 0,12.49 7.438,24.93 19.715,32.98 27.469,18 30.445,16.3 17.016,-9.67 m 520.406,72.59 v 0 c -59.965,-53.9 -111.821,-98 -115.223,-98 -3.41,0 -5.75,26.1 -5.195,58 v 0 c 0,0 0,0 0.996,58 0,0 0,0 43.141,30.69 61.089,43.46 139.89,81.75 190.312,92.47 23.74,5.04 44.63,7.71 46.41,5.93 1.79,-1.79 -9.05,-13.56 -24.08,-26.17 -15.03,-12.61 -76.389,-67.02 -136.361,-120.92 m -197.137,163.62 v 0 c 0,-10.95 -13.117,-31.15 -32.445,-50 -34.449,-33.57 -34.469,-25.45 -0.086,34.45 21.746,37.88 32.531,43.03 32.531,15.55 m 88.266,78.01 v 0 c -32.852,-35 -60.153,-64.53 -60.664,-65.63 -3.301,-7.06 -11.602,11.68 -11.602,26.19 0,12.62 12.895,25.74 46,46.79 25.301,16.1 55,35.34 65.996,42.77 11,7.43 -6.879,-15.12 -39.73,-50.12 M 245.391,1477.5 c -0.164,13.21 1.496,19.57 3.687,14.16 2.192,-5.41 2.324,-16.21 0.297,-24 -2.031,-7.78 -3.824,-3.35 -3.984,9.84 v 0 m 8.457,64.01 c -0.086,17.6 1.48,25.74 3.48,18.09 2.004,-7.65 2.074,-22.05 0.16,-32 -1.914,-9.95 -3.55,-3.69 -3.64,13.91 v 0" />
        <path
           inkscape:connector-curvature="0"
           id="path50576"
           style="fill:#231f20;fill-opacity:1;fill-rule:evenodd;stroke:none"
           d="m 135.395,185.289 v -7.726 l 10.257,4.148 v -66.402 l -0.121,-10.11 v -0.023 c -0.011,-1.621 -0.222,-3.235 -0.629,-4.801 v 0.008 c -0.429,-1.6525 -1.129,-3.2267 -2.066,-4.6486 l -0.023,-0.0352 c -0.719,-0.9492 -1.465,-1.8711 -2.243,-2.7734 l 0.043,0.0469 2.473,-1.9961 1.465,0.5664 -0.071,-0.0235 c 5.547,1.9375 10.797,4.6641 15.575,8.0899 l -0.051,-0.0313 c 8.574,5.7929 14.312,14.9339 15.801,25.1719 h 0.008 c 0.636,5.066 0.91,10.172 0.82,15.273 v 0 68.192 l -2.031,-1.223 c -13.508,-8.066 -27.289,-15.664 -41.321,-22.777 l 2.114,1.074 M 83.0195,231 c -4.4687,-5.254 -8.2773,-11.027 -11.3398,-17.207 l -0.0938,-0.18 3.5196,-1.429 v 0 c 1.1875,1.285 2.4336,2.519 3.7265,3.695 v 0 c 2.3633,2.273 5.3047,3.871 8.5039,4.617 v 0 c 5.0196,1.102 10.1641,1.492 15.2931,1.164 v 0 c 16.184,-1.07 32.32,-2.719 48.391,-4.945 l -0.297,0.031 C 164.078,215.082 177.551,214.504 191,215 l 0.223,0.004 c 3.781,0.301 7.531,0.91 11.211,1.836 l 0.078,0.019 -0.063,-125.7027 -0.804,-0.5079 -0.215,-0.1406 C 185.289,79.9258 165.609,76.1914 146.711,80.1172 l 0.035,0.0039 c -22.68,5.8984 -40.137,23.9999 -45.207,46.8829 l -0.031,0.082 c -6.7736,27.91 0.914,57.445 20.5,78.594 v 0 l -4.379,2.535 0.226,0.18 C 100.242,194.73 86.6367,176.57 78.4688,155.836 l -0.1094,-0.277 C 70.8789,138.598 69.418,119.59 74.2188,101.684 l -0.0625,0.175 C 92.9102,43.8086 167.859,28.1797 208.254,73.9023 l -0.024,-0.0234 c 10.469,11.8281 18.45,25.6563 23.454,40.6371 l 0.05,0.136 -3.222,2.504 -0.067,-0.101 c -5.039,-8.145 -11.195,-15.532 -18.3,-21.9534 l 0.089,0.0781 V 220.199 l -0.089,-0.047 c 5.714,3.129 11.046,6.914 15.878,11.286 v -0.008 c 3.457,3.312 6.637,6.91 9.497,10.754 l 0.054,0.082 -2.351,2.476 -1.91,-1.226 -0.075,-0.047 c -1.175,-0.766 -2.414,-1.43 -3.703,-1.985 l 0.004,0.004 c -2.242,-0.836 -4.594,-1.328 -6.98,-1.465 l -0.383,-0.019 c -6.188,-0.285 -12.383,-0.149 -18.543,0.426 l 0.461,-0.043 -59.098,6.562 0.363,-0.047 c -8.804,1.039 -17.867,1.305 -26.718,0.789 l 0.082,0.008 c -13.067,-0.75 -25.2621,-6.808 -33.7582,-16.765 L 83.0195,231" />
        <path
           inkscape:connector-curvature="0"
           id="path50578"
           style="fill:#231f20;fill-opacity:1;fill-rule:evenodd;stroke:none"
           d="m 241.594,66.7422 c -2.336,-2.4649 -4.336,-5.2266 -5.953,-8.2109 l -0.051,-0.086 2.301,-1.1601 v 0 c 1.523,0.5507 3.078,1.0312 4.648,1.4296 v 0 c 2.832,0.8008 5.785,1.0508 8.707,0.75 v 0 c 5.649,-0.8281 11.027,-2.9492 15.711,-6.2031 v 0 c 3.867,-2.8398 7.512,-5.957 10.914,-9.3359 v 0 c 8.375,8.6562 17.551,16.4961 27.402,23.4101 v 0 l -3.812,3.0118 0.18,-0.1329 c -5.481,3.8907 -11.36,7.1875 -17.539,9.8243 l -0.207,0.082 v 68.3709 l 16.757,11.867 1.043,-1.129 -0.062,0.071 c 2.105,-2.414 4.621,-4.446 7.43,-5.988 l 0.031,-0.016 c 2.875,-1.477 5.879,-2.695 8.969,-3.652 l 0.062,-0.02 V 62.7695 L 317.5,61.875 v 0 c -0.723,-1.0078 -1.383,-2.0664 -1.969,-3.1602 l 0.032,0.0625 c -3.368,-7.0859 -3.79,-15.2578 -1.176,-22.6562 l 0.011,-0.0352 4.176,-10.0195 v 0 c 1.11,-2.5898 1.817,-5.332 2.086,-8.1406 v 0 c 0.199,-1.6992 0.028,-3.4024 -0.488,-5.0156 l 0.008,0.0312 c -0.356,-1.2695 -0.977,-2.4492 -1.825,-3.45702 l -0.027,-0.03125 c -0.594,-0.60157 -1.242,-1.14844 -1.941,-1.63282 l -0.063,-0.04297 c -1.617,-1.0625 -3.316,-1.99218 -5.086,-2.78125 l 0.117,0.05469 0.418,-0.44922 -0.019,0.02344 c 0.773,-0.89453 1.609,-1.73047 2.5,-2.51172 l 0.016,-0.01172 c 1.367,-1.03125 2.98,-1.691404 4.679,-1.91406 l -0.011,0.003906 C 331.48,-1.57813 342.242,9.14453 340.523,21.6719 l -0.003,0.0429 c -0.524,4.1524 -2.161,8.0899 -4.743,11.3907 l 0.086,-0.1172 c -2.527,3.3515 -5.398,6.4258 -8.566,9.1758 l -0.227,0.1992 c -1.832,1.6015 -3.531,3.3555 -5.082,5.2344 l 0.082,-0.1016 c -0.593,0.7109 -1.07,1.5234 -1.39,2.3906 l 0.004,-0.0078 c -0.524,1.3203 -0.528,2.7852 -0.02,4.1094 v 0 c 0.469,1.0859 1.223,2.0195 2.172,2.7031 v 0 c 1.449,1.0586 3.031,1.918 4.715,2.5625 v 0 c 4.012,1.3906 8.242,2.0586 12.488,1.9688 v 0 c 5.508,-0.1055 10.969,-1.0352 16.191,-2.7774 l -0.101,0.086 c -0.758,0.6289 -1.488,1.289 -2.199,1.9765 l 0.054,-0.0586 c -1.156,1.0039 -2.148,2.1875 -2.937,3.5 l -0.008,0.0156 c -1.215,2.2032 -1.996,4.6133 -2.301,7.1055 l -0.066,0.5352 c -0.574,4.7383 -0.957,9.4922 -1.145,14.2578 l 0.028,-0.6094 v 70.6051 l 1.937,1.309 -0.035,-0.023 c 0.762,0.566 1.445,1.222 2.035,1.96 l -0.047,-0.062 c 3.207,3.992 5.453,8.668 6.578,13.66 l 0.02,0.067 c 0.27,1.527 0.457,3.07 0.57,4.625 v 0.05 l -1.164,0.598 -0.027,-0.023 c -0.711,-0.598 -1.449,-1.165 -2.207,-1.704 l -0.016,-0.011 c -3.144,-2.399 -7.031,-3.625 -10.984,-3.45 h -0.012 c -5.996,0.508 -11.445,3.676 -14.848,8.645 l -0.097,0.145 c -1.52,2.269 -2.906,4.625 -4.153,7.054 l 0.114,-0.222 -41.324,-31.071 0.183,51.403 0.004,0.308 c 0.191,8.637 1.25,17.235 3.16,25.664 l -0.031,-0.176 c 1.34,4.454 3.242,8.719 5.664,12.692 l -0.062,-0.113 -19.532,-13.239 -0.14,-0.093 c -4.094,-2.68 -8.575,-4.715 -13.293,-6.036 l -0.075,-0.003 c -3.71,-0.778 -7.484,-1.243 -11.273,-1.391 l 0.238,0.008 c 0.758,-0.989 1.489,-2 2.18,-3.039 v 0 c 0.98,-1.387 1.723,-2.93 2.207,-4.563 v 0 c 0.727,-2.613 1.227,-5.289 1.488,-7.988 v 0 c 0.621,-5.961 0.797,-11.957 0.532,-17.945 l 0.007,0.14 V 77.5273 l -1.343,-0.9218 v 0 c -4.434,-2.8672 -8.551,-6.1914 -12.282,-9.9297 l 0.067,0.0664" />
        <path
           inkscape:connector-curvature="0"
           id="path50580"
           style="fill:#231f20;fill-opacity:1;fill-rule:evenodd;stroke:none"
           d="m 420.406,119.781 23.582,15.176 -18.273,32.949 -5.309,-2.269 v -45.856 0 M 380.273,66.4102 c -1.128,-1.2383 -2.191,-2.5313 -3.195,-3.875 v 0 l 0.809,-1.6719 1.133,0.2695 v 0 c 2.718,0.7188 5.507,1.1289 8.32,1.2227 h 0.215 c 7.968,0.0156 16.008,-1.0235 23.816,-3.1016 v 0 c 11.039,-2.9844 21.652,-7.375 31.574,-13.0625 l 1.141,1.418 c 8.516,10.5117 17.301,20.7969 26.344,30.8594 l -1.215,-1.3555 -4.981,3.9648 -7.812,-8.082 v 0 c -6.074,3.2109 -12.461,5.8086 -19.055,7.7578 v 0 c -5.543,1.4727 -11.23,2.3203 -16.961,2.5313 v 0 26.6248 0 c 17.149,11.383 34.723,22.117 52.684,32.168 l -0.512,0.742 c -2.539,3.707 -4.98,7.473 -7.324,11.301 l -0.481,0.953 c -6.375,11.625 -12.335,23.473 -17.878,35.516 l 0.82,-1.785 -7.094,-4.117 -0.129,-0.071 c -10.039,-5.691 -20.804,-9.972 -32.008,-12.722 l -0.418,-0.063 c -7.89,-1.344 -15.863,-2.105 -23.863,-2.269 l 0.57,0.011 c 0.829,-0.914 1.618,-1.844 2.383,-2.804 v 0 c 1.067,-1.258 1.942,-2.665 2.602,-4.172 v 0 c 0.769,-2.125 1.32,-4.325 1.633,-6.563 v 0 c 0.304,-2.976 0.402,-5.972 0.297,-8.961 l 0.007,0.078 V 75.5898 l -4.328,-3.2812 v 0 c -2.512,-1.7773 -4.887,-3.75 -7.094,-5.8984 v 0" />
        <path
           inkscape:connector-curvature="0"
           id="path50582"
           style="fill:#231f20;fill-opacity:1;fill-rule:evenodd;stroke:none"
           d="m 616.539,45.0586 0.059,-5.3945 v 0.0468 c 0.047,-6.8789 1.879,-13.6328 5.312,-19.5937 v 0 c 0.965,-1.6719 2.27,-3.1133 3.832,-4.25 l -0.015,0.0078 c 1.441,-0.8906 2.921,-1.7031 4.441,-2.4531 l 0.059,-0.0274 -0.032,192.2855 -13.656,-7.606 v -153.0154 0 m 20.867,137.6324 1.614,-0.296 -0.082,0.015 c 5.988,-1.371 12.136,-1.957 18.191,-1.758 l 0.137,0.008 c 5.156,0.285 10.285,0.981 15.328,2.067 l 0.117,0.027 v 31.84 l -0.25,0.097 c -5.27,2.055 -10.289,4.696 -14.973,7.868 l 0.227,-0.153 -20.309,-12.91 v -26.805 0 m 25.617,-59.183 c 3.266,-0.254 6.508,-0.781 9.688,-1.578 v 0 l -0.031,53.129 -2.446,-0.536 -0.23,-0.058 c -5.477,-1.367 -11.113,-2.043 -16.762,-2 l -0.062,0.015 c -5.422,0.274 -10.797,1.067 -16.067,2.356 l 0.293,-0.074 -0.027,-53.016 v 0 c 8.437,1.688 17.055,2.281 25.644,1.762 v 0 M 637.406,94.8555 c 5.68,-2.3907 11.192,-5.1367 16.52,-8.2305 v 0 c 6.113,-3.9687 11.828,-8.5195 17.054,-13.5977 v 0 l 1.731,1.0157 v 39.27 l 0.109,-0.04 c -7.273,2.567 -15.043,3.422 -22.761,2.485 l 0.195,0.023 c -4.27,-0.492 -8.496,-1.297 -12.649,-2.418 l -0.199,-0.05 v -18.4575 0 M 555.77,224.078 c -1.352,-5.605 -1.754,-11.398 -1.207,-17.14 l 0.015,-0.184 h 5.516 l 0.211,1.758 v 0 c 0.277,3.441 1.343,6.765 3.129,9.722 l 0.011,0.02 c 1.032,1.726 2.551,3.094 4.371,3.941 l 0.036,0.016 c 3.281,1.363 6.921,1.516 10.312,0.437 v 0 c 3.227,-1.003 5.774,-3.503 6.824,-6.71 v 0 c 0.731,-2.34 1.11,-4.766 1.133,-7.215 v 0 l 0.063,-45.739 v 0 c -3.25,-0.039 -6.493,-0.234 -9.719,-0.597 l 0.051,0.008 c -2.77,-0.301 -5.453,-1.157 -7.883,-2.516 l -0.039,-0.024 c -4.281,-2.808 -7.371,-7.101 -8.676,-12.046 l 0.016,0.043 c -2.192,-6.637 -0.852,-13.911 3.543,-19.313 l 0.007,-0.012 c 0.918,-1.148 2.051,-2.113 3.336,-2.839 l -0.019,0.015 c 0.461,-0.25 0.937,-0.461 1.429,-0.637 l 0.032,0.067 c -0.039,0.719 -0.035,1.41 0,2.133 l 0.004,0.015 c 0.047,1.211 0.449,2.383 1.168,3.364 h 0.004 c 0.8,1.011 1.871,1.781 3.089,2.226 v 0 c 1.836,0.703 3.766,1.145 5.727,1.309 l 0.125,0.015 c 2.617,0.235 5.18,0.282 7.805,0.137 v 0 l 0.031,-41.5937 -3.488,-2.207 0.086,0.0507 C 572.25,84.1602 564.965,73.4961 562.828,61.3242 v 0.0156 c -0.824,-4.8085 -0.941,-9.7148 -0.34,-14.5546 l 0.024,-0.1758 3.156,-0.6875 0.363,0.8359 0.043,0.1172 c 1.969,4.8555 4.664,9.3789 7.992,13.4297 l -0.078,-0.1016 c 2.321,2.961 5.305,5.3282 8.707,6.9219 v 0 c 1.153,0.4336 2.317,0.8281 3.489,1.1914 v 0 L 586.121,32.9258 583.855,4.57031 h 8.083 l 0.269,0.25782 c 6.047,5.82027 12.551,11.14847 19.449,15.93357 l -0.488,0.0586 c 1.512,-2.2265 3.129,-4.3789 4.832,-6.4609 l 0.188,-0.2188 c 2.914,-3.4922 6.539,-6.32419 10.632,-8.30076 v -0.0039 c 3.414,-1.36328 7.059,-2.07031 10.735,-2.10156 h 0.035 l -0.184,53.19532 2.36,-1.7305 v 0 c 3.765,-2.9219 7.203,-6.2383 10.254,-9.9023 v 0 c 1.933,2 3.89,3.9648 5.875,5.9023 v 0 c 9.91,10.0078 22.992,16.2461 37,17.6524 v 0 c 4.414,0.3203 8.843,0.2343 13.238,-0.2383 v 0 l 0.871,1.3437 -0.539,1.2539 -0.039,0.0821 c -1,2.125 -1.703,4.3711 -2.094,6.6875 l -0.035,0.2734 c -0.625,4.8711 -0.906,9.7813 -0.84,14.6953 l -0.004,-0.2461 V 220.41 l 0.356,0.238 -0.055,-0.035 c 2.609,1.711 5.059,3.657 7.316,5.809 l 0.008,0.008 c 1.813,1.777 3.453,3.722 4.899,5.804 l 0.031,0.043 -2.207,2.176 -0.086,-0.035 c -0.766,-0.293 -1.543,-0.547 -2.328,-0.766 l 0.066,0.02 c -3.16,-1.039 -6.609,-0.875 -9.656,0.473 l -0.102,0.046 c -3.148,1.422 -6.125,3.207 -8.867,5.313 l -0.168,0.141 c -3.691,3.031 -7.172,6.296 -10.43,9.785 l -0.16,-0.602 c -14.394,-11.215 -29.449,-21.551 -45.09,-30.957 l 0.458,0.274 -0.032,29.457 h -7.179 v -33.391 l -13.719,-7.965 -0.153,5.574 v 0 c -0.023,5.243 -0.574,10.465 -1.636,15.598 v 0 c -0.996,4.805 -3.531,9.16 -7.215,12.402 l 0.055,-0.05 c -5.782,5.039 -13.25,7.718 -20.914,7.507 v -0.007 c -14.512,0.585 -27.43,-9.133 -30.887,-23.243 l 0.012,0.051" />
        <path
           inkscape:connector-curvature="0"
           id="path50584"
           style="fill:#231f20;fill-opacity:1;fill-rule:evenodd;stroke:none"
           d="m 751.465,219.395 -17.293,-11.243 2.648,-4.711 5.012,1.254 0.719,-0.535 -0.039,0.031 c 3.281,-2.582 6.937,-4.636 10.843,-6.093 l -0.019,0.007 c 3.437,-1.367 7.191,-1.761 10.863,-1.136 h -0.011 c 7.351,1.664 13.781,6.09 17.964,12.351 l -0.007,-0.023 c 1.503,2.398 2.8,4.922 3.878,7.539 l 0.028,0.055 -1.344,0.476 -0.141,-0.058 c -1.711,-0.731 -3.468,-1.352 -5.253,-1.86 l 0.136,0.039 c -1.113,-0.355 -2.277,-0.515 -3.453,-0.472 h -0.027 c -4.617,0.281 -8.953,2.312 -12.117,5.675 l -0.047,0.067 c -1.321,1.558 -2.52,3.219 -3.59,4.961 l 0.074,-0.121 -8.824,-6.203 v 0 m 0.918,-38.375 c -7.625,-7.481 -16.031,-14.118 -25.07,-19.797 l 0.148,0.09 3.102,-4.559 5.488,2.68 7.512,-6.645 V 84.4766 l 0.027,-6.0196 v 0 c -0.051,-3.2968 0.137,-6.5859 0.555,-9.8476 l 0.011,-0.0625 c 0.446,-3.1992 1.727,-6.2227 3.715,-8.7696 l -0.012,0.0118 c 2.829,-3.3438 6.329,-6.0547 10.282,-7.9414 l -0.157,0.0664 c 3.371,-1.5821 6.895,-2.8321 10.512,-3.7344 l 1.02,0.7617 c 7.707,7.5274 15.644,14.8086 23.82,21.8242 l -0.875,-0.75 -1.074,1.6094 -0.188,0.0078 c -1.183,0.0313 -2.367,0.1094 -3.547,0.2188 l 0.114,-0.0118 c -3.418,0.2149 -6.735,1.2735 -9.653,3.0782 l 0.028,-0.0196 c -2.207,1.3008 -3.942,3.2696 -4.957,5.625 l -0.008,0.0235 c -0.711,1.914 -1.113,3.9258 -1.203,5.9687 l -0.02,0.6641 c -0.101,3.1484 -0.133,6.293 -0.098,9.1914 v 0 57.8749 l -0.058,-0.027 c 1.117,0.484 2.226,0.996 3.308,1.547 l 0.047,0.023 c 1.325,0.594 2.559,1.363 3.664,2.293 l -0.011,-0.012 c 2.976,2.559 5.457,5.653 7.316,9.114 l -0.008,-0.02 c 1.176,2.285 2.18,4.656 2.989,7.094 l 0.019,0.055 -1.223,1.042 -0.101,-0.062 c -1.606,-1.008 -3.293,-1.879 -5.047,-2.605 l 0.07,0.031 c -1.57,-0.61 -3.269,-0.84 -4.949,-0.668 l -0.039,0.004 c -4.828,0.625 -9.316,2.843 -12.738,6.308 l -0.11,0.121 c -2.429,2.606 -4.652,5.399 -6.648,8.348 l 0.137,-0.207 -5.969,-5.48 -0.121,-0.125" />
        <path
           inkscape:connector-curvature="0"
           id="path50586"
           style="fill:#231f20;fill-opacity:1;fill-rule:evenodd;stroke:none"
           d="m 815.883,67.9727 c -1.649,-2.1563 -3.074,-4.4805 -4.246,-6.9375 l -0.039,-0.0821 1.965,-1.3125 1.82,0.7149 0.055,0.0273 c 4.562,1.8594 9.539,2.4531 14.375,1.7305 v 0 c 5.675,-1.0391 11.105,-3.1328 16.011,-6.1719 v 0 c 4.672,-3.0508 9.055,-6.5234 13.086,-10.375 l 0.41,0.4805 c 9.098,10.6953 19.02,20.664 29.68,29.8086 l -0.48,-0.4102 -4.743,5.0391 -6.824,-5.5781 0.473,-0.2891 c -2.121,1.3008 -4.266,2.5703 -6.43,3.8008 l -0.348,0.1992 c -3.871,2.0859 -7.945,3.7695 -12.152,5.0391 l -0.152,0.0429 v 60.8558 l 10.797,11.336 7.214,-5.34 -0.015,0.012 c 1.801,-1.282 3.82,-2.223 5.961,-2.782 h -0.012 c 13.387,-3 26.457,6.274 28.047,19.918 l -0.02,-0.199 c 0.25,2.516 0.383,5.043 0.387,7.574 v 0.281 l -0.805,-0.382 -0.035,-0.024 c -1.679,-0.855 -3.422,-1.57 -5.218,-2.136 l -0.004,-0.004 c -3.125,-0.969 -6.512,-0.629 -9.391,0.929 l -0.012,0.008 c -3.183,1.738 -5.683,4.5 -7.097,7.836 l -0.082,0.191 c -1.125,2.579 -2.102,5.223 -2.926,7.911 l 0.078,-0.254 -6.203,-8.528 -0.113,-0.164 c -6.102,-8.968 -13.04,-17.336 -20.719,-24.992 l 0.176,-0.058 c -0.762,4.679 -1.922,9.277 -3.457,13.753 l -0.04,0.122 c -1.593,4.792 -4.281,9.16 -7.843,12.746 l 0.008,-0.004 c -2.504,2.39 -5.325,4.425 -8.391,6.039 l -0.254,-0.274 c -1.805,-3.199 -3.773,-6.293 -5.91,-9.281 l 0.094,0.149 c -5.688,-7.45 -12.243,-14.407 -19.332,-20.536 l 0.367,0.321 c 1.527,-0.332 3.047,-0.7 4.558,-1.106 v 0 c 2.496,-0.629 4.84,-1.754 6.891,-3.308 v 0 c 2.645,-2.004 4.242,-5.094 4.352,-8.411 v 0 l 0.058,-8.168 V 78.9297 l -3.008,-1.9375 0.086,0.0547 c -4.015,-2.4219 -7.605,-5.4883 -10.636,-9.0664 l -0.012,-0.0078" />
        <path
           inkscape:connector-curvature="0"
           id="path50588"
           style="fill:#231f20;fill-opacity:1;fill-rule:evenodd;stroke:none"
           d="m 991.801,109.078 -6.231,-5.012 -19.32,21.379 0.055,0.067 c -1.075,-1.309 -2.059,-2.692 -2.938,-4.141 l -0.043,-0.07 c -3.816,-7.242 -4.941,-15.613 -3.168,-23.6057 l 0.004,-0.0039 c 2.352,-13.4453 13.606,-23.5391 27.223,-24.4258 h -0.024 c 3.688,-0.1953 7.442,0.0469 11.133,0.7149 l 0.164,0.0351 -0.058,78.7114 -0.653,0.332 -0.129,0.05 c -3.578,1.633 -6.886,3.793 -9.812,6.418 l 0.098,-0.093 -0.473,-0.297 -0.047,-0.032 c -4.551,-3.187 -9.629,-5.535 -15.004,-6.925 l 0.02,0.004 c -4.516,-1.239 -9.321,-1.11 -13.766,0.359 l -0.238,0.09 c -3.008,1.055 -5.957,2.262 -8.844,3.605 l 0.309,-0.144 41.742,-47.016 v 0 m -32.891,70.856 c -8.281,-6.457 -17.308,-11.891 -26.894,-16.184 l 0.422,0.188 29.246,-33.543 -6.02,-4.356 0.106,0.078 c -7.86,-5.496 -14.172,-12.929 -18.329,-21.57 l -0.015,-0.039 c -13.703,-27.0666 7.078,-58.84 37.414,-57.1252 l 0.055,0.0039 24.867,22.6563 -0.02,0.0859 c 0.338,-1.3164 0.708,-2.6172 1.128,-3.9062 l 0.01,-0.0508 c 1.08,-3.875 3.04,-7.4492 5.72,-10.4453 v 0 c 3.96,-4.4922 9.37,-7.4649 15.29,-8.3985 l -0.26,0.0196 c 1.45,-0.1211 2.9,-0.2071 4.35,-0.2539 l 0.76,0.7617 c 5.54,8.9687 11.44,17.7109 17.69,26.1992 l -0.54,-0.7305 -1.01,1.0156 -0.08,-0.0039 c -0.75,-0.0507 -1.49,-0.0546 -2.23,-0.0234 l 0.01,-0.0039 c -2.12,-0.0156 -4.22,0.3633 -6.2,1.125 l 0.03,-0.0078 c -2.37,0.9258 -4.25,2.7734 -5.23,5.1172 l -0.02,0.0312 c -0.61,1.6524 -1.01,3.3789 -1.17,5.1328 l -0.02,0.2461 c -0.19,2.6016 -0.27,5.2149 -0.24,7.8242 v -0.207 64.9097 l -0.07,-0.039 c 1.14,0.68 2.25,1.395 3.35,2.145 l 0.04,0.027 c 2.74,1.75 5.07,4.09 6.8,6.852 v -0.016 c 1.54,2.399 2.78,4.985 3.67,7.692 l 0.01,0.039 -0.95,0.8 -3.31,-1.402 -0.05,-0.015 c -3.09,-1.321 -6.51,-1.629 -9.78,-0.891 l -0.02,0.004 c -4.99,1.281 -9.26,4.508 -11.86,8.957 l -0.06,0.101 c -1.04,1.77 -1.98,3.594 -2.81,5.469 l -0.06,-0.375 c -1.95,-2.961 -4.12,-5.762 -6.5,-8.387 l 0.04,0.043 c -3.47,-3.8 -7.482,-7.074 -11.908,-9.707 l 0.113,0.063 c -2.445,-1.445 -5.219,-2.246 -8.062,-2.324 h 0.003 c -3.718,0.082 -7.289,1.464 -10.089,3.914 l -0.043,0.035 c -3.297,2.836 -5.957,6.344 -7.805,10.281 l -0.02,0.047 c -0.765,1.707 -1.429,3.461 -1.976,5.254 l -0.07,-0.266 c -2.305,-2.304 -4.696,-4.531 -7.165,-6.668 l -0.238,-0.179" />
        <path
           inkscape:connector-curvature="0"
           id="path50590"
           style="fill:#231f20;fill-opacity:1;fill-rule:evenodd;stroke:none"
           d="m 1066.69,183.512 c -1.38,0.976 -2.69,2.047 -3.92,3.203 l 0.09,-0.09 0.77,-3.07 v 0 c 0.8,-2.934 1.16,-5.973 1.08,-9.008 l -0.01,-0.109 c -0.19,-5.907 -0.81,-11.797 -1.87,-17.618 l 0.03,0.145 2.12,1.633 0.02,0.023 c 0.65,0.531 1.35,0.996 2.09,1.395 L 1067.06,160 c 1.48,0.723 3.04,1.227 4.65,1.492 l 0.18,0.031 c 3.74,0.657 7.52,1.036 11.31,1.137 l -0.19,-0.004 V 77.6797 l 0.22,0.1523 c -6.19,-4.3242 -11.94,-9.2656 -17.14,-14.7461 l -0.19,-0.1953 1.61,-1.4609 0.89,0.207 v 0 c 3.36,0.8399 6.81,1.1719 10.26,0.9844 v 0 c 7.38,-0.75 14.47,-3.2109 20.73,-7.1875 v 0 c 3.72,-2.6953 7.33,-5.5508 10.81,-8.5547 v 0 l 27.38,26.1172 -4.86,4.293 -3.93,-3.7227 v 0 c -2.19,1.4375 -4.42,2.8125 -6.68,4.1133 l 0.12,-0.0664 c -3.31,1.7969 -6.78,3.2695 -10.37,4.4101 l -0.13,0.0391 v 80.5935 l 6.23,-0.211 v 0 c 2.83,-0.062 5.63,-0.441 8.38,-1.132 v 0 c 1.61,-0.372 3.12,-1.047 4.47,-1.997 v 0 c 0.92,-0.757 1.82,-1.543 2.69,-2.351 v 0 l -0.04,0.98 -0.03,0.493 c -0.61,9.296 -0.26,18.796 1.05,28.187 l -0.09,-0.098 c -0.71,-0.714 -1.44,-1.41 -2.19,-2.074 l 0.09,0.078 c -0.56,-0.476 -1.17,-0.898 -1.82,-1.25 h -0.01 c -1.67,-0.824 -3.48,-1.355 -5.33,-1.578 l -0.37,-0.039 c -4.48,-0.508 -8.98,-0.742 -13.48,-0.695 l 0.39,-0.008 v 8.562 l -0.01,0.403 c -0.32,11.512 1.11,23 4.22,34.082 l -0.07,-0.258 -3.54,-3.043 -0.05,-0.043 c -4.61,-4.109 -9.88,-7.422 -15.58,-9.789 l -0.23,-0.086 c -5.4,-1.941 -10.96,-3.355 -16.63,-4.23 l 0.31,0.046 1.14,-3.222 v 0 c 0.84,-2.297 1.34,-4.711 1.48,-7.153 v 0 c 0.3,-5.16 0.4,-10.332 0.3,-15.496 l -0.07,0.227 c -1.24,-0.039 -2.55,-0.031 -3.8,0.012 l 0.08,-0.012 c -2.74,-0.059 -5.48,0.199 -8.17,0.773 l 0.08,-0.015 c -1.55,0.316 -3.03,0.91 -4.38,1.742 l -0.06,0.051" />
        <path
           inkscape:connector-curvature="0"
           id="path50592"
           style="fill:#231f20;fill-opacity:1;fill-rule:evenodd;stroke:none"
           d="m 1198.45,119.781 23.58,15.176 -18.28,32.949 -5.3,-2.269 v -45.856 0 M 1158.4,66.5039 c -1.13,-1.2383 -2.2,-2.5273 -3.2,-3.8711 l -0.08,-0.0976 0.81,-1.6719 1.13,0.2695 v 0 c 2.72,0.7188 5.51,1.1289 8.32,1.2227 v 0 c 8.11,0.0273 16.19,-1.0157 24.03,-3.1016 v 0 c 11.04,-2.9844 21.65,-7.375 31.57,-13.0625 l 1.15,1.418 c 8.51,10.5117 17.3,20.7969 26.34,30.8594 l -1.21,-1.3555 -4.99,3.9648 -7.81,-8.082 0.22,-0.1133 c -6.07,3.2227 -12.45,5.832 -19.03,7.7969 l -0.06,0.0234 c -5.54,1.4883 -11.23,2.3555 -16.96,2.5742 l -0.18,0.0079 v 26.6248 0 c 17.15,11.383 34.72,22.117 52.68,32.168 l -0.51,0.742 c -2.54,3.707 -4.98,7.473 -7.32,11.301 l -0.48,0.953 c -6.38,11.625 -12.34,23.473 -17.89,35.516 l 0.83,-1.785 -7.1,-4.117 -0.38,-0.215 c -10.05,-5.668 -20.83,-9.922 -32.05,-12.653 l 0.25,0.075 c -7.89,-1.364 -15.85,-2.137 -23.85,-2.325 l 0.18,0.004 c 0.83,-0.914 1.62,-1.844 2.39,-2.804 v 0 c 1.06,-1.258 1.93,-2.665 2.59,-4.172 v 0 c 0.78,-2.125 1.33,-4.325 1.64,-6.563 v -0.008 c 0.3,-3.004 0.41,-6.023 0.29,-9.113 l 0.01,0.238 V 75.5898 l -4.32,-3.2812 v 0 c -2.52,-1.7773 -4.89,-3.75 -7.1,-5.8984 l 0.09,0.0937" />
        <path
           inkscape:connector-curvature="0"
           id="path50594"
           style="fill:#231f20;fill-opacity:1;fill-rule:evenodd;stroke:none"
           d="m 1343.88,128.629 c 1.18,-0.758 2.41,-1.445 3.67,-2.063 l 0.04,-0.019 0.03,0.719 v 0.019 c 0.07,1.961 0.78,3.848 2.04,5.363 l -0.01,-0.007 c 1.4,1.824 3.57,2.879 5.87,2.851 v 0 c 1.07,0 2.13,-0.082 3.19,-0.238 v 0 -39.5352 l -0.03,-2.8907 v -0.0156 c 0,-2.9883 -0.2,-5.9023 -0.6,-8.793 l 0.03,0.2032 c -0.18,-1.3789 -0.57,-2.7227 -1.14,-3.9922 l -0.04,-0.0782 c -0.57,-1.1132 -1.21,-2.1835 -1.92,-3.2148 l 0.06,0.0859 2.12,-1.7304 1.19,0.6601 -0.12,-0.0703 c 6.3,3.3867 12.3,7.332 17.9,11.7813 l 0.08,0.0664 c 7.6,6.1133 12.16,15.2305 12.49,24.9725 v 0.039 l 0.15,13.211 v 58.856 0.714 l -0.01,0.563 c -0.07,2.816 -0.06,5.637 0.02,8.453 v -0.309 c 0.16,3.364 1,6.653 2.46,9.684 l 0.06,0.09 c 0.95,1.672 1.97,3.297 3.05,4.883 l -0.09,-0.137 -1.73,2.09 0.22,0.094 c -7.78,-3.297 -15.11,-7.579 -21.8,-12.743 l -0.18,-0.144 c -6.5,-5.02 -10.69,-12.449 -11.63,-20.602 l 0.02,0.207 c -0.47,-3.992 -0.66,-8.007 -0.57,-12.027 l 0.01,-0.316 -1.37,-0.176 0.08,0.004 c -3.19,-0.293 -6.32,-1.032 -9.31,-2.184 l -0.04,-0.012 c -3.83,-1.488 -6.98,-4.336 -8.84,-8.003 l -0.02,-0.036 c -2.75,-5.855 -3.12,-12.547 -1.03,-18.668 l 0.01,-0.007 c 0.99,-3.114 3.01,-5.797 5.72,-7.614 l -0.03,0.016 m -13.72,100.016 c -1.48,-2.399 -2.8,-4.895 -3.93,-7.477 l -0.05,-0.133 2.2,-0.777 0.04,0.047 c 0.53,0.574 1.06,1.101 1.63,1.625 l 0.03,0.023 c 0.74,0.727 1.56,1.363 2.45,1.899 l -0.03,-0.012 c 2.22,1.269 4.72,1.949 7.27,1.996 v 0 c 3.7,0.047 7.39,-0.305 11.01,-1.039 v 0 l 25.28,-5.106 -0.22,0.043 c 9.63,-1.925 19.66,-1.546 29.12,1.102 h 0.02 c 12.6,4.398 23.36,12.93 30.53,24.203 l 0.04,0.059 -2.09,1.757 -1.7,-1.402 -0.05,-0.039 c -3.23,-2.66 -7.28,-4.101 -11.47,-4.07 h -0.14 c -3.28,0 -6.55,0.281 -9.77,0.836 l 0.2,-0.035 -27.01,5.304 0.19,-0.039 c -8.12,1.801 -16.47,2.336 -24.75,1.578 l -0.19,-0.011 c -4.97,-0.481 -9.75,-2.157 -13.93,-4.895 v 0 c -5.86,-4.203 -10.86,-9.488 -14.76,-15.562 l 0.08,0.125 M 1452.4,110.703 c 2.86,0.688 5.8,0.957 8.7,0.785 v 0 c 1.95,-0.172 3.88,-0.496 5.78,-0.98 v 0 20.664 l -0.44,-0.059 c -1.81,-0.218 -3.64,-0.398 -5.46,-0.547 l 0.27,0.024 c -1.94,-0.149 -3.89,-0.184 -5.84,-0.098 l 0.17,-0.008 -6.23,0.391 -0.03,-20.848 3.02,0.657 0.06,0.019 m -3.08,-27.953 3.79,-2.418 v 0 c 3.98,-2.3515 7.7,-5.1132 11.12,-8.2265 v 0 l 2.65,1.3711 0.03,29.0394 0.04,-0.02 c -2.81,1.274 -5.9,1.863 -9.01,1.719 l 0.09,0.008 c -2.92,-0.243 -5.81,-0.805 -8.62,-1.68 l -0.09,-0.027 v -19.766 0 m 7.94,54.738 c 1.82,-0.039 3.65,0.035 5.46,0.239 l -0.04,-0.016 c 1.38,0.277 2.75,0.594 4.12,0.949 l 0.07,-0.191 c 0.1,1.82 0.12,3.644 0.05,5.469 l -0.01,0.05 c -0.03,1.418 -0.15,2.832 -0.34,4.235 l -0.02,0.093 c -0.18,1.309 -0.57,2.586 -1.13,3.786 l 0.01,-0.012 c -0.8,1.676 -2.3,2.906 -4.11,3.344 l 0.04,-0.004 c -1.63,0.371 -3.3,0.547 -5,0.515 v 0 l -3.13,-0.117 -3.91,-0.269 v -17.235 l -0.16,0.031 c 2.63,-0.523 5.31,-0.816 7.99,-0.859 l 0.11,-0.008 m -62.42,-51.5857 c -18.75,-6.8046 -35.07,-19.0117 -46.9,-35.0742 l -0.14,-0.1914 2.24,-2.207 2.83,1.6992 v 0 c 9.43,5.9766 20.15,9.582 31.27,10.5234 v 0 c 11.08,1.1329 22.27,-0.0117 32.89,-3.3671 v 0 c 7.06,-2.7774 13.85,-6.211 20.27,-10.2579 v 0 l 1.35,1.1954 v 0 c 15.1,14.1953 35.02,22.1484 55.75,22.2695 v 0 c 3.31,-0.1211 6.61,-0.5586 9.84,-1.3125 l -0.12,0.1797 c -1.05,1.4844 -2.03,3.0078 -2.94,4.5781 l 0.09,-0.1484 c -0.93,1.4804 -1.57,3.1211 -1.9,4.832 l -0.02,0.1484 c -0.4,2.4063 -0.66,4.8399 -0.75,7.2813 l 0.01,-0.1992 -0.21,48.1524 v -0.09 c 0.08,4.16 -0.22,8.32 -0.86,12.434 v -0.047 c -0.95,6.426 -5.06,11.957 -10.94,14.726 l 0.03,-0.011 c -3.88,1.703 -8.07,2.617 -12.31,2.679 h 0.23 c -3.85,0.02 -7.54,-0.125 -11.22,-0.441 h -0.03 l 2.84,1.996 -0.07,-0.047 c 11.44,7.547 20.41,18.289 25.79,30.891 l 0.02,0.023 c 4.24,8.789 5.73,18.664 4.28,28.317 l 0.01,-0.082 c -1.26,9.128 -5.96,17.449 -13.12,23.257 l 0.05,-0.031 c -3.26,2.301 -6.74,4.27 -10.4,5.867 l -0.12,0.063 -38.05,-23.559 0.51,0.301 c -4.94,-2.906 -9.77,-5.988 -14.49,-9.238 l -0.35,-0.239 c -4.91,-3.3 -9.38,-7.218 -13.29,-11.664 l -0.07,-0.078 c -3.08,-3.484 -5.02,-7.832 -5.55,-12.449 l 0.02,0.152 c -0.41,-3.675 -0.57,-7.379 -0.51,-11.074 l 0.01,-0.312 v -60.145 -7.242 -0.078 c -0.05,-4.289 -0.5,-8.563 -1.33,-12.766 l 0.02,0.071 c -0.32,-1.637 -0.95,-3.196 -1.86,-4.59 l -0.01,-0.024 c -0.97,-1.3552 -2.02,-2.6404 -3.17,-3.8396 l 0.03,0.0273 2.53,-1.9062 10.62,5.1875 -0.07,-0.031 c 4.7,2.246 9.09,5.066 13.1,8.39 l 0.03,0.028 c 5.68,4.679 9.18,11.492 9.69,18.832 l -0.02,-0.211 c 0.3,4.648 0.43,9.301 0.41,13.711 v 0.488 61.059 l 0.06,3.433 v 0 c 0,3.453 0.4,6.895 1.19,10.254 v 0 c 0.45,2.047 1.42,3.942 2.8,5.52 v 0 c 1.51,1.632 3.23,3.074 5.1,4.289 v 0 l 10.58,6.5 3.1,-1.758 v 0 c 2.59,-1.445 4.93,-3.297 6.92,-5.488 v 0 c 5.92,-6.856 9.43,-15.465 9.99,-24.508 v -0.008 c 0.57,-5.965 0.03,-11.914 -1.57,-17.629 l 0.04,0.121 c -2,-6.644 -5.82,-12.594 -11.03,-17.191 l -0.12,-0.086 c -2.72,-2.086 -5.63,-3.91 -8.7,-5.453 l 0.18,0.086 v 10.406 h -6.82 V 85.2813 l -1.37,0.4453 0.15,-0.0508 c -15.03,5.4023 -31.45,5.4726 -46.52,0.1992 l 0.08,0.0273" />
        <path
           inkscape:connector-curvature="0"
           id="path50596"
           style="fill:#231f20;fill-opacity:1;fill-rule:evenodd;stroke:none"
           d="m 1583.03,109.078 -6.23,-5.012 -19.32,21.379 0.06,0.067 c -1.08,-1.309 -2.06,-2.692 -2.94,-4.141 l -0.05,-0.07 c -3.81,-7.242 -4.93,-15.613 -3.16,-23.6057 v -0.0039 c 2.35,-13.4453 13.61,-23.5391 27.22,-24.4258 h -0.02 c 3.68,-0.1953 7.44,0.0469 11.13,0.7149 l 0.17,0.0351 -0.06,78.7114 -0.65,0.332 -0.13,0.05 c -3.58,1.633 -6.89,3.793 -9.82,6.418 l 0.11,-0.093 -0.48,-0.297 -0.14,-0.094 c -4.55,-3.18 -9.64,-5.512 -15.02,-6.895 l 0.13,0.036 c -4.51,-1.239 -9.32,-1.11 -13.77,0.359 l -0.24,0.09 c -3,1.055 -5.95,2.262 -8.84,3.605 l 0.31,-0.144 41.74,-47.016 v 0 m -32.65,71.043 c -8.26,-6.476 -17.28,-11.933 -26.85,-16.242 l 0.14,0.059 29.24,-33.543 -6.02,-4.356 v 0 c -7.84,-5.512 -14.14,-12.957 -18.27,-21.613 l 0.04,0.082 c -13.71,-27.0666 7.08,-58.84 37.41,-57.1252 l 0.06,0.0039 24.86,22.6563 -0.02,0.0859 c 0.34,-1.3164 0.71,-2.6172 1.13,-3.9062 l 0.02,-0.0508 c 1.07,-3.875 3.02,-7.4492 5.71,-10.4453 v 0 c 3.96,-4.4922 9.37,-7.4649 15.28,-8.3985 l -0.06,0.0078 c 1.45,-0.125 2.9,-0.207 4.36,-0.2461 l 0.56,0.7657 c 5.54,8.9687 11.44,17.7109 17.68,26.1992 l -0.53,-0.7305 -1.01,1.0156 -0.08,-0.0039 c -0.74,-0.0507 -1.49,-0.0546 -2.23,-0.0234 l 0.01,-0.0039 c -2.12,-0.0156 -4.22,0.3633 -6.2,1.125 l 0.03,-0.0078 c -2.37,0.9258 -4.25,2.7734 -5.23,5.1172 l -0.02,0.0312 c -0.62,1.6524 -1.01,3.3789 -1.17,5.1328 l -0.02,0.2461 c -0.19,2.6016 -0.27,5.2149 -0.24,7.8242 v -0.207 64.9097 l -0.07,-0.039 c 1.14,0.68 2.25,1.395 3.34,2.145 v 0 c 2.76,1.742 5.09,4.078 6.83,6.836 l 0.02,0.027 c 1.54,2.399 2.78,4.985 3.67,7.692 l 0.02,0.039 -0.96,0.8 -3.31,-1.402 -0.02,-0.004 c -3.09,-1.328 -6.53,-1.644 -9.81,-0.902 l -0.01,0.004 c -5,1.281 -9.27,4.508 -11.87,8.957 l -0.06,0.101 c -1.04,1.77 -1.98,3.594 -2.81,5.469 l -0.06,-0.375 c -1.95,-2.961 -4.12,-5.762 -6.5,-8.387 l 0.04,0.043 c -3.47,-3.8 -7.48,-7.074 -11.9,-9.707 l 0.14,0.086 c -2.44,-1.457 -5.21,-2.265 -8.05,-2.347 h -0.04 c -3.72,0.082 -7.29,1.464 -10.09,3.914 l -0.04,0.035 c -3.3,2.836 -5.97,6.344 -7.81,10.281 l -0.02,0.047 c -0.77,1.707 -1.43,3.461 -1.98,5.254 l -0.07,-0.266 c -2.3,-2.304 -4.69,-4.531 -7.16,-6.668 v 0.008" />
        <path
           inkscape:connector-curvature="0"
           id="path50598"
           style="fill:#231f20;fill-opacity:1;fill-rule:evenodd;stroke:none"
           d="m 1695.43,73.7695 c -0.07,-2.625 0.29,-5.25 1.08,-7.7578 l 0.02,-0.0664 c 0.77,-2.5547 2.39,-4.7734 4.58,-6.2969 l -0.05,0.0352 c 3.19,-2.0273 6.85,-3.2031 10.63,-3.4102 h 0.06 c 4.3,-0.4101 8.63,0.5391 12.37,2.6954 l 0.01,0.0117 c 2.33,1.3164 4.08,3.4531 4.93,5.9843 l -0.01,-0.0195 c 0.71,2.1641 1.14,4.4063 1.29,6.6797 l -0.01,-0.3164 c 0.24,3.9492 0.41,7.9062 0.49,11.8672 v 0.3437 69.8635 l -0.14,0.031 c -1.78,0.399 -3.53,0.918 -5.25,1.543 l -0.01,0.008 c -2.3,0.976 -4.52,2.129 -6.63,3.457 l 0.53,0.133 c -8.03,-4.547 -15.73,-9.684 -23,-15.364 l -0.35,-0.277 -0.57,-64.457 0.03,-4.7422 v 0.0547 m -13.21,113.4575 c -9.5,-8.786 -19.83,-16.618 -30.86,-23.387 l 0.6,0.363 c 1.98,-0.648 3.95,-1.332 5.9,-2.055 v 0 c 1.63,-0.621 3.16,-1.464 4.57,-2.503 v 0 c 0.97,-0.758 1.77,-1.723 2.32,-2.832 v 0 c 0.64,-1.422 1.03,-2.946 1.13,-4.504 v 0 -3.723 -66.1641 l 0.03,-3.875 0.01,0.0898 c -0.08,-2.3203 0.05,-4.5898 0.37,-6.8398 v -0.0235 c 1.54,-7.7421 6.74,-14.2617 13.94,-17.4882 l -0.04,0.0156 c 3.52,-1.582 7.19,-2.836 10.94,-3.7383 l 0.07,-0.0156 -4.11,-1.7852 0.07,0.0274 c -4.72,-1.9336 -8.95,-4.8828 -12.39,-8.6485 l -0.02,-0.0234 c -7.05,-7.3281 -8.04,-18.6094 -2.38,-27.0547 v 0 c 4.93,-6.82422 12.99,-10.68359 21.39,-10.25391 h -0.03 c 6.01,0.32032 11.91,1.73047 17.42,4.15625 l -0.37,-0.17187 c 5.92,2.63672 11.78,5.42583 17.56,8.35933 l 0.43,0.2071 c 3.39,1.6133 6.95,2.8633 10.61,3.7344 l 0.05,0.0039 c 1.64,0.3515 3.33,0.4687 4.99,0.3515 v 0 c 1.34,-0.1172 2.6,-0.6406 3.64,-1.4883 v 0 c 0.67,-0.5664 1.12,-1.3632 1.25,-2.2382 v -0.0039 c 0.13,-0.8321 -0.03,-1.6719 -0.45,-2.3946 v 0 c -1.15,-2.0508 -3.07,-3.55467 -5.34,-4.16404 l -0.02,-0.00391 c -1.45,-0.33203 -2.93,-0.51172 -4.41,-0.53516 h 0.02 l -8.02,-0.11328 v -5.875 l 4.14,-0.23828 -0.04,0.00391 c 3.93,-0.29688 7.88,-0.03125 11.74,0.78906 l 0.03,0.00391 c 13.58,2.57031 19.29,18.86329 10.28,29.34379 l -0.03,0.0312 c -3.72,4.0703 -8.69,6.7734 -14.14,7.6914 l 0.09,-0.0078 c -5.81,0.8711 -11.76,0.3359 -17.32,-1.5742 l 0.34,0.125 c -5.17,-1.836 -10.25,-3.9063 -15.22,-6.1992 l -1.55,-0.711 c -4.82,-2.2031 -9.69,-4.3008 -14.61,-6.2929 l 1.14,0.457 c -1.96,-0.75 -3.99,-1.2774 -6.06,-1.5703 v 0 c -2.01,-0.2696 -4.06,0.1601 -5.81,1.2148 l 0.02,-0.0117 c -1.32,0.7734 -2.18,2.1484 -2.29,3.6758 v 0.0117 c -0.11,1.4922 0.18,2.9961 0.84,4.3555 l 0.02,0.0351 c 0.95,1.8867 2.24,3.5782 3.79,4.9727 v 0 c 5.09,4.5039 11.4,7.3906 18.14,8.289 v 0 l 16.48,1.4649 -0.08,-0.0078 c 5.5,0.2851 10.96,1.207 16.25,2.7539 l 0.04,0.0117 c 5.7,1.4688 10.99,4.2539 15.42,8.1211 l -0.01,-0.0156 c 3.4,2.9062 5.73,6.8789 6.59,11.2812 l 0.01,-0.0078 c 0.6,3.5469 0.88,7.1406 0.84,10.6641 v 0.1445 74.9535 l 0.69,0.422 -0.05,-0.028 c 0.55,0.293 1.08,0.621 1.59,0.981 l -0.06,-0.039 c 1.51,1.113 2.93,2.355 4.22,3.711 l 0.02,0.011 c 3.89,4.297 7.34,8.992 10.27,14 l 0.05,0.086 -1.61,1.52 -1.31,-0.711 -0.05,-0.028 c -1.03,-0.589 -2.15,-1.035 -3.31,-1.328 l -0.03,-0.008 c -6.67,-1.453 -13.62,0.368 -18.73,4.899 l -0.12,0.101 c -2.58,2.278 -4.97,4.762 -7.15,7.418 l -1.25,-1.277 c -15.59,-12.332 -31.89,-23.734 -48.84,-34.144 l 1.48,0.308 c 0.15,3.106 0.23,6.223 0.21,9.332 v 0.371 c 0.07,3.914 -0.51,7.821 -1.7,11.551 l 0.01,-0.047 c -1.01,3.52 -2.9,6.723 -5.49,9.313 l 0.04,-0.035 c -1.92,1.808 -3.99,3.441 -6.19,4.878 l -0.6,-0.421" />
      </g>
    </g>
  </g>
</svg>
