<?xml version="1.0" encoding="UTF-8" standalone="no"?>
<!-- Created with Inkscape (http://www.inkscape.org/) -->

<svg
   xmlns:dc="http://purl.org/dc/elements/1.1/"
   xmlns:cc="http://creativecommons.org/ns#"
   xmlns:rdf="http://www.w3.org/1999/02/22-rdf-syntax-ns#"
   xmlns:svg="http://www.w3.org/2000/svg"
   xmlns="http://www.w3.org/2000/svg"
   xmlns:sodipodi="http://sodipodi.sourceforge.net/DTD/sodipodi-0.dtd"
   xmlns:inkscape="http://www.inkscape.org/namespaces/inkscape"
   width="372.04724"
   height="524.40942"
   id="svg2"
   version="1.1"
   inkscape:version="0.48.5 r10040"
   sodipodi:docname="la_tirania.svg">
  <defs
     id="defs4" />
  <sodipodi:namedview
     id="base"
     pagecolor="#ffffff"
     bordercolor="#666666"
     borderopacity="1.0"
     inkscape:pageopacity="0.0"
     inkscape:pageshadow="2"
     inkscape:zoom="0.7"
     inkscape:cx="380.60472"
     inkscape:cy="223.47395"
     inkscape:document-units="mm"
     inkscape:current-layer="g3709"
     showgrid="false"
     showguides="true"
     inkscape:guide-bbox="true"
     units="mm"
     inkscape:window-width="1024"
     inkscape:window-height="713"
     inkscape:window-x="0"
     inkscape:window-y="31"
     inkscape:window-maximized="1">
    <sodipodi:guide
       orientation="1,0"
       position="262.20472,0"
       id="guide3168" />
    <sodipodi:guide
       orientation="0,1"
       position="72.857143,271.42857"
       id="guide3277" />
  </sodipodi:namedview>
  <metadata
     id="metadata7">
    <rdf:RDF>
      <cc:Work
         rdf:about="">
        <dc:format>image/svg+xml</dc:format>
        <dc:type
           rdf:resource="http://purl.org/dc/dcmitype/StillImage" />
        <dc:title></dc:title>
      </cc:Work>
    </rdf:RDF>
  </metadata>
  <g
     inkscape:label="Capa 1"
     inkscape:groupmode="layer"
     id="layer1"
     transform="translate(0,-527.95267)">
    <g
       id="layer1-8"
       inkscape:label="Capa 1"
       transform="matrix(0.16088167,0,0,0.16157504,416.66039,909.65661)">
      <g
         inkscape:export-ydpi="149"
         inkscape:export-xdpi="149"
         inkscape:export-filename="/srv/http/kiwwwi.com.ar/pastes/utopia-pirata-2.png"
         transform="matrix(0.67937345,0,0,0.67937345,-233.93427,225.03697)"
         id="g3847" />
    </g>
    <g
       transform="matrix(1.1857515,0,0,1.1857515,89.761277,-251.10555)"
       id="g3341" />
    <g
       id="g3631"
       transform="translate(-342.85715,0)">
      <g
         id="g3709"
         transform="translate(-29.999994,0)">
        <rect
           style="fill:#ff6600"
           id="rect3033"
           width="372.04724"
           height="531.49603"
           x="372.85715"
           y="520.86615" />
        <g
           id="g4077"
           transform="matrix(0.22827806,0,0,0.22926189,591.20733,849.87455)">
          <g
             transform="matrix(0.67937345,0,0,0.67937345,-35.215221,207.58407)"
             id="g3851"
             inkscape:export-filename="/srv/http/kiwwwi.com.ar/pastes/utopia-pirata-2.png"
             inkscape:export-xdpi="149"
             inkscape:export-ydpi="149">
            <path
               style="fill:#ffffff;stroke:#000000;stroke-width:0.70476186"
               inkscape:connector-curvature="0"
               id="path719"
               d="m 910.84122,610.02908 c -15,21 -31.266,38.794 -49,60 l -24,27 c -20,19 -70,56 -93,71 -13,9 -27,16 -41,22 l -18.26,8.84 c 3,3 8.58,4.641 13.629,7 3,0 13.631,-5.84 16.631,-7.84 l 32,-18 c 6,-4 12,-9 19,-10 -3,7 -10,11 -17,15 l -19,11 c 0,0 -19.951,11.37 -22.68,13.26 5.469,2.16 13.68,4.641 18.889,6.74 5,0 11.791,-5 15.791,-7 11,-6 25,-15 36,-23 l 18,-12 c 14,-11 28,-23 41,-36 10,-9 20,-18 28,-29 11,-13 18,-28 26,-43 9,-14 12,-23 17,-38 1,-5 4,-13 2,-18 z" />
            <path
               style="fill:#ffffff;stroke:#000000;stroke-width:0.70476186"
               inkscape:connector-curvature="0"
               id="path725"
               d="m 451.84122,605.02908 c -3,11 1,24 5,34 9,24 24,45 39,65 9,13 24,29 35,40 l 12,10 26,23 c 21,16 60,40 84,51 l 32,14 13,5 c 15,6 30,10 46,13 9,2 19,5 28,5 -3,-11 -9,-10 -18,-13 l -33,-13 c -46,-19 -97,-38 -133,-74 7,0 12,6 17,10 7,5 16,11 24,16 22,13 72,36 97,45 10,4 27,11 37,11 8,1 19,-4 25,-8 -4,-4 -8,-3 -14,-4 l -31,-9 c -27,-7 -53,-17 -78,-30 l -14,-6 -19,-12 -23,-15 -24,-19 -41,-32 -38,-39 -19,-22 -20,-22 -15,-24 z" />
            <path
               style="fill:#ffffff;stroke:#000000;stroke-width:0.70476186"
               inkscape:connector-curvature="0"
               id="path731"
               d="m 772.84122,852.02908 c 2,4 6,10 6,15 0,11 -13,21 -23,20 -4,-1 -13,-6 -16,0 -1,2 -1,4 0,5 0,4 5,6 9,8 11,3 23,-1 32,-7 7,-4 12,-11 14,-19 l 2,-13 c 1,-4 5,-5 10,-12 6,-8 12,-22 20,-28 3,-2 6,-3 10,-4 -2,-3 -4,-5 -6,-8 -2,-1 -4,-3 -6,-3 -3,-1 -7,-1 -10,1 -14,7 -11,20 -19,30 -6,8 -13,12 -23,15 z" />
            <path
               style="fill:#ffffff;stroke:#000000;stroke-width:0.70476186"
               inkscape:connector-curvature="0"
               id="path737"
               d="m 804.84122,865.02908 c 7,3 13,2 20,2 l 15,1 c 7,0 9,-4 12,-10 1,-2 2,-6 0,-8 -2,-2 -6,-2 -9,-2 l -17,1 c -3,0 -8,0 -11,1 -5,3 -9,10 -10,15 z" />
            <path
               style="fill:#ffffff;stroke:#000000;stroke-width:0.70476186"
               inkscape:connector-curvature="0"
               id="path743"
               d="m 858.84122,879.02908 c -5,-2 -8,-4 -11,-8 -1,1 -2,1 -3,2 -1,5 12,17 14,6 z" />
            <path
               style="fill:#ffffff;stroke:#000000;stroke-width:0.70476186"
               inkscape:connector-curvature="0"
               id="path744"
               d="m 851.84122,845.02908 8,5 c -2,4 -7,12 -6,17 1,10 15,10 21,4 7,-8 7,-20 -3,-26 -6,-3 -13,-2 -20,0 z" />
            <path
               style="fill:#ffffff;stroke:#000000;stroke-width:0.70476186"
               inkscape:connector-curvature="0"
               id="selection_x5F_to_x5F_path_x23_5"
               d="m 492.84122,873.02908 1,1 c 8,-2 13,-5 14,-13 -6,1 -12,7 -15,12 z" />
            <path
               style="fill:#ffffff;stroke:#000000;stroke-width:0.70476186"
               inkscape:connector-curvature="0"
               id="selection_x5F_to_x5F_path_x23_4"
               d="m 499.84122,836.02908 c -3,-2 -6,-3 -10,-3 -3,0 -6,0 -9,1 -10,4 -11,20 -3,27 4,4 14,6 18,1 4,-4 3,-9 1,-14 -1,-3 -3,-7 -1,-9 1,-2 3,-2 4,-3 z" />
            <path
               style="fill:#ffffff;stroke:#000000;stroke-width:0.70476186"
               inkscape:connector-curvature="0"
               id="selection_x5F_to_x5F_path_x23_3"
               d="m 498.84122,840.02908 c 1,3 6,15 8,17 3,2 6,2 9,2 l 18,-1 h 13 c 0,-3 0,-6 -1,-8 -3,-8 -14,-12 -22,-12 l -9,1 c -6,0 -11,-1 -16,1 z" />
            <path
               style="fill:#ffffff;stroke:#000000;stroke-width:0.70476186"
               inkscape:connector-curvature="0"
               id="selection_x5F_to_x5F_path_x23_2"
               d="m 517.84122,808.02908 c 19,5 19,21 27,32 3,4 11,10 12,14 1,3 0,4 1,11 2,9 8,18 16,23 9,6 17,10 28,7 6,-2 12,-6 9,-13 -3,-7 -14,0 -21,-2 -7,-3 -15,-13 -15,-21 l 4,-14 c -11,-4 -24,-13 -29,-24 -3,-7 -3,-17 -8,-22 -9,-7 -21,-1 -24,9 z" />
            <path
               style="fill:#ffffff;stroke:#000000;stroke-width:0.70476186"
               inkscape:connector-curvature="0"
               id="path758"
               d="m 565.84122,831.02908 c 3,4 5,5 9,7 14,8 23,2 37,-1 l 29,-9 c -3.84,-2.58 -12.42,-7.95 -16,-10 l -19,5 -40,8 z" />
            <path
               style="fill:#ffffff;stroke:#000000;stroke-width:0.70476186"
               inkscape:connector-curvature="0"
               id="path759"
               d="m 579.84122,860.02908 c 26,0 50,-8 75,-14 0,0 11,-5.206 14.676,-5.206 -3.47,-2.529 -17.622,-7.638 -19.836,-9.634 -3,0.89 -14.84,4.84 -18.84,5.84 l -25,7 -12,3 c -7,3 -12,4 -14,13 z" />
          </g>
          <circle
             id="circle3807"
             r="107.775"
             cy="156.03101"
             cx="376.047"
             sodipodi:cx="376.047"
             sodipodi:cy="156.03101"
             sodipodi:rx="107.775"
             sodipodi:ry="107.775"
             style="fill:none;stroke:#ffffff;stroke-width:14.09523773"
             d="m 483.822,156.03101 c 0,59.52249 -48.25251,107.775 -107.775,107.775 -59.52249,0 -107.775,-48.25251 -107.775,-107.775 0,-59.522494 48.25251,-107.775006 107.775,-107.775006 59.52249,0 107.775,48.252512 107.775,107.775006 z"
             transform="matrix(0.67937348,0,0,0.67937344,172.06628,463.24141)" />
          <path
             id="path3809"
             d="m 972.7768,439.2957 c -31.919,0 -58.663,22.231 -65.598,52.05 h 32.187 c 5.808,-12.648 18.59,-21.432 33.411,-21.432 20.282,0 36.742,16.46 36.742,36.741 0,20.281 -16.46,36.742 -36.742,36.742 -14.821,0 -27.604,-8.785 -33.411,-21.433 h -32.187 c 6.935,29.819 33.679,52.05 65.598,52.05 37.183,0 67.359,-30.177 67.359,-67.359 0,-37.182 -30.177,-67.359 -67.359,-67.359 z"
             inkscape:connector-curvature="0"
             style="fill:#ffffff"
             transform="matrix(0.67937348,0,0,0.67937344,-233.93429,225.03699)" />
          <g
             transform="matrix(-0.72702905,0.19480685,-0.19480685,-0.72702905,-611.71218,-436.375)"
             style="font-size:121.8484726px;font-style:normal;font-weight:normal;line-height:125%;letter-spacing:0px;word-spacing:0px;fill:#ffffff;fill-opacity:1;stroke:none;font-family:Bitstream Vera Sans"
             id="text3059"
             inkscape:export-filename="/srv/http/kiwwwi.com.ar/pastes/utopia-pirata-2.png"
             inkscape:export-xdpi="149"
             inkscape:export-ydpi="149">
            <g
               id="g3922"
               transform="matrix(0.99707364,-0.07644708,0.07644708,0.99707364,125.06749,-81.555005)">
              <path
                 inkscape:export-ydpi="149"
                 inkscape:export-xdpi="149"
                 inkscape:export-filename="/srv/http/kiwwwi.com.ar/pastes/utopia-pirata-1.png"
                 sodipodi:type="arc"
                 style="fill:none;stroke:none"
                 id="path3865"
                 sodipodi:cx="-1311.178"
                 sodipodi:cy="-1543.7299"
                 sodipodi:rx="127.27922"
                 sodipodi:ry="127.27922"
                 d="m -1183.8988,-1543.7299 c 0,70.2944 -56.9848,127.2793 -127.2792,127.2793 -70.2944,0 -127.2792,-56.9849 -127.2792,-127.2793 0,-70.2943 56.9848,-127.2792 127.2792,-127.2792 70.2944,0 127.2792,56.9849 127.2792,127.2792 z"
                 transform="matrix(-0.8718552,-0.2336129,0.2336129,-0.8718552,-1786.4657,-3244.8873)" />
              <path
                 inkscape:connector-curvature="0"
                 id="path3897"
                 style="font-style:normal;font-variant:normal;font-weight:normal;font-stretch:normal;fill:#ffffff;font-family:League Gothic;-inkscape-font-specification:League Gothic"
                 d="m -778.04883,-1594.9487 -70.08465,-12.3215 c -3.57914,-0.7529 -6.69277,-2.0426 -9.22087,-3.848 -2.21027,-1.502 -4.19505,-3.583 -5.5732,-6.2996 -1.49816,-2.7377 -2.00858,-6.1679 -1.24904,-10.4881 0.75954,-4.3203 2.43037,-7.4907 4.77246,-9.5532 2.22209,-2.0837 4.77652,-3.243 7.36656,-3.9011 2.99226,-0.8348 6.35907,-0.9852 9.98041,-0.4723 l 70.08465,12.3215 -2.27862,12.9608 -70.08465,-12.3214 c -2.52017,-0.4431 -4.30577,-0.1384 -5.83684,0.8296 -0.70553,0.4946 -1.21325,1.2713 -1.40313,2.3514 -0.40087,2.2801 0.84934,3.6134 2.56507,4.4099 0.77676,0.5077 1.83573,0.8176 3.15582,1.0497 l 70.08465,12.3214 -2.27862,12.9609" />
              <path
                 inkscape:connector-curvature="0"
                 id="path3899"
                 style="font-style:normal;font-variant:normal;font-weight:normal;font-stretch:normal;fill:#ffffff;font-family:League Gothic;-inkscape-font-specification:League Gothic"
                 d="m -801.09593,-1568.8963 11.85811,6.5051 -18.28444,33.3309 -11.85812,-6.5051 5.97761,-10.8966 -66.66184,-36.5689 6.32923,-11.5376 66.66184,36.5689 5.97761,-10.8967" />
              <path
                 inkscape:connector-curvature="0"
                 id="path3901"
                 style="font-style:normal;font-variant:normal;font-weight:normal;font-stretch:normal;fill:#ffffff;font-family:League Gothic;-inkscape-font-specification:League Gothic"
                 d="m -902.22684,-1531.2768 c -2.40064,-2.7594 -4.10625,-5.6661 -5.0338,-8.6309 -0.857,-2.5312 -1.18494,-5.3882 -0.64563,-8.3863 0.45632,-3.0873 2.1181,-6.1311 5.32973,-9.1189 3.21164,-2.9879 6.45655,-4.5088 9.56871,-4.7413 3.02918,-0.3218 5.76585,0.2943 8.22867,1.3316 2.89022,1.139 5.66638,3.0497 8.24545,5.6431 l 35.93698,38.6289 c 2.31765,2.6701 4.02326,5.5768 4.95082,8.5417 0.85699,2.5312 1.35714,5.3944 0.81783,8.3924 -0.53932,2.9981 -2.20731,6.2141 -5.41895,9.202 -3.21163,2.9878 -6.45032,4.3365 -9.47949,4.6583 -3.02918,0.3217 -5.93806,-0.3006 -8.40087,-1.3379 -2.89023,-1.1389 -5.66638,-3.0497 -8.16246,-5.5539 l -35.93699,-38.6288 m 45.57191,29.6653 c 1.65991,1.7843 3.1787,2.7013 5.06676,2.9419 0.86104,0.031 1.82372,-0.3653 2.62663,-1.1122 1.69503,-1.5769 1.33601,-3.5729 0.61392,-5.0646 -0.39633,-0.9627 -1.05407,-1.8486 -1.88403,-2.7407 l -35.93698,-38.6289 c -1.74291,-1.8735 -3.35091,-2.7075 -5.15597,-2.8588 -0.86104,-0.031 -1.73451,0.2822 -2.53742,1.0292 -1.69503,1.5769 -1.502,3.3944 -0.61392,5.0645 0.31333,0.8735 0.97108,1.7594 1.88402,2.7408 l 35.93699,38.6288" />
              <path
                 inkscape:connector-curvature="0"
                 id="path3903"
                 style="font-style:normal;font-variant:normal;font-weight:normal;font-stretch:normal;fill:#ffffff;font-family:League Gothic;-inkscape-font-specification:League Gothic"
                 d="m -886.59996,-1457.8116 -12.05827,5.2702 c -5.24757,2.2934 -11.08073,3.2471 -16.75926,1.2077 -5.67853,-2.0394 -11.09081,-7.1207 -15.18979,-16.4994 -4.09898,-9.3786 -4.10323,-16.6905 -1.74292,-22.2434 2.3603,-5.5528 6.92473,-9.4094 12.1723,-11.7029 l -14.34645,-32.8252 12.05826,-5.2702 35.86613,82.0632 m -28.21022,-31.6862 c -3.68447,1.6103 -5.73635,3.305 -6.2466,5.7886 -0.55905,2.372 0.42353,5.5329 2.42423,10.1106 2.00069,4.5777 3.75077,7.6692 5.96893,9.0933 2.21816,1.4242 4.95321,1.2926 8.63767,-0.3177 l -10.78423,-24.6748" />
              <path
                 inkscape:connector-curvature="0"
                 id="path3905"
                 style="font-style:normal;font-variant:normal;font-weight:normal;font-stretch:normal;fill:#ffffff;font-family:League Gothic;-inkscape-font-specification:League Gothic"
                 d="m -948.99443,-1436.6047 -13.00674,2.0001 -13.61231,-88.5181 13.00674,-2.0001 13.61231,88.5181" />
              <path
                 inkscape:connector-curvature="0"
                 id="path3907"
                 style="font-style:normal;font-variant:normal;font-weight:normal;font-stretch:normal;fill:#ffffff;font-family:League Gothic;-inkscape-font-specification:League Gothic"
                 d="m -981.75508,-1521.0222 -23.62102,87.4398 -15.9797,-1.8289 -3.2539,-90.5157 12.7111,1.4548 0.3429,18.4359 12.59007,1.4409 4.49944,-17.8816 12.71111,1.4548 m -29.02582,57.5093 0.1,2.3417 0.7264,0.083 0.6264,-2.2585 6.9672,-27.656 -8.9583,-1.0253 0.5384,28.515" />
              <path
                 inkscape:connector-curvature="0"
                 id="path3909"
                 style="font-style:normal;font-variant:normal;font-weight:normal;font-stretch:normal;fill:#ffffff;font-family:League Gothic;-inkscape-font-specification:League Gothic"
                 d="m -1099.1166,-1462.6292 -10.788,-7.5362 c -4.6948,-3.2797 -8.5522,-7.758 -9.7757,-13.6663 -1.2235,-5.9083 0.2868,-13.1768 6.1483,-21.5675 5.8615,-8.3906 12.0967,-12.2098 18.0653,-13.094 5.9685,-0.8841 11.6402,0.9971 16.335,4.2767 l 20.5152,-29.3674 10.7881,7.5362 -51.2882,73.4185 m 12.3091,-40.5995 c -3.2963,-2.3027 -5.8127,-3.1688 -8.1976,-2.308 -2.3152,0.7609 -4.4989,3.2485 -7.3599,7.344 -2.8609,4.0954 -4.5849,7.2016 -4.6423,9.8369 -0.057,2.6354 1.4821,4.8999 4.7784,7.2026 l 15.4214,-22.0755" />
              <path
                 inkscape:connector-curvature="0"
                 id="path3911"
                 style="font-style:normal;font-variant:normal;font-weight:normal;font-stretch:normal;fill:#ffffff;font-family:League Gothic;-inkscape-font-specification:League Gothic"
                 d="m -1149.6319,-1504.5948 -8.5195,-10.0296 68.2572,-57.9801 8.5196,10.0296 -68.2573,57.9801" />
              <path
                 inkscape:connector-curvature="0"
                 id="path3913"
                 style="font-style:normal;font-variant:normal;font-weight:normal;font-stretch:normal;fill:#ffffff;font-family:League Gothic;-inkscape-font-specification:League Gothic"
                 d="m -1106.4208,-1601.3444 -31.2348,22.3102 1.5099,3.1948 34.1507,-16.1412 5.6233,11.8977 -80.97,38.2701 -5.6234,-11.8977 c -6.7168,-14.211 -1.5386,-24.071 13.7741,-31.3085 8.0419,-3.8009 16.302,-5.1443 21.5214,-2.0855 l 35.6254,-26.1376 5.6234,11.8977 m -40.7412,30.7118 c -0.781,-1.6525 -2.0427,-3.7516 -4.4181,-4.7852 -2.3754,-1.0337 -6.0267,-1.06 -11.7551,1.6476 -5.7285,2.7075 -8.1362,5.5975 -8.8454,8.0891 -0.7092,2.4916 0.222,4.7469 1.003,6.3994 l 24.0156,-11.3509" />
              <path
                 inkscape:connector-curvature="0"
                 id="path3915"
                 style="font-style:normal;font-variant:normal;font-weight:normal;font-stretch:normal;fill:#ffffff;font-family:League Gothic;-inkscape-font-specification:League Gothic"
                 d="m -1113.2219,-1617.132 -90.458,-4.5863 -1.5934,-16.0049 87.7782,-22.331 1.2675,12.7311 -17.946,4.2357 1.2554,12.6099 18.4288,0.6143 1.2675,12.7312 m -62.3486,-16.2013 -2.2675,0.5931 0.072,0.7275 2.34,0.1344 28.504,0.9582 -0.8933,-8.9724 -27.7556,6.5592" />
              <path
                 inkscape:connector-curvature="0"
                 id="path3917"
                 style="font-style:normal;font-variant:normal;font-weight:normal;font-stretch:normal;fill:#ffffff;font-family:League Gothic;-inkscape-font-specification:League Gothic"
                 d="m -1191.1447,-1674.8241 -13.2316,-2.8027 7.8779,-37.1915 13.2316,2.8027 -2.5754,12.1588 74.383,15.7558 -2.727,12.874 -74.383,-15.7558 -2.5755,12.1587" />
              <path
                 inkscape:connector-curvature="0"
                 id="path3919"
                 style="font-style:normal;font-variant:normal;font-weight:normal;font-stretch:normal;fill:#ffffff;font-family:League Gothic;-inkscape-font-specification:League Gothic"
                 d="m -1109.3262,-1695.6338 -70.438,-56.94 8.1301,-13.8779 84.1114,33.5999 -6.4672,11.0393 -17.0021,-7.1361 -6.4056,10.9341 14.5385,11.3415 -6.4671,11.0392 m -40.876,-49.7893 -2.1823,-0.8549 -0.3696,0.6309 1.8128,1.4856 22.4821,17.5485 4.5578,-7.78 -26.3008,-11.0301" />
            </g>
          </g>
        </g>
        <rect
           style="fill:#ffffff"
           id="rect3035"
           width="372.04724"
           height="173.31082"
           x="372.85715"
           y="589.1864" />
        <g
           style="font-size:40px;font-style:normal;font-variant:normal;font-weight:normal;font-stretch:normal;line-height:125%;letter-spacing:0px;word-spacing:0px;fill:#000000;fill-opacity:1;stroke:none;font-family:League Gothic;-inkscape-font-specification:League Gothic"
           id="g3435"
           transform="matrix(1.4188819,0,0,1.4188819,-316.93984,-345.99042)">
          <g
             transform="translate(13.24981,0)"
             id="text3305"
             style="font-size:28.1912117px;line-height:125%;fill:#000000;font-family:FontAwesome;-inkscape-font-specification:FontAwesome">
            <g
               id="g3402">
              <path
                 d="m 512.25231,706.81389 4.6321,0 0,27.23504 6.13325,0 0,4.28899 -10.76535,0 0,-31.52403"
                 style="font-family:League Gothic;-inkscape-font-specification:League Gothic"
                 id="path3316"
                 inkscape:connector-curvature="0" />
              <path
                 d="m 531.4636,720.45286 c 0,-0.38601 0,-0.98647 -0.12871,-1.41536 -0.17157,-0.4289 -0.51469,-0.72913 -1.07225,-0.72913 -0.72912,0 -1.02936,0.55758 -1.15802,1.2438 -0.0429,0.34312 -0.0858,0.72914 -0.0858,1.11515 0,0.386 0,0.77201 0,1.11513 l -4.33186,0 0,-0.98647 c 0,-1.71559 0.64335,-3.25962 1.6727,-4.41766 1.02936,-1.15802 2.48761,-1.84426 4.16032,-1.84426 1.41536,0 2.70205,0.55758 3.68852,1.50116 0.98647,0.94356 1.58693,2.27315 1.58693,3.81718 l 0,14.41098 c 0,2.1016 0.12871,3.04518 0.30021,4.07454 l -4.24609,0 c -0.38601,-0.4718 -0.38601,-1.58693 -0.38601,-1.88716 l -0.30023,0 c -0.21444,0.38601 -0.60044,0.94358 -1.20091,1.41536 -0.60046,0.4718 -1.41536,0.81492 -2.27315,0.81492 -0.55757,0 -1.45825,-0.21446 -2.14449,-1.07226 -0.72912,-0.8149 -1.32959,-2.27315 -1.32959,-4.71787 0,-2.61628 0.77202,-4.50344 1.80137,-5.79012 1.02936,-1.2867 2.31606,-2.10161 3.38831,-2.65918 1.07223,-0.55756 1.88714,-0.94357 2.05869,-1.41536 l 0,-2.57339 m 0,6.56215 c -2.10158,0.90068 -3.00227,3.00228 -3.00227,5.23255 0,0.30023 0.0429,0.81491 0.21443,1.2867 0.17157,0.51467 0.4718,0.90069 0.98647,0.90069 0.98647,0 1.80137,-0.60046 1.80137,-1.41537 l 0,-6.00457"
                 style="font-family:League Gothic;-inkscape-font-specification:League Gothic"
                 id="path3318"
                 inkscape:connector-curvature="0" />
              <path
                 d="m 550.57369,709.08706 0,5.79012 2.9594,0 0,3.90297 -2.9594,0 0,11.66603 c 0,0.72913 0,1.67271 0.17156,2.44473 0.17156,0.77201 0.51468,1.41536 1.20092,1.41536 0.34312,0 0.77201,-0.0429 1.07224,-0.0858 0.17156,-0.0429 0.34312,-0.0429 0.51468,-0.0858 l 0,4.24609 c -0.21444,0.0429 -0.4289,0.12871 -0.64335,0.17155 -0.4289,0.0858 -0.98646,0.12871 -1.6727,0.12871 -2.53049,0 -3.73142,-1.2867 -4.33186,-2.91652 -0.60047,-1.6298 -0.64335,-3.60274 -0.64335,-4.97522 l 0,-12.00915 -2.18738,0 0,-3.90297 2.18738,0 0,-5.79012 4.33186,0"
                 style="font-family:League Gothic;-inkscape-font-specification:League Gothic"
                 id="path3320"
                 inkscape:connector-curvature="0" />
              <path
                 d="m 555.81228,706.81389 4.33187,0 0,4.33189 -4.33187,0 0,-4.33189 m 0,31.52403 0,-23.46074 4.33187,0 0,23.46074 -4.33187,0"
                 style="font-family:League Gothic;-inkscape-font-specification:League Gothic"
                 id="path3322"
                 inkscape:connector-curvature="0" />
              <path
                 d="m 572.26656,719.33773 c -0.386,-0.12871 -0.81491,-0.17157 -1.20092,-0.17157 -0.68624,0 -1.50114,0.0858 -2.18738,0.72913 -0.8149,0.68624 -0.94358,1.41536 -0.94358,2.14449 l 0,16.29814 -4.33187,0 0,-23.46074 4.33187,0 0,2.61629 c 0.0429,-0.30023 0.34312,-1.02936 1.02936,-1.7156 0.68624,-0.64335 1.71559,-1.24381 3.30252,-1.24381 l 0,4.80367"
                 style="font-family:League Gothic;-inkscape-font-specification:League Gothic"
                 id="path3324"
                 inkscape:connector-curvature="0" />
              <path
                 d="m 580.38479,720.45286 c 0,-0.38601 0,-0.98647 -0.12871,-1.41536 -0.17155,-0.4289 -0.51467,-0.72913 -1.07225,-0.72913 -0.72912,0 -1.02935,0.55758 -1.15802,1.2438 -0.0429,0.34312 -0.0858,0.72914 -0.0858,1.11515 0,0.386 0,0.77201 0,1.11513 l -4.33189,0 0,-0.98647 c 0,-1.71559 0.64335,-3.25962 1.67271,-4.41766 1.02936,-1.15802 2.48761,-1.84426 4.16032,-1.84426 1.41536,0 2.70206,0.55758 3.68851,1.50116 0.98647,0.94356 1.58694,2.27315 1.58694,3.81718 l 0,14.41098 c 0,2.1016 0.12871,3.04518 0.30023,4.07454 l -4.24609,0 c -0.38601,-0.4718 -0.38603,-1.58693 -0.38603,-1.88716 l -0.30021,0 c -0.21446,0.38601 -0.60046,0.94358 -1.20093,1.41536 -0.60044,0.4718 -1.41536,0.81492 -2.27315,0.81492 -0.55757,0 -1.45825,-0.21446 -2.14449,-1.07226 -0.72913,-0.8149 -1.32959,-2.27315 -1.32959,-4.71787 0,-2.61628 0.77202,-4.50344 1.80137,-5.79012 1.02936,-1.2867 2.31606,-2.10161 3.3883,-2.65918 1.07225,-0.55756 1.88715,-0.94357 2.0587,-1.41536 l 0,-2.57339 m 0,6.56215 c -2.10158,0.90068 -3.00228,3.00228 -3.00228,5.23255 0,0.30023 0.0429,0.81491 0.21446,1.2867 0.17155,0.51467 0.47178,0.90069 0.98645,0.90069 0.98647,0 1.80137,-0.60046 1.80137,-1.41537 l 0,-6.00457"
                 style="font-family:League Gothic;-inkscape-font-specification:League Gothic"
                 id="path3326"
                 inkscape:connector-curvature="0" />
              <path
                 d="m 591.8089,738.33792 -4.33188,0 0,-23.46074 4.33188,0 0,1.97294 c 0.0858,-0.0429 0.25733,-0.21446 0.51467,-0.4718 0.47179,-0.47178 1.11514,-1.11513 1.88715,-1.54403 0.38601,-0.21444 0.72913,-0.30023 1.11513,-0.30023 1.15804,0 1.97294,0.68624 2.48763,1.54405 0.51467,0.90067 0.77201,2.05871 0.77201,3.04516 l 0,19.21465 -4.33188,0 0,-18.5713 c 0,-0.90067 -0.51467,-1.02935 -1.02934,-1.02935 -0.4718,0 -0.72914,0.25734 -1.02936,0.55757 -0.12871,0.17155 -0.25734,0.34312 -0.38601,0.55756 l 0,18.48552"
                 style="font-family:League Gothic;-inkscape-font-specification:League Gothic"
                 id="path3328"
                 inkscape:connector-curvature="0" />
              <path
                 d="m 608.70279,707.15701 -3.3883,3.86009 -3.3454,0 2.23027,-3.86009 4.50343,0 m -6.7337,31.18091 0,-23.46074 4.33187,0 0,23.46074 -4.33187,0"
                 style="font-family:League Gothic;-inkscape-font-specification:League Gothic"
                 id="path3330"
                 inkscape:connector-curvature="0" />
              <path
                 d="m 616.32177,720.45286 c 0,-0.38601 0,-0.98647 -0.1287,-1.41536 -0.17156,-0.4289 -0.51468,-0.72913 -1.07225,-0.72913 -0.72913,0 -1.02936,0.55758 -1.15802,1.2438 -0.0429,0.34312 -0.0858,0.72914 -0.0858,1.11515 0,0.386 0,0.77201 0,1.11513 l -4.33188,0 0,-0.98647 c 0,-1.71559 0.64335,-3.25962 1.67271,-4.41766 1.02935,-1.15802 2.48761,-1.84426 4.16031,-1.84426 1.41537,0 2.70207,0.55758 3.68852,1.50116 0.98647,0.94356 1.58693,2.27315 1.58693,3.81718 l 0,14.41098 c 0,2.1016 0.12871,3.04518 0.30023,4.07454 l -4.24609,0 c -0.38601,-0.4718 -0.38601,-1.58693 -0.38601,-1.88716 l -0.30023,0 c -0.21445,0.38601 -0.60046,0.94358 -1.20092,1.41536 -0.60045,0.4718 -1.41537,0.81492 -2.27315,0.81492 -0.55758,0 -1.45826,-0.21446 -2.14449,-1.07226 -0.72913,-0.8149 -1.32959,-2.27315 -1.32959,-4.71787 0,-2.61628 0.77201,-4.50344 1.80137,-5.79012 1.02936,-1.2867 2.31606,-2.10161 3.3883,-2.65918 1.07224,-0.55756 1.88715,-0.94357 2.05871,-1.41536 l 0,-2.57339 m 0,6.56215 c -2.1016,0.90068 -3.00229,3.00228 -3.00229,5.23255 0,0.30023 0.0429,0.81491 0.21445,1.2867 0.17156,0.51467 0.47179,0.90069 0.98646,0.90069 0.98647,0 1.80138,-0.60046 1.80138,-1.41537 l 0,-6.00457"
                 style="font-family:League Gothic;-inkscape-font-specification:League Gothic"
                 id="path3332"
                 inkscape:connector-curvature="0" />
            </g>
            <g
               id="g3378">
              <path
                 d="m 519.44107,765.23716 -2.84731,0 0,-1.01488 c -0.47925,0.45106 -0.90212,0.78935 -1.43775,1.04307 -0.28191,0.14096 -0.56383,0.19734 -0.81755,0.19734 -0.78935,0 -1.32498,-0.45106 -1.66328,-1.04308 -0.36648,-0.56382 -0.53563,-1.32498 -0.53563,-1.97338 l 0,-9.83873 c 0,-0.6484 0.16915,-1.40956 0.53563,-2.00158 0.3383,-0.56382 0.87393,-1.01488 1.66328,-1.01488 0.53563,0 1.09946,0.3101 1.52233,0.6202 0.25372,0.19734 0.47925,0.39468 0.73297,0.62021 l 0,-6.31483 2.84731,0 0,20.72054 m -2.84731,-12.03765 c 0,-0.45106 -0.42287,-0.93031 -0.84574,-0.93031 -0.42286,0 -0.76116,0.39468 -0.76116,0.93031 l 0,8.6547 c 0,0.53564 0.3383,0.93031 0.76116,0.93031 0.42287,0 0.84574,-0.39467 0.84574,-0.93031 l 0,-8.6547"
                 style="font-family:League Gothic;-inkscape-font-specification:League Gothic"
                 id="path3334"
                 inkscape:connector-curvature="0" />
              <path
                 d="m 528.85517,759.71168 0,1.77605 c -0.0846,1.49413 -0.53563,2.53721 -1.55051,3.35475 -0.50744,0.42287 -1.21223,0.62021 -2.14253,0.62021 -1.83243,0 -2.76274,-1.01488 -3.2138,-2.02977 -0.25372,-0.59201 -0.42287,-1.2686 -0.45106,-2.02976 l 0,-7.75259 c 0.0846,-1.49413 0.56382,-2.59359 1.57871,-3.43933 0.47925,-0.42286 1.18403,-0.6202 2.11434,-0.6202 1.83242,0 2.76274,1.01488 3.21379,2.00157 0.25373,0.59202 0.42287,1.24042 0.45106,1.97339 l 0,4.4824 -4.70793,0 0,3.35476 c 0.0282,0.59201 0.19734,1.01488 0.45106,1.32498 0.14096,0.14096 0.3383,0.22553 0.59202,0.22553 0.53563,0 0.78935,-0.33829 0.90212,-0.76116 0.0846,-0.22553 0.11276,-0.47925 0.11276,-0.78935 l 0,-1.69148 2.64997,0 m -4.70793,-3.89038 2.05796,0 0,-2.17073 c 0,-0.59201 -0.11276,-1.01488 -0.39468,-1.35318 -0.14095,-0.14095 -0.36648,-0.22553 -0.6202,-0.22553 -0.53564,0 -0.76117,0.36649 -0.90212,0.78936 -0.0846,0.22553 -0.11277,0.47925 -0.14096,0.78935 l 0,2.17073"
                 style="font-family:League Gothic;-inkscape-font-specification:League Gothic"
                 id="path3336"
                 inkscape:connector-curvature="0" />
              <path
                 d="m 535.15767,765.23716 0,-20.72054 2.84731,0 0,20.72054 -2.84731,0"
                 style="font-family:League Gothic;-inkscape-font-specification:League Gothic"
                 id="path3338"
                 inkscape:connector-curvature="0" />
              <path
                 d="m 544.5916,753.48142 c 0,-0.25372 0,-0.64839 -0.0846,-0.93031 -0.11276,-0.28191 -0.33829,-0.47925 -0.70478,-0.47925 -0.47925,0 -0.67659,0.36649 -0.76116,0.81755 -0.0282,0.22553 -0.0564,0.47925 -0.0564,0.73297 0,0.25372 0,0.50744 0,0.73297 l -2.84732,0 0,-0.6484 c 0,-1.12764 0.42287,-2.14253 1.09946,-2.90369 0.67659,-0.76116 1.63509,-1.21222 2.73455,-1.21222 0.93031,0 1.77605,0.36648 2.42444,0.98669 0.6484,0.62021 1.04308,1.49414 1.04308,2.50902 l 0,9.47224 c 0,1.38137 0.0846,2.00158 0.19734,2.67817 l -2.79093,0 c -0.25372,-0.3101 -0.25372,-1.04308 -0.25372,-1.24041 l -0.19734,0 c -0.14096,0.25372 -0.39468,0.6202 -0.78936,0.93031 -0.39467,0.3101 -0.93031,0.53563 -1.49413,0.53563 -0.36649,0 -0.9585,-0.14096 -1.40956,-0.70478 -0.47925,-0.53563 -0.87393,-1.49414 -0.87393,-3.10103 0,-1.71967 0.50744,-2.96008 1.18403,-3.80582 0.67659,-0.84573 1.52233,-1.38137 2.22711,-1.74785 0.70478,-0.36649 1.24041,-0.62021 1.35318,-0.93031 l 0,-1.69148 m 0,4.31326 c -1.38137,0.59201 -1.97339,1.97339 -1.97339,3.43933 0,0.19734 0.0282,0.53563 0.14096,0.84573 0.11276,0.3383 0.3101,0.59202 0.64839,0.59202 0.6484,0 1.18404,-0.39468 1.18404,-0.93031 l 0,-3.94677"
                 style="font-family:League Gothic;-inkscape-font-specification:League Gothic"
                 id="path3340"
                 inkscape:connector-curvature="0" />
              <path
                 d="m 554.30523,765.23716 0,-12.85519 -1.43775,0 0,-2.5654 1.43775,0 0,-0.42287 c 0,-0.78935 0.0282,-2.05796 0.42287,-3.10103 0.39468,-1.04308 1.18403,-1.88882 2.84731,-1.88882 0.45106,0 0.76116,0.0282 0.98669,0.11277 l 0.3383,0.0846 0,2.45264 c -0.0846,-0.0282 -0.16915,-0.0282 -0.25372,-0.0564 -0.19734,-0.0282 -0.39468,-0.0564 -0.59202,-0.0564 -0.47925,0 -0.70478,0.42287 -0.81754,0.9585 -0.0564,0.28192 -0.0846,0.56383 -0.0846,0.84574 0,0.28191 0,0.50744 0,0.67659 l 0,0.39468 1.43776,0 0,2.5654 -1.43776,0 0,12.85519 -2.84731,0"
                 style="font-family:League Gothic;-inkscape-font-specification:League Gothic"
                 id="path3342"
                 inkscape:connector-curvature="0" />
              <path
                 d="m 564.52366,753.48142 c 0,-0.25372 0,-0.64839 -0.0846,-0.93031 -0.11276,-0.28191 -0.33829,-0.47925 -0.70478,-0.47925 -0.47925,0 -0.67659,0.36649 -0.76116,0.81755 -0.0282,0.22553 -0.0564,0.47925 -0.0564,0.73297 0,0.25372 0,0.50744 0,0.73297 l -2.84731,0 0,-0.6484 c 0,-1.12764 0.42287,-2.14253 1.09946,-2.90369 0.67659,-0.76116 1.63509,-1.21222 2.73455,-1.21222 0.93031,0 1.77604,0.36648 2.42444,0.98669 0.6484,0.62021 1.04308,1.49414 1.04308,2.50902 l 0,9.47224 c 0,1.38137 0.0846,2.00158 0.19733,2.67817 l -2.79093,0 c -0.25372,-0.3101 -0.25372,-1.04308 -0.25372,-1.24041 l -0.19733,0 c -0.14096,0.25372 -0.39468,0.6202 -0.78936,0.93031 -0.39468,0.3101 -0.93031,0.53563 -1.49413,0.53563 -0.36649,0 -0.9585,-0.14096 -1.40956,-0.70478 -0.47925,-0.53563 -0.87393,-1.49414 -0.87393,-3.10103 0,-1.71967 0.50744,-2.96008 1.18403,-3.80582 0.67659,-0.84573 1.52233,-1.38137 2.22711,-1.74785 0.70478,-0.36649 1.24041,-0.62021 1.35317,-0.93031 l 0,-1.69148 m 0,4.31326 c -1.38136,0.59201 -1.97338,1.97339 -1.97338,3.43933 0,0.19734 0.0282,0.53563 0.14095,0.84573 0.11277,0.3383 0.31011,0.59202 0.6484,0.59202 0.6484,0 1.18403,-0.39468 1.18403,-0.93031 l 0,-3.94677"
                 style="font-family:League Gothic;-inkscape-font-specification:League Gothic"
                 id="path3344"
                 inkscape:connector-curvature="0" />
              <path
                 d="m 569.18535,765.23716 0,-20.72054 2.84731,0 0,20.72054 -2.84731,0"
                 style="font-family:League Gothic;-inkscape-font-specification:League Gothic"
                 id="path3346"
                 inkscape:connector-curvature="0" />
              <path
                 d="m 577.63522,746.01075 0,3.80582 1.94519,0 0,2.5654 -1.94519,0 0,7.66801 c 0,0.47925 0,1.09945 0.11277,1.6069 0.11276,0.50744 0.33829,0.93031 0.78935,0.93031 0.22553,0 0.50744,-0.0282 0.70478,-0.0564 0.11277,-0.0282 0.22553,-0.0282 0.33829,-0.0564 l 0,2.79093 c -0.14095,0.0282 -0.28191,0.0846 -0.42286,0.11277 -0.28192,0.0564 -0.6484,0.0846 -1.09946,0.0846 -1.66328,0 -2.45264,-0.84574 -2.84731,-1.917 -0.39468,-1.07127 -0.42287,-2.36807 -0.42287,-3.27018 l 0,-7.89354 -1.43775,0 0,-2.5654 1.43775,0 0,-3.80582 2.84731,0"
                 style="font-family:League Gothic;-inkscape-font-specification:League Gothic"
                 id="path3348"
                 inkscape:connector-curvature="0" />
              <path
                 d="m 585.33671,753.48142 c 0,-0.25372 0,-0.64839 -0.0846,-0.93031 -0.11277,-0.28191 -0.3383,-0.47925 -0.70478,-0.47925 -0.47925,0 -0.67659,0.36649 -0.76117,0.81755 -0.0282,0.22553 -0.0564,0.47925 -0.0564,0.73297 0,0.25372 0,0.50744 0,0.73297 l -2.84731,0 0,-0.6484 c 0,-1.12764 0.42287,-2.14253 1.09946,-2.90369 0.67658,-0.76116 1.63509,-1.21222 2.73454,-1.21222 0.93031,0 1.77605,0.36648 2.42445,0.98669 0.64839,0.62021 1.04307,1.49414 1.04307,2.50902 l 0,9.47224 c 0,1.38137 0.0846,2.00158 0.19734,2.67817 l -2.79093,0 c -0.25372,-0.3101 -0.25372,-1.04308 -0.25372,-1.24041 l -0.19734,0 c -0.14096,0.25372 -0.39468,0.6202 -0.78935,0.93031 -0.39468,0.3101 -0.93031,0.53563 -1.49414,0.53563 -0.36648,0 -0.9585,-0.14096 -1.40956,-0.70478 -0.47925,-0.53563 -0.87393,-1.49414 -0.87393,-3.10103 0,-1.71967 0.50745,-2.96008 1.18404,-3.80582 0.67658,-0.84573 1.52232,-1.38137 2.2271,-1.74785 0.70478,-0.36649 1.24041,-0.62021 1.35318,-0.93031 l 0,-1.69148 m 0,4.31326 c -1.38137,0.59201 -1.97339,1.97339 -1.97339,3.43933 0,0.19734 0.0282,0.53563 0.14096,0.84573 0.11277,0.3383 0.3101,0.59202 0.6484,0.59202 0.6484,0 1.18403,-0.39468 1.18403,-0.93031 l 0,-3.94677"
                 style="font-family:League Gothic;-inkscape-font-specification:League Gothic"
                 id="path3350"
                 inkscape:connector-curvature="0" />
              <path
                 d="m 601.64708,765.23716 -2.84731,0 0,-1.01488 c -0.47925,0.45106 -0.90212,0.78935 -1.43775,1.04307 -0.28192,0.14096 -0.56383,0.19734 -0.81755,0.19734 -0.78935,0 -1.32499,-0.45106 -1.66328,-1.04308 -0.36649,-0.56382 -0.53563,-1.32498 -0.53563,-1.97338 l 0,-9.83873 c 0,-0.6484 0.16914,-1.40956 0.53563,-2.00158 0.33829,-0.56382 0.87393,-1.01488 1.66328,-1.01488 0.53563,0 1.09946,0.3101 1.52233,0.6202 0.25372,0.19734 0.47925,0.39468 0.73297,0.62021 l 0,-6.31483 2.84731,0 0,20.72054 m -2.84731,-12.03765 c 0,-0.45106 -0.42287,-0.93031 -0.84574,-0.93031 -0.42287,0 -0.76116,0.39468 -0.76116,0.93031 l 0,8.6547 c 0,0.53564 0.33829,0.93031 0.76116,0.93031 0.42287,0 0.84574,-0.39467 0.84574,-0.93031 l 0,-8.6547"
                 style="font-family:League Gothic;-inkscape-font-specification:League Gothic"
                 id="path3352"
                 inkscape:connector-curvature="0" />
              <path
                 d="m 611.06119,759.71168 0,1.77605 c -0.0846,1.49413 -0.53564,2.53721 -1.55052,3.35475 -0.50744,0.42287 -1.21222,0.62021 -2.14253,0.62021 -1.83243,0 -2.76274,-1.01488 -3.2138,-2.02977 -0.25372,-0.59201 -0.42287,-1.2686 -0.45106,-2.02976 l 0,-7.75259 c 0.0846,-1.49413 0.56383,-2.59359 1.57871,-3.43933 0.47925,-0.42286 1.18403,-0.6202 2.11434,-0.6202 1.83243,0 2.76274,1.01488 3.2138,2.00157 0.25372,0.59202 0.42287,1.24042 0.45106,1.97339 l 0,4.4824 -4.70793,0 0,3.35476 c 0.0282,0.59201 0.19733,1.01488 0.45105,1.32498 0.14096,0.14096 0.3383,0.22553 0.59202,0.22553 0.53563,0 0.78935,-0.33829 0.90212,-0.76116 0.0846,-0.22553 0.11276,-0.47925 0.11276,-0.78935 l 0,-1.69148 2.64998,0 m -4.70793,-3.89038 2.05795,0 0,-2.17073 c 0,-0.59201 -0.11276,-1.01488 -0.39467,-1.35318 -0.14096,-0.14095 -0.36649,-0.22553 -0.62021,-0.22553 -0.53563,0 -0.76116,0.36649 -0.90212,0.78936 -0.0846,0.22553 -0.11276,0.47925 -0.14095,0.78935 l 0,2.17073"
                 style="font-family:League Gothic;-inkscape-font-specification:League Gothic"
                 id="path3354"
                 inkscape:connector-curvature="0" />
              <path
                 d="m 624.49606,759.71168 0,1.77605 c -0.0846,1.49413 -0.53563,2.53721 -1.55051,3.35475 -0.50744,0.42287 -1.21223,0.62021 -2.14254,0.62021 -1.83242,0 -2.76273,-1.01488 -3.21379,-2.02977 -0.25372,-0.59201 -0.42287,-1.2686 -0.45106,-2.02976 l 0,-7.75259 c 0.0846,-1.49413 0.56382,-2.59359 1.5787,-3.43933 0.47925,-0.42286 1.18404,-0.6202 2.11435,-0.6202 1.83242,0 2.76273,1.01488 3.21379,2.00157 0.25372,0.59202 0.42287,1.24042 0.45106,1.97339 l 0,4.4824 -4.70793,0 0,3.35476 c 0.0282,0.59201 0.19734,1.01488 0.45106,1.32498 0.14096,0.14096 0.3383,0.22553 0.59202,0.22553 0.53563,0 0.78935,-0.33829 0.90211,-0.76116 0.0846,-0.22553 0.11277,-0.47925 0.11277,-0.78935 l 0,-1.69148 2.64997,0 m -4.70793,-3.89038 2.05796,0 0,-2.17073 c 0,-0.59201 -0.11277,-1.01488 -0.39468,-1.35318 -0.14095,-0.14095 -0.36648,-0.22553 -0.6202,-0.22553 -0.53564,0 -0.76117,0.36649 -0.90212,0.78936 -0.0846,0.22553 -0.11277,0.47925 -0.14096,0.78935 l 0,2.17073"
                 style="font-family:League Gothic;-inkscape-font-specification:League Gothic"
                 id="path3356"
                 inkscape:connector-curvature="0" />
              <path
                 d="m 630.65187,753.76334 c 0,-0.36649 0,-0.81755 -0.11276,-1.18403 -0.14096,-0.3383 -0.36649,-0.62021 -0.81755,-0.62021 -0.36648,0 -0.59201,0.28191 -0.70478,0.62021 -0.14095,0.33829 -0.16915,0.81754 -0.16915,1.18403 0,0.47925 0.25373,0.98669 0.62021,1.43775 0.3383,0.45106 0.78936,0.90212 1.24041,1.32499 0.59202,0.59201 1.2968,1.2686 1.77605,2.02976 0.47925,0.78936 0.84574,1.66329 0.84574,2.67817 0,0.98669 -0.22553,2.02977 -0.78936,2.81912 -0.59201,0.81754 -1.49413,1.40956 -2.84731,1.40956 -1.71966,0 -2.73455,-0.78936 -3.29837,-1.74786 -0.56382,-0.9585 -0.67659,-2.14253 -0.67659,-2.96007 l 2.64997,0 c 0,0.42287 0.0282,1.01488 0.22553,1.46594 0.19734,0.47925 0.50745,0.87393 1.09946,0.87393 0.81754,0 0.98669,-0.9585 0.98669,-1.86062 0,-0.93031 -0.90212,-1.86062 -1.77604,-2.73455 -0.67659,-0.6484 -1.32499,-1.24041 -1.83243,-2.00158 -0.50744,-0.76116 -0.87393,-1.6069 -0.87393,-2.73454 0,-0.90212 0.16915,-1.9452 0.70478,-2.76274 0.53563,-0.78936 1.40956,-1.38137 2.76274,-1.40956 1.66328,-0.0282 2.59359,0.59201 3.07284,1.40956 0.47925,0.81754 0.56383,1.88881 0.56383,2.76274 l -2.64998,0"
                 style="font-family:League Gothic;-inkscape-font-specification:League Gothic"
                 id="path3358"
                 inkscape:connector-curvature="0" />
              <path
                 d="m 638.20228,746.01075 0,3.80582 1.94519,0 0,2.5654 -1.94519,0 0,7.66801 c 0,0.47925 0,1.09945 0.11276,1.6069 0.11277,0.50744 0.3383,0.93031 0.78935,0.93031 0.22553,0 0.50745,-0.0282 0.70479,-0.0564 0.11276,-0.0282 0.22552,-0.0282 0.33829,-0.0564 l 0,2.79093 c -0.14096,0.0282 -0.28191,0.0846 -0.42287,0.11277 -0.28191,0.0564 -0.6484,0.0846 -1.09946,0.0846 -1.66328,0 -2.45263,-0.84574 -2.84731,-1.917 -0.39467,-1.07127 -0.42287,-2.36807 -0.42287,-3.27018 l 0,-7.89354 -1.43775,0 0,-2.5654 1.43775,0 0,-3.80582 2.84732,0"
                 style="font-family:League Gothic;-inkscape-font-specification:League Gothic"
                 id="path3360"
                 inkscape:connector-curvature="0" />
              <path
                 d="m 647.34019,752.74845 c -0.25372,-0.0846 -0.53564,-0.11276 -0.78936,-0.11276 -0.45106,0 -0.98669,0.0564 -1.43775,0.47925 -0.53563,0.45106 -0.62021,0.93031 -0.62021,1.40956 l 0,10.71266 -2.84731,0 0,-15.42059 2.84731,0 0,1.71966 c 0.0282,-0.19734 0.22553,-0.67659 0.67659,-1.12765 0.45106,-0.42287 1.12765,-0.81754 2.17073,-0.81754 l 0,3.15741"
                 style="font-family:League Gothic;-inkscape-font-specification:League Gothic"
                 id="path3362"
                 inkscape:connector-curvature="0" />
              <path
                 d="m 652.98107,749.81657 2.84732,0 0,15.42059 -2.84732,0 0,-1.2968 c -0.0564,0.0282 -0.16914,0.14096 -0.3101,0.28192 -0.33829,0.33829 -0.73297,0.73297 -1.24041,1.01488 -0.25372,0.14096 -0.50744,0.22553 -0.76116,0.22553 -0.76117,0 -1.2968,-0.45106 -1.6351,-1.04308 -0.33829,-0.56382 -0.50744,-1.32498 -0.50744,-1.97338 l 0,-12.62966 2.84732,0 0,12.20679 c 0,0.59202 0.33829,0.67659 0.67658,0.67659 0.31011,0 0.47926,-0.16915 0.67659,-0.36648 0.0846,-0.0846 0.16915,-0.22553 0.25372,-0.36649 l 0,-12.15041"
                 style="font-family:League Gothic;-inkscape-font-specification:League Gothic"
                 id="path3364"
                 inkscape:connector-curvature="0" />
              <path
                 d="m 660.62045,761.68507 c 0,0.56382 0.0282,1.24041 0.78935,1.24041 0.6484,0 0.81755,-0.3101 0.81755,-1.24041 l 0,-2.14253 2.84731,0 0,1.49413 c 0,1.71966 -0.3101,2.81912 -0.93031,3.49571 -0.62021,0.67659 -1.52233,0.93031 -2.73455,0.93031 -1.01488,0 -1.94519,-0.28191 -2.59359,-0.98669 -0.6484,-0.70478 -1.04307,-1.86062 -1.04307,-3.58029 l 0,-6.7377 c 0,-1.71966 0.39467,-2.8755 1.04307,-3.58028 0.6484,-0.70478 1.57871,-0.98669 2.59359,-0.98669 1.21222,0 2.11434,0.25372 2.73455,0.93031 0.62021,0.67659 0.93031,1.77605 0.93031,3.49571 l 0,1.21222 -2.84731,0 0,-1.86062 c 0,-0.93031 -0.16915,-1.24041 -0.81755,-1.24041 -0.76116,0 -0.78935,0.67659 -0.78935,1.24041 l 0,8.31641"
                 style="font-family:League Gothic;-inkscape-font-specification:League Gothic"
                 id="path3366"
                 inkscape:connector-curvature="0" />
              <path
                 d="m 670.13762,746.01075 0,3.80582 1.9452,0 0,2.5654 -1.9452,0 0,7.66801 c 0,0.47925 0,1.09945 0.11277,1.6069 0.11276,0.50744 0.33829,0.93031 0.78935,0.93031 0.22553,0 0.50745,-0.0282 0.70478,-0.0564 0.11277,-0.0282 0.22553,-0.0282 0.3383,-0.0564 l 0,2.79093 c -0.14096,0.0282 -0.28191,0.0846 -0.42287,0.11277 -0.28191,0.0564 -0.6484,0.0846 -1.09946,0.0846 -1.66328,0 -2.45263,-0.84574 -2.84731,-1.917 -0.39468,-1.07127 -0.42287,-2.36807 -0.42287,-3.27018 l 0,-7.89354 -1.43775,0 0,-2.5654 1.43775,0 0,-3.80582 2.84731,0"
                 style="font-family:League Gothic;-inkscape-font-specification:League Gothic"
                 id="path3368"
                 inkscape:connector-curvature="0" />
              <path
                 d="m 677.97876,749.81657 2.84731,0 0,15.42059 -2.84731,0 0,-1.2968 c -0.0564,0.0282 -0.16915,0.14096 -0.31011,0.28192 -0.33829,0.33829 -0.73297,0.73297 -1.24041,1.01488 -0.25372,0.14096 -0.50744,0.22553 -0.76116,0.22553 -0.76117,0 -1.2968,-0.45106 -1.63509,-1.04308 -0.3383,-0.56382 -0.50745,-1.32498 -0.50745,-1.97338 l 0,-12.62966 2.84732,0 0,12.20679 c 0,0.59202 0.33829,0.67659 0.67659,0.67659 0.3101,0 0.47925,-0.16915 0.67658,-0.36648 0.0846,-0.0846 0.16915,-0.22553 0.25373,-0.36649 l 0,-12.15041"
                 style="font-family:League Gothic;-inkscape-font-specification:League Gothic"
                 id="path3370"
                 inkscape:connector-curvature="0" />
              <path
                 d="m 688.80109,752.74845 c -0.25372,-0.0846 -0.53563,-0.11276 -0.78935,-0.11276 -0.45106,0 -0.98669,0.0564 -1.43775,0.47925 -0.53563,0.45106 -0.62021,0.93031 -0.62021,1.40956 l 0,10.71266 -2.84731,0 0,-15.42059 2.84731,0 0,1.71966 c 0.0282,-0.19734 0.22553,-0.67659 0.67659,-1.12765 0.45106,-0.42287 1.12765,-0.81754 2.17072,-0.81754 l 0,3.15741"
                 style="font-family:League Gothic;-inkscape-font-specification:League Gothic"
                 id="path3372"
                 inkscape:connector-curvature="0" />
              <path
                 d="m 694.13716,753.48142 c 0,-0.25372 0,-0.64839 -0.0846,-0.93031 -0.11277,-0.28191 -0.3383,-0.47925 -0.70478,-0.47925 -0.47925,0 -0.67659,0.36649 -0.76116,0.81755 -0.0282,0.22553 -0.0564,0.47925 -0.0564,0.73297 0,0.25372 0,0.50744 0,0.73297 l -2.84731,0 0,-0.6484 c 0,-1.12764 0.42287,-2.14253 1.09946,-2.90369 0.67659,-0.76116 1.63509,-1.21222 2.73455,-1.21222 0.9303,0 1.77604,0.36648 2.42444,0.98669 0.6484,0.62021 1.04307,1.49414 1.04307,2.50902 l 0,9.47224 c 0,1.38137 0.0846,2.00158 0.19734,2.67817 l -2.79093,0 c -0.25372,-0.3101 -0.25372,-1.04308 -0.25372,-1.24041 l -0.19734,0 c -0.14095,0.25372 -0.39467,0.6202 -0.78935,0.93031 -0.39468,0.3101 -0.93031,0.53563 -1.49413,0.53563 -0.36649,0 -0.95851,-0.14096 -1.40956,-0.70478 -0.47925,-0.53563 -0.87393,-1.49414 -0.87393,-3.10103 0,-1.71967 0.50744,-2.96008 1.18403,-3.80582 0.67659,-0.84573 1.52232,-1.38137 2.2271,-1.74785 0.70478,-0.36649 1.24042,-0.62021 1.35318,-0.93031 l 0,-1.69148 m 0,4.31326 c -1.38137,0.59201 -1.97338,1.97339 -1.97338,3.43933 0,0.19734 0.0282,0.53563 0.14095,0.84573 0.11277,0.3383 0.31011,0.59202 0.6484,0.59202 0.6484,0 1.18403,-0.39468 1.18403,-0.93031 l 0,-3.94677"
                 style="font-family:League Gothic;-inkscape-font-specification:League Gothic"
                 id="path3374"
                 inkscape:connector-curvature="0" />
              <path
                 d="m 703.11209,753.76334 c 0,-0.36649 0,-0.81755 -0.11276,-1.18403 -0.14096,-0.3383 -0.36649,-0.62021 -0.81755,-0.62021 -0.36648,0 -0.59201,0.28191 -0.70478,0.62021 -0.14095,0.33829 -0.16915,0.81754 -0.16915,1.18403 0,0.47925 0.25373,0.98669 0.62021,1.43775 0.3383,0.45106 0.78936,0.90212 1.24041,1.32499 0.59202,0.59201 1.2968,1.2686 1.77605,2.02976 0.47925,0.78936 0.84574,1.66329 0.84574,2.67817 0,0.98669 -0.22553,2.02977 -0.78936,2.81912 -0.59201,0.81754 -1.49413,1.40956 -2.84731,1.40956 -1.71966,0 -2.73455,-0.78936 -3.29837,-1.74786 -0.56382,-0.9585 -0.67659,-2.14253 -0.67659,-2.96007 l 2.64997,0 c 0,0.42287 0.0282,1.01488 0.22553,1.46594 0.19734,0.47925 0.50745,0.87393 1.09946,0.87393 0.81755,0 0.98669,-0.9585 0.98669,-1.86062 0,-0.93031 -0.90212,-1.86062 -1.77604,-2.73455 -0.67659,-0.6484 -1.32499,-1.24041 -1.83243,-2.00158 -0.50744,-0.76116 -0.87393,-1.6069 -0.87393,-2.73454 0,-0.90212 0.16915,-1.9452 0.70478,-2.76274 0.53563,-0.78936 1.40956,-1.38137 2.76274,-1.40956 1.66328,-0.0282 2.59359,0.59201 3.07284,1.40956 0.47925,0.81754 0.56383,1.88881 0.56383,2.76274 l -2.64998,0"
                 style="font-family:League Gothic;-inkscape-font-specification:League Gothic"
                 id="path3376"
                 inkscape:connector-curvature="0" />
            </g>
          </g>
          <g
             transform="translate(0,7.047803)"
             id="g3426">
            <g
               style="font-size:28.1912117px;line-height:125%;fill:#000000;font-family:FontAwesome;-inkscape-font-specification:FontAwesome"
               id="text3309">
              <path
                 inkscape:connector-curvature="0"
                 d="m 525.38936,691.3641 c 0.59202,0.0846 1.04308,-0.0564 1.38137,-0.50744 0.16915,-0.19734 0.25372,-0.53564 0.25372,-1.01489 l 0,-16.40728 3.04465,0 0,16.88653 c 0,1.12765 -0.28191,2.17073 -0.98669,2.93189 -0.70478,0.76116 -1.88881,1.21222 -3.69305,1.09946 l 0,-2.98827"
                 style="font-family:League Gothic;-inkscape-font-specification:League Gothic"
                 id="path3414" />
              <path
                 inkscape:connector-curvature="0"
                 d="m 539.23213,690.4056 c -0.0846,1.49413 -0.53564,2.53721 -1.52233,3.35475 -0.50744,0.42287 -1.21222,0.62021 -2.14253,0.62021 -1.83243,0 -2.73455,-1.01489 -3.18561,-2.02977 -0.25372,-0.59201 -0.42286,-1.2686 -0.45106,-2.02977 l 0,-7.75258 c 0.0846,-1.49413 0.53564,-2.59359 1.52233,-3.43933 0.47925,-0.42286 1.18403,-0.6202 2.11434,-0.6202 1.83243,0 2.76274,1.01488 3.2138,2.00157 0.25372,0.59202 0.42287,1.24042 0.45106,1.97339 l 0,7.92173 m -2.67817,-7.83716 c 0.0282,-0.59201 -0.0846,-1.01488 -0.36648,-1.35318 -0.14096,-0.14095 -0.36649,-0.22553 -0.62021,-0.22553 -0.53563,0 -0.76116,0.36649 -0.87393,0.78936 -0.0846,0.22553 -0.11276,0.47925 -0.0846,0.78935 l 0,7.75258 c -0.0282,0.59202 0.11276,1.01489 0.36649,1.32499 0.14095,0.14096 0.33829,0.22553 0.59201,0.22553 0.53563,0 0.78935,-0.33829 0.90212,-0.76116 0.0846,-0.22553 0.11276,-0.47925 0.0846,-0.78936 l 0,-7.75258"
                 style="font-family:League Gothic;-inkscape-font-specification:League Gothic"
                 id="path3416" />
              <path
                 inkscape:connector-curvature="0"
                 d="m 546.85389,681.66632 c -0.25372,-0.0846 -0.53564,-0.11276 -0.78936,-0.11276 -0.45106,0 -0.98669,0.0564 -1.43775,0.47925 -0.53563,0.45106 -0.62021,0.93031 -0.62021,1.40956 l 0,10.71266 -2.84731,0 0,-15.42059 2.84731,0 0,1.71966 c 0.0282,-0.19734 0.22553,-0.67659 0.67659,-1.12765 0.45106,-0.42287 1.12765,-0.81754 2.17073,-0.81754 l 0,3.15741"
                 style="font-family:League Gothic;-inkscape-font-specification:League Gothic"
                 id="path3418" />
              <path
                 inkscape:connector-curvature="0"
                 d="m 555.1192,688.62955 0,1.77605 c -0.0846,1.49413 -0.53564,2.53721 -1.55052,3.35475 -0.50744,0.42287 -1.21222,0.62021 -2.14253,0.62021 -1.83243,0 -2.76274,-1.01489 -3.2138,-2.02977 -0.25372,-0.59201 -0.42287,-1.2686 -0.45106,-2.02977 l 0,-7.75258 c 0.0846,-1.49413 0.56383,-2.59359 1.57871,-3.43933 0.47925,-0.42286 1.18403,-0.6202 2.11434,-0.6202 1.83243,0 2.76274,1.01488 3.2138,2.00157 0.25372,0.59202 0.42287,1.24042 0.45106,1.97339 l 0,4.4824 -4.70793,0 0,3.35475 c 0.0282,0.59202 0.19733,1.01489 0.45105,1.32499 0.14096,0.14096 0.3383,0.22553 0.59202,0.22553 0.53563,0 0.78935,-0.33829 0.90212,-0.76116 0.0846,-0.22553 0.11276,-0.47925 0.11276,-0.78936 l 0,-1.69147 2.64998,0 m -4.70793,-3.89039 2.05795,0 0,-2.17072 c 0,-0.59201 -0.11276,-1.01488 -0.39467,-1.35318 -0.14096,-0.14095 -0.36649,-0.22553 -0.62021,-0.22553 -0.53563,0 -0.76116,0.36649 -0.90212,0.78936 -0.0846,0.22553 -0.11276,0.47925 -0.14095,0.78935 l 0,2.17072"
                 style="font-family:League Gothic;-inkscape-font-specification:League Gothic"
                 id="path3420" />
              <path
                 inkscape:connector-curvature="0"
                 d="m 564.20426,688.62955 0,1.77605 c -0.0846,1.49413 -0.53564,2.53721 -1.55052,3.35475 -0.50744,0.42287 -1.21222,0.62021 -2.14253,0.62021 -1.83243,0 -2.76274,-1.01489 -3.2138,-2.02977 -0.25372,-0.59201 -0.42287,-1.2686 -0.45106,-2.02977 l 0,-7.75258 c 0.0846,-1.49413 0.56383,-2.59359 1.57871,-3.43933 0.47925,-0.42286 1.18403,-0.6202 2.11434,-0.6202 1.83243,0 2.76274,1.01488 3.2138,2.00157 0.25372,0.59202 0.42286,1.24042 0.45106,1.97339 l 0,4.4824 -4.70794,0 0,3.35475 c 0.0282,0.59202 0.19734,1.01489 0.45106,1.32499 0.14096,0.14096 0.3383,0.22553 0.59202,0.22553 0.53563,0 0.78935,-0.33829 0.90212,-0.76116 0.0846,-0.22553 0.11276,-0.47925 0.11276,-0.78936 l 0,-1.69147 2.64998,0 m -4.70794,-3.89039 2.05796,0 0,-2.17072 c 0,-0.59201 -0.11276,-1.01488 -0.39467,-1.35318 -0.14096,-0.14095 -0.36649,-0.22553 -0.62021,-0.22553 -0.53563,0 -0.76116,0.36649 -0.90212,0.78936 -0.0846,0.22553 -0.11277,0.47925 -0.14096,0.78935 l 0,2.17072"
                 style="font-family:League Gothic;-inkscape-font-specification:League Gothic"
                 id="path3422" />
              <path
                 inkscape:connector-curvature="0"
                 d="m 568.94919,694.15503 -2.84731,0 0,-15.42059 2.84731,0 0,1.29679 c 0.0564,-0.0282 0.16915,-0.14095 0.33829,-0.3101 0.31011,-0.3101 0.73298,-0.73297 1.24042,-1.01488 0.25372,-0.14096 0.47925,-0.19734 0.73297,-0.19734 0.76116,0 1.29679,0.45106 1.63509,1.01488 0.33829,0.59202 0.50744,1.35318 0.50744,2.00158 l 0,12.62966 -2.84731,0 0,-12.2068 c 0,-0.59201 -0.3383,-0.67658 -0.67659,-0.67658 -0.3101,0 -0.47925,0.16914 -0.67659,0.36648 -0.0846,0.11277 -0.16915,0.22553 -0.25372,0.36649 l 0,12.15041"
                 style="font-family:League Gothic;-inkscape-font-specification:League Gothic"
                 id="path3424" />
            </g>
          </g>
        </g>
      </g>
    </g>
  </g>
</svg>
