<?xml version="1.0" encoding="UTF-8" standalone="no"?>
<!-- Created with Inkscape (http://www.inkscape.org/) -->

<svg
   xmlns:dc="http://purl.org/dc/elements/1.1/"
   xmlns:cc="http://creativecommons.org/ns#"
   xmlns:rdf="http://www.w3.org/1999/02/22-rdf-syntax-ns#"
   xmlns:svg="http://www.w3.org/2000/svg"
   xmlns="http://www.w3.org/2000/svg"
   xmlns:sodipodi="http://sodipodi.sourceforge.net/DTD/sodipodi-0.dtd"
   xmlns:inkscape="http://www.inkscape.org/namespaces/inkscape"
   width="105mm"
   height="148mm"
   viewBox="0 0 372.04724 524.40944"
   id="svg7089"
   version="1.1"
   inkscape:version="0.91 r13725"
   sodipodi:docname="single_seis_tesis_sobre_municipalismo_libertario.svg">
  <defs
     id="defs7091" />
  <sodipodi:namedview
     id="base"
     pagecolor="#ffffff"
     bordercolor="#666666"
     borderopacity="1.0"
     inkscape:pageopacity="0.0"
     inkscape:pageshadow="2"
     inkscape:zoom="0.72324219"
     inkscape:cx="193.87119"
     inkscape:cy="243.46746"
     inkscape:document-units="mm"
     inkscape:current-layer="g7281"
     showgrid="false"
     inkscape:snap-bbox="true"
     inkscape:bbox-paths="true"
     inkscape:bbox-nodes="true"
     inkscape:snap-bbox-edge-midpoints="true"
     inkscape:snap-bbox-midpoints="true"
     inkscape:window-width="1366"
     inkscape:window-height="726"
     inkscape:window-x="0"
     inkscape:window-y="42"
     inkscape:window-maximized="0" />
  <metadata
     id="metadata7094">
    <rdf:RDF>
      <cc:Work
         rdf:about="">
        <dc:format>image/svg+xml</dc:format>
        <dc:type
           rdf:resource="http://purl.org/dc/dcmitype/StillImage" />
        <dc:title></dc:title>
      </cc:Work>
    </rdf:RDF>
  </metadata>
  <g
     inkscape:label="Capa 1"
     inkscape:groupmode="layer"
     id="layer1"
     transform="translate(0,-527.95276)">
    <g
       id="g7281"
       transform="translate(-60.837155,428.76157)">
      <rect
         style="fill:#37c837;fill-opacity:1"
         id="rect3033"
         width="372.04724"
         height="527.90491"
         x="60.837154"
         y="95.695732" />
      <path
         style="fill:#ffffff;stroke:none;stroke-width:0.70476186"
         inkscape:connector-curvature="0"
         id="path719"
         d="m 391.78975,543.7189 c -2.32629,3.27084 -4.84892,6.04234 -7.59922,9.34527 l -3.72206,4.20537 c -3.10172,2.95933 -10.85603,8.72225 -14.42301,11.05855 -2.01612,1.4018 -4.18732,2.4921 -6.35852,3.4266 l -2.83188,1.3769 c 0.46526,0.4672 1.33064,0.7228 2.11367,1.0903 0.46526,0 2.11398,-0.9096 2.57924,-1.2211 l 4.96275,-2.8036 c 0.93052,-0.623 1.86103,-1.4018 2.94664,-1.5576 -0.46526,1.0903 -1.55086,1.7133 -2.63647,2.3363 l -2.94663,1.7133 c 0,0 -3.09412,1.771 -3.51735,2.0653 0.84816,0.3365 2.12157,0.7229 2.92942,1.0498 0.77543,0 1.82862,-0.7787 2.44896,-1.0903 1.70595,-0.9345 3.87715,-2.3363 5.5831,-3.5823 l 2.79155,-1.8691 c 2.1712,-1.71326 4.34241,-3.58231 6.35853,-5.60712 1.55086,-1.40179 3.10172,-2.80358 4.34241,-4.51688 1.70594,-2.02481 2.79154,-4.36112 4.03223,-6.69744 1.39578,-2.18056 1.86104,-3.58235 2.63647,-5.91867 0.15508,-0.77877 0.62034,-2.02481 0.31017,-2.80358 z" />
      <path
         style="fill:#ffffff;stroke:none;stroke-width:0.70476186"
         inkscape:connector-curvature="0"
         id="path725"
         d="m 320.60525,542.94013 c -0.46526,1.7133 0.15509,3.7381 0.77543,5.29565 1.39578,3.73811 3.72207,7.00895 6.04836,10.12404 1.39577,2.02481 3.72206,4.51688 5.42801,6.23018 l 1.86103,1.55754 4.03224,3.58235 c 3.25681,2.4921 9.30516,6.2302 13.02723,7.9435 l 4.96275,2.1805 2.01612,0.7788 c 2.32629,0.9345 4.65258,1.5576 7.13396,2.0248 1.39577,0.3115 2.94663,0.7788 4.34241,0.7788 -0.46526,-1.7133 -1.39578,-1.5575 -2.79155,-2.0248 l -5.11784,-2.0248 c -7.13396,-2.9594 -15.04335,-5.9187 -20.62645,-11.5258 1.08561,0 1.86104,0.9345 2.63647,1.5575 1.0856,0.7788 2.48137,1.7133 3.72206,2.4921 3.41189,2.0248 11.1662,5.6071 15.04335,7.0089 1.55086,0.623 4.18732,1.7133 5.73818,1.7133 1.24069,0.1558 2.94664,-0.623 3.87715,-1.246 -0.62034,-0.623 -1.24068,-0.4673 -2.1712,-0.623 l -4.80767,-1.4018 c -4.18732,-1.0903 -8.21956,-2.6479 -12.09671,-4.6727 l -2.17121,-0.9345 -2.94663,-1.869 -3.56698,-2.33636 -3.72206,-2.95933 -6.35853,-4.98415 -5.89327,-6.07442 -2.94664,-3.4266 -3.10172,-3.4266 -2.32629,-3.7381 z" />
      <path
         style="fill:#ffffff;stroke:none;stroke-width:0.70476186"
         inkscape:connector-curvature="0"
         id="path731"
         d="m 370.38787,581.41149 c 0.31017,0.623 0.93052,1.5575 0.93052,2.3363 0,1.7133 -2.01612,3.2708 -3.56698,3.1151 -0.62034,-0.1558 -2.01612,-0.9345 -2.48138,0 -0.15508,0.3115 -0.15508,0.623 0,0.7788 0,0.623 0.77543,0.9345 1.39578,1.246 1.70594,0.4673 3.56698,-0.1558 4.96275,-1.0903 1.0856,-0.623 1.86103,-1.7133 2.17121,-2.9593 l 0.31017,-2.0248 c 0.15508,-0.623 0.77543,-0.7788 1.55086,-1.8691 0.93051,-1.246 1.86103,-3.4266 3.10172,-4.3611 0.46526,-0.3115 0.93052,-0.4673 1.55086,-0.623 -0.31017,-0.4673 -0.62034,-0.7788 -0.93052,-1.2461 -0.31017,-0.1557 -0.62034,-0.4672 -0.93051,-0.4672 -0.46526,-0.1558 -1.0856,-0.1558 -1.55086,0.1557 -2.17121,1.0903 -1.70595,3.1151 -2.94664,4.6727 -0.93051,1.246 -2.01612,1.869 -3.56698,2.3363 z" />
      <path
         style="fill:#ffffff;stroke:none;stroke-width:0.70476186"
         inkscape:connector-curvature="0"
         id="path737"
         d="m 375.35063,583.43629 c 1.0856,0.4673 2.01612,0.3115 3.10172,0.3115 l 2.32629,0.1558 c 1.0856,0 1.39577,-0.6231 1.86103,-1.5576 0.15509,-0.3115 0.31017,-0.9345 0,-1.246 -0.31017,-0.3115 -0.93052,-0.3115 -1.39577,-0.3115 l -2.63647,0.1557 c -0.46525,0 -1.24068,0 -1.70594,0.1558 -0.77543,0.4672 -1.39578,1.5575 -1.55086,2.3363 z" />
      <path
         style="fill:#ffffff;stroke:none;stroke-width:0.70476186"
         inkscape:connector-curvature="0"
         id="path743"
         d="m 383.72527,585.61689 c -0.77543,-0.3115 -1.24069,-0.6231 -1.70594,-1.2461 -0.15509,0.1558 -0.31018,0.1558 -0.46526,0.3115 -0.15509,0.7788 1.86103,2.6479 2.1712,0.9346 z" />
      <path
         style="fill:#ffffff;stroke:none;stroke-width:0.70476186"
         inkscape:connector-curvature="0"
         id="path744"
         d="m 382.63967,580.32119 1.24069,0.7788 c -0.31017,0.623 -1.0856,1.869 -0.93052,2.6478 0.15509,1.5576 2.32629,1.5576 3.25681,0.623 1.0856,-1.246 1.0856,-3.1151 -0.46526,-4.0496 -0.93051,-0.4673 -2.01612,-0.3115 -3.10172,0 z" />
      <path
         style="fill:#ffffff;stroke:none;stroke-width:0.70476186"
         inkscape:connector-curvature="0"
         id="selection_x5F_to_x5F_path_x23_5"
         d="m 326.96378,584.68229 0.15508,0.1558 c 1.24069,-0.3115 2.01612,-0.7788 2.17121,-2.0248 -0.93052,0.1557 -1.86103,1.0903 -2.32629,1.869 z" />
      <path
         style="fill:#ffffff;stroke:none;stroke-width:0.70476186"
         inkscape:connector-curvature="0"
         id="selection_x5F_to_x5F_path_x23_4"
         d="m 328.04938,578.91939 c -0.46526,-0.3115 -0.93052,-0.4672 -1.55086,-0.4672 -0.46526,0 -0.93052,0 -1.39577,0.1557 -1.55086,0.623 -1.70595,3.1151 -0.46526,4.2054 0.62034,0.623 2.1712,0.9345 2.79155,0.1557 0.62034,-0.623 0.46526,-1.4018 0.15508,-2.1805 -0.15508,-0.4673 -0.46526,-1.0903 -0.15508,-1.4018 0.15508,-0.3115 0.46526,-0.3115 0.62034,-0.4673 z" />
      <path
         style="fill:#ffffff;stroke:none;stroke-width:0.70476186"
         inkscape:connector-curvature="0"
         id="selection_x5F_to_x5F_path_x23_3"
         d="m 327.8943,579.54239 c 0.15508,0.4673 0.93051,2.3364 1.24068,2.6479 0.46526,0.3115 0.93052,0.3115 1.39578,0.3115 l 2.79155,-0.1558 2.01612,0 c 0,-0.4672 0,-0.9345 -0.15509,-1.246 -0.46526,-1.2461 -2.17121,-1.8691 -3.41189,-1.8691 l -1.39578,0.1558 c -0.93051,0 -1.70594,-0.1558 -2.48137,0.1557 z" />
      <path
         style="fill:#ffffff;stroke:none;stroke-width:0.70476186"
         inkscape:connector-curvature="0"
         id="selection_x5F_to_x5F_path_x23_2"
         d="m 330.84093,574.55829 c 2.94663,0.7788 2.94663,3.2708 4.18732,4.9841 0.46526,0.6231 1.70595,1.5576 1.86104,2.1806 0.15508,0.4673 0,0.623 0.15508,1.7133 0.31017,1.4018 1.24069,2.8036 2.48138,3.5823 1.39577,0.9346 2.63646,1.5576 4.34241,1.0903 0.93051,-0.3115 1.86103,-0.9345 1.39577,-2.0248 -0.46526,-1.0903 -2.1712,0 -3.2568,-0.3115 -1.08561,-0.4672 -2.3263,-2.0248 -2.3263,-3.2708 l 0.62035,-2.1806 c -1.70595,-0.623 -3.72207,-2.0248 -4.4975,-3.7381 -0.46525,-1.0903 -0.46525,-2.6478 -1.24068,-3.4266 -1.39578,-1.0903 -3.25681,-0.1557 -3.72207,1.4018 z" />
      <path
         style="fill:#ffffff;stroke:none;stroke-width:0.70476186"
         inkscape:connector-curvature="0"
         id="path758"
         d="m 338.28506,578.14059 c 0.46526,0.6231 0.77543,0.7788 1.39577,1.0903 2.17121,1.2461 3.56698,0.3115 5.73819,-0.1557 l 4.49749,-1.4018 c -0.59553,-0.4019 -1.92616,-1.2383 -2.48137,-1.5576 l -2.94664,0.7788 -6.20344,1.246 z" />
      <path
         style="fill:#ffffff;stroke:none;stroke-width:0.70476186"
         inkscape:connector-curvature="0"
         id="path759"
         d="m 340.45627,582.65749 c 4.03223,0 7.7543,-1.246 11.63145,-2.1805 0,0 1.70595,-0.8109 2.27604,-0.8109 -0.53815,-0.3939 -2.73292,-1.1896 -3.07629,-1.5005 -0.46525,0.1386 -2.30147,0.7538 -2.92182,0.9096 l -3.87715,1.0903 -1.86103,0.4672 c -1.0856,0.4673 -1.86103,0.623 -2.1712,2.0248 z" />
      <ellipse
         ry="16.786434"
         rx="16.714401"
         id="circle3807"
         cy="531.6192"
         cx="356.16846"
         style="fill:none;stroke:#ffffff;stroke-width:2.19068027" />
      <path
         id="path3809"
         d="m 356.0319,521.12771 c -4.95019,0 -9.09781,3.46258 -10.17333,8.10702 l 4.99175,0 c 0.90074,-1.96998 2.88305,-3.33813 5.18158,-3.33813 3.14546,0 5.69817,2.56372 5.69817,5.72257 0,3.15886 -2.55271,5.72273 -5.69817,5.72273 -2.29853,0 -4.28099,-1.3683 -5.18158,-3.33828 l -4.99175,0 c 1.07552,4.64444 5.22314,8.10702 10.17333,8.10702 5.76657,0 10.44644,-4.70021 10.44644,-10.49147 0,-5.79126 -4.68003,-10.49146 -10.44644,-10.49146 z"
         inkscape:connector-curvature="0"
         style="fill:#ffffff" />
      <g
         transform="matrix(-0.16596478,0.04466179,-0.04447013,-0.16668006,118.92938,301.06888)"
         style="font-style:normal;font-weight:normal;font-size:121.8484726px;line-height:125%;font-family:'Bitstream Vera Sans';letter-spacing:0px;word-spacing:0px;fill:#ffffff;fill-opacity:1;stroke:none"
         id="text3059"
         inkscape:export-filename="/srv/http/kiwwwi.com.ar/pastes/utopia-pirata-2.png"
         inkscape:export-xdpi="149"
         inkscape:export-ydpi="149">
        <g
           id="g3922"
           transform="matrix(0.99707364,-0.07644708,0.07644708,0.99707364,125.06749,-81.555005)">
          <circle
             inkscape:export-ydpi="149"
             inkscape:export-xdpi="149"
             inkscape:export-filename="/srv/http/kiwwwi.com.ar/pastes/utopia-pirata-1.png"
             style="fill:none;stroke:none"
             id="path3865"
             transform="matrix(-0.8718552,-0.2336129,0.2336129,-0.8718552,-1786.4657,-3244.8873)"
             cx="-1311.178"
             cy="-1543.7299"
             r="127.27922" />
          <path
             inkscape:connector-curvature="0"
             id="path3897"
             style="font-style:normal;font-variant:normal;font-weight:normal;font-stretch:normal;font-family:'League Gothic';-inkscape-font-specification:'League Gothic';fill:#ffffff"
             d="m -778.04883,-1594.9487 -70.08465,-12.3215 c -3.57914,-0.7529 -6.69277,-2.0426 -9.22087,-3.848 -2.21027,-1.502 -4.19505,-3.583 -5.5732,-6.2996 -1.49816,-2.7377 -2.00858,-6.1679 -1.24904,-10.4881 0.75954,-4.3203 2.43037,-7.4907 4.77246,-9.5532 2.22209,-2.0837 4.77652,-3.243 7.36656,-3.9011 2.99226,-0.8348 6.35907,-0.9852 9.98041,-0.4723 l 70.08465,12.3215 -2.27862,12.9608 -70.08465,-12.3214 c -2.52017,-0.4431 -4.30577,-0.1384 -5.83684,0.8296 -0.70553,0.4946 -1.21325,1.2713 -1.40313,2.3514 -0.40087,2.2801 0.84934,3.6134 2.56507,4.4099 0.77676,0.5077 1.83573,0.8176 3.15582,1.0497 l 70.08465,12.3214 -2.27862,12.9609" />
          <path
             inkscape:connector-curvature="0"
             id="path3899"
             style="font-style:normal;font-variant:normal;font-weight:normal;font-stretch:normal;font-family:'League Gothic';-inkscape-font-specification:'League Gothic';fill:#ffffff"
             d="m -801.09593,-1568.8963 11.85811,6.5051 -18.28444,33.3309 -11.85812,-6.5051 5.97761,-10.8966 -66.66184,-36.5689 6.32923,-11.5376 66.66184,36.5689 5.97761,-10.8967" />
          <path
             inkscape:connector-curvature="0"
             id="path3901"
             style="font-style:normal;font-variant:normal;font-weight:normal;font-stretch:normal;font-family:'League Gothic';-inkscape-font-specification:'League Gothic';fill:#ffffff"
             d="m -902.22684,-1531.2768 c -2.40064,-2.7594 -4.10625,-5.6661 -5.0338,-8.6309 -0.857,-2.5312 -1.18494,-5.3882 -0.64563,-8.3863 0.45632,-3.0873 2.1181,-6.1311 5.32973,-9.1189 3.21164,-2.9879 6.45655,-4.5088 9.56871,-4.7413 3.02918,-0.3218 5.76585,0.2943 8.22867,1.3316 2.89022,1.139 5.66638,3.0497 8.24545,5.6431 l 35.93698,38.6289 c 2.31765,2.6701 4.02326,5.5768 4.95082,8.5417 0.85699,2.5312 1.35714,5.3944 0.81783,8.3924 -0.53932,2.9981 -2.20731,6.2141 -5.41895,9.202 -3.21163,2.9878 -6.45032,4.3365 -9.47949,4.6583 -3.02918,0.3217 -5.93806,-0.3006 -8.40087,-1.3379 -2.89023,-1.1389 -5.66638,-3.0497 -8.16246,-5.5539 l -35.93699,-38.6288 m 45.57191,29.6653 c 1.65991,1.7843 3.1787,2.7013 5.06676,2.9419 0.86104,0.031 1.82372,-0.3653 2.62663,-1.1122 1.69503,-1.5769 1.33601,-3.5729 0.61392,-5.0646 -0.39633,-0.9627 -1.05407,-1.8486 -1.88403,-2.7407 l -35.93698,-38.6289 c -1.74291,-1.8735 -3.35091,-2.7075 -5.15597,-2.8588 -0.86104,-0.031 -1.73451,0.2822 -2.53742,1.0292 -1.69503,1.5769 -1.502,3.3944 -0.61392,5.0645 0.31333,0.8735 0.97108,1.7594 1.88402,2.7408 l 35.93699,38.6288" />
          <path
             inkscape:connector-curvature="0"
             id="path3903"
             style="font-style:normal;font-variant:normal;font-weight:normal;font-stretch:normal;font-family:'League Gothic';-inkscape-font-specification:'League Gothic';fill:#ffffff"
             d="m -886.59996,-1457.8116 -12.05827,5.2702 c -5.24757,2.2934 -11.08073,3.2471 -16.75926,1.2077 -5.67853,-2.0394 -11.09081,-7.1207 -15.18979,-16.4994 -4.09898,-9.3786 -4.10323,-16.6905 -1.74292,-22.2434 2.3603,-5.5528 6.92473,-9.4094 12.1723,-11.7029 l -14.34645,-32.8252 12.05826,-5.2702 35.86613,82.0632 m -28.21022,-31.6862 c -3.68447,1.6103 -5.73635,3.305 -6.2466,5.7886 -0.55905,2.372 0.42353,5.5329 2.42423,10.1106 2.00069,4.5777 3.75077,7.6692 5.96893,9.0933 2.21816,1.4242 4.95321,1.2926 8.63767,-0.3177 l -10.78423,-24.6748" />
          <path
             inkscape:connector-curvature="0"
             id="path3905"
             style="font-style:normal;font-variant:normal;font-weight:normal;font-stretch:normal;font-family:'League Gothic';-inkscape-font-specification:'League Gothic';fill:#ffffff"
             d="m -948.99443,-1436.6047 -13.00674,2.0001 -13.61231,-88.5181 13.00674,-2.0001 13.61231,88.5181" />
          <path
             inkscape:connector-curvature="0"
             id="path3907"
             style="font-style:normal;font-variant:normal;font-weight:normal;font-stretch:normal;font-family:'League Gothic';-inkscape-font-specification:'League Gothic';fill:#ffffff"
             d="m -981.75508,-1521.0222 -23.62102,87.4398 -15.9797,-1.8289 -3.2539,-90.5157 12.7111,1.4548 0.3429,18.4359 12.59007,1.4409 4.49944,-17.8816 12.71111,1.4548 m -29.02582,57.5093 0.1,2.3417 0.7264,0.083 0.6264,-2.2585 6.9672,-27.656 -8.9583,-1.0253 0.5384,28.515" />
          <path
             inkscape:connector-curvature="0"
             id="path3909"
             style="font-style:normal;font-variant:normal;font-weight:normal;font-stretch:normal;font-family:'League Gothic';-inkscape-font-specification:'League Gothic';fill:#ffffff"
             d="m -1099.1166,-1462.6292 -10.788,-7.5362 c -4.6948,-3.2797 -8.5522,-7.758 -9.7757,-13.6663 -1.2235,-5.9083 0.2868,-13.1768 6.1483,-21.5675 5.8615,-8.3906 12.0967,-12.2098 18.0653,-13.094 5.9685,-0.8841 11.6402,0.9971 16.335,4.2767 l 20.5152,-29.3674 10.7881,7.5362 -51.2882,73.4185 m 12.3091,-40.5995 c -3.2963,-2.3027 -5.8127,-3.1688 -8.1976,-2.308 -2.3152,0.7609 -4.4989,3.2485 -7.3599,7.344 -2.8609,4.0954 -4.5849,7.2016 -4.6423,9.8369 -0.057,2.6354 1.4821,4.8999 4.7784,7.2026 l 15.4214,-22.0755" />
          <path
             inkscape:connector-curvature="0"
             id="path3911"
             style="font-style:normal;font-variant:normal;font-weight:normal;font-stretch:normal;font-family:'League Gothic';-inkscape-font-specification:'League Gothic';fill:#ffffff"
             d="m -1149.6319,-1504.5948 -8.5195,-10.0296 68.2572,-57.9801 8.5196,10.0296 -68.2573,57.9801" />
          <path
             inkscape:connector-curvature="0"
             id="path3913"
             style="font-style:normal;font-variant:normal;font-weight:normal;font-stretch:normal;font-family:'League Gothic';-inkscape-font-specification:'League Gothic';fill:#ffffff"
             d="m -1106.4208,-1601.3444 -31.2348,22.3102 1.5099,3.1948 34.1507,-16.1412 5.6233,11.8977 -80.97,38.2701 -5.6234,-11.8977 c -6.7168,-14.211 -1.5386,-24.071 13.7741,-31.3085 8.0419,-3.8009 16.302,-5.1443 21.5214,-2.0855 l 35.6254,-26.1376 5.6234,11.8977 m -40.7412,30.7118 c -0.781,-1.6525 -2.0427,-3.7516 -4.4181,-4.7852 -2.3754,-1.0337 -6.0267,-1.06 -11.7551,1.6476 -5.7285,2.7075 -8.1362,5.5975 -8.8454,8.0891 -0.7092,2.4916 0.222,4.7469 1.003,6.3994 l 24.0156,-11.3509" />
          <path
             inkscape:connector-curvature="0"
             id="path3915"
             style="font-style:normal;font-variant:normal;font-weight:normal;font-stretch:normal;font-family:'League Gothic';-inkscape-font-specification:'League Gothic';fill:#ffffff"
             d="m -1113.2219,-1617.132 -90.458,-4.5863 -1.5934,-16.0049 87.7782,-22.331 1.2675,12.7311 -17.946,4.2357 1.2554,12.6099 18.4288,0.6143 1.2675,12.7312 m -62.3486,-16.2013 -2.2675,0.5931 0.072,0.7275 2.34,0.1344 28.504,0.9582 -0.8933,-8.9724 -27.7556,6.5592" />
          <path
             inkscape:connector-curvature="0"
             id="path3917"
             style="font-style:normal;font-variant:normal;font-weight:normal;font-stretch:normal;font-family:'League Gothic';-inkscape-font-specification:'League Gothic';fill:#ffffff"
             d="m -1191.1447,-1674.8241 -13.2316,-2.8027 7.8779,-37.1915 13.2316,2.8027 -2.5754,12.1588 74.383,15.7558 -2.727,12.874 -74.383,-15.7558 -2.5755,12.1587" />
          <path
             inkscape:connector-curvature="0"
             id="path3919"
             style="font-style:normal;font-variant:normal;font-weight:normal;font-stretch:normal;font-family:'League Gothic';-inkscape-font-specification:'League Gothic';fill:#ffffff"
             d="m -1109.3262,-1695.6338 -70.438,-56.94 8.1301,-13.8779 84.1114,33.5999 -6.4672,11.0393 -17.0021,-7.1361 -6.4056,10.9341 14.5385,11.3415 -6.4671,11.0392 m -40.876,-49.7893 -2.1823,-0.8549 -0.3696,0.6309 1.8128,1.4856 22.4821,17.5485 4.5578,-7.78 -26.3008,-11.0301" />
        </g>
      </g>
      <rect
         style="fill:#ffffff"
         id="rect3035"
         width="373.54086"
         height="173.31082"
         x="59.343521"
         y="160.42487" />
      <g
         id="g3370"
         transform="matrix(1.2338926,0,0,1.2338926,-244.4787,-728.42794)">
        <g
           id="text3025"
           style="font-style:normal;font-variant:normal;font-weight:normal;font-stretch:normal;font-size:40px;line-height:125%;font-family:'League Gothic';-inkscape-font-specification:'League Gothic';letter-spacing:0px;word-spacing:0px;fill:#000000;fill-opacity:1;stroke:none"
           transform="translate(-0.25254936,-1.7019788)">
          <text
             sodipodi:linespacing="125%"
             id="text3956-0-9"
             y="765.41681"
             x="402.98987"
             style="font-style:normal;font-variant:normal;font-weight:normal;font-stretch:normal;font-size:25.1960144px;line-height:125%;font-family:FontAwesome;-inkscape-font-specification:FontAwesome;text-align:end;letter-spacing:0px;word-spacing:0px;text-anchor:end;fill:#000000;fill-opacity:1;stroke:none;stroke-width:1px;stroke-linecap:butt;stroke-linejoin:miter;stroke-opacity:1"
             xml:space="preserve"><tspan
               style="font-style:normal;font-variant:normal;font-weight:normal;font-stretch:normal;font-family:'League Gothic';-inkscape-font-specification:'League Gothic'"
               y="765.41681"
               x="402.98987"
               id="tspan3958-3-1"
               sodipodi:role="line">Murray Bookchin</tspan></text>
          <g
             transform="matrix(0.88293456,0,0,0.88293456,618.99045,-111.46169)"
             id="g4062">
            <text
               xml:space="preserve"
               style="font-style:normal;font-variant:normal;font-weight:normal;font-stretch:normal;font-size:34.78445053px;line-height:125%;font-family:FontAwesome;-inkscape-font-specification:FontAwesome;text-align:end;letter-spacing:0px;word-spacing:0px;text-anchor:end;fill:#000000;fill-opacity:1;stroke:none;stroke-width:1px;stroke-linecap:butt;stroke-linejoin:miter;stroke-opacity:1"
               x="-112.6953"
               y="1061.0559"
               id="text3956-93"
               sodipodi:linespacing="125%"><tspan
                 sodipodi:role="line"
                 id="tspan3958-38"
                 x="-112.6953"
                 y="1061.0559"
                 style="font-style:normal;font-variant:normal;font-weight:normal;font-stretch:normal;font-family:'League Gothic';-inkscape-font-specification:'League Gothic'">municipalismo libertario</tspan></text>
            <text
               xml:space="preserve"
               style="font-style:normal;font-variant:normal;font-weight:normal;font-stretch:normal;font-size:27.05457115px;line-height:125%;font-family:FontAwesome;-inkscape-font-specification:FontAwesome;text-align:end;letter-spacing:0px;word-spacing:0px;text-anchor:end;fill:#000000;fill-opacity:1;stroke:none;stroke-width:1px;stroke-linecap:butt;stroke-linejoin:miter;stroke-opacity:1"
               x="-262.65433"
               y="1030.0476"
               id="text3956-05"
               sodipodi:linespacing="125%"><tspan
                 sodipodi:role="line"
                 id="tspan3958-66"
                 x="-262.65433"
                 y="1030.0476"
                 style="font-style:normal;font-variant:normal;font-weight:normal;font-stretch:normal;font-family:'League Gothic';-inkscape-font-specification:'League Gothic'">tesis sobre</tspan></text>
            <text
               xml:space="preserve"
               style="font-style:normal;font-variant:normal;font-weight:normal;font-stretch:normal;font-size:76.47535706px;line-height:125%;font-family:FontAwesome;-inkscape-font-specification:FontAwesome;text-align:end;letter-spacing:0px;word-spacing:0px;text-anchor:end;fill:#000000;fill-opacity:1;stroke:none;stroke-width:1px;stroke-linecap:butt;stroke-linejoin:miter;stroke-opacity:1"
               x="-350.28336"
               y="1066.9836"
               id="text3956-9-0"
               sodipodi:linespacing="125%"><tspan
                 sodipodi:role="line"
                 id="tspan3958-6-4"
                 x="-350.28336"
                 y="1066.9836"
                 style="font-style:normal;font-variant:normal;font-weight:normal;font-stretch:normal;font-family:'League Gothic';-inkscape-font-specification:'League Gothic'">6</tspan></text>
          </g>
        </g>
      </g>
    </g>
  </g>
</svg>
