<?xml version="1.0" encoding="UTF-8" standalone="no"?>
<!-- Created with Inkscape (http://www.inkscape.org/) -->

<svg
   xmlns:dc="http://purl.org/dc/elements/1.1/"
   xmlns:cc="http://creativecommons.org/ns#"
   xmlns:rdf="http://www.w3.org/1999/02/22-rdf-syntax-ns#"
   xmlns:svg="http://www.w3.org/2000/svg"
   xmlns="http://www.w3.org/2000/svg"
   xmlns:sodipodi="http://sodipodi.sourceforge.net/DTD/sodipodi-0.dtd"
   xmlns:inkscape="http://www.inkscape.org/namespaces/inkscape"
   width="372.04724"
   height="524.40942"
   id="svg2"
   version="1.1"
   inkscape:version="0.48.4 r9939"
   sodipodi:docname="single_pensamiento_crudo.svg">
  <defs
     id="defs4" />
  <sodipodi:namedview
     id="base"
     pagecolor="#ffffff"
     bordercolor="#666666"
     borderopacity="1.0"
     inkscape:pageopacity="0.0"
     inkscape:pageshadow="2"
     inkscape:zoom="0.9899495"
     inkscape:cx="347.56596"
     inkscape:cy="231.23258"
     inkscape:document-units="mm"
     inkscape:current-layer="text3059"
     showgrid="false"
     showguides="true"
     inkscape:guide-bbox="true"
     units="mm"
     inkscape:window-width="1024"
     inkscape:window-height="714"
     inkscape:window-x="0"
     inkscape:window-y="30"
     inkscape:window-maximized="1">
    <sodipodi:guide
       orientation="1,0"
       position="372.04724,0"
       id="guide3168" />
  </sodipodi:namedview>
  <metadata
     id="metadata7">
    <rdf:RDF>
      <cc:Work
         rdf:about="">
        <dc:format>image/svg+xml</dc:format>
        <dc:type
           rdf:resource="http://purl.org/dc/dcmitype/StillImage" />
        <dc:title />
      </cc:Work>
    </rdf:RDF>
  </metadata>
  <g
     inkscape:label="Capa 1"
     inkscape:groupmode="layer"
     id="layer1"
     transform="translate(0,-527.95267)">
    <rect
       y="527.9527"
       x="-7.0438722e-07"
       height="524.40942"
       width="372.04724"
       id="rect3033"
       style="fill:#ffcc00;fill-opacity:1" />
    <g
       id="g3847"
       transform="matrix(0.10929874,0,0,0.10976979,379.02465,946.01697)"
       inkscape:export-filename="/srv/http/kiwwwi.com.ar/pastes/utopia-pirata-2.png"
       inkscape:export-xdpi="149"
       inkscape:export-ydpi="149" />
    <rect
       style="fill:#ffffff"
       id="rect3035"
       width="372.04724"
       height="173.31084"
       x="2.9508121e-07"
       y="589.1864" />
    <g
       id="g4077"
       transform="matrix(0.22827806,0,0,0.2292619,221.20735,849.87456)">
      <g
         inkscape:export-ydpi="149"
         inkscape:export-xdpi="149"
         inkscape:export-filename="/srv/http/kiwwwi.com.ar/pastes/utopia-pirata-2.png"
         id="g3851"
         transform="matrix(0.67937345,0,0,0.67937345,-35.215221,207.58407)"
         style="fill:#000000">
        <path
           d="m 910.84122,610.02908 c -15,21 -31.266,38.794 -49,60 l -24,27 c -20,19 -70,56 -93,71 -13,9 -27,16 -41,22 l -18.26,8.84 c 3,3 8.58,4.641 13.629,7 3,0 13.631,-5.84 16.631,-7.84 l 32,-18 c 6,-4 12,-9 19,-10 -3,7 -10,11 -17,15 l -19,11 c 0,0 -19.951,11.37 -22.68,13.26 5.469,2.16 13.68,4.641 18.889,6.74 5,0 11.791,-5 15.791,-7 11,-6 25,-15 36,-23 l 18,-12 c 14,-11 28,-23 41,-36 10,-9 20,-18 28,-29 11,-13 18,-28 26,-43 9,-14 12,-23 17,-38 1,-5 4,-13 2,-18 z"
           id="path719"
           inkscape:connector-curvature="0"
           style="fill:#000000;stroke:#000000;stroke-width:1" />
        <path
           d="m 451.84122,605.02908 c -3,11 1,24 5,34 9,24 24,45 39,65 9,13 24,29 35,40 l 12,10 26,23 c 21,16 60,40 84,51 l 32,14 13,5 c 15,6 30,10 46,13 9,2 19,5 28,5 -3,-11 -9,-10 -18,-13 l -33,-13 c -46,-19 -97,-38 -133,-74 7,0 12,6 17,10 7,5 16,11 24,16 22,13 72,36 97,45 10,4 27,11 37,11 8,1 19,-4 25,-8 -4,-4 -8,-3 -14,-4 l -31,-9 c -27,-7 -53,-17 -78,-30 l -14,-6 -19,-12 -23,-15 -24,-19 -41,-32 -38,-39 -19,-22 -20,-22 -15,-24 z"
           id="path725"
           inkscape:connector-curvature="0"
           style="fill:#000000;stroke:#000000;stroke-width:1" />
        <path
           d="m 772.84122,852.02908 c 2,4 6,10 6,15 0,11 -13,21 -23,20 -4,-1 -13,-6 -16,0 -1,2 -1,4 0,5 0,4 5,6 9,8 11,3 23,-1 32,-7 7,-4 12,-11 14,-19 l 2,-13 c 1,-4 5,-5 10,-12 6,-8 12,-22 20,-28 3,-2 6,-3 10,-4 -2,-3 -4,-5 -6,-8 -2,-1 -4,-3 -6,-3 -3,-1 -7,-1 -10,1 -14,7 -11,20 -19,30 -6,8 -13,12 -23,15 z"
           id="path731"
           inkscape:connector-curvature="0"
           style="fill:#000000;stroke:#000000;stroke-width:1" />
        <path
           d="m 804.84122,865.02908 c 7,3 13,2 20,2 l 15,1 c 7,0 9,-4 12,-10 1,-2 2,-6 0,-8 -2,-2 -6,-2 -9,-2 l -17,1 c -3,0 -8,0 -11,1 -5,3 -9,10 -10,15 z"
           id="path737"
           inkscape:connector-curvature="0"
           style="fill:#000000;stroke:#000000;stroke-width:1" />
        <path
           d="m 858.84122,879.02908 c -5,-2 -8,-4 -11,-8 -1,1 -2,1 -3,2 -1,5 12,17 14,6 z"
           id="path743"
           inkscape:connector-curvature="0"
           style="fill:#000000;stroke:#000000;stroke-width:1" />
        <path
           d="m 851.84122,845.02908 8,5 c -2,4 -7,12 -6,17 1,10 15,10 21,4 7,-8 7,-20 -3,-26 -6,-3 -13,-2 -20,0 z"
           id="path744"
           inkscape:connector-curvature="0"
           style="fill:#000000;stroke:#000000;stroke-width:1" />
        <path
           d="m 492.84122,873.02908 1,1 c 8,-2 13,-5 14,-13 -6,1 -12,7 -15,12 z"
           id="selection_x5F_to_x5F_path_x23_5"
           inkscape:connector-curvature="0"
           style="fill:#000000;stroke:#000000;stroke-width:1" />
        <path
           d="m 499.84122,836.02908 c -3,-2 -6,-3 -10,-3 -3,0 -6,0 -9,1 -10,4 -11,20 -3,27 4,4 14,6 18,1 4,-4 3,-9 1,-14 -1,-3 -3,-7 -1,-9 1,-2 3,-2 4,-3 z"
           id="selection_x5F_to_x5F_path_x23_4"
           inkscape:connector-curvature="0"
           style="fill:#000000;stroke:#000000;stroke-width:1" />
        <path
           d="m 498.84122,840.02908 c 1,3 6,15 8,17 3,2 6,2 9,2 l 18,-1 h 13 c 0,-3 0,-6 -1,-8 -3,-8 -14,-12 -22,-12 l -9,1 c -6,0 -11,-1 -16,1 z"
           id="selection_x5F_to_x5F_path_x23_3"
           inkscape:connector-curvature="0"
           style="fill:#000000;stroke:#000000;stroke-width:1" />
        <path
           d="m 517.84122,808.02908 c 19,5 19,21 27,32 3,4 11,10 12,14 1,3 0,4 1,11 2,9 8,18 16,23 9,6 17,10 28,7 6,-2 12,-6 9,-13 -3,-7 -14,0 -21,-2 -7,-3 -15,-13 -15,-21 l 4,-14 c -11,-4 -24,-13 -29,-24 -3,-7 -3,-17 -8,-22 -9,-7 -21,-1 -24,9 z"
           id="selection_x5F_to_x5F_path_x23_2"
           inkscape:connector-curvature="0"
           style="fill:#000000;stroke:#000000;stroke-width:1" />
        <path
           d="m 565.84122,831.02908 c 3,4 5,5 9,7 14,8 23,2 37,-1 l 29,-9 c -3.84,-2.58 -12.42,-7.95 -16,-10 l -19,5 -40,8 z"
           id="path758"
           inkscape:connector-curvature="0"
           style="fill:#000000;stroke:#000000;stroke-width:1" />
        <path
           d="m 579.84122,860.02908 c 26,0 50,-8 75,-14 0,0 11,-5.206 14.676,-5.206 -3.47,-2.529 -17.622,-7.638 -19.836,-9.634 -3,0.89 -14.84,4.84 -18.84,5.84 l -25,7 -12,3 c -7,3 -12,4 -14,13 z"
           id="path759"
           inkscape:connector-curvature="0"
           style="fill:#000000;stroke:#000000;stroke-width:1" />
      </g>
      <circle
         transform="matrix(0.67937348,0,0,0.67937344,172.06628,463.24141)"
         d="m 483.822,156.03101 c 0,59.52249 -48.25251,107.775 -107.775,107.775 -59.52249,0 -107.775,-48.25251 -107.775,-107.775 0,-59.522494 48.25251,-107.775006 107.775,-107.775006 59.52249,0 107.775,48.252512 107.775,107.775006 z"
         style="fill:none;stroke:#000000;stroke-width:20;stroke-opacity:1"
         sodipodi:ry="107.775"
         sodipodi:rx="107.775"
         sodipodi:cy="156.03101"
         sodipodi:cx="376.047"
         cx="376.047"
         cy="156.03101"
         r="107.775"
         id="circle3807" />
      <path
         transform="matrix(0.67937348,0,0,0.67937344,-233.93429,225.03699)"
         style="fill:#000000"
         inkscape:connector-curvature="0"
         d="m 972.7768,439.2957 c -31.919,0 -58.663,22.231 -65.598,52.05 h 32.187 c 5.808,-12.648 18.59,-21.432 33.411,-21.432 20.282,0 36.742,16.46 36.742,36.741 0,20.281 -16.46,36.742 -36.742,36.742 -14.821,0 -27.604,-8.785 -33.411,-21.433 h -32.187 c 6.935,29.819 33.679,52.05 65.598,52.05 37.183,0 67.359,-30.177 67.359,-67.359 0,-37.182 -30.177,-67.359 -67.359,-67.359 z"
         id="path3809" />
      <g
         inkscape:export-ydpi="149"
         inkscape:export-xdpi="149"
         inkscape:export-filename="/srv/http/kiwwwi.com.ar/pastes/utopia-pirata-2.png"
         id="text3059"
         style="font-size:121.8484726px;font-style:normal;font-weight:normal;line-height:125%;letter-spacing:0px;word-spacing:0px;fill:#ffffff;fill-opacity:1;stroke:none;font-family:Bitstream Vera Sans"
         transform="matrix(-0.72702905,0.19480685,-0.19480685,-0.72702905,-611.71218,-436.375)">
        <g
           transform="matrix(0.99707364,-0.07644708,0.07644708,0.99707364,125.06749,-81.555005)"
           id="g3922">
          <path
             transform="matrix(-0.8718552,-0.2336129,0.2336129,-0.8718552,-1786.4657,-3244.8873)"
             style="fill:none;stroke:none"
             d="m -1183.8988,-1543.7299 c 0,70.2944 -56.9848,127.2793 -127.2792,127.2793 -70.2944,0 -127.2792,-56.9849 -127.2792,-127.2793 0,-70.2943 56.9848,-127.2792 127.2792,-127.2792 70.2944,0 127.2792,56.9849 127.2792,127.2792 z"
             id="path3865" />
          <path
             d="m -778.04883,-1594.9487 -70.08465,-12.3215 c -3.57914,-0.7529 -6.69277,-2.0426 -9.22087,-3.848 -2.21027,-1.502 -4.19505,-3.583 -5.5732,-6.2996 -1.49816,-2.7377 -2.00858,-6.1679 -1.24904,-10.4881 0.75954,-4.3203 2.43037,-7.4907 4.77246,-9.5532 2.22209,-2.0837 4.77652,-3.243 7.36656,-3.9011 2.99226,-0.8348 6.35907,-0.9852 9.98041,-0.4723 l 70.08465,12.3215 -2.27862,12.9608 -70.08465,-12.3214 c -2.52017,-0.4431 -4.30577,-0.1384 -5.83684,0.8296 -0.70553,0.4946 -1.21325,1.2713 -1.40313,2.3514 -0.40087,2.2801 0.84934,3.6134 2.56507,4.4099 0.77676,0.5077 1.83573,0.8176 3.15582,1.0497 l 70.08465,12.3214 -2.27862,12.9609"
             style="font-style:normal;font-variant:normal;font-weight:normal;font-stretch:normal;fill:#000000;font-family:League Gothic;-inkscape-font-specification:League Gothic"
             id="path3897"
             inkscape:connector-curvature="0" />
          <path
             d="m -801.09593,-1568.8963 11.85811,6.5051 -18.28444,33.3309 -11.85812,-6.5051 5.97761,-10.8966 -66.66184,-36.5689 6.32923,-11.5376 66.66184,36.5689 5.97761,-10.8967"
             style="font-style:normal;font-variant:normal;font-weight:normal;font-stretch:normal;fill:#000000;font-family:League Gothic;-inkscape-font-specification:League Gothic"
             id="path3899"
             inkscape:connector-curvature="0" />
          <path
             d="m -902.22684,-1531.2768 c -2.40064,-2.7594 -4.10625,-5.6661 -5.0338,-8.6309 -0.857,-2.5312 -1.18494,-5.3882 -0.64563,-8.3863 0.45632,-3.0873 2.1181,-6.1311 5.32973,-9.1189 3.21164,-2.9879 6.45655,-4.5088 9.56871,-4.7413 3.02918,-0.3218 5.76585,0.2943 8.22867,1.3316 2.89022,1.139 5.66638,3.0497 8.24545,5.6431 l 35.93698,38.6289 c 2.31765,2.6701 4.02326,5.5768 4.95082,8.5417 0.85699,2.5312 1.35714,5.3944 0.81783,8.3924 -0.53932,2.9981 -2.20731,6.2141 -5.41895,9.202 -3.21163,2.9878 -6.45032,4.3365 -9.47949,4.6583 -3.02918,0.3217 -5.93806,-0.3006 -8.40087,-1.3379 -2.89023,-1.1389 -5.66638,-3.0497 -8.16246,-5.5539 l -35.93699,-38.6288 m 45.57191,29.6653 c 1.65991,1.7843 3.1787,2.7013 5.06676,2.9419 0.86104,0.031 1.82372,-0.3653 2.62663,-1.1122 1.69503,-1.5769 1.33601,-3.5729 0.61392,-5.0646 -0.39633,-0.9627 -1.05407,-1.8486 -1.88403,-2.7407 l -35.93698,-38.6289 c -1.74291,-1.8735 -3.35091,-2.7075 -5.15597,-2.8588 -0.86104,-0.031 -1.73451,0.2822 -2.53742,1.0292 -1.69503,1.5769 -1.502,3.3944 -0.61392,5.0645 0.31333,0.8735 0.97108,1.7594 1.88402,2.7408 l 35.93699,38.6288"
             style="font-style:normal;font-variant:normal;font-weight:normal;font-stretch:normal;fill:#000000;font-family:League Gothic;-inkscape-font-specification:League Gothic"
             id="path3901"
             inkscape:connector-curvature="0" />
          <path
             d="m -886.59996,-1457.8116 -12.05827,5.2702 c -5.24757,2.2934 -11.08073,3.2471 -16.75926,1.2077 -5.67853,-2.0394 -11.09081,-7.1207 -15.18979,-16.4994 -4.09898,-9.3786 -4.10323,-16.6905 -1.74292,-22.2434 2.3603,-5.5528 6.92473,-9.4094 12.1723,-11.7029 l -14.34645,-32.8252 12.05826,-5.2702 35.86613,82.0632 m -28.21022,-31.6862 c -3.68447,1.6103 -5.73635,3.305 -6.2466,5.7886 -0.55905,2.372 0.42353,5.5329 2.42423,10.1106 2.00069,4.5777 3.75077,7.6692 5.96893,9.0933 2.21816,1.4242 4.95321,1.2926 8.63767,-0.3177 l -10.78423,-24.6748"
             style="font-style:normal;font-variant:normal;font-weight:normal;font-stretch:normal;fill:#000000;font-family:League Gothic;-inkscape-font-specification:League Gothic"
             id="path3903"
             inkscape:connector-curvature="0" />
          <path
             d="m -948.99443,-1436.6047 -13.00674,2.0001 -13.61231,-88.5181 13.00674,-2.0001 13.61231,88.5181"
             style="font-style:normal;font-variant:normal;font-weight:normal;font-stretch:normal;fill:#000000;font-family:League Gothic;-inkscape-font-specification:League Gothic"
             id="path3905"
             inkscape:connector-curvature="0" />
          <path
             d="m -981.75508,-1521.0222 -23.62102,87.4398 -15.9797,-1.8289 -3.2539,-90.5157 12.7111,1.4548 0.3429,18.4359 12.59007,1.4409 4.49944,-17.8816 12.71111,1.4548 m -29.02582,57.5093 0.1,2.3417 0.7264,0.083 0.6264,-2.2585 6.9672,-27.656 -8.9583,-1.0253 0.5384,28.515"
             style="font-style:normal;font-variant:normal;font-weight:normal;font-stretch:normal;fill:#000000;font-family:League Gothic;-inkscape-font-specification:League Gothic"
             id="path3907"
             inkscape:connector-curvature="0" />
          <path
             d="m -1099.1166,-1462.6292 -10.788,-7.5362 c -4.6948,-3.2797 -8.5522,-7.758 -9.7757,-13.6663 -1.2235,-5.9083 0.2868,-13.1768 6.1483,-21.5675 5.8615,-8.3906 12.0967,-12.2098 18.0653,-13.094 5.9685,-0.8841 11.6402,0.9971 16.335,4.2767 l 20.5152,-29.3674 10.7881,7.5362 -51.2882,73.4185 m 12.3091,-40.5995 c -3.2963,-2.3027 -5.8127,-3.1688 -8.1976,-2.308 -2.3152,0.7609 -4.4989,3.2485 -7.3599,7.344 -2.8609,4.0954 -4.5849,7.2016 -4.6423,9.8369 -0.057,2.6354 1.4821,4.8999 4.7784,7.2026 l 15.4214,-22.0755"
             style="font-style:normal;font-variant:normal;font-weight:normal;font-stretch:normal;fill:#000000;font-family:League Gothic;-inkscape-font-specification:League Gothic"
             id="path3909"
             inkscape:connector-curvature="0" />
          <path
             d="m -1149.6319,-1504.5948 -8.5195,-10.0296 68.2572,-57.9801 8.5196,10.0296 -68.2573,57.9801"
             style="font-style:normal;font-variant:normal;font-weight:normal;font-stretch:normal;fill:#000000;font-family:League Gothic;-inkscape-font-specification:League Gothic"
             id="path3911"
             inkscape:connector-curvature="0" />
          <path
             d="m -1106.4208,-1601.3444 -31.2348,22.3102 1.5099,3.1948 34.1507,-16.1412 5.6233,11.8977 -80.97,38.2701 -5.6234,-11.8977 c -6.7168,-14.211 -1.5386,-24.071 13.7741,-31.3085 8.0419,-3.8009 16.302,-5.1443 21.5214,-2.0855 l 35.6254,-26.1376 5.6234,11.8977 m -40.7412,30.7118 c -0.781,-1.6525 -2.0427,-3.7516 -4.4181,-4.7852 -2.3754,-1.0337 -6.0267,-1.06 -11.7551,1.6476 -5.7285,2.7075 -8.1362,5.5975 -8.8454,8.0891 -0.7092,2.4916 0.222,4.7469 1.003,6.3994 l 24.0156,-11.3509"
             style="font-style:normal;font-variant:normal;font-weight:normal;font-stretch:normal;fill:#000000;font-family:League Gothic;-inkscape-font-specification:League Gothic"
             id="path3913"
             inkscape:connector-curvature="0" />
          <path
             d="m -1113.2219,-1617.132 -90.458,-4.5863 -1.5934,-16.0049 87.7782,-22.331 1.2675,12.7311 -17.946,4.2357 1.2554,12.6099 18.4288,0.6143 1.2675,12.7312 m -62.3486,-16.2013 -2.2675,0.5931 0.072,0.7275 2.34,0.1344 28.504,0.9582 -0.8933,-8.9724 -27.7556,6.5592"
             style="font-style:normal;font-variant:normal;font-weight:normal;font-stretch:normal;fill:#000000;font-family:League Gothic;-inkscape-font-specification:League Gothic"
             id="path3915"
             inkscape:connector-curvature="0" />
          <path
             d="m -1191.1447,-1674.8241 -13.2316,-2.8027 7.8779,-37.1915 13.2316,2.8027 -2.5754,12.1588 74.383,15.7558 -2.727,12.874 -74.383,-15.7558 -2.5755,12.1587"
             style="font-style:normal;font-variant:normal;font-weight:normal;font-stretch:normal;fill:#000000;font-family:League Gothic;-inkscape-font-specification:League Gothic"
             id="path3917"
             inkscape:connector-curvature="0" />
          <path
             d="m -1109.3262,-1695.6338 -70.438,-56.94 8.1301,-13.8779 84.1114,33.5999 -6.4672,11.0393 -17.0021,-7.1361 -6.4056,10.9341 14.5385,11.3415 -6.4671,11.0392 m -40.876,-49.7893 -2.1823,-0.8549 -0.3696,0.6309 1.8128,1.4856 22.4821,17.5485 4.5578,-7.78 -26.3008,-11.0301"
             style="font-style:normal;font-variant:normal;font-weight:normal;font-stretch:normal;fill:#000000;font-family:League Gothic;-inkscape-font-specification:League Gothic"
             id="path3919"
             inkscape:connector-curvature="0" />
          <g
             transform="matrix(-0.94534379,-0.33261832,0.33119094,-0.94128701,0,0)"
             style="font-size:316.4208374px;font-style:normal;font-weight:normal;line-height:125%;letter-spacing:0px;word-spacing:0px;fill:#000000;fill-opacity:1;stroke:none;font-family:Sans"
             id="text4354">
            <path
               d="m -129.10446,-589.23417 34.173452,0 c 14.871765,0 29.743571,3.79706 41.134709,14.55536 11.391139,10.75829 18.985251,28.4779 18.985251,55.05722 0,26.57933 -7.594112,43.98251 -18.985251,54.74081 -11.391138,10.7583 -26.262944,15.1882 -41.134709,15.1882 l 0,93.02772 -34.173452,0 0,-232.56931 m 34.173452,104.7353 c 10.441878,0 17.086729,-1.89853 20.883776,-7.27768 3.797046,-5.06273 4.746312,-13.60611 4.746312,-26.57935 0,-12.97325 -0.949266,-22.14947 -4.746312,-27.84504 -3.797047,-5.69557 -10.441898,-8.22694 -20.883776,-8.22694 l 0,69.92901"
               style="font-variant:normal;font-stretch:normal;font-family:League Gothic;-inkscape-font-specification:League Gothic"
               id="path4589" />
            <path
               d="m 58.483659,-418.68334 0,19.93451 c -0.949261,16.77029 -6.012007,28.47789 -17.403146,37.65408 -5.695569,4.74631 -13.606106,6.96126 -24.047983,6.96126 -20.5673341,0 -31.009247,-11.39116 -36.071976,-22.7823 -2.847784,-6.64483 -4.746313,-14.23895 -5.062733,-22.7823 l 0,-87.01573 c 0.949261,-16.77029 6.328428,-29.11073 17.7195668,-38.60334 5.3791489,-4.74631 13.2896856,-6.96126 23.7315632,-6.96126 20.567333,0 31.009247,11.39116 36.071975,22.46588 2.847785,6.64483 4.746313,13.92252 5.062733,22.14946 l 0,50.31091 -52.8422794,0 0,37.65408 c 0.3164206,6.64483 2.2149487,11.39115 5.0627334,14.87178 1.582103,1.5821 3.797053,2.53137 6.644838,2.53137 6.01199,0 8.859784,-3.79706 10.125466,-8.54337 0.949262,-2.53136 1.265684,-5.37915 1.265684,-8.85978 l 0,-18.98525 29.743558,0 m -52.8422794,-43.66608 23.0987214,0 0,-24.3644 c 0,-6.64483 -1.265687,-11.39115 -4.429892,-15.1882 -1.582103,-1.5821 -4.113474,-2.53137 -6.961258,-2.53137 -6.01199,0 -8.5433646,4.11348 -10.1254672,8.85979 -0.9492615,2.53136 -1.2656836,5.37915 -1.5821042,8.85978 l 0,24.3644"
               style="font-variant:normal;font-stretch:normal;font-family:League Gothic;-inkscape-font-specification:League Gothic"
               id="path4591" />
            <path
               d="m 111.74124,-356.66486 -31.958506,0 0,-173.08219 31.958506,0 0,14.55535 c 0.63284,-0.31642 1.89853,-1.5821 3.79705,-3.48062 3.48062,-3.48063 8.22695,-8.22695 13.92252,-11.39115 2.84778,-1.58211 5.37915,-2.21495 8.22694,-2.21495 8.54335,0 14.55536,5.06274 18.35241,11.39115 3.79704,6.64483 5.69557,15.18821 5.69557,22.46588 l 0,141.75653 -31.9585,0 0,-137.01022 c 0,-6.64483 -3.79706,-7.5941 -7.5941,-7.5941 -3.48063,0 -5.37916,1.89853 -7.5941,4.11347 -0.94927,1.26568 -1.89853,2.53137 -2.84779,4.11347 l 0,136.37738"
               style="font-variant:normal;font-stretch:normal;font-family:League Gothic;-inkscape-font-specification:League Gothic"
               id="path4593" />
            <path
               d="m 233.25672,-485.44814 c 0,-4.11346 0,-9.17621 -1.26568,-13.28967 -1.5821,-3.79705 -4.11348,-6.96126 -9.17621,-6.96126 -4.11346,0 -6.64483,3.16421 -7.91052,6.96126 -1.5821,3.79704 -1.89852,9.17621 -1.89852,13.28967 0,5.37915 2.84779,11.07474 6.96126,16.13747 3.79704,5.06272 8.85978,10.12547 13.92251,14.87178 6.64483,6.64483 14.55537,14.23894 19.93452,22.7823 5.37914,8.85977 9.49262,18.66884 9.49262,30.05998 0,11.07471 -2.53137,22.7823 -8.85978,31.64208 -6.64483,9.17619 -16.77032,15.82104 -31.95851,15.82104 -19.30165,0 -30.69282,-8.85979 -37.02123,-19.61809 -6.32842,-10.7583 -7.5941,-24.04799 -7.5941,-33.22419 l 29.74355,0 c 0,4.74631 0.31643,11.39116 2.53137,16.45388 2.21494,5.37915 5.69558,9.80905 12.34041,9.80905 9.1762,0 11.07473,-10.75832 11.07473,-20.88377 0,-10.44188 -10.12547,-20.88379 -19.93451,-30.69283 -7.59409,-7.27767 -14.87179,-13.92252 -20.56735,-22.46588 -5.69557,-8.54335 -9.80905,-18.036 -9.80905,-30.69282 0,-10.12545 1.89853,-21.83304 7.91052,-31.00924 6.01199,-8.85977 15.82106,-15.50462 31.00924,-15.82104 18.66881,-0.31642 29.11072,6.64485 34.48987,15.82104 5.37915,9.1762 6.32842,21.20021 6.32842,31.00924 l -29.74356,0"
               style="font-variant:normal;font-stretch:normal;font-family:League Gothic;-inkscape-font-specification:League Gothic"
               id="path4595" />
            <path
               d="m 330.90223,-488.61235 c 0,-2.84778 0,-7.27768 -0.94926,-10.44188 -1.26569,-3.16421 -3.79706,-5.37916 -7.91052,-5.37916 -5.37915,0 -7.59411,4.11348 -8.54337,9.17621 -0.31642,2.53136 -0.63284,5.37915 -0.63284,8.22694 0,2.84778 0,5.69558 0,8.22694 l -31.9585,0 0,-7.27768 c 0,-12.65682 4.74632,-24.04799 12.34041,-32.59134 7.59409,-8.54336 18.35242,-13.6061 30.69282,-13.6061 10.44188,0 19.93452,4.11348 27.21219,11.07473 7.27768,6.96125 11.70757,16.77031 11.70757,28.16145 l 0,106.3174 c 0,15.50461 0.94927,22.46589 2.21495,30.05998 l -31.32566,0 c -2.84779,-3.48062 -2.84779,-11.70757 -2.84779,-13.92251 l -2.21495,0 c -1.5821,2.84778 -4.42989,6.96126 -8.85978,10.44188 -4.42989,3.48063 -10.44189,6.012 -16.7703,6.012 -4.11347,0 -10.75832,-1.58211 -15.82105,-7.91052 -5.37914,-6.01199 -9.80904,-16.77032 -9.80904,-34.80629 0,-19.30165 5.69558,-33.2242 13.28967,-42.71682 7.5941,-9.49261 17.08674,-15.50462 24.99725,-19.61809 7.91051,-4.11346 13.92252,-6.96126 15.1882,-10.44188 l 0,-18.98526 m 0,48.41239 c -15.50461,6.64483 -22.14946,22.14948 -22.14946,38.60335 0,2.21494 0.31642,6.01199 1.5821,9.49262 1.26569,3.79705 3.48064,6.64484 7.27768,6.64484 7.27768,0 13.28968,-4.4299 13.28968,-10.44189 l 0,-44.29892"
               style="font-variant:normal;font-stretch:normal;font-family:League Gothic;-inkscape-font-specification:League Gothic"
               id="path4597" />
            <path
               d="m 465.81121,-356.66486 -30.05998,0 0,-137.01022 c 0,-6.64483 -5.06273,-7.5941 -8.54336,-7.5941 -3.48062,0 -6.32842,1.89853 -8.54336,4.11347 -1.26568,1.26568 -2.53137,2.53137 -3.48063,4.11347 l 0,136.37738 -31.9585,0 0,-173.08219 31.9585,0 0,14.55535 c 0.63284,-0.31642 1.89853,-1.5821 3.79705,-3.48062 3.48063,-3.48063 8.85979,-8.22695 14.55536,-11.39115 2.84778,-1.58211 5.37916,-2.21495 8.22694,-2.21495 11.39114,0 18.03599,9.17621 21.51662,19.30167 1.26568,-0.94926 2.84779,-2.53137 5.06273,-4.74631 4.11347,-4.42989 9.49263,-8.54337 15.50462,-12.02399 2.84779,-1.58211 5.69558,-2.53137 8.54336,-2.53137 8.54336,0 14.55537,5.06274 18.35241,11.39115 3.79705,6.64483 5.69558,15.18821 5.69558,22.46588 l 0,141.75653 -30.05998,0 0,-137.01022 c 0,-6.64483 -5.06274,-7.5941 -8.54336,-7.5941 -3.48063,0 -6.32842,1.89853 -8.54337,4.11347 -1.26568,1.26568 -2.53136,2.53137 -3.48063,4.11347 l 0,136.37738"
               style="font-variant:normal;font-stretch:normal;font-family:League Gothic;-inkscape-font-specification:League Gothic"
               id="path4599" />
            <path
               d="m 540.81778,-589.23417 31.95851,0 0,31.9585 -31.95851,0 0,-31.9585 m 0,232.56931 0,-173.08219 31.95851,0 0,173.08219 -31.95851,0"
               style="font-variant:normal;font-stretch:normal;font-family:League Gothic;-inkscape-font-specification:League Gothic"
               id="path4601" />
            <path
               d="m 677.72913,-418.68334 0,19.93451 c -0.94926,16.77029 -6.01201,28.47789 -17.40315,37.65408 -5.69557,4.74631 -13.6061,6.96126 -24.04798,6.96126 -20.56734,0 -31.00925,-11.39116 -36.07198,-22.7823 -2.84778,-6.64483 -4.74631,-14.23895 -5.06273,-22.7823 l 0,-87.01573 c 0.94926,-16.77029 6.32843,-29.11073 17.71957,-38.60334 5.37914,-4.74631 13.28968,-6.96126 23.73156,-6.96126 20.56733,0 31.00925,11.39116 36.07197,22.46588 2.84779,6.64483 4.74632,13.92252 5.06274,22.14946 l 0,50.31091 -52.84228,0 0,37.65408 c 0.31642,6.64483 2.21495,11.39115 5.06273,14.87178 1.5821,1.5821 3.79705,2.53137 6.64484,2.53137 6.01199,0 8.85978,-3.79706 10.12547,-8.54337 0.94926,-2.53136 1.26568,-5.37915 1.26568,-8.85978 l 0,-18.98525 29.74356,0 m -52.84228,-43.66608 23.09872,0 0,-24.3644 c 0,-6.64483 -1.26569,-11.39115 -4.42989,-15.1882 -1.58211,-1.5821 -4.11348,-2.53137 -6.96126,-2.53137 -6.01199,0 -8.54337,4.11348 -10.12547,8.85979 -0.94926,2.53136 -1.26568,5.37915 -1.5821,8.85978 l 0,24.3644"
               style="font-variant:normal;font-stretch:normal;font-family:League Gothic;-inkscape-font-specification:League Gothic"
               id="path4603" />
            <path
               d="m 730.98668,-356.66486 -31.95851,0 0,-173.08219 31.95851,0 0,14.55535 c 0.63284,-0.31642 1.89852,-1.5821 3.79705,-3.48062 3.48062,-3.48063 8.22694,-8.22695 13.92251,-11.39115 2.84779,-1.58211 5.37916,-2.21495 8.22694,-2.21495 8.54336,0 14.55537,5.06274 18.35241,11.39115 3.79705,6.64483 5.69558,15.18821 5.69558,22.46588 l 0,141.75653 -31.95851,0 0,-137.01022 c 0,-6.64483 -3.79705,-7.5941 -7.5941,-7.5941 -3.48062,0 -5.37915,1.89853 -7.5941,4.11347 -0.94926,1.26568 -1.89852,2.53137 -2.84778,4.11347 l 0,136.37738"
               style="font-variant:normal;font-stretch:normal;font-family:League Gothic;-inkscape-font-specification:League Gothic"
               id="path4605" />
            <path
               d="m 842.69316,-572.46387 0,42.71682 21.83304,0 0,28.79429 -21.83304,0 0,86.06647 c 0,5.37915 0,12.34042 1.26568,18.03599 1.26568,5.69557 3.79706,10.44189 8.85979,10.44189 2.53136,0 5.69557,-0.31643 7.91052,-0.63285 1.26568,-0.31642 2.53136,-0.31642 3.79705,-0.63284 l 0,31.32566 c -1.58211,0.31643 -3.16421,0.94927 -4.74632,1.26569 -3.1642,0.63284 -7.27768,0.94926 -12.34041,0.94926 -18.66881,0 -27.52862,-9.49264 -31.9585,-21.51662 -4.42989,-12.02398 -4.74632,-26.57936 -4.74632,-36.70481 l 0,-88.59784 -16.13746,0 0,-28.79429 16.13746,0 0,-42.71682 31.95851,0"
               style="font-variant:normal;font-stretch:normal;font-family:League Gothic;-inkscape-font-specification:League Gothic"
               id="path4607" />
            <path
               d="m 960.44619,-398.74883 c -0.94927,16.77029 -6.01201,28.47789 -17.08673,37.65408 -5.69557,4.74631 -13.60611,6.96126 -24.04798,6.96126 -20.56734,0 -30.69283,-11.39116 -35.75556,-22.7823 -2.84778,-6.64483 -4.74631,-14.23895 -5.06273,-22.7823 l 0,-87.01573 c 0.94926,-16.77029 6.01201,-29.11073 17.08672,-38.60334 5.37915,-4.74631 13.28969,-6.96126 23.73157,-6.96126 20.56733,0 31.00924,11.39116 36.07197,22.46588 2.84779,6.64483 4.74632,13.92252 5.06274,22.14946 l 0,88.91425 m -30.05998,-87.96499 c 0.31642,-6.64483 -0.94927,-11.39115 -4.11347,-15.1882 -1.58211,-1.5821 -4.11348,-2.53137 -6.96126,-2.53137 -6.01199,0 -8.54337,4.11348 -9.80905,8.85979 -0.94926,2.53136 -1.26568,5.37915 -0.94926,8.85978 l 0,87.01573 c -0.31642,6.64483 1.26568,11.39115 4.11347,14.87178 1.5821,1.5821 3.79705,2.53137 6.64484,2.53137 6.01199,0 8.85978,-3.79706 10.12546,-8.54337 0.94927,-2.53136 1.26569,-5.37915 0.94927,-8.85978 l 0,-87.01573"
               style="font-variant:normal;font-stretch:normal;font-family:League Gothic;-inkscape-font-specification:League Gothic"
               id="path4609" />
            <path
               d="m 1120.4315,-436.40291 0,31.95851 c -0.3164,9.49261 -2.2149,18.03599 -5.6956,25.31366 -2.8478,6.32842 -7.2777,12.34042 -13.6061,17.08673 -6.3284,5.06273 -14.8718,7.91052 -26.2629,7.91052 -11.3911,0 -20.2509,-2.84779 -26.5793,-7.91052 -6.3285,-4.74631 -10.4419,-10.75831 -13.2897,-17.08673 -3.4807,-7.27767 -5.3792,-15.82105 -5.6956,-25.31366 l 0,-137.01022 c 0.3164,-9.1762 2.2149,-17.71958 5.6956,-24.99725 2.8478,-6.32841 6.9612,-12.65684 13.2897,-17.40315 6.3284,-4.74631 15.1882,-7.91052 26.5793,-7.91052 11.3911,0 19.9345,3.16421 26.2629,7.91052 6.3284,4.74631 10.7583,11.07474 13.6061,17.40315 3.4807,7.27767 5.3792,15.82105 5.6956,24.99725 l 0,31.9585 -31.9585,0 0,-31.9585 c 0,-6.32842 -1.5821,-10.75832 -5.0627,-14.55536 -1.5821,-1.58211 -4.4299,-2.53137 -7.9106,-2.53137 -6.0119,0 -8.8597,4.4299 -10.4418,8.54336 -0.9493,2.53137 -1.2657,5.37916 -1.5821,8.54337 l 0,137.01022 c 0.3164,6.64483 2.2149,11.07473 5.3791,14.55536 1.5821,1.5821 3.7971,2.53136 6.6448,2.53136 7.2777,0 10.1255,-3.79705 11.7076,-8.54336 0.9493,-2.21494 1.2657,-5.06274 1.2657,-8.54336 l 0,-31.95851 31.9585,0"
               style="font-variant:normal;font-stretch:normal;font-family:League Gothic;-inkscape-font-specification:League Gothic"
               id="path4611" />
            <path
               d="m 1204.822,-496.83929 c -2.8478,-0.94926 -6.012,-1.26568 -8.8598,-1.26568 -5.0628,0 -11.0748,0.63285 -16.1375,5.37915 -6.012,5.06273 -6.9613,10.4419 -6.9613,15.82105 l 0,120.23991 -31.9585,0 0,-173.08219 31.9585,0 0,19.30167 c 0.3165,-2.21495 2.5314,-7.59411 7.5941,-12.65684 5.0628,-4.7463 12.6569,-9.1762 24.3645,-9.1762 l 0,35.43913"
               style="font-variant:normal;font-stretch:normal;font-family:League Gothic;-inkscape-font-specification:League Gothic"
               id="path4613" />
            <path
               d="m 1268.1359,-529.74705 31.9585,0 0,173.08219 -31.9585,0 0,-14.55535 c -0.6329,0.31642 -1.8986,1.5821 -3.4807,3.1642 -3.797,3.79705 -8.2269,8.22695 -13.9225,11.39115 -2.8478,1.58211 -5.6956,2.53137 -8.5434,2.53137 -8.5433,0 -14.5553,-5.06274 -18.3524,-11.70757 -3.797,-6.32841 -5.6955,-14.87179 -5.6955,-22.14946 l 0,-141.75653 31.9585,0 0,137.01022 c 0,6.64483 3.797,7.5941 7.5941,7.5941 3.4806,0 5.3791,-1.89853 7.5941,-4.11347 0.9492,-0.94926 1.8985,-2.53137 2.8478,-4.11347 l 0,-136.37738"
               style="font-variant:normal;font-stretch:normal;font-family:League Gothic;-inkscape-font-specification:League Gothic"
               id="path4615" />
            <path
               d="m 1406.377,-356.66486 -31.9585,0 0,-11.39115 c -5.3791,5.06273 -10.1254,8.85979 -16.1374,11.70757 -3.1642,1.58211 -6.3284,2.21495 -9.1762,2.21495 -8.8598,0 -14.8718,-5.06274 -18.6689,-11.70757 -4.1134,-6.32841 -6.012,-14.87179 -6.012,-22.14946 l 0,-110.43087 c 0,-7.27767 1.8986,-15.82105 6.012,-22.46588 3.7971,-6.32841 9.8091,-11.39115 18.6689,-11.39115 6.012,0 12.3404,3.48063 17.0867,6.96126 2.8478,2.21494 5.3792,4.42989 8.2269,6.96126 l 0,-70.87827 31.9585,0 0,232.56931 m -31.9585,-135.11169 c 0,-5.06273 -4.7463,-10.44189 -9.4926,-10.44189 -4.7463,0 -8.5433,4.4299 -8.5433,10.44189 l 0,97.14119 c 0,6.01199 3.797,10.44189 8.5433,10.44189 4.7463,0 9.4926,-4.4299 9.4926,-10.44189 l 0,-97.14119"
               style="font-variant:normal;font-stretch:normal;font-family:League Gothic;-inkscape-font-specification:League Gothic"
               id="path4617" />
            <path
               d="m 1511.0927,-398.74883 c -0.9493,16.77029 -6.012,28.47789 -17.0868,37.65408 -5.6955,4.74631 -13.6061,6.96126 -24.0479,6.96126 -20.5674,0 -30.6929,-11.39116 -35.7556,-22.7823 -2.8478,-6.64483 -4.7463,-14.23895 -5.0627,-22.7823 l 0,-87.01573 c 0.9492,-16.77029 6.012,-29.11073 17.0867,-38.60334 5.3791,-4.74631 13.2897,-6.96126 23.7316,-6.96126 20.5673,0 31.0092,11.39116 36.0719,22.46588 2.8478,6.64483 4.7463,13.92252 5.0628,22.14946 l 0,88.91425 m -30.06,-87.96499 c 0.3164,-6.64483 -0.9493,-11.39115 -4.1135,-15.1882 -1.5821,-1.5821 -4.1135,-2.53137 -6.9612,-2.53137 -6.012,0 -8.5434,4.11348 -9.8091,8.85979 -0.9492,2.53136 -1.2657,5.37915 -0.9492,8.85978 l 0,87.01573 c -0.3165,6.64483 1.2656,11.39115 4.1134,14.87178 1.5821,1.5821 3.7971,2.53137 6.6449,2.53137 6.012,0 8.8597,-3.79706 10.1254,-8.54337 0.9493,-2.53136 1.2657,-5.37915 0.9493,-8.85978 l 0,-87.01573"
               style="font-variant:normal;font-stretch:normal;font-family:League Gothic;-inkscape-font-specification:League Gothic"
               id="path4619" />
          </g>
          <g
             transform="matrix(-0.94534379,-0.33261832,0.33119094,-0.94128701,0,0)"
             style="font-size:172.54058838px;font-style:normal;font-weight:normal;line-height:125%;letter-spacing:0px;word-spacing:0px;fill:#000000;fill-opacity:1;stroke:none;font-family:Sans"
             id="text4358">
            <path
               d="m -129.10446,-653.21143 19.15201,-126.81733 22.775354,0 19.152006,126.81733 -18.116762,0 -3.450812,-25.88108 -17.944226,0 -3.45081,25.88108 -18.11676,0 m 31.574929,-85.58013 -0.517622,-3.27827 -1.035243,0 -0.517622,3.27827 -5.348762,40.02942 12.768007,0 -5.348758,-40.02942"
               style="font-variant:normal;font-stretch:normal;font-family:League Gothic;-inkscape-font-specification:League Gothic"
               id="path4622" />
            <path
               d="m -33.163801,-725.16085 c 0,-1.55286 0,-3.96844 -0.517621,-5.69384 -0.690162,-1.7254 -2.07049,-2.93319 -4.313515,-2.93319 -2.933187,0 -4.140975,2.24303 -4.658596,5.00368 -0.17254,1.38032 -0.345081,2.93319 -0.345081,4.48605 0,1.55287 0,3.10573 0,4.48606 l -17.4266,0 0,-3.96844 c 0,-6.90161 2.588113,-13.11309 6.729083,-17.77168 4.14097,-4.65859 10.007361,-7.41924 16.736437,-7.41924 5.693834,0 10.870061,2.24303 14.838491,6.03892 3.96843,3.79589 6.384002,9.14466 6.384002,15.35611 l 0,57.97364 c 0,8.45448 0.517622,12.25038 1.207784,16.39135 l -17.081518,0 c -1.552864,-1.89794 -1.552866,-6.384 -1.552866,-7.59178 l -1.207784,0 c -0.862702,1.55286 -2.41557,3.79589 -4.831136,5.69384 -2.415566,1.89794 -5.693843,3.27827 -9.144651,3.27827 -2.243026,0 -5.866383,-0.86271 -8.62703,-4.31352 -2.933187,-3.27826 -5.348758,-9.14466 -5.348758,-18.97946 0,-10.52497 3.105735,-18.11677 7.246705,-23.29298 4.14097,-5.17621 9.317196,-8.45449 13.630706,-10.69752 4.31351,-2.24302 7.591787,-3.79589 8.281948,-5.69384 l 0,-10.35243 m 0,26.39871 c -8.45448,3.62335 -12.077841,12.07785 -12.077841,21.04995 0,1.20778 0.172541,3.27827 0.862703,5.17622 0.690162,2.07048 1.897949,3.62335 3.968434,3.62335 3.968429,0 7.246704,-2.41557 7.246704,-5.69384 l 0,-24.15568"
               style="font-variant:normal;font-stretch:normal;font-family:League Gothic;-inkscape-font-specification:League Gothic"
               id="path4624" />
            <path
               d="m 30.220597,-729.64691 c -1.552864,-0.51762 -3.278273,-0.69016 -4.831137,-0.69016 -2.760646,0 -6.038923,0.34508 -8.79957,2.93319 -3.278267,2.76065 -3.795893,5.69384 -3.795893,8.62703 l 0,65.56542 -17.4265989,0 0,-94.3797 17.4265989,0 0,10.52498 c 0.172541,-1.20778 1.380328,-4.14098 4.140975,-6.90163 2.760646,-2.5881 6.90163,-5.00367 13.285625,-5.00367 l 0,19.32454"
               style="font-variant:normal;font-stretch:normal;font-family:League Gothic;-inkscape-font-specification:League Gothic"
               id="path4626" />
            <path
               d="m 80.289731,-676.15932 c -0.517621,9.14464 -3.278277,15.52865 -9.317192,20.53233 -3.105727,2.5881 -7.419251,3.79589 -13.113085,3.79589 -11.215127,0 -16.736439,-6.21147 -19.497086,-12.42292 -1.552864,-3.62335 -2.588109,-7.76433 -2.76065,-12.42293 l 0,-47.44866 c 0.517622,-9.14464 3.278278,-15.87374 9.317192,-21.04995 2.933187,-2.58811 7.246711,-3.79589 12.940544,-3.79589 11.215127,0 16.908981,6.21146 19.669627,12.25038 1.552864,3.62335 2.588109,7.59179 2.76065,12.07784 l 0,48.48391 m -16.391356,-47.96629 c 0.17254,-3.62335 -0.517624,-6.21146 -2.243028,-8.28195 -0.862702,-0.8627 -2.243029,-1.38032 -3.795893,-1.38032 -3.278268,0 -4.658596,2.24303 -5.348758,4.83114 -0.517621,1.38032 -0.690162,2.93319 -0.517622,4.83113 l 0,47.44866 c -0.17254,3.62335 0.690164,6.21147 2.243028,8.10941 0.862702,0.8627 2.070489,1.38033 3.623352,1.38033 3.278268,0 4.831138,-2.07049 5.521299,-4.6586 0.517621,-1.38032 0.690162,-2.93319 0.517622,-4.83114 l 0,-47.44866"
               style="font-variant:normal;font-stretch:normal;font-family:League Gothic;-inkscape-font-specification:League Gothic"
               id="path4628" />
            <path
               d="m 109.51108,-653.21143 -17.426595,0 0,-94.3797 17.426595,0 0,7.93687 c 0.34509,-0.17254 1.03525,-0.8627 2.07049,-1.89795 1.89795,-1.89794 4.48606,-4.48605 7.59179,-6.21146 1.55286,-0.8627 2.93319,-1.20778 4.48605,-1.20778 4.65859,0 7.93687,2.76065 10.00736,6.21146 2.07048,3.62335 3.10573,8.28195 3.10573,12.25038 l 0,77.29818 -17.4266,0 0,-74.71007 c 0,-3.62335 -2.07049,-4.14097 -4.14098,-4.14097 -1.89794,0 -2.93319,1.03524 -4.14097,2.24302 -0.51762,0.69016 -1.03524,1.38033 -1.55287,2.24303 l 0,74.36499"
               style="font-variant:normal;font-stretch:normal;font-family:League Gothic;-inkscape-font-specification:League Gothic"
               id="path4630" />
            <path
               d="m 207.89158,-746.03826 c 0,-4.14097 -0.17254,-8.79958 -1.38032,-12.42292 -1.20778,-3.45081 -3.10574,-5.86638 -6.03892,-5.86638 -4.83113,0.17254 -6.384,5.17622 -6.384,12.59546 0,4.31351 1.89795,8.79957 4.65859,13.6307 2.76065,4.83114 6.38401,9.83482 10.00736,15.18358 4.31351,6.38399 8.62703,12.94055 11.9053,19.32454 3.27826,6.384 5.5213,12.94055 5.5213,19.84217 0,8.45448 -1.38033,16.39136 -5.34876,22.25774 -3.96843,5.86637 -10.35245,9.66227 -20.53233,9.66227 -11.90529,0 -18.63439,-4.48606 -22.43028,-11.38768 -3.79589,-6.90162 -4.6586,-16.04628 -4.6586,-25.53601 l 18.28931,-1.7254 c 0,5.34875 0.17254,10.69752 1.55286,14.66595 1.20779,4.14097 3.27828,6.90162 7.24671,6.90162 5.52129,0 7.59178,-5.86639 7.59178,-13.97579 0,-4.14097 -2.07049,-8.97211 -4.83113,-13.97578 -1.55287,-2.41557 -3.10574,-5.00368 -4.83114,-7.59179 -3.62335,-5.17621 -7.59179,-11.0426 -11.73276,-17.4266 -4.14097,-6.384 -7.24671,-12.94055 -9.14465,-19.66963 -1.03524,-3.27826 -1.55287,-6.72908 -1.55287,-10.17989 0,-6.90162 1.55287,-14.32088 5.5213,-20.01471 3.96843,-5.52129 10.00737,-9.48973 18.80693,-9.66227 11.21512,-0.17254 17.77168,4.48606 21.39503,11.21514 3.62335,6.90161 4.6586,15.35611 4.6586,22.43027 l -18.28931,1.72541"
               style="font-variant:normal;font-stretch:normal;font-family:League Gothic;-inkscape-font-specification:League Gothic"
               id="path4632" />
            <path
               d="m 275.48435,-653.21143 -6.72908,-45.03309 -0.8627,-5.34876 -0.69017,0 -0.8627,5.34876 -6.72908,45.03309 -14.49341,0 -13.97579,-94.3797 15.87374,0 5.52129,49.34661 0.69017,5.34876 1.03524,0 0.8627,-5.34876 7.24671,-49.34661 10.35243,0 7.24671,49.34661 0.8627,5.34876 1.03524,0 0.69017,-5.34876 5.5213,-49.34661 15.87373,0 -13.97579,94.3797 -14.49341,0"
               style="font-variant:normal;font-stretch:normal;font-family:League Gothic;-inkscape-font-specification:League Gothic"
               id="path4634" />
            <path
               d="m 337.52888,-725.16085 c 0,-1.55286 0,-3.96844 -0.51762,-5.69384 -0.69016,-1.7254 -2.07049,-2.93319 -4.31352,-2.93319 -2.93318,0 -4.14097,2.24303 -4.65859,5.00368 -0.17254,1.38032 -0.34508,2.93319 -0.34508,4.48605 0,1.55287 0,3.10573 0,4.48606 l -17.4266,0 0,-3.96844 c 0,-6.90161 2.58811,-13.11309 6.72908,-17.77168 4.14097,-4.65859 10.00736,-7.41924 16.73644,-7.41924 5.69383,0 10.87006,2.24303 14.83849,6.03892 3.96843,3.79589 6.384,9.14466 6.384,15.35611 l 0,57.97364 c 0,8.45448 0.51762,12.25038 1.20778,16.39135 l -17.08152,0 c -1.55286,-1.89794 -1.55286,-6.384 -1.55286,-7.59178 l -1.20778,0 c -0.86271,1.55286 -2.41558,3.79589 -4.83114,5.69384 -2.41557,1.89794 -5.69384,3.27827 -9.14465,3.27827 -2.24303,0 -5.86638,-0.86271 -8.62703,-4.31352 -2.93319,-3.27826 -5.34876,-9.14466 -5.34876,-18.97946 0,-10.52497 3.10573,-18.11677 7.2467,-23.29298 4.14097,-5.17621 9.3172,-8.45449 13.63071,-10.69752 4.31351,-2.24302 7.59179,-3.79589 8.28195,-5.69384 l 0,-10.35243 m 0,26.39871 c -8.45448,3.62335 -12.07784,12.07785 -12.07784,21.04995 0,1.20778 0.17254,3.27827 0.8627,5.17622 0.69016,2.07048 1.89795,3.62335 3.96843,3.62335 3.96843,0 7.24671,-2.41557 7.24671,-5.69384 l 0,-24.15568"
               style="font-variant:normal;font-stretch:normal;font-family:League Gothic;-inkscape-font-specification:League Gothic"
               id="path4636" />
            <path
               d="m 400.91327,-729.64691 c -1.55286,-0.51762 -3.27827,-0.69016 -4.83114,-0.69016 -2.76064,0 -6.03892,0.34508 -8.79957,2.93319 -3.27826,2.76065 -3.79589,5.69384 -3.79589,8.62703 l 0,65.56542 -17.4266,0 0,-94.3797 17.4266,0 0,10.52498 c 0.17254,-1.20778 1.38033,-4.14098 4.14097,-6.90163 2.76065,-2.5881 6.90163,-5.00367 13.28563,-5.00367 l 0,19.32454"
               style="font-variant:normal;font-stretch:normal;font-family:League Gothic;-inkscape-font-specification:League Gothic"
               id="path4638" />
            <path
               d="m 429.57117,-770.88411 0,23.29298 11.9053,0 0,15.7012 -11.9053,0 0,46.93104 c 0,2.93318 0,6.72908 0.69017,9.83481 0.69016,3.10573 2.07049,5.69384 4.83113,5.69384 1.38033,0 3.10573,-0.17254 4.31352,-0.34508 0.69016,-0.17254 1.38032,-0.17254 2.07048,-0.34508 l 0,17.08151 c -0.8627,0.17255 -1.7254,0.51763 -2.5881,0.69017 -1.72541,0.34508 -3.96844,0.51762 -6.72909,0.51762 -10.17988,0 -15.01103,-5.17623 -17.4266,-11.73276 -2.41556,-6.55654 -2.58811,-14.49342 -2.58811,-20.01471 l 0,-48.31136 -8.79957,0 0,-15.7012 8.79957,0 0,-23.29298 17.4266,0"
               style="font-variant:normal;font-stretch:normal;font-family:League Gothic;-inkscape-font-specification:League Gothic"
               id="path4640" />
            <path
               d="m 445.78997,-667.35975 23.98315,-64.35764 -20.18725,0 0,-15.87374 38.64909,0 0,14.14833 -23.98314,64.35764 23.98314,0 0,15.87373 -42.44499,0 0,-14.14832"
               style="font-variant:normal;font-stretch:normal;font-family:League Gothic;-inkscape-font-specification:League Gothic"
               id="path4642" />
          </g>
        </g>
      </g>
    </g>
    <g
       style="font-size:41.04612732px;font-style:normal;font-weight:normal;line-height:125%;letter-spacing:0px;word-spacing:0px;fill:#000000;fill-opacity:1;stroke:none;font-family:Sans"
       id="text3286" />
  </g>
</svg>
