<?xml version="1.0" encoding="UTF-8" standalone="no"?>
<!-- Created with Inkscape (http://www.inkscape.org/) -->

<svg
   xmlns:dc="http://purl.org/dc/elements/1.1/"
   xmlns:cc="http://creativecommons.org/ns#"
   xmlns:rdf="http://www.w3.org/1999/02/22-rdf-syntax-ns#"
   xmlns:svg="http://www.w3.org/2000/svg"
   xmlns="http://www.w3.org/2000/svg"
   xmlns:sodipodi="http://sodipodi.sourceforge.net/DTD/sodipodi-0.dtd"
   xmlns:inkscape="http://www.inkscape.org/namespaces/inkscape"
   width="372.04724"
   height="524.40942"
   id="svg3206"
   version="1.1"
   inkscape:version="0.48.4 r9939"
   sodipodi:docname="Documento nuevo 2">
  <defs
     id="defs3208" />
  <sodipodi:namedview
     id="base"
     pagecolor="#ffffff"
     bordercolor="#666666"
     borderopacity="1.0"
     inkscape:pageopacity="0.0"
     inkscape:pageshadow="2"
     inkscape:zoom="0.98994949"
     inkscape:cx="374.3882"
     inkscape:cy="184.80777"
     inkscape:document-units="mm"
     inkscape:current-layer="layer1"
     showgrid="false"
     units="mm"
     inkscape:window-width="1024"
     inkscape:window-height="714"
     inkscape:window-x="0"
     inkscape:window-y="30"
     inkscape:window-maximized="1" />
  <metadata
     id="metadata3211">
    <rdf:RDF>
      <cc:Work
         rdf:about="">
        <dc:format>image/svg+xml</dc:format>
        <dc:type
           rdf:resource="http://purl.org/dc/dcmitype/StillImage" />
        <dc:title></dc:title>
      </cc:Work>
    </rdf:RDF>
  </metadata>
  <g
     inkscape:label="Capa 1"
     inkscape:groupmode="layer"
     id="layer1"
     transform="translate(0,-527.95274)">
    <rect
       y="527.95276"
       x="0"
       height="524.40942"
       width="372.04724"
       id="rect3033"
       style="fill:#222222;fill-opacity:1" />
    <g
       id="g4077"
       transform="matrix(0.22676655,0,0,0.22774387,222.5673,851.41592)">
      <g
         inkscape:export-ydpi="149"
         inkscape:export-xdpi="149"
         inkscape:export-filename="/srv/http/kiwwwi.com.ar/pastes/utopia-pirata-2.png"
         id="g3851"
         transform="matrix(0.67937345,0,0,0.67937345,-35.215221,207.58407)">
        <path
           d="m 910.84122,610.02908 c -15,21 -31.266,38.794 -49,60 l -24,27 c -20,19 -70,56 -93,71 -13,9 -27,16 -41,22 l -18.26,8.84 c 3,3 8.58,4.641 13.629,7 3,0 13.631,-5.84 16.631,-7.84 l 32,-18 c 6,-4 12,-9 19,-10 -3,7 -10,11 -17,15 l -19,11 c 0,0 -19.951,11.37 -22.68,13.26 5.469,2.16 13.68,4.641 18.889,6.74 5,0 11.791,-5 15.791,-7 11,-6 25,-15 36,-23 l 18,-12 c 14,-11 28,-23 41,-36 10,-9 20,-18 28,-29 11,-13 18,-28 26,-43 9,-14 12,-23 17,-38 1,-5 4,-13 2,-18 z"
           id="path719"
           inkscape:connector-curvature="0"
           style="fill:#ffffff;stroke:#000000;stroke-width:1" />
        <path
           d="m 451.84122,605.02908 c -3,11 1,24 5,34 9,24 24,45 39,65 9,13 24,29 35,40 l 12,10 26,23 c 21,16 60,40 84,51 l 32,14 13,5 c 15,6 30,10 46,13 9,2 19,5 28,5 -3,-11 -9,-10 -18,-13 l -33,-13 c -46,-19 -97,-38 -133,-74 7,0 12,6 17,10 7,5 16,11 24,16 22,13 72,36 97,45 10,4 27,11 37,11 8,1 19,-4 25,-8 -4,-4 -8,-3 -14,-4 l -31,-9 c -27,-7 -53,-17 -78,-30 l -14,-6 -19,-12 -23,-15 -24,-19 -41,-32 -38,-39 -19,-22 -20,-22 -15,-24 z"
           id="path725"
           inkscape:connector-curvature="0"
           style="fill:#ffffff;stroke:#000000;stroke-width:1" />
        <path
           d="m 772.84122,852.02908 c 2,4 6,10 6,15 0,11 -13,21 -23,20 -4,-1 -13,-6 -16,0 -1,2 -1,4 0,5 0,4 5,6 9,8 11,3 23,-1 32,-7 7,-4 12,-11 14,-19 l 2,-13 c 1,-4 5,-5 10,-12 6,-8 12,-22 20,-28 3,-2 6,-3 10,-4 -2,-3 -4,-5 -6,-8 -2,-1 -4,-3 -6,-3 -3,-1 -7,-1 -10,1 -14,7 -11,20 -19,30 -6,8 -13,12 -23,15 z"
           id="path731"
           inkscape:connector-curvature="0"
           style="fill:#ffffff;stroke:#000000;stroke-width:1" />
        <path
           d="m 804.84122,865.02908 c 7,3 13,2 20,2 l 15,1 c 7,0 9,-4 12,-10 1,-2 2,-6 0,-8 -2,-2 -6,-2 -9,-2 l -17,1 c -3,0 -8,0 -11,1 -5,3 -9,10 -10,15 z"
           id="path737"
           inkscape:connector-curvature="0"
           style="fill:#ffffff;stroke:#000000;stroke-width:1" />
        <path
           d="m 858.84122,879.02908 c -5,-2 -8,-4 -11,-8 -1,1 -2,1 -3,2 -1,5 12,17 14,6 z"
           id="path743"
           inkscape:connector-curvature="0"
           style="fill:#ffffff;stroke:#000000;stroke-width:1" />
        <path
           d="m 851.84122,845.02908 8,5 c -2,4 -7,12 -6,17 1,10 15,10 21,4 7,-8 7,-20 -3,-26 -6,-3 -13,-2 -20,0 z"
           id="path744"
           inkscape:connector-curvature="0"
           style="fill:#ffffff;stroke:#000000;stroke-width:1" />
        <path
           d="m 492.84122,873.02908 1,1 c 8,-2 13,-5 14,-13 -6,1 -12,7 -15,12 z"
           id="selection_x5F_to_x5F_path_x23_5"
           inkscape:connector-curvature="0"
           style="fill:#ffffff;stroke:#000000;stroke-width:1" />
        <path
           d="m 499.84122,836.02908 c -3,-2 -6,-3 -10,-3 -3,0 -6,0 -9,1 -10,4 -11,20 -3,27 4,4 14,6 18,1 4,-4 3,-9 1,-14 -1,-3 -3,-7 -1,-9 1,-2 3,-2 4,-3 z"
           id="selection_x5F_to_x5F_path_x23_4"
           inkscape:connector-curvature="0"
           style="fill:#ffffff;stroke:#000000;stroke-width:1" />
        <path
           d="m 498.84122,840.02908 c 1,3 6,15 8,17 3,2 6,2 9,2 l 18,-1 h 13 c 0,-3 0,-6 -1,-8 -3,-8 -14,-12 -22,-12 l -9,1 c -6,0 -11,-1 -16,1 z"
           id="selection_x5F_to_x5F_path_x23_3"
           inkscape:connector-curvature="0"
           style="fill:#ffffff;stroke:#000000;stroke-width:1" />
        <path
           d="m 517.84122,808.02908 c 19,5 19,21 27,32 3,4 11,10 12,14 1,3 0,4 1,11 2,9 8,18 16,23 9,6 17,10 28,7 6,-2 12,-6 9,-13 -3,-7 -14,0 -21,-2 -7,-3 -15,-13 -15,-21 l 4,-14 c -11,-4 -24,-13 -29,-24 -3,-7 -3,-17 -8,-22 -9,-7 -21,-1 -24,9 z"
           id="selection_x5F_to_x5F_path_x23_2"
           inkscape:connector-curvature="0"
           style="fill:#ffffff;stroke:#000000;stroke-width:1" />
        <path
           d="m 565.84122,831.02908 c 3,4 5,5 9,7 14,8 23,2 37,-1 l 29,-9 c -3.84,-2.58 -12.42,-7.95 -16,-10 l -19,5 -40,8 z"
           id="path758"
           inkscape:connector-curvature="0"
           style="fill:#ffffff;stroke:#000000;stroke-width:1" />
        <path
           d="m 579.84122,860.02908 c 26,0 50,-8 75,-14 0,0 11,-5.206 14.676,-5.206 -3.47,-2.529 -17.622,-7.638 -19.836,-9.634 -3,0.89 -14.84,4.84 -18.84,5.84 l -25,7 -12,3 c -7,3 -12,4 -14,13 z"
           id="path759"
           inkscape:connector-curvature="0"
           style="fill:#ffffff;stroke:#000000;stroke-width:1" />
      </g>
      <circle
         transform="matrix(0.67937348,0,0,0.67937344,172.06628,463.24141)"
         d="m 483.822,156.03101 c 0,59.52249 -48.25251,107.775 -107.775,107.775 -59.52249,0 -107.775,-48.25251 -107.775,-107.775 0,-59.522494 48.25251,-107.775006 107.775,-107.775006 59.52249,0 107.775,48.252512 107.775,107.775006 z"
         style="fill:none;stroke:#ffffff;stroke-width:20"
         sodipodi:ry="107.775"
         sodipodi:rx="107.775"
         sodipodi:cy="156.03101"
         sodipodi:cx="376.047"
         cx="376.047"
         cy="156.03101"
         r="107.775"
         id="circle3807" />
      <path
         transform="matrix(0.67937348,0,0,0.67937344,-233.93429,225.03699)"
         style="fill:#ffffff"
         inkscape:connector-curvature="0"
         d="m 972.7768,439.2957 c -31.919,0 -58.663,22.231 -65.598,52.05 h 32.187 c 5.808,-12.648 18.59,-21.432 33.411,-21.432 20.282,0 36.742,16.46 36.742,36.741 0,20.281 -16.46,36.742 -36.742,36.742 -14.821,0 -27.604,-8.785 -33.411,-21.433 h -32.187 c 6.935,29.819 33.679,52.05 65.598,52.05 37.183,0 67.359,-30.177 67.359,-67.359 0,-37.182 -30.177,-67.359 -67.359,-67.359 z"
         id="path3809" />
      <g
         inkscape:export-ydpi="149"
         inkscape:export-xdpi="149"
         inkscape:export-filename="/srv/http/kiwwwi.com.ar/pastes/utopia-pirata-2.png"
         id="text3059"
         style="font-size:121.8484726px;font-style:normal;font-weight:normal;line-height:125%;letter-spacing:0px;word-spacing:0px;fill:#ffffff;fill-opacity:1;stroke:none;font-family:Bitstream Vera Sans"
         transform="matrix(-0.72702905,0.19480685,-0.19480685,-0.72702905,-611.71218,-436.375)">
        <g
           transform="matrix(0.99707364,-0.07644708,0.07644708,0.99707364,125.06749,-81.555005)"
           id="g3922">
          <path
             transform="matrix(-0.8718552,-0.2336129,0.2336129,-0.8718552,-1786.4657,-3244.8873)"
             d="m -1183.8988,-1543.7299 c 0,70.2944 -56.9848,127.2793 -127.2792,127.2793 -70.2944,0 -127.2792,-56.9849 -127.2792,-127.2793 0,-70.2943 56.9848,-127.2792 127.2792,-127.2792 70.2944,0 127.2792,56.9849 127.2792,127.2792 z"
             sodipodi:ry="127.27922"
             sodipodi:rx="127.27922"
             sodipodi:cy="-1543.7299"
             sodipodi:cx="-1311.178"
             id="path3865"
             style="fill:none;stroke:none"
             sodipodi:type="arc"
             inkscape:export-filename="/srv/http/kiwwwi.com.ar/pastes/utopia-pirata-1.png"
             inkscape:export-xdpi="149"
             inkscape:export-ydpi="149" />
          <path
             d="m -778.04883,-1594.9487 -70.08465,-12.3215 c -3.57914,-0.7529 -6.69277,-2.0426 -9.22087,-3.848 -2.21027,-1.502 -4.19505,-3.583 -5.5732,-6.2996 -1.49816,-2.7377 -2.00858,-6.1679 -1.24904,-10.4881 0.75954,-4.3203 2.43037,-7.4907 4.77246,-9.5532 2.22209,-2.0837 4.77652,-3.243 7.36656,-3.9011 2.99226,-0.8348 6.35907,-0.9852 9.98041,-0.4723 l 70.08465,12.3215 -2.27862,12.9608 -70.08465,-12.3214 c -2.52017,-0.4431 -4.30577,-0.1384 -5.83684,0.8296 -0.70553,0.4946 -1.21325,1.2713 -1.40313,2.3514 -0.40087,2.2801 0.84934,3.6134 2.56507,4.4099 0.77676,0.5077 1.83573,0.8176 3.15582,1.0497 l 70.08465,12.3214 -2.27862,12.9609"
             style="font-style:normal;font-variant:normal;font-weight:normal;font-stretch:normal;fill:#ffffff;font-family:League Gothic;-inkscape-font-specification:League Gothic"
             id="path3897"
             inkscape:connector-curvature="0" />
          <path
             d="m -801.09593,-1568.8963 11.85811,6.5051 -18.28444,33.3309 -11.85812,-6.5051 5.97761,-10.8966 -66.66184,-36.5689 6.32923,-11.5376 66.66184,36.5689 5.97761,-10.8967"
             style="font-style:normal;font-variant:normal;font-weight:normal;font-stretch:normal;fill:#ffffff;font-family:League Gothic;-inkscape-font-specification:League Gothic"
             id="path3899"
             inkscape:connector-curvature="0" />
          <path
             d="m -902.22684,-1531.2768 c -2.40064,-2.7594 -4.10625,-5.6661 -5.0338,-8.6309 -0.857,-2.5312 -1.18494,-5.3882 -0.64563,-8.3863 0.45632,-3.0873 2.1181,-6.1311 5.32973,-9.1189 3.21164,-2.9879 6.45655,-4.5088 9.56871,-4.7413 3.02918,-0.3218 5.76585,0.2943 8.22867,1.3316 2.89022,1.139 5.66638,3.0497 8.24545,5.6431 l 35.93698,38.6289 c 2.31765,2.6701 4.02326,5.5768 4.95082,8.5417 0.85699,2.5312 1.35714,5.3944 0.81783,8.3924 -0.53932,2.9981 -2.20731,6.2141 -5.41895,9.202 -3.21163,2.9878 -6.45032,4.3365 -9.47949,4.6583 -3.02918,0.3217 -5.93806,-0.3006 -8.40087,-1.3379 -2.89023,-1.1389 -5.66638,-3.0497 -8.16246,-5.5539 l -35.93699,-38.6288 m 45.57191,29.6653 c 1.65991,1.7843 3.1787,2.7013 5.06676,2.9419 0.86104,0.031 1.82372,-0.3653 2.62663,-1.1122 1.69503,-1.5769 1.33601,-3.5729 0.61392,-5.0646 -0.39633,-0.9627 -1.05407,-1.8486 -1.88403,-2.7407 l -35.93698,-38.6289 c -1.74291,-1.8735 -3.35091,-2.7075 -5.15597,-2.8588 -0.86104,-0.031 -1.73451,0.2822 -2.53742,1.0292 -1.69503,1.5769 -1.502,3.3944 -0.61392,5.0645 0.31333,0.8735 0.97108,1.7594 1.88402,2.7408 l 35.93699,38.6288"
             style="font-style:normal;font-variant:normal;font-weight:normal;font-stretch:normal;fill:#ffffff;font-family:League Gothic;-inkscape-font-specification:League Gothic"
             id="path3901"
             inkscape:connector-curvature="0" />
          <path
             d="m -886.59996,-1457.8116 -12.05827,5.2702 c -5.24757,2.2934 -11.08073,3.2471 -16.75926,1.2077 -5.67853,-2.0394 -11.09081,-7.1207 -15.18979,-16.4994 -4.09898,-9.3786 -4.10323,-16.6905 -1.74292,-22.2434 2.3603,-5.5528 6.92473,-9.4094 12.1723,-11.7029 l -14.34645,-32.8252 12.05826,-5.2702 35.86613,82.0632 m -28.21022,-31.6862 c -3.68447,1.6103 -5.73635,3.305 -6.2466,5.7886 -0.55905,2.372 0.42353,5.5329 2.42423,10.1106 2.00069,4.5777 3.75077,7.6692 5.96893,9.0933 2.21816,1.4242 4.95321,1.2926 8.63767,-0.3177 l -10.78423,-24.6748"
             style="font-style:normal;font-variant:normal;font-weight:normal;font-stretch:normal;fill:#ffffff;font-family:League Gothic;-inkscape-font-specification:League Gothic"
             id="path3903"
             inkscape:connector-curvature="0" />
          <path
             d="m -948.99443,-1436.6047 -13.00674,2.0001 -13.61231,-88.5181 13.00674,-2.0001 13.61231,88.5181"
             style="font-style:normal;font-variant:normal;font-weight:normal;font-stretch:normal;fill:#ffffff;font-family:League Gothic;-inkscape-font-specification:League Gothic"
             id="path3905"
             inkscape:connector-curvature="0" />
          <path
             d="m -981.75508,-1521.0222 -23.62102,87.4398 -15.9797,-1.8289 -3.2539,-90.5157 12.7111,1.4548 0.3429,18.4359 12.59007,1.4409 4.49944,-17.8816 12.71111,1.4548 m -29.02582,57.5093 0.1,2.3417 0.7264,0.083 0.6264,-2.2585 6.9672,-27.656 -8.9583,-1.0253 0.5384,28.515"
             style="font-style:normal;font-variant:normal;font-weight:normal;font-stretch:normal;fill:#ffffff;font-family:League Gothic;-inkscape-font-specification:League Gothic"
             id="path3907"
             inkscape:connector-curvature="0" />
          <path
             d="m -1099.1166,-1462.6292 -10.788,-7.5362 c -4.6948,-3.2797 -8.5522,-7.758 -9.7757,-13.6663 -1.2235,-5.9083 0.2868,-13.1768 6.1483,-21.5675 5.8615,-8.3906 12.0967,-12.2098 18.0653,-13.094 5.9685,-0.8841 11.6402,0.9971 16.335,4.2767 l 20.5152,-29.3674 10.7881,7.5362 -51.2882,73.4185 m 12.3091,-40.5995 c -3.2963,-2.3027 -5.8127,-3.1688 -8.1976,-2.308 -2.3152,0.7609 -4.4989,3.2485 -7.3599,7.344 -2.8609,4.0954 -4.5849,7.2016 -4.6423,9.8369 -0.057,2.6354 1.4821,4.8999 4.7784,7.2026 l 15.4214,-22.0755"
             style="font-style:normal;font-variant:normal;font-weight:normal;font-stretch:normal;fill:#ffffff;font-family:League Gothic;-inkscape-font-specification:League Gothic"
             id="path3909"
             inkscape:connector-curvature="0" />
          <path
             d="m -1149.6319,-1504.5948 -8.5195,-10.0296 68.2572,-57.9801 8.5196,10.0296 -68.2573,57.9801"
             style="font-style:normal;font-variant:normal;font-weight:normal;font-stretch:normal;fill:#ffffff;font-family:League Gothic;-inkscape-font-specification:League Gothic"
             id="path3911"
             inkscape:connector-curvature="0" />
          <path
             d="m -1106.4208,-1601.3444 -31.2348,22.3102 1.5099,3.1948 34.1507,-16.1412 5.6233,11.8977 -80.97,38.2701 -5.6234,-11.8977 c -6.7168,-14.211 -1.5386,-24.071 13.7741,-31.3085 8.0419,-3.8009 16.302,-5.1443 21.5214,-2.0855 l 35.6254,-26.1376 5.6234,11.8977 m -40.7412,30.7118 c -0.781,-1.6525 -2.0427,-3.7516 -4.4181,-4.7852 -2.3754,-1.0337 -6.0267,-1.06 -11.7551,1.6476 -5.7285,2.7075 -8.1362,5.5975 -8.8454,8.0891 -0.7092,2.4916 0.222,4.7469 1.003,6.3994 l 24.0156,-11.3509"
             style="font-style:normal;font-variant:normal;font-weight:normal;font-stretch:normal;fill:#ffffff;font-family:League Gothic;-inkscape-font-specification:League Gothic"
             id="path3913"
             inkscape:connector-curvature="0" />
          <path
             d="m -1113.2219,-1617.132 -90.458,-4.5863 -1.5934,-16.0049 87.7782,-22.331 1.2675,12.7311 -17.946,4.2357 1.2554,12.6099 18.4288,0.6143 1.2675,12.7312 m -62.3486,-16.2013 -2.2675,0.5931 0.072,0.7275 2.34,0.1344 28.504,0.9582 -0.8933,-8.9724 -27.7556,6.5592"
             style="font-style:normal;font-variant:normal;font-weight:normal;font-stretch:normal;fill:#ffffff;font-family:League Gothic;-inkscape-font-specification:League Gothic"
             id="path3915"
             inkscape:connector-curvature="0" />
          <path
             d="m -1191.1447,-1674.8241 -13.2316,-2.8027 7.8779,-37.1915 13.2316,2.8027 -2.5754,12.1588 74.383,15.7558 -2.727,12.874 -74.383,-15.7558 -2.5755,12.1587"
             style="font-style:normal;font-variant:normal;font-weight:normal;font-stretch:normal;fill:#ffffff;font-family:League Gothic;-inkscape-font-specification:League Gothic"
             id="path3917"
             inkscape:connector-curvature="0" />
          <path
             d="m -1109.3262,-1695.6338 -70.438,-56.94 8.1301,-13.8779 84.1114,33.5999 -6.4672,11.0393 -17.0021,-7.1361 -6.4056,10.9341 14.5385,11.3415 -6.4671,11.0392 m -40.876,-49.7893 -2.1823,-0.8549 -0.3696,0.6309 1.8128,1.4856 22.4821,17.5485 4.5578,-7.78 -26.3008,-11.0301"
             style="font-style:normal;font-variant:normal;font-weight:normal;font-stretch:normal;fill:#ffffff;font-family:League Gothic;-inkscape-font-specification:League Gothic"
             id="path3919"
             inkscape:connector-curvature="0" />
        </g>
      </g>
    </g>
    <rect
       style="fill:#ffffff"
       id="rect3035"
       width="372.04724"
       height="172.16327"
       x="0"
       y="592.45386" />
    <g
       transform="matrix(1.4095238,0,0,1.4095238,-364.72543,-430.76674)"
       style="font-size:48.6379776px;font-style:normal;font-weight:normal;line-height:125%;letter-spacing:0px;word-spacing:0px;fill:#000000;fill-opacity:1;stroke:none;font-family:Sans"
       id="text3110">
      <path
         inkscape:connector-curvature="0"
         d="m 300.26317,789.53637 -4.08559,0 0,15.56415 -5.2529,0 0,-35.74891 5.2529,0 0,14.78595 4.08559,0 0,-14.78595 5.2529,0 0,35.74891 -5.2529,0 0,-15.56415"
         style="font-variant:normal;font-stretch:normal;font-family:League Gothic;-inkscape-font-specification:League Gothic"
         id="path3164" />
      <path
         inkscape:connector-curvature="0"
         d="m 321.75431,795.56748 0,3.06419 c -0.14591,2.57781 -0.92412,4.37742 -2.67509,5.78792 -0.87548,0.72957 -2.09143,1.07004 -3.69648,1.07004 -3.16147,0 -4.76652,-1.75097 -5.54473,-3.50194 -0.43774,-1.02139 -0.72957,-2.18871 -0.77821,-3.50193 l 0,-13.37544 c 0.14591,-2.57781 0.97276,-4.4747 2.72373,-5.93384 0.82684,-0.72957 2.04279,-1.07003 3.64785,-1.07003 3.16146,0 4.76652,1.75097 5.54473,3.45329 0.43774,1.0214 0.72957,2.14008 0.7782,3.40466 l 0,7.73344 -8.12254,0 0,5.78792 c 0.0486,1.0214 0.34047,1.75097 0.77821,2.28598 0.24319,0.24319 0.58365,0.38911 1.0214,0.38911 0.92412,0 1.36186,-0.58366 1.55641,-1.31323 0.14591,-0.3891 0.19455,-0.82684 0.19455,-1.36186 l 0,-2.91828 4.57197,0 m -8.12254,-6.71204 3.55057,0 0,-3.74512 c 0,-1.0214 -0.19455,-1.75097 -0.68093,-2.33463 -0.24319,-0.24319 -0.63229,-0.3891 -1.07003,-0.3891 -0.92412,0 -1.31323,0.63229 -1.55642,1.36186 -0.14591,0.38911 -0.19455,0.82685 -0.24319,1.36187 l 0,3.74512"
         style="font-variant:normal;font-stretch:normal;font-family:League Gothic;-inkscape-font-specification:League Gothic"
         id="path3166" />
      <path
         inkscape:connector-curvature="0"
         d="m 334.85313,783.5539 c -0.43774,-0.14591 -0.92412,-0.19455 -1.36187,-0.19455 -0.7782,0 -1.70233,0.0973 -2.48053,0.82684 -0.92412,0.77821 -1.07004,1.60506 -1.07004,2.4319 l 0,18.48243 -4.91243,0 0,-26.60497 4.91243,0 0,2.96692 c 0.0486,-0.34047 0.38911,-1.16731 1.16731,-1.94552 0.77821,-0.72957 1.94552,-1.4105 3.74513,-1.4105 l 0,5.44745"
         style="font-variant:normal;font-stretch:normal;font-family:League Gothic;-inkscape-font-specification:League Gothic"
         id="path3168" />
      <path
         inkscape:connector-curvature="0"
         d="m 346.82263,783.5539 c -0.43774,-0.14591 -0.92412,-0.19455 -1.36186,-0.19455 -0.77821,0 -1.70233,0.0973 -2.48054,0.82684 -0.92412,0.77821 -1.07004,1.60506 -1.07004,2.4319 l 0,18.48243 -4.91243,0 0,-26.60497 4.91243,0 0,2.96692 c 0.0486,-0.34047 0.38911,-1.16731 1.16731,-1.94552 0.77821,-0.72957 1.94553,-1.4105 3.74513,-1.4105 l 0,5.44745"
         style="font-variant:normal;font-stretch:normal;font-family:League Gothic;-inkscape-font-specification:League Gothic"
         id="path3170" />
      <path
         inkscape:connector-curvature="0"
         d="m 356.02889,784.81849 c 0,-0.43774 0,-1.11868 -0.14592,-1.60506 -0.19455,-0.48637 -0.58365,-0.82684 -1.21595,-0.82684 -0.82684,0 -1.16731,0.63229 -1.31322,1.4105 -0.0486,0.3891 -0.0973,0.82685 -0.0973,1.26459 0,0.43774 0,0.87548 0,1.26459 l -4.91243,0 0,-1.11868 c 0,-1.94552 0.72957,-3.69649 1.89688,-5.00971 1.16731,-1.31322 2.821,-2.09143 4.71788,-2.09143 1.60505,0 3.0642,0.63229 4.18287,1.70233 1.11867,1.07003 1.7996,2.57781 1.7996,4.32878 l 0,16.34236 c 0,2.38326 0.14592,3.45329 0.34047,4.6206 l -4.81516,0 c -0.43774,-0.53501 -0.43774,-1.7996 -0.43774,-2.14007 l -0.34047,0 c -0.24319,0.43775 -0.68093,1.07004 -1.36186,1.60506 -0.68093,0.53501 -1.60506,0.92412 -2.57781,0.92412 -0.6323,0 -1.6537,-0.24319 -2.4319,-1.21595 -0.82685,-0.92412 -1.50778,-2.57782 -1.50778,-5.35018 0,-2.96691 0.87548,-5.10699 2.04279,-6.56613 1.16731,-1.45913 2.62646,-2.38326 3.8424,-3.01555 1.21595,-0.63229 2.14008,-1.07004 2.33463,-1.60505 l 0,-2.91828 m 0,7.44161 c -2.38326,1.0214 -3.40466,3.40466 -3.40466,5.93383 0,0.34047 0.0486,0.92412 0.24319,1.45914 0.19455,0.58366 0.53502,1.0214 1.11867,1.0214 1.11867,0 2.0428,-0.68093 2.0428,-1.60505 l 0,-6.80932"
         style="font-variant:normal;font-stretch:normal;font-family:League Gothic;-inkscape-font-specification:League Gothic"
         id="path3172" />
      <path
         inkscape:connector-curvature="0"
         d="m 376.76615,805.10052 -4.62061,0 0,-21.06024 c 0,-1.0214 -0.77821,-1.16731 -1.31323,-1.16731 -0.53502,0 -0.97276,0.29183 -1.31322,0.63229 -0.19456,0.19455 -0.38911,0.38911 -0.53502,0.6323 l 0,20.96296 -4.91244,0 0,-26.60497 4.91244,0 0,2.23735 c 0.0973,-0.0486 0.29183,-0.24319 0.58365,-0.53502 0.53502,-0.53502 1.36187,-1.26459 2.23735,-1.75097 0.43774,-0.24319 0.82685,-0.34046 1.26459,-0.34046 1.75096,0 2.77236,1.4105 3.30738,2.96691 0.19455,-0.14591 0.43774,-0.3891 0.77821,-0.72957 0.63229,-0.68093 1.45914,-1.31322 2.38326,-1.84824 0.43774,-0.24319 0.87548,-0.3891 1.31323,-0.3891 1.31322,0 2.23734,0.77821 2.821,1.75096 0.58365,1.0214 0.87548,2.33463 0.87548,3.4533 l 0,21.78981 -4.62061,0 0,-21.06024 c 0,-1.0214 -0.7782,-1.16731 -1.31322,-1.16731 -0.53502,0 -0.97276,0.29183 -1.31323,0.63229 -0.19455,0.19455 -0.3891,0.38911 -0.53501,0.6323 l 0,20.96296"
         style="font-variant:normal;font-stretch:normal;font-family:League Gothic;-inkscape-font-specification:League Gothic"
         id="path3174" />
      <path
         inkscape:connector-curvature="0"
         d="m 388.29562,769.35161 4.91244,0 0,4.91244 -4.91244,0 0,-4.91244 m 0,35.74891 0,-26.60497 4.91244,0 0,26.60497 -4.91244,0"
         style="font-variant:normal;font-stretch:normal;font-family:League Gothic;-inkscape-font-specification:League Gothic"
         id="path3176" />
      <path
         inkscape:connector-curvature="0"
         d="m 409.34067,795.56748 0,3.06419 c -0.14591,2.57781 -0.92412,4.37742 -2.67509,5.78792 -0.87548,0.72957 -2.09143,1.07004 -3.69648,1.07004 -3.16147,0 -4.76653,-1.75097 -5.54473,-3.50194 -0.43774,-1.02139 -0.72957,-2.18871 -0.77821,-3.50193 l 0,-13.37544 c 0.14591,-2.57781 0.97276,-4.4747 2.72373,-5.93384 0.82684,-0.72957 2.04279,-1.07003 3.64784,-1.07003 3.16147,0 4.76653,1.75097 5.54473,3.45329 0.43775,1.0214 0.72957,2.14008 0.77821,3.40466 l 0,7.73344 -8.12254,0 0,5.78792 c 0.0486,1.0214 0.34047,1.75097 0.77821,2.28598 0.24319,0.24319 0.58365,0.38911 1.02139,0.38911 0.92413,0 1.36187,-0.58366 1.55642,-1.31323 0.14591,-0.3891 0.19455,-0.82684 0.19455,-1.36186 l 0,-2.91828 4.57197,0 m -8.12254,-6.71204 3.55057,0 0,-3.74512 c 0,-1.0214 -0.19455,-1.75097 -0.68093,-2.33463 -0.24319,-0.24319 -0.63229,-0.3891 -1.07004,-0.3891 -0.92412,0 -1.31322,0.63229 -1.55641,1.36186 -0.14591,0.38911 -0.19455,0.82685 -0.24319,1.36187 l 0,3.74512"
         style="font-variant:normal;font-stretch:normal;font-family:League Gothic;-inkscape-font-specification:League Gothic"
         id="path3178" />
      <path
         inkscape:connector-curvature="0"
         d="m 417.52705,805.10052 -4.91243,0 0,-26.60497 4.91243,0 0,2.23735 c 0.0973,-0.0486 0.29183,-0.24319 0.58366,-0.53502 0.53502,-0.53502 1.26459,-1.26459 2.14007,-1.75097 0.43774,-0.24319 0.82685,-0.34046 1.26459,-0.34046 1.31322,0 2.23734,0.77821 2.821,1.75096 0.58365,1.0214 0.87548,2.33463 0.87548,3.4533 l 0,21.78981 -4.91243,0 0,-21.06024 c 0,-1.0214 -0.58366,-1.16731 -1.16731,-1.16731 -0.53502,0 -0.82685,0.29183 -1.16732,0.63229 -0.14591,0.19455 -0.29182,0.38911 -0.43774,0.6323 l 0,20.96296"
         style="font-variant:normal;font-stretch:normal;font-family:League Gothic;-inkscape-font-specification:League Gothic"
         id="path3180" />
      <path
         inkscape:connector-curvature="0"
         d="m 434.69777,771.92942 0,6.56613 3.35602,0 0,4.42606 -3.35602,0 0,13.22953 c 0,0.82684 0,1.89688 0.19455,2.77236 0.19456,0.87548 0.58366,1.60506 1.36187,1.60506 0.3891,0 0.87548,-0.0486 1.21595,-0.0973 0.19455,-0.0486 0.3891,-0.0486 0.58365,-0.0973 l 0,4.81516 c -0.24319,0.0486 -0.48638,0.14592 -0.72957,0.19455 -0.48638,0.0973 -1.11867,0.14592 -1.89688,0.14592 -2.86964,0 -4.2315,-1.45914 -4.91243,-3.30738 -0.68093,-1.84825 -0.72957,-4.0856 -0.72957,-5.64201 l 0,-13.61863 -2.48054,0 0,-4.42606 2.48054,0 0,-6.56613 4.91243,0"
         style="font-variant:normal;font-stretch:normal;font-family:League Gothic;-inkscape-font-specification:League Gothic"
         id="path3182" />
      <path
         inkscape:connector-curvature="0"
         d="m 447.98506,784.81849 c 0,-0.43774 0,-1.11868 -0.14591,-1.60506 -0.19456,-0.48637 -0.58366,-0.82684 -1.21595,-0.82684 -0.82685,0 -1.16731,0.63229 -1.31323,1.4105 -0.0486,0.3891 -0.0973,0.82685 -0.0973,1.26459 0,0.43774 0,0.87548 0,1.26459 l -4.91244,0 0,-1.11868 c 0,-1.94552 0.72957,-3.69649 1.89688,-5.00971 1.16731,-1.31322 2.82101,-2.09143 4.71789,-2.09143 1.60505,0 3.06419,0.63229 4.18286,1.70233 1.11867,1.07003 1.79961,2.57781 1.79961,4.32878 l 0,16.34236 c 0,2.38326 0.14591,3.45329 0.34046,4.6206 l -4.81516,0 c -0.43774,-0.53501 -0.43774,-1.7996 -0.43774,-2.14007 l -0.34047,0 c -0.24318,0.43775 -0.68093,1.07004 -1.36186,1.60506 -0.68093,0.53501 -1.60505,0.92412 -2.57781,0.92412 -0.63229,0 -1.65369,-0.24319 -2.4319,-1.21595 -0.82685,-0.92412 -1.50778,-2.57782 -1.50778,-5.35018 0,-2.96691 0.87549,-5.10699 2.0428,-6.56613 1.16731,-1.45913 2.62645,-2.38326 3.8424,-3.01555 1.21595,-0.63229 2.14007,-1.07004 2.33462,-1.60505 l 0,-2.91828 m 0,7.44161 c -2.38326,1.0214 -3.40466,3.40466 -3.40466,5.93383 0,0.34047 0.0486,0.92412 0.24319,1.45914 0.19455,0.58366 0.53502,1.0214 1.11868,1.0214 1.11867,0 2.04279,-0.68093 2.04279,-1.60505 l 0,-6.80932"
         style="font-variant:normal;font-stretch:normal;font-family:League Gothic;-inkscape-font-specification:League Gothic"
         id="path3184" />
      <path
         inkscape:connector-curvature="0"
         d="m 463.46942,785.30487 c 0,-0.6323 0,-1.4105 -0.19455,-2.0428 -0.24319,-0.58365 -0.6323,-1.07003 -1.4105,-1.07003 -0.6323,0 -1.0214,0.48638 -1.21595,1.07003 -0.24319,0.58366 -0.29183,1.4105 -0.29183,2.0428 0,0.82684 0.43774,1.70233 1.07004,2.48053 0.58365,0.77821 1.36186,1.55642 2.14007,2.28599 1.02139,1.0214 2.23734,2.18871 3.06419,3.50193 0.82684,1.36187 1.45914,2.86965 1.45914,4.62061 0,1.70233 -0.38911,3.50194 -1.36187,4.8638 -1.02139,1.4105 -2.57781,2.4319 -4.91243,2.4319 -2.96691,0 -4.71789,-1.36187 -5.69064,-3.01556 -0.97276,-1.65369 -1.16732,-3.69648 -1.16732,-5.10698 l 4.57197,0 c 0,0.72957 0.0486,1.75096 0.38911,2.52917 0.34046,0.82685 0.87548,1.50778 1.89688,1.50778 1.4105,0 1.70233,-1.65369 1.70233,-3.21011 0,-1.60505 -1.55642,-3.21011 -3.06419,-4.71788 -1.16731,-1.11867 -2.28599,-2.14007 -3.16147,-3.4533 -0.87549,-1.31322 -1.50778,-2.77236 -1.50778,-4.71788 0,-1.55642 0.29183,-3.35602 1.21595,-4.76652 0.92412,-1.36187 2.4319,-2.38326 4.76652,-2.4319 2.86964,-0.0486 4.4747,1.0214 5.30154,2.4319 0.82685,1.4105 0.97276,3.25874 0.97276,4.76652 l -4.57197,0"
         style="font-variant:normal;font-stretch:normal;font-family:League Gothic;-inkscape-font-specification:League Gothic"
         id="path3186" />
    </g>
    <g
       transform="matrix(1.4095238,0,0,1.4095238,-364.72543,-430.76674)"
       style="font-size:24.49181175px;font-style:normal;font-weight:normal;line-height:125%;letter-spacing:0px;word-spacing:0px;fill:#000000;fill-opacity:1;stroke:none;font-family:Sans"
       id="text3114">
      <path
         inkscape:connector-curvature="0"
         d="m 290.92468,813.81379 2.47367,0 0,0.88171 c 0.41636,-0.39187 0.78374,-0.68577 1.27358,-0.9062 0.22042,-0.12246 0.46534,-0.17144 0.68577,-0.17144 0.68577,0 1.15111,0.39187 1.46951,0.88171 0.2939,0.51432 0.44085,1.1756 0.44085,1.73891 l 0,8.54765 c 0,0.56331 -0.14695,1.22459 -0.44085,1.71442 -0.3184,0.51433 -0.78374,0.9062 -1.46951,0.9062 -0.46535,0 -0.95518,-0.26941 -1.32256,-0.53882 -0.22043,-0.17144 -0.41636,-0.34289 -0.63679,-0.53882 l 0,5.48617 -2.47367,0 0,-18.00149 m 2.47367,10.45801 c 0,0.39187 0.36738,0.80823 0.73476,0.80823 0.36737,0 0.66128,-0.34289 0.66128,-0.80823 l 0,-7.51899 c 0,-0.46534 -0.29391,-0.80823 -0.66128,-0.80823 -0.36738,0 -0.73476,0.34289 -0.73476,0.80823 l 0,7.51899"
         style="font-variant:normal;font-stretch:normal;font-family:League Gothic;-inkscape-font-specification:League Gothic"
         id="path3116" />
      <path
         inkscape:connector-curvature="0"
         d="m 302.75614,816.99773 c 0,-0.22043 0,-0.56331 -0.0735,-0.80823 -0.098,-0.24492 -0.2939,-0.41636 -0.61229,-0.41636 -0.41636,0 -0.58781,0.31839 -0.66128,0.71026 -0.0245,0.19594 -0.049,0.41636 -0.049,0.63679 0,0.22043 0,0.44085 0,0.63679 l -2.47368,0 0,-0.56332 c 0,-0.97967 0.36738,-1.86137 0.95518,-2.52265 0.58781,-0.66128 1.42053,-1.05315 2.37571,-1.05315 0.80823,0 1.54298,0.31839 2.10629,0.85721 0.56332,0.53882 0.9062,1.29807 0.9062,2.17977 l 0,8.22925 c 0,1.2001 0.0735,1.73892 0.17144,2.32673 l -2.42469,0 c -0.22042,-0.26941 -0.22042,-0.9062 -0.22042,-1.07764 l -0.17144,0 c -0.12246,0.22042 -0.34289,0.53882 -0.68578,0.80823 -0.34288,0.26941 -0.80823,0.46534 -1.29806,0.46534 -0.31839,0 -0.83272,-0.12246 -1.22459,-0.6123 -0.41636,-0.46534 -0.75925,-1.29806 -0.75925,-2.69409 0,-1.494 0.44086,-2.57165 1.02866,-3.3064 0.5878,-0.73475 1.32256,-1.2001 1.93485,-1.51849 0.6123,-0.31839 1.07764,-0.53882 1.17561,-0.80823 l 0,-1.46951 m 0,3.74725 c -1.2001,0.51432 -1.71443,1.71443 -1.71443,2.988 0,0.17144 0.0245,0.46534 0.12246,0.73475 0.098,0.2939 0.26941,0.51433 0.56331,0.51433 0.56331,0 1.02866,-0.34289 1.02866,-0.80823 l 0,-3.42885"
         style="font-variant:normal;font-stretch:normal;font-family:League Gothic;-inkscape-font-specification:League Gothic"
         id="path3118" />
      <path
         inkscape:connector-curvature="0"
         d="m 311.75343,816.36094 c -0.22042,-0.0735 -0.46534,-0.098 -0.68577,-0.098 -0.39186,0 -0.85721,0.049 -1.24908,0.41636 -0.46534,0.39186 -0.53882,0.80823 -0.53882,1.22459 l 0,9.30689 -2.47367,0 0,-13.39703 2.47367,0 0,1.494 c 0.0245,-0.17144 0.19594,-0.5878 0.5878,-0.97967 0.39187,-0.36737 0.97968,-0.71026 1.88587,-0.71026 l 0,2.74308"
         style="font-variant:normal;font-stretch:normal;font-family:League Gothic;-inkscape-font-specification:League Gothic"
         id="path3120" />
      <path
         inkscape:connector-curvature="0"
         d="m 316.38928,816.99773 c 0,-0.22043 0,-0.56331 -0.0735,-0.80823 -0.098,-0.24492 -0.2939,-0.41636 -0.6123,-0.41636 -0.41636,0 -0.5878,0.31839 -0.66127,0.71026 -0.0245,0.19594 -0.049,0.41636 -0.049,0.63679 0,0.22043 0,0.44085 0,0.63679 l -2.47367,0 0,-0.56332 c 0,-0.97967 0.36738,-1.86137 0.95518,-2.52265 0.5878,-0.66128 1.42053,-1.05315 2.37571,-1.05315 0.80822,0 1.54298,0.31839 2.10629,0.85721 0.56331,0.53882 0.9062,1.29807 0.9062,2.17977 l 0,8.22925 c 0,1.2001 0.0735,1.73892 0.17144,2.32673 l -2.42469,0 c -0.22042,-0.26941 -0.22042,-0.9062 -0.22042,-1.07764 l -0.17145,0 c -0.12246,0.22042 -0.34288,0.53882 -0.68577,0.80823 -0.34288,0.26941 -0.80823,0.46534 -1.29806,0.46534 -0.3184,0 -0.83273,-0.12246 -1.22459,-0.6123 -0.41637,-0.46534 -0.75925,-1.29806 -0.75925,-2.69409 0,-1.494 0.44085,-2.57165 1.02865,-3.3064 0.58781,-0.73475 1.32256,-1.2001 1.93486,-1.51849 0.61229,-0.31839 1.07764,-0.53882 1.17561,-0.80823 l 0,-1.46951 m 0,3.74725 c -1.2001,0.51432 -1.71443,1.71443 -1.71443,2.988 0,0.17144 0.0245,0.46534 0.12246,0.73475 0.098,0.2939 0.26941,0.51433 0.56331,0.51433 0.56331,0 1.02866,-0.34289 1.02866,-0.80823 l 0,-3.42885"
         style="font-variant:normal;font-stretch:normal;font-family:League Gothic;-inkscape-font-specification:League Gothic"
         id="path3122" />
      <path
         inkscape:connector-curvature="0"
         d="m 324.31391,827.21082 0,-18.00149 2.47367,0 0,18.00149 -2.47367,0"
         style="font-variant:normal;font-stretch:normal;font-family:League Gothic;-inkscape-font-specification:League Gothic"
         id="path3124" />
      <path
         inkscape:connector-curvature="0"
         d="m 332.50986,816.99773 c 0,-0.22043 0,-0.56331 -0.0735,-0.80823 -0.098,-0.24492 -0.2939,-0.41636 -0.6123,-0.41636 -0.41636,0 -0.5878,0.31839 -0.66128,0.71026 -0.0245,0.19594 -0.049,0.41636 -0.049,0.63679 0,0.22043 0,0.44085 0,0.63679 l -2.47367,0 0,-0.56332 c 0,-0.97967 0.36737,-1.86137 0.95518,-2.52265 0.5878,-0.66128 1.42052,-1.05315 2.3757,-1.05315 0.80823,0 1.54299,0.31839 2.1063,0.85721 0.56331,0.53882 0.9062,1.29807 0.9062,2.17977 l 0,8.22925 c 0,1.2001 0.0735,1.73892 0.17144,2.32673 l -2.42469,0 c -0.22043,-0.26941 -0.22043,-0.9062 -0.22043,-1.07764 l -0.17144,0 c -0.12246,0.22042 -0.34288,0.53882 -0.68577,0.80823 -0.34289,0.26941 -0.80823,0.46534 -1.29807,0.46534 -0.31839,0 -0.83272,-0.12246 -1.22459,-0.6123 -0.41636,-0.46534 -0.75924,-1.29806 -0.75924,-2.69409 0,-1.494 0.44085,-2.57165 1.02865,-3.3064 0.58781,-0.73475 1.32256,-1.2001 1.93486,-1.51849 0.61229,-0.31839 1.07764,-0.53882 1.1756,-0.80823 l 0,-1.46951 m 0,3.74725 c -1.20009,0.51432 -1.71442,1.71443 -1.71442,2.988 0,0.17144 0.0245,0.46534 0.12246,0.73475 0.098,0.2939 0.26941,0.51433 0.56331,0.51433 0.56331,0 1.02865,-0.34289 1.02865,-0.80823 l 0,-3.42885"
         style="font-variant:normal;font-stretch:normal;font-family:League Gothic;-inkscape-font-specification:League Gothic"
         id="path3126" />
      <path
         inkscape:connector-curvature="0"
         d="m 346.67991,827.21082 -2.47368,0 0,-0.88171 c -0.41636,0.39187 -0.78373,0.68577 -1.24908,0.9062 -0.24492,0.12246 -0.48983,0.17144 -0.71026,0.17144 -0.68577,0 -1.15112,-0.39187 -1.44502,-0.9062 -0.31839,-0.48983 -0.46534,-1.15111 -0.46534,-1.71442 l 0,-8.54765 c 0,-0.56331 0.14695,-1.22459 0.46534,-1.73891 0.2939,-0.48984 0.75925,-0.88171 1.44502,-0.88171 0.46534,0 0.95518,0.26941 1.32256,0.53882 0.22042,0.17144 0.41636,0.34289 0.63678,0.53882 l 0,-5.48617 2.47368,0 0,18.00149 m -2.47368,-10.45801 c 0,-0.39187 -0.36737,-0.80823 -0.73475,-0.80823 -0.36738,0 -0.66128,0.34289 -0.66128,0.80823 l 0,7.51899 c 0,0.46534 0.2939,0.80823 0.66128,0.80823 0.36738,0 0.73475,-0.34289 0.73475,-0.80823 l 0,-7.51899"
         style="font-variant:normal;font-stretch:normal;font-family:League Gothic;-inkscape-font-specification:League Gothic"
         id="path3128" />
      <path
         inkscape:connector-curvature="0"
         d="m 354.85864,822.41042 0,1.54298 c -0.0735,1.29807 -0.46534,2.20427 -1.34705,2.91453 -0.44085,0.36738 -1.05315,0.53882 -1.86138,0.53882 -1.59196,0 -2.40019,-0.88171 -2.79206,-1.76341 -0.22043,-0.51433 -0.36738,-1.10213 -0.39187,-1.76341 l 0,-6.73525 c 0.0735,-1.29806 0.48984,-2.25325 1.37154,-2.988 0.41636,-0.36738 1.02866,-0.53882 1.83689,-0.53882 1.59196,0 2.40019,0.88171 2.79206,1.73892 0.22043,0.51433 0.36738,1.07764 0.39187,1.71443 l 0,3.89419 -4.09013,0 0,2.91453 c 0.0245,0.51433 0.17144,0.8817 0.39187,1.15111 0.12246,0.12246 0.2939,0.19594 0.51433,0.19594 0.46534,0 0.68577,-0.2939 0.78373,-0.66128 0.0735,-0.19593 0.098,-0.41636 0.098,-0.68577 l 0,-1.46951 2.30223,0 m -4.09013,-3.37987 1.7879,0 0,-1.88587 c 0,-0.51433 -0.098,-0.8817 -0.34288,-1.17561 -0.12246,-0.12246 -0.3184,-0.19593 -0.53882,-0.19593 -0.46535,0 -0.66128,0.31839 -0.78374,0.68577 -0.0735,0.19593 -0.098,0.41636 -0.12246,0.68577 l 0,1.88587"
         style="font-variant:normal;font-stretch:normal;font-family:League Gothic;-inkscape-font-specification:League Gothic"
         id="path3130" />
      <path
         inkscape:connector-curvature="0"
         d="m 362.89961,827.21082 -2.32672,0 0,-10.60496 c 0,-0.51433 -0.39187,-0.5878 -0.66128,-0.5878 -0.26941,0 -0.48984,0.14695 -0.66128,0.31839 -0.098,0.098 -0.19594,0.19594 -0.26941,0.31839 l 0,10.55598 -2.47367,0 0,-13.39703 2.47367,0 0,1.12663 c 0.049,-0.0245 0.14695,-0.12246 0.2939,-0.26941 0.26941,-0.26941 0.68577,-0.63679 1.12662,-0.88171 0.22043,-0.12246 0.41636,-0.17144 0.63679,-0.17144 0.8817,0 1.39603,0.71026 1.66544,1.494 0.098,-0.0735 0.22043,-0.19593 0.39187,-0.36738 0.3184,-0.34288 0.73476,-0.66128 1.2001,-0.93069 0.22043,-0.12245 0.44085,-0.19593 0.66128,-0.19593 0.66128,0 1.12662,0.39187 1.42053,0.88171 0.2939,0.51432 0.44085,1.1756 0.44085,1.73891 l 0,10.97234 -2.32672,0 0,-10.60496 c 0,-0.51433 -0.39187,-0.5878 -0.66128,-0.5878 -0.26941,0 -0.48984,0.14695 -0.66128,0.31839 -0.098,0.098 -0.19594,0.19594 -0.26941,0.31839 l 0,10.55598"
         style="font-variant:normal;font-stretch:normal;font-family:League Gothic;-inkscape-font-specification:League Gothic"
         id="path3132" />
      <path
         inkscape:connector-curvature="0"
         d="m 374.82827,823.9534 c -0.0735,1.29807 -0.46534,2.20427 -1.32256,2.91453 -0.44085,0.36738 -1.05314,0.53882 -1.86137,0.53882 -1.59197,0 -2.37571,-0.88171 -2.76758,-1.76341 -0.22042,-0.51433 -0.36738,-1.10213 -0.39187,-1.76341 l 0,-6.73525 c 0.0735,-1.29806 0.46535,-2.25325 1.32256,-2.988 0.41636,-0.36738 1.02866,-0.53882 1.83689,-0.53882 1.59196,0 2.40019,0.88171 2.79206,1.73892 0.22043,0.51433 0.36738,1.07764 0.39187,1.71443 l 0,6.88219 m -2.32672,-6.80872 c 0.0245,-0.51433 -0.0735,-0.8817 -0.31839,-1.17561 -0.12246,-0.12246 -0.3184,-0.19593 -0.53882,-0.19593 -0.46535,0 -0.66128,0.31839 -0.75925,0.68577 -0.0735,0.19593 -0.098,0.41636 -0.0735,0.68577 l 0,6.73525 c -0.0245,0.51433 0.098,0.8817 0.31839,1.15111 0.12246,0.12246 0.2939,0.19594 0.51433,0.19594 0.46534,0 0.68577,-0.2939 0.78373,-0.66128 0.0735,-0.19593 0.098,-0.41636 0.0735,-0.68577 l 0,-6.73525"
         style="font-variant:normal;font-stretch:normal;font-family:League Gothic;-inkscape-font-specification:League Gothic"
         id="path3134" />
      <path
         inkscape:connector-curvature="0"
         d="m 378.82809,824.12485 c 0,0.48983 0.0245,1.07764 0.68577,1.07764 0.56331,0 0.71026,-0.26941 0.71026,-1.07764 l 0,-1.86138 2.47368,0 0,1.29807 c 0,1.49399 -0.26941,2.44918 -0.80823,3.03698 -0.53882,0.5878 -1.32256,0.80823 -2.37571,0.80823 -0.8817,0 -1.68994,-0.24492 -2.25325,-0.85721 -0.56331,-0.6123 -0.90619,-1.61646 -0.90619,-3.11046 l 0,-5.85355 c 0,-1.494 0.34288,-2.49816 0.90619,-3.11046 0.56331,-0.61229 1.37155,-0.85721 2.25325,-0.85721 1.05315,0 1.83689,0.22043 2.37571,0.80823 0.53882,0.5878 0.80823,1.54299 0.80823,3.03698 l 0,1.05315 -2.47368,0 0,-1.61646 c 0,-0.80823 -0.14695,-1.07764 -0.71026,-1.07764 -0.66128,0 -0.68577,0.58781 -0.68577,1.07764 l 0,7.22509"
         style="font-variant:normal;font-stretch:normal;font-family:League Gothic;-inkscape-font-specification:League Gothic"
         id="path3136" />
      <path
         inkscape:connector-curvature="0"
         d="m 389.15139,816.36094 c -0.22042,-0.0735 -0.46534,-0.098 -0.68577,-0.098 -0.39187,0 -0.85721,0.049 -1.24908,0.41636 -0.46535,0.39186 -0.53882,0.80823 -0.53882,1.22459 l 0,9.30689 -2.47367,0 0,-13.39703 2.47367,0 0,1.494 c 0.0245,-0.17144 0.19593,-0.5878 0.5878,-0.97967 0.39187,-0.36737 0.97968,-0.71026 1.88587,-0.71026 l 0,2.74308"
         style="font-variant:normal;font-stretch:normal;font-family:League Gothic;-inkscape-font-specification:League Gothic"
         id="path3138" />
      <path
         inkscape:connector-curvature="0"
         d="m 393.78723,816.99773 c 0,-0.22043 0,-0.56331 -0.0735,-0.80823 -0.098,-0.24492 -0.2939,-0.41636 -0.61229,-0.41636 -0.41636,0 -0.5878,0.31839 -0.66128,0.71026 -0.0245,0.19594 -0.049,0.41636 -0.049,0.63679 0,0.22043 0,0.44085 0,0.63679 l -2.47368,0 0,-0.56332 c 0,-0.97967 0.36738,-1.86137 0.95518,-2.52265 0.58781,-0.66128 1.42053,-1.05315 2.37571,-1.05315 0.80823,0 1.54298,0.31839 2.1063,0.85721 0.56331,0.53882 0.90619,1.29807 0.90619,2.17977 l 0,8.22925 c 0,1.2001 0.0735,1.73892 0.17145,2.32673 l -2.42469,0 c -0.22043,-0.26941 -0.22043,-0.9062 -0.22043,-1.07764 l -0.17144,0 c -0.12246,0.22042 -0.34289,0.53882 -0.68577,0.80823 -0.34289,0.26941 -0.80823,0.46534 -1.29807,0.46534 -0.31839,0 -0.83272,-0.12246 -1.22459,-0.6123 -0.41636,-0.46534 -0.75925,-1.29806 -0.75925,-2.69409 0,-1.494 0.44086,-2.57165 1.02866,-3.3064 0.5878,-0.73475 1.32256,-1.2001 1.93485,-1.51849 0.6123,-0.31839 1.07764,-0.53882 1.17561,-0.80823 l 0,-1.46951 m 0,3.74725 c -1.2001,0.51432 -1.71443,1.71443 -1.71443,2.988 0,0.17144 0.0245,0.46534 0.12246,0.73475 0.098,0.2939 0.26941,0.51433 0.56331,0.51433 0.56332,0 1.02866,-0.34289 1.02866,-0.80823 l 0,-3.42885"
         style="font-variant:normal;font-stretch:normal;font-family:League Gothic;-inkscape-font-specification:League Gothic"
         id="path3140" />
      <path
         inkscape:connector-curvature="0"
         d="m 400.21059,824.12485 c 0,0.48983 0.0245,1.07764 0.68577,1.07764 0.56331,0 0.71026,-0.26941 0.71026,-1.07764 l 0,-1.86138 2.47368,0 0,1.29807 c 0,1.49399 -0.26941,2.44918 -0.80823,3.03698 -0.53882,0.5878 -1.32256,0.80823 -2.37571,0.80823 -0.8817,0 -1.68994,-0.24492 -2.25325,-0.85721 -0.56331,-0.6123 -0.90619,-1.61646 -0.90619,-3.11046 l 0,-5.85355 c 0,-1.494 0.34288,-2.49816 0.90619,-3.11046 0.56331,-0.61229 1.37155,-0.85721 2.25325,-0.85721 1.05315,0 1.83689,0.22043 2.37571,0.80823 0.53882,0.5878 0.80823,1.54299 0.80823,3.03698 l 0,1.05315 -2.47368,0 0,-1.61646 c 0,-0.80823 -0.14695,-1.07764 -0.71026,-1.07764 -0.66128,0 -0.68577,0.58781 -0.68577,1.07764 l 0,7.22509"
         style="font-variant:normal;font-stretch:normal;font-family:League Gothic;-inkscape-font-specification:League Gothic"
         id="path3142" />
      <path
         inkscape:connector-curvature="0"
         d="m 405.58655,809.20933 2.47367,0 0,2.47368 -2.47367,0 0,-2.47368 m 0,18.00149 0,-13.39703 2.47367,0 0,13.39703 -2.47367,0"
         style="font-variant:normal;font-stretch:normal;font-family:League Gothic;-inkscape-font-specification:League Gothic"
         id="path3144" />
      <path
         inkscape:connector-curvature="0"
         d="m 413.7825,816.99773 c 0,-0.22043 0,-0.56331 -0.0735,-0.80823 -0.098,-0.24492 -0.2939,-0.41636 -0.61229,-0.41636 -0.41636,0 -0.5878,0.31839 -0.66128,0.71026 -0.0245,0.19594 -0.049,0.41636 -0.049,0.63679 0,0.22043 0,0.44085 0,0.63679 l -2.47368,0 0,-0.56332 c 0,-0.97967 0.36738,-1.86137 0.95518,-2.52265 0.58781,-0.66128 1.42053,-1.05315 2.37571,-1.05315 0.80823,0 1.54298,0.31839 2.1063,0.85721 0.56331,0.53882 0.90619,1.29807 0.90619,2.17977 l 0,8.22925 c 0,1.2001 0.0735,1.73892 0.17145,2.32673 l -2.42469,0 c -0.22043,-0.26941 -0.22043,-0.9062 -0.22043,-1.07764 l -0.17144,0 c -0.12246,0.22042 -0.34289,0.53882 -0.68577,0.80823 -0.34289,0.26941 -0.80823,0.46534 -1.29807,0.46534 -0.31839,0 -0.83272,-0.12246 -1.22459,-0.6123 -0.41636,-0.46534 -0.75925,-1.29806 -0.75925,-2.69409 0,-1.494 0.44086,-2.57165 1.02866,-3.3064 0.5878,-0.73475 1.32256,-1.2001 1.93485,-1.51849 0.6123,-0.31839 1.07764,-0.53882 1.17561,-0.80823 l 0,-1.46951 m 0,3.74725 c -1.2001,0.51432 -1.71443,1.71443 -1.71443,2.988 0,0.17144 0.0245,0.46534 0.12246,0.73475 0.098,0.2939 0.26941,0.51433 0.56331,0.51433 0.56331,0 1.02866,-0.34289 1.02866,-0.80823 l 0,-3.42885"
         style="font-variant:normal;font-stretch:normal;font-family:League Gothic;-inkscape-font-specification:League Gothic"
         id="path3146" />
      <path
         inkscape:connector-curvature="0"
         d="m 427.95255,827.21082 -2.47368,0 0,-0.88171 c -0.41636,0.39187 -0.78373,0.68577 -1.24908,0.9062 -0.24492,0.12246 -0.48983,0.17144 -0.71026,0.17144 -0.68577,0 -1.15112,-0.39187 -1.44502,-0.9062 -0.31839,-0.48983 -0.46534,-1.15111 -0.46534,-1.71442 l 0,-8.54765 c 0,-0.56331 0.14695,-1.22459 0.46534,-1.73891 0.2939,-0.48984 0.75925,-0.88171 1.44502,-0.88171 0.46534,0 0.95518,0.26941 1.32256,0.53882 0.22042,0.17144 0.41636,0.34289 0.63678,0.53882 l 0,-5.48617 2.47368,0 0,18.00149 m -2.47368,-10.45801 c 0,-0.39187 -0.36737,-0.80823 -0.73475,-0.80823 -0.36738,0 -0.66128,0.34289 -0.66128,0.80823 l 0,7.51899 c 0,0.46534 0.2939,0.80823 0.66128,0.80823 0.36738,0 0.73475,-0.34289 0.73475,-0.80823 l 0,-7.51899"
         style="font-variant:normal;font-stretch:normal;font-family:League Gothic;-inkscape-font-specification:League Gothic"
         id="path3148" />
      <path
         inkscape:connector-curvature="0"
         d="m 429.93484,809.20933 2.47368,0 0,2.47368 -2.47368,0 0,-2.47368 m 0,18.00149 0,-13.39703 2.47368,0 0,13.39703 -2.47368,0"
         style="font-variant:normal;font-stretch:normal;font-family:League Gothic;-inkscape-font-specification:League Gothic"
         id="path3150" />
      <path
         inkscape:connector-curvature="0"
         d="m 439.3309,816.36094 c -0.22042,-0.0735 -0.46534,-0.098 -0.68577,-0.098 -0.39187,0 -0.85721,0.049 -1.24908,0.41636 -0.46534,0.39186 -0.53882,0.80823 -0.53882,1.22459 l 0,9.30689 -2.47367,0 0,-13.39703 2.47367,0 0,1.494 c 0.0245,-0.17144 0.19594,-0.5878 0.5878,-0.97967 0.39187,-0.36737 0.97968,-0.71026 1.88587,-0.71026 l 0,2.74308"
         style="font-variant:normal;font-stretch:normal;font-family:League Gothic;-inkscape-font-specification:League Gothic"
         id="path3152" />
      <path
         inkscape:connector-curvature="0"
         d="m 446.5116,822.41042 0,1.54298 c -0.0735,1.29807 -0.46535,2.20427 -1.34705,2.91453 -0.44086,0.36738 -1.05315,0.53882 -1.86138,0.53882 -1.59197,0 -2.4002,-0.88171 -2.79207,-1.76341 -0.22042,-0.51433 -0.36738,-1.10213 -0.39187,-1.76341 l 0,-6.73525 c 0.0735,-1.29806 0.48984,-2.25325 1.37154,-2.988 0.41636,-0.36738 1.02866,-0.53882 1.83689,-0.53882 1.59197,0 2.4002,0.88171 2.79207,1.73892 0.22042,0.51433 0.36737,1.07764 0.39187,1.71443 l 0,3.89419 -4.09014,0 0,2.91453 c 0.0245,0.51433 0.17145,0.8817 0.39187,1.15111 0.12246,0.12246 0.2939,0.19594 0.51433,0.19594 0.46534,0 0.68577,-0.2939 0.78374,-0.66128 0.0735,-0.19593 0.098,-0.41636 0.098,-0.68577 l 0,-1.46951 2.30223,0 m -4.09014,-3.37987 1.78791,0 0,-1.88587 c 0,-0.51433 -0.098,-0.8817 -0.34289,-1.17561 -0.12246,-0.12246 -0.31839,-0.19593 -0.53882,-0.19593 -0.46534,0 -0.66128,0.31839 -0.78374,0.68577 -0.0735,0.19593 -0.098,0.41636 -0.12246,0.68577 l 0,1.88587"
         style="font-variant:normal;font-stretch:normal;font-family:League Gothic;-inkscape-font-specification:League Gothic"
         id="path3154" />
      <path
         inkscape:connector-curvature="0"
         d="m 450.48577,824.12485 c 0,0.48983 0.0245,1.07764 0.68577,1.07764 0.56332,0 0.71027,-0.26941 0.71027,-1.07764 l 0,-1.86138 2.47367,0 0,1.29807 c 0,1.49399 -0.26941,2.44918 -0.80823,3.03698 -0.53882,0.5878 -1.32256,0.80823 -2.37571,0.80823 -0.8817,0 -1.68993,-0.24492 -2.25324,-0.85721 -0.56331,-0.6123 -0.9062,-1.61646 -0.9062,-3.11046 l 0,-5.85355 c 0,-1.494 0.34289,-2.49816 0.9062,-3.11046 0.56331,-0.61229 1.37154,-0.85721 2.25324,-0.85721 1.05315,0 1.83689,0.22043 2.37571,0.80823 0.53882,0.5878 0.80823,1.54299 0.80823,3.03698 l 0,1.05315 -2.47367,0 0,-1.61646 c 0,-0.80823 -0.14695,-1.07764 -0.71027,-1.07764 -0.66127,0 -0.68577,0.58781 -0.68577,1.07764 l 0,7.22509"
         style="font-variant:normal;font-stretch:normal;font-family:League Gothic;-inkscape-font-specification:League Gothic"
         id="path3156" />
      <path
         inkscape:connector-curvature="0"
         d="m 458.75405,810.5074 0,3.30639 1.68994,0 0,2.22876 -1.68994,0 0,6.66177 c 0,0.41636 0,0.95518 0.098,1.39604 0.098,0.44085 0.2939,0.80823 0.68577,0.80823 0.19593,0 0.44085,-0.0245 0.61229,-0.049 0.098,-0.0245 0.19594,-0.0245 0.29391,-0.049 l 0,2.42469 c -0.12246,0.0245 -0.24492,0.0735 -0.36738,0.098 -0.24492,0.049 -0.56331,0.0735 -0.95518,0.0735 -1.44502,0 -2.13079,-0.73476 -2.47368,-1.66544 -0.34288,-0.93069 -0.36737,-2.05732 -0.36737,-2.84105 l 0,-6.85771 -1.24908,0 0,-2.22876 1.24908,0 0,-3.30639 2.47367,0"
         style="font-variant:normal;font-stretch:normal;font-family:League Gothic;-inkscape-font-specification:League Gothic"
         id="path3158" />
      <path
         inkscape:connector-curvature="0"
         d="m 465.44491,816.99773 c 0,-0.22043 0,-0.56331 -0.0735,-0.80823 -0.098,-0.24492 -0.2939,-0.41636 -0.61229,-0.41636 -0.41636,0 -0.58781,0.31839 -0.66128,0.71026 -0.0245,0.19594 -0.049,0.41636 -0.049,0.63679 0,0.22043 0,0.44085 0,0.63679 l -2.47367,0 0,-0.56332 c 0,-0.97967 0.36738,-1.86137 0.95518,-2.52265 0.5878,-0.66128 1.42053,-1.05315 2.37571,-1.05315 0.80823,0 1.54298,0.31839 2.10629,0.85721 0.56331,0.53882 0.9062,1.29807 0.9062,2.17977 l 0,8.22925 c 0,1.2001 0.0735,1.73892 0.17144,2.32673 l -2.42469,0 c -0.22042,-0.26941 -0.22042,-0.9062 -0.22042,-1.07764 l -0.17145,0 c -0.12245,0.22042 -0.34288,0.53882 -0.68577,0.80823 -0.34288,0.26941 -0.80823,0.46534 -1.29806,0.46534 -0.3184,0 -0.83272,-0.12246 -1.22459,-0.6123 -0.41636,-0.46534 -0.75925,-1.29806 -0.75925,-2.69409 0,-1.494 0.44085,-2.57165 1.02866,-3.3064 0.5878,-0.73475 1.32256,-1.2001 1.93485,-1.51849 0.61229,-0.31839 1.07764,-0.53882 1.17561,-0.80823 l 0,-1.46951 m 0,3.74725 c -1.2001,0.51432 -1.71443,1.71443 -1.71443,2.988 0,0.17144 0.0245,0.46534 0.12246,0.73475 0.098,0.2939 0.26941,0.51433 0.56331,0.51433 0.56331,0 1.02866,-0.34289 1.02866,-0.80823 l 0,-3.42885"
         style="font-variant:normal;font-stretch:normal;font-family:League Gothic;-inkscape-font-specification:League Gothic"
         id="path3160" />
    </g>
    <g
       transform="matrix(1.4095238,0,0,1.4095238,-364.72543,-430.76674)"
       style="font-size:23.96804237px;font-style:normal;font-weight:normal;line-height:125%;letter-spacing:0px;word-spacing:0px;fill:#000000;fill-opacity:1;stroke:none;font-family:Sans"
       id="text3118">
      <path
         inkscape:connector-curvature="0"
         d="m 295.74226,750.03879 c 0,-0.57524 -0.024,-1.22237 -0.19175,-1.7257 -0.16777,-0.47936 -0.43142,-0.81492 -0.83888,-0.81492 -0.6711,0.024 -0.88682,0.71905 -0.88682,1.74967 0,0.5992 0.26365,1.22237 0.64714,1.89348 0.38349,0.6711 0.88682,1.36618 1.39015,2.10918 0.5992,0.88682 1.1984,1.79761 1.65379,2.68443 0.45539,0.88681 0.76698,1.7976 0.76698,2.75632 0,1.17443 -0.19175,2.27697 -0.74301,3.09188 -0.55126,0.81491 -1.43808,1.34221 -2.8522,1.34221 -1.65379,0 -2.58855,-0.62317 -3.11584,-1.58189 -0.5273,-0.95872 -0.64714,-2.22903 -0.64714,-3.54727 l 2.54061,-0.23968 c 0,0.74301 0.024,1.48602 0.21572,2.03728 0.16777,0.57523 0.45539,0.95872 1.00665,0.95872 0.76698,0 1.0546,-0.81491 1.0546,-1.94141 0,-0.57523 -0.28762,-1.24634 -0.67111,-1.94141 -0.21571,-0.33555 -0.43142,-0.69507 -0.6711,-1.05459 -0.50333,-0.71905 -1.0546,-1.53396 -1.62983,-2.42078 -0.57523,-0.88681 -1.00666,-1.7976 -1.27031,-2.73235 -0.1438,-0.4554 -0.21571,-0.93476 -0.21571,-1.41412 0,-0.95872 0.21571,-1.98935 0.76698,-2.78029 0.55126,-0.76698 1.39015,-1.31824 2.61251,-1.34221 1.55793,-0.024 2.46871,0.62317 2.97204,1.55792 0.50333,0.95872 0.64714,2.13316 0.64714,3.11585 l -2.54061,0.23968"
         style="font-variant:normal;font-stretch:normal;font-family:League Gothic;-inkscape-font-specification:League Gothic"
         id="path3190" />
      <path
         inkscape:connector-curvature="0"
         d="m 302.61509,746.58739 0,3.23568 1.6538,0 0,2.1811 -1.6538,0 0,6.5193 c 0,0.40746 0,0.93476 0.0959,1.36618 0.0959,0.43143 0.28761,0.79095 0.6711,0.79095 0.19174,0 0.43143,-0.024 0.5992,-0.0479 0.0959,-0.024 0.19175,-0.024 0.28762,-0.0479 l 0,2.37283 c -0.11984,0.024 -0.23968,0.0719 -0.35952,0.0959 -0.23968,0.0479 -0.55127,0.0719 -0.93476,0.0719 -1.41411,0 -2.08522,-0.71904 -2.42077,-1.62983 -0.33555,-0.91078 -0.35952,-2.01332 -0.35952,-2.78029 l 0,-6.71105 -1.22237,0 0,-2.1811 1.22237,0 0,-3.23568 2.42077,0"
         style="font-variant:normal;font-stretch:normal;font-family:League Gothic;-inkscape-font-specification:League Gothic"
         id="path3192" />
      <path
         inkscape:connector-curvature="0"
         d="m 309.16286,752.93892 c 0,-0.21571 0,-0.55127 -0.0719,-0.79095 -0.0959,-0.23968 -0.28762,-0.40745 -0.5992,-0.40745 -0.40746,0 -0.57523,0.31158 -0.64714,0.69507 -0.024,0.19175 -0.0479,0.40746 -0.0479,0.62317 0,0.21571 0,0.43143 0,0.62317 l -2.42077,0 0,-0.55127 c 0,-0.95872 0.35952,-1.82157 0.93476,-2.4687 0.57523,-0.64714 1.39014,-1.03063 2.3249,-1.03063 0.79094,0 1.50998,0.31159 2.06125,0.83888 0.55126,0.5273 0.88682,1.27031 0.88682,2.13316 l 0,8.05326 c 0,1.17443 0.0719,1.70173 0.16777,2.27696 l -2.37283,0 c -0.21572,-0.26364 -0.21572,-0.88681 -0.21572,-1.05459 l -0.16777,0 c -0.11984,0.21571 -0.33556,0.5273 -0.67111,0.79095 -0.33555,0.26364 -0.79094,0.45539 -1.2703,0.45539 -0.31159,0 -0.81492,-0.11984 -1.19841,-0.5992 -0.40745,-0.4554 -0.74301,-1.27031 -0.74301,-2.63649 0,-1.46205 0.43143,-2.51664 1.00666,-3.23568 0.57523,-0.71904 1.29428,-1.17444 1.89348,-1.48602 0.5992,-0.31159 1.05459,-0.5273 1.15046,-0.79095 l 0,-1.43808 m 0,3.66711 c -1.17443,0.50333 -1.67776,1.67776 -1.67776,2.9241 0,0.16778 0.024,0.45539 0.11984,0.71904 0.0959,0.28762 0.26365,0.50333 0.55127,0.50333 0.55126,0 1.00665,-0.33555 1.00665,-0.79094 l 0,-3.35553"
         style="font-variant:normal;font-stretch:normal;font-family:League Gothic;-inkscape-font-specification:League Gothic"
         id="path3194" />
      <path
         inkscape:connector-curvature="0"
         d="m 317.96775,752.31575 c -0.21571,-0.0719 -0.45539,-0.0959 -0.67111,-0.0959 -0.38348,0 -0.83888,0.0479 -1.22237,0.40746 -0.45539,0.38348 -0.52729,0.79094 -0.52729,1.1984 l 0,9.10785 -2.42078,0 0,-13.11052 2.42078,0 0,1.46206 c 0.024,-0.16778 0.19174,-0.57524 0.57523,-0.95873 0.38349,-0.35952 0.95872,-0.69507 1.84554,-0.69507 l 0,2.68442"
         style="font-variant:normal;font-stretch:normal;font-family:League Gothic;-inkscape-font-specification:League Gothic"
         id="path3196" />
      <path
         inkscape:connector-curvature="0"
         d="m 321.44536,762.93359 -2.42077,0 0,-17.61651 2.42077,0 0,5.60852 c 0.0479,-0.024 0.14381,-0.11984 0.28762,-0.26364 0.26365,-0.26365 0.62317,-0.62317 1.05459,-0.86285 0.21571,-0.11984 0.40746,-0.16778 0.62317,-0.16778 0.64714,0 1.10253,0.38349 1.39015,0.86285 0.28761,0.50333 0.43142,1.15047 0.43142,1.70173 l 0,10.73768 -2.42077,0 0,-10.37816 c 0,-0.50333 -0.28762,-0.57523 -0.57523,-0.57523 -0.26365,0 -0.40746,0.14381 -0.57524,0.31158 -0.0719,0.0959 -0.1438,0.19175 -0.21571,0.31159 l 0,10.33022"
         style="font-variant:normal;font-stretch:normal;font-family:League Gothic;-inkscape-font-specification:League Gothic"
         id="path3198" />
      <path
         inkscape:connector-curvature="0"
         d="m 330.64984,752.93892 c 0,-0.21571 0,-0.55127 -0.0719,-0.79095 -0.0959,-0.23968 -0.28761,-0.40745 -0.5992,-0.40745 -0.40745,0 -0.57523,0.31158 -0.64713,0.69507 -0.024,0.19175 -0.0479,0.40746 -0.0479,0.62317 0,0.21571 0,0.43143 0,0.62317 l -2.42077,0 0,-0.55127 c 0,-0.95872 0.35952,-1.82157 0.93475,-2.4687 0.57523,-0.64714 1.39015,-1.03063 2.3249,-1.03063 0.79095,0 1.50999,0.31159 2.06125,0.83888 0.55127,0.5273 0.88682,1.27031 0.88682,2.13316 l 0,8.05326 c 0,1.17443 0.0719,1.70173 0.16778,2.27696 l -2.37284,0 c -0.21571,-0.26364 -0.21571,-0.88681 -0.21571,-1.05459 l -0.16778,0 c -0.11984,0.21571 -0.33555,0.5273 -0.6711,0.79095 -0.33556,0.26364 -0.79095,0.45539 -1.27031,0.45539 -0.31158,0 -0.81491,-0.11984 -1.1984,-0.5992 -0.40746,-0.4554 -0.74301,-1.27031 -0.74301,-2.63649 0,-1.46205 0.43142,-2.51664 1.00666,-3.23568 0.57523,-0.71904 1.29427,-1.17444 1.89347,-1.48602 0.5992,-0.31159 1.0546,-0.5273 1.15047,-0.79095 l 0,-1.43808 m 0,3.66711 c -1.17443,0.50333 -1.67776,1.67776 -1.67776,2.9241 0,0.16778 0.024,0.45539 0.11984,0.71904 0.0959,0.28762 0.26364,0.50333 0.55126,0.50333 0.55126,0 1.00666,-0.33555 1.00666,-0.79094 l 0,-3.35553"
         style="font-variant:normal;font-stretch:normal;font-family:League Gothic;-inkscape-font-specification:League Gothic"
         id="path3200" />
      <path
         inkscape:connector-curvature="0"
         d="m 340.05392,762.93359 -0.93475,-6.25566 -0.11984,-0.743 -0.0959,0 -0.11984,0.743 -0.93476,6.25566 -2.01331,0 -1.94141,-13.11052 2.20506,0 0.76697,6.85486 0.0959,0.74301 0.14381,0 0.11984,-0.74301 1.00665,-6.85486 1.43809,0 1.00665,6.85486 0.11984,0.74301 0.14381,0 0.0959,-0.74301 0.76698,-6.85486 2.20506,0 -1.94141,13.11052 -2.01332,0"
         style="font-variant:normal;font-stretch:normal;font-family:League Gothic;-inkscape-font-specification:League Gothic"
         id="path3202" />
      <path
         inkscape:connector-curvature="0"
         d="m 347.61359,745.31708 0,8.36485 0.11984,0 0.14381,-0.43143 1.17444,-3.42743 2.18109,0 -1.74967,4.26632 2.20506,8.8442 -2.3249,0 -1.1984,-5.29693 -0.0479,-0.19175 -0.11984,0 -0.0719,0.19175 -0.31159,0.76697 0,4.52996 -2.42077,0 0,-17.61651 2.42077,0"
         style="font-variant:normal;font-stretch:normal;font-family:League Gothic;-inkscape-font-specification:League Gothic"
         id="path3204" />
    </g>
  </g>
</svg>
