<?xml version="1.0" encoding="UTF-8" standalone="no"?>
<!-- Created with Inkscape (http://www.inkscape.org/) -->

<svg
   xmlns:dc="http://purl.org/dc/elements/1.1/"
   xmlns:cc="http://creativecommons.org/ns#"
   xmlns:rdf="http://www.w3.org/1999/02/22-rdf-syntax-ns#"
   xmlns:svg="http://www.w3.org/2000/svg"
   xmlns="http://www.w3.org/2000/svg"
   xmlns:sodipodi="http://sodipodi.sourceforge.net/DTD/sodipodi-0.dtd"
   xmlns:inkscape="http://www.inkscape.org/namespaces/inkscape"
   width="372.04724"
   height="524.40942"
   id="svg2"
   version="1.1"
   inkscape:version="0.48.4 r9939"
   sodipodi:docname="historia_del_copyright.svg">
  <defs
     id="defs4" />
  <sodipodi:namedview
     id="base"
     pagecolor="#ffffff"
     bordercolor="#666666"
     borderopacity="1.0"
     inkscape:pageopacity="0.0"
     inkscape:pageshadow="2"
     inkscape:zoom="0.7"
     inkscape:cx="296.85053"
     inkscape:cy="261.44175"
     inkscape:document-units="mm"
     inkscape:current-layer="layer1-8"
     showgrid="false"
     showguides="true"
     inkscape:guide-bbox="true"
     units="mm"
     inkscape:window-width="1360"
     inkscape:window-height="749"
     inkscape:window-x="0"
     inkscape:window-y="19"
     inkscape:window-maximized="1">
    <sodipodi:guide
       orientation="1,0"
       position="262.20472,0"
       id="guide3168" />
    <sodipodi:guide
       orientation="0,1"
       position="72.857143,271.42857"
       id="guide3277" />
  </sodipodi:namedview>
  <metadata
     id="metadata7">
    <rdf:RDF>
      <cc:Work
         rdf:about="">
        <dc:format>image/svg+xml</dc:format>
        <dc:type
           rdf:resource="http://purl.org/dc/dcmitype/StillImage" />
        <dc:title></dc:title>
      </cc:Work>
    </rdf:RDF>
  </metadata>
  <g
     inkscape:label="Capa 1"
     inkscape:groupmode="layer"
     id="layer1"
     transform="translate(0,-527.95267)">
    <g
       id="layer1-8"
       inkscape:label="Capa 1"
       transform="matrix(0.16088167,0,0,0.16157504,416.66039,909.65661)">
      <rect
         style="fill:#660080"
         id="rect3033"
         width="2311.1309"
         height="3267.2429"
         x="-2589.8562"
         y="-2384.0276" />
      <g
         inkscape:export-ydpi="149"
         inkscape:export-xdpi="149"
         inkscape:export-filename="/srv/http/kiwwwi.com.ar/pastes/utopia-pirata-2.png"
         transform="matrix(0.67937345,0,0,0.67937345,-233.93427,225.03697)"
         id="g3847" />
      <g
         id="g4077"
         transform="matrix(1.418919,0,0,1.418919,-1202.4556,-369.99562)">
        <g
           transform="matrix(0.67937345,0,0,0.67937345,-35.215221,207.58407)"
           id="g3851"
           inkscape:export-filename="/srv/http/kiwwwi.com.ar/pastes/utopia-pirata-2.png"
           inkscape:export-xdpi="149"
           inkscape:export-ydpi="149">
          <path
             style="fill:#ffffff;stroke:#000000;stroke-width:0.70476186"
             inkscape:connector-curvature="0"
             id="path719"
             d="m 910.84122,610.02908 c -15,21 -31.266,38.794 -49,60 l -24,27 c -20,19 -70,56 -93,71 -13,9 -27,16 -41,22 l -18.26,8.84 c 3,3 8.58,4.641 13.629,7 3,0 13.631,-5.84 16.631,-7.84 l 32,-18 c 6,-4 12,-9 19,-10 -3,7 -10,11 -17,15 l -19,11 c 0,0 -19.951,11.37 -22.68,13.26 5.469,2.16 13.68,4.641 18.889,6.74 5,0 11.791,-5 15.791,-7 11,-6 25,-15 36,-23 l 18,-12 c 14,-11 28,-23 41,-36 10,-9 20,-18 28,-29 11,-13 18,-28 26,-43 9,-14 12,-23 17,-38 1,-5 4,-13 2,-18 z" />
          <path
             style="fill:#ffffff;stroke:#000000;stroke-width:0.70476186"
             inkscape:connector-curvature="0"
             id="path725"
             d="m 451.84122,605.02908 c -3,11 1,24 5,34 9,24 24,45 39,65 9,13 24,29 35,40 l 12,10 26,23 c 21,16 60,40 84,51 l 32,14 13,5 c 15,6 30,10 46,13 9,2 19,5 28,5 -3,-11 -9,-10 -18,-13 l -33,-13 c -46,-19 -97,-38 -133,-74 7,0 12,6 17,10 7,5 16,11 24,16 22,13 72,36 97,45 10,4 27,11 37,11 8,1 19,-4 25,-8 -4,-4 -8,-3 -14,-4 l -31,-9 c -27,-7 -53,-17 -78,-30 l -14,-6 -19,-12 -23,-15 -24,-19 -41,-32 -38,-39 -19,-22 -20,-22 -15,-24 z" />
          <path
             style="fill:#ffffff;stroke:#000000;stroke-width:0.70476186"
             inkscape:connector-curvature="0"
             id="path731"
             d="m 772.84122,852.02908 c 2,4 6,10 6,15 0,11 -13,21 -23,20 -4,-1 -13,-6 -16,0 -1,2 -1,4 0,5 0,4 5,6 9,8 11,3 23,-1 32,-7 7,-4 12,-11 14,-19 l 2,-13 c 1,-4 5,-5 10,-12 6,-8 12,-22 20,-28 3,-2 6,-3 10,-4 -2,-3 -4,-5 -6,-8 -2,-1 -4,-3 -6,-3 -3,-1 -7,-1 -10,1 -14,7 -11,20 -19,30 -6,8 -13,12 -23,15 z" />
          <path
             style="fill:#ffffff;stroke:#000000;stroke-width:0.70476186"
             inkscape:connector-curvature="0"
             id="path737"
             d="m 804.84122,865.02908 c 7,3 13,2 20,2 l 15,1 c 7,0 9,-4 12,-10 1,-2 2,-6 0,-8 -2,-2 -6,-2 -9,-2 l -17,1 c -3,0 -8,0 -11,1 -5,3 -9,10 -10,15 z" />
          <path
             style="fill:#ffffff;stroke:#000000;stroke-width:0.70476186"
             inkscape:connector-curvature="0"
             id="path743"
             d="m 858.84122,879.02908 c -5,-2 -8,-4 -11,-8 -1,1 -2,1 -3,2 -1,5 12,17 14,6 z" />
          <path
             style="fill:#ffffff;stroke:#000000;stroke-width:0.70476186"
             inkscape:connector-curvature="0"
             id="path744"
             d="m 851.84122,845.02908 8,5 c -2,4 -7,12 -6,17 1,10 15,10 21,4 7,-8 7,-20 -3,-26 -6,-3 -13,-2 -20,0 z" />
          <path
             style="fill:#ffffff;stroke:#000000;stroke-width:0.70476186"
             inkscape:connector-curvature="0"
             id="selection_x5F_to_x5F_path_x23_5"
             d="m 492.84122,873.02908 1,1 c 8,-2 13,-5 14,-13 -6,1 -12,7 -15,12 z" />
          <path
             style="fill:#ffffff;stroke:#000000;stroke-width:0.70476186"
             inkscape:connector-curvature="0"
             id="selection_x5F_to_x5F_path_x23_4"
             d="m 499.84122,836.02908 c -3,-2 -6,-3 -10,-3 -3,0 -6,0 -9,1 -10,4 -11,20 -3,27 4,4 14,6 18,1 4,-4 3,-9 1,-14 -1,-3 -3,-7 -1,-9 1,-2 3,-2 4,-3 z" />
          <path
             style="fill:#ffffff;stroke:#000000;stroke-width:0.70476186"
             inkscape:connector-curvature="0"
             id="selection_x5F_to_x5F_path_x23_3"
             d="m 498.84122,840.02908 c 1,3 6,15 8,17 3,2 6,2 9,2 l 18,-1 h 13 c 0,-3 0,-6 -1,-8 -3,-8 -14,-12 -22,-12 l -9,1 c -6,0 -11,-1 -16,1 z" />
          <path
             style="fill:#ffffff;stroke:#000000;stroke-width:0.70476186"
             inkscape:connector-curvature="0"
             id="selection_x5F_to_x5F_path_x23_2"
             d="m 517.84122,808.02908 c 19,5 19,21 27,32 3,4 11,10 12,14 1,3 0,4 1,11 2,9 8,18 16,23 9,6 17,10 28,7 6,-2 12,-6 9,-13 -3,-7 -14,0 -21,-2 -7,-3 -15,-13 -15,-21 l 4,-14 c -11,-4 -24,-13 -29,-24 -3,-7 -3,-17 -8,-22 -9,-7 -21,-1 -24,9 z" />
          <path
             style="fill:#ffffff;stroke:#000000;stroke-width:0.70476186"
             inkscape:connector-curvature="0"
             id="path758"
             d="m 565.84122,831.02908 c 3,4 5,5 9,7 14,8 23,2 37,-1 l 29,-9 c -3.84,-2.58 -12.42,-7.95 -16,-10 l -19,5 -40,8 z" />
          <path
             style="fill:#ffffff;stroke:#000000;stroke-width:0.70476186"
             inkscape:connector-curvature="0"
             id="path759"
             d="m 579.84122,860.02908 c 26,0 50,-8 75,-14 0,0 11,-5.206 14.676,-5.206 -3.47,-2.529 -17.622,-7.638 -19.836,-9.634 -3,0.89 -14.84,4.84 -18.84,5.84 l -25,7 -12,3 c -7,3 -12,4 -14,13 z" />
        </g>
        <circle
           id="circle3807"
           r="107.775"
           cy="156.03101"
           cx="376.047"
           sodipodi:cx="376.047"
           sodipodi:cy="156.03101"
           sodipodi:rx="107.775"
           sodipodi:ry="107.775"
           style="fill:none;stroke:#ffffff;stroke-width:14.09523773"
           d="m 483.822,156.03101 c 0,59.52249 -48.25251,107.775 -107.775,107.775 -59.52249,0 -107.775,-48.25251 -107.775,-107.775 0,-59.522494 48.25251,-107.775006 107.775,-107.775006 59.52249,0 107.775,48.252512 107.775,107.775006 z"
           transform="matrix(0.67937348,0,0,0.67937344,172.06628,463.24141)" />
        <path
           id="path3809"
           d="m 972.7768,439.2957 c -31.919,0 -58.663,22.231 -65.598,52.05 h 32.187 c 5.808,-12.648 18.59,-21.432 33.411,-21.432 20.282,0 36.742,16.46 36.742,36.741 0,20.281 -16.46,36.742 -36.742,36.742 -14.821,0 -27.604,-8.785 -33.411,-21.433 h -32.187 c 6.935,29.819 33.679,52.05 65.598,52.05 37.183,0 67.359,-30.177 67.359,-67.359 0,-37.182 -30.177,-67.359 -67.359,-67.359 z"
           inkscape:connector-curvature="0"
           style="fill:#ffffff"
           transform="matrix(0.67937348,0,0,0.67937344,-233.93429,225.03699)" />
        <g
           transform="matrix(-0.72702905,0.19480685,-0.19480685,-0.72702905,-611.71218,-436.375)"
           style="font-size:121.8484726px;font-style:normal;font-weight:normal;line-height:125%;letter-spacing:0px;word-spacing:0px;fill:#ffffff;fill-opacity:1;stroke:none;font-family:Bitstream Vera Sans"
           id="text3059"
           inkscape:export-filename="/srv/http/kiwwwi.com.ar/pastes/utopia-pirata-2.png"
           inkscape:export-xdpi="149"
           inkscape:export-ydpi="149">
          <g
             id="g3922"
             transform="matrix(0.99707364,-0.07644708,0.07644708,0.99707364,125.06749,-81.555005)">
            <path
               inkscape:export-ydpi="149"
               inkscape:export-xdpi="149"
               inkscape:export-filename="/srv/http/kiwwwi.com.ar/pastes/utopia-pirata-1.png"
               sodipodi:type="arc"
               style="fill:none;stroke:none"
               id="path3865"
               sodipodi:cx="-1311.178"
               sodipodi:cy="-1543.7299"
               sodipodi:rx="127.27922"
               sodipodi:ry="127.27922"
               d="m -1183.8988,-1543.7299 c 0,70.2944 -56.9848,127.2793 -127.2792,127.2793 -70.2944,0 -127.2792,-56.9849 -127.2792,-127.2793 0,-70.2943 56.9848,-127.2792 127.2792,-127.2792 70.2944,0 127.2792,56.9849 127.2792,127.2792 z"
               transform="matrix(-0.8718552,-0.2336129,0.2336129,-0.8718552,-1786.4657,-3244.8873)" />
            <path
               inkscape:connector-curvature="0"
               id="path3897"
               style="font-style:normal;font-variant:normal;font-weight:normal;font-stretch:normal;fill:#ffffff;font-family:League Gothic;-inkscape-font-specification:League Gothic"
               d="m -778.04883,-1594.9487 -70.08465,-12.3215 c -3.57914,-0.7529 -6.69277,-2.0426 -9.22087,-3.848 -2.21027,-1.502 -4.19505,-3.583 -5.5732,-6.2996 -1.49816,-2.7377 -2.00858,-6.1679 -1.24904,-10.4881 0.75954,-4.3203 2.43037,-7.4907 4.77246,-9.5532 2.22209,-2.0837 4.77652,-3.243 7.36656,-3.9011 2.99226,-0.8348 6.35907,-0.9852 9.98041,-0.4723 l 70.08465,12.3215 -2.27862,12.9608 -70.08465,-12.3214 c -2.52017,-0.4431 -4.30577,-0.1384 -5.83684,0.8296 -0.70553,0.4946 -1.21325,1.2713 -1.40313,2.3514 -0.40087,2.2801 0.84934,3.6134 2.56507,4.4099 0.77676,0.5077 1.83573,0.8176 3.15582,1.0497 l 70.08465,12.3214 -2.27862,12.9609" />
            <path
               inkscape:connector-curvature="0"
               id="path3899"
               style="font-style:normal;font-variant:normal;font-weight:normal;font-stretch:normal;fill:#ffffff;font-family:League Gothic;-inkscape-font-specification:League Gothic"
               d="m -801.09593,-1568.8963 11.85811,6.5051 -18.28444,33.3309 -11.85812,-6.5051 5.97761,-10.8966 -66.66184,-36.5689 6.32923,-11.5376 66.66184,36.5689 5.97761,-10.8967" />
            <path
               inkscape:connector-curvature="0"
               id="path3901"
               style="font-style:normal;font-variant:normal;font-weight:normal;font-stretch:normal;fill:#ffffff;font-family:League Gothic;-inkscape-font-specification:League Gothic"
               d="m -902.22684,-1531.2768 c -2.40064,-2.7594 -4.10625,-5.6661 -5.0338,-8.6309 -0.857,-2.5312 -1.18494,-5.3882 -0.64563,-8.3863 0.45632,-3.0873 2.1181,-6.1311 5.32973,-9.1189 3.21164,-2.9879 6.45655,-4.5088 9.56871,-4.7413 3.02918,-0.3218 5.76585,0.2943 8.22867,1.3316 2.89022,1.139 5.66638,3.0497 8.24545,5.6431 l 35.93698,38.6289 c 2.31765,2.6701 4.02326,5.5768 4.95082,8.5417 0.85699,2.5312 1.35714,5.3944 0.81783,8.3924 -0.53932,2.9981 -2.20731,6.2141 -5.41895,9.202 -3.21163,2.9878 -6.45032,4.3365 -9.47949,4.6583 -3.02918,0.3217 -5.93806,-0.3006 -8.40087,-1.3379 -2.89023,-1.1389 -5.66638,-3.0497 -8.16246,-5.5539 l -35.93699,-38.6288 m 45.57191,29.6653 c 1.65991,1.7843 3.1787,2.7013 5.06676,2.9419 0.86104,0.031 1.82372,-0.3653 2.62663,-1.1122 1.69503,-1.5769 1.33601,-3.5729 0.61392,-5.0646 -0.39633,-0.9627 -1.05407,-1.8486 -1.88403,-2.7407 l -35.93698,-38.6289 c -1.74291,-1.8735 -3.35091,-2.7075 -5.15597,-2.8588 -0.86104,-0.031 -1.73451,0.2822 -2.53742,1.0292 -1.69503,1.5769 -1.502,3.3944 -0.61392,5.0645 0.31333,0.8735 0.97108,1.7594 1.88402,2.7408 l 35.93699,38.6288" />
            <path
               inkscape:connector-curvature="0"
               id="path3903"
               style="font-style:normal;font-variant:normal;font-weight:normal;font-stretch:normal;fill:#ffffff;font-family:League Gothic;-inkscape-font-specification:League Gothic"
               d="m -886.59996,-1457.8116 -12.05827,5.2702 c -5.24757,2.2934 -11.08073,3.2471 -16.75926,1.2077 -5.67853,-2.0394 -11.09081,-7.1207 -15.18979,-16.4994 -4.09898,-9.3786 -4.10323,-16.6905 -1.74292,-22.2434 2.3603,-5.5528 6.92473,-9.4094 12.1723,-11.7029 l -14.34645,-32.8252 12.05826,-5.2702 35.86613,82.0632 m -28.21022,-31.6862 c -3.68447,1.6103 -5.73635,3.305 -6.2466,5.7886 -0.55905,2.372 0.42353,5.5329 2.42423,10.1106 2.00069,4.5777 3.75077,7.6692 5.96893,9.0933 2.21816,1.4242 4.95321,1.2926 8.63767,-0.3177 l -10.78423,-24.6748" />
            <path
               inkscape:connector-curvature="0"
               id="path3905"
               style="font-style:normal;font-variant:normal;font-weight:normal;font-stretch:normal;fill:#ffffff;font-family:League Gothic;-inkscape-font-specification:League Gothic"
               d="m -948.99443,-1436.6047 -13.00674,2.0001 -13.61231,-88.5181 13.00674,-2.0001 13.61231,88.5181" />
            <path
               inkscape:connector-curvature="0"
               id="path3907"
               style="font-style:normal;font-variant:normal;font-weight:normal;font-stretch:normal;fill:#ffffff;font-family:League Gothic;-inkscape-font-specification:League Gothic"
               d="m -981.75508,-1521.0222 -23.62102,87.4398 -15.9797,-1.8289 -3.2539,-90.5157 12.7111,1.4548 0.3429,18.4359 12.59007,1.4409 4.49944,-17.8816 12.71111,1.4548 m -29.02582,57.5093 0.1,2.3417 0.7264,0.083 0.6264,-2.2585 6.9672,-27.656 -8.9583,-1.0253 0.5384,28.515" />
            <path
               inkscape:connector-curvature="0"
               id="path3909"
               style="font-style:normal;font-variant:normal;font-weight:normal;font-stretch:normal;fill:#ffffff;font-family:League Gothic;-inkscape-font-specification:League Gothic"
               d="m -1099.1166,-1462.6292 -10.788,-7.5362 c -4.6948,-3.2797 -8.5522,-7.758 -9.7757,-13.6663 -1.2235,-5.9083 0.2868,-13.1768 6.1483,-21.5675 5.8615,-8.3906 12.0967,-12.2098 18.0653,-13.094 5.9685,-0.8841 11.6402,0.9971 16.335,4.2767 l 20.5152,-29.3674 10.7881,7.5362 -51.2882,73.4185 m 12.3091,-40.5995 c -3.2963,-2.3027 -5.8127,-3.1688 -8.1976,-2.308 -2.3152,0.7609 -4.4989,3.2485 -7.3599,7.344 -2.8609,4.0954 -4.5849,7.2016 -4.6423,9.8369 -0.057,2.6354 1.4821,4.8999 4.7784,7.2026 l 15.4214,-22.0755" />
            <path
               inkscape:connector-curvature="0"
               id="path3911"
               style="font-style:normal;font-variant:normal;font-weight:normal;font-stretch:normal;fill:#ffffff;font-family:League Gothic;-inkscape-font-specification:League Gothic"
               d="m -1149.6319,-1504.5948 -8.5195,-10.0296 68.2572,-57.9801 8.5196,10.0296 -68.2573,57.9801" />
            <path
               inkscape:connector-curvature="0"
               id="path3913"
               style="font-style:normal;font-variant:normal;font-weight:normal;font-stretch:normal;fill:#ffffff;font-family:League Gothic;-inkscape-font-specification:League Gothic"
               d="m -1106.4208,-1601.3444 -31.2348,22.3102 1.5099,3.1948 34.1507,-16.1412 5.6233,11.8977 -80.97,38.2701 -5.6234,-11.8977 c -6.7168,-14.211 -1.5386,-24.071 13.7741,-31.3085 8.0419,-3.8009 16.302,-5.1443 21.5214,-2.0855 l 35.6254,-26.1376 5.6234,11.8977 m -40.7412,30.7118 c -0.781,-1.6525 -2.0427,-3.7516 -4.4181,-4.7852 -2.3754,-1.0337 -6.0267,-1.06 -11.7551,1.6476 -5.7285,2.7075 -8.1362,5.5975 -8.8454,8.0891 -0.7092,2.4916 0.222,4.7469 1.003,6.3994 l 24.0156,-11.3509" />
            <path
               inkscape:connector-curvature="0"
               id="path3915"
               style="font-style:normal;font-variant:normal;font-weight:normal;font-stretch:normal;fill:#ffffff;font-family:League Gothic;-inkscape-font-specification:League Gothic"
               d="m -1113.2219,-1617.132 -90.458,-4.5863 -1.5934,-16.0049 87.7782,-22.331 1.2675,12.7311 -17.946,4.2357 1.2554,12.6099 18.4288,0.6143 1.2675,12.7312 m -62.3486,-16.2013 -2.2675,0.5931 0.072,0.7275 2.34,0.1344 28.504,0.9582 -0.8933,-8.9724 -27.7556,6.5592" />
            <path
               inkscape:connector-curvature="0"
               id="path3917"
               style="font-style:normal;font-variant:normal;font-weight:normal;font-stretch:normal;fill:#ffffff;font-family:League Gothic;-inkscape-font-specification:League Gothic"
               d="m -1191.1447,-1674.8241 -13.2316,-2.8027 7.8779,-37.1915 13.2316,2.8027 -2.5754,12.1588 74.383,15.7558 -2.727,12.874 -74.383,-15.7558 -2.5755,12.1587" />
            <path
               inkscape:connector-curvature="0"
               id="path3919"
               style="font-style:normal;font-variant:normal;font-weight:normal;font-stretch:normal;fill:#ffffff;font-family:League Gothic;-inkscape-font-specification:League Gothic"
               d="m -1109.3262,-1695.6338 -70.438,-56.94 8.1301,-13.8779 84.1114,33.5999 -6.4672,11.0393 -17.0021,-7.1361 -6.4056,10.9341 14.5385,11.3415 -6.4671,11.0392 m -40.876,-49.7893 -2.1823,-0.8549 -0.3696,0.6309 1.8128,1.4856 22.4821,17.5485 4.5578,-7.78 -26.3008,-11.0301" />
          </g>
        </g>
      </g>
    </g>
    <rect
       style="fill:#ffffff"
       id="rect3035"
       width="372.04724"
       height="173.31082"
       x="-2.0465302e-07"
       y="589.1864" />
    <g
       id="g3370"
       transform="matrix(1.418919,0,0,1.418919,-373.67568,-440.85448)">
      <g
         id="text3025"
         style="font-size:40px;font-style:normal;font-variant:normal;font-weight:normal;font-stretch:normal;line-height:125%;letter-spacing:0px;word-spacing:0px;fill:#000000;fill-opacity:1;stroke:none;font-family:League Gothic;-inkscape-font-specification:League Gothic"
         transform="translate(-0.25254936,-1.7019788)">
        <path
           id="path3042"
           d="m 279.52057,812.36212 4.31641,0 0,-12.79297 3.35937,0 0,12.79297 4.31641,0 0,-29.39453 -4.31641,0 0,12.14844 -3.35937,0 0,-12.14844 -4.31641,0 0,29.39453"
           inkscape:connector-curvature="0" />
        <path
           id="path3044"
           d="m 294.75494,812.36212 4.04297,0 0,-21.875 -4.04297,0 0,21.875 m 0,-25.35156 4.04297,0 0,-4.04297 -4.04297,0 0,4.04297"
           inkscape:connector-curvature="0" />
        <path
           id="path3046"
           d="m 301.14166,805.99493 c 0,1.70574 0.31901,3.10548 0.95703,4.19922 0.96354,1.65365 2.52604,2.48047 4.6875,2.48047 1.71875,0 3.05989,-0.66406 4.02344,-1.99219 0.7552,-1.05468 1.1328,-2.38931 1.13281,-4.0039 -10e-6,-1.21093 -0.40365,-2.47395 -1.21093,-3.78906 -0.4297,-0.67708 -1.26954,-1.64062 -2.51953,-2.89063 -0.78126,-0.72915 -1.3672,-1.35415 -1.75782,-1.875 -0.58594,-0.71613 -0.87891,-1.39972 -0.8789,-2.05078 -1e-5,-0.72915 0.0781,-1.28905 0.23437,-1.67969 0.18229,-0.58592 0.52083,-0.87889 1.01563,-0.8789 0.53384,1e-5 0.91796,0.29298 1.15234,0.8789 0.10416,0.35158 0.15624,0.91148 0.15625,1.67969 l 3.76953,0 c -1e-5,-1.70571 -0.26694,-3.00779 -0.80078,-3.90625 -0.79428,-1.34113 -2.18751,-2.0117 -4.17969,-2.01172 -0.0521,2e-5 -0.11068,2e-5 -0.17578,0 -1.71875,0.0391 -3.02735,0.70966 -3.92578,2.01172 -0.66406,1.00262 -0.9961,2.3047 -0.99609,3.90625 -1e-5,1.3672 0.41015,2.66277 1.23047,3.88672 0.45572,0.67709 1.32161,1.62761 2.59765,2.85156 0.54687,0.54688 0.96354,0.98308 1.25,1.30859 0.28645,0.31251 0.5664,0.71616 0.83985,1.21094 0.28645,0.48178 0.42967,0.931 0.42968,1.34766 -10e-6,1.75781 -0.46224,2.63672 -1.38672,2.63672 -0.71615,0 -1.23698,-0.41016 -1.5625,-1.23047 -0.22135,-0.52083 -0.33203,-1.21744 -0.33203,-2.08985 l -3.75,0"
           inkscape:connector-curvature="0" />
        <path
           id="path3048"
           d="m 313.15338,794.11993 2.05078,0 0,11.21094 c 0,2.00521 0.20182,3.54818 0.60547,4.62891 0.67708,1.80989 2.01823,2.71484 4.02344,2.71484 0.65103,0 1.17187,-0.0391 1.5625,-0.11719 0.0651,-0.013 0.16275,-0.0391 0.29297,-0.0781 0.14322,-0.0391 0.24738,-0.0651 0.3125,-0.0781 l 0,-3.96484 c -0.0521,0.013 -0.13022,0.0261 -0.23438,0.0391 -0.10417,0.013 -0.1823,0.026 -0.23437,0.0391 -0.36459,0.0521 -0.70314,0.0781 -1.01563,0.0781 -0.5599,0 -0.93099,-0.43619 -1.11328,-1.30859 -0.10417,-0.48177 -0.15626,-1.24349 -0.15625,-2.28516 l 0,-10.87891 2.75391,0 0,-3.63281 -2.75391,0 0,-5.41015 -4.04297,0 0,5.41015 -2.05078,0 0,3.63281"
           inkscape:connector-curvature="0" />
        <path
           id="path3050"
           d="m 323.75885,806.9129 c 0.0391,0.98959 0.2539,1.95313 0.64453,2.89063 0.85937,1.91406 2.36979,2.87109 4.53125,2.87109 1.3151,0 2.32421,-0.29297 3.02735,-0.8789 0.70311,-0.57292 1.22394,-1.23698 1.5625,-1.99219 0.33853,-0.76823 0.54035,-1.6862 0.60546,-2.75391 l 0,-11.25 c -0.0391,-0.92446 -0.25391,-1.85545 -0.64453,-2.79297 -0.8724,-1.90102 -2.38933,-2.85154 -4.55078,-2.85156 -1.34115,2e-5 -2.34375,0.29299 -3.00781,0.87891 -1.32813,1.11981 -2.05078,2.74741 -2.16797,4.88281 l 0,10.99609 m 3.80859,0 0,-10.99609 c -0.013,-0.10415 -0.0195,-0.20832 -0.0195,-0.3125 0,-0.29946 0.0456,-0.56639 0.13672,-0.80078 0.19531,-0.74217 0.61197,-1.11326 1.25,-1.11328 0.3776,2e-5 0.67057,0.10418 0.87891,0.3125 0.33853,0.4297 0.5078,0.99611 0.50781,1.69922 -10e-6,0.0781 -10e-6,0.14975 0,0.21484 l 0,10.99609 c 0.013,0.10417 0.0195,0.20834 0.0195,0.3125 -1e-5,0.31251 -0.0456,0.58594 -0.13672,0.82032 -0.1823,0.71614 -0.60547,1.07422 -1.26953,1.07421 -0.35157,1e-5 -0.63151,-0.10416 -0.83984,-0.3125 -0.35157,-0.45572 -0.52735,-1.01562 -0.52735,-1.67968 0,-0.0781 0,-0.14974 0,-0.21485"
           inkscape:connector-curvature="0" />
        <path
           id="path3052"
           d="m 336.94244,812.36212 4.04297,0 0,-15.19531 c 0,-0.84634 0.29297,-1.51691 0.87891,-2.01172 0.46874,-0.44269 1.14582,-0.66404 2.03125,-0.66406 0.4427,2e-5 0.8203,0.0521 1.13281,0.15625 l 0,-4.49219 c -1.22397,2e-5 -2.25261,0.39065 -3.08594,1.17188 -0.28646,0.28647 -0.51433,0.57944 -0.68359,0.8789 -0.15626,0.2995 -0.2474,0.54039 -0.27344,0.72266 l 0,-2.44141 -4.04297,0 0,21.875"
           inkscape:connector-curvature="0" />
        <path
           id="path3054"
           d="m 346.78619,812.36212 4.04297,0 0,-21.875 -4.04297,0 0,21.875 m 0,-25.35156 4.04297,0 0,-4.04297 -4.04297,0 0,4.04297"
           inkscape:connector-curvature="0" />
        <path
           id="path3056"
           d="m 353.40729,807.284 c 0,2.00521 0.41666,3.47005 1.25,4.39453 0.53385,0.66406 1.19791,0.99609 1.99219,0.99609 0.78124,0 1.49087,-0.2539 2.1289,-0.76172 0.45572,-0.36458 0.82682,-0.80078 1.11328,-1.30859 l 0.27344,0 c -10e-6,0.85937 0.12369,1.44531 0.37109,1.75781 l 3.94532,0 c -0.18231,-1.11979 -0.27345,-2.38932 -0.27344,-3.80859 l 0,-13.4375 c -1e-5,-1.41925 -0.4948,-2.60415 -1.48438,-3.55469 -0.97657,-0.93748 -2.1224,-1.40623 -3.4375,-1.40625 -1.5625,2e-5 -2.85156,0.57294 -3.86718,1.71875 -1.04167,1.17189 -1.56251,2.54559 -1.5625,4.12109 l 0,0.91797 4.04297,0 0,-1.03515 c -10e-6,-0.27342 0.026,-0.61848 0.0781,-1.03516 0.14322,-0.76821 0.5013,-1.15232 1.07422,-1.15234 0.48176,2e-5 0.81379,0.22137 0.99609,0.66406 0.0781,0.26043 0.11718,0.70314 0.11719,1.32812 l 0,2.40235 c -0.026,0.0651 -0.0586,0.13022 -0.0977,0.19531 -0.0391,0.0521 -0.0977,0.11069 -0.17578,0.17578 -0.0781,0.0651 -0.15625,0.12371 -0.23437,0.17578 -0.0651,0.0391 -0.16277,0.0977 -0.29297,0.17578 -0.13022,0.0651 -0.24089,0.12372 -0.33203,0.17579 -0.0781,0.0391 -0.20834,0.10418 -0.39063,0.19531 -0.16927,0.0912 -0.29948,0.16277 -0.39062,0.21484 -1.35417,0.71616 -2.40886,1.54298 -3.16406,2.48047 -1.1198,1.39324 -1.67969,3.19662 -1.67969,5.41016 m 3.96484,-0.60547 c 0,-1.09375 0.22786,-2.07682 0.6836,-2.94922 0.46874,-0.88541 1.17186,-1.52994 2.10937,-1.93359 l 0,5.60546 c -10e-6,0.37761 -0.16277,0.69662 -0.48828,0.95704 -0.32553,0.24739 -0.72266,0.37109 -1.19141,0.37109 -0.42969,0 -0.73568,-0.27994 -0.91797,-0.83984 -0.13021,-0.3776 -0.19531,-0.78125 -0.19531,-1.21094"
           inkscape:connector-curvature="0" />
        <path
           id="path3058"
           d="m 372.95807,808.39728 c 0,1.10677 0.2539,2.04427 0.76172,2.8125 0.57291,0.97656 1.35416,1.46484 2.34375,1.46484 0.41666,0 0.80728,-0.0911 1.17187,-0.27344 0.59895,-0.27343 1.27604,-0.76822 2.03125,-1.48437 l 0,1.44531 4.04297,0 0,-29.39453 -4.04297,0 0,8.94531 c -0.44271,-0.3906 -0.78776,-0.68357 -1.03515,-0.8789 -0.79428,-0.58592 -1.51694,-0.87889 -2.16797,-0.87891 -0.97657,2e-5 -1.75782,0.48179 -2.34375,1.44531 -0.50782,0.80731 -0.76172,1.75132 -0.76172,2.83203 l 0,13.96485 m 4.04297,-0.83985 0,-12.26562 c -10e-6,-0.37759 0.10416,-0.69009 0.3125,-0.9375 0.20832,-0.2604 0.46223,-0.39061 0.76172,-0.39063 0.29947,2e-5 0.57291,0.14325 0.82031,0.42969 0.24739,0.27346 0.37108,0.57294 0.37109,0.89844 l 0,12.26562 c -10e-6,0.37761 -0.1237,0.69662 -0.37109,0.95704 -0.23438,0.24739 -0.50782,0.37109 -0.82031,0.37109 -0.29949,0 -0.5534,-0.1237 -0.76172,-0.37109 -0.20834,-0.26042 -0.31251,-0.57943 -0.3125,-0.95704"
           inkscape:connector-curvature="0" />
        <path
           id="path3060"
           d="m 386.23932,806.9129 c 0.0391,1.01563 0.24739,1.97917 0.625,2.89063 0.85937,1.91406 2.38281,2.87109 4.57031,2.87109 1.3151,0 2.32421,-0.29297 3.02735,-0.8789 0.71613,-0.57292 1.24347,-1.23698 1.58203,-1.99219 0.35155,-0.75521 0.55988,-1.67318 0.625,-2.75391 l 0,-2.51953 -3.75,0 0,2.38281 c -1e-5,0.44272 -0.0586,0.82032 -0.17578,1.13282 -0.1823,0.71614 -0.60548,1.07422 -1.26954,1.07421 -0.35156,1e-5 -0.63151,-0.10416 -0.83984,-0.3125 -0.39063,-0.5078 -0.60547,-1.13931 -0.64453,-1.89453 l 0,-4.74609 6.67969,0 0,-6.36719 c -0.0391,-0.92446 -0.25392,-1.85545 -0.64453,-2.79297 -0.87241,-1.90102 -2.38934,-2.85154 -4.55079,-2.85156 -1.34115,2e-5 -2.34375,0.29299 -3.00781,0.87891 -1.36719,1.13283 -2.10938,2.76043 -2.22656,4.88281 l 0,10.99609 m 3.75,-7.91015 0,-3.08594 c 0.0391,-0.5078 0.10416,-0.87889 0.19531,-1.11328 0.23437,-0.74217 0.66406,-1.11326 1.28906,-1.11328 0.3776,2e-5 0.67057,0.10418 0.87891,0.3125 0.3776,0.46876 0.5664,1.10678 0.56641,1.91406 l 0,3.08594 -2.92969,0"
           inkscape:connector-curvature="0" />
        <path
           id="path3062"
           d="m 399.44244,812.36212 4.04297,0 0,-29.39453 -4.04297,0 0,29.39453"
           inkscape:connector-curvature="0" />
        <path
           id="path3064"
           d="m 412.60651,806.32697 c 0.0391,1.26302 0.27343,2.33073 0.70312,3.20312 0.39062,0.8724 0.95052,1.58854 1.67969,2.14844 0.82031,0.66406 1.9401,0.99609 3.35937,0.99609 1.39322,0 2.49999,-0.33203 3.32032,-0.99609 0.79426,-0.59896 1.37368,-1.3151 1.73828,-2.14844 0.42967,-0.87239 0.66405,-1.9401 0.70312,-3.20312 l 0,-4.04297 -4.02343,0 0,4.04297 c -10e-6,0.44271 -0.0586,0.80078 -0.17579,1.07421 -0.23438,0.71615 -0.72266,1.07423 -1.46484,1.07422 -0.35157,10e-6 -0.63152,-0.10416 -0.83984,-0.3125 -0.41668,-0.48176 -0.64454,-1.09374 -0.6836,-1.83593 l 0,-17.32422 c 0.0521,-0.50779 0.11718,-0.86586 0.19532,-1.07422 0.27343,-0.72914 0.71613,-1.09373 1.32812,-1.09375 0.4427,2e-5 0.77473,0.1107 0.99609,0.33203 0.42968,0.46877 0.64453,1.08075 0.64454,1.83594 l 0,4.04297 4.02343,0 0,-4.04297 c -0.0391,-1.23696 -0.27345,-2.29164 -0.70312,-3.16407 -0.37762,-0.87236 -0.95704,-1.60153 -1.73828,-2.1875 -0.89845,-0.67705 -2.00522,-1.01559 -3.32032,-1.01562 -1.34115,3e-5 -2.46094,0.33857 -3.35937,1.01562 -0.71615,0.54691 -1.27605,1.27607 -1.67969,2.1875 -0.42969,0.87243 -0.66406,1.92711 -0.70312,3.16407 l 0,17.32422"
           inkscape:connector-curvature="0" />
        <path
           id="path3066"
           d="m 426.33698,806.9129 c 0.0391,0.98959 0.2539,1.95313 0.64453,2.89063 0.85937,1.91406 2.36978,2.87109 4.53125,2.87109 1.31509,0 2.32421,-0.29297 3.02734,-0.8789 0.70311,-0.57292 1.22395,-1.23698 1.5625,-1.99219 0.33853,-0.76823 0.54035,-1.6862 0.60547,-2.75391 l 0,-11.25 c -0.0391,-0.92446 -0.25392,-1.85545 -0.64453,-2.79297 -0.87241,-1.90102 -2.38933,-2.85154 -4.55078,-2.85156 -1.34115,2e-5 -2.34376,0.29299 -3.00782,0.87891 -1.32812,1.11981 -2.05078,2.74741 -2.16796,4.88281 l 0,10.99609 m 3.80859,0 0,-10.99609 c -0.013,-0.10415 -0.0195,-0.20832 -0.0195,-0.3125 -1e-5,-0.29946 0.0456,-0.56639 0.13672,-0.80078 0.1953,-0.74217 0.61197,-1.11326 1.25,-1.11328 0.37759,2e-5 0.67056,0.10418 0.8789,0.3125 0.33854,0.4297 0.50781,0.99611 0.50782,1.69922 -1e-5,0.0781 -1e-5,0.14975 0,0.21484 l 0,10.99609 c 0.013,0.10417 0.0195,0.20834 0.0195,0.3125 -1e-5,0.31251 -0.0456,0.58594 -0.13672,0.82032 -0.1823,0.71614 -0.60548,1.07422 -1.26953,1.07421 -0.35157,1e-5 -0.63152,-0.10416 -0.83985,-0.3125 -0.35157,-0.45572 -0.52735,-1.01562 -0.52734,-1.67968 -1e-5,-0.0781 -1e-5,-0.14974 0,-0.21485"
           inkscape:connector-curvature="0" />
        <path
           id="path3068"
           d="m 439.52057,819.88165 4.04297,0 0,-8.96484 c 0.4427,0.39063 0.78775,0.68359 1.03515,0.87891 0.79427,0.58593 1.51692,0.8789 2.16797,0.8789 0.97656,0 1.77083,-0.48828 2.38282,-1.46484 0.48175,-0.79427 0.72264,-1.73177 0.72265,-2.8125 l 0,-13.96485 c -1e-5,-1.05466 -0.2409,-1.99867 -0.72265,-2.83203 -0.63804,-0.96352 -1.43231,-1.44529 -2.38282,-1.44531 -0.40365,2e-5 -0.78126,0.0977 -1.13281,0.29297 -0.65105,0.28648 -1.34115,0.77476 -2.07031,1.46484 l 0,-1.42578 -4.04297,0 0,29.39453 m 4.04297,-12.32422 0,-12.26562 c -10e-6,-0.37759 0.11718,-0.69009 0.35156,-0.9375 0.24739,-0.2604 0.52734,-0.39061 0.83984,-0.39063 0.29948,2e-5 0.55338,0.13023 0.76172,0.39063 0.22135,0.24741 0.33203,0.55991 0.33203,0.9375 l 0,12.26562 c 0,0.37761 -0.11068,0.69662 -0.33203,0.95704 -0.20834,0.24739 -0.46224,0.37109 -0.76172,0.37109 -0.29948,0 -0.57292,-0.13672 -0.82031,-0.41016 -0.2474,-0.28645 -0.3711,-0.59244 -0.37109,-0.91797"
           inkscape:connector-curvature="0" />
        <path
           id="path3070"
           d="m 451.84479,790.48712 3.71094,22.51953 c -10e-6,0.44271 -0.0521,0.83985 -0.15625,1.19141 -0.23438,0.84635 -0.67709,1.51692 -1.32813,2.01172 -0.27344,0.20833 -0.63802,0.33202 -1.09375,0.37109 -0.44271,0.0391 -0.69011,0.0326 -0.74219,-0.0195 -0.13021,0 -0.20833,-0.013 -0.23437,-0.0391 l 0,3.59375 c 0.65104,0.0521 1.08724,0.0781 1.30859,0.0781 l 0.48828,0 c 1.48437,0 2.76692,-0.65105 3.84766,-1.95312 0.96353,-1.15886 1.54947,-2.57162 1.75781,-4.23828 l 3.86719,-23.51563 -3.94531,0 -1.60157,13.4375 -0.0781,1.11328 -0.17578,0 -0.0781,-1.11328 -1.60156,-13.4375 -3.94531,0"
           inkscape:connector-curvature="0" />
        <path
           id="path3072"
           d="m 465.37994,812.36212 4.04297,0 0,-15.19531 c 0,-0.84634 0.29297,-1.51691 0.87891,-2.01172 0.46874,-0.44269 1.14582,-0.66404 2.03125,-0.66406 0.4427,2e-5 0.8203,0.0521 1.13281,0.15625 l 0,-4.49219 c -1.22397,2e-5 -2.25261,0.39065 -3.08594,1.17188 -0.28646,0.28647 -0.51433,0.57944 -0.68359,0.8789 -0.15626,0.2995 -0.2474,0.54039 -0.27344,0.72266 l 0,-2.44141 -4.04297,0 0,21.875"
           inkscape:connector-curvature="0" />
        <path
           id="path3074"
           d="m 475.22369,812.36212 4.04297,0 0,-21.875 -4.04297,0 0,21.875 m 0,-25.35156 4.04297,0 0,-4.04297 -4.04297,0 0,4.04297"
           inkscape:connector-curvature="0" />
        <path
           id="path3076"
           d="m 481.12213,815.95587 c 0,1.52343 0.59896,2.61718 1.79688,3.28125 1.02864,0.59895 2.59114,0.91796 4.6875,0.95703 1.90103,0 3.47655,-0.39714 4.72656,-1.1914 1.45832,-0.95053 2.18749,-2.41537 2.1875,-4.39453 -1e-5,-1.69271 -0.61199,-2.97526 -1.83594,-3.84766 -0.92449,-0.625 -2.17449,-1.03515 -3.75,-1.23047 -0.88542,-0.13021 -1.58204,-0.27994 -2.08984,-0.44922 -0.66407,-0.16927 -0.9961,-0.47526 -0.9961,-0.91797 0,-0.32551 0.1888,-0.65754 0.56641,-0.99609 0.0781,0.026 0.20833,0.0391 0.39063,0.0391 l 0.37109,0 c 1.24999,10e-6 2.23306,-0.27994 2.94922,-0.83984 1.3802,-1.05468 2.12889,-2.57812 2.24609,-4.57031 l 0,-6.19141 c -1e-5,-0.1953 -0.013,-0.33202 -0.0391,-0.41016 -0.026,-0.0781 -0.0391,-0.22133 -0.0391,-0.42968 -0.0261,-0.0521 -0.0651,-0.22785 -0.11719,-0.52735 0.55988,-0.31248 1.34113,-0.46873 2.34375,-0.46875 l 0,-3.61328 c -0.55991,2e-5 -1.19793,0.26695 -1.91406,0.80078 -0.4297,0.2995 -0.89845,0.70315 -1.40625,1.21094 -0.95053,-1.34113 -2.29168,-2.0117 -4.02344,-2.01172 -1.28907,2e-5 -2.26563,0.29299 -2.92969,0.87891 -1.3151,1.08075 -2.05078,2.64324 -2.20703,4.6875 l 0,5.95703 c 0.026,0.45574 0.13672,1.05469 0.33203,1.79687 0.36458,1.34116 1.02864,2.33074 1.99219,2.96875 -0.625,0.32553 -1.1849,0.79428 -1.67969,1.40625 -0.5599,0.69011 -0.83984,1.31511 -0.83984,1.875 0,1.51042 0.8138,2.48047 2.4414,2.91016 -0.92448,0.42969 -1.64713,0.88541 -2.16796,1.36719 -0.66407,0.62499 -0.9961,1.27604 -0.9961,1.95312 m 3.92578,-0.66406 c 0,-0.71615 0.49479,-1.36068 1.48438,-1.93359 l 2.07031,0.41015 c 0.91145,0.14323 1.52343,0.35156 1.83594,0.625 0.22134,0.22135 0.33202,0.53385 0.33203,0.9375 -10e-6,0.46875 -0.34506,0.83984 -1.03516,1.11328 -0.59896,0.23437 -1.28256,0.35156 -2.05078,0.35157 -0.88542,-10e-6 -1.54948,-0.13673 -1.99219,-0.41016 -0.42969,-0.27344 -0.64453,-0.63803 -0.64453,-1.09375 m 0.95703,-13.41797 0,-5.99609 c -0.013,-0.10415 -0.0195,-0.20832 -0.0195,-0.3125 0,-0.23436 0.0326,-0.46223 0.0977,-0.6836 0.15624,-0.66404 0.52083,-0.99607 1.09375,-0.99609 0.32551,2e-5 0.57291,0.10418 0.74219,0.3125 0.32551,0.46877 0.48827,1.02866 0.48828,1.67969 l 0,5.99609 c -1e-5,0.40366 -0.0391,0.7422 -0.11719,1.01563 -0.20834,0.63803 -0.57943,0.95704 -1.11328,0.95703 -0.29949,10e-6 -0.54037,-0.11067 -0.72266,-0.33203 -0.29948,-0.33854 -0.44922,-0.8138 -0.44922,-1.42579 0,-0.0651 0,-0.1367 0,-0.21484"
           inkscape:connector-curvature="0" />
        <path
           id="path3078"
           d="m 496.16119,812.36212 4.04297,0 0,-17.24609 c 0.0781,-0.13019 0.19531,-0.29946 0.35157,-0.50781 0.35155,-0.35155 0.67056,-0.52733 0.95703,-0.52735 0.65103,2e-5 0.97655,0.31903 0.97656,0.95703 l 0,17.32422 4.02344,0 0,-17.92969 c -2e-5,-1.05466 -0.2409,-1.99867 -0.72266,-2.83203 -0.58595,-0.96352 -1.35418,-1.44529 -2.30469,-1.44531 -0.35157,2e-5 -0.70313,0.0977 -1.05468,0.29297 -0.48178,0.26044 -1.06772,0.7357 -1.75782,1.42578 -0.28646,0.28648 -0.44271,0.43622 -0.46875,0.44922 l 0,-9.35547 -4.04297,0 0,29.39453"
           inkscape:connector-curvature="0" />
        <path
           id="path3080"
           d="m 508.46588,794.11993 2.05078,0 0,11.21094 c 0,2.00521 0.20182,3.54818 0.60547,4.62891 0.67708,1.80989 2.01823,2.71484 4.02344,2.71484 0.65103,0 1.17187,-0.0391 1.5625,-0.11719 0.0651,-0.013 0.16275,-0.0391 0.29297,-0.0781 0.14322,-0.0391 0.24738,-0.0651 0.3125,-0.0781 l 0,-3.96484 c -0.0521,0.013 -0.13022,0.0261 -0.23438,0.0391 -0.10417,0.013 -0.1823,0.026 -0.23437,0.0391 -0.36459,0.0521 -0.70314,0.0781 -1.01563,0.0781 -0.5599,0 -0.93099,-0.43619 -1.11328,-1.30859 -0.10417,-0.48177 -0.15626,-1.24349 -0.15625,-2.28516 l 0,-10.87891 2.75391,0 0,-3.63281 -2.75391,0 0,-5.41015 -4.04297,0 0,5.41015 -2.05078,0 0,3.63281"
           inkscape:connector-curvature="0" />
      </g>
      <g
         id="text3029"
         style="font-size:25.41747856px;font-style:normal;font-variant:normal;font-weight:normal;font-stretch:normal;line-height:125%;letter-spacing:0px;word-spacing:0px;fill:#000000;fill-opacity:1;stroke:none;font-family:League Gothic;-inkscape-font-specification:League Gothic"
         transform="matrix(0.74895077,0,0,0.74895077,69.920882,196.21142)">
        <path
           id="path3083"
           d="m 279.52056,773.07458 2.7428,0 0,-7.8809 0.73225,0 1.42725,7.8809 2.7428,0 -1.74993,-9.04753 c 0.5047,-0.33922 0.8853,-0.88529 1.1418,-1.63823 0.25648,-0.76119 0.38473,-1.62995 0.38474,-2.60629 -1e-5,-1.79542 -0.37648,-3.13993 -1.12939,-4.03353 -0.75294,-0.90184 -1.93611,-1.35277 -3.54952,-1.35279 l -2.7428,0 0,18.67837 m 2.7428,-10.42513 0,-5.53525 c 0.57917,10e-6 1.01356,0.12826 1.30315,0.38473 0.48815,0.43026 0.73223,1.22456 0.73224,2.38289 -10e-6,1.15009 -0.24409,1.94025 -0.73224,2.37048 -0.29787,0.26478 -0.73225,0.39716 -1.30315,0.39715"
           inkscape:connector-curvature="0" />
        <path
           id="path3085"
           d="m 288.70461,773.07458 2.56905,0 0,-13.90018 -2.56905,0 0,13.90018 m 0,-16.10931 2.56905,0 0,-2.56906 -2.56905,0 0,2.56906"
           inkscape:connector-curvature="0" />
        <path
           id="path3087"
           d="m 293.12288,769.16516 c 0,1.48103 0.31027,2.55664 0.93082,3.22683 0.5378,0.58744 1.31969,0.88117 2.34565,0.88117 1.12525,0 1.94437,-0.27718 2.45736,-0.83153 0.56262,-0.61227 0.84393,-1.66306 0.84394,-3.15236 l 0,-1.35279 -2.56905,0 0,1.9361 c -10e-6,0.43024 -0.0496,0.72397 -0.14893,0.88117 -0.0993,0.15721 -0.29373,0.23581 -0.58332,0.23581 -0.21512,0 -0.3806,-0.062 -0.49643,-0.18617 -0.10757,-0.13238 -0.17376,-0.26476 -0.19858,-0.39714 -0.0165,-0.14066 -0.0248,-0.31855 -0.0248,-0.53367 l 0,-7.49617 c 0,-0.21511 0.008,-0.38887 0.0248,-0.52126 0.0248,-0.14064 0.091,-0.27303 0.19858,-0.39715 0.11583,-0.13237 0.28131,-0.19856 0.49643,-0.19857 0.28959,1e-5 0.48402,0.0786 0.58332,0.23581 0.0993,0.15721 0.14892,0.45094 0.14893,0.88117 l 0,1.67547 2.56905,0 0,-1.09216 c -10e-6,-1.48929 -0.28132,-2.54008 -0.84394,-3.15236 -0.51299,-0.56262 -1.33211,-0.84393 -2.45736,-0.84394 -1.01769,10e-6 -1.79958,0.29787 -2.34565,0.89358 -0.62055,0.6702 -0.93082,1.74581 -0.93082,3.22683 l 0,6.08133"
           inkscape:connector-curvature="0" />
        <path
           id="path3089"
           d="m 301.31406,773.07458 2.56906,0 0,-4.803 0.32268,-0.81912 0.0869,-0.19858 0.12411,0 0.0496,0.19858 1.26591,5.62212 2.46976,0 -2.33324,-9.38262 1.84922,-4.51756 -2.30843,0 -1.2535,3.63639 -0.14893,0.44679 -0.1241,0 0,-8.86137 -2.56906,0 0,18.67837"
           inkscape:connector-curvature="0" />
        <path
           id="path3091"
           d="m 313.17886,773.07458 2.74281,0 0,-8.12912 2.54423,0 0,-2.82968 -2.54423,0 0,-4.9023 3.78531,0 0,-2.81727 -6.52812,0 0,18.67837"
           inkscape:connector-curvature="0" />
        <path
           id="path3093"
           d="m 320.4144,769.84776 c 0,1.27418 0.26477,2.205 0.7943,2.79244 0.33923,0.42197 0.7612,0.63296 1.26591,0.63296 0.49643,0 0.94736,-0.16134 1.35279,-0.48403 0.28958,-0.23166 0.52538,-0.50884 0.70742,-0.83152 l 0.17375,0 c -1e-5,0.54608 0.0786,0.9184 0.2358,1.11697 l 2.507,0 c -0.11584,-0.71155 -0.17376,-1.51826 -0.17375,-2.42012 l 0,-8.53868 c -1e-5,-0.90185 -0.31442,-1.65477 -0.94323,-2.25878 -0.62055,-0.59571 -1.34865,-0.89357 -2.18431,-0.89358 -0.99288,10e-6 -1.81199,0.36406 -2.45736,1.09215 -0.66191,0.74467 -0.99287,1.61757 -0.99287,2.6187 l 0,0.58331 2.56906,0 0,-0.65778 c -1e-5,-0.17374 0.0165,-0.393 0.0496,-0.65777 0.091,-0.48815 0.31854,-0.73223 0.6826,-0.73224 0.30613,10e-6 0.51711,0.14066 0.63295,0.42197 0.0496,0.16548 0.0745,0.4468 0.0745,0.84393 l 0,1.52654 c -0.0166,0.0414 -0.0372,0.0827 -0.0621,0.12411 -0.0248,0.0331 -0.0621,0.0703 -0.11169,0.1117 -0.0497,0.0414 -0.0993,0.0786 -0.14894,0.1117 -0.0414,0.0248 -0.10342,0.0621 -0.18616,0.1117 -0.0827,0.0414 -0.15307,0.0786 -0.21098,0.11169 -0.0496,0.0248 -0.13239,0.0662 -0.24822,0.12411 -0.10757,0.0579 -0.1903,0.10343 -0.24822,0.13652 -0.86049,0.45508 -1.53068,0.98047 -2.01056,1.57618 -0.71156,0.88532 -1.06734,2.03126 -1.06734,3.43782 m 2.51941,-0.38474 c 0,-0.69501 0.14479,-1.31969 0.43438,-1.87404 0.29786,-0.56262 0.74465,-0.97218 1.34038,-1.22868 l 0,3.56192 c -1e-5,0.23995 -0.10343,0.44266 -0.31027,0.60813 -0.20686,0.15721 -0.45921,0.23581 -0.75707,0.23581 -0.27304,0 -0.46748,-0.17789 -0.58331,-0.53367 -0.0827,-0.23994 -0.12411,-0.49643 -0.12411,-0.76947"
           inkscape:connector-curvature="0" />
        <path
           id="path3095"
           d="m 329.01514,773.07458 2.56906,0 0,-18.67837 -2.56906,0 0,18.67837"
           inkscape:connector-curvature="0" />
        <path
           id="path3097"
           d="m 333.63199,773.07458 2.56905,0 0,-4.803 0.32268,-0.81912 0.0869,-0.19858 0.12411,0 0.0496,0.19858 1.26591,5.62212 2.46977,0 -2.33325,-9.38262 1.84922,-4.51756 -2.30842,0 -1.2535,3.63639 -0.14893,0.44679 -0.12411,0 0,-8.86137 -2.56905,0 0,18.67837"
           inkscape:connector-curvature="0" />
        <path
           id="path3099"
           d="m 340.75583,759.1744 2.27119,13.90018 2.53182,0 2.27119,-13.90018 -2.49458,0 -0.84394,8.05466 -0.0993,0.89358 -0.19857,0 -0.0993,-0.89358 -0.84394,-8.05466 -2.49459,0"
           inkscape:connector-curvature="0" />
        <path
           id="path3101"
           d="m 349.07112,773.07458 2.56905,0 0,-13.90018 -2.56905,0 0,13.90018 m 0,-16.10931 2.56905,0 0,-2.56906 -2.56905,0 0,2.56906"
           inkscape:connector-curvature="0" />
        <path
           id="path3103"
           d="m 353.68796,773.07458 2.56906,0 0,-10.9588 c 0.0496,-0.0827 0.1241,-0.19029 0.22339,-0.32268 0.22339,-0.22339 0.42611,-0.33509 0.60814,-0.3351 0.41369,10e-6 0.62053,0.20273 0.62054,0.60814 l 0,11.00844 2.55664,0 0,-11.39318 c -1e-5,-0.67018 -0.15307,-1.27004 -0.4592,-1.79958 -0.37234,-0.61225 -0.8605,-0.91839 -1.46449,-0.9184 -0.2234,10e-6 -0.44679,0.0621 -0.67018,0.18616 -0.30614,0.16549 -0.67847,0.46749 -1.11698,0.90599 -0.18203,0.18204 -0.28132,0.27719 -0.29786,0.28545 l 0,-1.16662 -2.56906,0 0,13.90018"
           inkscape:connector-curvature="0" />
        <path
           id="path3105"
           d="m 361.40754,775.35819 c 0,0.96804 0.3806,1.66305 1.1418,2.08502 0.65363,0.3806 1.6465,0.58331 2.97861,0.60814 1.20798,-10e-6 2.20913,-0.25236 3.00343,-0.75707 0.92667,-0.604 1.39001,-1.53481 1.39002,-2.79244 -1e-5,-1.07561 -0.38888,-1.89059 -1.16662,-2.44495 -0.58746,-0.39714 -1.38175,-0.65777 -2.38289,-0.78188 -0.56263,-0.0827 -1.00529,-0.17789 -1.32797,-0.28545 -0.42197,-0.10756 -0.63295,-0.302 -0.63295,-0.58331 0,-0.20685 0.11997,-0.41783 0.35991,-0.63296 0.0496,0.0166 0.13238,0.0248 0.24822,0.0248 l 0.23581,0 c 0.79429,10e-6 1.41897,-0.17788 1.87404,-0.53366 0.87703,-0.67019 1.35278,-1.63824 1.42725,-2.90415 l 0,-3.93425 c 0,-0.1241 -0.008,-0.21097 -0.0248,-0.26063 -0.0165,-0.0496 -0.0248,-0.14064 -0.0248,-0.27304 -0.0166,-0.0331 -0.0414,-0.14478 -0.0745,-0.33509 0.35577,-0.19856 0.85221,-0.29785 1.48931,-0.29786 l 0,-2.29601 c -0.35579,10e-6 -0.76121,0.16963 -1.21627,0.50884 -0.27304,0.19032 -0.5709,0.44681 -0.89358,0.76948 -0.604,-0.8522 -1.45622,-1.27831 -2.55664,-1.27832 -0.81912,10e-6 -1.43967,0.18617 -1.86163,0.55849 -0.83567,0.68674 -1.30315,1.67961 -1.40243,2.97861 l 0,3.78531 c 0.0165,0.2896 0.0869,0.6702 0.21098,1.14181 0.23167,0.85221 0.65364,1.48103 1.26591,1.88645 -0.39715,0.20685 -0.75293,0.50471 -1.06733,0.89358 -0.35578,0.43852 -0.53367,0.83567 -0.53367,1.19145 0,0.95977 0.51712,1.57618 1.55136,1.84922 -0.58745,0.27304 -1.04665,0.56262 -1.37761,0.86876 -0.42197,0.39715 -0.63295,0.81084 -0.63295,1.24109 m 2.49458,-0.42197 c 0,-0.45507 0.31441,-0.86463 0.94323,-1.22868 l 1.31555,0.26063 c 0.57917,0.091 0.96805,0.22339 1.16663,0.39715 0.14065,0.14065 0.21097,0.33923 0.21098,0.59572 -1e-5,0.29786 -0.21926,0.53366 -0.65778,0.70742 -0.3806,0.14893 -0.81498,0.22339 -1.30314,0.22339 -0.56263,0 -0.9846,-0.0869 -1.26591,-0.26062 -0.27304,-0.17376 -0.40956,-0.40543 -0.40956,-0.69501 m 0.60814,-8.52628 0,-3.81014 c -0.008,-0.0662 -0.0124,-0.13237 -0.0124,-0.19857 -10e-6,-0.14892 0.0207,-0.29371 0.062,-0.43438 0.0993,-0.42196 0.33095,-0.63294 0.69501,-0.63296 0.20684,2e-5 0.36405,0.0662 0.47161,0.19858 0.20685,0.29787 0.31027,0.65365 0.31027,1.06733 l 0,3.81014 c 0,0.2565 -0.0248,0.47162 -0.0745,0.64537 -0.13239,0.40543 -0.36819,0.60814 -0.70742,0.60813 -0.19031,10e-6 -0.34337,-0.0703 -0.4592,-0.21098 -0.19031,-0.21512 -0.28546,-0.51712 -0.28545,-0.906 -1e-5,-0.0414 -1e-5,-0.0869 0,-0.13652"
           inkscape:connector-curvature="0" />
        <path
           id="path3107"
           d="m 370.76534,769.61195 c 0.0248,0.64537 0.1572,1.25764 0.39715,1.83681 0.54607,1.21627 1.51412,1.8244 2.90414,1.8244 0.83566,0 1.47689,-0.18616 1.92369,-0.55849 0.45506,-0.36405 0.79015,-0.78602 1.00528,-1.26591 0.22339,-0.47989 0.35577,-1.0632 0.39715,-1.74993 l 0,-1.60101 -2.38289,0 0,1.51413 c -1e-5,0.28132 -0.0372,0.52126 -0.1117,0.71983 -0.11584,0.45507 -0.38474,0.6826 -0.80671,0.6826 -0.2234,0 -0.40129,-0.0662 -0.53366,-0.19857 -0.24822,-0.32269 -0.38474,-0.72397 -0.40956,-1.20386 l 0,-3.01584 4.24452,0 0,-4.04595 c -0.0248,-0.58744 -0.16135,-1.17902 -0.40956,-1.77476 -0.55436,-1.20797 -1.51827,-1.81197 -2.89174,-1.81198 -0.85221,10e-6 -1.4893,0.18617 -1.91127,0.55849 -0.86876,0.71984 -1.34038,1.75408 -1.41484,3.10272 l 0,6.98732 m 2.38289,-5.02641 0,-1.96091 c 0.0248,-0.32268 0.0662,-0.55848 0.12411,-0.70742 0.14892,-0.47161 0.42196,-0.70741 0.81911,-0.70742 0.23994,10e-6 0.42611,0.0662 0.55849,0.19857 0.23994,0.29787 0.35991,0.70329 0.35992,1.21627 l 0,1.96091 -1.86163,0"
           inkscape:connector-curvature="0" />
      </g>
    </g>
    <g
       id="g3234"
       transform="matrix(1.4188819,0,0,1.4188819,86.174224,-431.10105)" />
  </g>
</svg>
