<?xml version="1.0" encoding="UTF-8" standalone="no"?>
<!-- Created with Inkscape (http://www.inkscape.org/) -->

<svg
   xmlns:dc="http://purl.org/dc/elements/1.1/"
   xmlns:cc="http://creativecommons.org/ns#"
   xmlns:rdf="http://www.w3.org/1999/02/22-rdf-syntax-ns#"
   xmlns:svg="http://www.w3.org/2000/svg"
   xmlns="http://www.w3.org/2000/svg"
   xmlns:sodipodi="http://sodipodi.sourceforge.net/DTD/sodipodi-0.dtd"
   xmlns:inkscape="http://www.inkscape.org/namespaces/inkscape"
   width="105mm"
   height="148mm"
   id="svg2"
   version="1.1"
   inkscape:version="0.91 r13725"
   sodipodi:docname="single_hackeando_el_capitalismo.svg">
  <defs
     id="defs4" />
  <sodipodi:namedview
     id="base"
     pagecolor="#ffffff"
     bordercolor="#666666"
     borderopacity="1.0"
     inkscape:pageopacity="0.0"
     inkscape:pageshadow="2"
     inkscape:zoom="2.3601563"
     inkscape:cx="148.91452"
     inkscape:cy="393.22966"
     inkscape:document-units="px"
     inkscape:current-layer="text3797"
     showgrid="false"
     showguides="true"
     inkscape:guide-bbox="true"
     units="mm"
     inkscape:window-width="1024"
     inkscape:window-height="743"
     inkscape:window-x="0"
     inkscape:window-y="25"
     inkscape:window-maximized="1">
    <sodipodi:guide
       orientation="1,0"
       position="262.20472,0"
       id="guide3168" />
    <sodipodi:guide
       orientation="0,1"
       position="72.857143,271.42857"
       id="guide3277" />
  </sodipodi:namedview>
  <metadata
     id="metadata7">
    <rdf:RDF>
      <cc:Work
         rdf:about="">
        <dc:format>image/svg+xml</dc:format>
        <dc:type
           rdf:resource="http://purl.org/dc/dcmitype/StillImage" />
        <dc:title />
      </cc:Work>
    </rdf:RDF>
  </metadata>
  <g
     inkscape:label="Capa 1"
     inkscape:groupmode="layer"
     id="layer1"
     transform="translate(0,-527.95268)">
    <g
       id="layer1-8"
       inkscape:label="Capa 1"
       transform="matrix(0.16088167,0,0,0.16157504,416.66039,909.65661)">
      <rect
         style="fill:#00112b"
         id="rect3033"
         width="2312.552"
         height="3245.6094"
         x="-2589.8562"
         y="-2362.394" />
      <g
         inkscape:export-ydpi="149"
         inkscape:export-xdpi="149"
         inkscape:export-filename="/srv/http/kiwwwi.com.ar/pastes/utopia-pirata-2.png"
         transform="matrix(0.67937345,0,0,0.67937345,-233.93427,225.03697)"
         id="g3847" />
      <g
         id="g4077"
         transform="matrix(1.418919,0,0,1.418919,-1152.7296,-369.99562)">
        <g
           transform="matrix(0.67937345,0,0,0.67937345,-35.215221,207.58407)"
           id="g3851"
           inkscape:export-filename="/srv/http/kiwwwi.com.ar/pastes/utopia-pirata-2.png"
           inkscape:export-xdpi="149"
           inkscape:export-ydpi="149">
          <path
             style="fill:#ffffff;stroke:#000000;stroke-width:0.70476186"
             inkscape:connector-curvature="0"
             id="path719"
             d="m 910.84122,610.02908 c -15,21 -31.266,38.794 -49,60 l -24,27 c -20,19 -70,56 -93,71 -13,9 -27,16 -41,22 l -18.26,8.84 c 3,3 8.58,4.641 13.629,7 3,0 13.631,-5.84 16.631,-7.84 l 32,-18 c 6,-4 12,-9 19,-10 -3,7 -10,11 -17,15 l -19,11 c 0,0 -19.951,11.37 -22.68,13.26 5.469,2.16 13.68,4.641 18.889,6.74 5,0 11.791,-5 15.791,-7 11,-6 25,-15 36,-23 l 18,-12 c 14,-11 28,-23 41,-36 10,-9 20,-18 28,-29 11,-13 18,-28 26,-43 9,-14 12,-23 17,-38 1,-5 4,-13 2,-18 z" />
          <path
             style="fill:#ffffff;stroke:#000000;stroke-width:0.70476186"
             inkscape:connector-curvature="0"
             id="path725"
             d="m 451.84122,605.02908 c -3,11 1,24 5,34 9,24 24,45 39,65 9,13 24,29 35,40 l 12,10 26,23 c 21,16 60,40 84,51 l 32,14 13,5 c 15,6 30,10 46,13 9,2 19,5 28,5 -3,-11 -9,-10 -18,-13 l -33,-13 c -46,-19 -97,-38 -133,-74 7,0 12,6 17,10 7,5 16,11 24,16 22,13 72,36 97,45 10,4 27,11 37,11 8,1 19,-4 25,-8 -4,-4 -8,-3 -14,-4 l -31,-9 c -27,-7 -53,-17 -78,-30 l -14,-6 -19,-12 -23,-15 -24,-19 -41,-32 -38,-39 -19,-22 -20,-22 -15,-24 z" />
          <path
             style="fill:#ffffff;stroke:#000000;stroke-width:0.70476186"
             inkscape:connector-curvature="0"
             id="path731"
             d="m 772.84122,852.02908 c 2,4 6,10 6,15 0,11 -13,21 -23,20 -4,-1 -13,-6 -16,0 -1,2 -1,4 0,5 0,4 5,6 9,8 11,3 23,-1 32,-7 7,-4 12,-11 14,-19 l 2,-13 c 1,-4 5,-5 10,-12 6,-8 12,-22 20,-28 3,-2 6,-3 10,-4 -2,-3 -4,-5 -6,-8 -2,-1 -4,-3 -6,-3 -3,-1 -7,-1 -10,1 -14,7 -11,20 -19,30 -6,8 -13,12 -23,15 z" />
          <path
             style="fill:#ffffff;stroke:#000000;stroke-width:0.70476186"
             inkscape:connector-curvature="0"
             id="path737"
             d="m 804.84122,865.02908 c 7,3 13,2 20,2 l 15,1 c 7,0 9,-4 12,-10 1,-2 2,-6 0,-8 -2,-2 -6,-2 -9,-2 l -17,1 c -3,0 -8,0 -11,1 -5,3 -9,10 -10,15 z" />
          <path
             style="fill:#ffffff;stroke:#000000;stroke-width:0.70476186"
             inkscape:connector-curvature="0"
             id="path743"
             d="m 858.84122,879.02908 c -5,-2 -8,-4 -11,-8 -1,1 -2,1 -3,2 -1,5 12,17 14,6 z" />
          <path
             style="fill:#ffffff;stroke:#000000;stroke-width:0.70476186"
             inkscape:connector-curvature="0"
             id="path744"
             d="m 851.84122,845.02908 8,5 c -2,4 -7,12 -6,17 1,10 15,10 21,4 7,-8 7,-20 -3,-26 -6,-3 -13,-2 -20,0 z" />
          <path
             style="fill:#ffffff;stroke:#000000;stroke-width:0.70476186"
             inkscape:connector-curvature="0"
             id="selection_x5F_to_x5F_path_x23_5"
             d="m 492.84122,873.02908 1,1 c 8,-2 13,-5 14,-13 -6,1 -12,7 -15,12 z" />
          <path
             style="fill:#ffffff;stroke:#000000;stroke-width:0.70476186"
             inkscape:connector-curvature="0"
             id="selection_x5F_to_x5F_path_x23_4"
             d="m 499.84122,836.02908 c -3,-2 -6,-3 -10,-3 -3,0 -6,0 -9,1 -10,4 -11,20 -3,27 4,4 14,6 18,1 4,-4 3,-9 1,-14 -1,-3 -3,-7 -1,-9 1,-2 3,-2 4,-3 z" />
          <path
             style="fill:#ffffff;stroke:#000000;stroke-width:0.70476186"
             inkscape:connector-curvature="0"
             id="selection_x5F_to_x5F_path_x23_3"
             d="m 498.84122,840.02908 c 1,3 6,15 8,17 3,2 6,2 9,2 l 18,-1 13,0 c 0,-3 0,-6 -1,-8 -3,-8 -14,-12 -22,-12 l -9,1 c -6,0 -11,-1 -16,1 z" />
          <path
             style="fill:#ffffff;stroke:#000000;stroke-width:0.70476186"
             inkscape:connector-curvature="0"
             id="selection_x5F_to_x5F_path_x23_2"
             d="m 517.84122,808.02908 c 19,5 19,21 27,32 3,4 11,10 12,14 1,3 0,4 1,11 2,9 8,18 16,23 9,6 17,10 28,7 6,-2 12,-6 9,-13 -3,-7 -14,0 -21,-2 -7,-3 -15,-13 -15,-21 l 4,-14 c -11,-4 -24,-13 -29,-24 -3,-7 -3,-17 -8,-22 -9,-7 -21,-1 -24,9 z" />
          <path
             style="fill:#ffffff;stroke:#000000;stroke-width:0.70476186"
             inkscape:connector-curvature="0"
             id="path758"
             d="m 565.84122,831.02908 c 3,4 5,5 9,7 14,8 23,2 37,-1 l 29,-9 c -3.84,-2.58 -12.42,-7.95 -16,-10 l -19,5 -40,8 z" />
          <path
             style="fill:#ffffff;stroke:#000000;stroke-width:0.70476186"
             inkscape:connector-curvature="0"
             id="path759"
             d="m 579.84122,860.02908 c 26,0 50,-8 75,-14 0,0 11,-5.206 14.676,-5.206 -3.47,-2.529 -17.622,-7.638 -19.836,-9.634 -3,0.89 -14.84,4.84 -18.84,5.84 l -25,7 -12,3 c -7,3 -12,4 -14,13 z" />
        </g>
        <circle
           id="circle3807"
           r="107.775"
           cy="156.03101"
           cx="376.047"
           style="fill:none;stroke:#ffffff;stroke-width:14.09523773"
           transform="matrix(0.67937348,0,0,0.67937344,172.06628,463.24141)" />
        <path
           id="path3809"
           d="m 972.7768,439.2957 c -31.919,0 -58.663,22.231 -65.598,52.05 l 32.187,0 c 5.808,-12.648 18.59,-21.432 33.411,-21.432 20.282,0 36.742,16.46 36.742,36.741 0,20.281 -16.46,36.742 -36.742,36.742 -14.821,0 -27.604,-8.785 -33.411,-21.433 l -32.187,0 c 6.935,29.819 33.679,52.05 65.598,52.05 37.183,0 67.359,-30.177 67.359,-67.359 0,-37.182 -30.177,-67.359 -67.359,-67.359 z"
           inkscape:connector-curvature="0"
           style="fill:#ffffff"
           transform="matrix(0.67937348,0,0,0.67937344,-233.93429,225.03699)" />
        <g
           transform="matrix(-0.72702905,0.19480685,-0.19480685,-0.72702905,-611.71218,-436.375)"
           style="font-style:normal;font-weight:normal;font-size:121.8484726px;line-height:125%;font-family:'Bitstream Vera Sans';letter-spacing:0px;word-spacing:0px;fill:#ffffff;fill-opacity:1;stroke:none"
           id="text3059"
           inkscape:export-filename="/srv/http/kiwwwi.com.ar/pastes/utopia-pirata-2.png"
           inkscape:export-xdpi="149"
           inkscape:export-ydpi="149">
          <g
             id="g3922"
             transform="matrix(0.99707364,-0.07644708,0.07644708,0.99707364,125.06749,-81.555005)">
            <circle
               inkscape:export-ydpi="149"
               inkscape:export-xdpi="149"
               inkscape:export-filename="/srv/http/kiwwwi.com.ar/pastes/utopia-pirata-1.png"
               style="fill:none;stroke:none"
               id="path3865"
               transform="matrix(-0.8718552,-0.2336129,0.2336129,-0.8718552,-1786.4657,-3244.8873)"
               cx="-1311.178"
               cy="-1543.7299"
               r="127.27922" />
            <path
               inkscape:connector-curvature="0"
               id="path3897"
               style="font-style:normal;font-variant:normal;font-weight:normal;font-stretch:normal;font-family:'League Gothic';-inkscape-font-specification:'League Gothic';fill:#ffffff"
               d="m -778.04883,-1594.9487 -70.08465,-12.3215 c -3.57914,-0.7529 -6.69277,-2.0426 -9.22087,-3.848 -2.21027,-1.502 -4.19505,-3.583 -5.5732,-6.2996 -1.49816,-2.7377 -2.00858,-6.1679 -1.24904,-10.4881 0.75954,-4.3203 2.43037,-7.4907 4.77246,-9.5532 2.22209,-2.0837 4.77652,-3.243 7.36656,-3.9011 2.99226,-0.8348 6.35907,-0.9852 9.98041,-0.4723 l 70.08465,12.3215 -2.27862,12.9608 -70.08465,-12.3214 c -2.52017,-0.4431 -4.30577,-0.1384 -5.83684,0.8296 -0.70553,0.4946 -1.21325,1.2713 -1.40313,2.3514 -0.40087,2.2801 0.84934,3.6134 2.56507,4.4099 0.77676,0.5077 1.83573,0.8176 3.15582,1.0497 l 70.08465,12.3214 -2.27862,12.9609" />
            <path
               inkscape:connector-curvature="0"
               id="path3899"
               style="font-style:normal;font-variant:normal;font-weight:normal;font-stretch:normal;font-family:'League Gothic';-inkscape-font-specification:'League Gothic';fill:#ffffff"
               d="m -801.09593,-1568.8963 11.85811,6.5051 -18.28444,33.3309 -11.85812,-6.5051 5.97761,-10.8966 -66.66184,-36.5689 6.32923,-11.5376 66.66184,36.5689 5.97761,-10.8967" />
            <path
               inkscape:connector-curvature="0"
               id="path3901"
               style="font-style:normal;font-variant:normal;font-weight:normal;font-stretch:normal;font-family:'League Gothic';-inkscape-font-specification:'League Gothic';fill:#ffffff"
               d="m -902.22684,-1531.2768 c -2.40064,-2.7594 -4.10625,-5.6661 -5.0338,-8.6309 -0.857,-2.5312 -1.18494,-5.3882 -0.64563,-8.3863 0.45632,-3.0873 2.1181,-6.1311 5.32973,-9.1189 3.21164,-2.9879 6.45655,-4.5088 9.56871,-4.7413 3.02918,-0.3218 5.76585,0.2943 8.22867,1.3316 2.89022,1.139 5.66638,3.0497 8.24545,5.6431 l 35.93698,38.6289 c 2.31765,2.6701 4.02326,5.5768 4.95082,8.5417 0.85699,2.5312 1.35714,5.3944 0.81783,8.3924 -0.53932,2.9981 -2.20731,6.2141 -5.41895,9.202 -3.21163,2.9878 -6.45032,4.3365 -9.47949,4.6583 -3.02918,0.3217 -5.93806,-0.3006 -8.40087,-1.3379 -2.89023,-1.1389 -5.66638,-3.0497 -8.16246,-5.5539 l -35.93699,-38.6288 m 45.57191,29.6653 c 1.65991,1.7843 3.1787,2.7013 5.06676,2.9419 0.86104,0.031 1.82372,-0.3653 2.62663,-1.1122 1.69503,-1.5769 1.33601,-3.5729 0.61392,-5.0646 -0.39633,-0.9627 -1.05407,-1.8486 -1.88403,-2.7407 l -35.93698,-38.6289 c -1.74291,-1.8735 -3.35091,-2.7075 -5.15597,-2.8588 -0.86104,-0.031 -1.73451,0.2822 -2.53742,1.0292 -1.69503,1.5769 -1.502,3.3944 -0.61392,5.0645 0.31333,0.8735 0.97108,1.7594 1.88402,2.7408 l 35.93699,38.6288" />
            <path
               inkscape:connector-curvature="0"
               id="path3903"
               style="font-style:normal;font-variant:normal;font-weight:normal;font-stretch:normal;font-family:'League Gothic';-inkscape-font-specification:'League Gothic';fill:#ffffff"
               d="m -886.59996,-1457.8116 -12.05827,5.2702 c -5.24757,2.2934 -11.08073,3.2471 -16.75926,1.2077 -5.67853,-2.0394 -11.09081,-7.1207 -15.18979,-16.4994 -4.09898,-9.3786 -4.10323,-16.6905 -1.74292,-22.2434 2.3603,-5.5528 6.92473,-9.4094 12.1723,-11.7029 l -14.34645,-32.8252 12.05826,-5.2702 35.86613,82.0632 m -28.21022,-31.6862 c -3.68447,1.6103 -5.73635,3.305 -6.2466,5.7886 -0.55905,2.372 0.42353,5.5329 2.42423,10.1106 2.00069,4.5777 3.75077,7.6692 5.96893,9.0933 2.21816,1.4242 4.95321,1.2926 8.63767,-0.3177 l -10.78423,-24.6748" />
            <path
               inkscape:connector-curvature="0"
               id="path3905"
               style="font-style:normal;font-variant:normal;font-weight:normal;font-stretch:normal;font-family:'League Gothic';-inkscape-font-specification:'League Gothic';fill:#ffffff"
               d="m -948.99443,-1436.6047 -13.00674,2.0001 -13.61231,-88.5181 13.00674,-2.0001 13.61231,88.5181" />
            <path
               inkscape:connector-curvature="0"
               id="path3907"
               style="font-style:normal;font-variant:normal;font-weight:normal;font-stretch:normal;font-family:'League Gothic';-inkscape-font-specification:'League Gothic';fill:#ffffff"
               d="m -981.75508,-1521.0222 -23.62102,87.4398 -15.9797,-1.8289 -3.2539,-90.5157 12.7111,1.4548 0.3429,18.4359 12.59007,1.4409 4.49944,-17.8816 12.71111,1.4548 m -29.02582,57.5093 0.1,2.3417 0.7264,0.083 0.6264,-2.2585 6.9672,-27.656 -8.9583,-1.0253 0.5384,28.515" />
            <path
               inkscape:connector-curvature="0"
               id="path3909"
               style="font-style:normal;font-variant:normal;font-weight:normal;font-stretch:normal;font-family:'League Gothic';-inkscape-font-specification:'League Gothic';fill:#ffffff"
               d="m -1099.1166,-1462.6292 -10.788,-7.5362 c -4.6948,-3.2797 -8.5522,-7.758 -9.7757,-13.6663 -1.2235,-5.9083 0.2868,-13.1768 6.1483,-21.5675 5.8615,-8.3906 12.0967,-12.2098 18.0653,-13.094 5.9685,-0.8841 11.6402,0.9971 16.335,4.2767 l 20.5152,-29.3674 10.7881,7.5362 -51.2882,73.4185 m 12.3091,-40.5995 c -3.2963,-2.3027 -5.8127,-3.1688 -8.1976,-2.308 -2.3152,0.7609 -4.4989,3.2485 -7.3599,7.344 -2.8609,4.0954 -4.5849,7.2016 -4.6423,9.8369 -0.057,2.6354 1.4821,4.8999 4.7784,7.2026 l 15.4214,-22.0755" />
            <path
               inkscape:connector-curvature="0"
               id="path3911"
               style="font-style:normal;font-variant:normal;font-weight:normal;font-stretch:normal;font-family:'League Gothic';-inkscape-font-specification:'League Gothic';fill:#ffffff"
               d="m -1149.6319,-1504.5948 -8.5195,-10.0296 68.2572,-57.9801 8.5196,10.0296 -68.2573,57.9801" />
            <path
               inkscape:connector-curvature="0"
               id="path3913"
               style="font-style:normal;font-variant:normal;font-weight:normal;font-stretch:normal;font-family:'League Gothic';-inkscape-font-specification:'League Gothic';fill:#ffffff"
               d="m -1106.4208,-1601.3444 -31.2348,22.3102 1.5099,3.1948 34.1507,-16.1412 5.6233,11.8977 -80.97,38.2701 -5.6234,-11.8977 c -6.7168,-14.211 -1.5386,-24.071 13.7741,-31.3085 8.0419,-3.8009 16.302,-5.1443 21.5214,-2.0855 l 35.6254,-26.1376 5.6234,11.8977 m -40.7412,30.7118 c -0.781,-1.6525 -2.0427,-3.7516 -4.4181,-4.7852 -2.3754,-1.0337 -6.0267,-1.06 -11.7551,1.6476 -5.7285,2.7075 -8.1362,5.5975 -8.8454,8.0891 -0.7092,2.4916 0.222,4.7469 1.003,6.3994 l 24.0156,-11.3509" />
            <path
               inkscape:connector-curvature="0"
               id="path3915"
               style="font-style:normal;font-variant:normal;font-weight:normal;font-stretch:normal;font-family:'League Gothic';-inkscape-font-specification:'League Gothic';fill:#ffffff"
               d="m -1113.2219,-1617.132 -90.458,-4.5863 -1.5934,-16.0049 87.7782,-22.331 1.2675,12.7311 -17.946,4.2357 1.2554,12.6099 18.4288,0.6143 1.2675,12.7312 m -62.3486,-16.2013 -2.2675,0.5931 0.072,0.7275 2.34,0.1344 28.504,0.9582 -0.8933,-8.9724 -27.7556,6.5592" />
            <path
               inkscape:connector-curvature="0"
               id="path3917"
               style="font-style:normal;font-variant:normal;font-weight:normal;font-stretch:normal;font-family:'League Gothic';-inkscape-font-specification:'League Gothic';fill:#ffffff"
               d="m -1191.1447,-1674.8241 -13.2316,-2.8027 7.8779,-37.1915 13.2316,2.8027 -2.5754,12.1588 74.383,15.7558 -2.727,12.874 -74.383,-15.7558 -2.5755,12.1587" />
            <path
               inkscape:connector-curvature="0"
               id="path3919"
               style="font-style:normal;font-variant:normal;font-weight:normal;font-stretch:normal;font-family:'League Gothic';-inkscape-font-specification:'League Gothic';fill:#ffffff"
               d="m -1109.3262,-1695.6338 -70.438,-56.94 8.1301,-13.8779 84.1114,33.5999 -6.4672,11.0393 -17.0021,-7.1361 -6.4056,10.9341 14.5385,11.3415 -6.4671,11.0392 m -40.876,-49.7893 -2.1823,-0.8549 -0.3696,0.6309 1.8128,1.4856 22.4821,17.5485 4.5578,-7.78 -26.3008,-11.0301" />
          </g>
        </g>
      </g>
    </g>
    <rect
       style="fill:#ffffff"
       id="rect3035"
       width="372.04724"
       height="173.31082"
       x="2.9508118e-07"
       y="589.1864" />
    <g
       id="g3370"
       transform="matrix(1.418919,0,0,1.418919,-365.67568,-440.85448)">
      <g
         id="text3025"
         style="font-style:normal;font-variant:normal;font-weight:normal;font-stretch:normal;font-size:40px;line-height:125%;font-family:'League Gothic';-inkscape-font-specification:'League Gothic';letter-spacing:0px;word-spacing:0px;fill:#000000;fill-opacity:1;stroke:none"
         transform="translate(-0.25254936,-1.7019788)">
        <g
           style="font-style:normal;font-variant:normal;font-weight:normal;font-stretch:normal;font-size:34.64697647px;line-height:125%;font-family:FontAwesome;-inkscape-font-specification:FontAwesome;letter-spacing:0px;word-spacing:0px;fill:#000000;fill-opacity:1;stroke:none;stroke-width:1px;stroke-linecap:butt;stroke-linejoin:miter;stroke-opacity:1"
           id="text3797">
          <path
             d="m 388.48557,797.06699 c 0,-0.31182 0,-0.79688 -0.10395,-1.14335 -0.13858,-0.34647 -0.41576,-0.589 -0.86617,-0.589 -0.589,0 -0.83153,0.45041 -0.93547,1.00477 -0.0346,0.27717 -0.0693,0.58899 -0.0693,0.90082 0,0.31182 0,0.62364 0,0.90082 l -3.49935,0 0,-0.79688 c 0,-1.38588 0.51971,-2.63317 1.35124,-3.56864 0.83152,-0.93547 2.00952,-1.48982 3.36075,-1.48982 1.14335,0 2.18276,0.45041 2.97964,1.21264 0.79688,0.76224 1.28194,1.83629 1.28194,3.08358 l 0,11.64139 c 0,1.6977 0.10394,2.45993 0.24253,3.29146 l -3.43005,0 c -0.31182,-0.38112 -0.31182,-1.28194 -0.31182,-1.52447 l -0.24253,0 c -0.17324,0.31183 -0.48506,0.76224 -0.97012,1.14335 -0.48506,0.38112 -1.14335,0.6583 -1.83629,0.6583 -0.45041,0 -1.178,-0.17324 -1.73235,-0.86618 -0.589,-0.65829 -1.07405,-1.83629 -1.07405,-3.81116 0,-2.11347 0.62364,-3.63794 1.45517,-4.67735 0.83153,-1.03941 1.87094,-1.6977 2.73711,-2.14811 0.86618,-0.45041 1.52447,-0.76223 1.66306,-1.14335 l 0,-2.07882 z m 0,5.30099 c -1.69771,0.72759 -2.42529,2.42529 -2.42529,4.22693 0,0.24253 0.0346,0.65829 0.17323,1.03941 0.13859,0.41576 0.38112,0.72759 0.79688,0.72759 0.79688,0 1.45518,-0.48506 1.45518,-1.14335 l 0,-4.85058 z"
             style="font-style:normal;font-variant:normal;font-weight:normal;font-stretch:normal;font-size:34.64697647px;line-height:125%;font-family:'League Gothic';-inkscape-font-specification:'League Gothic';letter-spacing:0px;word-spacing:0px;fill:#000000;fill-opacity:1;stroke:none;stroke-width:1px;stroke-linecap:butt;stroke-linejoin:miter;stroke-opacity:1"
             id="path3844-5"
             inkscape:connector-curvature="0" />
          <path
             d="m 282.86229,800.73438 -2.91035,0 0,11.08703 -3.74187,0 0,-25.46553 3.74187,0 0,10.53268 2.91035,0 0,-10.53268 3.74187,0 0,25.46553 -3.74187,0 0,-11.08703 z"
             style="font-style:normal;font-variant:normal;font-weight:normal;font-stretch:normal;font-family:'League Gothic';-inkscape-font-specification:'League Gothic'"
             id="path3820"
             inkscape:connector-curvature="0" />
          <path
             d="m 294.70668,797.37362 c 0,-0.31182 0,-0.79688 -0.10394,-1.14335 -0.13859,-0.34647 -0.41576,-0.589 -0.86617,-0.589 -0.589,0 -0.83153,0.45041 -0.93547,1.00477 -0.0346,0.27717 -0.0693,0.58899 -0.0693,0.90082 0,0.31182 0,0.62364 0,0.90082 l -3.49934,0 0,-0.79688 c 0,-1.38588 0.5197,-2.63317 1.35123,-3.56864 0.83153,-0.93547 2.00953,-1.48982 3.36076,-1.48982 1.14335,0 2.18276,0.45041 2.97964,1.21264 0.79688,0.76224 1.28194,1.83629 1.28194,3.08358 l 0,11.64139 c 0,1.6977 0.10394,2.45993 0.24252,3.29146 l -3.43005,0 c -0.31182,-0.38112 -0.31182,-1.28194 -0.31182,-1.52447 l -0.24253,0 c -0.17323,0.31183 -0.48506,0.76224 -0.97011,1.14335 -0.48506,0.38112 -1.14335,0.6583 -1.83629,0.6583 -0.45041,0 -1.178,-0.17324 -1.73235,-0.86618 -0.589,-0.65829 -1.07406,-1.83629 -1.07406,-3.81116 0,-2.11347 0.62365,-3.63794 1.45517,-4.67735 0.83153,-1.03941 1.87094,-1.6977 2.73712,-2.14811 0.86617,-0.45041 1.52446,-0.76223 1.66305,-1.14335 l 0,-2.07882 z m 0,5.30099 c -1.6977,0.72759 -2.42529,2.42529 -2.42529,4.22693 0,0.24253 0.0346,0.65829 0.17324,1.03941 0.13859,0.41576 0.38111,0.72759 0.79688,0.72759 0.79688,0 1.45517,-0.48506 1.45517,-1.14335 l 0,-4.85058 z"
             style="font-style:normal;font-variant:normal;font-weight:normal;font-stretch:normal;font-family:'League Gothic';-inkscape-font-specification:'League Gothic'"
             id="path3822"
             inkscape:connector-curvature="0" />
          <path
             d="m 303.79339,807.45589 c 0,0.69294 0.0346,1.52447 0.97012,1.52447 0.79688,0 1.00476,-0.38112 1.00476,-1.52447 l 0,-2.63317 3.49934,0 0,1.83629 c 0,2.11347 -0.38111,3.4647 -1.14335,4.29623 -0.76223,0.83152 -1.87093,1.14335 -3.36075,1.14335 -1.24729,0 -2.39064,-0.34647 -3.18752,-1.21265 -0.79688,-0.86617 -1.28194,-2.2867 -1.28194,-4.40016 l 0,-8.28063 c 0,-2.11347 0.48506,-3.53399 1.28194,-4.40017 0.79688,-0.86617 1.94023,-1.21264 3.18752,-1.21264 1.48982,0 2.59852,0.31182 3.36075,1.14335 0.76224,0.83153 1.14335,2.18276 1.14335,4.29622 l 0,1.48982 -3.49934,0 0,-2.2867 c 0,-1.14335 -0.20788,-1.52446 -1.00476,-1.52446 -0.93547,0 -0.97012,0.83152 -0.97012,1.52446 l 0,10.22086 z"
             style="font-style:normal;font-variant:normal;font-weight:normal;font-stretch:normal;font-family:'League Gothic';-inkscape-font-specification:'League Gothic'"
             id="path3824"
             inkscape:connector-curvature="0" />
          <path
             d="m 314.96542,786.35588 0,12.0918 0.17323,0 0.20788,-0.62365 1.6977,-4.95451 3.15288,0 -2.52923,6.16716 3.18752,12.78473 -3.36075,0 -1.73235,-7.65698 -0.0693,-0.27718 -0.17323,0 -0.10394,0.27718 -0.45041,1.1087 0,6.54828 -3.49935,0 0,-25.46553 3.49935,0 z"
             style="font-style:normal;font-variant:normal;font-weight:normal;font-stretch:normal;font-family:'League Gothic';-inkscape-font-specification:'League Gothic'"
             id="path3826"
             inkscape:connector-curvature="0" />
          <path
             d="m 330.85593,805.0306 0,2.18276 c -0.10394,1.83629 -0.65829,3.11823 -1.90558,4.12299 -0.62365,0.51971 -1.48982,0.76224 -2.63318,0.76224 -2.25205,0 -3.3954,-1.24729 -3.94975,-2.49459 -0.31182,-0.72758 -0.5197,-1.55911 -0.55435,-2.49458 l 0,-9.52792 c 0.10394,-1.83629 0.69294,-3.18752 1.94023,-4.22693 0.589,-0.5197 1.45517,-0.76223 2.59852,-0.76223 2.25206,0 3.39541,1.24729 3.94976,2.45993 0.31182,0.72759 0.5197,1.52447 0.55435,2.42529 l 0,5.50887 -5.78605,0 0,4.12299 c 0.0346,0.72759 0.24253,1.24729 0.55436,1.62841 0.17323,0.17324 0.41576,0.27718 0.72758,0.27718 0.65829,0 0.97012,-0.41577 1.10871,-0.93547 0.10394,-0.27718 0.13858,-0.589 0.13858,-0.97012 l 0,-2.07882 3.25682,0 z m -5.78605,-4.78128 2.52923,0 0,-2.66782 c 0,-0.72758 -0.13858,-1.24729 -0.48505,-1.66305 -0.17324,-0.17324 -0.45042,-0.27718 -0.76224,-0.27718 -0.65829,0 -0.93547,0.45041 -1.1087,0.97012 -0.10394,0.27717 -0.13859,0.589 -0.17324,0.97011 l 0,2.66782 z"
             style="font-style:normal;font-variant:normal;font-weight:normal;font-stretch:normal;font-family:'League Gothic';-inkscape-font-specification:'League Gothic'"
             id="path3828"
             inkscape:connector-curvature="0" />
          <path
             d="m 338.35375,797.37362 c 0,-0.31182 0,-0.79688 -0.10394,-1.14335 -0.13859,-0.34647 -0.41576,-0.589 -0.86617,-0.589 -0.589,0 -0.83153,0.45041 -0.93547,1.00477 -0.0346,0.27717 -0.0693,0.58899 -0.0693,0.90082 0,0.31182 0,0.62364 0,0.90082 l -3.49934,0 0,-0.79688 c 0,-1.38588 0.5197,-2.63317 1.35123,-3.56864 0.83153,-0.93547 2.00953,-1.48982 3.36076,-1.48982 1.14335,0 2.18276,0.45041 2.97964,1.21264 0.79688,0.76224 1.28194,1.83629 1.28194,3.08358 l 0,11.64139 c 0,1.6977 0.10394,2.45993 0.24253,3.29146 l -3.43006,0 c -0.31182,-0.38112 -0.31182,-1.28194 -0.31182,-1.52447 l -0.24253,0 c -0.17323,0.31183 -0.48505,0.76224 -0.97011,1.14335 -0.48506,0.38112 -1.14335,0.6583 -1.83629,0.6583 -0.45041,0 -1.178,-0.17324 -1.73235,-0.86618 -0.589,-0.65829 -1.07406,-1.83629 -1.07406,-3.81116 0,-2.11347 0.62365,-3.63794 1.45518,-4.67735 0.83152,-1.03941 1.87093,-1.6977 2.73711,-2.14811 0.86617,-0.45041 1.52446,-0.76223 1.66305,-1.14335 l 0,-2.07882 z m 0,5.30099 c -1.6977,0.72759 -2.42529,2.42529 -2.42529,4.22693 0,0.24253 0.0346,0.65829 0.17324,1.03941 0.13859,0.41576 0.38112,0.72759 0.79688,0.72759 0.79688,0 1.45517,-0.48506 1.45517,-1.14335 l 0,-4.85058 z"
             style="font-style:normal;font-variant:normal;font-weight:normal;font-stretch:normal;font-family:'League Gothic';-inkscape-font-specification:'League Gothic'"
             id="path3830"
             inkscape:connector-curvature="0" />
          <path
             d="m 347.5823,811.82141 -3.49935,0 0,-18.95189 3.49935,0 0,1.59376 c 0.0693,-0.0347 0.20788,-0.17324 0.41576,-0.38112 0.38112,-0.38112 0.90082,-0.90082 1.52447,-1.24729 0.31182,-0.17324 0.589,-0.24253 0.90082,-0.24253 0.93547,0 1.59376,0.55435 2.00953,1.24729 0.41576,0.72759 0.62364,1.66306 0.62364,2.45994 l 0,15.52184 -3.49934,0 0,-15.00214 c 0,-0.72759 -0.41577,-0.83153 -0.83153,-0.83153 -0.38112,0 -0.589,0.20788 -0.83153,0.45041 -0.10394,0.13859 -0.20788,0.27718 -0.31182,0.45041 l 0,14.93285 z"
             style="font-style:normal;font-variant:normal;font-weight:normal;font-stretch:normal;font-family:'League Gothic';-inkscape-font-specification:'League Gothic'"
             id="path3832"
             inkscape:connector-curvature="0" />
          <path
             d="m 364.62482,811.82141 -3.49935,0 0,-1.24729 c -0.58899,0.55435 -1.1087,0.97012 -1.76699,1.28194 -0.34647,0.17323 -0.69294,0.24253 -1.00476,0.24253 -0.97012,0 -1.62841,-0.55435 -2.04418,-1.28194 -0.45041,-0.69294 -0.65829,-1.62841 -0.65829,-2.42529 l 0,-12.09179 c 0,-0.79688 0.20788,-1.73235 0.65829,-2.45994 0.41577,-0.69294 1.07406,-1.24729 2.04418,-1.24729 0.65829,0 1.35123,0.38112 1.87093,0.76223 0.31183,0.24253 0.589,0.48506 0.90082,0.76224 l 0,-7.76093 3.49935,0 0,25.46553 z m -3.49935,-14.79426 c 0,-0.55435 -0.5197,-1.14335 -1.0394,-1.14335 -0.51971,0 -0.93547,0.48506 -0.93547,1.14335 l 0,10.63662 c 0,0.6583 0.41576,1.14335 0.93547,1.14335 0.5197,0 1.0394,-0.48505 1.0394,-1.14335 l 0,-10.63662 z"
             style="font-style:normal;font-variant:normal;font-weight:normal;font-stretch:normal;font-family:'League Gothic';-inkscape-font-specification:'League Gothic'"
             id="path3834"
             inkscape:connector-curvature="0" />
          <path
             d="m 376.09081,807.21336 c -0.10395,1.83629 -0.6583,3.11823 -1.87094,4.12299 -0.62365,0.51971 -1.48982,0.76224 -2.63317,0.76224 -2.25205,0 -3.36076,-1.24729 -3.91511,-2.49459 -0.31182,-0.72758 -0.5197,-1.55911 -0.55435,-2.49458 l 0,-9.52792 c 0.10394,-1.83629 0.65829,-3.18752 1.87094,-4.22693 0.58899,-0.5197 1.45517,-0.76223 2.59852,-0.76223 2.25205,0 3.3954,1.24729 3.94975,2.45993 0.31183,0.72759 0.51971,1.52447 0.55436,2.42529 l 0,9.7358 z m -3.29147,-9.63186 c 0.0346,-0.72758 -0.10394,-1.24729 -0.45041,-1.66305 -0.17323,-0.17324 -0.45041,-0.27718 -0.76223,-0.27718 -0.65829,0 -0.93547,0.45041 -1.07406,0.97012 -0.10394,0.27717 -0.13859,0.589 -0.10394,0.97011 l 0,9.52792 c -0.0346,0.72759 0.13859,1.24729 0.45041,1.62841 0.17324,0.17324 0.41577,0.27718 0.72759,0.27718 0.65829,0 0.97011,-0.41577 1.1087,-0.93547 0.10394,-0.27718 0.13859,-0.589 0.10394,-0.97012 l 0,-9.52792 z"
             style="font-style:normal;font-variant:normal;font-weight:normal;font-stretch:normal;font-family:'League Gothic';-inkscape-font-specification:'League Gothic'"
             id="path3836"
             inkscape:connector-curvature="0" />
          <path
             d="m 394.9707,811.82141 0,-25.46553 3.49934,0 0,25.46553 -3.49934,0 z"
             style="font-style:normal;font-variant:normal;font-weight:normal;font-stretch:normal;font-family:'League Gothic';-inkscape-font-specification:'League Gothic'"
             id="path3840"
             inkscape:connector-curvature="0" />
          <path
             d="m 416.34571,803.09037 0,3.49935 c -0.0346,1.03941 -0.24253,1.97488 -0.62365,2.77176 -0.31182,0.69294 -0.79688,1.35123 -1.48982,1.87093 -0.69294,0.55435 -1.6284,0.86618 -2.8757,0.86618 -1.24729,0 -2.2174,-0.31183 -2.91034,-0.86618 -0.69294,-0.5197 -1.14335,-1.17799 -1.45517,-1.87093 -0.38112,-0.79688 -0.589,-1.73235 -0.62365,-2.77176 l 0,-15.00214 c 0.0346,-1.00477 0.24253,-1.94023 0.62365,-2.73711 0.31182,-0.69294 0.76223,-1.38588 1.45517,-1.90559 0.69294,-0.5197 1.66305,-0.86617 2.91034,-0.86617 1.2473,0 2.18276,0.34647 2.8757,0.86617 0.69294,0.51971 1.178,1.21265 1.48982,1.90559 0.38112,0.79688 0.589,1.73234 0.62365,2.73711 l 0,3.49934 -3.49935,0 0,-3.49934 c 0,-0.69294 -0.17323,-1.178 -0.55435,-1.59376 -0.17323,-0.17324 -0.48505,-0.27718 -0.86617,-0.27718 -0.65829,0 -0.97012,0.48506 -1.14335,0.93547 -0.10394,0.27717 -0.13859,0.589 -0.17324,0.93547 l 0,15.00214 c 0.0346,0.72758 0.24253,1.21264 0.589,1.59376 0.17324,0.17323 0.41577,0.27717 0.72759,0.27717 0.79688,0 1.1087,-0.41576 1.28194,-0.93546 0.10394,-0.24253 0.13858,-0.55436 0.13858,-0.93547 l 0,-3.49935 3.49935,0 z"
             style="font-style:normal;font-variant:normal;font-weight:normal;font-stretch:normal;font-family:'League Gothic';-inkscape-font-specification:'League Gothic'"
             id="path3842"
             inkscape:connector-curvature="0" />
          <path
             d="m 423.88847,797.37362 c 0,-0.31182 0,-0.79688 -0.10395,-1.14335 -0.13858,-0.34647 -0.41576,-0.589 -0.86617,-0.589 -0.589,0 -0.83153,0.45041 -0.93547,1.00477 -0.0346,0.27717 -0.0693,0.58899 -0.0693,0.90082 0,0.31182 0,0.62364 0,0.90082 l -3.49935,0 0,-0.79688 c 0,-1.38588 0.51971,-2.63317 1.35124,-3.56864 0.83152,-0.93547 2.00952,-1.48982 3.36075,-1.48982 1.14335,0 2.18276,0.45041 2.97964,1.21264 0.79688,0.76224 1.28194,1.83629 1.28194,3.08358 l 0,11.64139 c 0,1.6977 0.10394,2.45993 0.24253,3.29146 l -3.43005,0 c -0.31182,-0.38112 -0.31182,-1.28194 -0.31182,-1.52447 l -0.24253,0 c -0.17324,0.31183 -0.48506,0.76224 -0.97012,1.14335 -0.48506,0.38112 -1.14335,0.6583 -1.83629,0.6583 -0.45041,0 -1.178,-0.17324 -1.73235,-0.86618 -0.589,-0.65829 -1.07405,-1.83629 -1.07405,-3.81116 0,-2.11347 0.62364,-3.63794 1.45517,-4.67735 0.83153,-1.03941 1.87094,-1.6977 2.73711,-2.14811 0.86618,-0.45041 1.52447,-0.76223 1.66306,-1.14335 l 0,-2.07882 z m 0,5.30099 c -1.69771,0.72759 -2.42529,2.42529 -2.42529,4.22693 0,0.24253 0.0346,0.65829 0.17323,1.03941 0.13859,0.41576 0.38112,0.72759 0.79688,0.72759 0.79688,0 1.45518,-0.48506 1.45518,-1.14335 l 0,-4.85058 z"
             style="font-style:normal;font-variant:normal;font-weight:normal;font-stretch:normal;font-family:'League Gothic';-inkscape-font-specification:'League Gothic'"
             id="path3844"
             inkscape:connector-curvature="0" />
          <path
             d="m 429.61768,792.86952 3.49934,0 0,1.24729 c 0.589,-0.55436 1.1087,-0.97012 1.80164,-1.28194 0.31183,-0.17324 0.6583,-0.24253 0.97012,-0.24253 0.97011,0 1.62841,0.55435 2.07882,1.24729 0.41576,0.72759 0.62364,1.66306 0.62364,2.45994 l 0,12.09179 c 0,0.79688 -0.20788,1.73235 -0.62364,2.42529 -0.45041,0.72759 -1.10871,1.28194 -2.07882,1.28194 -0.65829,0 -1.35123,-0.38112 -1.87094,-0.76224 -0.31182,-0.24253 -0.589,-0.48505 -0.90082,-0.76223 l 0,7.76092 -3.49934,0 0,-25.46552 z m 3.49934,14.79425 c 0,0.55436 0.5197,1.14335 1.03941,1.14335 0.5197,0 0.93547,-0.48505 0.93547,-1.14335 l 0,-10.63662 c 0,-0.65829 -0.41577,-1.14335 -0.93547,-1.14335 -0.51971,0 -1.03941,0.48506 -1.03941,1.14335 l 0,10.63662 z"
             style="font-style:normal;font-variant:normal;font-weight:normal;font-stretch:normal;font-family:'League Gothic';-inkscape-font-specification:'League Gothic'"
             id="path3846"
             inkscape:connector-curvature="0" />
          <path
             d="m 441.2569,786.35588 3.49934,0 0,3.49935 -3.49934,0 0,-3.49935 z m 0,25.46553 0,-18.95189 3.49934,0 0,18.95189 -3.49934,0 z"
             style="font-style:normal;font-variant:normal;font-weight:normal;font-stretch:normal;font-family:'League Gothic';-inkscape-font-specification:'League Gothic'"
             id="path3848"
             inkscape:connector-curvature="0" />
          <path
             d="m 451.64179,788.19217 0,4.67735 2.39064,0 0,3.15287 -2.39064,0 0,9.42398 c 0,0.589 0,1.35123 0.13858,1.97488 0.13859,0.62364 0.41577,1.14335 0.97012,1.14335 0.27718,0 0.62365,-0.0347 0.86617,-0.0693 0.13859,-0.0347 0.27718,-0.0347 0.41577,-0.0693 l 0,3.43005 c -0.17324,0.0347 -0.34647,0.10394 -0.51971,0.13859 -0.34647,0.0693 -0.79688,0.10394 -1.35123,0.10394 -2.04417,0 -3.01429,-1.03941 -3.49934,-2.356 -0.48506,-1.31658 -0.51971,-2.91034 -0.51971,-4.01905 l 0,-9.70115 -1.76699,0 0,-3.15287 1.76699,0 0,-4.67735 3.49935,0 z"
             style="font-style:normal;font-variant:normal;font-weight:normal;font-stretch:normal;font-family:'League Gothic';-inkscape-font-specification:'League Gothic'"
             id="path3850"
             inkscape:connector-curvature="0" />
          <path
             d="m 461.1069,797.37362 c 0,-0.31182 0,-0.79688 -0.10395,-1.14335 -0.13858,-0.34647 -0.41576,-0.589 -0.86617,-0.589 -0.589,0 -0.83153,0.45041 -0.93547,1.00477 -0.0346,0.27717 -0.0693,0.58899 -0.0693,0.90082 0,0.31182 0,0.62364 0,0.90082 l -3.49935,0 0,-0.79688 c 0,-1.38588 0.51971,-2.63317 1.35123,-3.56864 0.83153,-0.93547 2.00953,-1.48982 3.36076,-1.48982 1.14335,0 2.18276,0.45041 2.97964,1.21264 0.79688,0.76224 1.28194,1.83629 1.28194,3.08358 l 0,11.64139 c 0,1.6977 0.10394,2.45993 0.24253,3.29146 l -3.43005,0 c -0.31182,-0.38112 -0.31182,-1.28194 -0.31182,-1.52447 l -0.24253,0 c -0.17324,0.31183 -0.48506,0.76224 -0.97012,1.14335 -0.48506,0.38112 -1.14335,0.6583 -1.83629,0.6583 -0.45041,0 -1.178,-0.17324 -1.73235,-0.86618 -0.589,-0.65829 -1.07405,-1.83629 -1.07405,-3.81116 0,-2.11347 0.62364,-3.63794 1.45517,-4.67735 0.83153,-1.03941 1.87094,-1.6977 2.73711,-2.14811 0.86617,-0.45041 1.52447,-0.76223 1.66306,-1.14335 l 0,-2.07882 z m 0,5.30099 c -1.69771,0.72759 -2.42529,2.42529 -2.42529,4.22693 0,0.24253 0.0346,0.65829 0.17323,1.03941 0.13859,0.41576 0.38112,0.72759 0.79688,0.72759 0.79688,0 1.45518,-0.48506 1.45518,-1.14335 l 0,-4.85058 z"
             style="font-style:normal;font-variant:normal;font-weight:normal;font-stretch:normal;font-family:'League Gothic';-inkscape-font-specification:'League Gothic'"
             id="path3852"
             inkscape:connector-curvature="0" />
          <path
             d="m 466.8361,811.82141 0,-25.46553 3.49935,0 0,25.46553 -3.49935,0 z"
             style="font-style:normal;font-variant:normal;font-weight:normal;font-stretch:normal;font-family:'League Gothic';-inkscape-font-specification:'League Gothic'"
             id="path3854"
             inkscape:connector-curvature="0" />
          <path
             d="m 473.12941,786.35588 3.49934,0 0,3.49935 -3.49934,0 0,-3.49935 z m 0,25.46553 0,-18.95189 3.49934,0 0,18.95189 -3.49934,0 z"
             style="font-style:normal;font-variant:normal;font-weight:normal;font-stretch:normal;font-family:'League Gothic';-inkscape-font-specification:'League Gothic'"
             id="path3856"
             inkscape:connector-curvature="0" />
          <path
             d="m 484.52068,797.72009 c 0,-0.45041 0,-1.00476 -0.13858,-1.45517 -0.17324,-0.41577 -0.45042,-0.76223 -1.00477,-0.76223 -0.45041,0 -0.72758,0.34646 -0.86617,0.76223 -0.17324,0.41576 -0.20788,1.00476 -0.20788,1.45517 0,0.589 0.31182,1.21265 0.76223,1.767 0.41576,0.55435 0.97012,1.1087 1.52447,1.62841 0.72758,0.72758 1.59376,1.55911 2.18276,2.49458 0.589,0.97011 1.03941,2.04417 1.03941,3.29146 0,1.21264 -0.27718,2.49458 -0.97012,3.4647 -0.72759,1.00476 -1.83629,1.73235 -3.49934,1.73235 -2.11347,0 -3.36076,-0.97012 -4.0537,-2.14812 -0.69294,-1.17799 -0.83153,-2.63317 -0.83153,-3.63793 l 3.25682,0 c 0,0.51971 0.0346,1.24729 0.27717,1.80164 0.24253,0.589 0.62365,1.07406 1.35124,1.07406 1.00476,0 1.21264,-1.178 1.21264,-2.2867 0,-1.14335 -1.1087,-2.2867 -2.18276,-3.36076 -0.83153,-0.79688 -1.62841,-1.52446 -2.25205,-2.45993 -0.62365,-0.93547 -1.07406,-1.97488 -1.07406,-3.36076 0,-1.1087 0.20788,-2.39064 0.86618,-3.3954 0.65829,-0.97012 1.73234,-1.6977 3.3954,-1.73235 2.04417,-0.0347 3.18752,0.72759 3.77652,1.73235 0.589,1.00476 0.69294,2.32135 0.69294,3.3954 l -3.25682,0 z"
             style="font-style:normal;font-variant:normal;font-weight:normal;font-stretch:normal;font-family:'League Gothic';-inkscape-font-specification:'League Gothic'"
             id="path3858"
             inkscape:connector-curvature="0" />
          <path
             d="m 498.95439,811.82141 -3.29146,0 0,-15.00214 c 0,-0.72759 -0.55435,-0.83153 -0.93547,-0.83153 -0.38112,0 -0.69294,0.20788 -0.93547,0.45041 -0.13859,0.13859 -0.27718,0.27718 -0.38112,0.45041 l 0,14.93285 -3.49934,0 0,-18.95189 3.49934,0 0,1.59376 c 0.0693,-0.0347 0.20789,-0.17324 0.41577,-0.38112 0.38111,-0.38112 0.97011,-0.90082 1.59376,-1.24729 0.31182,-0.17324 0.589,-0.24253 0.90082,-0.24253 1.24729,0 1.97488,1.00476 2.35599,2.11346 0.13859,-0.10394 0.31183,-0.27717 0.55436,-0.5197 0.45041,-0.48506 1.03941,-0.93547 1.6977,-1.31658 0.31182,-0.17324 0.62364,-0.27718 0.93547,-0.27718 0.93546,0 1.59376,0.55435 2.00952,1.24729 0.41576,0.72759 0.62365,1.66306 0.62365,2.45994 l 0,15.52184 -3.29147,0 0,-15.00214 c 0,-0.72759 -0.55435,-0.83153 -0.93546,-0.83153 -0.38112,0 -0.69294,0.20788 -0.93547,0.45041 -0.13859,0.13859 -0.27718,0.27718 -0.38112,0.45041 l 0,14.93285 z"
             style="font-style:normal;font-variant:normal;font-weight:normal;font-stretch:normal;font-family:'League Gothic';-inkscape-font-specification:'League Gothic'"
             id="path3860"
             inkscape:connector-curvature="0" />
          <path
             d="m 515.82909,807.21336 c -0.10394,1.83629 -0.6583,3.11823 -1.87094,4.12299 -0.62365,0.51971 -1.48982,0.76224 -2.63317,0.76224 -2.25205,0 -3.36076,-1.24729 -3.91511,-2.49459 -0.31182,-0.72758 -0.5197,-1.55911 -0.55435,-2.49458 l 0,-9.52792 c 0.10394,-1.83629 0.65829,-3.18752 1.87094,-4.22693 0.589,-0.5197 1.45517,-0.76223 2.59852,-0.76223 2.25205,0 3.3954,1.24729 3.94976,2.45993 0.31182,0.72759 0.5197,1.52447 0.55435,2.42529 l 0,9.7358 z m -3.29147,-9.63186 c 0.0347,-0.72758 -0.10394,-1.24729 -0.45041,-1.66305 -0.17323,-0.17324 -0.45041,-0.27718 -0.76223,-0.27718 -0.65829,0 -0.93547,0.45041 -1.07406,0.97012 -0.10394,0.27717 -0.13858,0.589 -0.10394,0.97011 l 0,9.52792 c -0.0346,0.72759 0.13859,1.24729 0.45041,1.62841 0.17324,0.17324 0.41577,0.27718 0.72759,0.27718 0.65829,0 0.97012,-0.41577 1.1087,-0.93547 0.10394,-0.27718 0.13859,-0.589 0.10394,-0.97012 l 0,-9.52792 z"
             style="font-style:normal;font-variant:normal;font-weight:normal;font-stretch:normal;font-family:'League Gothic';-inkscape-font-specification:'League Gothic'"
             id="path3862"
             inkscape:connector-curvature="0" />
        </g>
        <g
           style="font-style:normal;font-variant:normal;font-weight:normal;font-stretch:normal;font-size:18.90425301px;line-height:125%;font-family:FontAwesome;-inkscape-font-specification:FontAwesome;letter-spacing:0px;word-spacing:0px;fill:#000000;fill-opacity:1;stroke:none;stroke-width:1px;stroke-linecap:butt;stroke-linejoin:miter;stroke-opacity:1"
           id="text3797-5">
          <path
             d="m 279.52056,775.05878 c 0.39699,0.0567 0.69946,-0.0378 0.92631,-0.34028 0.11342,-0.13233 0.17014,-0.35918 0.17014,-0.68055 l 0,-11.00228 2.04166,0 0,11.32365 c 0,0.75617 -0.18905,1.45563 -0.66165,1.96604 -0.47261,0.51042 -1.26659,0.81288 -2.47646,0.73727 l 0,-2.00385 z"
             style="font-style:normal;font-variant:normal;font-weight:normal;font-stretch:normal;font-family:'League Gothic';-inkscape-font-specification:'League Gothic'"
             id="path3866"
             inkscape:connector-curvature="0" />
          <path
             d="m 288.80314,774.41603 c -0.0567,1.00193 -0.35918,1.70138 -1.02083,2.24961 -0.34028,0.28356 -0.81288,0.41589 -1.43672,0.41589 -1.22878,0 -1.83372,-0.68055 -2.13618,-1.3611 -0.17014,-0.39699 -0.28357,-0.8507 -0.30247,-1.36111 l 0,-5.19867 c 0.0567,-1.00193 0.35918,-1.73919 1.02083,-2.30632 0.32137,-0.28356 0.79398,-0.41589 1.41782,-0.41589 1.22877,0 1.85261,0.68055 2.15508,1.3422 0.17014,0.39699 0.28357,0.83179 0.30247,1.3233 l 0,5.31209 z m -1.7959,-5.25538 c 0.0189,-0.39699 -0.0567,-0.68055 -0.24576,-0.9074 -0.0945,-0.0945 -0.24576,-0.15124 -0.41589,-0.15124 -0.35918,0 -0.51042,0.24576 -0.58604,0.52932 -0.0567,0.15123 -0.0756,0.32137 -0.0567,0.52932 l 0,5.19867 c -0.0189,0.39699 0.0756,0.68055 0.24576,0.8885 0.0945,0.0945 0.22685,0.15123 0.39699,0.15123 0.35918,0 0.52932,-0.22685 0.60493,-0.51041 0.0567,-0.15124 0.0756,-0.32137 0.0567,-0.52932 l 0,-5.19867 z"
             style="font-style:normal;font-variant:normal;font-weight:normal;font-stretch:normal;font-family:'League Gothic';-inkscape-font-specification:'League Gothic'"
             id="path3868"
             inkscape:connector-curvature="0" />
          <path
             d="m 292.04167,776.9303 -1.90932,0 0,-13.89463 1.90932,0 0,4.4236 c 0.0378,-0.0189 0.11343,-0.0945 0.22686,-0.20795 0.20794,-0.20795 0.49151,-0.49151 0.83178,-0.68055 0.17014,-0.0945 0.32138,-0.13233 0.49151,-0.13233 0.51042,0 0.8696,0.30247 1.09645,0.68055 0.22685,0.39699 0.34028,0.9074 0.34028,1.3422 l 0,8.46911 -1.90933,0 0,-8.18554 c 0,-0.39699 -0.22685,-0.45371 -0.45371,-0.45371 -0.20794,0 -0.32137,0.11343 -0.4537,0.24576 -0.0567,0.0756 -0.11342,0.15123 -0.17014,0.24575 l 0,8.14774 z"
             style="font-style:normal;font-variant:normal;font-weight:normal;font-stretch:normal;font-family:'League Gothic';-inkscape-font-specification:'League Gothic'"
             id="path3870"
             inkscape:connector-curvature="0" />
          <path
             d="m 299.3015,769.04722 c 0,-0.17013 0,-0.43479 -0.0567,-0.62384 -0.0756,-0.18904 -0.22686,-0.32137 -0.47261,-0.32137 -0.32137,0 -0.4537,0.24576 -0.51042,0.54823 -0.0189,0.15123 -0.0378,0.32137 -0.0378,0.49151 0,0.17013 0,0.34027 0,0.49151 l -1.90933,0 0,-0.4348 c 0,-0.75617 0.28356,-1.43672 0.73726,-1.94714 0.4537,-0.51041 1.09645,-0.81288 1.83371,-0.81288 0.62384,0 1.19097,0.24575 1.62577,0.66165 0.4348,0.41589 0.69946,1.00192 0.69946,1.68247 l 0,6.35183 c 0,0.92631 0.0567,1.34221 0.13233,1.79591 l -1.87152,0 c -0.17014,-0.20795 -0.17014,-0.69946 -0.17014,-0.83179 l -0.13233,0 c -0.0945,0.17014 -0.26466,0.41589 -0.52932,0.62384 -0.26466,0.20795 -0.62384,0.35918 -1.00193,0.35918 -0.24575,0 -0.64274,-0.0945 -0.94521,-0.4726 -0.32137,-0.35919 -0.58603,-1.00193 -0.58603,-2.07947 0,-1.15316 0.34028,-1.98495 0.79398,-2.55208 0.4537,-0.56712 1.02083,-0.9263 1.49343,-1.17206 0.47261,-0.24576 0.83179,-0.41589 0.90741,-0.62384 l 0,-1.13426 z m 0,2.89236 c -0.92631,0.39698 -1.3233,1.32329 -1.3233,2.30631 0,0.13233 0.0189,0.35918 0.0945,0.56713 0.0756,0.22685 0.20795,0.39699 0.4348,0.39699 0.4348,0 0.79398,-0.26466 0.79398,-0.62384 l 0,-2.64659 z"
             style="font-style:normal;font-variant:normal;font-weight:normal;font-stretch:normal;font-family:'League Gothic';-inkscape-font-specification:'League Gothic'"
             id="path3872"
             inkscape:connector-curvature="0" />
          <path
             d="m 304.33682,776.9303 -1.90933,0 0,-10.34063 1.90933,0 0,0.8696 c 0.0378,-0.0189 0.11343,-0.0945 0.22685,-0.20795 0.20795,-0.20795 0.49152,-0.49151 0.83179,-0.68055 0.17014,-0.0945 0.32137,-0.13233 0.49151,-0.13233 0.51042,0 0.8696,0.30247 1.09645,0.68055 0.22685,0.39699 0.34028,0.9074 0.34028,1.3422 l 0,8.46911 -1.90933,0 0,-8.18554 c 0,-0.39699 -0.22686,-0.45371 -0.45371,-0.45371 -0.20794,0 -0.32137,0.11343 -0.4537,0.24576 -0.0567,0.0756 -0.11342,0.15123 -0.17014,0.24575 l 0,8.14774 z"
             style="font-style:normal;font-variant:normal;font-weight:normal;font-stretch:normal;font-family:'League Gothic';-inkscape-font-specification:'League Gothic'"
             id="path3874"
             inkscape:connector-curvature="0" />
          <path
             d="m 315.11579,766.75981 c 0,-0.4537 -0.0189,-0.96412 -0.15123,-1.36111 -0.13233,-0.37808 -0.34028,-0.64274 -0.66165,-0.64274 -0.52932,0.0189 -0.69946,0.56713 -0.69946,1.38001 0,0.47261 0.20795,0.96412 0.51042,1.49344 0.30247,0.52931 0.69945,1.07754 1.09644,1.66357 0.47261,0.69946 0.94522,1.41782 1.3044,2.11728 0.35918,0.69945 0.60493,1.41781 0.60493,2.17399 0,0.9263 -0.15123,1.7959 -0.58603,2.43864 -0.4348,0.64275 -1.13425,1.05864 -2.2496,1.05864 -1.3044,0 -2.04166,-0.49151 -2.45756,-1.24768 -0.41589,-0.75617 -0.51041,-1.75809 -0.51041,-2.79783 l 2.00385,-0.18904 c 0,0.58603 0.0189,1.17206 0.17014,1.60686 0.13233,0.4537 0.35918,0.75617 0.79398,0.75617 0.60493,0 0.83178,-0.64274 0.83178,-1.53124 0,-0.45371 -0.22685,-0.98302 -0.52932,-1.53125 -0.17013,-0.26466 -0.34027,-0.54822 -0.52932,-0.83179 -0.39698,-0.56712 -0.83178,-1.20987 -1.28548,-1.90932 -0.45371,-0.69946 -0.79398,-1.41782 -1.00193,-2.15509 -0.11343,-0.35918 -0.17014,-0.73727 -0.17014,-1.11535 0,-0.75617 0.17014,-1.56905 0.60494,-2.19289 0.4348,-0.60494 1.09644,-1.03974 2.06056,-1.05864 1.22878,-0.0189 1.94714,0.49151 2.34413,1.22877 0.39699,0.75617 0.51041,1.68248 0.51041,2.45756 l -2.00385,0.18904 z"
             style="font-style:normal;font-variant:normal;font-weight:normal;font-stretch:normal;font-family:'League Gothic';-inkscape-font-specification:'League Gothic'"
             id="path3876"
             inkscape:connector-curvature="0" />
          <path
             d="m 318.30589,763.03567 1.75809,0 0,1.85262 -1.75809,0 0,-1.85262 z m 2.6655,0 1.75809,0 0,1.85262 -1.75809,0 0,-1.85262 z m 1.98494,11.38036 c -0.0567,1.00193 -0.35918,1.70138 -1.02083,2.24961 -0.34027,0.28356 -0.81288,0.41589 -1.43672,0.41589 -1.22878,0 -1.83371,-0.68055 -2.13618,-1.3611 -0.17014,-0.39699 -0.28357,-0.8507 -0.30247,-1.36111 l 0,-5.19867 c 0.0567,-1.00193 0.35918,-1.73919 1.02083,-2.30632 0.32137,-0.28356 0.79398,-0.41589 1.41782,-0.41589 1.22878,0 1.85262,0.68055 2.15508,1.3422 0.17014,0.39699 0.28357,0.83179 0.30247,1.3233 l 0,5.31209 z m -1.7959,-5.25538 c 0.0189,-0.39699 -0.0567,-0.68055 -0.24576,-0.9074 -0.0945,-0.0945 -0.24575,-0.15124 -0.41589,-0.15124 -0.35918,0 -0.51042,0.24576 -0.58603,0.52932 -0.0567,0.15123 -0.0756,0.32137 -0.0567,0.52932 l 0,5.19867 c -0.0189,0.39699 0.0756,0.68055 0.24576,0.8885 0.0945,0.0945 0.22685,0.15123 0.39699,0.15123 0.35918,0 0.52932,-0.22685 0.60493,-0.51041 0.0567,-0.15124 0.0756,-0.32137 0.0567,-0.52932 l 0,-5.19867 z"
             style="font-style:normal;font-variant:normal;font-weight:normal;font-stretch:normal;font-family:'League Gothic';-inkscape-font-specification:'League Gothic'"
             id="path3878"
             inkscape:connector-curvature="0" />
          <path
             d="m 329.10612,776.9303 -1.90933,0 0,-0.68056 c -0.32137,0.30247 -0.60494,0.52932 -0.96412,0.69946 -0.18904,0.0945 -0.37808,0.13233 -0.54822,0.13233 -0.52932,0 -0.8885,-0.30247 -1.11535,-0.69946 -0.24576,-0.37808 -0.35918,-0.8885 -0.35918,-1.32329 l 0,-6.59759 c 0,-0.4348 0.11342,-0.94521 0.35918,-1.3422 0.22685,-0.37808 0.58603,-0.68055 1.11535,-0.68055 0.35918,0 0.73727,0.20794 1.02083,0.41589 0.17014,0.13233 0.32137,0.26466 0.49151,0.41589 l 0,-4.23455 1.90933,0 0,13.89463 z m -1.90933,-8.07212 c 0,-0.30247 -0.28356,-0.62384 -0.56713,-0.62384 -0.28356,0 -0.51041,0.26466 -0.51041,0.62384 l 0,5.80361 c 0,0.35918 0.22685,0.62384 0.51041,0.62384 0.28357,0 0.56713,-0.26466 0.56713,-0.62384 l 0,-5.80361 z"
             style="font-style:normal;font-variant:normal;font-weight:normal;font-stretch:normal;font-family:'League Gothic';-inkscape-font-specification:'League Gothic'"
             id="path3880"
             inkscape:connector-curvature="0" />
          <path
             d="m 335.41896,773.22506 0,1.19097 c -0.0567,1.00193 -0.35918,1.70138 -1.03974,2.24961 -0.34027,0.28356 -0.81288,0.41589 -1.43672,0.41589 -1.22877,0 -1.85262,-0.68055 -2.15508,-1.3611 -0.17014,-0.39699 -0.28357,-0.8507 -0.30247,-1.36111 l 0,-5.19867 c 0.0567,-1.00193 0.37808,-1.73919 1.05864,-2.30632 0.32137,-0.28356 0.79398,-0.41589 1.41782,-0.41589 1.22877,0 1.85261,0.68055 2.15508,1.3422 0.17014,0.39699 0.28356,0.83179 0.30247,1.3233 l 0,3.00577 -3.15701,0 0,2.24961 c 0.0189,0.39699 0.13233,0.68055 0.30247,0.8885 0.0945,0.0945 0.22685,0.15123 0.39699,0.15123 0.35918,0 0.52931,-0.22685 0.60493,-0.51041 0.0567,-0.15124 0.0756,-0.32137 0.0756,-0.52932 l 0,-1.13426 1.777,0 z m -3.15701,-2.60878 1.38001,0 0,-1.45563 c 0,-0.39699 -0.0756,-0.68055 -0.26466,-0.9074 -0.0945,-0.0945 -0.24576,-0.15124 -0.41589,-0.15124 -0.35919,0 -0.51042,0.24576 -0.60494,0.52932 -0.0567,0.15123 -0.0756,0.32137 -0.0945,0.52932 l 0,1.45563 z"
             style="font-style:normal;font-variant:normal;font-weight:normal;font-stretch:normal;font-family:'League Gothic';-inkscape-font-specification:'League Gothic'"
             id="path3882"
             inkscape:connector-curvature="0" />
          <path
             d="m 340.51011,768.55571 c -0.17014,-0.0567 -0.35918,-0.0756 -0.52932,-0.0756 -0.30246,0 -0.66165,0.0378 -0.96411,0.32137 -0.35918,0.30247 -0.4159,0.62384 -0.4159,0.94521 l 0,7.18362 -1.90933,0 0,-10.34063 1.90933,0 0,1.15316 c 0.0189,-0.13233 0.15124,-0.4537 0.45371,-0.75617 0.30246,-0.28356 0.75617,-0.54822 1.45562,-0.54822 l 0,2.11727 z"
             style="font-style:normal;font-variant:normal;font-weight:normal;font-stretch:normal;font-family:'League Gothic';-inkscape-font-specification:'League Gothic'"
             id="path3884"
             inkscape:connector-curvature="0" />
          <path
             d="m 341.34367,763.03567 1.90933,0 0,4.23455 c 0.32137,-0.30246 0.60494,-0.52931 0.98302,-0.69945 0.17014,-0.0945 0.35918,-0.13233 0.52932,-0.13233 0.52932,0 0.8885,0.30247 1.13426,0.68055 0.22685,0.39699 0.34027,0.9074 0.34027,1.3422 l 0,6.59759 c 0,0.43479 -0.11342,0.94521 -0.34027,1.32329 -0.24576,0.39699 -0.60494,0.69946 -1.13426,0.69946 -0.35918,0 -0.73726,-0.20794 -1.02083,-0.41589 -0.17014,-0.13233 -0.32137,-0.26466 -0.49151,-0.4159 l 0,0.68056 -1.90933,0 0,-13.89463 z m 1.90933,11.62612 c 0,0.35918 0.28356,0.62384 0.56713,0.62384 0.28356,0 0.51041,-0.26466 0.51041,-0.62384 l 0,-5.80361 c 0,-0.35918 -0.22685,-0.62384 -0.51041,-0.62384 -0.28357,0 -0.56713,0.32137 -0.56713,0.62384 l 0,5.80361 z"
             style="font-style:normal;font-variant:normal;font-weight:normal;font-stretch:normal;font-family:'League Gothic';-inkscape-font-specification:'League Gothic'"
             id="path3886"
             inkscape:connector-curvature="0" />
          <path
             d="m 352.47709,773.22506 0,1.19097 c -0.0567,1.00193 -0.35918,1.70138 -1.03973,2.24961 -0.34028,0.28356 -0.81288,0.41589 -1.43672,0.41589 -1.22878,0 -1.85262,-0.68055 -2.15509,-1.3611 -0.17014,-0.39699 -0.28356,-0.8507 -0.30247,-1.36111 l 0,-5.19867 c 0.0567,-1.00193 0.37809,-1.73919 1.05864,-2.30632 0.32138,-0.28356 0.79398,-0.41589 1.41782,-0.41589 1.22878,0 1.85262,0.68055 2.15509,1.3422 0.17013,0.39699 0.28356,0.83179 0.30246,1.3233 l 0,3.00577 -3.15701,0 0,2.24961 c 0.0189,0.39699 0.13233,0.68055 0.30247,0.8885 0.0945,0.0945 0.22685,0.15123 0.39699,0.15123 0.35918,0 0.52932,-0.22685 0.60494,-0.51041 0.0567,-0.15124 0.0756,-0.32137 0.0756,-0.52932 l 0,-1.13426 1.777,0 z m -3.15701,-2.60878 1.38001,0 0,-1.45563 c 0,-0.39699 -0.0756,-0.68055 -0.26465,-0.9074 -0.0945,-0.0945 -0.24576,-0.15124 -0.4159,-0.15124 -0.35918,0 -0.51041,0.24576 -0.60493,0.52932 -0.0567,0.15123 -0.0756,0.32137 -0.0945,0.52932 l 0,1.45563 z"
             style="font-style:normal;font-variant:normal;font-weight:normal;font-stretch:normal;font-family:'League Gothic';-inkscape-font-specification:'League Gothic'"
             id="path3888"
             inkscape:connector-curvature="0" />
          <path
             d="m 357.56825,768.55571 c -0.17014,-0.0567 -0.35919,-0.0756 -0.52932,-0.0756 -0.30247,0 -0.66165,0.0378 -0.96412,0.32137 -0.35918,0.30247 -0.41589,0.62384 -0.41589,0.94521 l 0,7.18362 -1.90933,0 0,-10.34063 1.90933,0 0,1.15316 c 0.0189,-0.13233 0.15123,-0.4537 0.4537,-0.75617 0.30247,-0.28356 0.75617,-0.54822 1.45563,-0.54822 l 0,2.11727 z"
             style="font-style:normal;font-variant:normal;font-weight:normal;font-stretch:normal;font-family:'League Gothic';-inkscape-font-specification:'League Gothic'"
             id="path3890"
             inkscape:connector-curvature="0" />
          <path
             d="m 363.07116,771.93958 c -0.0567,0.96411 -0.39699,1.64467 -1.05864,2.15508 -0.34028,0.26466 -0.81288,0.39699 -1.39891,0.39699 -0.0567,0 -0.11343,0 -0.17014,0 -0.0567,0 -0.13233,0 -0.18905,-0.0189 -0.17013,0.15124 -0.26466,0.30247 -0.26466,0.47261 0,0.22685 0.18905,0.35918 0.47261,0.4348 0.28357,0.0945 0.62384,0.15123 0.98302,0.20795 0.60494,0.0756 1.24768,0.22685 1.777,0.58603 0.51042,0.35918 0.8696,0.9074 0.8696,1.81481 0,1.00192 -0.4348,1.68247 -1.03974,2.07946 -0.62384,0.39699 -1.45562,0.56713 -2.2307,0.56713 -0.9074,-0.0189 -1.68248,-0.15123 -2.2118,-0.4537 -0.54822,-0.30247 -0.85069,-0.79398 -0.85069,-1.55015 0,-0.35918 0.18905,-0.66165 0.47261,-0.92631 0.28356,-0.26466 0.66165,-0.4726 1.02083,-0.64274 -0.62384,-0.17014 -1.15316,-0.56713 -1.15316,-1.38001 0,-0.30247 0.17014,-0.60494 0.39699,-0.8885 0.22685,-0.28357 0.51041,-0.51042 0.79398,-0.66165 -0.54823,-0.35918 -0.81289,-0.92631 -0.94522,-1.39892 -0.0756,-0.28356 -0.13232,-0.56712 -0.15123,-0.85069 l 0,-2.81673 c 0.0756,-0.96412 0.37809,-1.66358 1.03973,-2.2118 0.32138,-0.28356 0.79398,-0.41589 1.38002,-0.41589 0.96411,0 1.55014,0.4348 1.90932,0.94521 0.13233,-0.13233 0.35919,-0.35918 0.66165,-0.56713 0.28357,-0.20794 0.60494,-0.37808 0.90741,-0.37808 l 0,1.70138 c -0.51042,0 -0.8885,0.0945 -1.11535,0.22685 0.0189,0.0945 0.0378,0.18904 0.0567,0.24576 0,0.0756 0,0.15123 0.0189,0.20794 0.0189,0.0567 0.0189,0.13233 0.0189,0.18905 l 0,2.93016 z m -1.87152,-2.79783 c 0,-0.35919 -0.0756,-0.58604 -0.22685,-0.79398 -0.0756,-0.0945 -0.18905,-0.15124 -0.35918,-0.15124 -0.30247,0 -0.45371,0.24576 -0.51042,0.47261 -0.0378,0.13233 -0.0567,0.30247 -0.0378,0.47261 l 0,2.83563 c -0.0189,0.35918 0.0378,0.58604 0.20795,0.77508 0.0756,0.0945 0.18904,0.15123 0.34028,0.15123 0.32137,0 0.4537,-0.22685 0.52931,-0.4537 0.0378,-0.13233 0.0567,-0.30247 0.0567,-0.47261 l 0,-2.83563 z m -0.8885,8.26115 c -0.39699,0.22686 -0.69946,0.51042 -0.69946,0.90741 0,0.39699 0.35918,0.71836 1.24768,0.71836 0.32137,0 0.68055,-0.0567 0.96412,-0.17014 0.28356,-0.11342 0.49151,-0.28356 0.49151,-0.52932 0,-0.17014 -0.0189,-0.30247 -0.15124,-0.4348 -0.15123,-0.13233 -0.39699,-0.22685 -0.86959,-0.30246 l -0.98302,-0.18905 z"
             style="font-style:normal;font-variant:normal;font-weight:normal;font-stretch:normal;font-family:'League Gothic';-inkscape-font-specification:'League Gothic'"
             id="path3892"
             inkscape:connector-curvature="0" />
        </g>
      </g>
    </g>
    <g
       id="g3234"
       transform="matrix(1.4188819,0,0,1.4188819,86.174224,-431.10105)" />
  </g>
</svg>
