<?xml version="1.0" encoding="UTF-8" standalone="no"?>
<!-- Created with Inkscape (http://www.inkscape.org/) -->

<svg
   xmlns:dc="http://purl.org/dc/elements/1.1/"
   xmlns:cc="http://creativecommons.org/ns#"
   xmlns:rdf="http://www.w3.org/1999/02/22-rdf-syntax-ns#"
   xmlns:svg="http://www.w3.org/2000/svg"
   xmlns="http://www.w3.org/2000/svg"
   xmlns:sodipodi="http://sodipodi.sourceforge.net/DTD/sodipodi-0.dtd"
   xmlns:inkscape="http://www.inkscape.org/namespaces/inkscape"
   width="105mm"
   height="148mm"
   id="svg2"
   version="1.1"
   inkscape:version="0.92.2 5c3e80d, 2017-08-06"
   sodipodi:docname="sobre_los_autos_voladores_y_la_tasa_decreciente_de_ganancia.svg"
   inkscape:export-filename="/home/fauno/autos_voladores.png"
   inkscape:export-xdpi="108.86"
   inkscape:export-ydpi="108.86">
  <defs
     id="defs4" />
  <sodipodi:namedview
     id="base"
     pagecolor="#ffffff"
     bordercolor="#666666"
     borderopacity="1.0"
     inkscape:pageopacity="0.0"
     inkscape:pageshadow="2"
     inkscape:zoom="0.74725609"
     inkscape:cx="109.00028"
     inkscape:cy="255.66673"
     inkscape:document-units="mm"
     inkscape:current-layer="layer1"
     showgrid="false"
     showguides="false"
     inkscape:guide-bbox="true"
     units="mm"
     inkscape:window-width="1280"
     inkscape:window-height="738"
     inkscape:window-x="0"
     inkscape:window-y="62"
     inkscape:window-maximized="0">
    <sodipodi:guide
       orientation="1,0"
       position="396.85039,0"
       id="guide3168"
       inkscape:locked="false" />
    <sodipodi:guide
       position="755.90551,0"
       orientation="1,0"
       id="guide1708"
       inkscape:locked="false"
       inkscape:label=""
       inkscape:color="rgb(0,0,255)" />
    <sodipodi:guide
       position="434.64567,0"
       orientation="1,0"
       id="guide1710"
       inkscape:locked="false"
       inkscape:label=""
       inkscape:color="rgb(0,0,255)" />
    <sodipodi:guide
       position="359.05512,34.015748"
       orientation="1,0"
       id="guide1734"
       inkscape:locked="false"
       inkscape:label=""
       inkscape:color="rgb(0,0,255)" />
    <sodipodi:guide
       position="37.795276,0"
       orientation="1,0"
       id="guide1736"
       inkscape:locked="false"
       inkscape:label=""
       inkscape:color="rgb(0,0,255)" />
    <sodipodi:guide
       position="0,37.795276"
       orientation="0,1"
       id="guide1757"
       inkscape:locked="false"
       inkscape:label=""
       inkscape:color="rgb(0,0,255)" />
  </sodipodi:namedview>
  <metadata
     id="metadata7">
    <rdf:RDF>
      <cc:Work
         rdf:about="">
        <dc:format>image/svg+xml</dc:format>
        <dc:type
           rdf:resource="http://purl.org/dc/dcmitype/StillImage" />
        <dc:title></dc:title>
      </cc:Work>
    </rdf:RDF>
  </metadata>
  <g
     inkscape:label="Capa 1"
     inkscape:groupmode="layer"
     id="layer1"
     transform="translate(0,-563.14955)">
    <g
       id="g3847"
       transform="matrix(0.10929874,0,0,0.10976979,404.29296,1009.0848)"
       inkscape:export-filename="/srv/http/kiwwwi.com.ar/pastes/utopia-pirata-2.png"
       inkscape:export-xdpi="149"
       inkscape:export-ydpi="149" />
    <rect
       y="563.1496"
       x="0"
       height="559.37006"
       width="396.8504"
       id="rect3033"
       style="fill:#aad400;fill-opacity:1;stroke-width:0.751746" />
    <g
       id="g4077"
       transform="matrix(0.22827806,0,0,0.2292619,212.99776,883.19957)">
      <g
         inkscape:export-ydpi="149"
         inkscape:export-xdpi="149"
         inkscape:export-filename="/srv/http/kiwwwi.com.ar/pastes/utopia-pirata-2.png"
         id="g3851"
         transform="matrix(0.67937345,0,0,0.67937345,-37.562902,221.42301)"
         style="stroke:none">
        <path
           d="m 971.56397,650.69769 c -16,22.4 -33.3504,41.38026 -52.26667,64 l -25.6,28.8 c -21.33333,20.26666 -74.66667,59.73333 -99.2,75.73333 -13.86667,9.6 -28.8,17.06667 -43.73333,23.46667 l -19.47734,9.42933 c 3.2,3.2 9.152,4.9504 14.5376,7.46667 3.2,0 14.53974,-6.22934 17.73974,-8.36267 l 34.13333,-19.2 c 6.4,-4.26667 12.8,-9.6 20.26667,-10.66667 -3.2,7.46667 -10.66667,11.73334 -18.13334,16 l -20.26666,11.73334 c 0,0 -21.28107,12.128 -24.192,14.144 5.8336,2.304 14.592,4.9504 20.14826,7.18933 5.33334,0 12.57707,-5.33333 16.84374,-7.46667 11.73333,-6.4 26.66666,-16 38.4,-24.53333 l 19.2,-12.8 c 14.93333,-11.73333 29.86666,-24.53333 43.73333,-38.4 10.66667,-9.6 21.33333,-19.2 29.86667,-30.93333 11.73333,-13.86667 19.2,-29.86667 27.73333,-45.86667 9.6,-14.93333 12.8,-24.53333 18.13333,-40.53333 1.06667,-5.33334 4.26667,-13.86667 2.13334,-19.2 z"
           id="path719"
           inkscape:connector-curvature="0"
           style="fill:#ffffff;stroke:none;stroke-width:1.06666672" />
        <path
           d="m 481.96397,645.36435 c -3.2,11.73334 1.06666,25.6 5.33333,36.26667 9.6,25.6 25.6,48 41.6,69.33333 9.6,13.86667 25.6,30.93334 37.33333,42.66667 l 12.8,10.66667 27.73334,24.53333 c 22.4,17.06667 64,42.66667 89.6,54.4 l 34.13333,14.93333 13.86667,5.33334 c 16,6.4 32,10.66666 49.06666,13.86666 9.6,2.13334 20.26667,5.33334 29.86667,5.33334 -3.2,-11.73334 -9.6,-10.66667 -19.2,-13.86667 l -35.2,-13.86667 c -49.06667,-20.26666 -103.46667,-40.53333 -141.86667,-78.93333 7.46667,0 12.8,6.4 18.13334,10.66667 7.46666,5.33333 17.06666,11.73333 25.6,17.06666 23.46666,13.86667 76.8,38.4 103.46666,48 10.66667,4.26667 28.8,11.73334 39.46667,11.73334 8.53333,1.06666 20.26667,-4.26667 26.66667,-8.53334 -4.26667,-4.26666 -8.53334,-3.2 -14.93334,-4.26666 l -33.06666,-9.6 c -28.8,-7.46667 -56.53334,-18.13334 -83.2,-32 l -14.93334,-6.4 -20.26666,-12.8 -24.53334,-16 -25.6,-20.26667 -43.73333,-34.13333 -40.53333,-41.6 -20.26667,-23.46667 -21.33333,-23.46667 z"
           id="path725"
           inkscape:connector-curvature="0"
           style="fill:#ffffff;stroke:none;stroke-width:1.06666672" />
        <path
           d="m 824.36397,908.83102 c 2.13333,4.26667 6.4,10.66667 6.4,16 0,11.73333 -13.86667,22.4 -24.53334,21.33333 -4.26666,-1.06666 -13.86666,-6.4 -17.06666,0 -1.06667,2.13334 -1.06667,4.26667 0,5.33334 0,4.26666 5.33333,6.4 9.6,8.53333 11.73333,3.2 24.53333,-1.06667 34.13333,-7.46667 7.46667,-4.26666 12.8,-11.73333 14.93333,-20.26666 l 2.13334,-13.86667 c 1.06666,-4.26667 5.33333,-5.33333 10.66666,-12.8 6.4,-8.53333 12.8,-23.46667 21.33334,-29.86667 3.2,-2.13333 6.4,-3.2 10.66666,-4.26666 -2.13333,-3.2 -4.26666,-5.33334 -6.4,-8.53334 -2.13333,-1.06666 -4.26666,-3.2 -6.4,-3.2 -3.2,-1.06666 -7.46666,-1.06666 -10.66666,1.06667 -14.93334,7.46667 -11.73334,21.33333 -20.26667,32 -6.4,8.53333 -13.86667,12.8 -24.53333,16 z"
           id="path731"
           inkscape:connector-curvature="0"
           style="fill:#ffffff;stroke:none;stroke-width:1.06666672" />
        <path
           d="m 858.4973,922.69769 c 7.46667,3.2 13.86667,2.13333 21.33333,2.13333 l 16,1.06667 c 7.46667,0 9.6,-4.26667 12.8,-10.66667 1.06667,-2.13333 2.13334,-6.4 0,-8.53333 -2.13333,-2.13334 -6.4,-2.13334 -9.6,-2.13334 l -18.13333,1.06667 c -3.2,0 -8.53333,0 -11.73333,1.06667 -5.33334,3.2 -9.6,10.66666 -10.66667,16 z"
           id="path737"
           inkscape:connector-curvature="0"
           style="fill:#ffffff;stroke:none;stroke-width:1.06666672" />
        <path
           d="m 916.0973,937.63102 c -5.33333,-2.13333 -8.53333,-4.26667 -11.73333,-8.53333 -1.06667,1.06666 -2.13334,1.06666 -3.2,2.13333 -1.06667,5.33333 12.8,18.13333 14.93333,6.4 z"
           id="path743"
           inkscape:connector-curvature="0"
           style="fill:#ffffff;stroke:none;stroke-width:1.06666672" />
        <path
           d="m 908.63063,901.36435 8.53334,5.33334 c -2.13334,4.26666 -7.46667,12.8 -6.4,18.13333 1.06666,10.66667 16,10.66667 22.4,4.26667 7.46666,-8.53334 7.46666,-21.33334 -3.2,-27.73334 -6.4,-3.2 -13.86667,-2.13333 -21.33334,0 z"
           id="path744"
           inkscape:connector-curvature="0"
           style="fill:#ffffff;stroke:none;stroke-width:1.06666672" />
        <path
           d="m 525.6973,931.23102 1.06667,1.06667 c 8.53333,-2.13334 13.86666,-5.33334 14.93333,-13.86667 -6.4,1.06667 -12.8,7.46667 -16,12.8 z"
           id="selection_x5F_to_x5F_path_x23_5"
           inkscape:connector-curvature="0"
           style="fill:#ffffff;stroke:none;stroke-width:1.06666672" />
        <path
           d="m 533.16397,891.76435 c -3.2,-2.13333 -6.4,-3.2 -10.66667,-3.2 -3.2,0 -6.4,0 -9.6,1.06667 -10.66667,4.26667 -11.73333,21.33333 -3.2,28.8 4.26667,4.26667 14.93333,6.4 19.2,1.06667 4.26667,-4.26667 3.2,-9.6 1.06667,-14.93334 -1.06667,-3.2 -3.2,-7.46666 -1.06667,-9.6 1.06667,-2.13333 3.2,-2.13333 4.26667,-3.2 z"
           id="selection_x5F_to_x5F_path_x23_4"
           inkscape:connector-curvature="0"
           style="fill:#ffffff;stroke:none;stroke-width:1.06666672" />
        <path
           d="m 532.0973,896.03102 c 1.06667,3.2 6.4,16 8.53333,18.13333 3.2,2.13334 6.4,2.13334 9.6,2.13334 l 19.2,-1.06667 h 13.86667 c 0,-3.2 0,-6.4 -1.06667,-8.53333 -3.2,-8.53334 -14.93333,-12.8 -23.46666,-12.8 l -9.6,1.06666 c -6.4,0 -11.73334,-1.06666 -17.06667,1.06667 z"
           id="selection_x5F_to_x5F_path_x23_3"
           inkscape:connector-curvature="0"
           style="fill:#ffffff;stroke:none;stroke-width:1.06666672" />
        <path
           d="m 552.36397,861.89769 c 20.26666,5.33333 20.26666,22.4 28.8,34.13333 3.2,4.26667 11.73333,10.66667 12.8,14.93333 1.06666,3.2 0,4.26667 1.06666,11.73334 2.13334,9.6 8.53334,19.2 17.06667,24.53333 9.6,6.4 18.13333,10.66667 29.86667,7.46667 6.4,-2.13334 12.8,-6.4 9.6,-13.86667 -3.2,-7.46667 -14.93334,0 -22.4,-2.13333 -7.46667,-3.2 -16,-13.86667 -16,-22.4 l 4.26666,-14.93334 c -11.73333,-4.26666 -25.6,-13.86666 -30.93333,-25.6 -3.2,-7.46666 -3.2,-18.13333 -8.53333,-23.46666 -9.6,-7.46667 -22.4,-1.06667 -25.6,9.6 z"
           id="selection_x5F_to_x5F_path_x23_2"
           inkscape:connector-curvature="0"
           style="fill:#ffffff;stroke:none;stroke-width:1.06666672" />
        <path
           d="m 603.56397,886.43102 c 3.2,4.26667 5.33333,5.33333 9.6,7.46667 14.93333,8.53333 24.53333,2.13333 39.46666,-1.06667 l 30.93334,-9.6 c -4.096,-2.752 -13.248,-8.48 -17.06667,-10.66667 l -20.26667,5.33334 z"
           id="path758"
           inkscape:connector-curvature="0"
           style="fill:#ffffff;stroke:none;stroke-width:1.06666672" />
        <path
           d="m 618.4973,917.36435 c 27.73333,0 53.33333,-8.53333 80,-14.93333 0,0 11.73333,-5.55307 15.6544,-5.55307 -3.70133,-2.6976 -18.7968,-8.1472 -21.1584,-10.27626 -3.2,0.94933 -15.82933,5.16266 -20.096,6.22933 l -26.66667,7.46667 -12.8,3.2 c -7.46666,3.2 -12.8,4.26666 -14.93333,13.86666 z"
           id="path759"
           inkscape:connector-curvature="0"
           style="fill:#ffffff;stroke:none;stroke-width:1.06666672" />
      </g>
      <ellipse
         style="fill:none;stroke:#ffffff;stroke-width:14.49330044"
         cx="456.04547"
         cy="607.1944"
         id="circle3807"
         rx="78.100777"
         ry="78.100769" />
      <path
         style="fill:#ffffff;stroke-width:0.72466505"
         inkscape:connector-curvature="0"
         d="m 455.40743,558.38168 c -23.13058,0 -42.51102,16.11002 -47.53657,37.71881 h 23.32479 c 4.20886,-9.16556 13.47152,-15.53102 24.21178,-15.53102 14.69766,0 26.62565,11.92798 26.62565,26.62492 0,14.69693 -11.92799,26.62564 -26.62565,26.62564 -10.74026,0 -20.00365,-6.36618 -24.21178,-15.53175 h -23.32479 c 5.02555,21.60879 24.40599,37.71882 47.53657,37.71882 26.94522,0 48.81272,-21.86822 48.81272,-48.81271 0,-26.9445 -21.86822,-48.81271 -48.81272,-48.81271 z"
         id="path3809" />
      <g
         inkscape:export-ydpi="149"
         inkscape:export-xdpi="149"
         inkscape:export-filename="/srv/http/kiwwwi.com.ar/pastes/utopia-pirata-2.png"
         id="text3059"
         style="font-style:normal;font-weight:normal;font-size:121.8484726px;line-height:125%;font-family:'Bitstream Vera Sans';letter-spacing:0px;word-spacing:0px;fill:#ffffff;fill-opacity:1;stroke:none"
         transform="matrix(-0.72702905,0.19480685,-0.19480685,-0.72702905,-652.49299,-465.46667)">
        <g
           transform="rotate(-4.3843726,-1069.5699,-1786.0102)"
           id="g3922">
          <circle
             transform="rotate(-165)"
             id="path3865"
             style="fill:none;stroke:none;stroke-width:0.96278501"
             inkscape:export-filename="/srv/http/kiwwwi.com.ar/pastes/utopia-pirata-1.png"
             inkscape:export-xdpi="149"
             inkscape:export-ydpi="149"
             cx="1474.0784"
             cy="1363.7991"
             r="122.54252" />
          <path
             d="m -829.91875,-1701.2786 -74.75696,-13.1429 c -3.81775,-0.8031 -7.13896,-2.1788 -9.8356,-4.1046 -2.35762,-1.6021 -4.47472,-3.8218 -5.94474,-6.7196 -1.59804,-2.9202 -2.14249,-6.579 -1.33231,-11.1873 0.81017,-4.6083 2.59239,-7.99 5.09062,-10.19 2.37023,-2.2227 5.09496,-3.4592 7.85767,-4.1612 3.19174,-0.8905 6.783,-1.0509 10.64577,-0.5038 l 74.75696,13.1429 -2.43053,13.8249 -74.75696,-13.1428 c -2.68818,-0.4727 -4.59282,-0.1477 -6.22596,0.8849 -0.75257,0.5275 -1.29414,1.356 -1.49668,2.5081 -0.42759,2.4321 0.90597,3.8543 2.73608,4.7039 0.82854,0.5416 1.95811,0.8721 3.36621,1.1197 l 74.75696,13.1428 -2.43053,13.825"
             style="font-style:normal;font-variant:normal;font-weight:normal;font-stretch:normal;font-family:'League Gothic';-inkscape-font-specification:'League Gothic';fill:#ffffff;stroke-width:1.06666672"
             id="path3897"
             inkscape:connector-curvature="0" />
          <path
             d="m -854.50233,-1673.4894 12.64866,6.9388 -19.50341,35.5529 -12.64866,-6.9387 6.37612,-11.6231 -71.10596,-39.0068 6.75117,-12.3068 71.10597,39.0069 6.37611,-11.6232"
             style="font-style:normal;font-variant:normal;font-weight:normal;font-stretch:normal;font-family:'League Gothic';-inkscape-font-specification:'League Gothic';fill:#ffffff;stroke-width:1.06666672"
             id="path3899"
             inkscape:connector-curvature="0" />
          <path
             d="m -962.3753,-1633.3619 c -2.56068,-2.9434 -4.38,-6.0439 -5.36938,-9.2063 -0.91414,-2.7 -1.26394,-5.7474 -0.68867,-8.9454 0.48674,-3.2931 2.2593,-6.5398 5.68504,-9.7268 3.42575,-3.1871 6.88699,-4.8094 10.20662,-5.0574 3.23113,-0.3433 6.15024,0.3139 8.77725,1.4204 3.0829,1.2149 6.04414,3.253 8.79515,6.0193 l 38.33278,41.2041 c 2.47216,2.8481 4.29148,5.9486 5.28087,9.1112 0.91413,2.6999 1.44762,5.754 0.87235,8.9519 -0.57527,3.1979 -2.35446,6.6283 -5.78021,9.8154 -3.42574,3.187 -6.88034,4.6256 -10.11145,4.9689 -3.23113,0.3431 -6.33394,-0.3207 -8.96093,-1.4271 -3.08291,-1.2148 -6.04414,-3.253 -8.70663,-5.9242 l -38.33279,-41.204 m 48.61004,31.643 c 1.77057,1.9032 3.39061,2.8814 5.40455,3.138 0.91844,0.033 1.9453,-0.3897 2.80173,-1.1864 1.80804,-1.682 1.42508,-3.811 0.65485,-5.4022 -0.42275,-1.0269 -1.12434,-1.9718 -2.00963,-2.9234 l -38.33278,-41.2042 c -1.8591,-1.9984 -3.5743,-2.888 -5.4997,-3.0494 -0.91844,-0.033 -1.85014,0.3011 -2.70658,1.0979 -1.80803,1.682 -1.60213,3.6207 -0.65485,5.4021 0.33422,0.9317 1.03582,1.8767 2.00962,2.9235 l 38.33279,41.2041"
             style="font-style:normal;font-variant:normal;font-weight:normal;font-stretch:normal;font-family:'League Gothic';-inkscape-font-specification:'League Gothic';fill:#ffffff;stroke-width:1.06666672"
             id="path3901"
             inkscape:connector-curvature="0" />
          <path
             d="m -945.70662,-1554.999 -12.86216,5.6215 c -5.59741,2.4463 -11.81944,3.4636 -17.87654,1.2882 -6.0571,-2.1753 -11.8302,-7.5954 -16.20245,-17.5993 -4.37224,-10.0039 -4.37677,-17.8032 -1.85911,-23.7263 2.51765,-5.923 7.38638,-10.0367 12.98379,-12.4831 l -15.30288,-35.0136 12.86214,-5.6215 38.25721,87.5341 m -30.09091,-33.7987 c -3.9301,1.7177 -6.11877,3.5254 -6.66304,6.1746 -0.59632,2.5301 0.45177,5.9017 2.58585,10.7846 2.13407,4.8829 4.00082,8.1805 6.36686,9.6995 2.36604,1.5192 5.28342,1.3788 9.21351,-0.3389 l -11.50318,-26.3198"
             style="font-style:normal;font-variant:normal;font-weight:normal;font-stretch:normal;font-family:'League Gothic';-inkscape-font-specification:'League Gothic';fill:#ffffff;stroke-width:1.06666672"
             id="path3903"
             inkscape:connector-curvature="0" />
          <path
             d="m -1012.2607,-1532.3783 -13.8739,2.1334 -14.5198,-94.4193 13.8739,-2.1335 14.5198,94.4194"
             style="font-style:normal;font-variant:normal;font-weight:normal;font-stretch:normal;font-family:'League Gothic';-inkscape-font-specification:'League Gothic';fill:#ffffff;stroke-width:1.06666672"
             id="path3905"
             inkscape:connector-curvature="0" />
          <path
             d="m -1047.2054,-1622.4237 -25.1958,93.2691 -17.045,-1.9508 -3.4708,-96.5501 13.5585,1.5518 0.3658,19.665 13.4294,1.5369 4.7994,-19.0737 13.5585,1.5518 m -30.9609,61.3433 0.1067,2.4978 0.7748,0.089 0.6682,-2.409 7.4316,-29.4998 -9.5555,-1.0936 0.5743,30.416"
             style="font-style:normal;font-variant:normal;font-weight:normal;font-stretch:normal;font-family:'League Gothic';-inkscape-font-specification:'League Gothic';fill:#ffffff;stroke-width:1.06666672"
             id="path3907"
             inkscape:connector-curvature="0" />
          <path
             d="m -1172.391,-1560.1378 -11.5072,-8.0386 c -5.0078,-3.4984 -9.1224,-8.2752 -10.4275,-14.5774 -1.305,-6.3022 0.306,-14.0553 6.5582,-23.0053 6.2523,-8.95 12.9032,-13.0238 19.2697,-13.967 6.3664,-0.943 12.4162,1.0636 17.424,4.5618 l 21.8829,-31.3252 11.5073,8.0386 -54.7074,78.3131 m 13.1297,-43.3061 c -3.5161,-2.4563 -6.2002,-3.3801 -8.7441,-2.4619 -2.4696,0.8116 -4.7989,3.4651 -7.8506,7.8336 -3.0516,4.3684 -4.8906,7.6817 -4.9518,10.4927 -0.061,2.8111 1.5809,5.2265 5.097,7.6828 l 16.4495,-23.5472"
             style="font-style:normal;font-variant:normal;font-weight:normal;font-stretch:normal;font-family:'League Gothic';-inkscape-font-specification:'League Gothic';fill:#ffffff;stroke-width:1.06666672"
             id="path3909"
             inkscape:connector-curvature="0" />
          <path
             d="m -1226.274,-1604.9011 -9.0875,-10.6983 72.8077,-61.8454 9.0876,10.6982 -72.8078,61.8455"
             style="font-style:normal;font-variant:normal;font-weight:normal;font-stretch:normal;font-family:'League Gothic';-inkscape-font-specification:'League Gothic';fill:#ffffff;stroke-width:1.06666672"
             id="path3911"
             inkscape:connector-curvature="0" />
          <path
             d="m -1180.1822,-1708.1007 -33.3171,23.7976 1.6106,3.4077 36.4274,-17.2172 5.9982,12.6908 -86.368,40.8215 -5.9983,-12.6909 c -7.1646,-15.1584 -1.6412,-25.6757 14.6923,-33.3957 8.5781,-4.0543 17.3888,-5.4873 22.9562,-2.2246 l 38.0004,-27.8801 5.9983,12.6909 m -43.4573,32.7593 c -0.833,-1.7627 -2.1788,-4.0017 -4.7126,-5.1043 -2.5338,-1.1026 -6.4285,-1.1306 -12.5388,1.7575 -6.1104,2.888 -8.6786,5.9707 -9.4351,8.6284 -0.7565,2.6577 0.2368,5.0633 1.0699,6.826 l 25.6166,-12.1076"
             style="font-style:normal;font-variant:normal;font-weight:normal;font-stretch:normal;font-family:'League Gothic';-inkscape-font-specification:'League Gothic';fill:#ffffff;stroke-width:1.06666672"
             id="path3913"
             inkscape:connector-curvature="0" />
          <path
             d="m -1187.4367,-1724.9408 -96.4885,-4.8921 -1.6997,-17.0718 93.6301,-23.8198 1.352,13.5799 -19.1424,4.518 1.3391,13.4506 19.6574,0.6553 1.352,13.5799 m -66.5052,-17.2814 -2.4186,0.6327 0.077,0.776 2.496,0.1433 30.4042,1.0221 -0.9528,-9.5706 -29.606,6.9965"
             style="font-style:normal;font-variant:normal;font-weight:normal;font-stretch:normal;font-family:'League Gothic';-inkscape-font-specification:'League Gothic';fill:#ffffff;stroke-width:1.06666672"
             id="path3915"
             inkscape:connector-curvature="0" />
          <path
             d="m -1270.5543,-1786.479 -14.1138,-2.9896 8.4031,-39.6709 14.1137,2.9895 -2.747,12.9694 79.3418,16.8062 -2.9088,13.7323 -79.3418,-16.8062 -2.7472,12.9693"
             style="font-style:normal;font-variant:normal;font-weight:normal;font-stretch:normal;font-family:'League Gothic';-inkscape-font-specification:'League Gothic';fill:#ffffff;stroke-width:1.06666672"
             id="path3917"
             inkscape:connector-curvature="0" />
          <path
             d="m -1183.2813,-1808.6761 -75.1338,-60.736 8.6721,-14.803 89.7188,35.8398 -6.8984,11.7753 -18.1355,-7.6118 -6.8327,11.663 15.5078,12.0976 -6.8983,11.7751 m -43.601,-53.1085 -2.3278,-0.9119 -0.3943,0.6729 1.9337,1.5847 23.9809,18.7184 4.8616,-8.2987 -28.0541,-11.7654"
             style="font-style:normal;font-variant:normal;font-weight:normal;font-stretch:normal;font-family:'League Gothic';-inkscape-font-specification:'League Gothic';fill:#ffffff;stroke-width:1.06666672"
             id="path3919"
             inkscape:connector-curvature="0" />
        </g>
      </g>
    </g>
    <rect
       style="fill:#ffffff;stroke-width:0.75424594"
       id="rect3035"
       width="396.8504"
       height="184.86426"
       x="0"
       y="628.46625" />
    <text
       xml:space="preserve"
       style="font-style:normal;font-variant:normal;font-weight:normal;font-stretch:normal;font-size:75.23926544px;line-height:1.25;font-family:'League Gothic';-inkscape-font-specification:'League Gothic';text-align:end;letter-spacing:0px;word-spacing:0px;text-anchor:end;fill:#000000;fill-opacity:1;stroke:none;stroke-width:4.80732632px;stroke-linecap:butt;stroke-linejoin:miter;stroke-opacity:1"
       x="360.60593"
       y="726.78491"
       id="text1702"
       transform="scale(0.99999611,1.0000039)"><tspan
         sodipodi:role="line"
         id="tspan1700"
         x="360.60593"
         y="726.78491"
         style="stroke-width:4.80732632px">autos voladores</tspan></text>
    <text
       id="text1706"
       y="760.32996"
       x="359.8143"
       style="font-style:normal;font-variant:normal;font-weight:normal;font-stretch:normal;font-size:35.25300598px;line-height:1.25;font-family:'League Gothic';-inkscape-font-specification:'League Gothic';text-align:end;letter-spacing:0px;word-spacing:0px;text-anchor:end;fill:#000000;fill-opacity:1;stroke:none;stroke-width:2.25244999px;stroke-linecap:butt;stroke-linejoin:miter;stroke-opacity:1"
       xml:space="preserve"
       transform="scale(0.99997351,1.0000265)"><tspan
         y="760.32996"
         x="359.8143"
         id="tspan1704"
         sodipodi:role="line"
         style="stroke-width:2.25244999px">y la tasa decreciente de ganancia</tspan></text>
    <text
       transform="scale(0.99997351,1.0000265)"
       xml:space="preserve"
       style="font-style:normal;font-variant:normal;font-weight:normal;font-stretch:normal;font-size:35.25300598px;line-height:1.25;font-family:'League Gothic';-inkscape-font-specification:'League Gothic';text-align:start;letter-spacing:0px;word-spacing:0px;text-anchor:start;fill:#000000;fill-opacity:1;stroke:none;stroke-width:2.25244999px;stroke-linecap:butt;stroke-linejoin:miter;stroke-opacity:1"
       x="37.16172"
       y="668.3324"
       id="text1724"><tspan
         style="text-align:start;text-anchor:start;stroke-width:2.25244999px"
         sodipodi:role="line"
         id="tspan1722"
         x="37.16172"
         y="668.3324">Sobre los</tspan></text>
    <text
       id="text1765"
       y="804.32867"
       x="225.16679"
       style="font-style:normal;font-variant:normal;font-weight:normal;font-stretch:normal;font-size:35.25300598px;line-height:1.25;font-family:'League Gothic';-inkscape-font-specification:'League Gothic';text-align:start;letter-spacing:0px;word-spacing:0px;text-anchor:start;fill:#000000;fill-opacity:1;stroke:none;stroke-width:2.25244999px;stroke-linecap:butt;stroke-linejoin:miter;stroke-opacity:1"
       xml:space="preserve"
       transform="scale(0.99997351,1.0000265)"><tspan
         y="804.32867"
         x="225.16679"
         id="tspan1763"
         sodipodi:role="line"
         style="text-align:start;text-anchor:start;stroke-width:2.25244999px">David Graeber</tspan></text>
  </g>
</svg>
