<?xml version="1.0" encoding="UTF-8" standalone="no"?>
<!-- Created with Inkscape (http://www.inkscape.org/) -->

<svg
   xmlns:dc="http://purl.org/dc/elements/1.1/"
   xmlns:cc="http://creativecommons.org/ns#"
   xmlns:rdf="http://www.w3.org/1999/02/22-rdf-syntax-ns#"
   xmlns:svg="http://www.w3.org/2000/svg"
   xmlns="http://www.w3.org/2000/svg"
   xmlns:sodipodi="http://sodipodi.sourceforge.net/DTD/sodipodi-0.dtd"
   xmlns:inkscape="http://www.inkscape.org/namespaces/inkscape"
   width="372.04724"
   height="524.40942"
   id="svg2"
   version="1.1"
   inkscape:version="0.48.5 r10040"
   sodipodi:docname="single_software_libre.svg">
  <defs
     id="defs4" />
  <sodipodi:namedview
     id="base"
     pagecolor="#ffffff"
     bordercolor="#666666"
     borderopacity="1.0"
     inkscape:pageopacity="0.0"
     inkscape:pageshadow="2"
     inkscape:zoom="0.7"
     inkscape:cx="189.84771"
     inkscape:cy="313.74164"
     inkscape:document-units="mm"
     inkscape:current-layer="g3170"
     showgrid="false"
     showguides="true"
     inkscape:guide-bbox="true"
     units="mm"
     inkscape:window-width="1024"
     inkscape:window-height="713"
     inkscape:window-x="0"
     inkscape:window-y="31"
     inkscape:window-maximized="1">
    <sodipodi:guide
       orientation="1,0"
       position="372.04724,262.20472"
       id="guide3168" />
    <sodipodi:guide
       orientation="0,1"
       position="524.40945,262.20472"
       id="guide3277" />
  </sodipodi:namedview>
  <metadata
     id="metadata7">
    <rdf:RDF>
      <cc:Work
         rdf:about="">
        <dc:format>image/svg+xml</dc:format>
        <dc:type
           rdf:resource="http://purl.org/dc/dcmitype/StillImage" />
        <dc:title />
      </cc:Work>
    </rdf:RDF>
  </metadata>
  <g
     inkscape:label="Capa 1"
     inkscape:groupmode="layer"
     id="layer1"
     transform="translate(0,-527.95267)">
    <g
       id="g3170"
       transform="translate(-372.04724,0)">
      <g
         transform="matrix(0.16107965,0,0,0.16050519,416.71529,910.60152)"
         inkscape:label="Capa 1"
         id="layer1-8">
        <rect
           y="-2384.0276"
           x="-277.30411"
           height="3267.2429"
           width="2309.7097"
           id="rect3033"
           style="fill:#164450" />
        <g
           id="g3847"
           transform="matrix(0.67937345,0,0,0.67937345,-233.93427,225.03697)"
           inkscape:export-filename="/srv/http/kiwwwi.com.ar/pastes/utopia-pirata-2.png"
           inkscape:export-xdpi="149"
           inkscape:export-ydpi="149" />
        <g
           transform="matrix(1.418919,0,0,1.418919,1084.9399,-369.99562)"
           id="g4077">
          <g
             inkscape:export-ydpi="149"
             inkscape:export-xdpi="149"
             inkscape:export-filename="/srv/http/kiwwwi.com.ar/pastes/utopia-pirata-2.png"
             id="g3851"
             transform="matrix(0.67937345,0,0,0.67937345,-35.215221,207.58407)">
            <path
               d="m 910.84122,610.02908 c -15,21 -31.266,38.794 -49,60 l -24,27 c -20,19 -70,56 -93,71 -13,9 -27,16 -41,22 l -18.26,8.84 c 3,3 8.58,4.641 13.629,7 3,0 13.631,-5.84 16.631,-7.84 l 32,-18 c 6,-4 12,-9 19,-10 -3,7 -10,11 -17,15 l -19,11 c 0,0 -19.951,11.37 -22.68,13.26 5.469,2.16 13.68,4.641 18.889,6.74 5,0 11.791,-5 15.791,-7 11,-6 25,-15 36,-23 l 18,-12 c 14,-11 28,-23 41,-36 10,-9 20,-18 28,-29 11,-13 18,-28 26,-43 9,-14 12,-23 17,-38 1,-5 4,-13 2,-18 z"
               id="path719"
               inkscape:connector-curvature="0"
               style="fill:#ffffff;stroke:#000000;stroke-width:0.70476186" />
            <path
               d="m 451.84122,605.02908 c -3,11 1,24 5,34 9,24 24,45 39,65 9,13 24,29 35,40 l 12,10 26,23 c 21,16 60,40 84,51 l 32,14 13,5 c 15,6 30,10 46,13 9,2 19,5 28,5 -3,-11 -9,-10 -18,-13 l -33,-13 c -46,-19 -97,-38 -133,-74 7,0 12,6 17,10 7,5 16,11 24,16 22,13 72,36 97,45 10,4 27,11 37,11 8,1 19,-4 25,-8 -4,-4 -8,-3 -14,-4 l -31,-9 c -27,-7 -53,-17 -78,-30 l -14,-6 -19,-12 -23,-15 -24,-19 -41,-32 -38,-39 -19,-22 -20,-22 -15,-24 z"
               id="path725"
               inkscape:connector-curvature="0"
               style="fill:#ffffff;stroke:#000000;stroke-width:0.70476186" />
            <path
               d="m 772.84122,852.02908 c 2,4 6,10 6,15 0,11 -13,21 -23,20 -4,-1 -13,-6 -16,0 -1,2 -1,4 0,5 0,4 5,6 9,8 11,3 23,-1 32,-7 7,-4 12,-11 14,-19 l 2,-13 c 1,-4 5,-5 10,-12 6,-8 12,-22 20,-28 3,-2 6,-3 10,-4 -2,-3 -4,-5 -6,-8 -2,-1 -4,-3 -6,-3 -3,-1 -7,-1 -10,1 -14,7 -11,20 -19,30 -6,8 -13,12 -23,15 z"
               id="path731"
               inkscape:connector-curvature="0"
               style="fill:#ffffff;stroke:#000000;stroke-width:0.70476186" />
            <path
               d="m 804.84122,865.02908 c 7,3 13,2 20,2 l 15,1 c 7,0 9,-4 12,-10 1,-2 2,-6 0,-8 -2,-2 -6,-2 -9,-2 l -17,1 c -3,0 -8,0 -11,1 -5,3 -9,10 -10,15 z"
               id="path737"
               inkscape:connector-curvature="0"
               style="fill:#ffffff;stroke:#000000;stroke-width:0.70476186" />
            <path
               d="m 858.84122,879.02908 c -5,-2 -8,-4 -11,-8 -1,1 -2,1 -3,2 -1,5 12,17 14,6 z"
               id="path743"
               inkscape:connector-curvature="0"
               style="fill:#ffffff;stroke:#000000;stroke-width:0.70476186" />
            <path
               d="m 851.84122,845.02908 8,5 c -2,4 -7,12 -6,17 1,10 15,10 21,4 7,-8 7,-20 -3,-26 -6,-3 -13,-2 -20,0 z"
               id="path744"
               inkscape:connector-curvature="0"
               style="fill:#ffffff;stroke:#000000;stroke-width:0.70476186" />
            <path
               d="m 492.84122,873.02908 1,1 c 8,-2 13,-5 14,-13 -6,1 -12,7 -15,12 z"
               id="selection_x5F_to_x5F_path_x23_5"
               inkscape:connector-curvature="0"
               style="fill:#ffffff;stroke:#000000;stroke-width:0.70476186" />
            <path
               d="m 499.84122,836.02908 c -3,-2 -6,-3 -10,-3 -3,0 -6,0 -9,1 -10,4 -11,20 -3,27 4,4 14,6 18,1 4,-4 3,-9 1,-14 -1,-3 -3,-7 -1,-9 1,-2 3,-2 4,-3 z"
               id="selection_x5F_to_x5F_path_x23_4"
               inkscape:connector-curvature="0"
               style="fill:#ffffff;stroke:#000000;stroke-width:0.70476186" />
            <path
               d="m 498.84122,840.02908 c 1,3 6,15 8,17 3,2 6,2 9,2 l 18,-1 h 13 c 0,-3 0,-6 -1,-8 -3,-8 -14,-12 -22,-12 l -9,1 c -6,0 -11,-1 -16,1 z"
               id="selection_x5F_to_x5F_path_x23_3"
               inkscape:connector-curvature="0"
               style="fill:#ffffff;stroke:#000000;stroke-width:0.70476186" />
            <path
               d="m 517.84122,808.02908 c 19,5 19,21 27,32 3,4 11,10 12,14 1,3 0,4 1,11 2,9 8,18 16,23 9,6 17,10 28,7 6,-2 12,-6 9,-13 -3,-7 -14,0 -21,-2 -7,-3 -15,-13 -15,-21 l 4,-14 c -11,-4 -24,-13 -29,-24 -3,-7 -3,-17 -8,-22 -9,-7 -21,-1 -24,9 z"
               id="selection_x5F_to_x5F_path_x23_2"
               inkscape:connector-curvature="0"
               style="fill:#ffffff;stroke:#000000;stroke-width:0.70476186" />
            <path
               d="m 565.84122,831.02908 c 3,4 5,5 9,7 14,8 23,2 37,-1 l 29,-9 c -3.84,-2.58 -12.42,-7.95 -16,-10 l -19,5 -40,8 z"
               id="path758"
               inkscape:connector-curvature="0"
               style="fill:#ffffff;stroke:#000000;stroke-width:0.70476186" />
            <path
               d="m 579.84122,860.02908 c 26,0 50,-8 75,-14 0,0 11,-5.206 14.676,-5.206 -3.47,-2.529 -17.622,-7.638 -19.836,-9.634 -3,0.89 -14.84,4.84 -18.84,5.84 l -25,7 -12,3 c -7,3 -12,4 -14,13 z"
               id="path759"
               inkscape:connector-curvature="0"
               style="fill:#ffffff;stroke:#000000;stroke-width:0.70476186" />
          </g>
          <circle
             transform="matrix(0.67937348,0,0,0.67937344,172.06628,463.24141)"
             d="m 483.822,156.03101 c 0,59.52249 -48.25251,107.775 -107.775,107.775 -59.52249,0 -107.775,-48.25251 -107.775,-107.775 0,-59.522494 48.25251,-107.775006 107.775,-107.775006 59.52249,0 107.775,48.252512 107.775,107.775006 z"
             style="fill:none;stroke:#ffffff;stroke-width:14.09523773"
             sodipodi:ry="107.775"
             sodipodi:rx="107.775"
             sodipodi:cy="156.03101"
             sodipodi:cx="376.047"
             cx="376.047"
             cy="156.03101"
             r="107.775"
             id="circle3807" />
          <path
             transform="matrix(0.67937348,0,0,0.67937344,-233.93429,225.03699)"
             style="fill:#ffffff"
             inkscape:connector-curvature="0"
             d="m 972.7768,439.2957 c -31.919,0 -58.663,22.231 -65.598,52.05 h 32.187 c 5.808,-12.648 18.59,-21.432 33.411,-21.432 20.282,0 36.742,16.46 36.742,36.741 0,20.281 -16.46,36.742 -36.742,36.742 -14.821,0 -27.604,-8.785 -33.411,-21.433 h -32.187 c 6.935,29.819 33.679,52.05 65.598,52.05 37.183,0 67.359,-30.177 67.359,-67.359 0,-37.182 -30.177,-67.359 -67.359,-67.359 z"
             id="path3809" />
          <g
             inkscape:export-ydpi="149"
             inkscape:export-xdpi="149"
             inkscape:export-filename="/srv/http/kiwwwi.com.ar/pastes/utopia-pirata-2.png"
             id="text3059"
             style="font-size:121.8484726px;font-style:normal;font-weight:normal;line-height:125%;letter-spacing:0px;word-spacing:0px;fill:#ffffff;fill-opacity:1;stroke:none;font-family:Bitstream Vera Sans"
             transform="matrix(-0.72702905,0.19480685,-0.19480685,-0.72702905,-611.71218,-436.375)">
            <g
               transform="matrix(0.99707364,-0.07644708,0.07644708,0.99707364,125.06749,-81.555005)"
               id="g3922">
              <path
                 transform="matrix(-0.8718552,-0.2336129,0.2336129,-0.8718552,-1786.4657,-3244.8873)"
                 d="m -1183.8988,-1543.7299 c 0,70.2944 -56.9848,127.2793 -127.2792,127.2793 -70.2944,0 -127.2792,-56.9849 -127.2792,-127.2793 0,-70.2943 56.9848,-127.2792 127.2792,-127.2792 70.2944,0 127.2792,56.9849 127.2792,127.2792 z"
                 sodipodi:ry="127.27922"
                 sodipodi:rx="127.27922"
                 sodipodi:cy="-1543.7299"
                 sodipodi:cx="-1311.178"
                 id="path3865"
                 style="fill:none;stroke:none"
                 sodipodi:type="arc"
                 inkscape:export-filename="/srv/http/kiwwwi.com.ar/pastes/utopia-pirata-1.png"
                 inkscape:export-xdpi="149"
                 inkscape:export-ydpi="149" />
              <path
                 d="m -778.04883,-1594.9487 -70.08465,-12.3215 c -3.57914,-0.7529 -6.69277,-2.0426 -9.22087,-3.848 -2.21027,-1.502 -4.19505,-3.583 -5.5732,-6.2996 -1.49816,-2.7377 -2.00858,-6.1679 -1.24904,-10.4881 0.75954,-4.3203 2.43037,-7.4907 4.77246,-9.5532 2.22209,-2.0837 4.77652,-3.243 7.36656,-3.9011 2.99226,-0.8348 6.35907,-0.9852 9.98041,-0.4723 l 70.08465,12.3215 -2.27862,12.9608 -70.08465,-12.3214 c -2.52017,-0.4431 -4.30577,-0.1384 -5.83684,0.8296 -0.70553,0.4946 -1.21325,1.2713 -1.40313,2.3514 -0.40087,2.2801 0.84934,3.6134 2.56507,4.4099 0.77676,0.5077 1.83573,0.8176 3.15582,1.0497 l 70.08465,12.3214 -2.27862,12.9609"
                 style="font-style:normal;font-variant:normal;font-weight:normal;font-stretch:normal;fill:#ffffff;font-family:League Gothic;-inkscape-font-specification:League Gothic"
                 id="path3897"
                 inkscape:connector-curvature="0" />
              <path
                 d="m -801.09593,-1568.8963 11.85811,6.5051 -18.28444,33.3309 -11.85812,-6.5051 5.97761,-10.8966 -66.66184,-36.5689 6.32923,-11.5376 66.66184,36.5689 5.97761,-10.8967"
                 style="font-style:normal;font-variant:normal;font-weight:normal;font-stretch:normal;fill:#ffffff;font-family:League Gothic;-inkscape-font-specification:League Gothic"
                 id="path3899"
                 inkscape:connector-curvature="0" />
              <path
                 d="m -902.22684,-1531.2768 c -2.40064,-2.7594 -4.10625,-5.6661 -5.0338,-8.6309 -0.857,-2.5312 -1.18494,-5.3882 -0.64563,-8.3863 0.45632,-3.0873 2.1181,-6.1311 5.32973,-9.1189 3.21164,-2.9879 6.45655,-4.5088 9.56871,-4.7413 3.02918,-0.3218 5.76585,0.2943 8.22867,1.3316 2.89022,1.139 5.66638,3.0497 8.24545,5.6431 l 35.93698,38.6289 c 2.31765,2.6701 4.02326,5.5768 4.95082,8.5417 0.85699,2.5312 1.35714,5.3944 0.81783,8.3924 -0.53932,2.9981 -2.20731,6.2141 -5.41895,9.202 -3.21163,2.9878 -6.45032,4.3365 -9.47949,4.6583 -3.02918,0.3217 -5.93806,-0.3006 -8.40087,-1.3379 -2.89023,-1.1389 -5.66638,-3.0497 -8.16246,-5.5539 l -35.93699,-38.6288 m 45.57191,29.6653 c 1.65991,1.7843 3.1787,2.7013 5.06676,2.9419 0.86104,0.031 1.82372,-0.3653 2.62663,-1.1122 1.69503,-1.5769 1.33601,-3.5729 0.61392,-5.0646 -0.39633,-0.9627 -1.05407,-1.8486 -1.88403,-2.7407 l -35.93698,-38.6289 c -1.74291,-1.8735 -3.35091,-2.7075 -5.15597,-2.8588 -0.86104,-0.031 -1.73451,0.2822 -2.53742,1.0292 -1.69503,1.5769 -1.502,3.3944 -0.61392,5.0645 0.31333,0.8735 0.97108,1.7594 1.88402,2.7408 l 35.93699,38.6288"
                 style="font-style:normal;font-variant:normal;font-weight:normal;font-stretch:normal;fill:#ffffff;font-family:League Gothic;-inkscape-font-specification:League Gothic"
                 id="path3901"
                 inkscape:connector-curvature="0" />
              <path
                 d="m -886.59996,-1457.8116 -12.05827,5.2702 c -5.24757,2.2934 -11.08073,3.2471 -16.75926,1.2077 -5.67853,-2.0394 -11.09081,-7.1207 -15.18979,-16.4994 -4.09898,-9.3786 -4.10323,-16.6905 -1.74292,-22.2434 2.3603,-5.5528 6.92473,-9.4094 12.1723,-11.7029 l -14.34645,-32.8252 12.05826,-5.2702 35.86613,82.0632 m -28.21022,-31.6862 c -3.68447,1.6103 -5.73635,3.305 -6.2466,5.7886 -0.55905,2.372 0.42353,5.5329 2.42423,10.1106 2.00069,4.5777 3.75077,7.6692 5.96893,9.0933 2.21816,1.4242 4.95321,1.2926 8.63767,-0.3177 l -10.78423,-24.6748"
                 style="font-style:normal;font-variant:normal;font-weight:normal;font-stretch:normal;fill:#ffffff;font-family:League Gothic;-inkscape-font-specification:League Gothic"
                 id="path3903"
                 inkscape:connector-curvature="0" />
              <path
                 d="m -948.99443,-1436.6047 -13.00674,2.0001 -13.61231,-88.5181 13.00674,-2.0001 13.61231,88.5181"
                 style="font-style:normal;font-variant:normal;font-weight:normal;font-stretch:normal;fill:#ffffff;font-family:League Gothic;-inkscape-font-specification:League Gothic"
                 id="path3905"
                 inkscape:connector-curvature="0" />
              <path
                 d="m -981.75508,-1521.0222 -23.62102,87.4398 -15.9797,-1.8289 -3.2539,-90.5157 12.7111,1.4548 0.3429,18.4359 12.59007,1.4409 4.49944,-17.8816 12.71111,1.4548 m -29.02582,57.5093 0.1,2.3417 0.7264,0.083 0.6264,-2.2585 6.9672,-27.656 -8.9583,-1.0253 0.5384,28.515"
                 style="font-style:normal;font-variant:normal;font-weight:normal;font-stretch:normal;fill:#ffffff;font-family:League Gothic;-inkscape-font-specification:League Gothic"
                 id="path3907"
                 inkscape:connector-curvature="0" />
              <path
                 d="m -1099.1166,-1462.6292 -10.788,-7.5362 c -4.6948,-3.2797 -8.5522,-7.758 -9.7757,-13.6663 -1.2235,-5.9083 0.2868,-13.1768 6.1483,-21.5675 5.8615,-8.3906 12.0967,-12.2098 18.0653,-13.094 5.9685,-0.8841 11.6402,0.9971 16.335,4.2767 l 20.5152,-29.3674 10.7881,7.5362 -51.2882,73.4185 m 12.3091,-40.5995 c -3.2963,-2.3027 -5.8127,-3.1688 -8.1976,-2.308 -2.3152,0.7609 -4.4989,3.2485 -7.3599,7.344 -2.8609,4.0954 -4.5849,7.2016 -4.6423,9.8369 -0.057,2.6354 1.4821,4.8999 4.7784,7.2026 l 15.4214,-22.0755"
                 style="font-style:normal;font-variant:normal;font-weight:normal;font-stretch:normal;fill:#ffffff;font-family:League Gothic;-inkscape-font-specification:League Gothic"
                 id="path3909"
                 inkscape:connector-curvature="0" />
              <path
                 d="m -1149.6319,-1504.5948 -8.5195,-10.0296 68.2572,-57.9801 8.5196,10.0296 -68.2573,57.9801"
                 style="font-style:normal;font-variant:normal;font-weight:normal;font-stretch:normal;fill:#ffffff;font-family:League Gothic;-inkscape-font-specification:League Gothic"
                 id="path3911"
                 inkscape:connector-curvature="0" />
              <path
                 d="m -1106.4208,-1601.3444 -31.2348,22.3102 1.5099,3.1948 34.1507,-16.1412 5.6233,11.8977 -80.97,38.2701 -5.6234,-11.8977 c -6.7168,-14.211 -1.5386,-24.071 13.7741,-31.3085 8.0419,-3.8009 16.302,-5.1443 21.5214,-2.0855 l 35.6254,-26.1376 5.6234,11.8977 m -40.7412,30.7118 c -0.781,-1.6525 -2.0427,-3.7516 -4.4181,-4.7852 -2.3754,-1.0337 -6.0267,-1.06 -11.7551,1.6476 -5.7285,2.7075 -8.1362,5.5975 -8.8454,8.0891 -0.7092,2.4916 0.222,4.7469 1.003,6.3994 l 24.0156,-11.3509"
                 style="font-style:normal;font-variant:normal;font-weight:normal;font-stretch:normal;fill:#ffffff;font-family:League Gothic;-inkscape-font-specification:League Gothic"
                 id="path3913"
                 inkscape:connector-curvature="0" />
              <path
                 d="m -1113.2219,-1617.132 -90.458,-4.5863 -1.5934,-16.0049 87.7782,-22.331 1.2675,12.7311 -17.946,4.2357 1.2554,12.6099 18.4288,0.6143 1.2675,12.7312 m -62.3486,-16.2013 -2.2675,0.5931 0.072,0.7275 2.34,0.1344 28.504,0.9582 -0.8933,-8.9724 -27.7556,6.5592"
                 style="font-style:normal;font-variant:normal;font-weight:normal;font-stretch:normal;fill:#ffffff;font-family:League Gothic;-inkscape-font-specification:League Gothic"
                 id="path3915"
                 inkscape:connector-curvature="0" />
              <path
                 d="m -1191.1447,-1674.8241 -13.2316,-2.8027 7.8779,-37.1915 13.2316,2.8027 -2.5754,12.1588 74.383,15.7558 -2.727,12.874 -74.383,-15.7558 -2.5755,12.1587"
                 style="font-style:normal;font-variant:normal;font-weight:normal;font-stretch:normal;fill:#ffffff;font-family:League Gothic;-inkscape-font-specification:League Gothic"
                 id="path3917"
                 inkscape:connector-curvature="0" />
              <path
                 d="m -1109.3262,-1695.6338 -70.438,-56.94 8.1301,-13.8779 84.1114,33.5999 -6.4672,11.0393 -17.0021,-7.1361 -6.4056,10.9341 14.5385,11.3415 -6.4671,11.0392 m -40.876,-49.7893 -2.1823,-0.8549 -0.3696,0.6309 1.8128,1.4856 22.4821,17.5485 4.5578,-7.78 -26.3008,-11.0301"
                 style="font-style:normal;font-variant:normal;font-weight:normal;font-stretch:normal;fill:#ffffff;font-family:League Gothic;-inkscape-font-specification:League Gothic"
                 id="path3919"
                 inkscape:connector-curvature="0" />
            </g>
          </g>
        </g>
      </g>
      <rect
         y="589.1864"
         x="372.04724"
         height="173.31082"
         width="372.04724"
         id="rect3035"
         style="fill:#ffffff" />
      <g
         id="g3134"
         transform="translate(651.7128,-45.174903)">
        <g
           style="font-size:70.77178192px;font-style:normal;font-variant:normal;font-weight:normal;font-stretch:normal;line-height:125%;letter-spacing:0px;word-spacing:0px;fill:#000000;fill-opacity:1;stroke:none;font-family:FontAwesome;-inkscape-font-specification:FontAwesome"
           id="text3110-2">
          <path
             d="m -235.88346,732.61216 c 0,-1.69852 -0.0708,-3.60936 -0.56617,-5.09557 -0.4954,-1.41543 -1.27389,-2.40624 -2.47701,-2.40624 -1.98161,0.0708 -2.61856,2.12316 -2.61856,5.16634 0,1.76929 0.77849,3.60936 1.91084,5.59097 1.13235,1.98161 2.61856,4.03399 4.10476,6.22792 1.7693,2.61855 3.53859,5.30788 4.88326,7.92644 1.34466,2.61855 2.26469,5.30788 2.26469,8.13875 0,3.46782 -0.56617,6.72332 -2.19392,9.12956 -1.62775,2.40624 -4.24631,3.96322 -8.42184,3.96322 -4.88325,0 -7.64336,-1.84007 -9.20034,-4.67094 -1.55697,-2.83086 -1.91083,-6.58178 -1.91083,-10.47422 l 7.5018,-0.70772 c 0,2.19393 0.0708,4.38786 0.63695,6.0156 0.4954,1.69853 1.34467,2.83088 2.97242,2.83088 2.26469,0 3.11395,-2.40625 3.11395,-5.73252 0,-1.69852 -0.84926,-3.68013 -1.98161,-5.73251 -0.63694,-0.99081 -1.27389,-2.05239 -1.98161,-3.11396 -1.4862,-2.12315 -3.11396,-4.5294 -4.81248,-7.14795 -1.69852,-2.61855 -2.97241,-5.30789 -3.7509,-8.06798 -0.42463,-1.34467 -0.63695,-2.76011 -0.63695,-4.17554 0,-2.83087 0.63695,-5.87406 2.2647,-8.20953 1.62775,-2.26469 4.10477,-3.89244 7.71412,-3.96322 4.60016,-0.0708 7.2895,1.84007 8.7757,4.60017 1.48621,2.83087 1.91084,6.29869 1.91084,9.20033 l -7.50181,0.70772"
             style="font-weight:bold;font-family:League Gothic;-inkscape-font-specification:League Gothic Bold"
             id="path3214" />
          <path
             d="m -206.53086,761.27473 c -0.21231,3.7509 -1.34467,6.36946 -3.82168,8.42184 -1.27389,1.06158 -3.04318,1.55698 -5.37865,1.55698 -4.60016,0 -6.86486,-2.54778 -7.99721,-5.09557 -0.63695,-1.4862 -1.06158,-3.18473 -1.13235,-5.09556 l 0,-19.46224 c 0.21231,-3.75091 1.34467,-6.51101 3.82168,-8.63416 1.20311,-1.06158 2.97241,-1.55698 5.30788,-1.55698 4.60016,0 6.93563,2.54779 8.06798,5.0248 0.63695,1.4862 1.06158,3.11396 1.13235,4.95402 l 0,19.88687 m -6.72332,-19.67455 c 0.0708,-1.48621 -0.21231,-2.54779 -0.92003,-3.39705 -0.35386,-0.35386 -0.92004,-0.56617 -1.55698,-0.56617 -1.34466,0 -1.91084,0.92003 -2.19393,1.98161 -0.21231,0.56617 -0.28308,1.20312 -0.21231,1.98161 l 0,19.46224 c -0.0708,1.4862 0.28309,2.54778 0.92003,3.32627 0.35386,0.35386 0.84926,0.56617 1.48621,0.56617 1.34466,0 1.98161,-0.84926 2.2647,-1.91083 0.21231,-0.56618 0.28308,-1.20313 0.21231,-1.98161 l 0,-19.46224"
             style="font-weight:bold;font-family:League Gothic;-inkscape-font-specification:League Gothic Bold"
             id="path3216" />
          <path
             d="m -200.48319,770.68738 0,-32.27193 -3.60936,0 0,-6.44024 3.60936,0 0,-1.06157 c 0,-1.98161 0.0708,-5.16635 1.06158,-7.7849 0.9908,-2.61855 2.97241,-4.74171 7.14795,-4.74171 1.13234,0 1.91083,0.0708 2.47701,0.28309 l 0.84926,0.21231 0,6.15715 c -0.21232,-0.0708 -0.42463,-0.0708 -0.63695,-0.14154 -0.4954,-0.0708 -0.9908,-0.14155 -1.4862,-0.14155 -1.20312,0 -1.7693,1.06158 -2.05239,2.40624 -0.14154,0.70772 -0.21231,1.41544 -0.21231,2.12316 0,0.70771 0,1.27389 0,1.69852 l 0,0.9908 3.60936,0 0,6.44024 -3.60936,0 0,32.27193 -7.14795,0"
             style="font-weight:bold;font-family:League Gothic;-inkscape-font-specification:League Gothic Bold"
             id="path3218" />
          <path
             d="m -176.88633,722.42102 0,9.55419 4.88326,0 0,6.44024 -4.88326,0 0,19.24992 c 0,1.20312 0,2.7601 0.28309,4.03399 0.28309,1.27389 0.84926,2.33547 1.98161,2.33547 0.56617,0 1.27389,-0.0708 1.76929,-0.14154 0.28309,-0.0708 0.56618,-0.0708 0.84927,-0.14155 l 0,7.00641 c -0.35386,0.0708 -0.70772,0.21232 -1.06158,0.28309 -0.70772,0.14154 -1.62775,0.21231 -2.7601,0.21231 -4.17553,0 -6.15715,-2.12315 -7.14795,-4.81248 -0.99081,-2.68932 -1.06158,-5.94483 -1.06158,-8.20953 l 0,-19.81609 -3.60936,0 0,-6.44024 3.60936,0 0,-9.55419 7.14795,0"
             style="font-weight:bold;font-family:League Gothic;-inkscape-font-specification:League Gothic Bold"
             id="path3220" />
          <path
             d="m -152.17702,770.68738 -2.7601,-18.47144 -0.35386,-2.19392 -0.28309,0 -0.35386,2.19392 -2.7601,18.47144 -5.94483,0 -5.73251,-38.71217 6.511,0 2.2647,20.24073 0.28309,2.19393 0.42463,0 0.35386,-2.19393 2.97241,-20.24073 4.24631,0 2.97241,20.24073 0.35386,2.19393 0.42463,0 0.28309,-2.19393 2.2647,-20.24073 6.511,0 -5.73251,38.71217 -5.94483,0"
             style="font-weight:bold;font-family:League Gothic;-inkscape-font-specification:League Gothic Bold"
             id="path3222" />
          <path
             d="m -126.72793,741.17554 c 0,-0.63694 0,-1.62775 -0.21232,-2.33546 -0.28308,-0.70772 -0.84926,-1.20312 -1.76929,-1.20312 -1.20312,0 -1.69853,0.92003 -1.91084,2.05238 -0.0708,0.56617 -0.14154,1.20312 -0.14154,1.84006 0,0.63695 0,1.2739 0,1.84007 l -7.14795,0 0,-1.62775 c 0,-2.83087 1.06157,-5.37866 2.7601,-7.28949 1.69852,-1.91084 4.10476,-3.04319 6.86486,-3.04319 2.33546,0 4.45862,0.92003 6.08637,2.47701 1.62775,1.55698 2.61856,3.75091 2.61856,6.29869 l 0,23.77932 c 0,3.46781 0.21231,5.0248 0.4954,6.72332 l -7.00641,0 c -0.63694,-0.77849 -0.63694,-2.61856 -0.63694,-3.11396 l -0.49541,0 c -0.35385,0.63694 -0.9908,1.55698 -1.98161,2.33547 -0.9908,0.77849 -2.33547,1.34466 -3.7509,1.34466 -0.92003,0 -2.40624,-0.35386 -3.53859,-1.76929 -1.20312,-1.34466 -2.19392,-3.75091 -2.19392,-7.7849 0,-4.31707 1.27389,-7.43104 2.97241,-9.55419 1.69852,-2.12315 3.82168,-3.46782 5.59097,-4.38785 1.76929,-0.92003 3.11396,-1.55698 3.39705,-2.33547 l 0,-4.24631 m 0,10.82809 c -3.46782,1.4862 -4.95403,4.95403 -4.95403,8.63415 0,0.49541 0.0708,1.34467 0.35386,2.12316 0.28309,0.84926 0.77849,1.48621 1.62775,1.48621 1.62775,0 2.97242,-0.99081 2.97242,-2.33547 l 0,-9.90805"
             style="font-weight:bold;font-family:League Gothic;-inkscape-font-specification:League Gothic Bold"
             id="path3224" />
          <path
             d="m -100.72926,739.33548 c -0.63695,-0.21232 -1.34467,-0.28309 -1.98161,-0.28309 -1.13235,0 -2.47702,0.14155 -3.60936,1.20312 -1.34467,1.13235 -1.55698,2.33547 -1.55698,3.53859 l 0,26.89328 -7.14795,0 0,-38.71217 7.14795,0 0,4.31708 c 0.0708,-0.4954 0.56617,-1.69852 1.69852,-2.83087 1.13235,-1.06158 2.83087,-2.05238 5.44943,-2.05238 l 0,7.92644"
             style="font-weight:bold;font-family:League Gothic;-inkscape-font-specification:League Gothic Bold"
             id="path3226" />
          <path
             d="m -79.979856,756.81611 0,4.45862 c -0.212315,3.7509 -1.344666,6.36946 -3.892448,8.42184 -1.273891,1.06158 -3.043189,1.55698 -5.378655,1.55698 -4.600162,0 -6.935636,-2.54778 -8.067984,-5.09557 -0.636945,-1.4862 -1.061576,-3.18473 -1.132348,-5.09556 l 0,-19.46224 c 0.212315,-3.75091 1.415438,-6.51101 3.96322,-8.63416 1.203119,-1.06158 2.972417,-1.55698 5.307883,-1.55698 4.600162,0 6.935636,2.54779 8.067983,5.0248 0.636946,1.4862 1.061577,3.11396 1.132349,4.95402 l 0,11.25271 -11.818888,0 0,8.42185 c 0.07077,1.4862 0.495403,2.54778 1.132349,3.32627 0.353858,0.35386 0.849262,0.56617 1.486207,0.56617 1.344663,0 1.98161,-0.84926 2.264697,-1.91083 0.212315,-0.56618 0.283087,-1.20313 0.283087,-1.98161 l 0,-4.24631 6.652548,0 m -11.818888,-9.76651 5.16634,0 0,-5.44942 c 0,-1.48621 -0.283087,-2.54779 -0.990805,-3.39705 -0.353858,-0.35386 -0.920033,-0.56617 -1.556979,-0.56617 -1.344662,0 -1.910838,0.92003 -2.264697,1.98161 -0.212315,0.56617 -0.283087,1.20312 -0.353859,1.98161 l 0,5.44942"
             style="font-weight:bold;font-family:League Gothic;-inkscape-font-specification:League Gothic Bold"
             id="path3228" />
          <path
             d="m -64.157944,718.67012 7.643352,0 0,44.94008 10.120365,0 0,7.07718 -17.763717,0 0,-52.01726"
             style="font-weight:bold;font-family:League Gothic;-inkscape-font-specification:League Gothic Bold"
             id="path3230" />
          <path
             d="m -43.285797,718.67012 7.14795,0 0,7.14795 -7.14795,0 0,-7.14795 m 0,52.01726 0,-38.71217 7.14795,0 0,38.71217 -7.14795,0"
             style="font-weight:bold;font-family:League Gothic;-inkscape-font-specification:League Gothic Bold"
             id="path3232" />
          <path
             d="m -30.430756,718.67012 7.14795,0 0,15.85288 c 1.203119,-1.13235 2.264698,-1.98161 3.680133,-2.61856 0.636945,-0.35386 1.344664,-0.4954 1.98161,-0.4954 1.981608,0 3.326274,1.13235 4.246307,2.54778 0.84926,1.48621 1.273892,3.39705 1.273892,5.0248 l 0,24.69935 c 0,1.62775 -0.424632,3.53859 -1.273892,4.95403 -0.920033,1.4862 -2.264699,2.61855 -4.246307,2.61855 -1.344663,0 -2.760101,-0.77849 -3.821677,-1.55698 -0.636945,-0.4954 -1.203121,-0.9908 -1.840066,-1.55698 l 0,2.54779 -7.14795,0 0,-52.01726 m 7.14795,43.52464 c 0,1.34467 1.061578,2.33547 2.123154,2.33547 1.061575,0 1.910838,-0.9908 1.910838,-2.33547 l 0,-21.72693 c 0,-1.34467 -0.849263,-2.33547 -1.910838,-2.33547 -1.061576,0 -2.123154,1.20312 -2.123154,2.33547 l 0,21.72693"
             style="font-weight:bold;font-family:League Gothic;-inkscape-font-specification:League Gothic Bold"
             id="path3234" />
          <path
             d="m 7.6400311,739.33548 c -0.6369454,-0.21232 -1.3446645,-0.28309 -1.9816099,-0.28309 -1.1323474,0 -2.4770135,0.14155 -3.6093609,1.20312 -1.34466247,1.13235 -1.55697916,2.33547 -1.55697916,3.53859 l 0,26.89328 -7.14794994,0 0,-38.71217 7.14794994,0 0,4.31708 c 0.0707717,-0.4954 0.56617536,-1.69852 1.69852276,-2.83087 1.1323474,-1.06158 2.8308739,-2.05238 5.4494272,-2.05238 l 0,7.92644"
             style="font-weight:bold;font-family:League Gothic;-inkscape-font-specification:League Gothic Bold"
             id="path3236" />
          <path
             d="m 28.389422,756.81611 0,4.45862 c -0.212315,3.7509 -1.344667,6.36946 -3.892448,8.42184 -1.273891,1.06158 -3.043189,1.55698 -5.378656,1.55698 -4.600161,0 -6.935635,-2.54778 -8.067983,-5.09557 -0.636945,-1.4862 -1.0615765,-3.18473 -1.1323482,-5.09556 l 0,-19.46224 c 0.2123152,-3.75091 1.4154382,-6.51101 3.9632202,-8.63416 1.203119,-1.06158 2.972417,-1.55698 5.307883,-1.55698 4.600161,0 6.935636,2.54779 8.067983,5.0248 0.636946,1.4862 1.061577,3.11396 1.132349,4.95402 l 0,11.25271 -11.818888,0 0,8.42185 c 0.07077,1.4862 0.495403,2.54778 1.132349,3.32627 0.353858,0.35386 0.849262,0.56617 1.486207,0.56617 1.344663,0 1.98161,-0.84926 2.264697,-1.91083 0.212315,-0.56618 0.283087,-1.20313 0.283087,-1.98161 l 0,-4.24631 6.652548,0 m -11.818888,-9.76651 5.16634,0 0,-5.44942 c 0,-1.48621 -0.283087,-2.54779 -0.990805,-3.39705 -0.353858,-0.35386 -0.920033,-0.56617 -1.556979,-0.56617 -1.344662,0 -1.910838,0.92003 -2.264697,1.98161 -0.212315,0.56617 -0.283087,1.20312 -0.353859,1.98161 l 0,5.44942"
             style="font-weight:bold;font-family:League Gothic;-inkscape-font-specification:League Gothic Bold"
             id="path3238" />
        </g>
        <g
           style="font-size:47.18118668px;font-style:normal;font-variant:normal;font-weight:normal;font-stretch:normal;line-height:125%;letter-spacing:0px;word-spacing:0px;fill:#000000;fill-opacity:1;stroke:none;font-family:FontAwesome;-inkscape-font-specification:FontAwesome"
           id="text3114">
          <path
             d="m -241.61597,685.79664 0,-5.33147 c 0,-0.94362 -0.18872,-1.60416 -0.66053,-2.17034 -0.23591,-0.2359 -0.61336,-0.37745 -1.03799,-0.37745 -0.89644,0 -1.32107,0.66054 -1.5098,1.2739 -0.14154,0.37745 -0.18872,0.80208 -0.18872,1.27389 l 0,20.85408 c 0,0.99081 0.23591,1.65135 0.70772,2.17034 0.2359,0.2359 0.56617,0.37745 0.9908,0.37745 0.89644,0 1.32108,-0.56618 1.5098,-1.27389 0.14154,-0.33027 0.18872,-0.7549 0.18872,-1.2739 l 0,-6.27509 -2.02879,0 0,-4.29349 7.12436,0 0,17.26831 -3.01959,0 -0.61336,-1.65134 c -0.94362,1.17953 -2.31188,2.02879 -3.96322,2.02879 -1.65134,0 -2.78369,-0.42463 -3.63295,-1.17953 -0.84926,-0.70772 -1.41544,-1.60416 -1.79288,-2.54778 -0.42463,-1.08517 -0.61336,-2.35906 -0.56618,-3.7745 l 0,-20.42945 c 0.0472,-1.36825 0.33027,-2.64215 0.84926,-3.72731 0.42463,-0.94363 1.03799,-1.88725 1.98161,-2.59497 0.94363,-0.70772 2.2647,-1.17953 3.96322,-1.17953 1.69852,0 2.97242,0.47181 3.91604,1.17953 0.94362,0.70772 1.60416,1.65134 2.02879,2.59497 0.51899,1.08516 0.80208,2.35906 0.84926,3.72731 l 0,5.33147 -5.09557,0"
             style="font-family:League Gothic;-inkscape-font-specification:League Gothic"
             id="path3241" />
          <path
             d="m -227.44392,689.94859 -0.42463,-1.60416 -0.28308,0 0,19.67455 -4.67094,0 0,-34.67817 4.52939,0 4.95403,18.07039 0.42463,1.60416 0.28308,0 0,-19.67455 4.67094,0 0,34.67817 -4.52939,0 -4.95403,-18.07039"
             style="font-family:League Gothic;-inkscape-font-specification:League Gothic"
             id="path3243" />
          <path
             d="m -200.66712,673.34081 0,27.55381 c -0.0472,1.41544 -0.33027,2.68933 -0.84926,3.7745 -0.42463,0.94362 -1.08517,1.84006 -2.02879,2.54778 -0.94362,0.7549 -2.21752,1.17953 -3.91604,1.17953 -1.69852,0 -3.0196,-0.42463 -3.96322,-1.17953 -0.94362,-0.70772 -1.55698,-1.60416 -1.98161,-2.54778 -0.51899,-1.08517 -0.80208,-2.35906 -0.84926,-3.7745 l 0,-27.55381 5.09557,0 0,27.55381 c 0,0.99081 0.2359,1.65134 0.70771,2.17034 0.23591,0.2359 0.56618,0.37745 0.99081,0.37745 0.89644,0 1.32107,-0.56618 1.5098,-1.2739 0.14154,-0.33026 0.18872,-0.75489 0.18872,-1.27389 l 0,-27.55381 5.09557,0"
             style="font-family:League Gothic;-inkscape-font-specification:League Gothic"
             id="path3245" />
        </g>
      </g>
    </g>
  </g>
</svg>
