<?xml version="1.0" encoding="UTF-8" standalone="no"?>
<!-- Created with Inkscape (http://www.inkscape.org/) -->

<svg
   xmlns:dc="http://purl.org/dc/elements/1.1/"
   xmlns:cc="http://creativecommons.org/ns#"
   xmlns:rdf="http://www.w3.org/1999/02/22-rdf-syntax-ns#"
   xmlns:svg="http://www.w3.org/2000/svg"
   xmlns="http://www.w3.org/2000/svg"
   xmlns:sodipodi="http://sodipodi.sourceforge.net/DTD/sodipodi-0.dtd"
   xmlns:inkscape="http://www.inkscape.org/namespaces/inkscape"
   width="30mm"
   height="22.615269mm"
   viewBox="0 0 106.29921 80.132842"
   id="svg2"
   version="1.1"
   inkscape:version="0.91 r13725"
   inkscape:export-filename="/home/fauno/Projects/utopia.partidopirata.com.ar/assets/images/la_copia_comparte_cultura.png"
   inkscape:export-xdpi="299.87704"
   inkscape:export-ydpi="299.87704"
   sodipodi:docname="la_copia_comparte_cultura.svg">
  <defs
     id="defs4" />
  <sodipodi:namedview
     id="base"
     pagecolor="#ffffff"
     bordercolor="#666666"
     borderopacity="1.0"
     inkscape:pageopacity="0.0"
     inkscape:pageshadow="2"
     inkscape:zoom="2.4059656"
     inkscape:cx="110.61469"
     inkscape:cy="114.92266"
     inkscape:document-units="mm"
     inkscape:current-layer="layer1"
     showgrid="false"
     showguides="false"
     inkscape:window-width="1366"
     inkscape:window-height="746"
     inkscape:window-x="0"
     inkscape:window-y="22"
     inkscape:window-maximized="0"
     fit-margin-top="0"
     fit-margin-left="0"
     fit-margin-right="0"
     fit-margin-bottom="0" />
  <metadata
     id="metadata7">
    <rdf:RDF>
      <cc:Work
         rdf:about="">
        <dc:format>image/svg+xml</dc:format>
        <dc:type
           rdf:resource="http://purl.org/dc/dcmitype/StillImage" />
        <dc:title></dc:title>
      </cc:Work>
    </rdf:RDF>
  </metadata>
  <g
     inkscape:label="Capa 1"
     inkscape:groupmode="layer"
     id="layer1"
     transform="translate(-218.28379,-445.32777)">
    <g
       id="g3713"
       transform="matrix(0.34863808,0,0,0.34863808,142.18175,342.26503)">
      <path
         inkscape:export-ydpi="45"
         inkscape:export-xdpi="45"
         inkscape:connector-curvature="0"
         id="path3519"
         d="m 369.32255,494.26103 c -5.20498,-1.83956 -12.32559,-8.7544 -27.39996,-26.6082 -10.93029,-12.94562 -42.31967,-49.68649 -51.44851,-60.21982 -11.38112,-13.13212 -12.83315,-14.96274 -14.53101,-18.31958 -5.80529,-11.47762 -4.97937,-31.51066 1.52273,-36.93456 1.51706,-1.26549 8.88396,-6.03697 16.37089,-10.60327 7.48693,-4.5663 15.14401,-9.27675 17.01574,-10.46766 5.82659,-3.70722 31.98149,-19.9081 45.01203,-27.88135 6.84146,-4.18624 13.22029,-7.61133 14.17517,-7.61133 1.01892,0 5.52054,4.50512 10.89685,10.9053 5.03838,5.99793 13.31741,15.78012 18.39783,21.73822 5.08042,5.9581 16.23788,19.07297 24.79437,29.14415 8.55649,10.07118 18.72947,22.0339 22.60663,26.58382 3.87716,4.54991 7.04938,9.07612 7.04938,10.05824 0,1.01008 -1.47811,2.65777 -3.40315,3.79357 -1.87173,1.10435 -3.40314,2.16196 -3.40314,2.35024 0,0.18828 5.7028,7.67375 12.67288,16.63437 6.97009,8.96063 12.54687,16.9464 12.39285,17.74615 -0.27103,1.40735 -5.47557,4.74809 -52.29093,33.56498 -12.03256,7.40657 -27.04217,16.68716 -33.35468,20.62353 -6.31252,3.93638 -11.78187,7.1225 -12.15411,7.08028 -0.37224,-0.0422 -2.58708,-0.7519 -4.92186,-1.57708 z m 22.51851,-16.4232 c 59.60647,-36.69096 71.17163,-44.07508 71.06876,-45.37598 -0.0616,-0.77896 -3.31634,-5.52585 -7.23277,-10.54867 -3.91643,-5.0228 -7.21915,-9.2768 -7.33938,-9.45332 -0.25302,-0.37152 -27.15603,15.91996 -70.60766,42.7574 -6.80194,4.20115 -13.20896,7.63846 -14.23781,7.63846 -2.25618,0 -3.49001,-2.67496 -2.03982,-4.42233 1.27749,-1.53927 16.86897,-11.23022 76.98826,-47.85237 4.79034,-2.91808 5.42565,-3.64043 4.58435,-5.21243 -0.53716,-1.0037 -1.22098,-1.8249 -1.51962,-1.8249 -0.29863,0 -9.36234,5.35399 -20.1416,11.89775 -10.77925,6.54377 -28.77645,17.41132 -39.99377,24.15012 -15.35313,9.22339 -20.55731,12.83228 -21.05121,14.59819 -0.36085,1.29021 -0.69972,6.20265 -0.75302,10.91654 -0.0765,6.77002 0.34271,9.59267 1.99562,13.43495 2.25705,5.24664 7.37896,9.59501 11.3019,9.59501 1.23608,0 9.77608,-4.63429 18.97777,-10.29842 z m -25.37145,6.21464 c -2.91589,-2.91588 -2.59433,-3.17106 25.57223,-20.29318 9.09128,-5.52648 19.15488,-11.67782 22.36356,-13.66965 3.20868,-1.99182 8.8968,-5.45554 12.64027,-7.69714 3.74346,-2.24161 10.57284,-6.43026 15.1764,-9.30812 8.54703,-5.34309 12.15753,-6.37506 13.16041,-3.76161 0.77338,2.01539 -1.14014,4.07267 -6.91349,7.43286 -4.69556,2.73291 -12.58203,7.54989 -46.70386,28.5263 -8.5565,5.26011 -17.30745,10.61305 -19.44657,11.89543 -2.13912,1.28239 -5.85828,3.58204 -8.26479,5.11033 -4.9887,3.16815 -5.95576,3.39319 -7.58416,1.76478 z m -4.70924,-10.99968 c -0.85763,-2.23495 0.61012,-3.47058 13.50834,-11.37212 6.55132,-4.01338 24.38161,-14.95025 39.62285,-24.30415 31.91315,-19.58582 31.31682,-19.2479 33.96757,-19.2479 1.47773,0 2.00858,0.6232 2.00858,2.358 0,1.88369 -1.41796,3.22261 -7.04938,6.65642 -3.87716,2.36414 -13.83137,8.45332 -22.12047,13.53151 -8.2891,5.07819 -24.12272,14.77168 -35.18584,21.54109 -11.06312,6.76941 -21.03106,12.30802 -22.15099,12.30802 -1.11993,0 -2.29023,-0.6619 -2.60066,-1.47087 z m -5.20851,-29.31746 c 0,-1.56514 0.77438,-0.63375 -41.15592,-49.50012 -16.48579,-19.21285 -30.58466,-35.36017 -31.33083,-35.88292 -1.82361,-1.27761 -3.7306,0.6787 -2.96366,3.04033 0.32141,0.9897 2.01447,3.33087 3.76237,5.2026 1.74789,1.87173 8.59096,9.74759 15.20681,17.50191 6.61585,7.75432 13.17028,15.41594 14.56538,17.02584 1.39511,1.60989 4.93503,5.76659 7.8665,9.23711 5.19867,6.15463 11.27258,13.14901 24.64762,28.38283 4.269,4.86229 7.06994,7.29763 7.98797,6.94535 0.77757,-0.29838 1.41376,-1.1772 1.41376,-1.95293 z m 16.08761,-17.29773 c 2.77872,-2.77871 2.882,-3.55829 0.96306,-7.26912 -2.04844,-3.96124 -7.05061,-7.84616 -10.10263,-7.84616 -3.95268,0 -6.94804,2.53764 -6.94804,5.8863 0,3.35893 5.73986,10.29333 9.05308,10.93714 4.10207,0.7971 4.66628,0.6601 7.03453,-1.70816 z m -9.67799,-4.57865 c -4.01449,-4.69004 -4.1603,-6.99711 -0.46939,-7.42714 3.16419,-0.36867 8.91493,5.68223 8.4566,8.89799 -0.53531,3.75577 -4.07068,3.10473 -7.98721,-1.47085 z m 4.06316,-1.96799 c -0.60097,-1.80291 -2.69415,-2.10194 -2.69415,-0.38487 0,0.84673 0.69278,1.53951 1.53951,1.53951 0.84674,0 1.36633,-0.51959 1.15464,-1.15464 z m 21.7802,-3.90892 c 2.80954,-1.82051 4.37666,-3.42283 3.85643,-3.94306 -0.52021,-0.52021 -1.66707,-0.38249 -2.82224,0.33893 -1.74559,1.09013 -2.45521,0.67293 -6.8929,-4.05257 -2.72084,-2.89729 -4.9596,-5.59597 -4.97502,-5.99706 -0.0839,-2.1827 -3.00394,-0.19939 -4.67289,3.17386 -2.11549,4.27578 -1.26886,6.19248 1.18672,2.68665 l 1.53656,-2.19374 4.43196,4.55957 c 4.42246,4.54979 4.42764,4.56326 2.41928,6.28287 -1.10697,0.94782 -2.01267,2.11043 -2.01267,2.58358 0,1.19338 2.397,0.1558 7.94477,-3.43903 z m -34.19877,-9.4444 c 3.24415,-2.0968 5.45569,-4.086 4.91454,-4.42044 -0.54115,-0.33445 -1.83393,-0.15318 -2.87284,0.40284 -1.62086,0.86745 -2.63734,0.18389 -7.16261,-4.81668 -2.90052,-3.20519 -5.77283,-5.8276 -6.38289,-5.8276 -0.86129,0 -4.34699,6.39984 -4.10427,7.53554 0.23488,1.09899 1.7123,0.20917 2.59613,-1.5636 1.06542,-2.13706 1.16981,-2.09066 5.59858,2.48841 l 4.51292,4.66608 -2.37648,2.08773 c -1.30706,1.14825 -2.1127,2.35151 -1.79031,2.6739 0.84016,0.84016 0.62104,0.9402 7.06723,-3.22618 z m 51.52001,-2.00352 c 2.82662,-2.14048 1.99098,-3.70474 -1.20193,-2.24995 -1.96409,0.8949 -2.71184,0.4033 -7.05348,-4.6373 -2.67109,-3.10107 -5.36022,-5.6682 -5.97587,-5.70471 -0.93688,-0.0556 -5.20076,5.91432 -5.20076,7.28164 0,1.18948 2.95116,0.21004 3.8296,-1.27099 0.90204,-1.52083 1.4236,-1.26662 4.90995,2.39317 4.43546,4.65608 4.69726,5.61999 1.92883,7.1016 -1.08454,0.58043 -1.70886,1.48093 -1.38738,2.0011 0.59473,0.96229 5.57331,-1.44807 10.15104,-4.91456 z m -36.37841,-8.03981 c 5.98626,-3.62167 6.64847,-4.93114 2.11836,-4.18893 -2.90875,0.47657 -3.54628,0.0546 -8.01637,-5.30553 -4.84596,-5.81086 -6.09691,-6.46315 -7.32029,-3.81718 -0.35617,0.77034 -1.18346,2.42771 -1.83841,3.68305 -1.63892,3.14126 -0.32119,4.05088 1.89979,1.31142 l 1.81617,-2.24013 3.69102,4.05934 c 4.72592,5.1975 4.79033,5.43634 2.07617,7.69804 -3.64348,3.03612 -0.20454,2.29565 5.57356,-1.20008 z m 48.83235,-0.2886 c 5.16255,-3.47667 6.20283,-6.22318 1.555,-4.10549 -1.75508,0.79967 -2.65584,0.82035 -3.12535,0.0718 -1.9085,-3.043 -10.13751,-10.95778 -10.90174,-10.48546 -1.45482,0.89913 -4.16788,7.28535 -3.41406,8.03628 0.38343,0.38196 1.47189,-0.26106 2.41879,-1.42894 l 1.72165,-2.12341 4.02863,4.10487 c 4.49877,4.58393 4.93637,6.04294 2.08397,6.94825 -2.14446,0.68063 -2.66018,2.43082 -0.71627,2.43082 0.67561,0 3.53284,-1.5519 6.34938,-3.44867 z M 335.56168,385.8574 c 2.72072,-1.70575 5.09996,-3.20806 5.28721,-3.33846 0.18725,-0.1304 0.0576,-0.69478 -0.28816,-1.25419 -0.42742,-0.69159 -1.25739,-0.6345 -2.59327,0.17839 -1.77269,1.07868 -2.51708,0.58066 -7.61792,-5.09657 -4.94915,-5.50841 -5.8493,-6.12937 -7.22738,-4.98567 -0.86577,0.71852 -1.57412,2.04041 -1.57412,2.93754 0,0.89712 -0.47567,2.10681 -1.05704,2.68818 -0.76119,0.76118 -0.70921,1.27203 0.18569,1.82511 0.68351,0.42244 1.38507,0.36243 1.55902,-0.13334 1.34068,-3.82101 2.15725,-3.74281 6.05535,0.57989 4.23005,4.69079 4.7781,6.25867 2.4941,7.13513 -1.43424,0.55037 -2.0739,2.56536 -0.81437,2.56536 0.35427,0 2.87016,-1.39562 5.59089,-3.10137 z m 50.05441,0.0741 c 2.97458,-2.77124 2.10116,-6.13939 -2.80797,-10.8284 -4.26221,-4.07109 -8.73902,-4.84144 -11.83786,-2.03704 -2.15115,1.94676 -2.25545,4.37066 -0.34687,8.06145 3.29411,6.37009 10.74803,8.75849 14.9927,4.80399 z m -9.73206,-3.66463 c -3.94397,-3.94397 -4.84795,-7.2732 -2.24599,-8.27167 2.11169,-0.81033 4.6038,0.70558 8.067,4.90704 2.30648,2.79817 2.73565,3.95487 1.98665,5.35439 -1.45625,2.72101 -3.65799,2.15991 -7.80766,-1.98976 z m 3.27446,-2.46418 c 0.1337,-0.49021 -0.30385,-1.07361 -0.97233,-1.29644 -0.66847,-0.22283 -1.21541,0.32411 -1.21541,1.21541 0,1.64649 1.74318,1.71106 2.18774,0.081 z m 20.67694,-3.13567 c 2.93307,-1.94745 5.33285,-3.91642 5.33285,-4.37548 0,-1.08462 -0.69152,-1.05337 -2.90508,0.13129 -1.51178,0.80908 -2.66145,0.0195 -7.07861,-4.86164 -2.90052,-3.20518 -5.78808,-5.8276 -6.41679,-5.8276 -0.62872,0 -1.67178,1.20326 -2.3179,2.6739 -0.64613,1.47065 -1.5679,2.95315 -2.04838,3.29445 -1.18013,0.83825 0.22445,2.97364 1.45552,2.2128 0.53529,-0.33083 1.29913,-1.48241 1.69742,-2.55906 0.66434,-1.7959 1.05932,-1.60702 4.78302,2.28723 4.31065,4.50809 4.98633,6.38879 2.62135,7.29631 -1.32876,0.5099 -2.13678,3.26861 -0.95738,3.26861 0.27563,0 2.90091,-1.59337 5.83398,-3.54081 z m -48.19578,-1.75317 c 2.87122,-3.05628 2.1767,-6.12766 -2.42653,-10.7309 -2.65995,-2.65996 -4.20916,-3.42169 -6.95895,-3.42169 -8.7672,0 -9.33162,8.39831 -0.96386,14.34184 4.00701,2.84614 7.55876,2.78119 10.34934,-0.18925 z m -9.96154,-4.22722 c -4.04016,-4.1375 -4.56158,-6.57229 -1.60823,-7.50966 2.59332,-0.82308 5.97466,1.43396 8.66171,5.7817 3.94519,6.38346 -1.26189,7.65909 -7.05348,1.72796 z m 3.30674,-2.43475 c -1.24798,-1.24797 -2.51352,-0.28343 -1.5896,1.21151 0.35789,0.57908 1.09615,0.77758 1.64058,0.4411 0.6641,-0.41044 0.64733,-0.9543 -0.051,-1.65261 z m -26.74694,-2.9485 c 2.07553,-1.78531 2.49836,-2.79772 1.99915,-4.78671 -0.88368,-3.52089 -4.89214,-8.0206 -8.46233,-9.49941 -2.54984,-1.05618 -3.5126,-1.0039 -6.33982,0.34431 -2.65728,1.26718 -3.33343,2.15787 -3.33343,4.39119 0,3.28121 2.97017,7.39306 7.20621,9.97618 3.93676,2.40061 5.74476,2.31445 8.93022,-0.42556 z m -9.71883,-4.56226 c -4.07015,-4.50518 -4.23565,-7.1281 -0.47737,-7.56598 3.16419,-0.36867 8.91493,5.68224 8.45659,8.89799 -0.52185,3.6614 -3.99121,3.08224 -7.97922,-1.33201 z m 4.03493,-2.1676 c -0.45884,-1.37649 -2.02243,-1.22518 -2.51185,0.24309 -0.17826,0.53478 0.40513,0.97232 1.29644,0.97232 0.8913,0 1.43824,-0.54693 1.21541,-1.21541 z m 53.26917,7.42372 c 3.57183,-2.34036 3.23668,-6.85581 -0.83913,-11.30556 -5.81786,-6.35162 -13.42964,-5.75981 -14.09217,1.09566 -0.26647,2.75717 0.34118,3.85623 4.14947,7.50521 4.80465,4.60367 7.03119,5.16221 10.78183,2.70469 z m -8.66146,-4.9458 c -4.04155,-4.15472 -4.37298,-7.39372 -0.8083,-7.8992 1.58086,-0.22417 3.22348,0.76547 5.62827,3.39089 6.41292,7.00128 1.80116,11.31484 -4.81997,4.50831 z m 3.28834,-2.71029 c -0.66085,-0.79628 -1.59667,-1.2036 -2.07958,-0.90514 -1.24114,0.76707 -0.0543,2.35292 1.76097,2.35292 1.23601,0 1.29557,-0.27061 0.31861,-1.44778 z m -27.24025,-2.68461 c 2.65808,-1.73804 4.84073,-3.707 4.85034,-4.37548 0.0217,-1.50913 -0.4892,-1.52269 -2.80801,-0.0746 -1.59734,0.99755 -2.51866,0.39351 -7.3357,-4.80946 -5.42684,-5.86164 -8.31305,-6.95623 -8.31305,-3.1527 0,0.94687 -0.67487,2.28167 -1.4997,2.96622 -0.95297,0.79089 -1.16109,1.58326 -0.57089,2.17346 1.16986,1.16986 3.04291,0.0749 3.04291,-1.77888 0,-2.46359 1.69007,-1.5211 5.76943,3.21745 3.86815,4.49319 3.92299,4.65477 2.02031,5.95256 -2.08272,1.4206 -2.6008,3.04148 -0.97214,3.04148 0.54098,0 3.15841,-1.42203 5.8165,-3.16007 z m 48.39248,-0.26892 c 2.80046,-1.88594 5.09175,-3.8549 5.09175,-4.37548 0,-1.24764 -0.59412,-1.19411 -2.98464,0.26892 -1.80189,1.10278 -2.48505,0.65224 -7.37176,-4.86164 -2.96221,-3.34238 -5.77155,-6.07705 -6.24298,-6.07705 -1.24333,0 -4.76551,7.68014 -3.79675,8.27886 0.44907,0.27755 1.53089,-0.48718 2.40403,-1.69938 l 1.58753,-2.204 3.82417,4.37547 c 4.12902,4.72426 4.64596,6.28492 2.37095,7.15792 -1.4947,0.57357 -2.05083,2.56537 -0.71627,2.56537 0.40823,0 3.03351,-1.54305 5.83397,-3.42899 z m -33.04541,-9.75258 c 2.88567,-2.0212 2.76322,-5.77807 -0.32007,-9.82047 -4.59517,-6.02459 -9.91297,-7.31623 -14.29158,-3.47128 -2.80403,2.46227 -2.02981,5.6777 2.50722,10.41283 4.61049,4.81177 8.14479,5.65236 12.10443,2.87892 z m -9.23659,-4.56343 c -3.57898,-3.7349 -4.28341,-6.39795 -2.07011,-7.82582 2.06054,-1.32931 6.01986,1.133 8.57325,5.33171 3.64819,5.99896 -1.31911,7.90403 -6.50314,2.49411 z m 3.61897,-2.73128 c 0,-0.50322 -0.65632,-0.91495 -1.45849,-0.91495 -1.50362,0 -1.93172,1.14731 -0.83671,2.24234 0.77683,0.77682 2.2952,-0.10131 2.2952,-1.32739 z m 21.40966,-3.30533 c 2.39637,-1.58209 4.54665,-3.01141 4.77838,-3.17626 0.23175,-0.16486 -0.0471,-0.76811 -0.6195,-1.34058 -0.73957,-0.73957 -1.22993,-0.73489 -1.69413,0.0162 -1.33649,2.16247 -3.70163,0.90205 -8.95504,-4.77225 -2.96829,-3.20611 -5.79589,-5.58271 -6.28355,-5.28132 -1.27782,0.78974 -3.90804,7.41203 -3.21708,8.09984 0.32045,0.31898 1.3818,-0.40574 2.35856,-1.6105 l 1.77594,-2.19045 3.99412,4.53756 3.99411,4.53755 -1.97333,2.10051 c -1.96988,2.09684 -1.69564,3.98787 0.38551,2.65832 0.60443,-0.38614 3.05964,-1.99652 5.45601,-3.57862 z"
         style="fill:#000000" />
      <text
         inkscape:export-ydpi="45"
         inkscape:export-xdpi="45"
         sodipodi:linespacing="125%"
         id="text3521"
         y="520.20374"
         x="371.44986"
         style="font-style:normal;font-variant:normal;font-weight:normal;font-stretch:normal;font-size:23.89486313px;line-height:125%;font-family:FontAwesome;-inkscape-font-specification:FontAwesome;text-align:end;letter-spacing:0px;word-spacing:0px;text-anchor:end;fill:#000000;fill-opacity:1;stroke:none;stroke-width:1px;stroke-linecap:butt;stroke-linejoin:miter;stroke-opacity:1"
         xml:space="preserve"><tspan
           id="tspan3563"
           style="font-style:normal;font-variant:normal;font-weight:bold;font-stretch:normal;font-family:'M+ 1mn';-inkscape-font-specification:'M+ 1mn Bold';text-align:center;text-anchor:middle"
           y="520.20374"
           x="371.44986"
           sodipodi:role="line">La copia comparte cultura.</tspan></text>
    </g>
  </g>
</svg>
