<?xml version="1.0" encoding="UTF-8" standalone="no"?>
<!-- Created with Inkscape (http://www.inkscape.org/) -->

<svg
   xmlns:dc="http://purl.org/dc/elements/1.1/"
   xmlns:cc="http://creativecommons.org/ns#"
   xmlns:rdf="http://www.w3.org/1999/02/22-rdf-syntax-ns#"
   xmlns:svg="http://www.w3.org/2000/svg"
   xmlns="http://www.w3.org/2000/svg"
   xmlns:sodipodi="http://sodipodi.sourceforge.net/DTD/sodipodi-0.dtd"
   xmlns:inkscape="http://www.inkscape.org/namespaces/inkscape"
   width="48"
   height="48"
   id="svg3298"
   version="1.1"
   inkscape:version="0.48.4 r9939"
   sodipodi:docname="Documento nuevo 6">
  <defs
     id="defs3300" />
  <sodipodi:namedview
     id="base"
     pagecolor="#ffffff"
     bordercolor="#666666"
     borderopacity="1.0"
     inkscape:pageopacity="0.0"
     inkscape:pageshadow="2"
     inkscape:zoom="1.979899"
     inkscape:cx="-78.205877"
     inkscape:cy="42.335426"
     inkscape:document-units="px"
     inkscape:current-layer="layer1"
     showgrid="false"
     inkscape:window-width="1024"
     inkscape:window-height="714"
     inkscape:window-x="0"
     inkscape:window-y="30"
     inkscape:window-maximized="1" />
  <metadata
     id="metadata3303">
    <rdf:RDF>
      <cc:Work
         rdf:about="">
        <dc:format>image/svg+xml</dc:format>
        <dc:type
           rdf:resource="http://purl.org/dc/dcmitype/StillImage" />
        <dc:title></dc:title>
      </cc:Work>
    </rdf:RDF>
  </metadata>
  <g
     inkscape:label="Capa 1"
     inkscape:groupmode="layer"
     id="layer1"
     transform="translate(0,-1004.3622)">
    <g
       id="g3341"
       transform="matrix(0.64211953,0,0,0.64211953,7.0527472,360.63988)">
      <g
         style="fill:#000000"
         transform="matrix(0.15508605,0,0,0.15575445,-79.24479,931.36528)"
         id="g3851"
         inkscape:export-filename="/srv/http/kiwwwi.com.ar/pastes/utopia-pirata-2.png"
         inkscape:export-xdpi="149"
         inkscape:export-ydpi="149">
        <path
           style="fill:#000000;stroke:#000000;stroke-width:1"
           inkscape:connector-curvature="0"
           id="path719"
           d="m 910.84122,610.02908 c -15,21 -31.266,38.794 -49,60 l -24,27 c -20,19 -70,56 -93,71 -13,9 -27,16 -41,22 l -18.26,8.84 c 3,3 8.58,4.641 13.629,7 3,0 13.631,-5.84 16.631,-7.84 l 32,-18 c 6,-4 12,-9 19,-10 -3,7 -10,11 -17,15 l -19,11 c 0,0 -19.951,11.37 -22.68,13.26 5.469,2.16 13.68,4.641 18.889,6.74 5,0 11.791,-5 15.791,-7 11,-6 25,-15 36,-23 l 18,-12 c 14,-11 28,-23 41,-36 10,-9 20,-18 28,-29 11,-13 18,-28 26,-43 9,-14 12,-23 17,-38 1,-5 4,-13 2,-18 z" />
        <path
           style="fill:#000000;stroke:#000000;stroke-width:1"
           inkscape:connector-curvature="0"
           id="path725"
           d="m 451.84122,605.02908 c -3,11 1,24 5,34 9,24 24,45 39,65 9,13 24,29 35,40 l 12,10 26,23 c 21,16 60,40 84,51 l 32,14 13,5 c 15,6 30,10 46,13 9,2 19,5 28,5 -3,-11 -9,-10 -18,-13 l -33,-13 c -46,-19 -97,-38 -133,-74 7,0 12,6 17,10 7,5 16,11 24,16 22,13 72,36 97,45 10,4 27,11 37,11 8,1 19,-4 25,-8 -4,-4 -8,-3 -14,-4 l -31,-9 c -27,-7 -53,-17 -78,-30 l -14,-6 -19,-12 -23,-15 -24,-19 -41,-32 -38,-39 -19,-22 -20,-22 -15,-24 z" />
        <path
           style="fill:#000000;stroke:#000000;stroke-width:1"
           inkscape:connector-curvature="0"
           id="path731"
           d="m 772.84122,852.02908 c 2,4 6,10 6,15 0,11 -13,21 -23,20 -4,-1 -13,-6 -16,0 -1,2 -1,4 0,5 0,4 5,6 9,8 11,3 23,-1 32,-7 7,-4 12,-11 14,-19 l 2,-13 c 1,-4 5,-5 10,-12 6,-8 12,-22 20,-28 3,-2 6,-3 10,-4 -2,-3 -4,-5 -6,-8 -2,-1 -4,-3 -6,-3 -3,-1 -7,-1 -10,1 -14,7 -11,20 -19,30 -6,8 -13,12 -23,15 z" />
        <path
           style="fill:#000000;stroke:#000000;stroke-width:1"
           inkscape:connector-curvature="0"
           id="path737"
           d="m 804.84122,865.02908 c 7,3 13,2 20,2 l 15,1 c 7,0 9,-4 12,-10 1,-2 2,-6 0,-8 -2,-2 -6,-2 -9,-2 l -17,1 c -3,0 -8,0 -11,1 -5,3 -9,10 -10,15 z" />
        <path
           style="fill:#000000;stroke:#000000;stroke-width:1"
           inkscape:connector-curvature="0"
           id="path743"
           d="m 858.84122,879.02908 c -5,-2 -8,-4 -11,-8 -1,1 -2,1 -3,2 -1,5 12,17 14,6 z" />
        <path
           style="fill:#000000;stroke:#000000;stroke-width:1"
           inkscape:connector-curvature="0"
           id="path744"
           d="m 851.84122,845.02908 8,5 c -2,4 -7,12 -6,17 1,10 15,10 21,4 7,-8 7,-20 -3,-26 -6,-3 -13,-2 -20,0 z" />
        <path
           style="fill:#000000;stroke:#000000;stroke-width:1"
           inkscape:connector-curvature="0"
           id="selection_x5F_to_x5F_path_x23_5"
           d="m 492.84122,873.02908 1,1 c 8,-2 13,-5 14,-13 -6,1 -12,7 -15,12 z" />
        <path
           style="fill:#000000;stroke:#000000;stroke-width:1"
           inkscape:connector-curvature="0"
           id="selection_x5F_to_x5F_path_x23_4"
           d="m 499.84122,836.02908 c -3,-2 -6,-3 -10,-3 -3,0 -6,0 -9,1 -10,4 -11,20 -3,27 4,4 14,6 18,1 4,-4 3,-9 1,-14 -1,-3 -3,-7 -1,-9 1,-2 3,-2 4,-3 z" />
        <path
           style="fill:#000000;stroke:#000000;stroke-width:1"
           inkscape:connector-curvature="0"
           id="selection_x5F_to_x5F_path_x23_3"
           d="m 498.84122,840.02908 c 1,3 6,15 8,17 3,2 6,2 9,2 l 18,-1 h 13 c 0,-3 0,-6 -1,-8 -3,-8 -14,-12 -22,-12 l -9,1 c -6,0 -11,-1 -16,1 z" />
        <path
           style="fill:#000000;stroke:#000000;stroke-width:1"
           inkscape:connector-curvature="0"
           id="selection_x5F_to_x5F_path_x23_2"
           d="m 517.84122,808.02908 c 19,5 19,21 27,32 3,4 11,10 12,14 1,3 0,4 1,11 2,9 8,18 16,23 9,6 17,10 28,7 6,-2 12,-6 9,-13 -3,-7 -14,0 -21,-2 -7,-3 -15,-13 -15,-21 l 4,-14 c -11,-4 -24,-13 -29,-24 -3,-7 -3,-17 -8,-22 -9,-7 -21,-1 -24,9 z" />
        <path
           style="fill:#000000;stroke:#000000;stroke-width:1"
           inkscape:connector-curvature="0"
           id="path758"
           d="m 565.84122,831.02908 c 3,4 5,5 9,7 14,8 23,2 37,-1 l 29,-9 c -3.84,-2.58 -12.42,-7.95 -16,-10 l -19,5 -40,8 z" />
        <path
           style="fill:#000000;stroke:#000000;stroke-width:1"
           inkscape:connector-curvature="0"
           id="path759"
           d="m 579.84122,860.02908 c 26,0 50,-8 75,-14 0,0 11,-5.206 14.676,-5.206 -3.47,-2.529 -17.622,-7.638 -19.836,-9.634 -3,0.89 -14.84,4.84 -18.84,5.84 l -25,7 -12,3 c -7,3 -12,4 -14,13 z" />
      </g>
      <circle
         id="circle3807"
         r="107.775"
         cy="156.03101"
         cx="376.047"
         sodipodi:cx="376.047"
         sodipodi:cy="156.03101"
         sodipodi:rx="107.775"
         sodipodi:ry="107.775"
         style="fill:none;stroke:#000000;stroke-width:20;stroke-opacity:1"
         d="m 483.822,156.03101 c 0,59.52249 -48.25251,107.775 -107.775,107.775 -59.52249,0 -107.775,-48.25251 -107.775,-107.775 0,-59.522494 48.25251,-107.775006 107.775,-107.775006 59.52249,0 107.775,48.252512 107.775,107.775006 z"
         transform="matrix(0.15508606,0,0,0.15575445,-31.92697,1001.9777)" />
      <path
         id="path3809"
         d="m 26.25613,1015.7888 c -4.95019,0 -9.09781,3.4626 -10.17334,8.107 h 4.99176 c 0.90074,-1.97 2.88305,-3.3381 5.18158,-3.3381 3.14545,0 5.69817,2.5637 5.69817,5.7226 0,3.1588 -2.55272,5.7227 -5.69817,5.7227 -2.29853,0 -4.281,-1.3683 -5.18158,-3.3383 h -4.99176 c 1.07553,4.6444 5.22315,8.107 10.17334,8.107 5.76656,0 10.44644,-4.7002 10.44644,-10.4914 0,-5.7913 -4.68003,-10.4915 -10.44644,-10.4915 z"
         inkscape:connector-curvature="0"
         style="fill:#000000" />
    </g>
  </g>
</svg>
