<?xml version="1.0" encoding="UTF-8" standalone="no"?>
<!-- Created with Inkscape (http://www.inkscape.org/) -->

<svg
   xmlns:dc="http://purl.org/dc/elements/1.1/"
   xmlns:cc="http://creativecommons.org/ns#"
   xmlns:rdf="http://www.w3.org/1999/02/22-rdf-syntax-ns#"
   xmlns:svg="http://www.w3.org/2000/svg"
   xmlns="http://www.w3.org/2000/svg"
   xmlns:sodipodi="http://sodipodi.sourceforge.net/DTD/sodipodi-0.dtd"
   xmlns:inkscape="http://www.inkscape.org/namespaces/inkscape"
   width="210mm"
   height="148mm"
   id="svg2"
   version="1.1"
   inkscape:version="0.91 r13725"
   sodipodi:docname="historia_del_copyright.svg">
  <defs
     id="defs4" />
  <sodipodi:namedview
     id="base"
     pagecolor="#ffffff"
     bordercolor="#666666"
     borderopacity="1.0"
     inkscape:pageopacity="0.0"
     inkscape:pageshadow="2"
     inkscape:zoom="0.74725608"
     inkscape:cx="107.40668"
     inkscape:cy="343.48893"
     inkscape:document-units="mm"
     inkscape:current-layer="layer1"
     showgrid="false"
     showguides="true"
     inkscape:guide-bbox="true"
     units="mm"
     inkscape:window-width="1366"
     inkscape:window-height="726"
     inkscape:window-x="0"
     inkscape:window-y="42"
     inkscape:window-maximized="0">
    <sodipodi:guide
       orientation="1,0"
       position="372.04724,0"
       id="guide3168"
       inkscape:label=""
       inkscape:color="rgb(0,0,255)" />
    <sodipodi:guide
       orientation="0,1"
       position="72.857143,271.42857"
       id="guide3277" />
  </sodipodi:namedview>
  <metadata
     id="metadata7">
    <rdf:RDF>
      <cc:Work
         rdf:about="">
        <dc:format>image/svg+xml</dc:format>
        <dc:type
           rdf:resource="http://purl.org/dc/dcmitype/StillImage" />
        <dc:title />
      </cc:Work>
    </rdf:RDF>
  </metadata>
  <g
     inkscape:label="Capa 1"
     inkscape:groupmode="layer"
     id="layer1"
     transform="translate(0,-527.9527)">
    <rect
       y="524.45728"
       x="-7.0438722e-07"
       height="527.90491"
       width="743.63721"
       id="rect3033"
       style="fill:#660080;fill-opacity:1" />
    <rect
       style="fill:#ffffff"
       id="rect3035"
       width="744.09448"
       height="173.31082"
       x="2.9508118e-07"
       y="589.1864" />
    <g
       id="g3847"
       transform="matrix(0.10929874,0,0,0.10976979,379.02465,946.01697)"
       inkscape:export-filename="/srv/http/kiwwwi.com.ar/pastes/utopia-pirata-2.png"
       inkscape:export-xdpi="149"
       inkscape:export-ydpi="149" />
    <path
       d="m 702.99984,972.4804 c -2.32629,3.27085 -4.84892,6.04234 -7.59922,9.34527 l -3.72206,4.20537 c -3.10173,2.95934 -10.85603,8.72225 -14.42301,11.05857 -2.01612,1.40179 -4.18732,2.49207 -6.35852,3.42659 l -2.83188,1.3769 c 0.46526,0.4672 1.33064,0.7228 2.11367,1.0903 0.46526,0 2.11398,-0.9097 2.57924,-1.2212 l 4.96275,-2.80354 c 0.93052,-0.62302 1.86103,-1.40179 2.94663,-1.55755 -0.46525,1.09029 -1.55085,1.7133 -2.63646,2.33632 l -2.94663,1.71327 c 0,0 -3.09412,1.771 -3.51735,2.0653 0.84816,0.3365 2.12157,0.7229 2.92942,1.0498 0.77543,0 1.82862,-0.7788 2.44896,-1.0903 1.70595,-0.9345 3.87715,-2.3363 5.5831,-3.58231 l 2.79155,-1.86906 c 2.1712,-1.7133 4.34241,-3.58235 6.35853,-5.60716 1.55086,-1.40179 3.10172,-2.80358 4.34241,-4.51688 1.70594,-2.0248 2.79154,-4.36112 4.03223,-6.69744 1.39578,-2.18056 1.86104,-3.58235 2.63646,-5.91867 0.15509,-0.77877 0.62035,-2.0248 0.31018,-2.80358 z"
       id="path719"
       inkscape:connector-curvature="0"
       style="fill:#ffffff;stroke:none;stroke-width:0.70476186" />
    <path
       d="m 631.81534,971.70163 c -0.46526,1.7133 0.15508,3.73811 0.77543,5.29565 1.39577,3.73811 3.72207,7.00895 6.04836,10.12404 1.39577,2.02481 3.72206,4.51688 5.42801,6.23018 l 1.86103,1.55754 4.03224,3.58236 c 3.2568,2.4921 9.30516,6.2302 13.02723,7.9435 l 4.96275,2.1805 2.01612,0.7788 c 2.32629,0.9345 4.65258,1.5576 7.13396,2.0248 1.39577,0.3115 2.94663,0.7788 4.34241,0.7788 -0.46526,-1.7133 -1.39578,-1.5576 -2.79155,-2.0248 l -5.11784,-2.0248 c -7.13396,-2.9594 -15.04335,-5.9187 -20.62645,-11.52586 1.0856,0 1.86104,0.93453 2.63647,1.55755 1.0856,0.77877 2.48137,1.7133 3.72206,2.49211 3.41189,2.0248 11.1662,5.6071 15.04335,7.0089 1.55086,0.623 4.18732,1.7133 5.73818,1.7133 1.24069,0.1558 2.94664,-0.623 3.87715,-1.246 -0.62034,-0.623 -1.24069,-0.4673 -2.1712,-0.623 l -4.80767,-1.4018 c -4.18732,-1.0903 -8.21956,-2.6479 -12.09671,-4.6727 l -2.17121,-0.9345 -2.94663,-1.86905 -3.56698,-2.33632 -3.72206,-2.95933 -6.35854,-4.98414 -5.89326,-6.07443 -2.94664,-3.42659 -3.10172,-3.4266 -2.32629,-3.73811 z"
       id="path725"
       inkscape:connector-curvature="0"
       style="fill:#ffffff;stroke:none;stroke-width:0.70476186" />
    <path
       d="m 681.59796,1010.173 c 0.31017,0.623 0.93052,1.5575 0.93052,2.3363 0,1.7133 -2.01612,3.2708 -3.56698,3.1151 -0.62035,-0.1558 -2.01612,-0.9345 -2.48138,0 -0.15508,0.3115 -0.15508,0.623 0,0.7788 0,0.623 0.77543,0.9345 1.39578,1.246 1.70594,0.4673 3.56698,-0.1558 4.96275,-1.0903 1.0856,-0.623 1.86103,-1.7133 2.17121,-2.9593 l 0.31017,-2.0248 c 0.15508,-0.623 0.77543,-0.7788 1.55086,-1.8691 0.93051,-1.246 1.86103,-3.4266 3.10172,-4.3611 0.46526,-0.3115 0.93051,-0.4673 1.55086,-0.623 -0.31017,-0.4673 -0.62035,-0.7788 -0.93052,-1.2461 -0.31017,-0.1557 -0.62034,-0.4672 -0.93051,-0.4672 -0.46526,-0.1558 -1.08561,-0.1558 -1.55086,0.1557 -2.17121,1.0903 -1.70595,3.1151 -2.94664,4.6727 -0.93052,1.246 -2.01612,1.869 -3.56698,2.3363 z"
       id="path731"
       inkscape:connector-curvature="0"
       style="fill:#ffffff;stroke:none;stroke-width:0.70476186" />
    <path
       d="m 686.56072,1012.1978 c 1.0856,0.4673 2.01611,0.3115 3.10172,0.3115 l 2.32629,0.1558 c 1.0856,0 1.39577,-0.6231 1.86103,-1.5576 0.15509,-0.3115 0.31017,-0.9345 0,-1.246 -0.31017,-0.3115 -0.93052,-0.3115 -1.39577,-0.3115 l -2.63647,0.1557 c -0.46525,0 -1.24069,0 -1.70594,0.1558 -0.77543,0.4672 -1.39578,1.5575 -1.55086,2.3363 z"
       id="path737"
       inkscape:connector-curvature="0"
       style="fill:#ffffff;stroke:none;stroke-width:0.70476186" />
    <path
       d="m 694.93536,1014.3783 c -0.77543,-0.3115 -1.24069,-0.623 -1.70594,-1.246 -0.15509,0.1558 -0.31018,0.1558 -0.46526,0.3115 -0.15509,0.7788 1.86103,2.6478 2.1712,0.9345 z"
       id="path743"
       inkscape:connector-curvature="0"
       style="fill:#ffffff;stroke:none;stroke-width:0.70476186" />
    <path
       d="m 693.84976,1009.0827 1.24069,0.7788 c -0.31017,0.623 -1.0856,1.869 -0.93052,2.6478 0.15509,1.5575 2.32629,1.5575 3.25681,0.623 1.0856,-1.246 1.0856,-3.1151 -0.46526,-4.0496 -0.93051,-0.4673 -2.01612,-0.3115 -3.10172,0 z"
       id="path744"
       inkscape:connector-curvature="0"
       style="fill:#ffffff;stroke:none;stroke-width:0.70476186" />
    <path
       d="m 638.17387,1013.4438 0.15508,0.1558 c 1.24069,-0.3115 2.01612,-0.7788 2.17121,-2.0248 -0.93052,0.1557 -1.86103,1.0903 -2.32629,1.869 z"
       id="selection_x5F_to_x5F_path_x23_5"
       inkscape:connector-curvature="0"
       style="fill:#ffffff;stroke:none;stroke-width:0.70476186" />
    <path
       d="m 639.25947,1007.6809 c -0.46526,-0.3115 -0.93052,-0.4673 -1.55086,-0.4673 -0.46526,0 -0.93052,0 -1.39577,0.1558 -1.55087,0.623 -1.70595,3.1151 -0.46526,4.2054 0.62034,0.623 2.1712,0.9345 2.79155,0.1557 0.62034,-0.623 0.46525,-1.4018 0.15508,-2.1805 -0.15508,-0.4673 -0.46526,-1.0903 -0.15508,-1.4018 0.15508,-0.3115 0.46525,-0.3115 0.62034,-0.4673 z"
       id="selection_x5F_to_x5F_path_x23_4"
       inkscape:connector-curvature="0"
       style="fill:#ffffff;stroke:none;stroke-width:0.70476186" />
    <path
       d="m 639.10438,1008.3039 c 0.15509,0.4673 0.93052,2.3363 1.24069,2.6479 0.46526,0.3115 0.93052,0.3115 1.39578,0.3115 l 2.79155,-0.1558 2.01612,0 c 0,-0.4673 0,-0.9345 -0.15509,-1.246 -0.46526,-1.2461 -2.17121,-1.8691 -3.41189,-1.8691 l -1.39578,0.1558 c -0.93052,0 -1.70595,-0.1558 -2.48138,0.1557 z"
       id="selection_x5F_to_x5F_path_x23_3"
       inkscape:connector-curvature="0"
       style="fill:#ffffff;stroke:none;stroke-width:0.70476186" />
    <path
       d="m 642.05102,1003.3198 c 2.94663,0.7788 2.94663,3.2708 4.18732,4.9841 0.46526,0.623 1.70595,1.5576 1.86103,2.1806 0.15509,0.4673 0,0.623 0.15509,1.7133 0.31017,1.4018 1.24069,2.8036 2.48138,3.5823 1.39577,0.9346 2.63646,1.5576 4.34241,1.0903 0.93051,-0.3115 1.86103,-0.9345 1.39577,-2.0248 -0.46526,-1.0903 -2.1712,0 -3.25681,-0.3115 -1.0856,-0.4673 -2.32629,-2.0248 -2.32629,-3.2708 l 0.62035,-2.1806 c -1.70595,-0.623 -3.72207,-2.0248 -4.4975,-3.7381 -0.46525,-1.0903 -0.46525,-2.6478 -1.24069,-3.4266 -1.39577,-1.0903 -3.2568,-0.1558 -3.72206,1.4018 z"
       id="selection_x5F_to_x5F_path_x23_2"
       inkscape:connector-curvature="0"
       style="fill:#ffffff;stroke:none;stroke-width:0.70476186" />
    <path
       d="m 649.49515,1006.9021 c 0.46526,0.6231 0.77543,0.7788 1.39577,1.0903 2.17121,1.2461 3.56698,0.3115 5.73819,-0.1557 l 4.49749,-1.4018 c -0.59553,-0.4019 -1.92617,-1.2383 -2.48137,-1.5576 l -2.94664,0.7788 -6.20344,1.246 z"
       id="path758"
       inkscape:connector-curvature="0"
       style="fill:#ffffff;stroke:none;stroke-width:0.70476186" />
    <path
       d="m 651.66635,1011.419 c 4.03224,0 7.75431,-1.246 11.63146,-2.1805 0,0 1.70595,-0.8109 2.27604,-0.8109 -0.53815,-0.3939 -2.73293,-1.1897 -3.07629,-1.5005 -0.46525,0.1386 -2.30147,0.7538 -2.92182,0.9096 l -3.87715,1.0902 -1.86103,0.4673 c -1.0856,0.4673 -1.86103,0.623 -2.17121,2.0248 z"
       id="path759"
       inkscape:connector-curvature="0"
       style="fill:#ffffff;stroke:none;stroke-width:0.70476186" />
    <g
       transform="matrix(0.24927978,0,0,0.24927978,-153.53922,753.85483)"
       id="g8064">
      <g
         transform="translate(636.31089,-849.16436)"
         id="g8060">
        <path
           inkscape:connector-curvature="0"
           d="m 297.62416,448.18446 0,7.875 -9.625,3.375 -9.75,3.25 9.375,-0.25 9.375,-0.25 0.375,51.25 c 0.25,50.125 0.25,51.375 -2.5,59.375 -5.5,15.875 -3.25,30.375 6.375,41.25 l 3.875,4.375 -3,-6.875 c -4.5,-10.125 -5,-15 -2.625,-23.125 4.625,-16 19.37501,-25.5 48.87501,-31.875 19.875,-4.125 28.875,-7 39,-12.5 20.875,-11.125 31.75,-29.875 29,-50.375 -4.375,-31.625 -47.125,-49.125 -100.875,-41.375 l -5.37501,0.875 0,-6.5 0,-6.375 -6.25,0 -6.25,0 0,7.875 z m 28.75001,17.375 c 7.5,3.125 14.25,9.875 17.75,17.75 2.25,5.125 2.75,8.625 2.75,18.25 0,10.625 -0.375,12.75 -3.625,19.375 -4.5,9.375 -12.375,17.875 -23.25,25 -4.5,3.125 -8.62501,5.625 -9.12501,5.625 -0.375,0 -0.75,-20.25 -0.75,-45 l 0,-45 5.37501,0.75 c 2.875,0.5 7.75,1.875 10.875,3.25 z"
           id="path33273"
           style="fill:#000000;stroke:none" />
        <path
           inkscape:connector-curvature="0"
           d="m 424.37417,510.80946 c -0.25,17.125 -10.375,31.875 -29,42.375 -10.25,5.625 -22.875,9.75 -42.375,13.75 -27,5.625 -36.375,10.75 -42.75001,23.5 -3,6 -3.875,9.375 -3.875,15.125 0,7.5 2.75,15.125 6.75001,18.375 1.875,1.5 1.875,1.25 0.125,-2.75 -4.50001,-10.75 -0.5,-25.25 9.25,-33.625 6.125,-5.25 16,-8.625 35.75,-12.25 36,-6.75 56.75,-18.75 65.875,-38.375 3.125,-6.625 3.75,-9.625 3.75,-17 0,-5 -0.75,-11.125 -1.625,-13.625 l -1.75,-4.625 -0.125,9.125 z"
           id="path33275"
           style="fill:#77a1c8;fill-opacity:1;stroke:none" />
      </g>
      <circle
         transform="matrix(0,-1,1,0,0,0)"
         r="127.77704"
         cy="989.37256"
         cx="316.6192"
         id="path7258"
         style="opacity:1;fill:none;fill-opacity:1;fill-rule:nonzero;stroke:#000000;stroke-width:14.51531315;stroke-miterlimit:4;stroke-dasharray:none;stroke-dashoffset:0;stroke-opacity:1" />
    </g>
    <ellipse
       id="circle3807"
       cy="960.38068"
       cx="667.37854"
       style="fill:none;stroke:#ffffff;stroke-width:2.19068027"
       rx="16.714401"
       ry="16.786434" />
    <path
       id="path3809"
       d="m 667.24198,949.88922 c -4.95019,0 -9.09781,3.46257 -10.17333,8.10701 l 4.99175,0 c 0.90074,-1.96998 2.88305,-3.33812 5.18158,-3.33812 3.14546,0 5.69817,2.56371 5.69817,5.72257 0,3.15885 -2.55271,5.72273 -5.69817,5.72273 -2.29853,0 -4.28099,-1.3683 -5.18158,-3.33829 l -4.99175,0 c 1.07552,4.64445 5.22314,8.10702 10.17333,8.10702 5.76657,0 10.44644,-4.7002 10.44644,-10.49146 0,-5.79126 -4.68003,-10.49146 -10.44644,-10.49146 z"
       inkscape:connector-curvature="0"
       style="fill:#ffffff" />
    <g
       transform="matrix(-0.16596478,0.04466179,-0.04447013,-0.16668005,430.13946,729.83039)"
       style="font-style:normal;font-weight:normal;font-size:121.8484726px;line-height:125%;font-family:'Bitstream Vera Sans';letter-spacing:0px;word-spacing:0px;fill:#ffffff;fill-opacity:1;stroke:none"
       id="text3059"
       inkscape:export-filename="/srv/http/kiwwwi.com.ar/pastes/utopia-pirata-2.png"
       inkscape:export-xdpi="149"
       inkscape:export-ydpi="149">
      <g
         id="g3922"
         transform="matrix(0.99707364,-0.07644708,0.07644708,0.99707364,125.06749,-81.555005)">
        <circle
           inkscape:export-ydpi="149"
           inkscape:export-xdpi="149"
           inkscape:export-filename="/srv/http/kiwwwi.com.ar/pastes/utopia-pirata-1.png"
           style="fill:none;stroke:none"
           id="path3865"
           transform="matrix(-0.8718552,-0.2336129,0.2336129,-0.8718552,-1786.4657,-3244.8873)"
           cx="-1311.178"
           cy="-1543.7299"
           r="127.27922" />
        <path
           inkscape:connector-curvature="0"
           id="path3897"
           style="font-style:normal;font-variant:normal;font-weight:normal;font-stretch:normal;font-family:'League Gothic';-inkscape-font-specification:'League Gothic';fill:#ffffff"
           d="m -778.04883,-1594.9487 -70.08465,-12.3215 c -3.57914,-0.7529 -6.69277,-2.0426 -9.22087,-3.848 -2.21027,-1.502 -4.19505,-3.583 -5.5732,-6.2996 -1.49816,-2.7377 -2.00858,-6.1679 -1.24904,-10.4881 0.75954,-4.3203 2.43037,-7.4907 4.77246,-9.5532 2.22209,-2.0837 4.77652,-3.243 7.36656,-3.9011 2.99226,-0.8348 6.35907,-0.9852 9.98041,-0.4723 l 70.08465,12.3215 -2.27862,12.9608 -70.08465,-12.3214 c -2.52017,-0.4431 -4.30577,-0.1384 -5.83684,0.8296 -0.70553,0.4946 -1.21325,1.2713 -1.40313,2.3514 -0.40087,2.2801 0.84934,3.6134 2.56507,4.4099 0.77676,0.5077 1.83573,0.8176 3.15582,1.0497 l 70.08465,12.3214 -2.27862,12.9609" />
        <path
           inkscape:connector-curvature="0"
           id="path3899"
           style="font-style:normal;font-variant:normal;font-weight:normal;font-stretch:normal;font-family:'League Gothic';-inkscape-font-specification:'League Gothic';fill:#ffffff"
           d="m -801.09593,-1568.8963 11.85811,6.5051 -18.28444,33.3309 -11.85812,-6.5051 5.97761,-10.8966 -66.66184,-36.5689 6.32923,-11.5376 66.66184,36.5689 5.97761,-10.8967" />
        <path
           inkscape:connector-curvature="0"
           id="path3901"
           style="font-style:normal;font-variant:normal;font-weight:normal;font-stretch:normal;font-family:'League Gothic';-inkscape-font-specification:'League Gothic';fill:#ffffff"
           d="m -902.22684,-1531.2768 c -2.40064,-2.7594 -4.10625,-5.6661 -5.0338,-8.6309 -0.857,-2.5312 -1.18494,-5.3882 -0.64563,-8.3863 0.45632,-3.0873 2.1181,-6.1311 5.32973,-9.1189 3.21164,-2.9879 6.45655,-4.5088 9.56871,-4.7413 3.02918,-0.3218 5.76585,0.2943 8.22867,1.3316 2.89022,1.139 5.66638,3.0497 8.24545,5.6431 l 35.93698,38.6289 c 2.31765,2.6701 4.02326,5.5768 4.95082,8.5417 0.85699,2.5312 1.35714,5.3944 0.81783,8.3924 -0.53932,2.9981 -2.20731,6.2141 -5.41895,9.202 -3.21163,2.9878 -6.45032,4.3365 -9.47949,4.6583 -3.02918,0.3217 -5.93806,-0.3006 -8.40087,-1.3379 -2.89023,-1.1389 -5.66638,-3.0497 -8.16246,-5.5539 l -35.93699,-38.6288 m 45.57191,29.6653 c 1.65991,1.7843 3.1787,2.7013 5.06676,2.9419 0.86104,0.031 1.82372,-0.3653 2.62663,-1.1122 1.69503,-1.5769 1.33601,-3.5729 0.61392,-5.0646 -0.39633,-0.9627 -1.05407,-1.8486 -1.88403,-2.7407 l -35.93698,-38.6289 c -1.74291,-1.8735 -3.35091,-2.7075 -5.15597,-2.8588 -0.86104,-0.031 -1.73451,0.2822 -2.53742,1.0292 -1.69503,1.5769 -1.502,3.3944 -0.61392,5.0645 0.31333,0.8735 0.97108,1.7594 1.88402,2.7408 l 35.93699,38.6288" />
        <path
           inkscape:connector-curvature="0"
           id="path3903"
           style="font-style:normal;font-variant:normal;font-weight:normal;font-stretch:normal;font-family:'League Gothic';-inkscape-font-specification:'League Gothic';fill:#ffffff"
           d="m -886.59996,-1457.8116 -12.05827,5.2702 c -5.24757,2.2934 -11.08073,3.2471 -16.75926,1.2077 -5.67853,-2.0394 -11.09081,-7.1207 -15.18979,-16.4994 -4.09898,-9.3786 -4.10323,-16.6905 -1.74292,-22.2434 2.3603,-5.5528 6.92473,-9.4094 12.1723,-11.7029 l -14.34645,-32.8252 12.05826,-5.2702 35.86613,82.0632 m -28.21022,-31.6862 c -3.68447,1.6103 -5.73635,3.305 -6.2466,5.7886 -0.55905,2.372 0.42353,5.5329 2.42423,10.1106 2.00069,4.5777 3.75077,7.6692 5.96893,9.0933 2.21816,1.4242 4.95321,1.2926 8.63767,-0.3177 l -10.78423,-24.6748" />
        <path
           inkscape:connector-curvature="0"
           id="path3905"
           style="font-style:normal;font-variant:normal;font-weight:normal;font-stretch:normal;font-family:'League Gothic';-inkscape-font-specification:'League Gothic';fill:#ffffff"
           d="m -948.99443,-1436.6047 -13.00674,2.0001 -13.61231,-88.5181 13.00674,-2.0001 13.61231,88.5181" />
        <path
           inkscape:connector-curvature="0"
           id="path3907"
           style="font-style:normal;font-variant:normal;font-weight:normal;font-stretch:normal;font-family:'League Gothic';-inkscape-font-specification:'League Gothic';fill:#ffffff"
           d="m -981.75508,-1521.0222 -23.62102,87.4398 -15.9797,-1.8289 -3.2539,-90.5157 12.7111,1.4548 0.3429,18.4359 12.59007,1.4409 4.49944,-17.8816 12.71111,1.4548 m -29.02582,57.5093 0.1,2.3417 0.7264,0.083 0.6264,-2.2585 6.9672,-27.656 -8.9583,-1.0253 0.5384,28.515" />
        <path
           inkscape:connector-curvature="0"
           id="path3909"
           style="font-style:normal;font-variant:normal;font-weight:normal;font-stretch:normal;font-family:'League Gothic';-inkscape-font-specification:'League Gothic';fill:#ffffff"
           d="m -1099.1166,-1462.6292 -10.788,-7.5362 c -4.6948,-3.2797 -8.5522,-7.758 -9.7757,-13.6663 -1.2235,-5.9083 0.2868,-13.1768 6.1483,-21.5675 5.8615,-8.3906 12.0967,-12.2098 18.0653,-13.094 5.9685,-0.8841 11.6402,0.9971 16.335,4.2767 l 20.5152,-29.3674 10.7881,7.5362 -51.2882,73.4185 m 12.3091,-40.5995 c -3.2963,-2.3027 -5.8127,-3.1688 -8.1976,-2.308 -2.3152,0.7609 -4.4989,3.2485 -7.3599,7.344 -2.8609,4.0954 -4.5849,7.2016 -4.6423,9.8369 -0.057,2.6354 1.4821,4.8999 4.7784,7.2026 l 15.4214,-22.0755" />
        <path
           inkscape:connector-curvature="0"
           id="path3911"
           style="font-style:normal;font-variant:normal;font-weight:normal;font-stretch:normal;font-family:'League Gothic';-inkscape-font-specification:'League Gothic';fill:#ffffff"
           d="m -1149.6319,-1504.5948 -8.5195,-10.0296 68.2572,-57.9801 8.5196,10.0296 -68.2573,57.9801" />
        <path
           inkscape:connector-curvature="0"
           id="path3913"
           style="font-style:normal;font-variant:normal;font-weight:normal;font-stretch:normal;font-family:'League Gothic';-inkscape-font-specification:'League Gothic';fill:#ffffff"
           d="m -1106.4208,-1601.3444 -31.2348,22.3102 1.5099,3.1948 34.1507,-16.1412 5.6233,11.8977 -80.97,38.2701 -5.6234,-11.8977 c -6.7168,-14.211 -1.5386,-24.071 13.7741,-31.3085 8.0419,-3.8009 16.302,-5.1443 21.5214,-2.0855 l 35.6254,-26.1376 5.6234,11.8977 m -40.7412,30.7118 c -0.781,-1.6525 -2.0427,-3.7516 -4.4181,-4.7852 -2.3754,-1.0337 -6.0267,-1.06 -11.7551,1.6476 -5.7285,2.7075 -8.1362,5.5975 -8.8454,8.0891 -0.7092,2.4916 0.222,4.7469 1.003,6.3994 l 24.0156,-11.3509" />
        <path
           inkscape:connector-curvature="0"
           id="path3915"
           style="font-style:normal;font-variant:normal;font-weight:normal;font-stretch:normal;font-family:'League Gothic';-inkscape-font-specification:'League Gothic';fill:#ffffff"
           d="m -1113.2219,-1617.132 -90.458,-4.5863 -1.5934,-16.0049 87.7782,-22.331 1.2675,12.7311 -17.946,4.2357 1.2554,12.6099 18.4288,0.6143 1.2675,12.7312 m -62.3486,-16.2013 -2.2675,0.5931 0.072,0.7275 2.34,0.1344 28.504,0.9582 -0.8933,-8.9724 -27.7556,6.5592" />
        <path
           inkscape:connector-curvature="0"
           id="path3917"
           style="font-style:normal;font-variant:normal;font-weight:normal;font-stretch:normal;font-family:'League Gothic';-inkscape-font-specification:'League Gothic';fill:#ffffff"
           d="m -1191.1447,-1674.8241 -13.2316,-2.8027 7.8779,-37.1915 13.2316,2.8027 -2.5754,12.1588 74.383,15.7558 -2.727,12.874 -74.383,-15.7558 -2.5755,12.1587" />
        <path
           inkscape:connector-curvature="0"
           id="path3919"
           style="font-style:normal;font-variant:normal;font-weight:normal;font-stretch:normal;font-family:'League Gothic';-inkscape-font-specification:'League Gothic';fill:#ffffff"
           d="m -1109.3262,-1695.6338 -70.438,-56.94 8.1301,-13.8779 84.1114,33.5999 -6.4672,11.0393 -17.0021,-7.1361 -6.4056,10.9341 14.5385,11.3415 -6.4671,11.0392 m -40.876,-49.7893 -2.1823,-0.8549 -0.3696,0.6309 1.8128,1.4856 22.4821,17.5485 4.5578,-7.78 -26.3008,-11.0301" />
      </g>
    </g>
    <g
       id="g3370"
       transform="matrix(1.2338926,0,0,1.2338926,66.731378,-299.66643)">
      <g
         id="text3025"
         style="font-style:normal;font-variant:normal;font-weight:normal;font-stretch:normal;font-size:40px;line-height:125%;font-family:'League Gothic';-inkscape-font-specification:'League Gothic';letter-spacing:0px;word-spacing:0px;fill:#000000;fill-opacity:1;stroke:none"
         transform="translate(-0.25254936,-1.7019788)">
        <path
           id="path3042"
           d="m 279.52057,812.36212 4.31641,0 0,-12.79297 3.35937,0 0,12.79297 4.31641,0 0,-29.39453 -4.31641,0 0,12.14844 -3.35937,0 0,-12.14844 -4.31641,0 0,29.39453"
           inkscape:connector-curvature="0" />
        <path
           id="path3044"
           d="m 294.75494,812.36212 4.04297,0 0,-21.875 -4.04297,0 0,21.875 m 0,-25.35156 4.04297,0 0,-4.04297 -4.04297,0 0,4.04297"
           inkscape:connector-curvature="0" />
        <path
           id="path3046"
           d="m 301.14166,805.99493 c 0,1.70574 0.31901,3.10548 0.95703,4.19922 0.96354,1.65365 2.52604,2.48047 4.6875,2.48047 1.71875,0 3.05989,-0.66406 4.02344,-1.99219 0.7552,-1.05468 1.1328,-2.38931 1.13281,-4.0039 -10e-6,-1.21093 -0.40365,-2.47395 -1.21093,-3.78906 -0.4297,-0.67708 -1.26954,-1.64062 -2.51953,-2.89063 -0.78126,-0.72915 -1.3672,-1.35415 -1.75782,-1.875 -0.58594,-0.71613 -0.87891,-1.39972 -0.8789,-2.05078 -1e-5,-0.72915 0.0781,-1.28905 0.23437,-1.67969 0.18229,-0.58592 0.52083,-0.87889 1.01563,-0.8789 0.53384,1e-5 0.91796,0.29298 1.15234,0.8789 0.10416,0.35158 0.15624,0.91148 0.15625,1.67969 l 3.76953,0 c -1e-5,-1.70571 -0.26694,-3.00779 -0.80078,-3.90625 -0.79428,-1.34113 -2.18751,-2.0117 -4.17969,-2.01172 -0.0521,2e-5 -0.11068,2e-5 -0.17578,0 -1.71875,0.0391 -3.02735,0.70966 -3.92578,2.01172 -0.66406,1.00262 -0.9961,2.3047 -0.99609,3.90625 -1e-5,1.3672 0.41015,2.66277 1.23047,3.88672 0.45572,0.67709 1.32161,1.62761 2.59765,2.85156 0.54687,0.54688 0.96354,0.98308 1.25,1.30859 0.28645,0.31251 0.5664,0.71616 0.83985,1.21094 0.28645,0.48178 0.42967,0.931 0.42968,1.34766 -10e-6,1.75781 -0.46224,2.63672 -1.38672,2.63672 -0.71615,0 -1.23698,-0.41016 -1.5625,-1.23047 -0.22135,-0.52083 -0.33203,-1.21744 -0.33203,-2.08985 l -3.75,0"
           inkscape:connector-curvature="0" />
        <path
           id="path3048"
           d="m 313.15338,794.11993 2.05078,0 0,11.21094 c 0,2.00521 0.20182,3.54818 0.60547,4.62891 0.67708,1.80989 2.01823,2.71484 4.02344,2.71484 0.65103,0 1.17187,-0.0391 1.5625,-0.11719 0.0651,-0.013 0.16275,-0.0391 0.29297,-0.0781 0.14322,-0.0391 0.24738,-0.0651 0.3125,-0.0781 l 0,-3.96484 c -0.0521,0.013 -0.13022,0.0261 -0.23438,0.0391 -0.10417,0.013 -0.1823,0.026 -0.23437,0.0391 -0.36459,0.0521 -0.70314,0.0781 -1.01563,0.0781 -0.5599,0 -0.93099,-0.43619 -1.11328,-1.30859 -0.10417,-0.48177 -0.15626,-1.24349 -0.15625,-2.28516 l 0,-10.87891 2.75391,0 0,-3.63281 -2.75391,0 0,-5.41015 -4.04297,0 0,5.41015 -2.05078,0 0,3.63281"
           inkscape:connector-curvature="0" />
        <path
           id="path3050"
           d="m 323.75885,806.9129 c 0.0391,0.98959 0.2539,1.95313 0.64453,2.89063 0.85937,1.91406 2.36979,2.87109 4.53125,2.87109 1.3151,0 2.32421,-0.29297 3.02735,-0.8789 0.70311,-0.57292 1.22394,-1.23698 1.5625,-1.99219 0.33853,-0.76823 0.54035,-1.6862 0.60546,-2.75391 l 0,-11.25 c -0.0391,-0.92446 -0.25391,-1.85545 -0.64453,-2.79297 -0.8724,-1.90102 -2.38933,-2.85154 -4.55078,-2.85156 -1.34115,2e-5 -2.34375,0.29299 -3.00781,0.87891 -1.32813,1.11981 -2.05078,2.74741 -2.16797,4.88281 l 0,10.99609 m 3.80859,0 0,-10.99609 c -0.013,-0.10415 -0.0195,-0.20832 -0.0195,-0.3125 0,-0.29946 0.0456,-0.56639 0.13672,-0.80078 0.19531,-0.74217 0.61197,-1.11326 1.25,-1.11328 0.3776,2e-5 0.67057,0.10418 0.87891,0.3125 0.33853,0.4297 0.5078,0.99611 0.50781,1.69922 -10e-6,0.0781 -10e-6,0.14975 0,0.21484 l 0,10.99609 c 0.013,0.10417 0.0195,0.20834 0.0195,0.3125 -1e-5,0.31251 -0.0456,0.58594 -0.13672,0.82032 -0.1823,0.71614 -0.60547,1.07422 -1.26953,1.07421 -0.35157,1e-5 -0.63151,-0.10416 -0.83984,-0.3125 -0.35157,-0.45572 -0.52735,-1.01562 -0.52735,-1.67968 0,-0.0781 0,-0.14974 0,-0.21485"
           inkscape:connector-curvature="0" />
        <path
           id="path3052"
           d="m 336.94244,812.36212 4.04297,0 0,-15.19531 c 0,-0.84634 0.29297,-1.51691 0.87891,-2.01172 0.46874,-0.44269 1.14582,-0.66404 2.03125,-0.66406 0.4427,2e-5 0.8203,0.0521 1.13281,0.15625 l 0,-4.49219 c -1.22397,2e-5 -2.25261,0.39065 -3.08594,1.17188 -0.28646,0.28647 -0.51433,0.57944 -0.68359,0.8789 -0.15626,0.2995 -0.2474,0.54039 -0.27344,0.72266 l 0,-2.44141 -4.04297,0 0,21.875"
           inkscape:connector-curvature="0" />
        <path
           id="path3054"
           d="m 346.78619,812.36212 4.04297,0 0,-21.875 -4.04297,0 0,21.875 m 0,-25.35156 4.04297,0 0,-4.04297 -4.04297,0 0,4.04297"
           inkscape:connector-curvature="0" />
        <path
           id="path3056"
           d="m 353.40729,807.284 c 0,2.00521 0.41666,3.47005 1.25,4.39453 0.53385,0.66406 1.19791,0.99609 1.99219,0.99609 0.78124,0 1.49087,-0.2539 2.1289,-0.76172 0.45572,-0.36458 0.82682,-0.80078 1.11328,-1.30859 l 0.27344,0 c -10e-6,0.85937 0.12369,1.44531 0.37109,1.75781 l 3.94532,0 c -0.18231,-1.11979 -0.27345,-2.38932 -0.27344,-3.80859 l 0,-13.4375 c -1e-5,-1.41925 -0.4948,-2.60415 -1.48438,-3.55469 -0.97657,-0.93748 -2.1224,-1.40623 -3.4375,-1.40625 -1.5625,2e-5 -2.85156,0.57294 -3.86718,1.71875 -1.04167,1.17189 -1.56251,2.54559 -1.5625,4.12109 l 0,0.91797 4.04297,0 0,-1.03515 c -10e-6,-0.27342 0.026,-0.61848 0.0781,-1.03516 0.14322,-0.76821 0.5013,-1.15232 1.07422,-1.15234 0.48176,2e-5 0.81379,0.22137 0.99609,0.66406 0.0781,0.26043 0.11718,0.70314 0.11719,1.32812 l 0,2.40235 c -0.026,0.0651 -0.0586,0.13022 -0.0977,0.19531 -0.0391,0.0521 -0.0977,0.11069 -0.17578,0.17578 -0.0781,0.0651 -0.15625,0.12371 -0.23437,0.17578 -0.0651,0.0391 -0.16277,0.0977 -0.29297,0.17578 -0.13022,0.0651 -0.24089,0.12372 -0.33203,0.17579 -0.0781,0.0391 -0.20834,0.10418 -0.39063,0.19531 -0.16927,0.0912 -0.29948,0.16277 -0.39062,0.21484 -1.35417,0.71616 -2.40886,1.54298 -3.16406,2.48047 -1.1198,1.39324 -1.67969,3.19662 -1.67969,5.41016 m 3.96484,-0.60547 c 0,-1.09375 0.22786,-2.07682 0.6836,-2.94922 0.46874,-0.88541 1.17186,-1.52994 2.10937,-1.93359 l 0,5.60546 c -10e-6,0.37761 -0.16277,0.69662 -0.48828,0.95704 -0.32553,0.24739 -0.72266,0.37109 -1.19141,0.37109 -0.42969,0 -0.73568,-0.27994 -0.91797,-0.83984 -0.13021,-0.3776 -0.19531,-0.78125 -0.19531,-1.21094"
           inkscape:connector-curvature="0" />
        <path
           id="path3058"
           d="m 372.95807,808.39728 c 0,1.10677 0.2539,2.04427 0.76172,2.8125 0.57291,0.97656 1.35416,1.46484 2.34375,1.46484 0.41666,0 0.80728,-0.0911 1.17187,-0.27344 0.59895,-0.27343 1.27604,-0.76822 2.03125,-1.48437 l 0,1.44531 4.04297,0 0,-29.39453 -4.04297,0 0,8.94531 c -0.44271,-0.3906 -0.78776,-0.68357 -1.03515,-0.8789 -0.79428,-0.58592 -1.51694,-0.87889 -2.16797,-0.87891 -0.97657,2e-5 -1.75782,0.48179 -2.34375,1.44531 -0.50782,0.80731 -0.76172,1.75132 -0.76172,2.83203 l 0,13.96485 m 4.04297,-0.83985 0,-12.26562 c -10e-6,-0.37759 0.10416,-0.69009 0.3125,-0.9375 0.20832,-0.2604 0.46223,-0.39061 0.76172,-0.39063 0.29947,2e-5 0.57291,0.14325 0.82031,0.42969 0.24739,0.27346 0.37108,0.57294 0.37109,0.89844 l 0,12.26562 c -10e-6,0.37761 -0.1237,0.69662 -0.37109,0.95704 -0.23438,0.24739 -0.50782,0.37109 -0.82031,0.37109 -0.29949,0 -0.5534,-0.1237 -0.76172,-0.37109 -0.20834,-0.26042 -0.31251,-0.57943 -0.3125,-0.95704"
           inkscape:connector-curvature="0" />
        <path
           id="path3060"
           d="m 386.23932,806.9129 c 0.0391,1.01563 0.24739,1.97917 0.625,2.89063 0.85937,1.91406 2.38281,2.87109 4.57031,2.87109 1.3151,0 2.32421,-0.29297 3.02735,-0.8789 0.71613,-0.57292 1.24347,-1.23698 1.58203,-1.99219 0.35155,-0.75521 0.55988,-1.67318 0.625,-2.75391 l 0,-2.51953 -3.75,0 0,2.38281 c -1e-5,0.44272 -0.0586,0.82032 -0.17578,1.13282 -0.1823,0.71614 -0.60548,1.07422 -1.26954,1.07421 -0.35156,1e-5 -0.63151,-0.10416 -0.83984,-0.3125 -0.39063,-0.5078 -0.60547,-1.13931 -0.64453,-1.89453 l 0,-4.74609 6.67969,0 0,-6.36719 c -0.0391,-0.92446 -0.25392,-1.85545 -0.64453,-2.79297 -0.87241,-1.90102 -2.38934,-2.85154 -4.55079,-2.85156 -1.34115,2e-5 -2.34375,0.29299 -3.00781,0.87891 -1.36719,1.13283 -2.10938,2.76043 -2.22656,4.88281 l 0,10.99609 m 3.75,-7.91015 0,-3.08594 c 0.0391,-0.5078 0.10416,-0.87889 0.19531,-1.11328 0.23437,-0.74217 0.66406,-1.11326 1.28906,-1.11328 0.3776,2e-5 0.67057,0.10418 0.87891,0.3125 0.3776,0.46876 0.5664,1.10678 0.56641,1.91406 l 0,3.08594 -2.92969,0"
           inkscape:connector-curvature="0" />
        <path
           id="path3062"
           d="m 399.44244,812.36212 4.04297,0 0,-29.39453 -4.04297,0 0,29.39453"
           inkscape:connector-curvature="0" />
        <path
           id="path3064"
           d="m 412.60651,806.32697 c 0.0391,1.26302 0.27343,2.33073 0.70312,3.20312 0.39062,0.8724 0.95052,1.58854 1.67969,2.14844 0.82031,0.66406 1.9401,0.99609 3.35937,0.99609 1.39322,0 2.49999,-0.33203 3.32032,-0.99609 0.79426,-0.59896 1.37368,-1.3151 1.73828,-2.14844 0.42967,-0.87239 0.66405,-1.9401 0.70312,-3.20312 l 0,-4.04297 -4.02343,0 0,4.04297 c -10e-6,0.44271 -0.0586,0.80078 -0.17579,1.07421 -0.23438,0.71615 -0.72266,1.07423 -1.46484,1.07422 -0.35157,10e-6 -0.63152,-0.10416 -0.83984,-0.3125 -0.41668,-0.48176 -0.64454,-1.09374 -0.6836,-1.83593 l 0,-17.32422 c 0.0521,-0.50779 0.11718,-0.86586 0.19532,-1.07422 0.27343,-0.72914 0.71613,-1.09373 1.32812,-1.09375 0.4427,2e-5 0.77473,0.1107 0.99609,0.33203 0.42968,0.46877 0.64453,1.08075 0.64454,1.83594 l 0,4.04297 4.02343,0 0,-4.04297 c -0.0391,-1.23696 -0.27345,-2.29164 -0.70312,-3.16407 -0.37762,-0.87236 -0.95704,-1.60153 -1.73828,-2.1875 -0.89845,-0.67705 -2.00522,-1.01559 -3.32032,-1.01562 -1.34115,3e-5 -2.46094,0.33857 -3.35937,1.01562 -0.71615,0.54691 -1.27605,1.27607 -1.67969,2.1875 -0.42969,0.87243 -0.66406,1.92711 -0.70312,3.16407 l 0,17.32422"
           inkscape:connector-curvature="0" />
        <path
           id="path3066"
           d="m 426.33698,806.9129 c 0.0391,0.98959 0.2539,1.95313 0.64453,2.89063 0.85937,1.91406 2.36978,2.87109 4.53125,2.87109 1.31509,0 2.32421,-0.29297 3.02734,-0.8789 0.70311,-0.57292 1.22395,-1.23698 1.5625,-1.99219 0.33853,-0.76823 0.54035,-1.6862 0.60547,-2.75391 l 0,-11.25 c -0.0391,-0.92446 -0.25392,-1.85545 -0.64453,-2.79297 -0.87241,-1.90102 -2.38933,-2.85154 -4.55078,-2.85156 -1.34115,2e-5 -2.34376,0.29299 -3.00782,0.87891 -1.32812,1.11981 -2.05078,2.74741 -2.16796,4.88281 l 0,10.99609 m 3.80859,0 0,-10.99609 c -0.013,-0.10415 -0.0195,-0.20832 -0.0195,-0.3125 -1e-5,-0.29946 0.0456,-0.56639 0.13672,-0.80078 0.1953,-0.74217 0.61197,-1.11326 1.25,-1.11328 0.37759,2e-5 0.67056,0.10418 0.8789,0.3125 0.33854,0.4297 0.50781,0.99611 0.50782,1.69922 -1e-5,0.0781 -1e-5,0.14975 0,0.21484 l 0,10.99609 c 0.013,0.10417 0.0195,0.20834 0.0195,0.3125 -1e-5,0.31251 -0.0456,0.58594 -0.13672,0.82032 -0.1823,0.71614 -0.60548,1.07422 -1.26953,1.07421 -0.35157,1e-5 -0.63152,-0.10416 -0.83985,-0.3125 -0.35157,-0.45572 -0.52735,-1.01562 -0.52734,-1.67968 -1e-5,-0.0781 -1e-5,-0.14974 0,-0.21485"
           inkscape:connector-curvature="0" />
        <path
           id="path3068"
           d="m 439.52057,819.88165 4.04297,0 0,-8.96484 c 0.4427,0.39063 0.78775,0.68359 1.03515,0.87891 0.79427,0.58593 1.51692,0.8789 2.16797,0.8789 0.97656,0 1.77083,-0.48828 2.38282,-1.46484 0.48175,-0.79427 0.72264,-1.73177 0.72265,-2.8125 l 0,-13.96485 c -1e-5,-1.05466 -0.2409,-1.99867 -0.72265,-2.83203 -0.63804,-0.96352 -1.43231,-1.44529 -2.38282,-1.44531 -0.40365,2e-5 -0.78126,0.0977 -1.13281,0.29297 -0.65105,0.28648 -1.34115,0.77476 -2.07031,1.46484 l 0,-1.42578 -4.04297,0 0,29.39453 m 4.04297,-12.32422 0,-12.26562 c -10e-6,-0.37759 0.11718,-0.69009 0.35156,-0.9375 0.24739,-0.2604 0.52734,-0.39061 0.83984,-0.39063 0.29948,2e-5 0.55338,0.13023 0.76172,0.39063 0.22135,0.24741 0.33203,0.55991 0.33203,0.9375 l 0,12.26562 c 0,0.37761 -0.11068,0.69662 -0.33203,0.95704 -0.20834,0.24739 -0.46224,0.37109 -0.76172,0.37109 -0.29948,0 -0.57292,-0.13672 -0.82031,-0.41016 -0.2474,-0.28645 -0.3711,-0.59244 -0.37109,-0.91797"
           inkscape:connector-curvature="0" />
        <path
           id="path3070"
           d="m 451.84479,790.48712 3.71094,22.51953 c -10e-6,0.44271 -0.0521,0.83985 -0.15625,1.19141 -0.23438,0.84635 -0.67709,1.51692 -1.32813,2.01172 -0.27344,0.20833 -0.63802,0.33202 -1.09375,0.37109 -0.44271,0.0391 -0.69011,0.0326 -0.74219,-0.0195 -0.13021,0 -0.20833,-0.013 -0.23437,-0.0391 l 0,3.59375 c 0.65104,0.0521 1.08724,0.0781 1.30859,0.0781 l 0.48828,0 c 1.48437,0 2.76692,-0.65105 3.84766,-1.95312 0.96353,-1.15886 1.54947,-2.57162 1.75781,-4.23828 l 3.86719,-23.51563 -3.94531,0 -1.60157,13.4375 -0.0781,1.11328 -0.17578,0 -0.0781,-1.11328 -1.60156,-13.4375 -3.94531,0"
           inkscape:connector-curvature="0" />
        <path
           id="path3072"
           d="m 465.37994,812.36212 4.04297,0 0,-15.19531 c 0,-0.84634 0.29297,-1.51691 0.87891,-2.01172 0.46874,-0.44269 1.14582,-0.66404 2.03125,-0.66406 0.4427,2e-5 0.8203,0.0521 1.13281,0.15625 l 0,-4.49219 c -1.22397,2e-5 -2.25261,0.39065 -3.08594,1.17188 -0.28646,0.28647 -0.51433,0.57944 -0.68359,0.8789 -0.15626,0.2995 -0.2474,0.54039 -0.27344,0.72266 l 0,-2.44141 -4.04297,0 0,21.875"
           inkscape:connector-curvature="0" />
        <path
           id="path3074"
           d="m 475.22369,812.36212 4.04297,0 0,-21.875 -4.04297,0 0,21.875 m 0,-25.35156 4.04297,0 0,-4.04297 -4.04297,0 0,4.04297"
           inkscape:connector-curvature="0" />
        <path
           id="path3076"
           d="m 481.12213,815.95587 c 0,1.52343 0.59896,2.61718 1.79688,3.28125 1.02864,0.59895 2.59114,0.91796 4.6875,0.95703 1.90103,0 3.47655,-0.39714 4.72656,-1.1914 1.45832,-0.95053 2.18749,-2.41537 2.1875,-4.39453 -1e-5,-1.69271 -0.61199,-2.97526 -1.83594,-3.84766 -0.92449,-0.625 -2.17449,-1.03515 -3.75,-1.23047 -0.88542,-0.13021 -1.58204,-0.27994 -2.08984,-0.44922 -0.66407,-0.16927 -0.9961,-0.47526 -0.9961,-0.91797 0,-0.32551 0.1888,-0.65754 0.56641,-0.99609 0.0781,0.026 0.20833,0.0391 0.39063,0.0391 l 0.37109,0 c 1.24999,10e-6 2.23306,-0.27994 2.94922,-0.83984 1.3802,-1.05468 2.12889,-2.57812 2.24609,-4.57031 l 0,-6.19141 c -1e-5,-0.1953 -0.013,-0.33202 -0.0391,-0.41016 -0.026,-0.0781 -0.0391,-0.22133 -0.0391,-0.42968 -0.0261,-0.0521 -0.0651,-0.22785 -0.11719,-0.52735 0.55988,-0.31248 1.34113,-0.46873 2.34375,-0.46875 l 0,-3.61328 c -0.55991,2e-5 -1.19793,0.26695 -1.91406,0.80078 -0.4297,0.2995 -0.89845,0.70315 -1.40625,1.21094 -0.95053,-1.34113 -2.29168,-2.0117 -4.02344,-2.01172 -1.28907,2e-5 -2.26563,0.29299 -2.92969,0.87891 -1.3151,1.08075 -2.05078,2.64324 -2.20703,4.6875 l 0,5.95703 c 0.026,0.45574 0.13672,1.05469 0.33203,1.79687 0.36458,1.34116 1.02864,2.33074 1.99219,2.96875 -0.625,0.32553 -1.1849,0.79428 -1.67969,1.40625 -0.5599,0.69011 -0.83984,1.31511 -0.83984,1.875 0,1.51042 0.8138,2.48047 2.4414,2.91016 -0.92448,0.42969 -1.64713,0.88541 -2.16796,1.36719 -0.66407,0.62499 -0.9961,1.27604 -0.9961,1.95312 m 3.92578,-0.66406 c 0,-0.71615 0.49479,-1.36068 1.48438,-1.93359 l 2.07031,0.41015 c 0.91145,0.14323 1.52343,0.35156 1.83594,0.625 0.22134,0.22135 0.33202,0.53385 0.33203,0.9375 -10e-6,0.46875 -0.34506,0.83984 -1.03516,1.11328 -0.59896,0.23437 -1.28256,0.35156 -2.05078,0.35157 -0.88542,-10e-6 -1.54948,-0.13673 -1.99219,-0.41016 -0.42969,-0.27344 -0.64453,-0.63803 -0.64453,-1.09375 m 0.95703,-13.41797 0,-5.99609 c -0.013,-0.10415 -0.0195,-0.20832 -0.0195,-0.3125 0,-0.23436 0.0326,-0.46223 0.0977,-0.6836 0.15624,-0.66404 0.52083,-0.99607 1.09375,-0.99609 0.32551,2e-5 0.57291,0.10418 0.74219,0.3125 0.32551,0.46877 0.48827,1.02866 0.48828,1.67969 l 0,5.99609 c -1e-5,0.40366 -0.0391,0.7422 -0.11719,1.01563 -0.20834,0.63803 -0.57943,0.95704 -1.11328,0.95703 -0.29949,10e-6 -0.54037,-0.11067 -0.72266,-0.33203 -0.29948,-0.33854 -0.44922,-0.8138 -0.44922,-1.42579 0,-0.0651 0,-0.1367 0,-0.21484"
           inkscape:connector-curvature="0" />
        <path
           id="path3078"
           d="m 496.16119,812.36212 4.04297,0 0,-17.24609 c 0.0781,-0.13019 0.19531,-0.29946 0.35157,-0.50781 0.35155,-0.35155 0.67056,-0.52733 0.95703,-0.52735 0.65103,2e-5 0.97655,0.31903 0.97656,0.95703 l 0,17.32422 4.02344,0 0,-17.92969 c -2e-5,-1.05466 -0.2409,-1.99867 -0.72266,-2.83203 -0.58595,-0.96352 -1.35418,-1.44529 -2.30469,-1.44531 -0.35157,2e-5 -0.70313,0.0977 -1.05468,0.29297 -0.48178,0.26044 -1.06772,0.7357 -1.75782,1.42578 -0.28646,0.28648 -0.44271,0.43622 -0.46875,0.44922 l 0,-9.35547 -4.04297,0 0,29.39453"
           inkscape:connector-curvature="0" />
        <path
           id="path3080"
           d="m 508.46588,794.11993 2.05078,0 0,11.21094 c 0,2.00521 0.20182,3.54818 0.60547,4.62891 0.67708,1.80989 2.01823,2.71484 4.02344,2.71484 0.65103,0 1.17187,-0.0391 1.5625,-0.11719 0.0651,-0.013 0.16275,-0.0391 0.29297,-0.0781 0.14322,-0.0391 0.24738,-0.0651 0.3125,-0.0781 l 0,-3.96484 c -0.0521,0.013 -0.13022,0.0261 -0.23438,0.0391 -0.10417,0.013 -0.1823,0.026 -0.23437,0.0391 -0.36459,0.0521 -0.70314,0.0781 -1.01563,0.0781 -0.5599,0 -0.93099,-0.43619 -1.11328,-1.30859 -0.10417,-0.48177 -0.15626,-1.24349 -0.15625,-2.28516 l 0,-10.87891 2.75391,0 0,-3.63281 -2.75391,0 0,-5.41015 -4.04297,0 0,5.41015 -2.05078,0 0,3.63281"
           inkscape:connector-curvature="0" />
      </g>
      <g
         id="text3029"
         style="font-style:normal;font-variant:normal;font-weight:normal;font-stretch:normal;font-size:25.41747856px;line-height:125%;font-family:'League Gothic';-inkscape-font-specification:'League Gothic';letter-spacing:0px;word-spacing:0px;fill:#000000;fill-opacity:1;stroke:none"
         transform="matrix(0.74895077,0,0,0.74895077,69.920882,196.21142)">
        <path
           id="path3083"
           d="m 279.52056,773.07458 2.7428,0 0,-7.8809 0.73225,0 1.42725,7.8809 2.7428,0 -1.74993,-9.04753 c 0.5047,-0.33922 0.8853,-0.88529 1.1418,-1.63823 0.25648,-0.76119 0.38473,-1.62995 0.38474,-2.60629 -1e-5,-1.79542 -0.37648,-3.13993 -1.12939,-4.03353 -0.75294,-0.90184 -1.93611,-1.35277 -3.54952,-1.35279 l -2.7428,0 0,18.67837 m 2.7428,-10.42513 0,-5.53525 c 0.57917,10e-6 1.01356,0.12826 1.30315,0.38473 0.48815,0.43026 0.73223,1.22456 0.73224,2.38289 -10e-6,1.15009 -0.24409,1.94025 -0.73224,2.37048 -0.29787,0.26478 -0.73225,0.39716 -1.30315,0.39715"
           inkscape:connector-curvature="0" />
        <path
           id="path3085"
           d="m 288.70461,773.07458 2.56905,0 0,-13.90018 -2.56905,0 0,13.90018 m 0,-16.10931 2.56905,0 0,-2.56906 -2.56905,0 0,2.56906"
           inkscape:connector-curvature="0" />
        <path
           id="path3087"
           d="m 293.12288,769.16516 c 0,1.48103 0.31027,2.55664 0.93082,3.22683 0.5378,0.58744 1.31969,0.88117 2.34565,0.88117 1.12525,0 1.94437,-0.27718 2.45736,-0.83153 0.56262,-0.61227 0.84393,-1.66306 0.84394,-3.15236 l 0,-1.35279 -2.56905,0 0,1.9361 c -10e-6,0.43024 -0.0496,0.72397 -0.14893,0.88117 -0.0993,0.15721 -0.29373,0.23581 -0.58332,0.23581 -0.21512,0 -0.3806,-0.062 -0.49643,-0.18617 -0.10757,-0.13238 -0.17376,-0.26476 -0.19858,-0.39714 -0.0165,-0.14066 -0.0248,-0.31855 -0.0248,-0.53367 l 0,-7.49617 c 0,-0.21511 0.008,-0.38887 0.0248,-0.52126 0.0248,-0.14064 0.091,-0.27303 0.19858,-0.39715 0.11583,-0.13237 0.28131,-0.19856 0.49643,-0.19857 0.28959,1e-5 0.48402,0.0786 0.58332,0.23581 0.0993,0.15721 0.14892,0.45094 0.14893,0.88117 l 0,1.67547 2.56905,0 0,-1.09216 c -10e-6,-1.48929 -0.28132,-2.54008 -0.84394,-3.15236 -0.51299,-0.56262 -1.33211,-0.84393 -2.45736,-0.84394 -1.01769,10e-6 -1.79958,0.29787 -2.34565,0.89358 -0.62055,0.6702 -0.93082,1.74581 -0.93082,3.22683 l 0,6.08133"
           inkscape:connector-curvature="0" />
        <path
           id="path3089"
           d="m 301.31406,773.07458 2.56906,0 0,-4.803 0.32268,-0.81912 0.0869,-0.19858 0.12411,0 0.0496,0.19858 1.26591,5.62212 2.46976,0 -2.33324,-9.38262 1.84922,-4.51756 -2.30843,0 -1.2535,3.63639 -0.14893,0.44679 -0.1241,0 0,-8.86137 -2.56906,0 0,18.67837"
           inkscape:connector-curvature="0" />
        <path
           id="path3091"
           d="m 313.17886,773.07458 2.74281,0 0,-8.12912 2.54423,0 0,-2.82968 -2.54423,0 0,-4.9023 3.78531,0 0,-2.81727 -6.52812,0 0,18.67837"
           inkscape:connector-curvature="0" />
        <path
           id="path3093"
           d="m 320.4144,769.84776 c 0,1.27418 0.26477,2.205 0.7943,2.79244 0.33923,0.42197 0.7612,0.63296 1.26591,0.63296 0.49643,0 0.94736,-0.16134 1.35279,-0.48403 0.28958,-0.23166 0.52538,-0.50884 0.70742,-0.83152 l 0.17375,0 c -1e-5,0.54608 0.0786,0.9184 0.2358,1.11697 l 2.507,0 c -0.11584,-0.71155 -0.17376,-1.51826 -0.17375,-2.42012 l 0,-8.53868 c -1e-5,-0.90185 -0.31442,-1.65477 -0.94323,-2.25878 -0.62055,-0.59571 -1.34865,-0.89357 -2.18431,-0.89358 -0.99288,10e-6 -1.81199,0.36406 -2.45736,1.09215 -0.66191,0.74467 -0.99287,1.61757 -0.99287,2.6187 l 0,0.58331 2.56906,0 0,-0.65778 c -1e-5,-0.17374 0.0165,-0.393 0.0496,-0.65777 0.091,-0.48815 0.31854,-0.73223 0.6826,-0.73224 0.30613,10e-6 0.51711,0.14066 0.63295,0.42197 0.0496,0.16548 0.0745,0.4468 0.0745,0.84393 l 0,1.52654 c -0.0166,0.0414 -0.0372,0.0827 -0.0621,0.12411 -0.0248,0.0331 -0.0621,0.0703 -0.11169,0.1117 -0.0497,0.0414 -0.0993,0.0786 -0.14894,0.1117 -0.0414,0.0248 -0.10342,0.0621 -0.18616,0.1117 -0.0827,0.0414 -0.15307,0.0786 -0.21098,0.11169 -0.0496,0.0248 -0.13239,0.0662 -0.24822,0.12411 -0.10757,0.0579 -0.1903,0.10343 -0.24822,0.13652 -0.86049,0.45508 -1.53068,0.98047 -2.01056,1.57618 -0.71156,0.88532 -1.06734,2.03126 -1.06734,3.43782 m 2.51941,-0.38474 c 0,-0.69501 0.14479,-1.31969 0.43438,-1.87404 0.29786,-0.56262 0.74465,-0.97218 1.34038,-1.22868 l 0,3.56192 c -1e-5,0.23995 -0.10343,0.44266 -0.31027,0.60813 -0.20686,0.15721 -0.45921,0.23581 -0.75707,0.23581 -0.27304,0 -0.46748,-0.17789 -0.58331,-0.53367 -0.0827,-0.23994 -0.12411,-0.49643 -0.12411,-0.76947"
           inkscape:connector-curvature="0" />
        <path
           id="path3095"
           d="m 329.01514,773.07458 2.56906,0 0,-18.67837 -2.56906,0 0,18.67837"
           inkscape:connector-curvature="0" />
        <path
           id="path3097"
           d="m 333.63199,773.07458 2.56905,0 0,-4.803 0.32268,-0.81912 0.0869,-0.19858 0.12411,0 0.0496,0.19858 1.26591,5.62212 2.46977,0 -2.33325,-9.38262 1.84922,-4.51756 -2.30842,0 -1.2535,3.63639 -0.14893,0.44679 -0.12411,0 0,-8.86137 -2.56905,0 0,18.67837"
           inkscape:connector-curvature="0" />
        <path
           id="path3099"
           d="m 340.75583,759.1744 2.27119,13.90018 2.53182,0 2.27119,-13.90018 -2.49458,0 -0.84394,8.05466 -0.0993,0.89358 -0.19857,0 -0.0993,-0.89358 -0.84394,-8.05466 -2.49459,0"
           inkscape:connector-curvature="0" />
        <path
           id="path3101"
           d="m 349.07112,773.07458 2.56905,0 0,-13.90018 -2.56905,0 0,13.90018 m 0,-16.10931 2.56905,0 0,-2.56906 -2.56905,0 0,2.56906"
           inkscape:connector-curvature="0" />
        <path
           id="path3103"
           d="m 353.68796,773.07458 2.56906,0 0,-10.9588 c 0.0496,-0.0827 0.1241,-0.19029 0.22339,-0.32268 0.22339,-0.22339 0.42611,-0.33509 0.60814,-0.3351 0.41369,10e-6 0.62053,0.20273 0.62054,0.60814 l 0,11.00844 2.55664,0 0,-11.39318 c -1e-5,-0.67018 -0.15307,-1.27004 -0.4592,-1.79958 -0.37234,-0.61225 -0.8605,-0.91839 -1.46449,-0.9184 -0.2234,10e-6 -0.44679,0.0621 -0.67018,0.18616 -0.30614,0.16549 -0.67847,0.46749 -1.11698,0.90599 -0.18203,0.18204 -0.28132,0.27719 -0.29786,0.28545 l 0,-1.16662 -2.56906,0 0,13.90018"
           inkscape:connector-curvature="0" />
        <path
           id="path3105"
           d="m 361.40754,775.35819 c 0,0.96804 0.3806,1.66305 1.1418,2.08502 0.65363,0.3806 1.6465,0.58331 2.97861,0.60814 1.20798,-10e-6 2.20913,-0.25236 3.00343,-0.75707 0.92667,-0.604 1.39001,-1.53481 1.39002,-2.79244 -1e-5,-1.07561 -0.38888,-1.89059 -1.16662,-2.44495 -0.58746,-0.39714 -1.38175,-0.65777 -2.38289,-0.78188 -0.56263,-0.0827 -1.00529,-0.17789 -1.32797,-0.28545 -0.42197,-0.10756 -0.63295,-0.302 -0.63295,-0.58331 0,-0.20685 0.11997,-0.41783 0.35991,-0.63296 0.0496,0.0166 0.13238,0.0248 0.24822,0.0248 l 0.23581,0 c 0.79429,10e-6 1.41897,-0.17788 1.87404,-0.53366 0.87703,-0.67019 1.35278,-1.63824 1.42725,-2.90415 l 0,-3.93425 c 0,-0.1241 -0.008,-0.21097 -0.0248,-0.26063 -0.0165,-0.0496 -0.0248,-0.14064 -0.0248,-0.27304 -0.0166,-0.0331 -0.0414,-0.14478 -0.0745,-0.33509 0.35577,-0.19856 0.85221,-0.29785 1.48931,-0.29786 l 0,-2.29601 c -0.35579,10e-6 -0.76121,0.16963 -1.21627,0.50884 -0.27304,0.19032 -0.5709,0.44681 -0.89358,0.76948 -0.604,-0.8522 -1.45622,-1.27831 -2.55664,-1.27832 -0.81912,10e-6 -1.43967,0.18617 -1.86163,0.55849 -0.83567,0.68674 -1.30315,1.67961 -1.40243,2.97861 l 0,3.78531 c 0.0165,0.2896 0.0869,0.6702 0.21098,1.14181 0.23167,0.85221 0.65364,1.48103 1.26591,1.88645 -0.39715,0.20685 -0.75293,0.50471 -1.06733,0.89358 -0.35578,0.43852 -0.53367,0.83567 -0.53367,1.19145 0,0.95977 0.51712,1.57618 1.55136,1.84922 -0.58745,0.27304 -1.04665,0.56262 -1.37761,0.86876 -0.42197,0.39715 -0.63295,0.81084 -0.63295,1.24109 m 2.49458,-0.42197 c 0,-0.45507 0.31441,-0.86463 0.94323,-1.22868 l 1.31555,0.26063 c 0.57917,0.091 0.96805,0.22339 1.16663,0.39715 0.14065,0.14065 0.21097,0.33923 0.21098,0.59572 -1e-5,0.29786 -0.21926,0.53366 -0.65778,0.70742 -0.3806,0.14893 -0.81498,0.22339 -1.30314,0.22339 -0.56263,0 -0.9846,-0.0869 -1.26591,-0.26062 -0.27304,-0.17376 -0.40956,-0.40543 -0.40956,-0.69501 m 0.60814,-8.52628 0,-3.81014 c -0.008,-0.0662 -0.0124,-0.13237 -0.0124,-0.19857 -10e-6,-0.14892 0.0207,-0.29371 0.062,-0.43438 0.0993,-0.42196 0.33095,-0.63294 0.69501,-0.63296 0.20684,2e-5 0.36405,0.0662 0.47161,0.19858 0.20685,0.29787 0.31027,0.65365 0.31027,1.06733 l 0,3.81014 c 0,0.2565 -0.0248,0.47162 -0.0745,0.64537 -0.13239,0.40543 -0.36819,0.60814 -0.70742,0.60813 -0.19031,10e-6 -0.34337,-0.0703 -0.4592,-0.21098 -0.19031,-0.21512 -0.28546,-0.51712 -0.28545,-0.906 -1e-5,-0.0414 -1e-5,-0.0869 0,-0.13652"
           inkscape:connector-curvature="0" />
        <path
           id="path3107"
           d="m 370.76534,769.61195 c 0.0248,0.64537 0.1572,1.25764 0.39715,1.83681 0.54607,1.21627 1.51412,1.8244 2.90414,1.8244 0.83566,0 1.47689,-0.18616 1.92369,-0.55849 0.45506,-0.36405 0.79015,-0.78602 1.00528,-1.26591 0.22339,-0.47989 0.35577,-1.0632 0.39715,-1.74993 l 0,-1.60101 -2.38289,0 0,1.51413 c -1e-5,0.28132 -0.0372,0.52126 -0.1117,0.71983 -0.11584,0.45507 -0.38474,0.6826 -0.80671,0.6826 -0.2234,0 -0.40129,-0.0662 -0.53366,-0.19857 -0.24822,-0.32269 -0.38474,-0.72397 -0.40956,-1.20386 l 0,-3.01584 4.24452,0 0,-4.04595 c -0.0248,-0.58744 -0.16135,-1.17902 -0.40956,-1.77476 -0.55436,-1.20797 -1.51827,-1.81197 -2.89174,-1.81198 -0.85221,10e-6 -1.4893,0.18617 -1.91127,0.55849 -0.86876,0.71984 -1.34038,1.75408 -1.41484,3.10272 l 0,6.98732 m 2.38289,-5.02641 0,-1.96091 c 0.0248,-0.32268 0.0662,-0.55848 0.12411,-0.70742 0.14892,-0.47161 0.42196,-0.70741 0.81911,-0.70742 0.23994,10e-6 0.42611,0.0662 0.55849,0.19857 0.23994,0.29787 0.35991,0.70329 0.35992,1.21627 l 0,1.96091 -1.86163,0"
           inkscape:connector-curvature="0" />
      </g>
    </g>
    <g
       id="g18282"
       transform="matrix(0.82792462,0,0,0.82792462,33.694032,112.41331)">
      <g
         transform="matrix(1.4188819,0,0,1.4188819,106.17422,-431.10105)"
         id="g3234">
        <g
           transform="matrix(0.83569431,0,0,0.83569431,2.5280846,126.85728)"
           id="g3341">
          <path
             style="font-style:normal;font-variant:normal;font-weight:normal;font-stretch:normal;font-size:22.97203255px;line-height:125%;font-family:'League Gothic';-inkscape-font-specification:'League Gothic';letter-spacing:0px;word-spacing:0px;fill:#000000;fill-opacity:1;stroke:none"
             inkscape:connector-curvature="0"
             d="m 15.386466,767.76245 2.32188,0 0,-9.90444 c 0.04486,-0.0748 0.112165,-0.17198 0.201903,-0.29164 0.201899,-0.20189 0.385107,-0.30284 0.549624,-0.30285 0.373889,10e-6 0.560836,0.18322 0.56084,0.54962 l 0,9.94931 2.310664,0 0,-10.29703 c -7e-6,-0.6057 -0.138348,-1.14784 -0.415022,-1.62644 -0.336511,-0.55335 -0.777705,-0.83003 -1.323584,-0.83004 -0.201908,10e-6 -0.40381,0.0561 -0.605708,0.16825 -0.276686,0.14957 -0.61319,0.42251 -1.009513,0.81883 -0.164517,0.16452 -0.254251,0.25052 -0.269204,0.25798 l 0,-5.37285 -2.32188,0 0,16.8813"
             id="path3155" />
          <path
             style="font-style:normal;font-variant:normal;font-weight:normal;font-stretch:normal;font-size:22.97203255px;line-height:125%;font-family:'League Gothic';-inkscape-font-specification:'League Gothic';letter-spacing:0px;word-spacing:0px;fill:#000000;fill-opacity:1;stroke:none"
             inkscape:connector-curvature="0"
             d="m 22.453058,757.28595 1.177765,0 0,6.43845 c -1e-6,1.1516 0.115906,2.03772 0.347722,2.65839 0.388847,1.03942 1.159067,1.55913 2.310663,1.55913 0.373889,0 0.673004,-0.0224 0.897345,-0.0673 0.03739,-0.007 0.09347,-0.0224 0.168252,-0.0449 0.08225,-0.0224 0.142075,-0.0374 0.179469,-0.0449 l 0,-2.27702 c -0.02992,0.007 -0.07478,0.015 -0.134601,0.0224 -0.05983,0.007 -0.104696,0.015 -0.134602,0.0224 -0.209386,0.0299 -0.40381,0.0449 -0.583274,0.0449 -0.321553,0 -0.534672,-0.25051 -0.639359,-0.75153 -0.05983,-0.27668 -0.08974,-0.71413 -0.08973,-1.31236 l 0,-6.24777 1.58157,0 0,-2.08633 -1.58157,0 0,-3.10705 -2.321881,0 0,3.10705 -1.177765,0 0,2.08633"
             id="path3157" />
          <path
             style="font-style:normal;font-variant:normal;font-weight:normal;font-stretch:normal;font-size:22.97203255px;line-height:125%;font-family:'League Gothic';-inkscape-font-specification:'League Gothic';letter-spacing:0px;word-spacing:0px;fill:#000000;fill-opacity:1;stroke:none"
             inkscape:connector-curvature="0"
             d="m 28.061465,757.28595 1.177766,0 0,6.43845 c -2e-6,1.1516 0.115905,2.03772 0.347721,2.65839 0.388847,1.03942 1.159067,1.55913 2.310663,1.55913 0.373889,0 0.673004,-0.0224 0.897345,-0.0673 0.03739,-0.007 0.09347,-0.0224 0.168252,-0.0449 0.08225,-0.0224 0.142075,-0.0374 0.179469,-0.0449 l 0,-2.27702 c -0.02992,0.007 -0.07478,0.015 -0.134601,0.0224 -0.05983,0.007 -0.104696,0.015 -0.134602,0.0224 -0.209385,0.0299 -0.40381,0.0449 -0.583274,0.0449 -0.321553,0 -0.534672,-0.25051 -0.639359,-0.75153 -0.05983,-0.27668 -0.08974,-0.71413 -0.08973,-1.31236 l 0,-6.24777 1.58157,0 0,-2.08633 -1.58157,0 0,-3.10705 -2.32188,0 0,3.10705 -1.177766,0 0,2.08633"
             id="path3159" />
          <path
             style="font-style:normal;font-variant:normal;font-weight:normal;font-stretch:normal;font-size:22.97203255px;line-height:125%;font-family:'League Gothic';-inkscape-font-specification:'League Gothic';letter-spacing:0px;word-spacing:0px;fill:#000000;fill-opacity:1;stroke:none"
             inkscape:connector-curvature="0"
             d="m 34.365314,772.08093 2.32188,0 0,-5.14852 c 0.254244,0.22434 0.452408,0.39259 0.594491,0.50476 0.456146,0.3365 0.871168,0.50475 1.245066,0.50475 0.560835,0 1.016985,-0.28042 1.368451,-0.84126 0.276675,-0.45615 0.415016,-0.99455 0.415022,-1.61522 l 0,-8.02002 c -6e-6,-0.6057 -0.138347,-1.14784 -0.415022,-1.62644 -0.366422,-0.55335 -0.822572,-0.83003 -1.368451,-0.83004 -0.231819,10e-6 -0.448677,0.0561 -0.650575,0.16825 -0.373898,0.16453 -0.770225,0.44495 -1.188982,0.84126 l 0,-0.81883 -2.32188,0 0,16.88131 m 2.32188,-7.07781 0,-7.04416 c -3e-6,-0.21685 0.0673,-0.39632 0.201902,-0.53841 0.142077,-0.14954 0.302851,-0.22432 0.482323,-0.22433 0.171987,10e-6 0.317806,0.0748 0.437456,0.22433 0.12712,0.14209 0.190681,0.32156 0.190686,0.53841 l 0,7.04416 c -5e-6,0.21686 -0.06357,0.40007 -0.190686,0.54962 -0.11965,0.14208 -0.265469,0.21312 -0.437456,0.21312 -0.171994,0 -0.32903,-0.0785 -0.471106,-0.23555 -0.142083,-0.16451 -0.213122,-0.34024 -0.213119,-0.52719"
             id="path3161" />
          <path
             style="font-style:normal;font-variant:normal;font-weight:normal;font-stretch:normal;font-size:22.97203255px;line-height:125%;font-family:'League Gothic';-inkscape-font-specification:'League Gothic';letter-spacing:0px;word-spacing:0px;fill:#000000;fill-opacity:1;stroke:none"
             inkscape:connector-curvature="0"
             d="m 41.992746,767.76245 2.411615,0 0,-2.54621 -2.411615,0 0,2.54621 m 0,-10.01661 2.411615,0 0,-2.54622 -2.411615,0 0,2.54622"
             id="path3163" />
          <path
             style="font-style:normal;font-variant:normal;font-weight:normal;font-stretch:normal;font-size:22.97203255px;line-height:125%;font-family:'League Gothic';-inkscape-font-specification:'League Gothic';letter-spacing:0px;word-spacing:0px;fill:#000000;fill-opacity:1;stroke:none"
             inkscape:connector-curvature="0"
             d="m 45.335356,769.41133 1.884425,0 6.023428,-18.53018 -1.817123,0 -6.09073,18.53018"
             id="path3165" />
          <path
             style="font-style:normal;font-variant:normal;font-weight:normal;font-stretch:normal;font-size:22.97203255px;line-height:125%;font-family:'League Gothic';-inkscape-font-specification:'League Gothic';letter-spacing:0px;word-spacing:0px;fill:#000000;fill-opacity:1;stroke:none"
             inkscape:connector-curvature="0"
             d="m 53.411463,769.41133 1.884425,0 6.023428,-18.53018 -1.817123,0 -6.09073,18.53018"
             id="path3167" />
          <path
             style="font-style:normal;font-variant:normal;font-weight:normal;font-stretch:normal;font-size:22.97203255px;line-height:125%;font-family:'League Gothic';-inkscape-font-specification:'League Gothic';letter-spacing:0px;word-spacing:0px;fill:#000000;fill-opacity:1;stroke:none"
             inkscape:connector-curvature="0"
             d="m 62.317611,772.08093 2.32188,0 0,-5.14852 c 0.254244,0.22434 0.452408,0.39259 0.594491,0.50476 0.456146,0.3365 0.871168,0.50475 1.245066,0.50475 0.560835,0 1.016985,-0.28042 1.368452,-0.84126 0.276674,-0.45615 0.415015,-0.99455 0.415022,-1.61522 l 0,-8.02002 c -7e-6,-0.6057 -0.138348,-1.14784 -0.415022,-1.62644 -0.366422,-0.55335 -0.822572,-0.83003 -1.368452,-0.83004 -0.231819,10e-6 -0.448677,0.0561 -0.650575,0.16825 -0.373898,0.16453 -0.770225,0.44495 -1.188982,0.84126 l 0,-0.81883 -2.32188,0 0,16.88131 m 2.32188,-7.07781 0,-7.04416 c -3e-6,-0.21685 0.0673,-0.39632 0.201903,-0.53841 0.142076,-0.14954 0.30285,-0.22432 0.482323,-0.22433 0.171987,10e-6 0.317805,0.0748 0.437455,0.22433 0.12712,0.14209 0.190682,0.32156 0.190686,0.53841 l 0,7.04416 c -4e-6,0.21686 -0.06357,0.40007 -0.190686,0.54962 -0.11965,0.14208 -0.265468,0.21312 -0.437455,0.21312 -0.171995,0 -0.32903,-0.0785 -0.471106,-0.23555 -0.142083,-0.16451 -0.213123,-0.34024 -0.21312,-0.52719"
             id="path3169" />
          <path
             style="font-style:normal;font-variant:normal;font-weight:normal;font-stretch:normal;font-size:22.97203255px;line-height:125%;font-family:'League Gothic';-inkscape-font-specification:'League Gothic';letter-spacing:0px;word-spacing:0px;fill:#000000;fill-opacity:1;stroke:none"
             inkscape:connector-curvature="0"
             d="m 69.664623,764.84608 c -1e-6,1.1516 0.239291,1.99286 0.717876,2.52379 0.306591,0.38137 0.687962,0.57205 1.144115,0.57205 0.448669,0 0.856213,-0.14582 1.222632,-0.43745 0.261722,-0.20938 0.474841,-0.45989 0.639359,-0.75153 l 0.157035,0 c -4e-6,0.49354 0.07103,0.83004 0.21312,1.00951 l 2.265796,0 c -0.104697,-0.64309 -0.157042,-1.37219 -0.157036,-2.18727 l 0,-7.71717 c -6e-6,-0.81508 -0.284165,-1.49557 -0.852477,-2.04146 -0.560846,-0.5384 -1.218899,-0.8076 -1.974159,-0.80761 -0.897348,10e-6 -1.637657,0.32904 -2.220929,0.98708 -0.598231,0.67302 -0.897346,1.46193 -0.897345,2.36674 l 0,0.52719 2.32188,0 0,-0.59449 c -3e-6,-0.15702 0.01495,-0.35519 0.04487,-0.59449 0.08225,-0.44118 0.287895,-0.66178 0.616925,-0.66179 0.276677,10e-6 0.467363,0.12714 0.572057,0.38137 0.04486,0.14957 0.0673,0.40382 0.0673,0.76275 l 0,1.37966 c -0.01496,0.0374 -0.03366,0.0748 -0.05608,0.11217 -0.02244,0.0299 -0.05609,0.0636 -0.100951,0.10095 -0.04487,0.0374 -0.08974,0.0711 -0.134602,0.10095 -0.03739,0.0224 -0.09348,0.0561 -0.168252,0.10096 -0.07478,0.0374 -0.138345,0.071 -0.190686,0.10095 -0.04487,0.0224 -0.11965,0.0598 -0.224336,0.11216 -0.09722,0.0524 -0.171995,0.0935 -0.224337,0.12339 -0.777701,0.41129 -1.383408,0.88613 -1.817123,1.42454 -0.643098,0.80013 -0.964647,1.83582 -0.964646,3.10705 m 2.277013,-0.34772 c -3e-6,-0.62814 0.13086,-1.19272 0.392588,-1.69374 0.2692,-0.50849 0.673005,-0.87864 1.211416,-1.11046 l 0,3.21922 c -4e-6,0.21686 -0.09348,0.40007 -0.28042,0.54963 -0.186951,0.14208 -0.415026,0.21312 -0.684226,0.21312 -0.246773,0 -0.422503,-0.16078 -0.52719,-0.48233 -0.07478,-0.21685 -0.112171,-0.44867 -0.112168,-0.69544"
             id="path3171" />
          <path
             style="font-style:normal;font-variant:normal;font-weight:normal;font-stretch:normal;font-size:22.97203255px;line-height:125%;font-family:'League Gothic';-inkscape-font-specification:'League Gothic';letter-spacing:0px;word-spacing:0px;fill:#000000;fill-opacity:1;stroke:none"
             inkscape:connector-curvature="0"
             d="m 77.437873,767.76245 2.32188,0 0,-8.72668 c -3e-6,-0.48605 0.168249,-0.87116 0.504757,-1.15533 0.269199,-0.25424 0.658048,-0.38136 1.166548,-0.38137 0.254243,1e-5 0.471101,0.0299 0.650575,0.0897 l 0,-2.57986 c -0.702925,10e-6 -1.293676,0.22435 -1.772256,0.67301 -0.164517,0.16452 -0.29538,0.33277 -0.392588,0.50475 -0.08974,0.17201 -0.142083,0.31035 -0.157036,0.41502 l 0,-1.4021 -2.32188,0 0,12.56283"
             id="path3173" />
          <path
             style="font-style:normal;font-variant:normal;font-weight:normal;font-stretch:normal;font-size:22.97203255px;line-height:125%;font-family:'League Gothic';-inkscape-font-specification:'League Gothic';letter-spacing:0px;word-spacing:0px;fill:#000000;fill-opacity:1;stroke:none"
             inkscape:connector-curvature="0"
             d="m 82.395705,757.28595 1.177765,0 0,6.43845 c -10e-7,1.1516 0.115906,2.03772 0.347722,2.65839 0.388847,1.03942 1.159067,1.55913 2.310663,1.55913 0.373889,0 0.673004,-0.0224 0.897345,-0.0673 0.03738,-0.007 0.09347,-0.0224 0.168252,-0.0449 0.08225,-0.0224 0.142075,-0.0374 0.179469,-0.0449 l 0,-2.27702 c -0.02992,0.007 -0.07478,0.015 -0.134601,0.0224 -0.05983,0.007 -0.104696,0.015 -0.134602,0.0224 -0.209386,0.0299 -0.40381,0.0449 -0.583274,0.0449 -0.321553,0 -0.534672,-0.25051 -0.639359,-0.75153 -0.05983,-0.27668 -0.08974,-0.71413 -0.08973,-1.31236 l 0,-6.24777 1.58157,0 0,-2.08633 -1.58157,0 0,-3.10705 -2.321881,0 0,3.10705 -1.177765,0 0,2.08633"
             id="path3175" />
          <path
             style="font-style:normal;font-variant:normal;font-weight:normal;font-stretch:normal;font-size:22.97203255px;line-height:125%;font-family:'League Gothic';-inkscape-font-specification:'League Gothic';letter-spacing:0px;word-spacing:0px;fill:#000000;fill-opacity:1;stroke:none"
             inkscape:connector-curvature="0"
             d="m 88.699554,767.76245 2.32188,0 0,-12.56283 -2.32188,0 0,12.56283 m 0,-14.55942 2.32188,0 0,-2.32188 -2.32188,0 0,2.32188"
             id="path3177" />
          <path
             style="font-style:normal;font-variant:normal;font-weight:normal;font-stretch:normal;font-size:22.97203255px;line-height:125%;font-family:'League Gothic';-inkscape-font-specification:'League Gothic';letter-spacing:0px;word-spacing:0px;fill:#000000;fill-opacity:1;stroke:none"
             inkscape:connector-curvature="0"
             d="m 92.782472,765.48544 c -10e-7,0.63562 0.145818,1.17403 0.437456,1.61522 0.329025,0.56084 0.777697,0.84126 1.346018,0.84126 0.239289,0 0.463625,-0.0523 0.673008,-0.15703 0.343979,-0.15704 0.732828,-0.4412 1.166549,-0.85248 l 0,0.83004 2.32188,0 0,-16.8813 -2.32188,0 0,5.1373 c -0.254252,-0.22432 -0.452416,-0.39258 -0.594491,-0.50476 -0.456154,-0.33649 -0.871176,-0.50474 -1.245066,-0.50475 -0.560843,10e-6 -1.009515,0.27669 -1.346018,0.83004 -0.291638,0.46364 -0.437457,1.00579 -0.437456,1.62644 l 0,8.02002 m 2.321881,-0.48232 0,-7.04416 c -4e-6,-0.21685 0.05982,-0.39632 0.179469,-0.53841 0.119642,-0.14954 0.265461,-0.22432 0.437455,-0.22433 0.171987,10e-6 0.329023,0.0823 0.471106,0.24677 0.142076,0.15704 0.213115,0.32903 0.21312,0.51597 l 0,7.04416 c -5e-6,0.21686 -0.07104,0.40007 -0.21312,0.54962 -0.134605,0.14208 -0.291641,0.21312 -0.471106,0.21312 -0.171994,0 -0.317813,-0.071 -0.437455,-0.21312 -0.11965,-0.14955 -0.179473,-0.33276 -0.179469,-0.54962"
             id="path3179" />
          <path
             style="font-style:normal;font-variant:normal;font-weight:normal;font-stretch:normal;font-size:22.97203255px;line-height:125%;font-family:'League Gothic';-inkscape-font-specification:'League Gothic';letter-spacing:0px;word-spacing:0px;fill:#000000;fill-opacity:1;stroke:none"
             inkscape:connector-curvature="0"
             d="m 100.37626,764.63296 c 0.0224,0.56832 0.14582,1.12169 0.37015,1.66009 0.49354,1.09925 1.36098,1.64887 2.60231,1.64887 0.75526,0 1.33479,-0.16825 1.7386,-0.50475 0.4038,-0.32903 0.70292,-0.7104 0.89735,-1.14412 0.19441,-0.44119 0.31032,-0.96838 0.34772,-1.58157 l 0,-6.46088 c -0.0224,-0.53092 -0.14583,-1.06559 -0.37016,-1.60401 -0.50102,-1.09176 -1.37219,-1.63764 -2.61351,-1.63765 -0.77023,10e-6 -1.34602,0.16826 -1.72739,0.50475 -0.76275,0.64311 -1.17777,1.57785 -1.24507,2.80421 l 0,6.31506 m 2.18728,0 0,-6.31506 c -0.007,-0.0598 -0.0112,-0.11964 -0.0112,-0.17947 0,-0.17198 0.0262,-0.32528 0.0785,-0.45989 0.11216,-0.42623 0.35146,-0.63935 0.71788,-0.63936 0.21685,10e-6 0.3851,0.0598 0.50475,0.17947 0.19442,0.24678 0.29163,0.57207 0.29164,0.97586 -1e-5,0.0449 -1e-5,0.086 0,0.12339 l 0,6.31506 c 0.007,0.0598 0.0112,0.11965 0.0112,0.17947 -1e-5,0.17947 -0.0262,0.33651 -0.0785,0.47111 -0.1047,0.41128 -0.34773,0.61692 -0.72909,0.61692 -0.20191,0 -0.36268,-0.0598 -0.48233,-0.17947 -0.2019,-0.26172 -0.30285,-0.58327 -0.30285,-0.96464 0,-0.0449 0,-0.086 0,-0.12339"
             id="path3181" />
          <path
             style="font-style:normal;font-variant:normal;font-weight:normal;font-stretch:normal;font-size:22.97203255px;line-height:125%;font-family:'League Gothic';-inkscape-font-specification:'League Gothic';letter-spacing:0px;word-spacing:0px;fill:#000000;fill-opacity:1;stroke:none"
             inkscape:connector-curvature="0"
             d="m 107.94761,772.08093 2.32188,0 0,-5.14852 c 0.25424,0.22434 0.45241,0.39259 0.59449,0.50476 0.45615,0.3365 0.87117,0.50475 1.24507,0.50475 0.56083,0 1.01698,-0.28042 1.36845,-0.84126 0.27667,-0.45615 0.41501,-0.99455 0.41502,-1.61522 l 0,-8.02002 c -1e-5,-0.6057 -0.13835,-1.14784 -0.41502,-1.62644 -0.36642,-0.55335 -0.82257,-0.83003 -1.36845,-0.83004 -0.23182,10e-6 -0.44868,0.0561 -0.65058,0.16825 -0.3739,0.16453 -0.77022,0.44495 -1.18898,0.84126 l 0,-0.81883 -2.32188,0 0,16.88131 m 2.32188,-7.07781 0,-7.04416 c 0,-0.21685 0.0673,-0.39632 0.2019,-0.53841 0.14208,-0.14954 0.30285,-0.22432 0.48233,-0.22433 0.17198,10e-6 0.3178,0.0748 0.43745,0.22433 0.12712,0.14209 0.19068,0.32156 0.19069,0.53841 l 0,7.04416 c -1e-5,0.21686 -0.0636,0.40007 -0.19069,0.54962 -0.11965,0.14208 -0.26547,0.21312 -0.43745,0.21312 -0.172,0 -0.32903,-0.0785 -0.47111,-0.23555 -0.14208,-0.16451 -0.21312,-0.34024 -0.21312,-0.52719"
             id="path3183" />
          <path
             style="font-style:normal;font-variant:normal;font-weight:normal;font-stretch:normal;font-size:22.97203255px;line-height:125%;font-family:'League Gothic';-inkscape-font-specification:'League Gothic';letter-spacing:0px;word-spacing:0px;fill:#000000;fill-opacity:1;stroke:none"
             inkscape:connector-curvature="0"
             d="m 115.66477,767.76245 2.32188,0 0,-12.56283 -2.32188,0 0,12.56283 m 0,-14.55942 2.32188,0 0,-2.32188 -2.32188,0 0,2.32188"
             id="path3185" />
          <path
             style="font-style:normal;font-variant:normal;font-weight:normal;font-stretch:normal;font-size:22.97203255px;line-height:125%;font-family:'League Gothic';-inkscape-font-specification:'League Gothic';letter-spacing:0px;word-spacing:0px;fill:#000000;fill-opacity:1;stroke:none"
             inkscape:connector-curvature="0"
             d="m 119.83743,767.76245 2.32188,0 0,-8.72668 c -1e-5,-0.48605 0.16825,-0.87116 0.50475,-1.15533 0.2692,-0.25424 0.65805,-0.38136 1.16655,-0.38137 0.25424,1e-5 0.4711,0.0299 0.65058,0.0897 l 0,-2.57986 c -0.70293,10e-6 -1.29368,0.22435 -1.77226,0.67301 -0.16452,0.16452 -0.29538,0.33277 -0.39259,0.50475 -0.0897,0.17201 -0.14208,0.31035 -0.15703,0.41502 l 0,-1.4021 -2.32188,0 0,12.56283"
             id="path3187" />
          <path
             style="font-style:normal;font-variant:normal;font-weight:normal;font-stretch:normal;font-size:22.97203255px;line-height:125%;font-family:'League Gothic';-inkscape-font-specification:'League Gothic';letter-spacing:0px;word-spacing:0px;fill:#000000;fill-opacity:1;stroke:none"
             inkscape:connector-curvature="0"
             d="m 125.12055,764.84608 c 0,1.1516 0.23929,1.99286 0.71787,2.52379 0.30659,0.38137 0.68796,0.57205 1.14412,0.57205 0.44867,0 0.85621,-0.14582 1.22263,-0.43745 0.26172,-0.20938 0.47484,-0.45989 0.63936,-0.75153 l 0.15703,0 c 0,0.49354 0.071,0.83004 0.21312,1.00951 l 2.2658,0 c -0.1047,-0.64309 -0.15704,-1.37219 -0.15704,-2.18727 l 0,-7.71717 c 0,-0.81508 -0.28416,-1.49557 -0.85247,-2.04146 -0.56085,-0.5384 -1.2189,-0.8076 -1.97416,-0.80761 -0.89735,10e-6 -1.63766,0.32904 -2.22093,0.98708 -0.59823,0.67302 -0.89735,1.46193 -0.89735,2.36674 l 0,0.52719 2.32188,0 0,-0.59449 c 0,-0.15702 0.015,-0.35519 0.0449,-0.59449 0.0823,-0.44118 0.2879,-0.66178 0.61692,-0.66179 0.27668,10e-6 0.46737,0.12714 0.57206,0.38137 0.0449,0.14957 0.0673,0.40382 0.0673,0.76275 l 0,1.37966 c -0.015,0.0374 -0.0336,0.0748 -0.0561,0.11217 -0.0224,0.0299 -0.0561,0.0636 -0.10095,0.10095 -0.0449,0.0374 -0.0897,0.0711 -0.1346,0.10095 -0.0374,0.0224 -0.0935,0.0561 -0.16826,0.10096 -0.0748,0.0374 -0.13834,0.071 -0.19068,0.10095 -0.0449,0.0224 -0.11965,0.0598 -0.22434,0.11216 -0.0972,0.0524 -0.17199,0.0935 -0.22433,0.12339 -0.77771,0.41129 -1.38341,0.88613 -1.81713,1.42454 -0.6431,0.80013 -0.96464,1.83582 -0.96464,3.10705 m 2.27701,-0.34772 c 0,-0.62814 0.13086,-1.19272 0.39259,-1.69374 0.2692,-0.50849 0.673,-0.87864 1.21141,-1.11046 l 0,3.21922 c 0,0.21686 -0.0935,0.40007 -0.28042,0.54963 -0.18695,0.14208 -0.41502,0.21312 -0.68422,0.21312 -0.24678,0 -0.42251,-0.16078 -0.52719,-0.48233 -0.0748,-0.21685 -0.11217,-0.44867 -0.11217,-0.69544"
             id="path3189" />
          <path
             style="font-style:normal;font-variant:normal;font-weight:normal;font-stretch:normal;font-size:22.97203255px;line-height:125%;font-family:'League Gothic';-inkscape-font-specification:'League Gothic';letter-spacing:0px;word-spacing:0px;fill:#000000;fill-opacity:1;stroke:none"
             inkscape:connector-curvature="0"
             d="m 132.19836,757.28595 1.17776,0 0,6.43845 c 0,1.1516 0.11591,2.03772 0.34772,2.65839 0.38885,1.03942 1.15907,1.55913 2.31067,1.55913 0.37389,0 0.673,-0.0224 0.89734,-0.0673 0.0374,-0.007 0.0935,-0.0224 0.16825,-0.0449 0.0823,-0.0224 0.14208,-0.0374 0.17947,-0.0449 l 0,-2.27702 c -0.0299,0.007 -0.0748,0.015 -0.1346,0.0224 -0.0598,0.007 -0.10469,0.015 -0.1346,0.0224 -0.20939,0.0299 -0.40381,0.0449 -0.58327,0.0449 -0.32156,0 -0.53468,-0.25051 -0.63936,-0.75153 -0.0598,-0.27668 -0.0897,-0.71413 -0.0897,-1.31236 l 0,-6.24777 1.58157,0 0,-2.08633 -1.58157,0 0,-3.10705 -2.32188,0 0,3.10705 -1.17776,0 0,2.08633"
             id="path3191" />
          <path
             style="font-style:normal;font-variant:normal;font-weight:normal;font-stretch:normal;font-size:22.97203255px;line-height:125%;font-family:'League Gothic';-inkscape-font-specification:'League Gothic';letter-spacing:0px;word-spacing:0px;fill:#000000;fill-opacity:1;stroke:none"
             inkscape:connector-curvature="0"
             d="m 138.13205,764.84608 c 0,1.1516 0.23929,1.99286 0.71788,2.52379 0.30659,0.38137 0.68796,0.57205 1.14411,0.57205 0.44867,0 0.85622,-0.14582 1.22263,-0.43745 0.26173,-0.20938 0.47485,-0.45989 0.63936,-0.75153 l 0.15704,0 c -1e-5,0.49354 0.071,0.83004 0.21312,1.00951 l 2.26579,0 c -0.10469,-0.64309 -0.15704,-1.37219 -0.15703,-2.18727 l 0,-7.71717 c -1e-5,-0.81508 -0.28417,-1.49557 -0.85248,-2.04146 -0.56085,-0.5384 -1.2189,-0.8076 -1.97416,-0.80761 -0.89735,10e-6 -1.63766,0.32904 -2.22093,0.98708 -0.59823,0.67302 -0.89734,1.46193 -0.89734,2.36674 l 0,0.52719 2.32188,0 0,-0.59449 c 0,-0.15702 0.0149,-0.35519 0.0449,-0.59449 0.0822,-0.44118 0.28789,-0.66178 0.61692,-0.66179 0.27668,10e-6 0.46736,0.12714 0.57206,0.38137 0.0449,0.14957 0.0673,0.40382 0.0673,0.76275 l 0,1.37966 c -0.015,0.0374 -0.0337,0.0748 -0.0561,0.11217 -0.0224,0.0299 -0.0561,0.0636 -0.10095,0.10095 -0.0449,0.0374 -0.0897,0.0711 -0.1346,0.10095 -0.0374,0.0224 -0.0935,0.0561 -0.16825,0.10096 -0.0748,0.0374 -0.13835,0.071 -0.19069,0.10095 -0.0449,0.0224 -0.11965,0.0598 -0.22433,0.11216 -0.0972,0.0524 -0.172,0.0935 -0.22434,0.12339 -0.7777,0.41129 -1.38341,0.88613 -1.81712,1.42454 -0.6431,0.80013 -0.96465,1.83582 -0.96465,3.10705 m 2.27701,-0.34772 c 0,-0.62814 0.13086,-1.19272 0.39259,-1.69374 0.2692,-0.50849 0.67301,-0.87864 1.21142,-1.11046 l 0,3.21922 c -1e-5,0.21686 -0.0935,0.40007 -0.28042,0.54963 -0.18695,0.14208 -0.41503,0.21312 -0.68423,0.21312 -0.24677,0 -0.4225,-0.16078 -0.52719,-0.48233 -0.0748,-0.21685 -0.11217,-0.44867 -0.11217,-0.69544"
             id="path3193" />
          <path
             style="font-style:normal;font-variant:normal;font-weight:normal;font-stretch:normal;font-size:22.97203255px;line-height:125%;font-family:'League Gothic';-inkscape-font-specification:'League Gothic';letter-spacing:0px;word-spacing:0px;fill:#000000;fill-opacity:1;stroke:none"
             inkscape:connector-curvature="0"
             d="m 145.58001,767.76245 2.41161,0 0,-2.54621 -2.41161,0 0,2.54621"
             id="path3195" />
          <path
             style="font-style:normal;font-variant:normal;font-weight:normal;font-stretch:normal;font-size:22.97203255px;line-height:125%;font-family:'League Gothic';-inkscape-font-specification:'League Gothic';letter-spacing:0px;word-spacing:0px;fill:#000000;fill-opacity:1;stroke:none"
             inkscape:connector-curvature="0"
             d="m 149.31521,764.22916 c 0,1.33854 0.28042,2.31066 0.84127,2.91637 0.48606,0.53093 1.19271,0.79639 2.11997,0.79639 1.01699,0 1.7573,-0.25051 2.22093,-0.75152 0.50849,-0.55337 0.76274,-1.50305 0.76275,-2.84907 l 0,-1.22264 -2.32189,0 0,1.74983 c 0,0.38885 -0.0449,0.65431 -0.1346,0.79639 -0.0897,0.14208 -0.26547,0.21312 -0.52719,0.21312 -0.19443,0 -0.34398,-0.0561 -0.44867,-0.16825 -0.0972,-0.11965 -0.15704,-0.23929 -0.17947,-0.35894 -0.015,-0.12712 -0.0224,-0.2879 -0.0224,-0.48232 l 0,-6.77496 c -1e-5,-0.19441 0.007,-0.35145 0.0224,-0.47111 0.0224,-0.12711 0.0822,-0.24675 0.17947,-0.35893 0.10469,-0.11964 0.25424,-0.17946 0.44867,-0.17947 0.26172,10e-6 0.43745,0.0711 0.52719,0.21312 0.0897,0.14209 0.1346,0.40755 0.1346,0.79639 l 0,1.51427 2.32189,0 0,-0.98708 c -1e-5,-1.34601 -0.25426,-2.2957 -0.76275,-2.84907 -0.46363,-0.50848 -1.20394,-0.76273 -2.22093,-0.76274 -0.91978,10e-6 -1.62644,0.26921 -2.11997,0.80761 -0.56085,0.60572 -0.84127,1.57784 -0.84127,2.91637 l 0,5.49624"
             id="path3197" />
          <path
             style="font-style:normal;font-variant:normal;font-weight:normal;font-stretch:normal;font-size:22.97203255px;line-height:125%;font-family:'League Gothic';-inkscape-font-specification:'League Gothic';letter-spacing:0px;word-spacing:0px;fill:#000000;fill-opacity:1;stroke:none"
             inkscape:connector-curvature="0"
             d="m 156.5052,764.63296 c 0.0224,0.56832 0.14581,1.12169 0.37015,1.66009 0.49354,1.09925 1.36097,1.64887 2.6023,1.64887 0.75526,0 1.3348,-0.16825 1.73861,-0.50475 0.4038,-0.32903 0.70291,-0.7104 0.89734,-1.14412 0.19442,-0.44119 0.31033,-0.96838 0.34772,-1.58157 l 0,-6.46088 c -0.0224,-0.53092 -0.14582,-1.06559 -0.37015,-1.60401 -0.50102,-1.09176 -1.3722,-1.63764 -2.61352,-1.63765 -0.77022,10e-6 -1.34602,0.16826 -1.72739,0.50475 -0.76274,0.64311 -1.17776,1.57785 -1.24506,2.80421 l 0,6.31506 m 2.18728,0 0,-6.31506 c -0.007,-0.0598 -0.0112,-0.11964 -0.0112,-0.17947 0,-0.17198 0.0262,-0.32528 0.0785,-0.45989 0.11216,-0.42623 0.35145,-0.63935 0.71787,-0.63936 0.21686,10e-6 0.38511,0.0598 0.50476,0.17947 0.19442,0.24678 0.29163,0.57207 0.29164,0.97586 -10e-6,0.0449 -10e-6,0.086 0,0.12339 l 0,6.31506 c 0.007,0.0598 0.0112,0.11965 0.0112,0.17947 0,0.17947 -0.0262,0.33651 -0.0785,0.47111 -0.1047,0.41128 -0.34773,0.61692 -0.7291,0.61692 -0.2019,0 -0.36268,-0.0598 -0.48232,-0.17947 -0.20191,-0.26172 -0.30286,-0.58327 -0.30285,-0.96464 -1e-5,-0.0449 -1e-5,-0.086 0,-0.12339"
             id="path3199" />
          <path
             style="font-style:normal;font-variant:normal;font-weight:normal;font-stretch:normal;font-size:22.97203255px;line-height:125%;font-family:'League Gothic';-inkscape-font-specification:'League Gothic';letter-spacing:0px;word-spacing:0px;fill:#000000;fill-opacity:1;stroke:none"
             inkscape:connector-curvature="0"
             d="m 164.07653,767.76245 2.32188,0 0,-9.90444 c 0.0449,-0.0748 0.12712,-0.17198 0.24677,-0.29164 0.2019,-0.20189 0.41128,-0.30284 0.62814,-0.30285 0.41128,10e-6 0.61692,0.18322 0.61693,0.54962 l 0,9.94931 2.17606,0 0,-9.90444 c 0.0299,-0.0598 0.1159,-0.15703 0.25799,-0.29164 0.20189,-0.20189 0.40753,-0.30284 0.61692,-0.30285 0.41875,10e-6 0.62813,0.18322 0.62814,0.54962 l 0,9.94931 2.17606,0 0,-10.29703 c -1e-5,-0.6057 -0.13835,-1.14784 -0.41502,-1.62644 -0.33651,-0.55335 -0.78145,-0.83003 -1.3348,-0.83004 -0.17948,10e-6 -0.38512,0.0636 -0.61692,0.19068 -0.45616,0.26922 -0.83005,0.56086 -1.12168,0.87491 -0.15705,0.15705 -0.28043,0.26922 -0.37016,0.33651 -0.32903,-0.93472 -0.84874,-1.40209 -1.55914,-1.4021 -0.19443,10e-6 -0.39259,0.0561 -0.59449,0.16825 -0.35894,0.19444 -0.71414,0.46738 -1.06559,0.81883 -0.16452,0.16452 -0.25426,0.25052 -0.26921,0.25798 l 0,-1.05438 -2.32188,0 0,12.56283"
             id="path3201" />
          <path
             style="font-style:normal;font-variant:normal;font-weight:normal;font-stretch:normal;font-size:22.97203255px;line-height:125%;font-family:'League Gothic';-inkscape-font-specification:'League Gothic';letter-spacing:0px;word-spacing:0px;fill:#000000;fill-opacity:1;stroke:none"
             inkscape:connector-curvature="0"
             d="m 175.19241,767.76245 2.41161,0 0,-2.54621 -2.41161,0 0,2.54621"
             id="path3203" />
          <path
             style="font-style:normal;font-variant:normal;font-weight:normal;font-stretch:normal;font-size:22.97203255px;line-height:125%;font-family:'League Gothic';-inkscape-font-specification:'League Gothic';letter-spacing:0px;word-spacing:0px;fill:#000000;fill-opacity:1;stroke:none"
             inkscape:connector-curvature="0"
             d="m 178.73691,764.84608 c 0,1.1516 0.23929,1.99286 0.71788,2.52379 0.30659,0.38137 0.68796,0.57205 1.14411,0.57205 0.44867,0 0.85621,-0.14582 1.22263,-0.43745 0.26172,-0.20938 0.47484,-0.45989 0.63936,-0.75153 l 0.15704,0 c -1e-5,0.49354 0.071,0.83004 0.21312,1.00951 l 2.26579,0 c -0.10469,-0.64309 -0.15704,-1.37219 -0.15703,-2.18727 l 0,-7.71717 c -1e-5,-0.81508 -0.28417,-1.49557 -0.85248,-2.04146 -0.56085,-0.5384 -1.2189,-0.8076 -1.97416,-0.80761 -0.89735,10e-6 -1.63766,0.32904 -2.22093,0.98708 -0.59823,0.67302 -0.89734,1.46193 -0.89734,2.36674 l 0,0.52719 2.32188,0 0,-0.59449 c -1e-5,-0.15702 0.0149,-0.35519 0.0449,-0.59449 0.0823,-0.44118 0.2879,-0.66178 0.61693,-0.66179 0.27668,10e-6 0.46736,0.12714 0.57206,0.38137 0.0449,0.14957 0.0673,0.40382 0.0673,0.76275 l 0,1.37966 c -0.015,0.0374 -0.0337,0.0748 -0.0561,0.11217 -0.0224,0.0299 -0.0561,0.0636 -0.10095,0.10095 -0.0449,0.0374 -0.0897,0.0711 -0.1346,0.10095 -0.0374,0.0224 -0.0935,0.0561 -0.16825,0.10096 -0.0748,0.0374 -0.13835,0.071 -0.19069,0.10095 -0.0449,0.0224 -0.11965,0.0598 -0.22433,0.11216 -0.0972,0.0524 -0.172,0.0935 -0.22434,0.12339 -0.7777,0.41129 -1.38341,0.88613 -1.81712,1.42454 -0.6431,0.80013 -0.96465,1.83582 -0.96465,3.10705 m 2.27701,-0.34772 c 0,-0.62814 0.13086,-1.19272 0.39259,-1.69374 0.2692,-0.50849 0.67301,-0.87864 1.21142,-1.11046 l 0,3.21922 c -1e-5,0.21686 -0.0935,0.40007 -0.28042,0.54963 -0.18695,0.14208 -0.41503,0.21312 -0.68423,0.21312 -0.24677,0 -0.4225,-0.16078 -0.52719,-0.48233 -0.0748,-0.21685 -0.11217,-0.44867 -0.11217,-0.69544"
             id="path3205" />
          <path
             style="font-style:normal;font-variant:normal;font-weight:normal;font-stretch:normal;font-size:22.97203255px;line-height:125%;font-family:'League Gothic';-inkscape-font-specification:'League Gothic';letter-spacing:0px;word-spacing:0px;fill:#000000;fill-opacity:1;stroke:none"
             inkscape:connector-curvature="0"
             d="m 186.51016,767.76245 2.32188,0 0,-8.72668 c -1e-5,-0.48605 0.16824,-0.87116 0.50475,-1.15533 0.2692,-0.25424 0.65805,-0.38136 1.16655,-0.38137 0.25424,1e-5 0.4711,0.0299 0.65058,0.0897 l 0,-2.57986 c -0.70293,10e-6 -1.29368,0.22435 -1.77226,0.67301 -0.16452,0.16452 -0.29538,0.33277 -0.39259,0.50475 -0.0897,0.17201 -0.14208,0.31035 -0.15703,0.41502 l 0,-1.4021 -2.32188,0 0,12.56283"
             id="path3207" />
        </g>
        <g
           transform="translate(0.02030509,-1.0295417)"
           style="font-style:normal;font-variant:normal;font-weight:normal;font-stretch:normal;font-size:40px;line-height:125%;font-family:'League Gothic';-inkscape-font-specification:'League Gothic';letter-spacing:0px;word-spacing:0px;fill:#000000;fill-opacity:1;stroke:none"
           id="text3150">
          <path
             inkscape:connector-curvature="0"
             d="m 15.133927,798.46985 c 0.03906,1.23698 0.279946,2.30469 0.722657,3.20312 0.390622,0.8724 0.950517,1.58855 1.679687,2.14844 0.820308,0.66406 1.940098,0.99609 3.359375,0.99609 1.393221,0 2.49999,-0.33203 3.320313,-0.99609 0.768217,-0.58594 1.341133,-1.30208 1.71875,-2.14844 0.442695,-0.89843 0.68358,-1.96614 0.722656,-3.20312 l 0,-23.35938 -4.316406,0 0,23.35938 c -9e-6,0.44271 -0.0586,0.80079 -0.175782,1.07422 -0.1823,0.71615 -0.605476,1.07422 -1.269531,1.07422 -0.351569,0 -0.631517,-0.10417 -0.839844,-0.3125 -0.403652,-0.46875 -0.605474,-1.08073 -0.605468,-1.83594 l 0,-23.35938 -4.316407,0 0,23.35938"
             id="path3210" />
          <path
             inkscape:connector-curvature="0"
             d="m 28.571427,786.26282 2.050782,0 0,11.21093 c -3e-6,2.00522 0.20182,3.54819 0.605468,4.62891 0.67708,1.8099 2.018224,2.71484 4.023438,2.71484 0.651034,0 1.171867,-0.0391 1.5625,-0.11718 0.06509,-0.013 0.162751,-0.0391 0.292969,-0.0781 0.14322,-0.0391 0.247386,-0.0651 0.3125,-0.0781 l 0,-3.96485 c -0.05209,0.013 -0.130218,0.0261 -0.234375,0.0391 -0.104176,0.013 -0.182301,0.026 -0.234375,0.0391 -0.364592,0.0521 -0.703133,0.0781 -1.015625,0.0781 -0.559903,10e-6 -0.930997,-0.43619 -1.113282,-1.30859 -0.104173,-0.48177 -0.156256,-1.24348 -0.15625,-2.28516 l 0,-10.8789 2.753907,0 0,-3.63282 -2.753907,0 0,-5.41015 -4.042968,0 0,5.41015 -2.050782,0 0,3.63282"
             id="path3212" />
          <path
             inkscape:connector-curvature="0"
             d="m 39.176896,799.05579 c 0.03906,0.98958 0.253905,1.95312 0.644531,2.89062 0.859373,1.91406 2.369788,2.87109 4.53125,2.87109 1.315097,0 2.32421,-0.29296 3.027344,-0.8789 0.703115,-0.57292 1.223948,-1.23698 1.5625,-1.99219 0.33853,-0.76822 0.540353,-1.68619 0.605469,-2.75391 l 0,-11.25 c -0.03907,-0.92446 -0.253918,-1.85545 -0.644531,-2.79296 -0.872406,-1.90102 -2.389332,-2.85154 -4.550782,-2.85157 -1.341151,3e-5 -2.343754,0.29299 -3.007812,0.87891 -1.328127,1.11981 -2.050783,2.74741 -2.167969,4.88281 l 0,10.9961 m 3.808594,0 0,-10.9961 c -0.01303,-0.10415 -0.01954,-0.20831 -0.01953,-0.3125 -5e-6,-0.29946 0.04557,-0.56639 0.136718,-0.80078 0.195307,-0.74217 0.611974,-1.11326 1.25,-1.11328 0.377598,2e-5 0.670566,0.10419 0.878907,0.3125 0.338534,0.42971 0.507804,0.99611 0.507812,1.69922 -8e-6,0.0781 -8e-6,0.14975 0,0.21484 l 0,10.9961 c 0.01301,0.10417 0.01952,0.20833 0.01953,0.3125 -7e-6,0.3125 -0.04558,0.58594 -0.136718,0.82031 -0.1823,0.71615 -0.605476,1.07422 -1.269532,1.07422 -0.351568,0 -0.631516,-0.10417 -0.839843,-0.3125 -0.351568,-0.45573 -0.527349,-1.01562 -0.527344,-1.67969 -5e-6,-0.0781 -5e-6,-0.14973 0,-0.21484"
             id="path3214" />
          <path
             inkscape:connector-curvature="0"
             d="m 52.36049,812.02454 4.042969,0 0,-8.96485 c 0.442702,0.39063 0.787754,0.6836 1.035156,0.87891 0.794263,0.58594 1.516919,0.8789 2.167969,0.8789 0.976552,0 1.770822,-0.48828 2.382812,-1.46484 0.481759,-0.79427 0.722644,-1.73177 0.722656,-2.8125 l 0,-13.96484 c -1.2e-5,-1.05467 -0.240897,-1.99868 -0.722656,-2.83203 -0.638031,-0.96352 -1.432301,-1.44529 -2.382812,-1.44532 -0.403655,3e-5 -0.781258,0.0977 -1.132813,0.29297 -0.651049,0.28648 -1.341152,0.77476 -2.070312,1.46485 l 0,-1.42579 -4.042969,0 0,29.39454 m 4.042969,-12.32422 0,-12.26563 c -6e-6,-0.37758 0.117181,-0.69008 0.351562,-0.9375 0.24739,-0.2604 0.527337,-0.3906 0.839844,-0.39062 0.299472,2e-5 0.553378,0.13022 0.761719,0.39062 0.221346,0.24742 0.332023,0.55992 0.332031,0.9375 l 0,12.26563 c -8e-6,0.37761 -0.110685,0.69662 -0.332031,0.95703 -0.208341,0.2474 -0.462247,0.3711 -0.761719,0.37109 -0.299486,10e-6 -0.572923,-0.13671 -0.820313,-0.41015 -0.247401,-0.28646 -0.371099,-0.59245 -0.371093,-0.91797"
             id="path3216" />
          <path
             inkscape:connector-curvature="0"
             d="m 65.79799,804.505 4.042969,0 0,-21.875 -4.042969,0 0,21.875 m 0,-25.48828 3.125,0 3.144531,-3.59375 -4.199219,0 -2.070312,3.59375"
             id="path3218" />
          <path
             inkscape:connector-curvature="0"
             d="m 72.419084,799.42688 c -10e-7,2.00521 0.416665,3.47005 1.25,4.39453 0.533851,0.66406 1.197913,0.99609 1.992187,0.99609 0.781245,0 1.49088,-0.2539 2.128906,-0.76171 0.455723,-0.36459 0.826816,-0.80078 1.113282,-1.3086 l 0.273437,0 c -8e-6,0.85938 0.12369,1.44532 0.371094,1.75781 l 3.945312,0 c -0.182303,-1.11979 -0.273449,-2.38932 -0.273437,-3.80859 l 0,-13.4375 c -1.2e-5,-1.41925 -0.494803,-2.60415 -1.484375,-3.55469 -0.976572,-0.93747 -2.122404,-1.40622 -3.4375,-1.40625 -1.562505,3e-5 -2.851567,0.57294 -3.867188,1.71875 -1.041668,1.1719 -1.562501,2.54559 -1.5625,4.1211 l 0,0.91797 4.042969,0 0,-1.03516 c -5e-6,-0.27342 0.02604,-0.61847 0.07813,-1.03516 0.143224,-0.76821 0.501296,-1.15232 1.074219,-1.15234 0.481764,2e-5 0.813795,0.22137 0.996094,0.66406 0.07812,0.26044 0.117179,0.70314 0.117187,1.32813 l 0,2.40234 c -0.02605,0.0651 -0.0586,0.13022 -0.09766,0.19531 -0.03907,0.0521 -0.09766,0.11069 -0.175781,0.17578 -0.07813,0.0651 -0.156258,0.12372 -0.234375,0.17579 -0.06511,0.0391 -0.162768,0.0977 -0.292969,0.17578 -0.130215,0.0651 -0.240892,0.12371 -0.332031,0.17578 -0.07813,0.0391 -0.20834,0.10418 -0.390625,0.19531 -0.169277,0.0912 -0.299485,0.16277 -0.390625,0.21484 -1.354172,0.71616 -2.408858,1.54299 -3.164063,2.48047 -1.119793,1.39324 -1.679688,3.19663 -1.679687,5.41016 m 3.964843,-0.60547 c -5e-6,-1.09374 0.22786,-2.07681 0.683594,-2.94922 0.468744,-0.8854 1.171868,-1.52994 2.109375,-1.93359 l 0,5.60547 c -8e-6,0.37761 -0.162768,0.69662 -0.488281,0.95703 -0.325528,0.2474 -0.722663,0.3711 -1.191406,0.37109 -0.429694,10e-6 -0.735683,-0.27994 -0.917969,-0.83984 -0.130213,-0.3776 -0.195318,-0.78125 -0.195313,-1.21094"
             id="path3220" />
          <path
             inkscape:connector-curvature="0"
             d="m 92.126115,804.505 4.316406,0 0,-11.75781 c 2.109367,10e-6 3.841139,-0.63801 5.195309,-1.91406 1.60155,-1.5104 2.40233,-3.8216 2.40235,-6.93359 -2e-5,-3.12498 -0.8008,-5.44269 -2.40235,-6.95313 -1.28907,-1.22393 -3.020838,-1.83591 -5.195309,-1.83594 l -4.316406,0 0,29.39453 m 4.316406,-16.15234 0,-8.84766 c 1.289055,3e-5 2.167961,0.34508 2.636719,1.03516 0.403637,0.59898 0.605459,1.77086 0.605469,3.51563 -1e-5,1.71876 -0.201832,2.84507 -0.605469,3.3789 -0.442717,0.612 -1.321622,0.91799 -2.636719,0.91797"
             id="path3222" />
          <path
             inkscape:connector-curvature="0"
             d="m 106.18861,804.505 4.04297,0 0,-21.875 -4.04297,0 0,21.875 m 0,-25.35156 4.04297,0 0,-4.04297 -4.04297,0 0,4.04297"
             id="path3224" />
          <path
             inkscape:connector-curvature="0"
             d="m 113.45424,804.505 4.04297,0 0,-15.19531 c -10e-6,-0.84634 0.29296,-1.51691 0.8789,-2.01172 0.46875,-0.44269 1.14583,-0.66404 2.03125,-0.66406 0.4427,2e-5 0.82031,0.0521 1.13282,0.15625 l 0,-4.49219 c -1.22397,3e-5 -2.25261,0.39065 -3.08594,1.17188 -0.28646,0.28648 -0.51433,0.57945 -0.68359,0.8789 -0.15626,0.2995 -0.24741,0.54039 -0.27344,0.72266 l 0,-2.44141 -4.04297,0 0,21.875"
             id="path3226" />
          <path
             inkscape:connector-curvature="0"
             d="m 122.65346,799.42688 c 0,2.00521 0.41666,3.47005 1.25,4.39453 0.53385,0.66406 1.19791,0.99609 1.99219,0.99609 0.78124,0 1.49088,-0.2539 2.1289,-0.76171 0.45572,-0.36459 0.82682,-0.80078 1.11328,-1.3086 l 0.27344,0 c -1e-5,0.85938 0.12369,1.44532 0.37109,1.75781 l 3.94532,0 c -0.18231,-1.11979 -0.27345,-2.38932 -0.27344,-3.80859 l 0,-13.4375 c -1e-5,-1.41925 -0.4948,-2.60415 -1.48438,-3.55469 -0.97657,-0.93747 -2.1224,-1.40622 -3.4375,-1.40625 -1.5625,3e-5 -2.85156,0.57294 -3.86718,1.71875 -1.04167,1.1719 -1.5625,2.54559 -1.5625,4.1211 l 0,0.91797 4.04297,0 0,-1.03516 c -1e-5,-0.27342 0.026,-0.61847 0.0781,-1.03516 0.14322,-0.76821 0.5013,-1.15232 1.07422,-1.15234 0.48176,2e-5 0.81379,0.22137 0.99609,0.66406 0.0781,0.26044 0.11718,0.70314 0.11719,1.32813 l 0,2.40234 c -0.026,0.0651 -0.0586,0.13022 -0.0977,0.19531 -0.0391,0.0521 -0.0977,0.11069 -0.17578,0.17578 -0.0781,0.0651 -0.15625,0.12372 -0.23437,0.17579 -0.0651,0.0391 -0.16277,0.0977 -0.29297,0.17578 -0.13022,0.0651 -0.24089,0.12371 -0.33203,0.17578 -0.0781,0.0391 -0.20834,0.10418 -0.39063,0.19531 -0.16927,0.0912 -0.29948,0.16277 -0.39062,0.21484 -1.35417,0.71616 -2.40886,1.54299 -3.16406,2.48047 -1.1198,1.39324 -1.67969,3.19663 -1.67969,5.41016 m 3.96484,-0.60547 c 0,-1.09374 0.22786,-2.07681 0.6836,-2.94922 0.46874,-0.8854 1.17186,-1.52994 2.10937,-1.93359 l 0,5.60547 c -1e-5,0.37761 -0.16277,0.69662 -0.48828,0.95703 -0.32553,0.2474 -0.72266,0.3711 -1.19141,0.37109 -0.42969,10e-6 -0.73568,-0.27994 -0.91797,-0.83984 -0.13021,-0.3776 -0.19531,-0.78125 -0.19531,-1.21094"
             id="path3228" />
          <path
             inkscape:connector-curvature="0"
             d="m 134.97768,786.26282 2.05078,0 0,11.21093 c 0,2.00522 0.20182,3.54819 0.60547,4.62891 0.67708,1.8099 2.01822,2.71484 4.02343,2.71484 0.65104,0 1.17187,-0.0391 1.5625,-0.11718 0.0651,-0.013 0.16276,-0.0391 0.29297,-0.0781 0.14322,-0.0391 0.24739,-0.0651 0.3125,-0.0781 l 0,-3.96485 c -0.0521,0.013 -0.13021,0.0261 -0.23437,0.0391 -0.10418,0.013 -0.1823,0.026 -0.23438,0.0391 -0.36459,0.0521 -0.70313,0.0781 -1.01562,0.0781 -0.5599,10e-6 -0.931,-0.43619 -1.11328,-1.30859 -0.10418,-0.48177 -0.15626,-1.24348 -0.15625,-2.28516 l 0,-10.8789 2.7539,0 0,-3.63282 -2.7539,0 0,-5.41015 -4.04297,0 0,5.41015 -2.05078,0 0,3.63282"
             id="path3230" />
          <path
             inkscape:connector-curvature="0"
             d="m 145.30971,799.42688 c 0,2.00521 0.41666,3.47005 1.25,4.39453 0.53385,0.66406 1.19791,0.99609 1.99219,0.99609 0.78124,0 1.49088,-0.2539 2.1289,-0.76171 0.45572,-0.36459 0.82682,-0.80078 1.11328,-1.3086 l 0.27344,0 c -1e-5,0.85938 0.12369,1.44532 0.37109,1.75781 l 3.94532,0 c -0.18231,-1.11979 -0.27345,-2.38932 -0.27344,-3.80859 l 0,-13.4375 c -1e-5,-1.41925 -0.4948,-2.60415 -1.48438,-3.55469 -0.97657,-0.93747 -2.1224,-1.40622 -3.4375,-1.40625 -1.5625,3e-5 -2.85156,0.57294 -3.86718,1.71875 -1.04167,1.1719 -1.5625,2.54559 -1.5625,4.1211 l 0,0.91797 4.04297,0 0,-1.03516 c -1e-5,-0.27342 0.026,-0.61847 0.0781,-1.03516 0.14322,-0.76821 0.5013,-1.15232 1.07422,-1.15234 0.48176,2e-5 0.81379,0.22137 0.99609,0.66406 0.0781,0.26044 0.11718,0.70314 0.11719,1.32813 l 0,2.40234 c -0.026,0.0651 -0.0586,0.13022 -0.0977,0.19531 -0.0391,0.0521 -0.0977,0.11069 -0.17578,0.17578 -0.0781,0.0651 -0.15625,0.12372 -0.23437,0.17579 -0.0651,0.0391 -0.16277,0.0977 -0.29297,0.17578 -0.13022,0.0651 -0.24089,0.12371 -0.33203,0.17578 -0.0781,0.0391 -0.20834,0.10418 -0.39063,0.19531 -0.16927,0.0912 -0.29948,0.16277 -0.39062,0.21484 -1.35417,0.71616 -2.40886,1.54299 -3.16406,2.48047 -1.1198,1.39324 -1.67969,3.19663 -1.67969,5.41016 m 3.96484,-0.60547 c 0,-1.09374 0.22786,-2.07681 0.6836,-2.94922 0.46874,-0.8854 1.17186,-1.52994 2.10937,-1.93359 l 0,5.60547 c -1e-5,0.37761 -0.16277,0.69662 -0.48828,0.95703 -0.32553,0.2474 -0.72266,0.3711 -1.19141,0.37109 -0.42969,10e-6 -0.73568,-0.27994 -0.91797,-0.83984 -0.13021,-0.3776 -0.19531,-0.78125 -0.19531,-1.21094"
             id="path3232" />
        </g>
      </g>
    </g>
  </g>
</svg>
