<?xml version="1.0" encoding="UTF-8" standalone="no"?>
<!-- Created with Inkscape (http://www.inkscape.org/) -->

<svg
   xmlns:dc="http://purl.org/dc/elements/1.1/"
   xmlns:cc="http://creativecommons.org/ns#"
   xmlns:rdf="http://www.w3.org/1999/02/22-rdf-syntax-ns#"
   xmlns:svg="http://www.w3.org/2000/svg"
   xmlns="http://www.w3.org/2000/svg"
   xmlns:sodipodi="http://sodipodi.sourceforge.net/DTD/sodipodi-0.dtd"
   xmlns:inkscape="http://www.inkscape.org/namespaces/inkscape"
   width="210mm"
   height="148mm"
   id="svg2"
   version="1.1"
   inkscape:version="0.91 r13725"
   sodipodi:docname="la_tirania_de_la_falta_de_estructuras.svg">
  <defs
     id="defs4" />
  <sodipodi:namedview
     id="base"
     pagecolor="#ffffff"
     bordercolor="#666666"
     borderopacity="1.0"
     inkscape:pageopacity="0.0"
     inkscape:pageshadow="2"
     inkscape:zoom="0.38603367"
     inkscape:cx="27.90562"
     inkscape:cy="-114.89837"
     inkscape:document-units="mm"
     inkscape:current-layer="layer1"
     showgrid="false"
     showguides="true"
     inkscape:guide-bbox="true"
     units="mm"
     inkscape:window-width="1366"
     inkscape:window-height="726"
     inkscape:window-x="0"
     inkscape:window-y="42"
     inkscape:window-maximized="0">
    <sodipodi:guide
       orientation="1,0"
       position="372.04724,0"
       id="guide3168"
       inkscape:label=""
       inkscape:color="rgb(0,0,255)" />
    <sodipodi:guide
       orientation="0,1"
       position="72.857143,271.42857"
       id="guide3277" />
  </sodipodi:namedview>
  <metadata
     id="metadata7">
    <rdf:RDF>
      <cc:Work
         rdf:about="">
        <dc:format>image/svg+xml</dc:format>
        <dc:type
           rdf:resource="http://purl.org/dc/dcmitype/StillImage" />
        <dc:title />
      </cc:Work>
    </rdf:RDF>
  </metadata>
  <g
     inkscape:label="Capa 1"
     inkscape:groupmode="layer"
     id="layer1"
     transform="translate(0,-527.9527)">
    <rect
       y="524.45728"
       x="-7.0438722e-07"
       height="527.90491"
       width="743.63721"
       id="rect3033"
       style="fill:#ff6600" />
    <g
       id="g3847"
       transform="matrix(0.10929874,0,0,0.10976979,379.02465,946.01697)"
       inkscape:export-filename="/srv/http/kiwwwi.com.ar/pastes/utopia-pirata-2.png"
       inkscape:export-xdpi="149"
       inkscape:export-ydpi="149" />
    <g
       style="stroke:none"
       transform="matrix(0.15508605,0,0,0.15575444,560.30508,883.46567)"
       id="g3851"
       inkscape:export-filename="/srv/http/kiwwwi.com.ar/pastes/utopia-pirata-2.png"
       inkscape:export-xdpi="149"
       inkscape:export-ydpi="149">
      <path
         style="fill:#ffffff;stroke:none;stroke-width:0.70476186"
         inkscape:connector-curvature="0"
         id="path719"
         d="m 910.84122,610.02908 c -15,21 -31.266,38.794 -49,60 l -24,27 c -20,19 -70,56 -93,71 -13,9 -27,16 -41,22 l -18.26,8.84 c 3,3 8.58,4.641 13.629,7 3,0 13.631,-5.84 16.631,-7.84 l 32,-18 c 6,-4 12,-9 19,-10 -3,7 -10,11 -17,15 l -19,11 c 0,0 -19.951,11.37 -22.68,13.26 5.469,2.16 13.68,4.641 18.889,6.74 5,0 11.791,-5 15.791,-7 11,-6 25,-15 36,-23 l 18,-12 c 14,-11 28,-23 41,-36 10,-9 20,-18 28,-29 11,-13 18,-28 26,-43 9,-14 12,-23 17,-38 1,-5 4,-13 2,-18 z" />
      <path
         style="fill:#ffffff;stroke:none;stroke-width:0.70476186"
         inkscape:connector-curvature="0"
         id="path725"
         d="m 451.84122,605.02908 c -3,11 1,24 5,34 9,24 24,45 39,65 9,13 24,29 35,40 l 12,10 26,23 c 21,16 60,40 84,51 l 32,14 13,5 c 15,6 30,10 46,13 9,2 19,5 28,5 -3,-11 -9,-10 -18,-13 l -33,-13 c -46,-19 -97,-38 -133,-74 7,0 12,6 17,10 7,5 16,11 24,16 22,13 72,36 97,45 10,4 27,11 37,11 8,1 19,-4 25,-8 -4,-4 -8,-3 -14,-4 l -31,-9 c -27,-7 -53,-17 -78,-30 l -14,-6 -19,-12 -23,-15 -24,-19 -41,-32 -38,-39 -19,-22 -20,-22 -15,-24 z" />
      <path
         style="fill:#ffffff;stroke:none;stroke-width:0.70476186"
         inkscape:connector-curvature="0"
         id="path731"
         d="m 772.84122,852.02908 c 2,4 6,10 6,15 0,11 -13,21 -23,20 -4,-1 -13,-6 -16,0 -1,2 -1,4 0,5 0,4 5,6 9,8 11,3 23,-1 32,-7 7,-4 12,-11 14,-19 l 2,-13 c 1,-4 5,-5 10,-12 6,-8 12,-22 20,-28 3,-2 6,-3 10,-4 -2,-3 -4,-5 -6,-8 -2,-1 -4,-3 -6,-3 -3,-1 -7,-1 -10,1 -14,7 -11,20 -19,30 -6,8 -13,12 -23,15 z" />
      <path
         style="fill:#ffffff;stroke:none;stroke-width:0.70476186"
         inkscape:connector-curvature="0"
         id="path737"
         d="m 804.84122,865.02908 c 7,3 13,2 20,2 l 15,1 c 7,0 9,-4 12,-10 1,-2 2,-6 0,-8 -2,-2 -6,-2 -9,-2 l -17,1 c -3,0 -8,0 -11,1 -5,3 -9,10 -10,15 z" />
      <path
         style="fill:#ffffff;stroke:none;stroke-width:0.70476186"
         inkscape:connector-curvature="0"
         id="path743"
         d="m 858.84122,879.02908 c -5,-2 -8,-4 -11,-8 -1,1 -2,1 -3,2 -1,5 12,17 14,6 z" />
      <path
         style="fill:#ffffff;stroke:none;stroke-width:0.70476186"
         inkscape:connector-curvature="0"
         id="path744"
         d="m 851.84122,845.02908 8,5 c -2,4 -7,12 -6,17 1,10 15,10 21,4 7,-8 7,-20 -3,-26 -6,-3 -13,-2 -20,0 z" />
      <path
         style="fill:#ffffff;stroke:none;stroke-width:0.70476186"
         inkscape:connector-curvature="0"
         id="selection_x5F_to_x5F_path_x23_5"
         d="m 492.84122,873.02908 1,1 c 8,-2 13,-5 14,-13 -6,1 -12,7 -15,12 z" />
      <path
         style="fill:#ffffff;stroke:none;stroke-width:0.70476186"
         inkscape:connector-curvature="0"
         id="selection_x5F_to_x5F_path_x23_4"
         d="m 499.84122,836.02908 c -3,-2 -6,-3 -10,-3 -3,0 -6,0 -9,1 -10,4 -11,20 -3,27 4,4 14,6 18,1 4,-4 3,-9 1,-14 -1,-3 -3,-7 -1,-9 1,-2 3,-2 4,-3 z" />
      <path
         style="fill:#ffffff;stroke:none;stroke-width:0.70476186"
         inkscape:connector-curvature="0"
         id="selection_x5F_to_x5F_path_x23_3"
         d="m 498.84122,840.02908 c 1,3 6,15 8,17 3,2 6,2 9,2 l 18,-1 13,0 c 0,-3 0,-6 -1,-8 -3,-8 -14,-12 -22,-12 l -9,1 c -6,0 -11,-1 -16,1 z" />
      <path
         style="fill:#ffffff;stroke:none;stroke-width:0.70476186"
         inkscape:connector-curvature="0"
         id="selection_x5F_to_x5F_path_x23_2"
         d="m 517.84122,808.02908 c 19,5 19,21 27,32 3,4 11,10 12,14 1,3 0,4 1,11 2,9 8,18 16,23 9,6 17,10 28,7 6,-2 12,-6 9,-13 -3,-7 -14,0 -21,-2 -7,-3 -15,-13 -15,-21 l 4,-14 c -11,-4 -24,-13 -29,-24 -3,-7 -3,-17 -8,-22 -9,-7 -21,-1 -24,9 z" />
      <path
         style="fill:#ffffff;stroke:none;stroke-width:0.70476186"
         inkscape:connector-curvature="0"
         id="path758"
         d="m 565.84122,831.02908 c 3,4 5,5 9,7 14,8 23,2 37,-1 l 29,-9 c -3.84,-2.58 -12.42,-7.95 -16,-10 l -19,5 -40,8 z" />
      <path
         style="fill:#ffffff;stroke:none;stroke-width:0.70476186"
         inkscape:connector-curvature="0"
         id="path759"
         d="m 579.84122,860.02908 c 26,0 50,-8 75,-14 0,0 11,-5.206 14.676,-5.206 -3.47,-2.529 -17.622,-7.638 -19.836,-9.634 -3,0.89 -14.84,4.84 -18.84,5.84 l -25,7 -12,3 c -7,3 -12,4 -14,13 z" />
    </g>
    <ellipse
       ry="16.786436"
       rx="16.714401"
       id="circle3807"
       cy="966.38068"
       cx="665.9425"
       style="fill:none;stroke:#ffffff;stroke-width:2.19068027" />
    <path
       id="path3809"
       d="m 665.80598,955.88922 c -4.95018,0 -9.09781,3.46257 -10.17333,8.10701 l 4.99175,0 c 0.90075,-1.96998 2.88305,-3.33813 5.18158,-3.33813 3.14547,0 5.69818,2.56372 5.69818,5.72258 0,3.15886 -2.55271,5.72273 -5.69818,5.72273 -2.29853,0 -4.28099,-1.3683 -5.18158,-3.33829 l -4.99175,0 c 1.07552,4.64444 5.22315,8.10702 10.17333,8.10702 5.76657,0 10.44645,-4.7002 10.44645,-10.49146 0,-5.79126 -4.68003,-10.49146 -10.44645,-10.49146 z"
       inkscape:connector-curvature="0"
       style="fill:#ffffff" />
    <g
       transform="matrix(-0.16596477,0.04466179,-0.04447013,-0.16668005,428.70347,735.83039)"
       style="font-style:normal;font-weight:normal;font-size:121.8484726px;line-height:125%;font-family:'Bitstream Vera Sans';letter-spacing:0px;word-spacing:0px;fill:#ffffff;fill-opacity:1;stroke:none"
       id="text3059"
       inkscape:export-filename="/srv/http/kiwwwi.com.ar/pastes/utopia-pirata-2.png"
       inkscape:export-xdpi="149"
       inkscape:export-ydpi="149">
      <g
         id="g3922"
         transform="matrix(0.99707364,-0.07644708,0.07644708,0.99707364,125.06749,-81.555005)">
        <circle
           inkscape:export-ydpi="149"
           inkscape:export-xdpi="149"
           inkscape:export-filename="/srv/http/kiwwwi.com.ar/pastes/utopia-pirata-1.png"
           style="fill:none;stroke:none"
           id="path3865"
           transform="matrix(-0.8718552,-0.2336129,0.2336129,-0.8718552,-1786.4657,-3244.8873)"
           cx="-1311.178"
           cy="-1543.7299"
           r="127.27922" />
        <path
           inkscape:connector-curvature="0"
           id="path3897"
           style="font-style:normal;font-variant:normal;font-weight:normal;font-stretch:normal;font-family:'League Gothic';-inkscape-font-specification:'League Gothic';fill:#ffffff"
           d="m -778.04883,-1594.9487 -70.08465,-12.3215 c -3.57914,-0.7529 -6.69277,-2.0426 -9.22087,-3.848 -2.21027,-1.502 -4.19505,-3.583 -5.5732,-6.2996 -1.49816,-2.7377 -2.00858,-6.1679 -1.24904,-10.4881 0.75954,-4.3203 2.43037,-7.4907 4.77246,-9.5532 2.22209,-2.0837 4.77652,-3.243 7.36656,-3.9011 2.99226,-0.8348 6.35907,-0.9852 9.98041,-0.4723 l 70.08465,12.3215 -2.27862,12.9608 -70.08465,-12.3214 c -2.52017,-0.4431 -4.30577,-0.1384 -5.83684,0.8296 -0.70553,0.4946 -1.21325,1.2713 -1.40313,2.3514 -0.40087,2.2801 0.84934,3.6134 2.56507,4.4099 0.77676,0.5077 1.83573,0.8176 3.15582,1.0497 l 70.08465,12.3214 -2.27862,12.9609" />
        <path
           inkscape:connector-curvature="0"
           id="path3899"
           style="font-style:normal;font-variant:normal;font-weight:normal;font-stretch:normal;font-family:'League Gothic';-inkscape-font-specification:'League Gothic';fill:#ffffff"
           d="m -801.09593,-1568.8963 11.85811,6.5051 -18.28444,33.3309 -11.85812,-6.5051 5.97761,-10.8966 -66.66184,-36.5689 6.32923,-11.5376 66.66184,36.5689 5.97761,-10.8967" />
        <path
           inkscape:connector-curvature="0"
           id="path3901"
           style="font-style:normal;font-variant:normal;font-weight:normal;font-stretch:normal;font-family:'League Gothic';-inkscape-font-specification:'League Gothic';fill:#ffffff"
           d="m -902.22684,-1531.2768 c -2.40064,-2.7594 -4.10625,-5.6661 -5.0338,-8.6309 -0.857,-2.5312 -1.18494,-5.3882 -0.64563,-8.3863 0.45632,-3.0873 2.1181,-6.1311 5.32973,-9.1189 3.21164,-2.9879 6.45655,-4.5088 9.56871,-4.7413 3.02918,-0.3218 5.76585,0.2943 8.22867,1.3316 2.89022,1.139 5.66638,3.0497 8.24545,5.6431 l 35.93698,38.6289 c 2.31765,2.6701 4.02326,5.5768 4.95082,8.5417 0.85699,2.5312 1.35714,5.3944 0.81783,8.3924 -0.53932,2.9981 -2.20731,6.2141 -5.41895,9.202 -3.21163,2.9878 -6.45032,4.3365 -9.47949,4.6583 -3.02918,0.3217 -5.93806,-0.3006 -8.40087,-1.3379 -2.89023,-1.1389 -5.66638,-3.0497 -8.16246,-5.5539 l -35.93699,-38.6288 m 45.57191,29.6653 c 1.65991,1.7843 3.1787,2.7013 5.06676,2.9419 0.86104,0.031 1.82372,-0.3653 2.62663,-1.1122 1.69503,-1.5769 1.33601,-3.5729 0.61392,-5.0646 -0.39633,-0.9627 -1.05407,-1.8486 -1.88403,-2.7407 l -35.93698,-38.6289 c -1.74291,-1.8735 -3.35091,-2.7075 -5.15597,-2.8588 -0.86104,-0.031 -1.73451,0.2822 -2.53742,1.0292 -1.69503,1.5769 -1.502,3.3944 -0.61392,5.0645 0.31333,0.8735 0.97108,1.7594 1.88402,2.7408 l 35.93699,38.6288" />
        <path
           inkscape:connector-curvature="0"
           id="path3903"
           style="font-style:normal;font-variant:normal;font-weight:normal;font-stretch:normal;font-family:'League Gothic';-inkscape-font-specification:'League Gothic';fill:#ffffff"
           d="m -886.59996,-1457.8116 -12.05827,5.2702 c -5.24757,2.2934 -11.08073,3.2471 -16.75926,1.2077 -5.67853,-2.0394 -11.09081,-7.1207 -15.18979,-16.4994 -4.09898,-9.3786 -4.10323,-16.6905 -1.74292,-22.2434 2.3603,-5.5528 6.92473,-9.4094 12.1723,-11.7029 l -14.34645,-32.8252 12.05826,-5.2702 35.86613,82.0632 m -28.21022,-31.6862 c -3.68447,1.6103 -5.73635,3.305 -6.2466,5.7886 -0.55905,2.372 0.42353,5.5329 2.42423,10.1106 2.00069,4.5777 3.75077,7.6692 5.96893,9.0933 2.21816,1.4242 4.95321,1.2926 8.63767,-0.3177 l -10.78423,-24.6748" />
        <path
           inkscape:connector-curvature="0"
           id="path3905"
           style="font-style:normal;font-variant:normal;font-weight:normal;font-stretch:normal;font-family:'League Gothic';-inkscape-font-specification:'League Gothic';fill:#ffffff"
           d="m -948.99443,-1436.6047 -13.00674,2.0001 -13.61231,-88.5181 13.00674,-2.0001 13.61231,88.5181" />
        <path
           inkscape:connector-curvature="0"
           id="path3907"
           style="font-style:normal;font-variant:normal;font-weight:normal;font-stretch:normal;font-family:'League Gothic';-inkscape-font-specification:'League Gothic';fill:#ffffff"
           d="m -981.75508,-1521.0222 -23.62102,87.4398 -15.9797,-1.8289 -3.2539,-90.5157 12.7111,1.4548 0.3429,18.4359 12.59007,1.4409 4.49944,-17.8816 12.71111,1.4548 m -29.02582,57.5093 0.1,2.3417 0.7264,0.083 0.6264,-2.2585 6.9672,-27.656 -8.9583,-1.0253 0.5384,28.515" />
        <path
           inkscape:connector-curvature="0"
           id="path3909"
           style="font-style:normal;font-variant:normal;font-weight:normal;font-stretch:normal;font-family:'League Gothic';-inkscape-font-specification:'League Gothic';fill:#ffffff"
           d="m -1099.1166,-1462.6292 -10.788,-7.5362 c -4.6948,-3.2797 -8.5522,-7.758 -9.7757,-13.6663 -1.2235,-5.9083 0.2868,-13.1768 6.1483,-21.5675 5.8615,-8.3906 12.0967,-12.2098 18.0653,-13.094 5.9685,-0.8841 11.6402,0.9971 16.335,4.2767 l 20.5152,-29.3674 10.7881,7.5362 -51.2882,73.4185 m 12.3091,-40.5995 c -3.2963,-2.3027 -5.8127,-3.1688 -8.1976,-2.308 -2.3152,0.7609 -4.4989,3.2485 -7.3599,7.344 -2.8609,4.0954 -4.5849,7.2016 -4.6423,9.8369 -0.057,2.6354 1.4821,4.8999 4.7784,7.2026 l 15.4214,-22.0755" />
        <path
           inkscape:connector-curvature="0"
           id="path3911"
           style="font-style:normal;font-variant:normal;font-weight:normal;font-stretch:normal;font-family:'League Gothic';-inkscape-font-specification:'League Gothic';fill:#ffffff"
           d="m -1149.6319,-1504.5948 -8.5195,-10.0296 68.2572,-57.9801 8.5196,10.0296 -68.2573,57.9801" />
        <path
           inkscape:connector-curvature="0"
           id="path3913"
           style="font-style:normal;font-variant:normal;font-weight:normal;font-stretch:normal;font-family:'League Gothic';-inkscape-font-specification:'League Gothic';fill:#ffffff"
           d="m -1106.4208,-1601.3444 -31.2348,22.3102 1.5099,3.1948 34.1507,-16.1412 5.6233,11.8977 -80.97,38.2701 -5.6234,-11.8977 c -6.7168,-14.211 -1.5386,-24.071 13.7741,-31.3085 8.0419,-3.8009 16.302,-5.1443 21.5214,-2.0855 l 35.6254,-26.1376 5.6234,11.8977 m -40.7412,30.7118 c -0.781,-1.6525 -2.0427,-3.7516 -4.4181,-4.7852 -2.3754,-1.0337 -6.0267,-1.06 -11.7551,1.6476 -5.7285,2.7075 -8.1362,5.5975 -8.8454,8.0891 -0.7092,2.4916 0.222,4.7469 1.003,6.3994 l 24.0156,-11.3509" />
        <path
           inkscape:connector-curvature="0"
           id="path3915"
           style="font-style:normal;font-variant:normal;font-weight:normal;font-stretch:normal;font-family:'League Gothic';-inkscape-font-specification:'League Gothic';fill:#ffffff"
           d="m -1113.2219,-1617.132 -90.458,-4.5863 -1.5934,-16.0049 87.7782,-22.331 1.2675,12.7311 -17.946,4.2357 1.2554,12.6099 18.4288,0.6143 1.2675,12.7312 m -62.3486,-16.2013 -2.2675,0.5931 0.072,0.7275 2.34,0.1344 28.504,0.9582 -0.8933,-8.9724 -27.7556,6.5592" />
        <path
           inkscape:connector-curvature="0"
           id="path3917"
           style="font-style:normal;font-variant:normal;font-weight:normal;font-stretch:normal;font-family:'League Gothic';-inkscape-font-specification:'League Gothic';fill:#ffffff"
           d="m -1191.1447,-1674.8241 -13.2316,-2.8027 7.8779,-37.1915 13.2316,2.8027 -2.5754,12.1588 74.383,15.7558 -2.727,12.874 -74.383,-15.7558 -2.5755,12.1587" />
        <path
           inkscape:connector-curvature="0"
           id="path3919"
           style="font-style:normal;font-variant:normal;font-weight:normal;font-stretch:normal;font-family:'League Gothic';-inkscape-font-specification:'League Gothic';fill:#ffffff"
           d="m -1109.3262,-1695.6338 -70.438,-56.94 8.1301,-13.8779 84.1114,33.5999 -6.4672,11.0393 -17.0021,-7.1361 -6.4056,10.9341 14.5385,11.3415 -6.4671,11.0392 m -40.876,-49.7893 -2.1823,-0.8549 -0.3696,0.6309 1.8128,1.4856 22.4821,17.5485 4.5578,-7.78 -26.3008,-11.0301" />
      </g>
    </g>
    <rect
       style="fill:#ffffff"
       id="rect3035"
       width="744.09448"
       height="173.31082"
       x="2.9508118e-07"
       y="589.1864" />
    <g
       style="font-style:normal;font-variant:normal;font-weight:normal;font-stretch:normal;font-size:medium;line-height:125%;font-family:'League Gothic';-inkscape-font-specification:'League Gothic';letter-spacing:0px;word-spacing:0px;fill:#000000;fill-opacity:1;stroke:none"
       id="g3435"
       transform="matrix(1.4188819,0,0,1.4188819,-316.93984,-345.99042)">
      <g
         transform="translate(13.24981,0)"
         id="text3305"
         style="font-size:28.1912117px;line-height:125%;font-family:FontAwesome;-inkscape-font-specification:FontAwesome;fill:#000000">
        <g
           id="g3402">
          <path
             d="m 512.25231,706.81389 4.6321,0 0,27.23504 6.13325,0 0,4.28899 -10.76535,0 0,-31.52403"
             style="font-family:'League Gothic';-inkscape-font-specification:'League Gothic'"
             id="path3316"
             inkscape:connector-curvature="0" />
          <path
             d="m 531.4636,720.45286 c 0,-0.38601 0,-0.98647 -0.12871,-1.41536 -0.17157,-0.4289 -0.51469,-0.72913 -1.07225,-0.72913 -0.72912,0 -1.02936,0.55758 -1.15802,1.2438 -0.0429,0.34312 -0.0858,0.72914 -0.0858,1.11515 0,0.386 0,0.77201 0,1.11513 l -4.33186,0 0,-0.98647 c 0,-1.71559 0.64335,-3.25962 1.6727,-4.41766 1.02936,-1.15802 2.48761,-1.84426 4.16032,-1.84426 1.41536,0 2.70205,0.55758 3.68852,1.50116 0.98647,0.94356 1.58693,2.27315 1.58693,3.81718 l 0,14.41098 c 0,2.1016 0.12871,3.04518 0.30021,4.07454 l -4.24609,0 c -0.38601,-0.4718 -0.38601,-1.58693 -0.38601,-1.88716 l -0.30023,0 c -0.21444,0.38601 -0.60044,0.94358 -1.20091,1.41536 -0.60046,0.4718 -1.41536,0.81492 -2.27315,0.81492 -0.55757,0 -1.45825,-0.21446 -2.14449,-1.07226 -0.72912,-0.8149 -1.32959,-2.27315 -1.32959,-4.71787 0,-2.61628 0.77202,-4.50344 1.80137,-5.79012 1.02936,-1.2867 2.31606,-2.10161 3.38831,-2.65918 1.07223,-0.55756 1.88714,-0.94357 2.05869,-1.41536 l 0,-2.57339 m 0,6.56215 c -2.10158,0.90068 -3.00227,3.00228 -3.00227,5.23255 0,0.30023 0.0429,0.81491 0.21443,1.2867 0.17157,0.51467 0.4718,0.90069 0.98647,0.90069 0.98647,0 1.80137,-0.60046 1.80137,-1.41537 l 0,-6.00457"
             style="font-family:'League Gothic';-inkscape-font-specification:'League Gothic'"
             id="path3318"
             inkscape:connector-curvature="0" />
          <path
             d="m 550.57369,709.08706 0,5.79012 2.9594,0 0,3.90297 -2.9594,0 0,11.66603 c 0,0.72913 0,1.67271 0.17156,2.44473 0.17156,0.77201 0.51468,1.41536 1.20092,1.41536 0.34312,0 0.77201,-0.0429 1.07224,-0.0858 0.17156,-0.0429 0.34312,-0.0429 0.51468,-0.0858 l 0,4.24609 c -0.21444,0.0429 -0.4289,0.12871 -0.64335,0.17155 -0.4289,0.0858 -0.98646,0.12871 -1.6727,0.12871 -2.53049,0 -3.73142,-1.2867 -4.33186,-2.91652 -0.60047,-1.6298 -0.64335,-3.60274 -0.64335,-4.97522 l 0,-12.00915 -2.18738,0 0,-3.90297 2.18738,0 0,-5.79012 4.33186,0"
             style="font-family:'League Gothic';-inkscape-font-specification:'League Gothic'"
             id="path3320"
             inkscape:connector-curvature="0" />
          <path
             d="m 555.81228,706.81389 4.33187,0 0,4.33189 -4.33187,0 0,-4.33189 m 0,31.52403 0,-23.46074 4.33187,0 0,23.46074 -4.33187,0"
             style="font-family:'League Gothic';-inkscape-font-specification:'League Gothic'"
             id="path3322"
             inkscape:connector-curvature="0" />
          <path
             d="m 572.26656,719.33773 c -0.386,-0.12871 -0.81491,-0.17157 -1.20092,-0.17157 -0.68624,0 -1.50114,0.0858 -2.18738,0.72913 -0.8149,0.68624 -0.94358,1.41536 -0.94358,2.14449 l 0,16.29814 -4.33187,0 0,-23.46074 4.33187,0 0,2.61629 c 0.0429,-0.30023 0.34312,-1.02936 1.02936,-1.7156 0.68624,-0.64335 1.71559,-1.24381 3.30252,-1.24381 l 0,4.80367"
             style="font-family:'League Gothic';-inkscape-font-specification:'League Gothic'"
             id="path3324"
             inkscape:connector-curvature="0" />
          <path
             d="m 580.38479,720.45286 c 0,-0.38601 0,-0.98647 -0.12871,-1.41536 -0.17155,-0.4289 -0.51467,-0.72913 -1.07225,-0.72913 -0.72912,0 -1.02935,0.55758 -1.15802,1.2438 -0.0429,0.34312 -0.0858,0.72914 -0.0858,1.11515 0,0.386 0,0.77201 0,1.11513 l -4.33189,0 0,-0.98647 c 0,-1.71559 0.64335,-3.25962 1.67271,-4.41766 1.02936,-1.15802 2.48761,-1.84426 4.16032,-1.84426 1.41536,0 2.70206,0.55758 3.68851,1.50116 0.98647,0.94356 1.58694,2.27315 1.58694,3.81718 l 0,14.41098 c 0,2.1016 0.12871,3.04518 0.30023,4.07454 l -4.24609,0 c -0.38601,-0.4718 -0.38603,-1.58693 -0.38603,-1.88716 l -0.30021,0 c -0.21446,0.38601 -0.60046,0.94358 -1.20093,1.41536 -0.60044,0.4718 -1.41536,0.81492 -2.27315,0.81492 -0.55757,0 -1.45825,-0.21446 -2.14449,-1.07226 -0.72913,-0.8149 -1.32959,-2.27315 -1.32959,-4.71787 0,-2.61628 0.77202,-4.50344 1.80137,-5.79012 1.02936,-1.2867 2.31606,-2.10161 3.3883,-2.65918 1.07225,-0.55756 1.88715,-0.94357 2.0587,-1.41536 l 0,-2.57339 m 0,6.56215 c -2.10158,0.90068 -3.00228,3.00228 -3.00228,5.23255 0,0.30023 0.0429,0.81491 0.21446,1.2867 0.17155,0.51467 0.47178,0.90069 0.98645,0.90069 0.98647,0 1.80137,-0.60046 1.80137,-1.41537 l 0,-6.00457"
             style="font-family:'League Gothic';-inkscape-font-specification:'League Gothic'"
             id="path3326"
             inkscape:connector-curvature="0" />
          <path
             d="m 591.8089,738.33792 -4.33188,0 0,-23.46074 4.33188,0 0,1.97294 c 0.0858,-0.0429 0.25733,-0.21446 0.51467,-0.4718 0.47179,-0.47178 1.11514,-1.11513 1.88715,-1.54403 0.38601,-0.21444 0.72913,-0.30023 1.11513,-0.30023 1.15804,0 1.97294,0.68624 2.48763,1.54405 0.51467,0.90067 0.77201,2.05871 0.77201,3.04516 l 0,19.21465 -4.33188,0 0,-18.5713 c 0,-0.90067 -0.51467,-1.02935 -1.02934,-1.02935 -0.4718,0 -0.72914,0.25734 -1.02936,0.55757 -0.12871,0.17155 -0.25734,0.34312 -0.38601,0.55756 l 0,18.48552"
             style="font-family:'League Gothic';-inkscape-font-specification:'League Gothic'"
             id="path3328"
             inkscape:connector-curvature="0" />
          <path
             d="m 608.70279,707.15701 -3.3883,3.86009 -3.3454,0 2.23027,-3.86009 4.50343,0 m -6.7337,31.18091 0,-23.46074 4.33187,0 0,23.46074 -4.33187,0"
             style="font-family:'League Gothic';-inkscape-font-specification:'League Gothic'"
             id="path3330"
             inkscape:connector-curvature="0" />
          <path
             d="m 616.32177,720.45286 c 0,-0.38601 0,-0.98647 -0.1287,-1.41536 -0.17156,-0.4289 -0.51468,-0.72913 -1.07225,-0.72913 -0.72913,0 -1.02936,0.55758 -1.15802,1.2438 -0.0429,0.34312 -0.0858,0.72914 -0.0858,1.11515 0,0.386 0,0.77201 0,1.11513 l -4.33188,0 0,-0.98647 c 0,-1.71559 0.64335,-3.25962 1.67271,-4.41766 1.02935,-1.15802 2.48761,-1.84426 4.16031,-1.84426 1.41537,0 2.70207,0.55758 3.68852,1.50116 0.98647,0.94356 1.58693,2.27315 1.58693,3.81718 l 0,14.41098 c 0,2.1016 0.12871,3.04518 0.30023,4.07454 l -4.24609,0 c -0.38601,-0.4718 -0.38601,-1.58693 -0.38601,-1.88716 l -0.30023,0 c -0.21445,0.38601 -0.60046,0.94358 -1.20092,1.41536 -0.60045,0.4718 -1.41537,0.81492 -2.27315,0.81492 -0.55758,0 -1.45826,-0.21446 -2.14449,-1.07226 -0.72913,-0.8149 -1.32959,-2.27315 -1.32959,-4.71787 0,-2.61628 0.77201,-4.50344 1.80137,-5.79012 1.02936,-1.2867 2.31606,-2.10161 3.3883,-2.65918 1.07224,-0.55756 1.88715,-0.94357 2.05871,-1.41536 l 0,-2.57339 m 0,6.56215 c -2.1016,0.90068 -3.00229,3.00228 -3.00229,5.23255 0,0.30023 0.0429,0.81491 0.21445,1.2867 0.17156,0.51467 0.47179,0.90069 0.98646,0.90069 0.98647,0 1.80138,-0.60046 1.80138,-1.41537 l 0,-6.00457"
             style="font-family:'League Gothic';-inkscape-font-specification:'League Gothic'"
             id="path3332"
             inkscape:connector-curvature="0" />
        </g>
        <g
           id="g3378">
          <path
             d="m 519.44107,765.23716 -2.84731,0 0,-1.01488 c -0.47925,0.45106 -0.90212,0.78935 -1.43775,1.04307 -0.28191,0.14096 -0.56383,0.19734 -0.81755,0.19734 -0.78935,0 -1.32498,-0.45106 -1.66328,-1.04308 -0.36648,-0.56382 -0.53563,-1.32498 -0.53563,-1.97338 l 0,-9.83873 c 0,-0.6484 0.16915,-1.40956 0.53563,-2.00158 0.3383,-0.56382 0.87393,-1.01488 1.66328,-1.01488 0.53563,0 1.09946,0.3101 1.52233,0.6202 0.25372,0.19734 0.47925,0.39468 0.73297,0.62021 l 0,-6.31483 2.84731,0 0,20.72054 m -2.84731,-12.03765 c 0,-0.45106 -0.42287,-0.93031 -0.84574,-0.93031 -0.42286,0 -0.76116,0.39468 -0.76116,0.93031 l 0,8.6547 c 0,0.53564 0.3383,0.93031 0.76116,0.93031 0.42287,0 0.84574,-0.39467 0.84574,-0.93031 l 0,-8.6547"
             style="font-family:'League Gothic';-inkscape-font-specification:'League Gothic'"
             id="path3334"
             inkscape:connector-curvature="0" />
          <path
             d="m 528.85517,759.71168 0,1.77605 c -0.0846,1.49413 -0.53563,2.53721 -1.55051,3.35475 -0.50744,0.42287 -1.21223,0.62021 -2.14253,0.62021 -1.83243,0 -2.76274,-1.01488 -3.2138,-2.02977 -0.25372,-0.59201 -0.42287,-1.2686 -0.45106,-2.02976 l 0,-7.75259 c 0.0846,-1.49413 0.56382,-2.59359 1.57871,-3.43933 0.47925,-0.42286 1.18403,-0.6202 2.11434,-0.6202 1.83242,0 2.76274,1.01488 3.21379,2.00157 0.25373,0.59202 0.42287,1.24042 0.45106,1.97339 l 0,4.4824 -4.70793,0 0,3.35476 c 0.0282,0.59201 0.19734,1.01488 0.45106,1.32498 0.14096,0.14096 0.3383,0.22553 0.59202,0.22553 0.53563,0 0.78935,-0.33829 0.90212,-0.76116 0.0846,-0.22553 0.11276,-0.47925 0.11276,-0.78935 l 0,-1.69148 2.64997,0 m -4.70793,-3.89038 2.05796,0 0,-2.17073 c 0,-0.59201 -0.11276,-1.01488 -0.39468,-1.35318 -0.14095,-0.14095 -0.36648,-0.22553 -0.6202,-0.22553 -0.53564,0 -0.76117,0.36649 -0.90212,0.78936 -0.0846,0.22553 -0.11277,0.47925 -0.14096,0.78935 l 0,2.17073"
             style="font-family:'League Gothic';-inkscape-font-specification:'League Gothic'"
             id="path3336"
             inkscape:connector-curvature="0" />
          <path
             d="m 535.15767,765.23716 0,-20.72054 2.84731,0 0,20.72054 -2.84731,0"
             style="font-family:'League Gothic';-inkscape-font-specification:'League Gothic'"
             id="path3338"
             inkscape:connector-curvature="0" />
          <path
             d="m 544.5916,753.48142 c 0,-0.25372 0,-0.64839 -0.0846,-0.93031 -0.11276,-0.28191 -0.33829,-0.47925 -0.70478,-0.47925 -0.47925,0 -0.67659,0.36649 -0.76116,0.81755 -0.0282,0.22553 -0.0564,0.47925 -0.0564,0.73297 0,0.25372 0,0.50744 0,0.73297 l -2.84732,0 0,-0.6484 c 0,-1.12764 0.42287,-2.14253 1.09946,-2.90369 0.67659,-0.76116 1.63509,-1.21222 2.73455,-1.21222 0.93031,0 1.77605,0.36648 2.42444,0.98669 0.6484,0.62021 1.04308,1.49414 1.04308,2.50902 l 0,9.47224 c 0,1.38137 0.0846,2.00158 0.19734,2.67817 l -2.79093,0 c -0.25372,-0.3101 -0.25372,-1.04308 -0.25372,-1.24041 l -0.19734,0 c -0.14096,0.25372 -0.39468,0.6202 -0.78936,0.93031 -0.39467,0.3101 -0.93031,0.53563 -1.49413,0.53563 -0.36649,0 -0.9585,-0.14096 -1.40956,-0.70478 -0.47925,-0.53563 -0.87393,-1.49414 -0.87393,-3.10103 0,-1.71967 0.50744,-2.96008 1.18403,-3.80582 0.67659,-0.84573 1.52233,-1.38137 2.22711,-1.74785 0.70478,-0.36649 1.24041,-0.62021 1.35318,-0.93031 l 0,-1.69148 m 0,4.31326 c -1.38137,0.59201 -1.97339,1.97339 -1.97339,3.43933 0,0.19734 0.0282,0.53563 0.14096,0.84573 0.11276,0.3383 0.3101,0.59202 0.64839,0.59202 0.6484,0 1.18404,-0.39468 1.18404,-0.93031 l 0,-3.94677"
             style="font-family:'League Gothic';-inkscape-font-specification:'League Gothic'"
             id="path3340"
             inkscape:connector-curvature="0" />
          <path
             d="m 554.30523,765.23716 0,-12.85519 -1.43775,0 0,-2.5654 1.43775,0 0,-0.42287 c 0,-0.78935 0.0282,-2.05796 0.42287,-3.10103 0.39468,-1.04308 1.18403,-1.88882 2.84731,-1.88882 0.45106,0 0.76116,0.0282 0.98669,0.11277 l 0.3383,0.0846 0,2.45264 c -0.0846,-0.0282 -0.16915,-0.0282 -0.25372,-0.0564 -0.19734,-0.0282 -0.39468,-0.0564 -0.59202,-0.0564 -0.47925,0 -0.70478,0.42287 -0.81754,0.9585 -0.0564,0.28192 -0.0846,0.56383 -0.0846,0.84574 0,0.28191 0,0.50744 0,0.67659 l 0,0.39468 1.43776,0 0,2.5654 -1.43776,0 0,12.85519 -2.84731,0"
             style="font-family:'League Gothic';-inkscape-font-specification:'League Gothic'"
             id="path3342"
             inkscape:connector-curvature="0" />
          <path
             d="m 564.52366,753.48142 c 0,-0.25372 0,-0.64839 -0.0846,-0.93031 -0.11276,-0.28191 -0.33829,-0.47925 -0.70478,-0.47925 -0.47925,0 -0.67659,0.36649 -0.76116,0.81755 -0.0282,0.22553 -0.0564,0.47925 -0.0564,0.73297 0,0.25372 0,0.50744 0,0.73297 l -2.84731,0 0,-0.6484 c 0,-1.12764 0.42287,-2.14253 1.09946,-2.90369 0.67659,-0.76116 1.63509,-1.21222 2.73455,-1.21222 0.93031,0 1.77604,0.36648 2.42444,0.98669 0.6484,0.62021 1.04308,1.49414 1.04308,2.50902 l 0,9.47224 c 0,1.38137 0.0846,2.00158 0.19733,2.67817 l -2.79093,0 c -0.25372,-0.3101 -0.25372,-1.04308 -0.25372,-1.24041 l -0.19733,0 c -0.14096,0.25372 -0.39468,0.6202 -0.78936,0.93031 -0.39468,0.3101 -0.93031,0.53563 -1.49413,0.53563 -0.36649,0 -0.9585,-0.14096 -1.40956,-0.70478 -0.47925,-0.53563 -0.87393,-1.49414 -0.87393,-3.10103 0,-1.71967 0.50744,-2.96008 1.18403,-3.80582 0.67659,-0.84573 1.52233,-1.38137 2.22711,-1.74785 0.70478,-0.36649 1.24041,-0.62021 1.35317,-0.93031 l 0,-1.69148 m 0,4.31326 c -1.38136,0.59201 -1.97338,1.97339 -1.97338,3.43933 0,0.19734 0.0282,0.53563 0.14095,0.84573 0.11277,0.3383 0.31011,0.59202 0.6484,0.59202 0.6484,0 1.18403,-0.39468 1.18403,-0.93031 l 0,-3.94677"
             style="font-family:'League Gothic';-inkscape-font-specification:'League Gothic'"
             id="path3344"
             inkscape:connector-curvature="0" />
          <path
             d="m 569.18535,765.23716 0,-20.72054 2.84731,0 0,20.72054 -2.84731,0"
             style="font-family:'League Gothic';-inkscape-font-specification:'League Gothic'"
             id="path3346"
             inkscape:connector-curvature="0" />
          <path
             d="m 577.63522,746.01075 0,3.80582 1.94519,0 0,2.5654 -1.94519,0 0,7.66801 c 0,0.47925 0,1.09945 0.11277,1.6069 0.11276,0.50744 0.33829,0.93031 0.78935,0.93031 0.22553,0 0.50744,-0.0282 0.70478,-0.0564 0.11277,-0.0282 0.22553,-0.0282 0.33829,-0.0564 l 0,2.79093 c -0.14095,0.0282 -0.28191,0.0846 -0.42286,0.11277 -0.28192,0.0564 -0.6484,0.0846 -1.09946,0.0846 -1.66328,0 -2.45264,-0.84574 -2.84731,-1.917 -0.39468,-1.07127 -0.42287,-2.36807 -0.42287,-3.27018 l 0,-7.89354 -1.43775,0 0,-2.5654 1.43775,0 0,-3.80582 2.84731,0"
             style="font-family:'League Gothic';-inkscape-font-specification:'League Gothic'"
             id="path3348"
             inkscape:connector-curvature="0" />
          <path
             d="m 585.33671,753.48142 c 0,-0.25372 0,-0.64839 -0.0846,-0.93031 -0.11277,-0.28191 -0.3383,-0.47925 -0.70478,-0.47925 -0.47925,0 -0.67659,0.36649 -0.76117,0.81755 -0.0282,0.22553 -0.0564,0.47925 -0.0564,0.73297 0,0.25372 0,0.50744 0,0.73297 l -2.84731,0 0,-0.6484 c 0,-1.12764 0.42287,-2.14253 1.09946,-2.90369 0.67658,-0.76116 1.63509,-1.21222 2.73454,-1.21222 0.93031,0 1.77605,0.36648 2.42445,0.98669 0.64839,0.62021 1.04307,1.49414 1.04307,2.50902 l 0,9.47224 c 0,1.38137 0.0846,2.00158 0.19734,2.67817 l -2.79093,0 c -0.25372,-0.3101 -0.25372,-1.04308 -0.25372,-1.24041 l -0.19734,0 c -0.14096,0.25372 -0.39468,0.6202 -0.78935,0.93031 -0.39468,0.3101 -0.93031,0.53563 -1.49414,0.53563 -0.36648,0 -0.9585,-0.14096 -1.40956,-0.70478 -0.47925,-0.53563 -0.87393,-1.49414 -0.87393,-3.10103 0,-1.71967 0.50745,-2.96008 1.18404,-3.80582 0.67658,-0.84573 1.52232,-1.38137 2.2271,-1.74785 0.70478,-0.36649 1.24041,-0.62021 1.35318,-0.93031 l 0,-1.69148 m 0,4.31326 c -1.38137,0.59201 -1.97339,1.97339 -1.97339,3.43933 0,0.19734 0.0282,0.53563 0.14096,0.84573 0.11277,0.3383 0.3101,0.59202 0.6484,0.59202 0.6484,0 1.18403,-0.39468 1.18403,-0.93031 l 0,-3.94677"
             style="font-family:'League Gothic';-inkscape-font-specification:'League Gothic'"
             id="path3350"
             inkscape:connector-curvature="0" />
          <path
             d="m 601.64708,765.23716 -2.84731,0 0,-1.01488 c -0.47925,0.45106 -0.90212,0.78935 -1.43775,1.04307 -0.28192,0.14096 -0.56383,0.19734 -0.81755,0.19734 -0.78935,0 -1.32499,-0.45106 -1.66328,-1.04308 -0.36649,-0.56382 -0.53563,-1.32498 -0.53563,-1.97338 l 0,-9.83873 c 0,-0.6484 0.16914,-1.40956 0.53563,-2.00158 0.33829,-0.56382 0.87393,-1.01488 1.66328,-1.01488 0.53563,0 1.09946,0.3101 1.52233,0.6202 0.25372,0.19734 0.47925,0.39468 0.73297,0.62021 l 0,-6.31483 2.84731,0 0,20.72054 m -2.84731,-12.03765 c 0,-0.45106 -0.42287,-0.93031 -0.84574,-0.93031 -0.42287,0 -0.76116,0.39468 -0.76116,0.93031 l 0,8.6547 c 0,0.53564 0.33829,0.93031 0.76116,0.93031 0.42287,0 0.84574,-0.39467 0.84574,-0.93031 l 0,-8.6547"
             style="font-family:'League Gothic';-inkscape-font-specification:'League Gothic'"
             id="path3352"
             inkscape:connector-curvature="0" />
          <path
             d="m 611.06119,759.71168 0,1.77605 c -0.0846,1.49413 -0.53564,2.53721 -1.55052,3.35475 -0.50744,0.42287 -1.21222,0.62021 -2.14253,0.62021 -1.83243,0 -2.76274,-1.01488 -3.2138,-2.02977 -0.25372,-0.59201 -0.42287,-1.2686 -0.45106,-2.02976 l 0,-7.75259 c 0.0846,-1.49413 0.56383,-2.59359 1.57871,-3.43933 0.47925,-0.42286 1.18403,-0.6202 2.11434,-0.6202 1.83243,0 2.76274,1.01488 3.2138,2.00157 0.25372,0.59202 0.42287,1.24042 0.45106,1.97339 l 0,4.4824 -4.70793,0 0,3.35476 c 0.0282,0.59201 0.19733,1.01488 0.45105,1.32498 0.14096,0.14096 0.3383,0.22553 0.59202,0.22553 0.53563,0 0.78935,-0.33829 0.90212,-0.76116 0.0846,-0.22553 0.11276,-0.47925 0.11276,-0.78935 l 0,-1.69148 2.64998,0 m -4.70793,-3.89038 2.05795,0 0,-2.17073 c 0,-0.59201 -0.11276,-1.01488 -0.39467,-1.35318 -0.14096,-0.14095 -0.36649,-0.22553 -0.62021,-0.22553 -0.53563,0 -0.76116,0.36649 -0.90212,0.78936 -0.0846,0.22553 -0.11276,0.47925 -0.14095,0.78935 l 0,2.17073"
             style="font-family:'League Gothic';-inkscape-font-specification:'League Gothic'"
             id="path3354"
             inkscape:connector-curvature="0" />
          <path
             d="m 624.49606,759.71168 0,1.77605 c -0.0846,1.49413 -0.53563,2.53721 -1.55051,3.35475 -0.50744,0.42287 -1.21223,0.62021 -2.14254,0.62021 -1.83242,0 -2.76273,-1.01488 -3.21379,-2.02977 -0.25372,-0.59201 -0.42287,-1.2686 -0.45106,-2.02976 l 0,-7.75259 c 0.0846,-1.49413 0.56382,-2.59359 1.5787,-3.43933 0.47925,-0.42286 1.18404,-0.6202 2.11435,-0.6202 1.83242,0 2.76273,1.01488 3.21379,2.00157 0.25372,0.59202 0.42287,1.24042 0.45106,1.97339 l 0,4.4824 -4.70793,0 0,3.35476 c 0.0282,0.59201 0.19734,1.01488 0.45106,1.32498 0.14096,0.14096 0.3383,0.22553 0.59202,0.22553 0.53563,0 0.78935,-0.33829 0.90211,-0.76116 0.0846,-0.22553 0.11277,-0.47925 0.11277,-0.78935 l 0,-1.69148 2.64997,0 m -4.70793,-3.89038 2.05796,0 0,-2.17073 c 0,-0.59201 -0.11277,-1.01488 -0.39468,-1.35318 -0.14095,-0.14095 -0.36648,-0.22553 -0.6202,-0.22553 -0.53564,0 -0.76117,0.36649 -0.90212,0.78936 -0.0846,0.22553 -0.11277,0.47925 -0.14096,0.78935 l 0,2.17073"
             style="font-family:'League Gothic';-inkscape-font-specification:'League Gothic'"
             id="path3356"
             inkscape:connector-curvature="0" />
          <path
             d="m 630.65187,753.76334 c 0,-0.36649 0,-0.81755 -0.11276,-1.18403 -0.14096,-0.3383 -0.36649,-0.62021 -0.81755,-0.62021 -0.36648,0 -0.59201,0.28191 -0.70478,0.62021 -0.14095,0.33829 -0.16915,0.81754 -0.16915,1.18403 0,0.47925 0.25373,0.98669 0.62021,1.43775 0.3383,0.45106 0.78936,0.90212 1.24041,1.32499 0.59202,0.59201 1.2968,1.2686 1.77605,2.02976 0.47925,0.78936 0.84574,1.66329 0.84574,2.67817 0,0.98669 -0.22553,2.02977 -0.78936,2.81912 -0.59201,0.81754 -1.49413,1.40956 -2.84731,1.40956 -1.71966,0 -2.73455,-0.78936 -3.29837,-1.74786 -0.56382,-0.9585 -0.67659,-2.14253 -0.67659,-2.96007 l 2.64997,0 c 0,0.42287 0.0282,1.01488 0.22553,1.46594 0.19734,0.47925 0.50745,0.87393 1.09946,0.87393 0.81754,0 0.98669,-0.9585 0.98669,-1.86062 0,-0.93031 -0.90212,-1.86062 -1.77604,-2.73455 -0.67659,-0.6484 -1.32499,-1.24041 -1.83243,-2.00158 -0.50744,-0.76116 -0.87393,-1.6069 -0.87393,-2.73454 0,-0.90212 0.16915,-1.9452 0.70478,-2.76274 0.53563,-0.78936 1.40956,-1.38137 2.76274,-1.40956 1.66328,-0.0282 2.59359,0.59201 3.07284,1.40956 0.47925,0.81754 0.56383,1.88881 0.56383,2.76274 l -2.64998,0"
             style="font-family:'League Gothic';-inkscape-font-specification:'League Gothic'"
             id="path3358"
             inkscape:connector-curvature="0" />
          <path
             d="m 638.20228,746.01075 0,3.80582 1.94519,0 0,2.5654 -1.94519,0 0,7.66801 c 0,0.47925 0,1.09945 0.11276,1.6069 0.11277,0.50744 0.3383,0.93031 0.78935,0.93031 0.22553,0 0.50745,-0.0282 0.70479,-0.0564 0.11276,-0.0282 0.22552,-0.0282 0.33829,-0.0564 l 0,2.79093 c -0.14096,0.0282 -0.28191,0.0846 -0.42287,0.11277 -0.28191,0.0564 -0.6484,0.0846 -1.09946,0.0846 -1.66328,0 -2.45263,-0.84574 -2.84731,-1.917 -0.39467,-1.07127 -0.42287,-2.36807 -0.42287,-3.27018 l 0,-7.89354 -1.43775,0 0,-2.5654 1.43775,0 0,-3.80582 2.84732,0"
             style="font-family:'League Gothic';-inkscape-font-specification:'League Gothic'"
             id="path3360"
             inkscape:connector-curvature="0" />
          <path
             d="m 647.34019,752.74845 c -0.25372,-0.0846 -0.53564,-0.11276 -0.78936,-0.11276 -0.45106,0 -0.98669,0.0564 -1.43775,0.47925 -0.53563,0.45106 -0.62021,0.93031 -0.62021,1.40956 l 0,10.71266 -2.84731,0 0,-15.42059 2.84731,0 0,1.71966 c 0.0282,-0.19734 0.22553,-0.67659 0.67659,-1.12765 0.45106,-0.42287 1.12765,-0.81754 2.17073,-0.81754 l 0,3.15741"
             style="font-family:'League Gothic';-inkscape-font-specification:'League Gothic'"
             id="path3362"
             inkscape:connector-curvature="0" />
          <path
             d="m 652.98107,749.81657 2.84732,0 0,15.42059 -2.84732,0 0,-1.2968 c -0.0564,0.0282 -0.16914,0.14096 -0.3101,0.28192 -0.33829,0.33829 -0.73297,0.73297 -1.24041,1.01488 -0.25372,0.14096 -0.50744,0.22553 -0.76116,0.22553 -0.76117,0 -1.2968,-0.45106 -1.6351,-1.04308 -0.33829,-0.56382 -0.50744,-1.32498 -0.50744,-1.97338 l 0,-12.62966 2.84732,0 0,12.20679 c 0,0.59202 0.33829,0.67659 0.67658,0.67659 0.31011,0 0.47926,-0.16915 0.67659,-0.36648 0.0846,-0.0846 0.16915,-0.22553 0.25372,-0.36649 l 0,-12.15041"
             style="font-family:'League Gothic';-inkscape-font-specification:'League Gothic'"
             id="path3364"
             inkscape:connector-curvature="0" />
          <path
             d="m 660.62045,761.68507 c 0,0.56382 0.0282,1.24041 0.78935,1.24041 0.6484,0 0.81755,-0.3101 0.81755,-1.24041 l 0,-2.14253 2.84731,0 0,1.49413 c 0,1.71966 -0.3101,2.81912 -0.93031,3.49571 -0.62021,0.67659 -1.52233,0.93031 -2.73455,0.93031 -1.01488,0 -1.94519,-0.28191 -2.59359,-0.98669 -0.6484,-0.70478 -1.04307,-1.86062 -1.04307,-3.58029 l 0,-6.7377 c 0,-1.71966 0.39467,-2.8755 1.04307,-3.58028 0.6484,-0.70478 1.57871,-0.98669 2.59359,-0.98669 1.21222,0 2.11434,0.25372 2.73455,0.93031 0.62021,0.67659 0.93031,1.77605 0.93031,3.49571 l 0,1.21222 -2.84731,0 0,-1.86062 c 0,-0.93031 -0.16915,-1.24041 -0.81755,-1.24041 -0.76116,0 -0.78935,0.67659 -0.78935,1.24041 l 0,8.31641"
             style="font-family:'League Gothic';-inkscape-font-specification:'League Gothic'"
             id="path3366"
             inkscape:connector-curvature="0" />
          <path
             d="m 670.13762,746.01075 0,3.80582 1.9452,0 0,2.5654 -1.9452,0 0,7.66801 c 0,0.47925 0,1.09945 0.11277,1.6069 0.11276,0.50744 0.33829,0.93031 0.78935,0.93031 0.22553,0 0.50745,-0.0282 0.70478,-0.0564 0.11277,-0.0282 0.22553,-0.0282 0.3383,-0.0564 l 0,2.79093 c -0.14096,0.0282 -0.28191,0.0846 -0.42287,0.11277 -0.28191,0.0564 -0.6484,0.0846 -1.09946,0.0846 -1.66328,0 -2.45263,-0.84574 -2.84731,-1.917 -0.39468,-1.07127 -0.42287,-2.36807 -0.42287,-3.27018 l 0,-7.89354 -1.43775,0 0,-2.5654 1.43775,0 0,-3.80582 2.84731,0"
             style="font-family:'League Gothic';-inkscape-font-specification:'League Gothic'"
             id="path3368"
             inkscape:connector-curvature="0" />
          <path
             d="m 677.97876,749.81657 2.84731,0 0,15.42059 -2.84731,0 0,-1.2968 c -0.0564,0.0282 -0.16915,0.14096 -0.31011,0.28192 -0.33829,0.33829 -0.73297,0.73297 -1.24041,1.01488 -0.25372,0.14096 -0.50744,0.22553 -0.76116,0.22553 -0.76117,0 -1.2968,-0.45106 -1.63509,-1.04308 -0.3383,-0.56382 -0.50745,-1.32498 -0.50745,-1.97338 l 0,-12.62966 2.84732,0 0,12.20679 c 0,0.59202 0.33829,0.67659 0.67659,0.67659 0.3101,0 0.47925,-0.16915 0.67658,-0.36648 0.0846,-0.0846 0.16915,-0.22553 0.25373,-0.36649 l 0,-12.15041"
             style="font-family:'League Gothic';-inkscape-font-specification:'League Gothic'"
             id="path3370"
             inkscape:connector-curvature="0" />
          <path
             d="m 688.80109,752.74845 c -0.25372,-0.0846 -0.53563,-0.11276 -0.78935,-0.11276 -0.45106,0 -0.98669,0.0564 -1.43775,0.47925 -0.53563,0.45106 -0.62021,0.93031 -0.62021,1.40956 l 0,10.71266 -2.84731,0 0,-15.42059 2.84731,0 0,1.71966 c 0.0282,-0.19734 0.22553,-0.67659 0.67659,-1.12765 0.45106,-0.42287 1.12765,-0.81754 2.17072,-0.81754 l 0,3.15741"
             style="font-family:'League Gothic';-inkscape-font-specification:'League Gothic'"
             id="path3372"
             inkscape:connector-curvature="0" />
          <path
             d="m 694.13716,753.48142 c 0,-0.25372 0,-0.64839 -0.0846,-0.93031 -0.11277,-0.28191 -0.3383,-0.47925 -0.70478,-0.47925 -0.47925,0 -0.67659,0.36649 -0.76116,0.81755 -0.0282,0.22553 -0.0564,0.47925 -0.0564,0.73297 0,0.25372 0,0.50744 0,0.73297 l -2.84731,0 0,-0.6484 c 0,-1.12764 0.42287,-2.14253 1.09946,-2.90369 0.67659,-0.76116 1.63509,-1.21222 2.73455,-1.21222 0.9303,0 1.77604,0.36648 2.42444,0.98669 0.6484,0.62021 1.04307,1.49414 1.04307,2.50902 l 0,9.47224 c 0,1.38137 0.0846,2.00158 0.19734,2.67817 l -2.79093,0 c -0.25372,-0.3101 -0.25372,-1.04308 -0.25372,-1.24041 l -0.19734,0 c -0.14095,0.25372 -0.39467,0.6202 -0.78935,0.93031 -0.39468,0.3101 -0.93031,0.53563 -1.49413,0.53563 -0.36649,0 -0.95851,-0.14096 -1.40956,-0.70478 -0.47925,-0.53563 -0.87393,-1.49414 -0.87393,-3.10103 0,-1.71967 0.50744,-2.96008 1.18403,-3.80582 0.67659,-0.84573 1.52232,-1.38137 2.2271,-1.74785 0.70478,-0.36649 1.24042,-0.62021 1.35318,-0.93031 l 0,-1.69148 m 0,4.31326 c -1.38137,0.59201 -1.97338,1.97339 -1.97338,3.43933 0,0.19734 0.0282,0.53563 0.14095,0.84573 0.11277,0.3383 0.31011,0.59202 0.6484,0.59202 0.6484,0 1.18403,-0.39468 1.18403,-0.93031 l 0,-3.94677"
             style="font-family:'League Gothic';-inkscape-font-specification:'League Gothic'"
             id="path3374"
             inkscape:connector-curvature="0" />
          <path
             d="m 703.11209,753.76334 c 0,-0.36649 0,-0.81755 -0.11276,-1.18403 -0.14096,-0.3383 -0.36649,-0.62021 -0.81755,-0.62021 -0.36648,0 -0.59201,0.28191 -0.70478,0.62021 -0.14095,0.33829 -0.16915,0.81754 -0.16915,1.18403 0,0.47925 0.25373,0.98669 0.62021,1.43775 0.3383,0.45106 0.78936,0.90212 1.24041,1.32499 0.59202,0.59201 1.2968,1.2686 1.77605,2.02976 0.47925,0.78936 0.84574,1.66329 0.84574,2.67817 0,0.98669 -0.22553,2.02977 -0.78936,2.81912 -0.59201,0.81754 -1.49413,1.40956 -2.84731,1.40956 -1.71966,0 -2.73455,-0.78936 -3.29837,-1.74786 -0.56382,-0.9585 -0.67659,-2.14253 -0.67659,-2.96007 l 2.64997,0 c 0,0.42287 0.0282,1.01488 0.22553,1.46594 0.19734,0.47925 0.50745,0.87393 1.09946,0.87393 0.81755,0 0.98669,-0.9585 0.98669,-1.86062 0,-0.93031 -0.90212,-1.86062 -1.77604,-2.73455 -0.67659,-0.6484 -1.32499,-1.24041 -1.83243,-2.00158 -0.50744,-0.76116 -0.87393,-1.6069 -0.87393,-2.73454 0,-0.90212 0.16915,-1.9452 0.70478,-2.76274 0.53563,-0.78936 1.40956,-1.38137 2.76274,-1.40956 1.66328,-0.0282 2.59359,0.59201 3.07284,1.40956 0.47925,0.81754 0.56383,1.88881 0.56383,2.76274 l -2.64998,0"
             style="font-family:'League Gothic';-inkscape-font-specification:'League Gothic'"
             id="path3376"
             inkscape:connector-curvature="0" />
        </g>
      </g>
      <g
         transform="translate(0,7.047803)"
         id="g3426">
        <g
           style="font-size:28.1912117px;line-height:125%;font-family:FontAwesome;-inkscape-font-specification:FontAwesome;fill:#000000"
           id="text3309">
          <path
             inkscape:connector-curvature="0"
             d="m 525.38936,691.3641 c 0.59202,0.0846 1.04308,-0.0564 1.38137,-0.50744 0.16915,-0.19734 0.25372,-0.53564 0.25372,-1.01489 l 0,-16.40728 3.04465,0 0,16.88653 c 0,1.12765 -0.28191,2.17073 -0.98669,2.93189 -0.70478,0.76116 -1.88881,1.21222 -3.69305,1.09946 l 0,-2.98827"
             style="font-family:'League Gothic';-inkscape-font-specification:'League Gothic'"
             id="path3414" />
          <path
             inkscape:connector-curvature="0"
             d="m 539.23213,690.4056 c -0.0846,1.49413 -0.53564,2.53721 -1.52233,3.35475 -0.50744,0.42287 -1.21222,0.62021 -2.14253,0.62021 -1.83243,0 -2.73455,-1.01489 -3.18561,-2.02977 -0.25372,-0.59201 -0.42286,-1.2686 -0.45106,-2.02977 l 0,-7.75258 c 0.0846,-1.49413 0.53564,-2.59359 1.52233,-3.43933 0.47925,-0.42286 1.18403,-0.6202 2.11434,-0.6202 1.83243,0 2.76274,1.01488 3.2138,2.00157 0.25372,0.59202 0.42287,1.24042 0.45106,1.97339 l 0,7.92173 m -2.67817,-7.83716 c 0.0282,-0.59201 -0.0846,-1.01488 -0.36648,-1.35318 -0.14096,-0.14095 -0.36649,-0.22553 -0.62021,-0.22553 -0.53563,0 -0.76116,0.36649 -0.87393,0.78936 -0.0846,0.22553 -0.11276,0.47925 -0.0846,0.78935 l 0,7.75258 c -0.0282,0.59202 0.11276,1.01489 0.36649,1.32499 0.14095,0.14096 0.33829,0.22553 0.59201,0.22553 0.53563,0 0.78935,-0.33829 0.90212,-0.76116 0.0846,-0.22553 0.11276,-0.47925 0.0846,-0.78936 l 0,-7.75258"
             style="font-family:'League Gothic';-inkscape-font-specification:'League Gothic'"
             id="path3416" />
          <path
             inkscape:connector-curvature="0"
             d="m 546.85389,681.66632 c -0.25372,-0.0846 -0.53564,-0.11276 -0.78936,-0.11276 -0.45106,0 -0.98669,0.0564 -1.43775,0.47925 -0.53563,0.45106 -0.62021,0.93031 -0.62021,1.40956 l 0,10.71266 -2.84731,0 0,-15.42059 2.84731,0 0,1.71966 c 0.0282,-0.19734 0.22553,-0.67659 0.67659,-1.12765 0.45106,-0.42287 1.12765,-0.81754 2.17073,-0.81754 l 0,3.15741"
             style="font-family:'League Gothic';-inkscape-font-specification:'League Gothic'"
             id="path3418" />
          <path
             inkscape:connector-curvature="0"
             d="m 555.1192,688.62955 0,1.77605 c -0.0846,1.49413 -0.53564,2.53721 -1.55052,3.35475 -0.50744,0.42287 -1.21222,0.62021 -2.14253,0.62021 -1.83243,0 -2.76274,-1.01489 -3.2138,-2.02977 -0.25372,-0.59201 -0.42287,-1.2686 -0.45106,-2.02977 l 0,-7.75258 c 0.0846,-1.49413 0.56383,-2.59359 1.57871,-3.43933 0.47925,-0.42286 1.18403,-0.6202 2.11434,-0.6202 1.83243,0 2.76274,1.01488 3.2138,2.00157 0.25372,0.59202 0.42287,1.24042 0.45106,1.97339 l 0,4.4824 -4.70793,0 0,3.35475 c 0.0282,0.59202 0.19733,1.01489 0.45105,1.32499 0.14096,0.14096 0.3383,0.22553 0.59202,0.22553 0.53563,0 0.78935,-0.33829 0.90212,-0.76116 0.0846,-0.22553 0.11276,-0.47925 0.11276,-0.78936 l 0,-1.69147 2.64998,0 m -4.70793,-3.89039 2.05795,0 0,-2.17072 c 0,-0.59201 -0.11276,-1.01488 -0.39467,-1.35318 -0.14096,-0.14095 -0.36649,-0.22553 -0.62021,-0.22553 -0.53563,0 -0.76116,0.36649 -0.90212,0.78936 -0.0846,0.22553 -0.11276,0.47925 -0.14095,0.78935 l 0,2.17072"
             style="font-family:'League Gothic';-inkscape-font-specification:'League Gothic'"
             id="path3420" />
          <path
             inkscape:connector-curvature="0"
             d="m 564.20426,688.62955 0,1.77605 c -0.0846,1.49413 -0.53564,2.53721 -1.55052,3.35475 -0.50744,0.42287 -1.21222,0.62021 -2.14253,0.62021 -1.83243,0 -2.76274,-1.01489 -3.2138,-2.02977 -0.25372,-0.59201 -0.42287,-1.2686 -0.45106,-2.02977 l 0,-7.75258 c 0.0846,-1.49413 0.56383,-2.59359 1.57871,-3.43933 0.47925,-0.42286 1.18403,-0.6202 2.11434,-0.6202 1.83243,0 2.76274,1.01488 3.2138,2.00157 0.25372,0.59202 0.42286,1.24042 0.45106,1.97339 l 0,4.4824 -4.70794,0 0,3.35475 c 0.0282,0.59202 0.19734,1.01489 0.45106,1.32499 0.14096,0.14096 0.3383,0.22553 0.59202,0.22553 0.53563,0 0.78935,-0.33829 0.90212,-0.76116 0.0846,-0.22553 0.11276,-0.47925 0.11276,-0.78936 l 0,-1.69147 2.64998,0 m -4.70794,-3.89039 2.05796,0 0,-2.17072 c 0,-0.59201 -0.11276,-1.01488 -0.39467,-1.35318 -0.14096,-0.14095 -0.36649,-0.22553 -0.62021,-0.22553 -0.53563,0 -0.76116,0.36649 -0.90212,0.78936 -0.0846,0.22553 -0.11277,0.47925 -0.14096,0.78935 l 0,2.17072"
             style="font-family:'League Gothic';-inkscape-font-specification:'League Gothic'"
             id="path3422" />
          <path
             inkscape:connector-curvature="0"
             d="m 568.94919,694.15503 -2.84731,0 0,-15.42059 2.84731,0 0,1.29679 c 0.0564,-0.0282 0.16915,-0.14095 0.33829,-0.3101 0.31011,-0.3101 0.73298,-0.73297 1.24042,-1.01488 0.25372,-0.14096 0.47925,-0.19734 0.73297,-0.19734 0.76116,0 1.29679,0.45106 1.63509,1.01488 0.33829,0.59202 0.50744,1.35318 0.50744,2.00158 l 0,12.62966 -2.84731,0 0,-12.2068 c 0,-0.59201 -0.3383,-0.67658 -0.67659,-0.67658 -0.3101,0 -0.47925,0.16914 -0.67659,0.36648 -0.0846,0.11277 -0.16915,0.22553 -0.25372,0.36649 l 0,12.15041"
             style="font-family:'League Gothic';-inkscape-font-specification:'League Gothic'"
             id="path3424" />
        </g>
      </g>
    </g>
    <g
       id="g11796">
      <g
         id="g3341"
         transform="matrix(1.0414744,0,0,1.0414744,123.71029,-132.99372)">
        <path
           id="path3155"
           d="m 15.386466,767.76245 2.32188,0 0,-9.90444 c 0.04486,-0.0748 0.112165,-0.17198 0.201903,-0.29164 0.201899,-0.20189 0.385107,-0.30284 0.549624,-0.30285 0.373889,10e-6 0.560836,0.18322 0.56084,0.54962 l 0,9.94931 2.310664,0 0,-10.29703 c -7e-6,-0.6057 -0.138348,-1.14784 -0.415022,-1.62644 -0.336511,-0.55335 -0.777705,-0.83003 -1.323584,-0.83004 -0.201908,10e-6 -0.40381,0.0561 -0.605708,0.16825 -0.276686,0.14957 -0.61319,0.42251 -1.009513,0.81883 -0.164517,0.16452 -0.254251,0.25052 -0.269204,0.25798 l 0,-5.37285 -2.32188,0 0,16.8813"
           inkscape:connector-curvature="0"
           style="font-style:normal;font-variant:normal;font-weight:normal;font-stretch:normal;font-size:22.97203255px;line-height:125%;font-family:'League Gothic';-inkscape-font-specification:'League Gothic';letter-spacing:0px;word-spacing:0px;fill:#000000;fill-opacity:1;stroke:none" />
        <path
           id="path3157"
           d="m 22.453058,757.28595 1.177765,0 0,6.43845 c -1e-6,1.1516 0.115906,2.03772 0.347722,2.65839 0.388847,1.03942 1.159067,1.55913 2.310663,1.55913 0.373889,0 0.673004,-0.0224 0.897345,-0.0673 0.03739,-0.007 0.09347,-0.0224 0.168252,-0.0449 0.08225,-0.0224 0.142075,-0.0374 0.179469,-0.0449 l 0,-2.27702 c -0.02992,0.007 -0.07478,0.015 -0.134601,0.0224 -0.05983,0.007 -0.104696,0.015 -0.134602,0.0224 -0.209386,0.0299 -0.40381,0.0449 -0.583274,0.0449 -0.321553,0 -0.534672,-0.25051 -0.639359,-0.75153 -0.05983,-0.27668 -0.08974,-0.71413 -0.08973,-1.31236 l 0,-6.24777 1.58157,0 0,-2.08633 -1.58157,0 0,-3.10705 -2.321881,0 0,3.10705 -1.177765,0 0,2.08633"
           inkscape:connector-curvature="0"
           style="font-style:normal;font-variant:normal;font-weight:normal;font-stretch:normal;font-size:22.97203255px;line-height:125%;font-family:'League Gothic';-inkscape-font-specification:'League Gothic';letter-spacing:0px;word-spacing:0px;fill:#000000;fill-opacity:1;stroke:none" />
        <path
           id="path3159"
           d="m 28.061465,757.28595 1.177766,0 0,6.43845 c -2e-6,1.1516 0.115905,2.03772 0.347721,2.65839 0.388847,1.03942 1.159067,1.55913 2.310663,1.55913 0.373889,0 0.673004,-0.0224 0.897345,-0.0673 0.03739,-0.007 0.09347,-0.0224 0.168252,-0.0449 0.08225,-0.0224 0.142075,-0.0374 0.179469,-0.0449 l 0,-2.27702 c -0.02992,0.007 -0.07478,0.015 -0.134601,0.0224 -0.05983,0.007 -0.104696,0.015 -0.134602,0.0224 -0.209385,0.0299 -0.40381,0.0449 -0.583274,0.0449 -0.321553,0 -0.534672,-0.25051 -0.639359,-0.75153 -0.05983,-0.27668 -0.08974,-0.71413 -0.08973,-1.31236 l 0,-6.24777 1.58157,0 0,-2.08633 -1.58157,0 0,-3.10705 -2.32188,0 0,3.10705 -1.177766,0 0,2.08633"
           inkscape:connector-curvature="0"
           style="font-style:normal;font-variant:normal;font-weight:normal;font-stretch:normal;font-size:22.97203255px;line-height:125%;font-family:'League Gothic';-inkscape-font-specification:'League Gothic';letter-spacing:0px;word-spacing:0px;fill:#000000;fill-opacity:1;stroke:none" />
        <path
           id="path3161"
           d="m 34.365314,772.08093 2.32188,0 0,-5.14852 c 0.254244,0.22434 0.452408,0.39259 0.594491,0.50476 0.456146,0.3365 0.871168,0.50475 1.245066,0.50475 0.560835,0 1.016985,-0.28042 1.368451,-0.84126 0.276675,-0.45615 0.415016,-0.99455 0.415022,-1.61522 l 0,-8.02002 c -6e-6,-0.6057 -0.138347,-1.14784 -0.415022,-1.62644 -0.366422,-0.55335 -0.822572,-0.83003 -1.368451,-0.83004 -0.231819,10e-6 -0.448677,0.0561 -0.650575,0.16825 -0.373898,0.16453 -0.770225,0.44495 -1.188982,0.84126 l 0,-0.81883 -2.32188,0 0,16.88131 m 2.32188,-7.07781 0,-7.04416 c -3e-6,-0.21685 0.0673,-0.39632 0.201902,-0.53841 0.142077,-0.14954 0.302851,-0.22432 0.482323,-0.22433 0.171987,10e-6 0.317806,0.0748 0.437456,0.22433 0.12712,0.14209 0.190681,0.32156 0.190686,0.53841 l 0,7.04416 c -5e-6,0.21686 -0.06357,0.40007 -0.190686,0.54962 -0.11965,0.14208 -0.265469,0.21312 -0.437456,0.21312 -0.171994,0 -0.32903,-0.0785 -0.471106,-0.23555 -0.142083,-0.16451 -0.213122,-0.34024 -0.213119,-0.52719"
           inkscape:connector-curvature="0"
           style="font-style:normal;font-variant:normal;font-weight:normal;font-stretch:normal;font-size:22.97203255px;line-height:125%;font-family:'League Gothic';-inkscape-font-specification:'League Gothic';letter-spacing:0px;word-spacing:0px;fill:#000000;fill-opacity:1;stroke:none" />
        <path
           id="path3163"
           d="m 41.992746,767.76245 2.411615,0 0,-2.54621 -2.411615,0 0,2.54621 m 0,-10.01661 2.411615,0 0,-2.54622 -2.411615,0 0,2.54622"
           inkscape:connector-curvature="0"
           style="font-style:normal;font-variant:normal;font-weight:normal;font-stretch:normal;font-size:22.97203255px;line-height:125%;font-family:'League Gothic';-inkscape-font-specification:'League Gothic';letter-spacing:0px;word-spacing:0px;fill:#000000;fill-opacity:1;stroke:none" />
        <path
           id="path3165"
           d="m 45.335356,769.41133 1.884425,0 6.023428,-18.53018 -1.817123,0 -6.09073,18.53018"
           inkscape:connector-curvature="0"
           style="font-style:normal;font-variant:normal;font-weight:normal;font-stretch:normal;font-size:22.97203255px;line-height:125%;font-family:'League Gothic';-inkscape-font-specification:'League Gothic';letter-spacing:0px;word-spacing:0px;fill:#000000;fill-opacity:1;stroke:none" />
        <path
           id="path3167"
           d="m 53.411463,769.41133 1.884425,0 6.023428,-18.53018 -1.817123,0 -6.09073,18.53018"
           inkscape:connector-curvature="0"
           style="font-style:normal;font-variant:normal;font-weight:normal;font-stretch:normal;font-size:22.97203255px;line-height:125%;font-family:'League Gothic';-inkscape-font-specification:'League Gothic';letter-spacing:0px;word-spacing:0px;fill:#000000;fill-opacity:1;stroke:none" />
        <path
           id="path3169"
           d="m 62.317611,772.08093 2.32188,0 0,-5.14852 c 0.254244,0.22434 0.452408,0.39259 0.594491,0.50476 0.456146,0.3365 0.871168,0.50475 1.245066,0.50475 0.560835,0 1.016985,-0.28042 1.368452,-0.84126 0.276674,-0.45615 0.415015,-0.99455 0.415022,-1.61522 l 0,-8.02002 c -7e-6,-0.6057 -0.138348,-1.14784 -0.415022,-1.62644 -0.366422,-0.55335 -0.822572,-0.83003 -1.368452,-0.83004 -0.231819,10e-6 -0.448677,0.0561 -0.650575,0.16825 -0.373898,0.16453 -0.770225,0.44495 -1.188982,0.84126 l 0,-0.81883 -2.32188,0 0,16.88131 m 2.32188,-7.07781 0,-7.04416 c -3e-6,-0.21685 0.0673,-0.39632 0.201903,-0.53841 0.142076,-0.14954 0.30285,-0.22432 0.482323,-0.22433 0.171987,10e-6 0.317805,0.0748 0.437455,0.22433 0.12712,0.14209 0.190682,0.32156 0.190686,0.53841 l 0,7.04416 c -4e-6,0.21686 -0.06357,0.40007 -0.190686,0.54962 -0.11965,0.14208 -0.265468,0.21312 -0.437455,0.21312 -0.171995,0 -0.32903,-0.0785 -0.471106,-0.23555 -0.142083,-0.16451 -0.213123,-0.34024 -0.21312,-0.52719"
           inkscape:connector-curvature="0"
           style="font-style:normal;font-variant:normal;font-weight:normal;font-stretch:normal;font-size:22.97203255px;line-height:125%;font-family:'League Gothic';-inkscape-font-specification:'League Gothic';letter-spacing:0px;word-spacing:0px;fill:#000000;fill-opacity:1;stroke:none" />
        <path
           id="path3171"
           d="m 69.664623,764.84608 c -1e-6,1.1516 0.239291,1.99286 0.717876,2.52379 0.306591,0.38137 0.687962,0.57205 1.144115,0.57205 0.448669,0 0.856213,-0.14582 1.222632,-0.43745 0.261722,-0.20938 0.474841,-0.45989 0.639359,-0.75153 l 0.157035,0 c -4e-6,0.49354 0.07103,0.83004 0.21312,1.00951 l 2.265796,0 c -0.104697,-0.64309 -0.157042,-1.37219 -0.157036,-2.18727 l 0,-7.71717 c -6e-6,-0.81508 -0.284165,-1.49557 -0.852477,-2.04146 -0.560846,-0.5384 -1.218899,-0.8076 -1.974159,-0.80761 -0.897348,10e-6 -1.637657,0.32904 -2.220929,0.98708 -0.598231,0.67302 -0.897346,1.46193 -0.897345,2.36674 l 0,0.52719 2.32188,0 0,-0.59449 c -3e-6,-0.15702 0.01495,-0.35519 0.04487,-0.59449 0.08225,-0.44118 0.287895,-0.66178 0.616925,-0.66179 0.276677,10e-6 0.467363,0.12714 0.572057,0.38137 0.04486,0.14957 0.0673,0.40382 0.0673,0.76275 l 0,1.37966 c -0.01496,0.0374 -0.03366,0.0748 -0.05608,0.11217 -0.02244,0.0299 -0.05609,0.0636 -0.100951,0.10095 -0.04487,0.0374 -0.08974,0.0711 -0.134602,0.10095 -0.03739,0.0224 -0.09348,0.0561 -0.168252,0.10096 -0.07478,0.0374 -0.138345,0.071 -0.190686,0.10095 -0.04487,0.0224 -0.11965,0.0598 -0.224336,0.11216 -0.09722,0.0524 -0.171995,0.0935 -0.224337,0.12339 -0.777701,0.41129 -1.383408,0.88613 -1.817123,1.42454 -0.643098,0.80013 -0.964647,1.83582 -0.964646,3.10705 m 2.277013,-0.34772 c -3e-6,-0.62814 0.13086,-1.19272 0.392588,-1.69374 0.2692,-0.50849 0.673005,-0.87864 1.211416,-1.11046 l 0,3.21922 c -4e-6,0.21686 -0.09348,0.40007 -0.28042,0.54963 -0.186951,0.14208 -0.415026,0.21312 -0.684226,0.21312 -0.246773,0 -0.422503,-0.16078 -0.52719,-0.48233 -0.07478,-0.21685 -0.112171,-0.44867 -0.112168,-0.69544"
           inkscape:connector-curvature="0"
           style="font-style:normal;font-variant:normal;font-weight:normal;font-stretch:normal;font-size:22.97203255px;line-height:125%;font-family:'League Gothic';-inkscape-font-specification:'League Gothic';letter-spacing:0px;word-spacing:0px;fill:#000000;fill-opacity:1;stroke:none" />
        <path
           id="path3173"
           d="m 77.437873,767.76245 2.32188,0 0,-8.72668 c -3e-6,-0.48605 0.168249,-0.87116 0.504757,-1.15533 0.269199,-0.25424 0.658048,-0.38136 1.166548,-0.38137 0.254243,1e-5 0.471101,0.0299 0.650575,0.0897 l 0,-2.57986 c -0.702925,10e-6 -1.293676,0.22435 -1.772256,0.67301 -0.164517,0.16452 -0.29538,0.33277 -0.392588,0.50475 -0.08974,0.17201 -0.142083,0.31035 -0.157036,0.41502 l 0,-1.4021 -2.32188,0 0,12.56283"
           inkscape:connector-curvature="0"
           style="font-style:normal;font-variant:normal;font-weight:normal;font-stretch:normal;font-size:22.97203255px;line-height:125%;font-family:'League Gothic';-inkscape-font-specification:'League Gothic';letter-spacing:0px;word-spacing:0px;fill:#000000;fill-opacity:1;stroke:none" />
        <path
           id="path3175"
           d="m 82.395705,757.28595 1.177765,0 0,6.43845 c -10e-7,1.1516 0.115906,2.03772 0.347722,2.65839 0.388847,1.03942 1.159067,1.55913 2.310663,1.55913 0.373889,0 0.673004,-0.0224 0.897345,-0.0673 0.03738,-0.007 0.09347,-0.0224 0.168252,-0.0449 0.08225,-0.0224 0.142075,-0.0374 0.179469,-0.0449 l 0,-2.27702 c -0.02992,0.007 -0.07478,0.015 -0.134601,0.0224 -0.05983,0.007 -0.104696,0.015 -0.134602,0.0224 -0.209386,0.0299 -0.40381,0.0449 -0.583274,0.0449 -0.321553,0 -0.534672,-0.25051 -0.639359,-0.75153 -0.05983,-0.27668 -0.08974,-0.71413 -0.08973,-1.31236 l 0,-6.24777 1.58157,0 0,-2.08633 -1.58157,0 0,-3.10705 -2.321881,0 0,3.10705 -1.177765,0 0,2.08633"
           inkscape:connector-curvature="0"
           style="font-style:normal;font-variant:normal;font-weight:normal;font-stretch:normal;font-size:22.97203255px;line-height:125%;font-family:'League Gothic';-inkscape-font-specification:'League Gothic';letter-spacing:0px;word-spacing:0px;fill:#000000;fill-opacity:1;stroke:none" />
        <path
           id="path3177"
           d="m 88.699554,767.76245 2.32188,0 0,-12.56283 -2.32188,0 0,12.56283 m 0,-14.55942 2.32188,0 0,-2.32188 -2.32188,0 0,2.32188"
           inkscape:connector-curvature="0"
           style="font-style:normal;font-variant:normal;font-weight:normal;font-stretch:normal;font-size:22.97203255px;line-height:125%;font-family:'League Gothic';-inkscape-font-specification:'League Gothic';letter-spacing:0px;word-spacing:0px;fill:#000000;fill-opacity:1;stroke:none" />
        <path
           id="path3179"
           d="m 92.782472,765.48544 c -10e-7,0.63562 0.145818,1.17403 0.437456,1.61522 0.329025,0.56084 0.777697,0.84126 1.346018,0.84126 0.239289,0 0.463625,-0.0523 0.673008,-0.15703 0.343979,-0.15704 0.732828,-0.4412 1.166549,-0.85248 l 0,0.83004 2.32188,0 0,-16.8813 -2.32188,0 0,5.1373 c -0.254252,-0.22432 -0.452416,-0.39258 -0.594491,-0.50476 -0.456154,-0.33649 -0.871176,-0.50474 -1.245066,-0.50475 -0.560843,10e-6 -1.009515,0.27669 -1.346018,0.83004 -0.291638,0.46364 -0.437457,1.00579 -0.437456,1.62644 l 0,8.02002 m 2.321881,-0.48232 0,-7.04416 c -4e-6,-0.21685 0.05982,-0.39632 0.179469,-0.53841 0.119642,-0.14954 0.265461,-0.22432 0.437455,-0.22433 0.171987,10e-6 0.329023,0.0823 0.471106,0.24677 0.142076,0.15704 0.213115,0.32903 0.21312,0.51597 l 0,7.04416 c -5e-6,0.21686 -0.07104,0.40007 -0.21312,0.54962 -0.134605,0.14208 -0.291641,0.21312 -0.471106,0.21312 -0.171994,0 -0.317813,-0.071 -0.437455,-0.21312 -0.11965,-0.14955 -0.179473,-0.33276 -0.179469,-0.54962"
           inkscape:connector-curvature="0"
           style="font-style:normal;font-variant:normal;font-weight:normal;font-stretch:normal;font-size:22.97203255px;line-height:125%;font-family:'League Gothic';-inkscape-font-specification:'League Gothic';letter-spacing:0px;word-spacing:0px;fill:#000000;fill-opacity:1;stroke:none" />
        <path
           id="path3181"
           d="m 100.37626,764.63296 c 0.0224,0.56832 0.14582,1.12169 0.37015,1.66009 0.49354,1.09925 1.36098,1.64887 2.60231,1.64887 0.75526,0 1.33479,-0.16825 1.7386,-0.50475 0.4038,-0.32903 0.70292,-0.7104 0.89735,-1.14412 0.19441,-0.44119 0.31032,-0.96838 0.34772,-1.58157 l 0,-6.46088 c -0.0224,-0.53092 -0.14583,-1.06559 -0.37016,-1.60401 -0.50102,-1.09176 -1.37219,-1.63764 -2.61351,-1.63765 -0.77023,10e-6 -1.34602,0.16826 -1.72739,0.50475 -0.76275,0.64311 -1.17777,1.57785 -1.24507,2.80421 l 0,6.31506 m 2.18728,0 0,-6.31506 c -0.007,-0.0598 -0.0112,-0.11964 -0.0112,-0.17947 0,-0.17198 0.0262,-0.32528 0.0785,-0.45989 0.11216,-0.42623 0.35146,-0.63935 0.71788,-0.63936 0.21685,10e-6 0.3851,0.0598 0.50475,0.17947 0.19442,0.24678 0.29163,0.57207 0.29164,0.97586 -1e-5,0.0449 -1e-5,0.086 0,0.12339 l 0,6.31506 c 0.007,0.0598 0.0112,0.11965 0.0112,0.17947 -1e-5,0.17947 -0.0262,0.33651 -0.0785,0.47111 -0.1047,0.41128 -0.34773,0.61692 -0.72909,0.61692 -0.20191,0 -0.36268,-0.0598 -0.48233,-0.17947 -0.2019,-0.26172 -0.30285,-0.58327 -0.30285,-0.96464 0,-0.0449 0,-0.086 0,-0.12339"
           inkscape:connector-curvature="0"
           style="font-style:normal;font-variant:normal;font-weight:normal;font-stretch:normal;font-size:22.97203255px;line-height:125%;font-family:'League Gothic';-inkscape-font-specification:'League Gothic';letter-spacing:0px;word-spacing:0px;fill:#000000;fill-opacity:1;stroke:none" />
        <path
           id="path3183"
           d="m 107.94761,772.08093 2.32188,0 0,-5.14852 c 0.25424,0.22434 0.45241,0.39259 0.59449,0.50476 0.45615,0.3365 0.87117,0.50475 1.24507,0.50475 0.56083,0 1.01698,-0.28042 1.36845,-0.84126 0.27667,-0.45615 0.41501,-0.99455 0.41502,-1.61522 l 0,-8.02002 c -1e-5,-0.6057 -0.13835,-1.14784 -0.41502,-1.62644 -0.36642,-0.55335 -0.82257,-0.83003 -1.36845,-0.83004 -0.23182,10e-6 -0.44868,0.0561 -0.65058,0.16825 -0.3739,0.16453 -0.77022,0.44495 -1.18898,0.84126 l 0,-0.81883 -2.32188,0 0,16.88131 m 2.32188,-7.07781 0,-7.04416 c 0,-0.21685 0.0673,-0.39632 0.2019,-0.53841 0.14208,-0.14954 0.30285,-0.22432 0.48233,-0.22433 0.17198,10e-6 0.3178,0.0748 0.43745,0.22433 0.12712,0.14209 0.19068,0.32156 0.19069,0.53841 l 0,7.04416 c -1e-5,0.21686 -0.0636,0.40007 -0.19069,0.54962 -0.11965,0.14208 -0.26547,0.21312 -0.43745,0.21312 -0.172,0 -0.32903,-0.0785 -0.47111,-0.23555 -0.14208,-0.16451 -0.21312,-0.34024 -0.21312,-0.52719"
           inkscape:connector-curvature="0"
           style="font-style:normal;font-variant:normal;font-weight:normal;font-stretch:normal;font-size:22.97203255px;line-height:125%;font-family:'League Gothic';-inkscape-font-specification:'League Gothic';letter-spacing:0px;word-spacing:0px;fill:#000000;fill-opacity:1;stroke:none" />
        <path
           id="path3185"
           d="m 115.66477,767.76245 2.32188,0 0,-12.56283 -2.32188,0 0,12.56283 m 0,-14.55942 2.32188,0 0,-2.32188 -2.32188,0 0,2.32188"
           inkscape:connector-curvature="0"
           style="font-style:normal;font-variant:normal;font-weight:normal;font-stretch:normal;font-size:22.97203255px;line-height:125%;font-family:'League Gothic';-inkscape-font-specification:'League Gothic';letter-spacing:0px;word-spacing:0px;fill:#000000;fill-opacity:1;stroke:none" />
        <path
           id="path3187"
           d="m 119.83743,767.76245 2.32188,0 0,-8.72668 c -1e-5,-0.48605 0.16825,-0.87116 0.50475,-1.15533 0.2692,-0.25424 0.65805,-0.38136 1.16655,-0.38137 0.25424,1e-5 0.4711,0.0299 0.65058,0.0897 l 0,-2.57986 c -0.70293,10e-6 -1.29368,0.22435 -1.77226,0.67301 -0.16452,0.16452 -0.29538,0.33277 -0.39259,0.50475 -0.0897,0.17201 -0.14208,0.31035 -0.15703,0.41502 l 0,-1.4021 -2.32188,0 0,12.56283"
           inkscape:connector-curvature="0"
           style="font-style:normal;font-variant:normal;font-weight:normal;font-stretch:normal;font-size:22.97203255px;line-height:125%;font-family:'League Gothic';-inkscape-font-specification:'League Gothic';letter-spacing:0px;word-spacing:0px;fill:#000000;fill-opacity:1;stroke:none" />
        <path
           id="path3189"
           d="m 125.12055,764.84608 c 0,1.1516 0.23929,1.99286 0.71787,2.52379 0.30659,0.38137 0.68796,0.57205 1.14412,0.57205 0.44867,0 0.85621,-0.14582 1.22263,-0.43745 0.26172,-0.20938 0.47484,-0.45989 0.63936,-0.75153 l 0.15703,0 c 0,0.49354 0.071,0.83004 0.21312,1.00951 l 2.2658,0 c -0.1047,-0.64309 -0.15704,-1.37219 -0.15704,-2.18727 l 0,-7.71717 c 0,-0.81508 -0.28416,-1.49557 -0.85247,-2.04146 -0.56085,-0.5384 -1.2189,-0.8076 -1.97416,-0.80761 -0.89735,10e-6 -1.63766,0.32904 -2.22093,0.98708 -0.59823,0.67302 -0.89735,1.46193 -0.89735,2.36674 l 0,0.52719 2.32188,0 0,-0.59449 c 0,-0.15702 0.015,-0.35519 0.0449,-0.59449 0.0823,-0.44118 0.2879,-0.66178 0.61692,-0.66179 0.27668,10e-6 0.46737,0.12714 0.57206,0.38137 0.0449,0.14957 0.0673,0.40382 0.0673,0.76275 l 0,1.37966 c -0.015,0.0374 -0.0336,0.0748 -0.0561,0.11217 -0.0224,0.0299 -0.0561,0.0636 -0.10095,0.10095 -0.0449,0.0374 -0.0897,0.0711 -0.1346,0.10095 -0.0374,0.0224 -0.0935,0.0561 -0.16826,0.10096 -0.0748,0.0374 -0.13834,0.071 -0.19068,0.10095 -0.0449,0.0224 -0.11965,0.0598 -0.22434,0.11216 -0.0972,0.0524 -0.17199,0.0935 -0.22433,0.12339 -0.77771,0.41129 -1.38341,0.88613 -1.81713,1.42454 -0.6431,0.80013 -0.96464,1.83582 -0.96464,3.10705 m 2.27701,-0.34772 c 0,-0.62814 0.13086,-1.19272 0.39259,-1.69374 0.2692,-0.50849 0.673,-0.87864 1.21141,-1.11046 l 0,3.21922 c 0,0.21686 -0.0935,0.40007 -0.28042,0.54963 -0.18695,0.14208 -0.41502,0.21312 -0.68422,0.21312 -0.24678,0 -0.42251,-0.16078 -0.52719,-0.48233 -0.0748,-0.21685 -0.11217,-0.44867 -0.11217,-0.69544"
           inkscape:connector-curvature="0"
           style="font-style:normal;font-variant:normal;font-weight:normal;font-stretch:normal;font-size:22.97203255px;line-height:125%;font-family:'League Gothic';-inkscape-font-specification:'League Gothic';letter-spacing:0px;word-spacing:0px;fill:#000000;fill-opacity:1;stroke:none" />
        <path
           id="path3191"
           d="m 132.19836,757.28595 1.17776,0 0,6.43845 c 0,1.1516 0.11591,2.03772 0.34772,2.65839 0.38885,1.03942 1.15907,1.55913 2.31067,1.55913 0.37389,0 0.673,-0.0224 0.89734,-0.0673 0.0374,-0.007 0.0935,-0.0224 0.16825,-0.0449 0.0823,-0.0224 0.14208,-0.0374 0.17947,-0.0449 l 0,-2.27702 c -0.0299,0.007 -0.0748,0.015 -0.1346,0.0224 -0.0598,0.007 -0.10469,0.015 -0.1346,0.0224 -0.20939,0.0299 -0.40381,0.0449 -0.58327,0.0449 -0.32156,0 -0.53468,-0.25051 -0.63936,-0.75153 -0.0598,-0.27668 -0.0897,-0.71413 -0.0897,-1.31236 l 0,-6.24777 1.58157,0 0,-2.08633 -1.58157,0 0,-3.10705 -2.32188,0 0,3.10705 -1.17776,0 0,2.08633"
           inkscape:connector-curvature="0"
           style="font-style:normal;font-variant:normal;font-weight:normal;font-stretch:normal;font-size:22.97203255px;line-height:125%;font-family:'League Gothic';-inkscape-font-specification:'League Gothic';letter-spacing:0px;word-spacing:0px;fill:#000000;fill-opacity:1;stroke:none" />
        <path
           id="path3193"
           d="m 138.13205,764.84608 c 0,1.1516 0.23929,1.99286 0.71788,2.52379 0.30659,0.38137 0.68796,0.57205 1.14411,0.57205 0.44867,0 0.85622,-0.14582 1.22263,-0.43745 0.26173,-0.20938 0.47485,-0.45989 0.63936,-0.75153 l 0.15704,0 c -1e-5,0.49354 0.071,0.83004 0.21312,1.00951 l 2.26579,0 c -0.10469,-0.64309 -0.15704,-1.37219 -0.15703,-2.18727 l 0,-7.71717 c -1e-5,-0.81508 -0.28417,-1.49557 -0.85248,-2.04146 -0.56085,-0.5384 -1.2189,-0.8076 -1.97416,-0.80761 -0.89735,10e-6 -1.63766,0.32904 -2.22093,0.98708 -0.59823,0.67302 -0.89734,1.46193 -0.89734,2.36674 l 0,0.52719 2.32188,0 0,-0.59449 c 0,-0.15702 0.0149,-0.35519 0.0449,-0.59449 0.0822,-0.44118 0.28789,-0.66178 0.61692,-0.66179 0.27668,10e-6 0.46736,0.12714 0.57206,0.38137 0.0449,0.14957 0.0673,0.40382 0.0673,0.76275 l 0,1.37966 c -0.015,0.0374 -0.0337,0.0748 -0.0561,0.11217 -0.0224,0.0299 -0.0561,0.0636 -0.10095,0.10095 -0.0449,0.0374 -0.0897,0.0711 -0.1346,0.10095 -0.0374,0.0224 -0.0935,0.0561 -0.16825,0.10096 -0.0748,0.0374 -0.13835,0.071 -0.19069,0.10095 -0.0449,0.0224 -0.11965,0.0598 -0.22433,0.11216 -0.0972,0.0524 -0.172,0.0935 -0.22434,0.12339 -0.7777,0.41129 -1.38341,0.88613 -1.81712,1.42454 -0.6431,0.80013 -0.96465,1.83582 -0.96465,3.10705 m 2.27701,-0.34772 c 0,-0.62814 0.13086,-1.19272 0.39259,-1.69374 0.2692,-0.50849 0.67301,-0.87864 1.21142,-1.11046 l 0,3.21922 c -1e-5,0.21686 -0.0935,0.40007 -0.28042,0.54963 -0.18695,0.14208 -0.41503,0.21312 -0.68423,0.21312 -0.24677,0 -0.4225,-0.16078 -0.52719,-0.48233 -0.0748,-0.21685 -0.11217,-0.44867 -0.11217,-0.69544"
           inkscape:connector-curvature="0"
           style="font-style:normal;font-variant:normal;font-weight:normal;font-stretch:normal;font-size:22.97203255px;line-height:125%;font-family:'League Gothic';-inkscape-font-specification:'League Gothic';letter-spacing:0px;word-spacing:0px;fill:#000000;fill-opacity:1;stroke:none" />
        <path
           id="path3195"
           d="m 145.58001,767.76245 2.41161,0 0,-2.54621 -2.41161,0 0,2.54621"
           inkscape:connector-curvature="0"
           style="font-style:normal;font-variant:normal;font-weight:normal;font-stretch:normal;font-size:22.97203255px;line-height:125%;font-family:'League Gothic';-inkscape-font-specification:'League Gothic';letter-spacing:0px;word-spacing:0px;fill:#000000;fill-opacity:1;stroke:none" />
        <path
           id="path3197"
           d="m 149.31521,764.22916 c 0,1.33854 0.28042,2.31066 0.84127,2.91637 0.48606,0.53093 1.19271,0.79639 2.11997,0.79639 1.01699,0 1.7573,-0.25051 2.22093,-0.75152 0.50849,-0.55337 0.76274,-1.50305 0.76275,-2.84907 l 0,-1.22264 -2.32189,0 0,1.74983 c 0,0.38885 -0.0449,0.65431 -0.1346,0.79639 -0.0897,0.14208 -0.26547,0.21312 -0.52719,0.21312 -0.19443,0 -0.34398,-0.0561 -0.44867,-0.16825 -0.0972,-0.11965 -0.15704,-0.23929 -0.17947,-0.35894 -0.015,-0.12712 -0.0224,-0.2879 -0.0224,-0.48232 l 0,-6.77496 c -1e-5,-0.19441 0.007,-0.35145 0.0224,-0.47111 0.0224,-0.12711 0.0822,-0.24675 0.17947,-0.35893 0.10469,-0.11964 0.25424,-0.17946 0.44867,-0.17947 0.26172,10e-6 0.43745,0.0711 0.52719,0.21312 0.0897,0.14209 0.1346,0.40755 0.1346,0.79639 l 0,1.51427 2.32189,0 0,-0.98708 c -1e-5,-1.34601 -0.25426,-2.2957 -0.76275,-2.84907 -0.46363,-0.50848 -1.20394,-0.76273 -2.22093,-0.76274 -0.91978,10e-6 -1.62644,0.26921 -2.11997,0.80761 -0.56085,0.60572 -0.84127,1.57784 -0.84127,2.91637 l 0,5.49624"
           inkscape:connector-curvature="0"
           style="font-style:normal;font-variant:normal;font-weight:normal;font-stretch:normal;font-size:22.97203255px;line-height:125%;font-family:'League Gothic';-inkscape-font-specification:'League Gothic';letter-spacing:0px;word-spacing:0px;fill:#000000;fill-opacity:1;stroke:none" />
        <path
           id="path3199"
           d="m 156.5052,764.63296 c 0.0224,0.56832 0.14581,1.12169 0.37015,1.66009 0.49354,1.09925 1.36097,1.64887 2.6023,1.64887 0.75526,0 1.3348,-0.16825 1.73861,-0.50475 0.4038,-0.32903 0.70291,-0.7104 0.89734,-1.14412 0.19442,-0.44119 0.31033,-0.96838 0.34772,-1.58157 l 0,-6.46088 c -0.0224,-0.53092 -0.14582,-1.06559 -0.37015,-1.60401 -0.50102,-1.09176 -1.3722,-1.63764 -2.61352,-1.63765 -0.77022,10e-6 -1.34602,0.16826 -1.72739,0.50475 -0.76274,0.64311 -1.17776,1.57785 -1.24506,2.80421 l 0,6.31506 m 2.18728,0 0,-6.31506 c -0.007,-0.0598 -0.0112,-0.11964 -0.0112,-0.17947 0,-0.17198 0.0262,-0.32528 0.0785,-0.45989 0.11216,-0.42623 0.35145,-0.63935 0.71787,-0.63936 0.21686,10e-6 0.38511,0.0598 0.50476,0.17947 0.19442,0.24678 0.29163,0.57207 0.29164,0.97586 -10e-6,0.0449 -10e-6,0.086 0,0.12339 l 0,6.31506 c 0.007,0.0598 0.0112,0.11965 0.0112,0.17947 0,0.17947 -0.0262,0.33651 -0.0785,0.47111 -0.1047,0.41128 -0.34773,0.61692 -0.7291,0.61692 -0.2019,0 -0.36268,-0.0598 -0.48232,-0.17947 -0.20191,-0.26172 -0.30286,-0.58327 -0.30285,-0.96464 -1e-5,-0.0449 -1e-5,-0.086 0,-0.12339"
           inkscape:connector-curvature="0"
           style="font-style:normal;font-variant:normal;font-weight:normal;font-stretch:normal;font-size:22.97203255px;line-height:125%;font-family:'League Gothic';-inkscape-font-specification:'League Gothic';letter-spacing:0px;word-spacing:0px;fill:#000000;fill-opacity:1;stroke:none" />
        <path
           id="path3201"
           d="m 164.07653,767.76245 2.32188,0 0,-9.90444 c 0.0449,-0.0748 0.12712,-0.17198 0.24677,-0.29164 0.2019,-0.20189 0.41128,-0.30284 0.62814,-0.30285 0.41128,10e-6 0.61692,0.18322 0.61693,0.54962 l 0,9.94931 2.17606,0 0,-9.90444 c 0.0299,-0.0598 0.1159,-0.15703 0.25799,-0.29164 0.20189,-0.20189 0.40753,-0.30284 0.61692,-0.30285 0.41875,10e-6 0.62813,0.18322 0.62814,0.54962 l 0,9.94931 2.17606,0 0,-10.29703 c -1e-5,-0.6057 -0.13835,-1.14784 -0.41502,-1.62644 -0.33651,-0.55335 -0.78145,-0.83003 -1.3348,-0.83004 -0.17948,10e-6 -0.38512,0.0636 -0.61692,0.19068 -0.45616,0.26922 -0.83005,0.56086 -1.12168,0.87491 -0.15705,0.15705 -0.28043,0.26922 -0.37016,0.33651 -0.32903,-0.93472 -0.84874,-1.40209 -1.55914,-1.4021 -0.19443,10e-6 -0.39259,0.0561 -0.59449,0.16825 -0.35894,0.19444 -0.71414,0.46738 -1.06559,0.81883 -0.16452,0.16452 -0.25426,0.25052 -0.26921,0.25798 l 0,-1.05438 -2.32188,0 0,12.56283"
           inkscape:connector-curvature="0"
           style="font-style:normal;font-variant:normal;font-weight:normal;font-stretch:normal;font-size:22.97203255px;line-height:125%;font-family:'League Gothic';-inkscape-font-specification:'League Gothic';letter-spacing:0px;word-spacing:0px;fill:#000000;fill-opacity:1;stroke:none" />
        <path
           id="path3203"
           d="m 175.19241,767.76245 2.41161,0 0,-2.54621 -2.41161,0 0,2.54621"
           inkscape:connector-curvature="0"
           style="font-style:normal;font-variant:normal;font-weight:normal;font-stretch:normal;font-size:22.97203255px;line-height:125%;font-family:'League Gothic';-inkscape-font-specification:'League Gothic';letter-spacing:0px;word-spacing:0px;fill:#000000;fill-opacity:1;stroke:none" />
        <path
           id="path3205"
           d="m 178.73691,764.84608 c 0,1.1516 0.23929,1.99286 0.71788,2.52379 0.30659,0.38137 0.68796,0.57205 1.14411,0.57205 0.44867,0 0.85621,-0.14582 1.22263,-0.43745 0.26172,-0.20938 0.47484,-0.45989 0.63936,-0.75153 l 0.15704,0 c -1e-5,0.49354 0.071,0.83004 0.21312,1.00951 l 2.26579,0 c -0.10469,-0.64309 -0.15704,-1.37219 -0.15703,-2.18727 l 0,-7.71717 c -1e-5,-0.81508 -0.28417,-1.49557 -0.85248,-2.04146 -0.56085,-0.5384 -1.2189,-0.8076 -1.97416,-0.80761 -0.89735,10e-6 -1.63766,0.32904 -2.22093,0.98708 -0.59823,0.67302 -0.89734,1.46193 -0.89734,2.36674 l 0,0.52719 2.32188,0 0,-0.59449 c -1e-5,-0.15702 0.0149,-0.35519 0.0449,-0.59449 0.0823,-0.44118 0.2879,-0.66178 0.61693,-0.66179 0.27668,10e-6 0.46736,0.12714 0.57206,0.38137 0.0449,0.14957 0.0673,0.40382 0.0673,0.76275 l 0,1.37966 c -0.015,0.0374 -0.0337,0.0748 -0.0561,0.11217 -0.0224,0.0299 -0.0561,0.0636 -0.10095,0.10095 -0.0449,0.0374 -0.0897,0.0711 -0.1346,0.10095 -0.0374,0.0224 -0.0935,0.0561 -0.16825,0.10096 -0.0748,0.0374 -0.13835,0.071 -0.19069,0.10095 -0.0449,0.0224 -0.11965,0.0598 -0.22433,0.11216 -0.0972,0.0524 -0.172,0.0935 -0.22434,0.12339 -0.7777,0.41129 -1.38341,0.88613 -1.81712,1.42454 -0.6431,0.80013 -0.96465,1.83582 -0.96465,3.10705 m 2.27701,-0.34772 c 0,-0.62814 0.13086,-1.19272 0.39259,-1.69374 0.2692,-0.50849 0.67301,-0.87864 1.21142,-1.11046 l 0,3.21922 c -1e-5,0.21686 -0.0935,0.40007 -0.28042,0.54963 -0.18695,0.14208 -0.41503,0.21312 -0.68423,0.21312 -0.24677,0 -0.4225,-0.16078 -0.52719,-0.48233 -0.0748,-0.21685 -0.11217,-0.44867 -0.11217,-0.69544"
           inkscape:connector-curvature="0"
           style="font-style:normal;font-variant:normal;font-weight:normal;font-stretch:normal;font-size:22.97203255px;line-height:125%;font-family:'League Gothic';-inkscape-font-specification:'League Gothic';letter-spacing:0px;word-spacing:0px;fill:#000000;fill-opacity:1;stroke:none" />
        <path
           id="path3207"
           d="m 186.51016,767.76245 2.32188,0 0,-8.72668 c -1e-5,-0.48605 0.16824,-0.87116 0.50475,-1.15533 0.2692,-0.25424 0.65805,-0.38136 1.16655,-0.38137 0.25424,1e-5 0.4711,0.0299 0.65058,0.0897 l 0,-2.57986 c -0.70293,10e-6 -1.29368,0.22435 -1.77226,0.67301 -0.16452,0.16452 -0.29538,0.33277 -0.39259,0.50475 -0.0897,0.17201 -0.14208,0.31035 -0.15703,0.41502 l 0,-1.4021 -2.32188,0 0,12.56283"
           inkscape:connector-curvature="0"
           style="font-style:normal;font-variant:normal;font-weight:normal;font-stretch:normal;font-size:22.97203255px;line-height:125%;font-family:'League Gothic';-inkscape-font-specification:'League Gothic';letter-spacing:0px;word-spacing:0px;fill:#000000;fill-opacity:1;stroke:none" />
      </g>
      <path
         inkscape:connector-curvature="0"
         d="m 139.44548,702.71269 c 0.0487,1.54157 0.34888,2.87219 0.90061,3.99185 0.4868,1.08722 1.18457,1.97971 2.09329,2.67747 1.02229,0.82757 2.41782,1.24136 4.18658,1.24136 1.73628,0 3.11558,-0.41379 4.1379,-1.24136 0.95738,-0.73022 1.67137,-1.62271 2.14197,-2.67747 0.55171,-1.11966 0.85191,-2.45028 0.90061,-3.99185 l 0,-29.11136 -5.37927,0 0,29.11136 c -2e-5,0.55172 -0.0731,0.99797 -0.21907,1.33873 -0.22719,0.89249 -0.75457,1.33874 -1.58214,1.33874 -0.43814,0 -0.78702,-0.12982 -1.04665,-0.38945 -0.50305,-0.58418 -0.75456,-1.34685 -0.75456,-2.28802 l 0,-29.11136 -5.37927,0 0,29.11136"
         id="path3210"
         style="font-style:normal;font-variant:normal;font-weight:normal;font-stretch:normal;font-size:medium;line-height:125%;font-family:'League Gothic';-inkscape-font-specification:'League Gothic';letter-spacing:0px;word-spacing:0px;fill:#000000;fill-opacity:1;stroke:none" />
      <path
         inkscape:connector-curvature="0"
         d="m 156.19182,687.49981 2.55575,0 0,13.9715 c 0,2.49898 0.25152,4.42189 0.75456,5.76873 0.84381,2.25556 2.51519,3.38333 5.01416,3.38333 0.81135,0 1.46043,-0.0488 1.94726,-0.14603 0.0812,-0.0162 0.20282,-0.0488 0.36511,-0.0973 0.17848,-0.0487 0.3083,-0.0811 0.38945,-0.0973 l 0,-4.94115 c -0.0649,0.0162 -0.16229,0.0325 -0.29209,0.0487 -0.12983,0.0163 -0.22719,0.0324 -0.29208,0.0488 -0.45438,0.0649 -0.87628,0.0973 -1.26572,0.0973 -0.69777,1e-5 -1.16024,-0.5436 -1.38741,-1.63082 -0.12983,-0.60039 -0.19474,-1.54967 -0.19473,-2.84785 l 0,-13.5577 3.43203,0 0,-4.52737 -3.43203,0 0,-6.74233 -5.03851,0 0,6.74233 -2.55575,0 0,4.52737"
         id="path3212"
         style="font-style:normal;font-variant:normal;font-weight:normal;font-stretch:normal;font-size:medium;line-height:125%;font-family:'League Gothic';-inkscape-font-specification:'League Gothic';letter-spacing:0px;word-spacing:0px;fill:#000000;fill-opacity:1;stroke:none" />
      <path
         inkscape:connector-curvature="0"
         d="m 169.40875,703.44291 c 0.0487,1.23325 0.31643,2.43405 0.80325,3.6024 1.07098,2.38537 2.95332,3.57806 5.64702,3.57806 1.63892,0 2.89652,-0.36509 3.77279,-1.09531 0.87625,-0.714 1.52533,-1.54158 1.94724,-2.48275 0.4219,-0.95739 0.67342,-2.1014 0.75456,-3.43203 l 0,-14.02018 c -0.0487,-1.1521 -0.31644,-2.31233 -0.80323,-3.4807 -1.08723,-2.36912 -2.97768,-3.5537 -5.67136,-3.55373 -1.6714,3e-5 -2.92088,0.36513 -3.74845,1.09533 -1.65517,1.39555 -2.55577,3.42393 -2.70182,6.08514 l 0,13.70377 m 4.74643,0 0,-13.70377 c -0.0163,-0.12979 -0.0243,-0.2596 -0.0243,-0.38944 -1e-5,-0.3732 0.0568,-0.70586 0.17037,-0.99797 0.2434,-0.92491 0.76267,-1.38739 1.55781,-1.38741 0.47057,2e-5 0.83568,0.12985 1.09532,0.38945 0.4219,0.53552 0.63285,1.24139 0.63286,2.11764 -1e-5,0.0973 -1e-5,0.18662 0,0.26773 l 0,13.70377 c 0.0163,0.12982 0.0243,0.25962 0.0243,0.38945 -1e-5,0.38945 -0.0568,0.73022 -0.17039,1.0223 -0.22718,0.89249 -0.75456,1.33873 -1.58213,1.33873 -0.43814,0 -0.78702,-0.12981 -1.04665,-0.38945 -0.43814,-0.56795 -0.6572,-1.2657 -0.65719,-2.09329 -1e-5,-0.0973 -1e-5,-0.1866 0,-0.26774"
         id="path3214"
         style="font-style:normal;font-variant:normal;font-weight:normal;font-stretch:normal;font-size:medium;line-height:125%;font-family:'League Gothic';-inkscape-font-specification:'League Gothic';letter-spacing:0px;word-spacing:0px;fill:#000000;fill-opacity:1;stroke:none" />
      <path
         inkscape:connector-curvature="0"
         d="m 185.83866,719.60506 5.0385,0 0,-11.17234 c 0.55171,0.48682 0.98173,0.85193 1.29006,1.09534 0.98984,0.73022 1.89044,1.09531 2.7018,1.09531 1.21702,0 2.20687,-0.60851 2.96956,-1.82554 0.60038,-0.98985 0.90058,-2.1582 0.9006,-3.50505 l 0,-17.40352 c -2e-5,-1.31437 -0.30022,-2.49083 -0.9006,-3.52938 -0.79514,-1.20077 -1.78499,-1.80118 -2.96956,-1.80121 -0.50305,3e-5 -0.97363,0.12175 -1.41175,0.36511 -0.81136,0.35702 -1.6714,0.96553 -2.58011,1.82555 l 0,-1.77688 -5.0385,0 0,36.63261 m 5.0385,-15.35891 0,-15.2859 c -1e-5,-0.47056 0.14604,-0.86001 0.43814,-1.16835 0.3083,-0.32452 0.65719,-0.48679 1.04664,-0.48681 0.37321,2e-5 0.68964,0.16229 0.94929,0.48681 0.27584,0.30834 0.41378,0.69779 0.41379,1.16835 l 0,15.2859 c -1e-5,0.47059 -0.13795,0.86815 -0.41379,1.19268 -0.25965,0.30832 -0.57608,0.46248 -0.94929,0.46247 -0.37323,10e-6 -0.71399,-0.17037 -1.0223,-0.51114 -0.30832,-0.357 -0.46249,-0.73834 -0.46248,-1.14401"
         id="path3216"
         style="font-style:normal;font-variant:normal;font-weight:normal;font-stretch:normal;font-size:medium;line-height:125%;font-family:'League Gothic';-inkscape-font-specification:'League Gothic';letter-spacing:0px;word-spacing:0px;fill:#000000;fill-opacity:1;stroke:none" />
      <path
         inkscape:connector-curvature="0"
         d="m 202.58499,710.23392 5.03851,0 0,-27.26147 -5.03851,0 0,27.26147 m 0,-31.76448 3.8945,0 3.91884,-4.47866 -5.23324,0 -2.5801,4.47866"
         id="path3218"
         style="font-style:normal;font-variant:normal;font-weight:normal;font-stretch:normal;font-size:medium;line-height:125%;font-family:'League Gothic';-inkscape-font-specification:'League Gothic';letter-spacing:0px;word-spacing:0px;fill:#000000;fill-opacity:1;stroke:none" />
      <path
         inkscape:connector-curvature="0"
         d="m 210.83645,703.90537 c 0,2.49898 0.51927,4.32451 1.5578,5.47664 0.66531,0.82757 1.49289,1.24136 2.48274,1.24136 0.97362,0 1.858,-0.31642 2.65313,-0.94927 0.56794,-0.45436 1.0304,-0.99797 1.38741,-1.63083 l 0.34077,0 c -1e-5,1.071 0.15415,1.80122 0.46247,2.19065 l 4.9168,0 c -0.2272,-1.39552 -0.34078,-2.97766 -0.34076,-4.74641 l 0,-16.74633 c -2e-5,-1.76872 -0.61665,-3.24539 -1.84989,-4.42999 -1.21705,-1.16831 -2.64503,-1.75249 -4.28394,-1.75252 -1.94726,3e-5 -3.55374,0.71401 -4.81945,2.14197 -1.29816,1.46047 -1.94724,3.17241 -1.94724,5.13588 l 0,1.144 5.0385,0 0,-1.29005 c 0,-0.34075 0.0324,-0.77077 0.0974,-1.29006 0.17849,-0.95737 0.62473,-1.43607 1.33873,-1.43609 0.6004,2e-5 1.01418,0.27588 1.24137,0.82758 0.0974,0.32457 0.14604,0.87628 0.14605,1.65517 l 0,2.99388 c -0.0325,0.0812 -0.0731,0.16229 -0.12171,0.24341 -0.0487,0.0649 -0.12171,0.13794 -0.21906,0.21906 -0.0974,0.0812 -0.19475,0.15418 -0.29209,0.21907 -0.0812,0.0488 -0.20285,0.12177 -0.36511,0.21907 -0.16228,0.0812 -0.30021,0.15417 -0.4138,0.21906 -0.0974,0.0488 -0.25964,0.12983 -0.48681,0.24341 -0.21095,0.11365 -0.37322,0.20285 -0.48681,0.26774 -1.68762,0.8925 -3.00201,1.92293 -3.94318,3.09125 -1.39552,1.73632 -2.09329,3.98377 -2.09329,6.74235 m 4.94115,-0.75455 c -1e-5,-1.36307 0.28396,-2.58821 0.85192,-3.67543 0.58416,-1.10342 1.46042,-1.90668 2.62878,-2.40972 l 0,6.98575 c -1e-5,0.47059 -0.20285,0.86816 -0.60851,1.19269 -0.40569,0.30832 -0.90062,0.46248 -1.48478,0.46246 -0.5355,2e-5 -0.91683,-0.34887 -1.14401,-1.04664 -0.16227,-0.47058 -0.24341,-0.97362 -0.2434,-1.50911"
         id="path3220"
         style="font-style:normal;font-variant:normal;font-weight:normal;font-stretch:normal;font-size:medium;line-height:125%;font-family:'League Gothic';-inkscape-font-specification:'League Gothic';letter-spacing:0px;word-spacing:0px;fill:#000000;fill-opacity:1;stroke:none" />
      <path
         inkscape:connector-curvature="0"
         d="m 235.39611,710.23392 5.37927,0 0,-14.65303 c 2.62879,1e-5 4.78699,-0.79511 6.4746,-2.38538 1.99591,-1.88232 2.99387,-4.76262 2.9939,-8.6409 -3e-5,-3.89448 -0.99799,-6.7829 -2.9939,-8.66526 -1.60649,-1.52531 -3.76468,-2.28798 -6.4746,-2.28802 l -5.37927,0 0,36.63259 m 5.37927,-20.12966 0,-11.0263 c 1.60648,4e-5 2.7018,0.43005 3.28599,1.29006 0.50303,0.74647 0.75454,2.20691 0.75455,4.38131 -1e-5,2.14199 -0.25152,3.54564 -0.75455,4.21092 -0.55174,0.76269 -1.64706,1.14403 -3.28599,1.14401"
         id="path3222"
         style="font-style:normal;font-variant:normal;font-weight:normal;font-stretch:normal;font-size:medium;line-height:125%;font-family:'League Gothic';-inkscape-font-specification:'League Gothic';letter-spacing:0px;word-spacing:0px;fill:#000000;fill-opacity:1;stroke:none" />
      <path
         inkscape:connector-curvature="0"
         d="m 252.92134,710.23392 5.0385,0 0,-27.26147 -5.0385,0 0,27.26147 m 0,-31.59409 5.0385,0 0,-5.0385 -5.0385,0 0,5.0385"
         id="path3224"
         style="font-style:normal;font-variant:normal;font-weight:normal;font-stretch:normal;font-size:medium;line-height:125%;font-family:'League Gothic';-inkscape-font-specification:'League Gothic';letter-spacing:0px;word-spacing:0px;fill:#000000;fill-opacity:1;stroke:none" />
      <path
         inkscape:connector-curvature="0"
         d="m 261.97604,710.23392 5.03851,0 0,-18.93698 c -10e-6,-1.05474 0.3651,-1.89043 1.09532,-2.50708 0.58418,-0.5517 1.42798,-0.82755 2.53142,-0.82757 0.55171,2e-5 1.0223,0.0649 1.41177,0.19472 l 0,-5.59834 c -1.52536,3e-5 -2.80729,0.48684 -3.84582,1.46044 -0.357,0.35702 -0.64098,0.72213 -0.85192,1.09531 -0.19474,0.37326 -0.30833,0.67346 -0.34077,0.90061 l 0,-3.04258 -5.03851,0 0,27.26147"
         id="path3226"
         style="font-style:normal;font-variant:normal;font-weight:normal;font-stretch:normal;font-size:medium;line-height:125%;font-family:'League Gothic';-inkscape-font-specification:'League Gothic';letter-spacing:0px;word-spacing:0px;fill:#000000;fill-opacity:1;stroke:none" />
      <path
         inkscape:connector-curvature="0"
         d="m 273.44047,703.90537 c 0,2.49898 0.51926,4.32451 1.5578,5.47664 0.6653,0.82757 1.49287,1.24136 2.48274,1.24136 0.97361,0 1.858,-0.31642 2.65312,-0.94927 0.56793,-0.45436 1.03041,-0.99797 1.38741,-1.63083 l 0.34077,0 c -10e-6,1.071 0.15415,1.80122 0.46247,2.19065 l 4.91681,0 c -0.22721,-1.39552 -0.34078,-2.97766 -0.34077,-4.74641 l 0,-16.74633 c -1e-5,-1.76872 -0.61664,-3.24539 -1.84989,-4.42999 -1.21705,-1.16831 -2.64502,-1.75249 -4.28395,-1.75252 -1.94725,3e-5 -3.55372,0.71401 -4.81943,2.14197 -1.29816,1.46047 -1.94725,3.17241 -1.94725,5.13588 l 0,1.144 5.03851,0 0,-1.29005 c -2e-5,-0.34075 0.0324,-0.77077 0.0973,-1.29006 0.17848,-0.95737 0.62474,-1.43607 1.33873,-1.43609 0.60039,2e-5 1.01418,0.27588 1.24137,0.82758 0.0973,0.32457 0.14603,0.87628 0.14605,1.65517 l 0,2.99388 c -0.0324,0.0812 -0.073,0.16229 -0.12176,0.24341 -0.0487,0.0649 -0.12175,0.13794 -0.21906,0.21906 -0.0973,0.0812 -0.19473,0.15418 -0.29208,0.21907 -0.0812,0.0488 -0.20286,0.12177 -0.36511,0.21907 -0.16229,0.0812 -0.30021,0.15417 -0.4138,0.21906 -0.0973,0.0488 -0.25963,0.12983 -0.48681,0.24341 -0.21096,0.11365 -0.37323,0.20285 -0.48681,0.26774 -1.68761,0.8925 -3.00201,1.92293 -3.94317,3.09125 -1.39554,1.73632 -2.0933,3.98377 -2.0933,6.74235 m 4.94114,-0.75455 c 0,-1.36307 0.28397,-2.58821 0.85193,-3.67543 0.58416,-1.10342 1.46041,-1.90668 2.62878,-2.40972 l 0,6.98575 c -2e-5,0.47059 -0.20285,0.86816 -0.60851,1.19269 -0.40569,0.30832 -0.90061,0.46248 -1.48478,0.46246 -0.5355,2e-5 -0.91684,-0.34887 -1.14401,-1.04664 -0.16228,-0.47058 -0.24341,-0.97362 -0.24341,-1.50911"
         id="path3228"
         style="font-style:normal;font-variant:normal;font-weight:normal;font-stretch:normal;font-size:medium;line-height:125%;font-family:'League Gothic';-inkscape-font-specification:'League Gothic';letter-spacing:0px;word-spacing:0px;fill:#000000;fill-opacity:1;stroke:none" />
      <path
         inkscape:connector-curvature="0"
         d="m 288.79939,687.49981 2.55576,0 0,13.9715 c 0,2.49898 0.25152,4.42189 0.75456,5.76873 0.8438,2.25556 2.51518,3.38333 5.01415,3.38333 0.81135,0 1.46043,-0.0488 1.94725,-0.14603 0.0812,-0.0162 0.20284,-0.0488 0.36511,-0.0973 0.17848,-0.0487 0.30831,-0.0811 0.38945,-0.0973 l 0,-4.94115 c -0.0649,0.0162 -0.16227,0.0325 -0.29208,0.0487 -0.12983,0.0163 -0.22719,0.0324 -0.2921,0.0488 -0.45436,0.0649 -0.87627,0.0973 -1.2657,0.0973 -0.69777,1e-5 -1.16025,-0.5436 -1.38742,-1.63082 -0.12983,-0.60039 -0.19473,-1.54967 -0.19472,-2.84785 l 0,-13.5577 3.43202,0 0,-4.52737 -3.43202,0 0,-6.74233 -5.0385,0 0,6.74233 -2.55576,0 0,4.52737"
         id="path3230"
         style="font-style:normal;font-variant:normal;font-weight:normal;font-stretch:normal;font-size:medium;line-height:125%;font-family:'League Gothic';-inkscape-font-specification:'League Gothic';letter-spacing:0px;word-spacing:0px;fill:#000000;fill-opacity:1;stroke:none" />
      <path
         inkscape:connector-curvature="0"
         d="m 301.67556,703.90537 c 0,2.49898 0.51926,4.32451 1.55779,5.47664 0.66531,0.82757 1.49289,1.24136 2.48276,1.24136 0.9736,0 1.85799,-0.31642 2.65311,-0.94927 0.56794,-0.45436 1.03041,-0.99797 1.38741,-1.63083 l 0.34078,0 c -2e-5,1.071 0.15414,1.80122 0.46246,2.19065 l 4.91681,0 c -0.2272,-1.39552 -0.34078,-2.97766 -0.34077,-4.74641 l 0,-16.74633 c -1e-5,-1.76872 -0.61664,-3.24539 -1.8499,-4.42999 -1.21703,-1.16831 -2.64501,-1.75249 -4.28393,-1.75252 -1.94726,3e-5 -3.55373,0.71401 -4.81943,2.14197 -1.29817,1.46047 -1.94726,3.17241 -1.94726,5.13588 l 0,1.144 5.03851,0 0,-1.29005 c -1e-5,-0.34075 0.0324,-0.77077 0.0973,-1.29006 0.17849,-0.95737 0.62474,-1.43607 1.33874,-1.43609 0.60039,2e-5 1.01418,0.27588 1.24136,0.82758 0.0973,0.32457 0.14603,0.87628 0.14605,1.65517 l 0,2.99388 c -0.0324,0.0812 -0.073,0.16229 -0.12176,0.24341 -0.0487,0.0649 -0.12175,0.13794 -0.21906,0.21906 -0.0973,0.0812 -0.19473,0.15418 -0.29208,0.21907 -0.0812,0.0488 -0.20285,0.12177 -0.36511,0.21907 -0.16229,0.0812 -0.30021,0.15417 -0.41379,0.21906 -0.0973,0.0488 -0.25964,0.12983 -0.48682,0.24341 -0.21095,0.11365 -0.37323,0.20285 -0.4868,0.26774 -1.68762,0.8925 -3.00202,1.92293 -3.94318,3.09125 -1.39553,1.73632 -2.09329,3.98377 -2.09329,6.74235 m 4.94114,-0.75455 c 0,-1.36307 0.28396,-2.58821 0.85192,-3.67543 0.58416,-1.10342 1.46042,-1.90668 2.62878,-2.40972 l 0,6.98575 c -10e-6,0.47059 -0.20285,0.86816 -0.60851,1.19269 -0.40569,0.30832 -0.90061,0.46248 -1.48478,0.46246 -0.5355,2e-5 -0.91683,-0.34887 -1.14401,-1.04664 -0.16227,-0.47058 -0.2434,-0.97362 -0.2434,-1.50911"
         id="path3232"
         style="font-style:normal;font-variant:normal;font-weight:normal;font-stretch:normal;font-size:medium;line-height:125%;font-family:'League Gothic';-inkscape-font-specification:'League Gothic';letter-spacing:0px;word-spacing:0px;fill:#000000;fill-opacity:1;stroke:none" />
    </g>
    <g
       transform="matrix(0.24927978,0,0,0.24927978,-156.31316,761.61796)"
       id="g8064">
      <g
         transform="translate(636.31089,-849.16436)"
         id="g8060">
        <path
           inkscape:connector-curvature="0"
           d="m 297.62416,448.18446 0,7.875 -9.625,3.375 -9.75,3.25 9.375,-0.25 9.375,-0.25 0.375,51.25 c 0.25,50.125 0.25,51.375 -2.5,59.375 -5.5,15.875 -3.25,30.375 6.375,41.25 l 3.875,4.375 -3,-6.875 c -4.5,-10.125 -5,-15 -2.625,-23.125 4.625,-16 19.37501,-25.5 48.87501,-31.875 19.875,-4.125 28.875,-7 39,-12.5 20.875,-11.125 31.75,-29.875 29,-50.375 -4.375,-31.625 -47.125,-49.125 -100.875,-41.375 l -5.37501,0.875 0,-6.5 0,-6.375 -6.25,0 -6.25,0 0,7.875 z m 28.75001,17.375 c 7.5,3.125 14.25,9.875 17.75,17.75 2.25,5.125 2.75,8.625 2.75,18.25 0,10.625 -0.375,12.75 -3.625,19.375 -4.5,9.375 -12.375,17.875 -23.25,25 -4.5,3.125 -8.62501,5.625 -9.12501,5.625 -0.375,0 -0.75,-20.25 -0.75,-45 l 0,-45 5.37501,0.75 c 2.875,0.5 7.75,1.875 10.875,3.25 z"
           id="path33273"
           style="fill:#000000;stroke:none" />
        <path
           inkscape:connector-curvature="0"
           d="m 424.37417,510.80946 c -0.25,17.125 -10.375,31.875 -29,42.375 -10.25,5.625 -22.875,9.75 -42.375,13.75 -27,5.625 -36.375,10.75 -42.75001,23.5 -3,6 -3.875,9.375 -3.875,15.125 0,7.5 2.75,15.125 6.75001,18.375 1.875,1.5 1.875,1.25 0.125,-2.75 -4.50001,-10.75 -0.5,-25.25 9.25,-33.625 6.125,-5.25 16,-8.625 35.75,-12.25 36,-6.75 56.75,-18.75 65.875,-38.375 3.125,-6.625 3.75,-9.625 3.75,-17 0,-5 -0.75,-11.125 -1.625,-13.625 l -1.75,-4.625 -0.125,9.125 z"
           id="path33275"
           style="fill:#77a1c8;fill-opacity:1;stroke:none" />
      </g>
      <circle
         transform="matrix(0,-1,1,0,0,0)"
         r="127.77704"
         cy="989.37256"
         cx="316.6192"
         id="path7258"
         style="opacity:1;fill:none;fill-opacity:1;fill-rule:nonzero;stroke:#000000;stroke-width:14.51531315;stroke-miterlimit:4;stroke-dasharray:none;stroke-dashoffset:0;stroke-opacity:1" />
    </g>
  </g>
</svg>
