<?xml version="1.0" encoding="UTF-8" standalone="no"?>
<!-- Created with Inkscape (http://www.inkscape.org/) -->

<svg
   xmlns:dc="http://purl.org/dc/elements/1.1/"
   xmlns:cc="http://creativecommons.org/ns#"
   xmlns:rdf="http://www.w3.org/1999/02/22-rdf-syntax-ns#"
   xmlns:svg="http://www.w3.org/2000/svg"
   xmlns="http://www.w3.org/2000/svg"
   xmlns:sodipodi="http://sodipodi.sourceforge.net/DTD/sodipodi-0.dtd"
   xmlns:inkscape="http://www.inkscape.org/namespaces/inkscape"
   width="210mm"
   height="148mm"
   viewBox="0 0 744.09449 524.40944"
   id="svg2"
   version="1.1"
   inkscape:version="0.91 r13725"
   sodipodi:docname="seis_tesis_sobre_municipalismo_libertario.svg">
  <defs
     id="defs4" />
  <sodipodi:namedview
     id="base"
     pagecolor="#ffffff"
     bordercolor="#666666"
     borderopacity="1.0"
     inkscape:pageopacity="0.0"
     inkscape:pageshadow="2"
     inkscape:zoom="1.4945122"
     inkscape:cx="195.89851"
     inkscape:cy="306.8332"
     inkscape:document-units="mm"
     inkscape:current-layer="g3839"
     showgrid="false"
     showguides="true"
     inkscape:guide-bbox="true"
     inkscape:window-width="1366"
     inkscape:window-height="726"
     inkscape:window-x="0"
     inkscape:window-y="42"
     inkscape:window-maximized="0">
    <sodipodi:guide
       position="372.04725,0"
       orientation="1,0"
       id="guide4070"
       inkscape:label=""
       inkscape:color="rgb(0,0,255)" />
  </sodipodi:namedview>
  <metadata
     id="metadata7">
    <rdf:RDF>
      <cc:Work
         rdf:about="">
        <dc:format>image/svg+xml</dc:format>
        <dc:type
           rdf:resource="http://purl.org/dc/dcmitype/StillImage" />
        <dc:title />
      </cc:Work>
    </rdf:RDF>
  </metadata>
  <g
     inkscape:label="Capa 1"
     inkscape:groupmode="layer"
     id="layer1"
     transform="translate(0,-527.95276)">
    <g
       id="g3839"
       transform="translate(-19.246302,375.20279)">
      <rect
         y="151.00224"
         x="19.246304"
         height="527.90491"
         width="743.63721"
         id="rect3033"
         style="fill:#37c837;fill-opacity:1" />
      <path
         d="m 722.24613,599.0254 c -2.32629,3.27084 -4.84892,6.04234 -7.59922,9.34527 l -3.72206,4.20537 c -3.10172,2.95933 -10.85603,8.72225 -14.42301,11.05855 -2.01612,1.4018 -4.18732,2.4921 -6.35852,3.4266 l -2.83188,1.3769 c 0.46526,0.4672 1.33064,0.7228 2.11367,1.0903 0.46526,0 2.11398,-0.9096 2.57924,-1.2211 l 4.96275,-2.8036 c 0.93052,-0.623 1.86103,-1.4018 2.94664,-1.5576 -0.46526,1.0903 -1.55086,1.7133 -2.63647,2.3363 l -2.94663,1.7133 c 0,0 -3.09412,1.771 -3.51735,2.0653 0.84816,0.3365 2.12157,0.7229 2.92942,1.0498 0.77543,0 1.82862,-0.7787 2.44896,-1.0903 1.70595,-0.9345 3.87715,-2.3363 5.5831,-3.5823 l 2.79155,-1.8691 c 2.1712,-1.71326 4.34241,-3.58231 6.35853,-5.60712 1.55086,-1.40179 3.10172,-2.80358 4.34241,-4.51688 1.70594,-2.02481 2.79154,-4.36112 4.03223,-6.69744 1.39578,-2.18056 1.86104,-3.58235 2.63647,-5.91867 0.15508,-0.77877 0.62034,-2.02481 0.31017,-2.80358 z"
         id="path719"
         inkscape:connector-curvature="0"
         style="fill:#ffffff;stroke:none;stroke-width:0.70476186" />
      <path
         d="m 651.06163,598.24663 c -0.46526,1.7133 0.15509,3.7381 0.77543,5.29565 1.39578,3.73811 3.72207,7.00895 6.04836,10.12404 1.39577,2.02481 3.72206,4.51688 5.42801,6.23018 l 1.86103,1.55754 4.03224,3.58235 c 3.25681,2.4921 9.30516,6.2302 13.02723,7.9435 l 4.96275,2.1805 2.01612,0.7788 c 2.32629,0.9345 4.65258,1.5576 7.13396,2.0248 1.39577,0.3115 2.94663,0.7788 4.34241,0.7788 -0.46526,-1.7133 -1.39578,-1.5575 -2.79155,-2.0248 l -5.11784,-2.0248 c -7.13396,-2.9594 -15.04335,-5.9187 -20.62645,-11.5258 1.08561,0 1.86104,0.9345 2.63647,1.5575 1.0856,0.7788 2.48137,1.7133 3.72206,2.4921 3.41189,2.0248 11.1662,5.6071 15.04335,7.0089 1.55086,0.623 4.18732,1.7133 5.73818,1.7133 1.24069,0.1558 2.94664,-0.623 3.87715,-1.246 -0.62034,-0.623 -1.24068,-0.4673 -2.1712,-0.623 l -4.80767,-1.4018 c -4.18732,-1.0903 -8.21956,-2.6479 -12.09671,-4.6727 l -2.17121,-0.9345 -2.94663,-1.869 -3.56698,-2.33636 -3.72206,-2.95933 -6.35853,-4.98415 -5.89327,-6.07442 -2.94664,-3.4266 -3.10172,-3.4266 -2.32629,-3.7381 z"
         id="path725"
         inkscape:connector-curvature="0"
         style="fill:#ffffff;stroke:none;stroke-width:0.70476186" />
      <path
         d="m 700.84425,636.71799 c 0.31017,0.623 0.93052,1.5575 0.93052,2.3363 0,1.7133 -2.01612,3.2708 -3.56698,3.1151 -0.62034,-0.1558 -2.01612,-0.9345 -2.48138,0 -0.15508,0.3115 -0.15508,0.623 0,0.7788 0,0.623 0.77543,0.9345 1.39578,1.246 1.70594,0.4673 3.56698,-0.1558 4.96275,-1.0903 1.0856,-0.623 1.86103,-1.7133 2.17121,-2.9593 l 0.31017,-2.0248 c 0.15508,-0.623 0.77543,-0.7788 1.55086,-1.8691 0.93051,-1.246 1.86103,-3.4266 3.10172,-4.3611 0.46526,-0.3115 0.93052,-0.4673 1.55086,-0.623 -0.31017,-0.4673 -0.62034,-0.7788 -0.93052,-1.2461 -0.31017,-0.1557 -0.62034,-0.4672 -0.93051,-0.4672 -0.46526,-0.1558 -1.0856,-0.1558 -1.55086,0.1557 -2.17121,1.0903 -1.70595,3.1151 -2.94664,4.6727 -0.93051,1.246 -2.01612,1.869 -3.56698,2.3363 z"
         id="path731"
         inkscape:connector-curvature="0"
         style="fill:#ffffff;stroke:none;stroke-width:0.70476186" />
      <path
         d="m 705.80701,638.74279 c 1.0856,0.4673 2.01612,0.3115 3.10172,0.3115 l 2.32629,0.1558 c 1.0856,0 1.39577,-0.6231 1.86103,-1.5576 0.15509,-0.3115 0.31017,-0.9345 0,-1.246 -0.31017,-0.3115 -0.93052,-0.3115 -1.39577,-0.3115 l -2.63647,0.1557 c -0.46525,0 -1.24068,0 -1.70594,0.1558 -0.77543,0.4672 -1.39578,1.5575 -1.55086,2.3363 z"
         id="path737"
         inkscape:connector-curvature="0"
         style="fill:#ffffff;stroke:none;stroke-width:0.70476186" />
      <path
         d="m 714.18165,640.92339 c -0.77543,-0.3115 -1.24069,-0.6231 -1.70594,-1.2461 -0.15509,0.1558 -0.31018,0.1558 -0.46526,0.3115 -0.15509,0.7788 1.86103,2.6479 2.1712,0.9346 z"
         id="path743"
         inkscape:connector-curvature="0"
         style="fill:#ffffff;stroke:none;stroke-width:0.70476186" />
      <path
         d="m 713.09605,635.62769 1.24069,0.7788 c -0.31017,0.623 -1.0856,1.869 -0.93052,2.6478 0.15509,1.5576 2.32629,1.5576 3.25681,0.623 1.0856,-1.246 1.0856,-3.1151 -0.46526,-4.0496 -0.93051,-0.4673 -2.01612,-0.3115 -3.10172,0 z"
         id="path744"
         inkscape:connector-curvature="0"
         style="fill:#ffffff;stroke:none;stroke-width:0.70476186" />
      <path
         d="m 657.42016,639.98879 0.15508,0.1558 c 1.24069,-0.3115 2.01612,-0.7788 2.17121,-2.0248 -0.93052,0.1557 -1.86103,1.0903 -2.32629,1.869 z"
         id="selection_x5F_to_x5F_path_x23_5"
         inkscape:connector-curvature="0"
         style="fill:#ffffff;stroke:none;stroke-width:0.70476186" />
      <path
         d="m 658.50576,634.22589 c -0.46526,-0.3115 -0.93052,-0.4672 -1.55086,-0.4672 -0.46526,0 -0.93052,0 -1.39577,0.1557 -1.55086,0.623 -1.70595,3.1151 -0.46526,4.2054 0.62034,0.623 2.1712,0.9345 2.79155,0.1557 0.62034,-0.623 0.46526,-1.4018 0.15508,-2.1805 -0.15508,-0.4673 -0.46526,-1.0903 -0.15508,-1.4018 0.15508,-0.3115 0.46526,-0.3115 0.62034,-0.4673 z"
         id="selection_x5F_to_x5F_path_x23_4"
         inkscape:connector-curvature="0"
         style="fill:#ffffff;stroke:none;stroke-width:0.70476186" />
      <path
         d="m 658.35068,634.84889 c 0.15508,0.4673 0.93051,2.3364 1.24068,2.6479 0.46526,0.3115 0.93052,0.3115 1.39578,0.3115 l 2.79155,-0.1558 2.01612,0 c 0,-0.4672 0,-0.9345 -0.15509,-1.246 -0.46526,-1.2461 -2.17121,-1.8691 -3.41189,-1.8691 l -1.39578,0.1558 c -0.93051,0 -1.70594,-0.1558 -2.48137,0.1557 z"
         id="selection_x5F_to_x5F_path_x23_3"
         inkscape:connector-curvature="0"
         style="fill:#ffffff;stroke:none;stroke-width:0.70476186" />
      <path
         d="m 661.29731,629.86479 c 2.94663,0.7788 2.94663,3.2708 4.18732,4.9841 0.46526,0.6231 1.70595,1.5576 1.86104,2.1806 0.15508,0.4673 0,0.623 0.15508,1.7133 0.31017,1.4018 1.24069,2.8036 2.48138,3.5823 1.39577,0.9346 2.63646,1.5576 4.34241,1.0903 0.93051,-0.3115 1.86103,-0.9345 1.39577,-2.0248 -0.46526,-1.0903 -2.1712,0 -3.2568,-0.3115 -1.08561,-0.4672 -2.3263,-2.0248 -2.3263,-3.2708 l 0.62035,-2.1806 c -1.70595,-0.623 -3.72207,-2.0248 -4.4975,-3.7381 -0.46525,-1.0903 -0.46525,-2.6478 -1.24068,-3.4266 -1.39578,-1.0903 -3.25681,-0.1557 -3.72207,1.4018 z"
         id="selection_x5F_to_x5F_path_x23_2"
         inkscape:connector-curvature="0"
         style="fill:#ffffff;stroke:none;stroke-width:0.70476186" />
      <path
         d="m 668.74144,633.44709 c 0.46526,0.6231 0.77543,0.7788 1.39577,1.0903 2.17121,1.2461 3.56698,0.3115 5.73819,-0.1557 l 4.49749,-1.4018 c -0.59553,-0.4019 -1.92616,-1.2383 -2.48137,-1.5576 l -2.94664,0.7788 -6.20344,1.246 z"
         id="path758"
         inkscape:connector-curvature="0"
         style="fill:#ffffff;stroke:none;stroke-width:0.70476186" />
      <path
         d="m 670.91265,637.96399 c 4.03223,0 7.7543,-1.246 11.63145,-2.1805 0,0 1.70595,-0.8109 2.27604,-0.8109 -0.53815,-0.3939 -2.73292,-1.1896 -3.07629,-1.5005 -0.46525,0.1386 -2.30147,0.7538 -2.92182,0.9096 l -3.87715,1.0903 -1.86103,0.4672 c -1.0856,0.4673 -1.86103,0.623 -2.1712,2.0248 z"
         id="path759"
         inkscape:connector-curvature="0"
         style="fill:#ffffff;stroke:none;stroke-width:0.70476186" />
      <ellipse
         style="fill:none;stroke:#ffffff;stroke-width:2.19068027"
         cx="686.62482"
         cy="586.92572"
         id="circle3807"
         rx="16.714401"
         ry="16.786434" />
      <path
         style="fill:#ffffff"
         inkscape:connector-curvature="0"
         d="m 686.48828,576.43421 c -4.95019,0 -9.09781,3.46258 -10.17333,8.10702 l 4.99175,0 c 0.90074,-1.96998 2.88305,-3.33813 5.18158,-3.33813 3.14546,0 5.69817,2.56372 5.69817,5.72257 0,3.15886 -2.55271,5.72273 -5.69817,5.72273 -2.29853,0 -4.28099,-1.3683 -5.18158,-3.33828 l -4.99175,0 c 1.07552,4.64444 5.22314,8.10702 10.17333,8.10702 5.76657,0 10.44644,-4.70021 10.44644,-10.49147 0,-5.79126 -4.68003,-10.49146 -10.44644,-10.49146 z"
         id="path3809" />
      <g
         inkscape:export-ydpi="149"
         inkscape:export-xdpi="149"
         inkscape:export-filename="/srv/http/kiwwwi.com.ar/pastes/utopia-pirata-2.png"
         id="text3059"
         style="font-style:normal;font-weight:normal;font-size:121.8484726px;line-height:125%;font-family:'Bitstream Vera Sans';letter-spacing:0px;word-spacing:0px;fill:#ffffff;fill-opacity:1;stroke:none"
         transform="matrix(-0.16596478,0.04466179,-0.04447013,-0.16668006,449.38576,356.37538)">
        <g
           transform="matrix(0.99707364,-0.07644708,0.07644708,0.99707364,125.06749,-81.555005)"
           id="g3922">
          <circle
             r="127.27922"
             cy="-1543.7299"
             cx="-1311.178"
             transform="matrix(-0.8718552,-0.2336129,0.2336129,-0.8718552,-1786.4657,-3244.8873)"
             id="path3865"
             style="fill:none;stroke:none"
             inkscape:export-filename="/srv/http/kiwwwi.com.ar/pastes/utopia-pirata-1.png"
             inkscape:export-xdpi="149"
             inkscape:export-ydpi="149" />
          <path
             d="m -778.04883,-1594.9487 -70.08465,-12.3215 c -3.57914,-0.7529 -6.69277,-2.0426 -9.22087,-3.848 -2.21027,-1.502 -4.19505,-3.583 -5.5732,-6.2996 -1.49816,-2.7377 -2.00858,-6.1679 -1.24904,-10.4881 0.75954,-4.3203 2.43037,-7.4907 4.77246,-9.5532 2.22209,-2.0837 4.77652,-3.243 7.36656,-3.9011 2.99226,-0.8348 6.35907,-0.9852 9.98041,-0.4723 l 70.08465,12.3215 -2.27862,12.9608 -70.08465,-12.3214 c -2.52017,-0.4431 -4.30577,-0.1384 -5.83684,0.8296 -0.70553,0.4946 -1.21325,1.2713 -1.40313,2.3514 -0.40087,2.2801 0.84934,3.6134 2.56507,4.4099 0.77676,0.5077 1.83573,0.8176 3.15582,1.0497 l 70.08465,12.3214 -2.27862,12.9609"
             style="font-style:normal;font-variant:normal;font-weight:normal;font-stretch:normal;font-family:'League Gothic';-inkscape-font-specification:'League Gothic';fill:#ffffff"
             id="path3897"
             inkscape:connector-curvature="0" />
          <path
             d="m -801.09593,-1568.8963 11.85811,6.5051 -18.28444,33.3309 -11.85812,-6.5051 5.97761,-10.8966 -66.66184,-36.5689 6.32923,-11.5376 66.66184,36.5689 5.97761,-10.8967"
             style="font-style:normal;font-variant:normal;font-weight:normal;font-stretch:normal;font-family:'League Gothic';-inkscape-font-specification:'League Gothic';fill:#ffffff"
             id="path3899"
             inkscape:connector-curvature="0" />
          <path
             d="m -902.22684,-1531.2768 c -2.40064,-2.7594 -4.10625,-5.6661 -5.0338,-8.6309 -0.857,-2.5312 -1.18494,-5.3882 -0.64563,-8.3863 0.45632,-3.0873 2.1181,-6.1311 5.32973,-9.1189 3.21164,-2.9879 6.45655,-4.5088 9.56871,-4.7413 3.02918,-0.3218 5.76585,0.2943 8.22867,1.3316 2.89022,1.139 5.66638,3.0497 8.24545,5.6431 l 35.93698,38.6289 c 2.31765,2.6701 4.02326,5.5768 4.95082,8.5417 0.85699,2.5312 1.35714,5.3944 0.81783,8.3924 -0.53932,2.9981 -2.20731,6.2141 -5.41895,9.202 -3.21163,2.9878 -6.45032,4.3365 -9.47949,4.6583 -3.02918,0.3217 -5.93806,-0.3006 -8.40087,-1.3379 -2.89023,-1.1389 -5.66638,-3.0497 -8.16246,-5.5539 l -35.93699,-38.6288 m 45.57191,29.6653 c 1.65991,1.7843 3.1787,2.7013 5.06676,2.9419 0.86104,0.031 1.82372,-0.3653 2.62663,-1.1122 1.69503,-1.5769 1.33601,-3.5729 0.61392,-5.0646 -0.39633,-0.9627 -1.05407,-1.8486 -1.88403,-2.7407 l -35.93698,-38.6289 c -1.74291,-1.8735 -3.35091,-2.7075 -5.15597,-2.8588 -0.86104,-0.031 -1.73451,0.2822 -2.53742,1.0292 -1.69503,1.5769 -1.502,3.3944 -0.61392,5.0645 0.31333,0.8735 0.97108,1.7594 1.88402,2.7408 l 35.93699,38.6288"
             style="font-style:normal;font-variant:normal;font-weight:normal;font-stretch:normal;font-family:'League Gothic';-inkscape-font-specification:'League Gothic';fill:#ffffff"
             id="path3901"
             inkscape:connector-curvature="0" />
          <path
             d="m -886.59996,-1457.8116 -12.05827,5.2702 c -5.24757,2.2934 -11.08073,3.2471 -16.75926,1.2077 -5.67853,-2.0394 -11.09081,-7.1207 -15.18979,-16.4994 -4.09898,-9.3786 -4.10323,-16.6905 -1.74292,-22.2434 2.3603,-5.5528 6.92473,-9.4094 12.1723,-11.7029 l -14.34645,-32.8252 12.05826,-5.2702 35.86613,82.0632 m -28.21022,-31.6862 c -3.68447,1.6103 -5.73635,3.305 -6.2466,5.7886 -0.55905,2.372 0.42353,5.5329 2.42423,10.1106 2.00069,4.5777 3.75077,7.6692 5.96893,9.0933 2.21816,1.4242 4.95321,1.2926 8.63767,-0.3177 l -10.78423,-24.6748"
             style="font-style:normal;font-variant:normal;font-weight:normal;font-stretch:normal;font-family:'League Gothic';-inkscape-font-specification:'League Gothic';fill:#ffffff"
             id="path3903"
             inkscape:connector-curvature="0" />
          <path
             d="m -948.99443,-1436.6047 -13.00674,2.0001 -13.61231,-88.5181 13.00674,-2.0001 13.61231,88.5181"
             style="font-style:normal;font-variant:normal;font-weight:normal;font-stretch:normal;font-family:'League Gothic';-inkscape-font-specification:'League Gothic';fill:#ffffff"
             id="path3905"
             inkscape:connector-curvature="0" />
          <path
             d="m -981.75508,-1521.0222 -23.62102,87.4398 -15.9797,-1.8289 -3.2539,-90.5157 12.7111,1.4548 0.3429,18.4359 12.59007,1.4409 4.49944,-17.8816 12.71111,1.4548 m -29.02582,57.5093 0.1,2.3417 0.7264,0.083 0.6264,-2.2585 6.9672,-27.656 -8.9583,-1.0253 0.5384,28.515"
             style="font-style:normal;font-variant:normal;font-weight:normal;font-stretch:normal;font-family:'League Gothic';-inkscape-font-specification:'League Gothic';fill:#ffffff"
             id="path3907"
             inkscape:connector-curvature="0" />
          <path
             d="m -1099.1166,-1462.6292 -10.788,-7.5362 c -4.6948,-3.2797 -8.5522,-7.758 -9.7757,-13.6663 -1.2235,-5.9083 0.2868,-13.1768 6.1483,-21.5675 5.8615,-8.3906 12.0967,-12.2098 18.0653,-13.094 5.9685,-0.8841 11.6402,0.9971 16.335,4.2767 l 20.5152,-29.3674 10.7881,7.5362 -51.2882,73.4185 m 12.3091,-40.5995 c -3.2963,-2.3027 -5.8127,-3.1688 -8.1976,-2.308 -2.3152,0.7609 -4.4989,3.2485 -7.3599,7.344 -2.8609,4.0954 -4.5849,7.2016 -4.6423,9.8369 -0.057,2.6354 1.4821,4.8999 4.7784,7.2026 l 15.4214,-22.0755"
             style="font-style:normal;font-variant:normal;font-weight:normal;font-stretch:normal;font-family:'League Gothic';-inkscape-font-specification:'League Gothic';fill:#ffffff"
             id="path3909"
             inkscape:connector-curvature="0" />
          <path
             d="m -1149.6319,-1504.5948 -8.5195,-10.0296 68.2572,-57.9801 8.5196,10.0296 -68.2573,57.9801"
             style="font-style:normal;font-variant:normal;font-weight:normal;font-stretch:normal;font-family:'League Gothic';-inkscape-font-specification:'League Gothic';fill:#ffffff"
             id="path3911"
             inkscape:connector-curvature="0" />
          <path
             d="m -1106.4208,-1601.3444 -31.2348,22.3102 1.5099,3.1948 34.1507,-16.1412 5.6233,11.8977 -80.97,38.2701 -5.6234,-11.8977 c -6.7168,-14.211 -1.5386,-24.071 13.7741,-31.3085 8.0419,-3.8009 16.302,-5.1443 21.5214,-2.0855 l 35.6254,-26.1376 5.6234,11.8977 m -40.7412,30.7118 c -0.781,-1.6525 -2.0427,-3.7516 -4.4181,-4.7852 -2.3754,-1.0337 -6.0267,-1.06 -11.7551,1.6476 -5.7285,2.7075 -8.1362,5.5975 -8.8454,8.0891 -0.7092,2.4916 0.222,4.7469 1.003,6.3994 l 24.0156,-11.3509"
             style="font-style:normal;font-variant:normal;font-weight:normal;font-stretch:normal;font-family:'League Gothic';-inkscape-font-specification:'League Gothic';fill:#ffffff"
             id="path3913"
             inkscape:connector-curvature="0" />
          <path
             d="m -1113.2219,-1617.132 -90.458,-4.5863 -1.5934,-16.0049 87.7782,-22.331 1.2675,12.7311 -17.946,4.2357 1.2554,12.6099 18.4288,0.6143 1.2675,12.7312 m -62.3486,-16.2013 -2.2675,0.5931 0.072,0.7275 2.34,0.1344 28.504,0.9582 -0.8933,-8.9724 -27.7556,6.5592"
             style="font-style:normal;font-variant:normal;font-weight:normal;font-stretch:normal;font-family:'League Gothic';-inkscape-font-specification:'League Gothic';fill:#ffffff"
             id="path3915"
             inkscape:connector-curvature="0" />
          <path
             d="m -1191.1447,-1674.8241 -13.2316,-2.8027 7.8779,-37.1915 13.2316,2.8027 -2.5754,12.1588 74.383,15.7558 -2.727,12.874 -74.383,-15.7558 -2.5755,12.1587"
             style="font-style:normal;font-variant:normal;font-weight:normal;font-stretch:normal;font-family:'League Gothic';-inkscape-font-specification:'League Gothic';fill:#ffffff"
             id="path3917"
             inkscape:connector-curvature="0" />
          <path
             d="m -1109.3262,-1695.6338 -70.438,-56.94 8.1301,-13.8779 84.1114,33.5999 -6.4672,11.0393 -17.0021,-7.1361 -6.4056,10.9341 14.5385,11.3415 -6.4671,11.0392 m -40.876,-49.7893 -2.1823,-0.8549 -0.3696,0.6309 1.8128,1.4856 22.4821,17.5485 4.5578,-7.78 -26.3008,-11.0301"
             style="font-style:normal;font-variant:normal;font-weight:normal;font-stretch:normal;font-family:'League Gothic';-inkscape-font-specification:'League Gothic';fill:#ffffff"
             id="path3919"
             inkscape:connector-curvature="0" />
        </g>
      </g>
      <rect
         y="215.73137"
         x="19.246305"
         height="173.31082"
         width="744.09448"
         id="rect3035"
         style="fill:#ffffff" />
      <g
         transform="matrix(1.2338926,0,0,1.2338926,85.977683,-673.12144)"
         id="g3370">
        <g
           transform="translate(-0.25254936,-1.7019788)"
           style="font-style:normal;font-variant:normal;font-weight:normal;font-stretch:normal;font-size:40px;line-height:125%;font-family:'League Gothic';-inkscape-font-specification:'League Gothic';letter-spacing:0px;word-spacing:0px;fill:#000000;fill-opacity:1;stroke:none"
           id="text3025">
          <text
             xml:space="preserve"
             style="font-style:normal;font-variant:normal;font-weight:normal;font-stretch:normal;font-size:25.1960144px;line-height:125%;font-family:FontAwesome;-inkscape-font-specification:FontAwesome;text-align:end;letter-spacing:0px;word-spacing:0px;text-anchor:end;fill:#000000;fill-opacity:1;stroke:none;stroke-width:1px;stroke-linecap:butt;stroke-linejoin:miter;stroke-opacity:1"
             x="402.98987"
             y="765.41681"
             id="text3956-0-9"
             sodipodi:linespacing="125%"><tspan
               sodipodi:role="line"
               id="tspan3958-3-1"
               x="402.98987"
               y="765.41681"
               style="font-style:normal;font-variant:normal;font-weight:normal;font-stretch:normal;font-family:'League Gothic';-inkscape-font-specification:'League Gothic'">Murray Bookchin</tspan></text>
          <g
             id="g4062"
             transform="matrix(0.88293456,0,0,0.88293456,618.99045,-111.46169)">
            <text
               sodipodi:linespacing="125%"
               id="text3956-93"
               y="1061.0559"
               x="-112.6953"
               style="font-style:normal;font-variant:normal;font-weight:normal;font-stretch:normal;font-size:34.78445053px;line-height:125%;font-family:FontAwesome;-inkscape-font-specification:FontAwesome;text-align:end;letter-spacing:0px;word-spacing:0px;text-anchor:end;fill:#000000;fill-opacity:1;stroke:none;stroke-width:1px;stroke-linecap:butt;stroke-linejoin:miter;stroke-opacity:1"
               xml:space="preserve"><tspan
                 style="font-style:normal;font-variant:normal;font-weight:normal;font-stretch:normal;font-family:'League Gothic';-inkscape-font-specification:'League Gothic'"
                 y="1061.0559"
                 x="-112.6953"
                 id="tspan3958-38"
                 sodipodi:role="line">municipalismo libertario</tspan></text>
            <text
               sodipodi:linespacing="125%"
               id="text3956-05"
               y="1030.0476"
               x="-262.65433"
               style="font-style:normal;font-variant:normal;font-weight:normal;font-stretch:normal;font-size:27.05457115px;line-height:125%;font-family:FontAwesome;-inkscape-font-specification:FontAwesome;text-align:end;letter-spacing:0px;word-spacing:0px;text-anchor:end;fill:#000000;fill-opacity:1;stroke:none;stroke-width:1px;stroke-linecap:butt;stroke-linejoin:miter;stroke-opacity:1"
               xml:space="preserve"><tspan
                 style="font-style:normal;font-variant:normal;font-weight:normal;font-stretch:normal;font-family:'League Gothic';-inkscape-font-specification:'League Gothic'"
                 y="1030.0476"
                 x="-262.65433"
                 id="tspan3958-66"
                 sodipodi:role="line">tesis sobre</tspan></text>
            <text
               sodipodi:linespacing="125%"
               id="text3956-9-0"
               y="1066.9836"
               x="-350.28336"
               style="font-style:normal;font-variant:normal;font-weight:normal;font-stretch:normal;font-size:76.47535706px;line-height:125%;font-family:FontAwesome;-inkscape-font-specification:FontAwesome;text-align:end;letter-spacing:0px;word-spacing:0px;text-anchor:end;fill:#000000;fill-opacity:1;stroke:none;stroke-width:1px;stroke-linecap:butt;stroke-linejoin:miter;stroke-opacity:1"
               xml:space="preserve"><tspan
                 style="font-style:normal;font-variant:normal;font-weight:normal;font-stretch:normal;font-family:'League Gothic';-inkscape-font-specification:'League Gothic'"
                 y="1066.9836"
                 x="-350.28336"
                 id="tspan3958-6-4"
                 sodipodi:role="line">6</tspan></text>
          </g>
        </g>
      </g>
      <g
         transform="matrix(1.1747273,0,0,1.1747273,140.84459,-617.96087)"
         id="g3234">
        <g
           transform="matrix(0.83569431,0,0,0.83569431,2.5280846,126.85728)"
           id="g3341">
          <path
             style="font-style:normal;font-variant:normal;font-weight:normal;font-stretch:normal;font-size:22.97203255px;line-height:125%;font-family:'League Gothic';-inkscape-font-specification:'League Gothic';letter-spacing:0px;word-spacing:0px;fill:#000000;fill-opacity:1;stroke:none"
             inkscape:connector-curvature="0"
             d="m 15.386466,767.76245 2.32188,0 0,-9.90444 c 0.04486,-0.0748 0.112165,-0.17198 0.201903,-0.29164 0.201899,-0.20189 0.385107,-0.30284 0.549624,-0.30285 0.373889,10e-6 0.560836,0.18322 0.56084,0.54962 l 0,9.94931 2.310664,0 0,-10.29703 c -7e-6,-0.6057 -0.138348,-1.14784 -0.415022,-1.62644 -0.336511,-0.55335 -0.777705,-0.83003 -1.323584,-0.83004 -0.201908,10e-6 -0.40381,0.0561 -0.605708,0.16825 -0.276686,0.14957 -0.61319,0.42251 -1.009513,0.81883 -0.164517,0.16452 -0.254251,0.25052 -0.269204,0.25798 l 0,-5.37285 -2.32188,0 0,16.8813"
             id="path3155" />
          <path
             style="font-style:normal;font-variant:normal;font-weight:normal;font-stretch:normal;font-size:22.97203255px;line-height:125%;font-family:'League Gothic';-inkscape-font-specification:'League Gothic';letter-spacing:0px;word-spacing:0px;fill:#000000;fill-opacity:1;stroke:none"
             inkscape:connector-curvature="0"
             d="m 22.453058,757.28595 1.177765,0 0,6.43845 c -1e-6,1.1516 0.115906,2.03772 0.347722,2.65839 0.388847,1.03942 1.159067,1.55913 2.310663,1.55913 0.373889,0 0.673004,-0.0224 0.897345,-0.0673 0.03739,-0.007 0.09347,-0.0224 0.168252,-0.0449 0.08225,-0.0224 0.142075,-0.0374 0.179469,-0.0449 l 0,-2.27702 c -0.02992,0.007 -0.07478,0.015 -0.134601,0.0224 -0.05983,0.007 -0.104696,0.015 -0.134602,0.0224 -0.209386,0.0299 -0.40381,0.0449 -0.583274,0.0449 -0.321553,0 -0.534672,-0.25051 -0.639359,-0.75153 -0.05983,-0.27668 -0.08974,-0.71413 -0.08973,-1.31236 l 0,-6.24777 1.58157,0 0,-2.08633 -1.58157,0 0,-3.10705 -2.321881,0 0,3.10705 -1.177765,0 0,2.08633"
             id="path3157" />
          <path
             style="font-style:normal;font-variant:normal;font-weight:normal;font-stretch:normal;font-size:22.97203255px;line-height:125%;font-family:'League Gothic';-inkscape-font-specification:'League Gothic';letter-spacing:0px;word-spacing:0px;fill:#000000;fill-opacity:1;stroke:none"
             inkscape:connector-curvature="0"
             d="m 28.061465,757.28595 1.177766,0 0,6.43845 c -2e-6,1.1516 0.115905,2.03772 0.347721,2.65839 0.388847,1.03942 1.159067,1.55913 2.310663,1.55913 0.373889,0 0.673004,-0.0224 0.897345,-0.0673 0.03739,-0.007 0.09347,-0.0224 0.168252,-0.0449 0.08225,-0.0224 0.142075,-0.0374 0.179469,-0.0449 l 0,-2.27702 c -0.02992,0.007 -0.07478,0.015 -0.134601,0.0224 -0.05983,0.007 -0.104696,0.015 -0.134602,0.0224 -0.209385,0.0299 -0.40381,0.0449 -0.583274,0.0449 -0.321553,0 -0.534672,-0.25051 -0.639359,-0.75153 -0.05983,-0.27668 -0.08974,-0.71413 -0.08973,-1.31236 l 0,-6.24777 1.58157,0 0,-2.08633 -1.58157,0 0,-3.10705 -2.32188,0 0,3.10705 -1.177766,0 0,2.08633"
             id="path3159" />
          <path
             style="font-style:normal;font-variant:normal;font-weight:normal;font-stretch:normal;font-size:22.97203255px;line-height:125%;font-family:'League Gothic';-inkscape-font-specification:'League Gothic';letter-spacing:0px;word-spacing:0px;fill:#000000;fill-opacity:1;stroke:none"
             inkscape:connector-curvature="0"
             d="m 34.365314,772.08093 2.32188,0 0,-5.14852 c 0.254244,0.22434 0.452408,0.39259 0.594491,0.50476 0.456146,0.3365 0.871168,0.50475 1.245066,0.50475 0.560835,0 1.016985,-0.28042 1.368451,-0.84126 0.276675,-0.45615 0.415016,-0.99455 0.415022,-1.61522 l 0,-8.02002 c -6e-6,-0.6057 -0.138347,-1.14784 -0.415022,-1.62644 -0.366422,-0.55335 -0.822572,-0.83003 -1.368451,-0.83004 -0.231819,10e-6 -0.448677,0.0561 -0.650575,0.16825 -0.373898,0.16453 -0.770225,0.44495 -1.188982,0.84126 l 0,-0.81883 -2.32188,0 0,16.88131 m 2.32188,-7.07781 0,-7.04416 c -3e-6,-0.21685 0.0673,-0.39632 0.201902,-0.53841 0.142077,-0.14954 0.302851,-0.22432 0.482323,-0.22433 0.171987,10e-6 0.317806,0.0748 0.437456,0.22433 0.12712,0.14209 0.190681,0.32156 0.190686,0.53841 l 0,7.04416 c -5e-6,0.21686 -0.06357,0.40007 -0.190686,0.54962 -0.11965,0.14208 -0.265469,0.21312 -0.437456,0.21312 -0.171994,0 -0.32903,-0.0785 -0.471106,-0.23555 -0.142083,-0.16451 -0.213122,-0.34024 -0.213119,-0.52719"
             id="path3161" />
          <path
             style="font-style:normal;font-variant:normal;font-weight:normal;font-stretch:normal;font-size:22.97203255px;line-height:125%;font-family:'League Gothic';-inkscape-font-specification:'League Gothic';letter-spacing:0px;word-spacing:0px;fill:#000000;fill-opacity:1;stroke:none"
             inkscape:connector-curvature="0"
             d="m 41.992746,767.76245 2.411615,0 0,-2.54621 -2.411615,0 0,2.54621 m 0,-10.01661 2.411615,0 0,-2.54622 -2.411615,0 0,2.54622"
             id="path3163" />
          <path
             style="font-style:normal;font-variant:normal;font-weight:normal;font-stretch:normal;font-size:22.97203255px;line-height:125%;font-family:'League Gothic';-inkscape-font-specification:'League Gothic';letter-spacing:0px;word-spacing:0px;fill:#000000;fill-opacity:1;stroke:none"
             inkscape:connector-curvature="0"
             d="m 45.335356,769.41133 1.884425,0 6.023428,-18.53018 -1.817123,0 -6.09073,18.53018"
             id="path3165" />
          <path
             style="font-style:normal;font-variant:normal;font-weight:normal;font-stretch:normal;font-size:22.97203255px;line-height:125%;font-family:'League Gothic';-inkscape-font-specification:'League Gothic';letter-spacing:0px;word-spacing:0px;fill:#000000;fill-opacity:1;stroke:none"
             inkscape:connector-curvature="0"
             d="m 53.411463,769.41133 1.884425,0 6.023428,-18.53018 -1.817123,0 -6.09073,18.53018"
             id="path3167" />
          <path
             style="font-style:normal;font-variant:normal;font-weight:normal;font-stretch:normal;font-size:22.97203255px;line-height:125%;font-family:'League Gothic';-inkscape-font-specification:'League Gothic';letter-spacing:0px;word-spacing:0px;fill:#000000;fill-opacity:1;stroke:none"
             inkscape:connector-curvature="0"
             d="m 62.317611,772.08093 2.32188,0 0,-5.14852 c 0.254244,0.22434 0.452408,0.39259 0.594491,0.50476 0.456146,0.3365 0.871168,0.50475 1.245066,0.50475 0.560835,0 1.016985,-0.28042 1.368452,-0.84126 0.276674,-0.45615 0.415015,-0.99455 0.415022,-1.61522 l 0,-8.02002 c -7e-6,-0.6057 -0.138348,-1.14784 -0.415022,-1.62644 -0.366422,-0.55335 -0.822572,-0.83003 -1.368452,-0.83004 -0.231819,10e-6 -0.448677,0.0561 -0.650575,0.16825 -0.373898,0.16453 -0.770225,0.44495 -1.188982,0.84126 l 0,-0.81883 -2.32188,0 0,16.88131 m 2.32188,-7.07781 0,-7.04416 c -3e-6,-0.21685 0.0673,-0.39632 0.201903,-0.53841 0.142076,-0.14954 0.30285,-0.22432 0.482323,-0.22433 0.171987,10e-6 0.317805,0.0748 0.437455,0.22433 0.12712,0.14209 0.190682,0.32156 0.190686,0.53841 l 0,7.04416 c -4e-6,0.21686 -0.06357,0.40007 -0.190686,0.54962 -0.11965,0.14208 -0.265468,0.21312 -0.437455,0.21312 -0.171995,0 -0.32903,-0.0785 -0.471106,-0.23555 -0.142083,-0.16451 -0.213123,-0.34024 -0.21312,-0.52719"
             id="path3169" />
          <path
             style="font-style:normal;font-variant:normal;font-weight:normal;font-stretch:normal;font-size:22.97203255px;line-height:125%;font-family:'League Gothic';-inkscape-font-specification:'League Gothic';letter-spacing:0px;word-spacing:0px;fill:#000000;fill-opacity:1;stroke:none"
             inkscape:connector-curvature="0"
             d="m 69.664623,764.84608 c -1e-6,1.1516 0.239291,1.99286 0.717876,2.52379 0.306591,0.38137 0.687962,0.57205 1.144115,0.57205 0.448669,0 0.856213,-0.14582 1.222632,-0.43745 0.261722,-0.20938 0.474841,-0.45989 0.639359,-0.75153 l 0.157035,0 c -4e-6,0.49354 0.07103,0.83004 0.21312,1.00951 l 2.265796,0 c -0.104697,-0.64309 -0.157042,-1.37219 -0.157036,-2.18727 l 0,-7.71717 c -6e-6,-0.81508 -0.284165,-1.49557 -0.852477,-2.04146 -0.560846,-0.5384 -1.218899,-0.8076 -1.974159,-0.80761 -0.897348,10e-6 -1.637657,0.32904 -2.220929,0.98708 -0.598231,0.67302 -0.897346,1.46193 -0.897345,2.36674 l 0,0.52719 2.32188,0 0,-0.59449 c -3e-6,-0.15702 0.01495,-0.35519 0.04487,-0.59449 0.08225,-0.44118 0.287895,-0.66178 0.616925,-0.66179 0.276677,10e-6 0.467363,0.12714 0.572057,0.38137 0.04486,0.14957 0.0673,0.40382 0.0673,0.76275 l 0,1.37966 c -0.01496,0.0374 -0.03366,0.0748 -0.05608,0.11217 -0.02244,0.0299 -0.05609,0.0636 -0.100951,0.10095 -0.04487,0.0374 -0.08974,0.0711 -0.134602,0.10095 -0.03739,0.0224 -0.09348,0.0561 -0.168252,0.10096 -0.07478,0.0374 -0.138345,0.071 -0.190686,0.10095 -0.04487,0.0224 -0.11965,0.0598 -0.224336,0.11216 -0.09722,0.0524 -0.171995,0.0935 -0.224337,0.12339 -0.777701,0.41129 -1.383408,0.88613 -1.817123,1.42454 -0.643098,0.80013 -0.964647,1.83582 -0.964646,3.10705 m 2.277013,-0.34772 c -3e-6,-0.62814 0.13086,-1.19272 0.392588,-1.69374 0.2692,-0.50849 0.673005,-0.87864 1.211416,-1.11046 l 0,3.21922 c -4e-6,0.21686 -0.09348,0.40007 -0.28042,0.54963 -0.186951,0.14208 -0.415026,0.21312 -0.684226,0.21312 -0.246773,0 -0.422503,-0.16078 -0.52719,-0.48233 -0.07478,-0.21685 -0.112171,-0.44867 -0.112168,-0.69544"
             id="path3171" />
          <path
             style="font-style:normal;font-variant:normal;font-weight:normal;font-stretch:normal;font-size:22.97203255px;line-height:125%;font-family:'League Gothic';-inkscape-font-specification:'League Gothic';letter-spacing:0px;word-spacing:0px;fill:#000000;fill-opacity:1;stroke:none"
             inkscape:connector-curvature="0"
             d="m 77.437873,767.76245 2.32188,0 0,-8.72668 c -3e-6,-0.48605 0.168249,-0.87116 0.504757,-1.15533 0.269199,-0.25424 0.658048,-0.38136 1.166548,-0.38137 0.254243,1e-5 0.471101,0.0299 0.650575,0.0897 l 0,-2.57986 c -0.702925,10e-6 -1.293676,0.22435 -1.772256,0.67301 -0.164517,0.16452 -0.29538,0.33277 -0.392588,0.50475 -0.08974,0.17201 -0.142083,0.31035 -0.157036,0.41502 l 0,-1.4021 -2.32188,0 0,12.56283"
             id="path3173" />
          <path
             style="font-style:normal;font-variant:normal;font-weight:normal;font-stretch:normal;font-size:22.97203255px;line-height:125%;font-family:'League Gothic';-inkscape-font-specification:'League Gothic';letter-spacing:0px;word-spacing:0px;fill:#000000;fill-opacity:1;stroke:none"
             inkscape:connector-curvature="0"
             d="m 82.395705,757.28595 1.177765,0 0,6.43845 c -10e-7,1.1516 0.115906,2.03772 0.347722,2.65839 0.388847,1.03942 1.159067,1.55913 2.310663,1.55913 0.373889,0 0.673004,-0.0224 0.897345,-0.0673 0.03738,-0.007 0.09347,-0.0224 0.168252,-0.0449 0.08225,-0.0224 0.142075,-0.0374 0.179469,-0.0449 l 0,-2.27702 c -0.02992,0.007 -0.07478,0.015 -0.134601,0.0224 -0.05983,0.007 -0.104696,0.015 -0.134602,0.0224 -0.209386,0.0299 -0.40381,0.0449 -0.583274,0.0449 -0.321553,0 -0.534672,-0.25051 -0.639359,-0.75153 -0.05983,-0.27668 -0.08974,-0.71413 -0.08973,-1.31236 l 0,-6.24777 1.58157,0 0,-2.08633 -1.58157,0 0,-3.10705 -2.321881,0 0,3.10705 -1.177765,0 0,2.08633"
             id="path3175" />
          <path
             style="font-style:normal;font-variant:normal;font-weight:normal;font-stretch:normal;font-size:22.97203255px;line-height:125%;font-family:'League Gothic';-inkscape-font-specification:'League Gothic';letter-spacing:0px;word-spacing:0px;fill:#000000;fill-opacity:1;stroke:none"
             inkscape:connector-curvature="0"
             d="m 88.699554,767.76245 2.32188,0 0,-12.56283 -2.32188,0 0,12.56283 m 0,-14.55942 2.32188,0 0,-2.32188 -2.32188,0 0,2.32188"
             id="path3177" />
          <path
             style="font-style:normal;font-variant:normal;font-weight:normal;font-stretch:normal;font-size:22.97203255px;line-height:125%;font-family:'League Gothic';-inkscape-font-specification:'League Gothic';letter-spacing:0px;word-spacing:0px;fill:#000000;fill-opacity:1;stroke:none"
             inkscape:connector-curvature="0"
             d="m 92.782472,765.48544 c -10e-7,0.63562 0.145818,1.17403 0.437456,1.61522 0.329025,0.56084 0.777697,0.84126 1.346018,0.84126 0.239289,0 0.463625,-0.0523 0.673008,-0.15703 0.343979,-0.15704 0.732828,-0.4412 1.166549,-0.85248 l 0,0.83004 2.32188,0 0,-16.8813 -2.32188,0 0,5.1373 c -0.254252,-0.22432 -0.452416,-0.39258 -0.594491,-0.50476 -0.456154,-0.33649 -0.871176,-0.50474 -1.245066,-0.50475 -0.560843,10e-6 -1.009515,0.27669 -1.346018,0.83004 -0.291638,0.46364 -0.437457,1.00579 -0.437456,1.62644 l 0,8.02002 m 2.321881,-0.48232 0,-7.04416 c -4e-6,-0.21685 0.05982,-0.39632 0.179469,-0.53841 0.119642,-0.14954 0.265461,-0.22432 0.437455,-0.22433 0.171987,10e-6 0.329023,0.0823 0.471106,0.24677 0.142076,0.15704 0.213115,0.32903 0.21312,0.51597 l 0,7.04416 c -5e-6,0.21686 -0.07104,0.40007 -0.21312,0.54962 -0.134605,0.14208 -0.291641,0.21312 -0.471106,0.21312 -0.171994,0 -0.317813,-0.071 -0.437455,-0.21312 -0.11965,-0.14955 -0.179473,-0.33276 -0.179469,-0.54962"
             id="path3179" />
          <path
             style="font-style:normal;font-variant:normal;font-weight:normal;font-stretch:normal;font-size:22.97203255px;line-height:125%;font-family:'League Gothic';-inkscape-font-specification:'League Gothic';letter-spacing:0px;word-spacing:0px;fill:#000000;fill-opacity:1;stroke:none"
             inkscape:connector-curvature="0"
             d="m 100.37626,764.63296 c 0.0224,0.56832 0.14582,1.12169 0.37015,1.66009 0.49354,1.09925 1.36098,1.64887 2.60231,1.64887 0.75526,0 1.33479,-0.16825 1.7386,-0.50475 0.4038,-0.32903 0.70292,-0.7104 0.89735,-1.14412 0.19441,-0.44119 0.31032,-0.96838 0.34772,-1.58157 l 0,-6.46088 c -0.0224,-0.53092 -0.14583,-1.06559 -0.37016,-1.60401 -0.50102,-1.09176 -1.37219,-1.63764 -2.61351,-1.63765 -0.77023,10e-6 -1.34602,0.16826 -1.72739,0.50475 -0.76275,0.64311 -1.17777,1.57785 -1.24507,2.80421 l 0,6.31506 m 2.18728,0 0,-6.31506 c -0.007,-0.0598 -0.0112,-0.11964 -0.0112,-0.17947 0,-0.17198 0.0262,-0.32528 0.0785,-0.45989 0.11216,-0.42623 0.35146,-0.63935 0.71788,-0.63936 0.21685,10e-6 0.3851,0.0598 0.50475,0.17947 0.19442,0.24678 0.29163,0.57207 0.29164,0.97586 -1e-5,0.0449 -1e-5,0.086 0,0.12339 l 0,6.31506 c 0.007,0.0598 0.0112,0.11965 0.0112,0.17947 -1e-5,0.17947 -0.0262,0.33651 -0.0785,0.47111 -0.1047,0.41128 -0.34773,0.61692 -0.72909,0.61692 -0.20191,0 -0.36268,-0.0598 -0.48233,-0.17947 -0.2019,-0.26172 -0.30285,-0.58327 -0.30285,-0.96464 0,-0.0449 0,-0.086 0,-0.12339"
             id="path3181" />
          <path
             style="font-style:normal;font-variant:normal;font-weight:normal;font-stretch:normal;font-size:22.97203255px;line-height:125%;font-family:'League Gothic';-inkscape-font-specification:'League Gothic';letter-spacing:0px;word-spacing:0px;fill:#000000;fill-opacity:1;stroke:none"
             inkscape:connector-curvature="0"
             d="m 107.94761,772.08093 2.32188,0 0,-5.14852 c 0.25424,0.22434 0.45241,0.39259 0.59449,0.50476 0.45615,0.3365 0.87117,0.50475 1.24507,0.50475 0.56083,0 1.01698,-0.28042 1.36845,-0.84126 0.27667,-0.45615 0.41501,-0.99455 0.41502,-1.61522 l 0,-8.02002 c -1e-5,-0.6057 -0.13835,-1.14784 -0.41502,-1.62644 -0.36642,-0.55335 -0.82257,-0.83003 -1.36845,-0.83004 -0.23182,10e-6 -0.44868,0.0561 -0.65058,0.16825 -0.3739,0.16453 -0.77022,0.44495 -1.18898,0.84126 l 0,-0.81883 -2.32188,0 0,16.88131 m 2.32188,-7.07781 0,-7.04416 c 0,-0.21685 0.0673,-0.39632 0.2019,-0.53841 0.14208,-0.14954 0.30285,-0.22432 0.48233,-0.22433 0.17198,10e-6 0.3178,0.0748 0.43745,0.22433 0.12712,0.14209 0.19068,0.32156 0.19069,0.53841 l 0,7.04416 c -1e-5,0.21686 -0.0636,0.40007 -0.19069,0.54962 -0.11965,0.14208 -0.26547,0.21312 -0.43745,0.21312 -0.172,0 -0.32903,-0.0785 -0.47111,-0.23555 -0.14208,-0.16451 -0.21312,-0.34024 -0.21312,-0.52719"
             id="path3183" />
          <path
             style="font-style:normal;font-variant:normal;font-weight:normal;font-stretch:normal;font-size:22.97203255px;line-height:125%;font-family:'League Gothic';-inkscape-font-specification:'League Gothic';letter-spacing:0px;word-spacing:0px;fill:#000000;fill-opacity:1;stroke:none"
             inkscape:connector-curvature="0"
             d="m 115.66477,767.76245 2.32188,0 0,-12.56283 -2.32188,0 0,12.56283 m 0,-14.55942 2.32188,0 0,-2.32188 -2.32188,0 0,2.32188"
             id="path3185" />
          <path
             style="font-style:normal;font-variant:normal;font-weight:normal;font-stretch:normal;font-size:22.97203255px;line-height:125%;font-family:'League Gothic';-inkscape-font-specification:'League Gothic';letter-spacing:0px;word-spacing:0px;fill:#000000;fill-opacity:1;stroke:none"
             inkscape:connector-curvature="0"
             d="m 119.83743,767.76245 2.32188,0 0,-8.72668 c -1e-5,-0.48605 0.16825,-0.87116 0.50475,-1.15533 0.2692,-0.25424 0.65805,-0.38136 1.16655,-0.38137 0.25424,1e-5 0.4711,0.0299 0.65058,0.0897 l 0,-2.57986 c -0.70293,10e-6 -1.29368,0.22435 -1.77226,0.67301 -0.16452,0.16452 -0.29538,0.33277 -0.39259,0.50475 -0.0897,0.17201 -0.14208,0.31035 -0.15703,0.41502 l 0,-1.4021 -2.32188,0 0,12.56283"
             id="path3187" />
          <path
             style="font-style:normal;font-variant:normal;font-weight:normal;font-stretch:normal;font-size:22.97203255px;line-height:125%;font-family:'League Gothic';-inkscape-font-specification:'League Gothic';letter-spacing:0px;word-spacing:0px;fill:#000000;fill-opacity:1;stroke:none"
             inkscape:connector-curvature="0"
             d="m 125.12055,764.84608 c 0,1.1516 0.23929,1.99286 0.71787,2.52379 0.30659,0.38137 0.68796,0.57205 1.14412,0.57205 0.44867,0 0.85621,-0.14582 1.22263,-0.43745 0.26172,-0.20938 0.47484,-0.45989 0.63936,-0.75153 l 0.15703,0 c 0,0.49354 0.071,0.83004 0.21312,1.00951 l 2.2658,0 c -0.1047,-0.64309 -0.15704,-1.37219 -0.15704,-2.18727 l 0,-7.71717 c 0,-0.81508 -0.28416,-1.49557 -0.85247,-2.04146 -0.56085,-0.5384 -1.2189,-0.8076 -1.97416,-0.80761 -0.89735,10e-6 -1.63766,0.32904 -2.22093,0.98708 -0.59823,0.67302 -0.89735,1.46193 -0.89735,2.36674 l 0,0.52719 2.32188,0 0,-0.59449 c 0,-0.15702 0.015,-0.35519 0.0449,-0.59449 0.0823,-0.44118 0.2879,-0.66178 0.61692,-0.66179 0.27668,10e-6 0.46737,0.12714 0.57206,0.38137 0.0449,0.14957 0.0673,0.40382 0.0673,0.76275 l 0,1.37966 c -0.015,0.0374 -0.0336,0.0748 -0.0561,0.11217 -0.0224,0.0299 -0.0561,0.0636 -0.10095,0.10095 -0.0449,0.0374 -0.0897,0.0711 -0.1346,0.10095 -0.0374,0.0224 -0.0935,0.0561 -0.16826,0.10096 -0.0748,0.0374 -0.13834,0.071 -0.19068,0.10095 -0.0449,0.0224 -0.11965,0.0598 -0.22434,0.11216 -0.0972,0.0524 -0.17199,0.0935 -0.22433,0.12339 -0.77771,0.41129 -1.38341,0.88613 -1.81713,1.42454 -0.6431,0.80013 -0.96464,1.83582 -0.96464,3.10705 m 2.27701,-0.34772 c 0,-0.62814 0.13086,-1.19272 0.39259,-1.69374 0.2692,-0.50849 0.673,-0.87864 1.21141,-1.11046 l 0,3.21922 c 0,0.21686 -0.0935,0.40007 -0.28042,0.54963 -0.18695,0.14208 -0.41502,0.21312 -0.68422,0.21312 -0.24678,0 -0.42251,-0.16078 -0.52719,-0.48233 -0.0748,-0.21685 -0.11217,-0.44867 -0.11217,-0.69544"
             id="path3189" />
          <path
             style="font-style:normal;font-variant:normal;font-weight:normal;font-stretch:normal;font-size:22.97203255px;line-height:125%;font-family:'League Gothic';-inkscape-font-specification:'League Gothic';letter-spacing:0px;word-spacing:0px;fill:#000000;fill-opacity:1;stroke:none"
             inkscape:connector-curvature="0"
             d="m 132.19836,757.28595 1.17776,0 0,6.43845 c 0,1.1516 0.11591,2.03772 0.34772,2.65839 0.38885,1.03942 1.15907,1.55913 2.31067,1.55913 0.37389,0 0.673,-0.0224 0.89734,-0.0673 0.0374,-0.007 0.0935,-0.0224 0.16825,-0.0449 0.0823,-0.0224 0.14208,-0.0374 0.17947,-0.0449 l 0,-2.27702 c -0.0299,0.007 -0.0748,0.015 -0.1346,0.0224 -0.0598,0.007 -0.10469,0.015 -0.1346,0.0224 -0.20939,0.0299 -0.40381,0.0449 -0.58327,0.0449 -0.32156,0 -0.53468,-0.25051 -0.63936,-0.75153 -0.0598,-0.27668 -0.0897,-0.71413 -0.0897,-1.31236 l 0,-6.24777 1.58157,0 0,-2.08633 -1.58157,0 0,-3.10705 -2.32188,0 0,3.10705 -1.17776,0 0,2.08633"
             id="path3191" />
          <path
             style="font-style:normal;font-variant:normal;font-weight:normal;font-stretch:normal;font-size:22.97203255px;line-height:125%;font-family:'League Gothic';-inkscape-font-specification:'League Gothic';letter-spacing:0px;word-spacing:0px;fill:#000000;fill-opacity:1;stroke:none"
             inkscape:connector-curvature="0"
             d="m 138.13205,764.84608 c 0,1.1516 0.23929,1.99286 0.71788,2.52379 0.30659,0.38137 0.68796,0.57205 1.14411,0.57205 0.44867,0 0.85622,-0.14582 1.22263,-0.43745 0.26173,-0.20938 0.47485,-0.45989 0.63936,-0.75153 l 0.15704,0 c -1e-5,0.49354 0.071,0.83004 0.21312,1.00951 l 2.26579,0 c -0.10469,-0.64309 -0.15704,-1.37219 -0.15703,-2.18727 l 0,-7.71717 c -1e-5,-0.81508 -0.28417,-1.49557 -0.85248,-2.04146 -0.56085,-0.5384 -1.2189,-0.8076 -1.97416,-0.80761 -0.89735,10e-6 -1.63766,0.32904 -2.22093,0.98708 -0.59823,0.67302 -0.89734,1.46193 -0.89734,2.36674 l 0,0.52719 2.32188,0 0,-0.59449 c 0,-0.15702 0.0149,-0.35519 0.0449,-0.59449 0.0822,-0.44118 0.28789,-0.66178 0.61692,-0.66179 0.27668,10e-6 0.46736,0.12714 0.57206,0.38137 0.0449,0.14957 0.0673,0.40382 0.0673,0.76275 l 0,1.37966 c -0.015,0.0374 -0.0337,0.0748 -0.0561,0.11217 -0.0224,0.0299 -0.0561,0.0636 -0.10095,0.10095 -0.0449,0.0374 -0.0897,0.0711 -0.1346,0.10095 -0.0374,0.0224 -0.0935,0.0561 -0.16825,0.10096 -0.0748,0.0374 -0.13835,0.071 -0.19069,0.10095 -0.0449,0.0224 -0.11965,0.0598 -0.22433,0.11216 -0.0972,0.0524 -0.172,0.0935 -0.22434,0.12339 -0.7777,0.41129 -1.38341,0.88613 -1.81712,1.42454 -0.6431,0.80013 -0.96465,1.83582 -0.96465,3.10705 m 2.27701,-0.34772 c 0,-0.62814 0.13086,-1.19272 0.39259,-1.69374 0.2692,-0.50849 0.67301,-0.87864 1.21142,-1.11046 l 0,3.21922 c -1e-5,0.21686 -0.0935,0.40007 -0.28042,0.54963 -0.18695,0.14208 -0.41503,0.21312 -0.68423,0.21312 -0.24677,0 -0.4225,-0.16078 -0.52719,-0.48233 -0.0748,-0.21685 -0.11217,-0.44867 -0.11217,-0.69544"
             id="path3193" />
          <path
             style="font-style:normal;font-variant:normal;font-weight:normal;font-stretch:normal;font-size:22.97203255px;line-height:125%;font-family:'League Gothic';-inkscape-font-specification:'League Gothic';letter-spacing:0px;word-spacing:0px;fill:#000000;fill-opacity:1;stroke:none"
             inkscape:connector-curvature="0"
             d="m 145.58001,767.76245 2.41161,0 0,-2.54621 -2.41161,0 0,2.54621"
             id="path3195" />
          <path
             style="font-style:normal;font-variant:normal;font-weight:normal;font-stretch:normal;font-size:22.97203255px;line-height:125%;font-family:'League Gothic';-inkscape-font-specification:'League Gothic';letter-spacing:0px;word-spacing:0px;fill:#000000;fill-opacity:1;stroke:none"
             inkscape:connector-curvature="0"
             d="m 149.31521,764.22916 c 0,1.33854 0.28042,2.31066 0.84127,2.91637 0.48606,0.53093 1.19271,0.79639 2.11997,0.79639 1.01699,0 1.7573,-0.25051 2.22093,-0.75152 0.50849,-0.55337 0.76274,-1.50305 0.76275,-2.84907 l 0,-1.22264 -2.32189,0 0,1.74983 c 0,0.38885 -0.0449,0.65431 -0.1346,0.79639 -0.0897,0.14208 -0.26547,0.21312 -0.52719,0.21312 -0.19443,0 -0.34398,-0.0561 -0.44867,-0.16825 -0.0972,-0.11965 -0.15704,-0.23929 -0.17947,-0.35894 -0.015,-0.12712 -0.0224,-0.2879 -0.0224,-0.48232 l 0,-6.77496 c -1e-5,-0.19441 0.007,-0.35145 0.0224,-0.47111 0.0224,-0.12711 0.0822,-0.24675 0.17947,-0.35893 0.10469,-0.11964 0.25424,-0.17946 0.44867,-0.17947 0.26172,10e-6 0.43745,0.0711 0.52719,0.21312 0.0897,0.14209 0.1346,0.40755 0.1346,0.79639 l 0,1.51427 2.32189,0 0,-0.98708 c -1e-5,-1.34601 -0.25426,-2.2957 -0.76275,-2.84907 -0.46363,-0.50848 -1.20394,-0.76273 -2.22093,-0.76274 -0.91978,10e-6 -1.62644,0.26921 -2.11997,0.80761 -0.56085,0.60572 -0.84127,1.57784 -0.84127,2.91637 l 0,5.49624"
             id="path3197" />
          <path
             style="font-style:normal;font-variant:normal;font-weight:normal;font-stretch:normal;font-size:22.97203255px;line-height:125%;font-family:'League Gothic';-inkscape-font-specification:'League Gothic';letter-spacing:0px;word-spacing:0px;fill:#000000;fill-opacity:1;stroke:none"
             inkscape:connector-curvature="0"
             d="m 156.5052,764.63296 c 0.0224,0.56832 0.14581,1.12169 0.37015,1.66009 0.49354,1.09925 1.36097,1.64887 2.6023,1.64887 0.75526,0 1.3348,-0.16825 1.73861,-0.50475 0.4038,-0.32903 0.70291,-0.7104 0.89734,-1.14412 0.19442,-0.44119 0.31033,-0.96838 0.34772,-1.58157 l 0,-6.46088 c -0.0224,-0.53092 -0.14582,-1.06559 -0.37015,-1.60401 -0.50102,-1.09176 -1.3722,-1.63764 -2.61352,-1.63765 -0.77022,10e-6 -1.34602,0.16826 -1.72739,0.50475 -0.76274,0.64311 -1.17776,1.57785 -1.24506,2.80421 l 0,6.31506 m 2.18728,0 0,-6.31506 c -0.007,-0.0598 -0.0112,-0.11964 -0.0112,-0.17947 0,-0.17198 0.0262,-0.32528 0.0785,-0.45989 0.11216,-0.42623 0.35145,-0.63935 0.71787,-0.63936 0.21686,10e-6 0.38511,0.0598 0.50476,0.17947 0.19442,0.24678 0.29163,0.57207 0.29164,0.97586 -10e-6,0.0449 -10e-6,0.086 0,0.12339 l 0,6.31506 c 0.007,0.0598 0.0112,0.11965 0.0112,0.17947 0,0.17947 -0.0262,0.33651 -0.0785,0.47111 -0.1047,0.41128 -0.34773,0.61692 -0.7291,0.61692 -0.2019,0 -0.36268,-0.0598 -0.48232,-0.17947 -0.20191,-0.26172 -0.30286,-0.58327 -0.30285,-0.96464 -1e-5,-0.0449 -1e-5,-0.086 0,-0.12339"
             id="path3199" />
          <path
             style="font-style:normal;font-variant:normal;font-weight:normal;font-stretch:normal;font-size:22.97203255px;line-height:125%;font-family:'League Gothic';-inkscape-font-specification:'League Gothic';letter-spacing:0px;word-spacing:0px;fill:#000000;fill-opacity:1;stroke:none"
             inkscape:connector-curvature="0"
             d="m 164.07653,767.76245 2.32188,0 0,-9.90444 c 0.0449,-0.0748 0.12712,-0.17198 0.24677,-0.29164 0.2019,-0.20189 0.41128,-0.30284 0.62814,-0.30285 0.41128,10e-6 0.61692,0.18322 0.61693,0.54962 l 0,9.94931 2.17606,0 0,-9.90444 c 0.0299,-0.0598 0.1159,-0.15703 0.25799,-0.29164 0.20189,-0.20189 0.40753,-0.30284 0.61692,-0.30285 0.41875,10e-6 0.62813,0.18322 0.62814,0.54962 l 0,9.94931 2.17606,0 0,-10.29703 c -1e-5,-0.6057 -0.13835,-1.14784 -0.41502,-1.62644 -0.33651,-0.55335 -0.78145,-0.83003 -1.3348,-0.83004 -0.17948,10e-6 -0.38512,0.0636 -0.61692,0.19068 -0.45616,0.26922 -0.83005,0.56086 -1.12168,0.87491 -0.15705,0.15705 -0.28043,0.26922 -0.37016,0.33651 -0.32903,-0.93472 -0.84874,-1.40209 -1.55914,-1.4021 -0.19443,10e-6 -0.39259,0.0561 -0.59449,0.16825 -0.35894,0.19444 -0.71414,0.46738 -1.06559,0.81883 -0.16452,0.16452 -0.25426,0.25052 -0.26921,0.25798 l 0,-1.05438 -2.32188,0 0,12.56283"
             id="path3201" />
          <path
             style="font-style:normal;font-variant:normal;font-weight:normal;font-stretch:normal;font-size:22.97203255px;line-height:125%;font-family:'League Gothic';-inkscape-font-specification:'League Gothic';letter-spacing:0px;word-spacing:0px;fill:#000000;fill-opacity:1;stroke:none"
             inkscape:connector-curvature="0"
             d="m 175.19241,767.76245 2.41161,0 0,-2.54621 -2.41161,0 0,2.54621"
             id="path3203" />
          <path
             style="font-style:normal;font-variant:normal;font-weight:normal;font-stretch:normal;font-size:22.97203255px;line-height:125%;font-family:'League Gothic';-inkscape-font-specification:'League Gothic';letter-spacing:0px;word-spacing:0px;fill:#000000;fill-opacity:1;stroke:none"
             inkscape:connector-curvature="0"
             d="m 178.73691,764.84608 c 0,1.1516 0.23929,1.99286 0.71788,2.52379 0.30659,0.38137 0.68796,0.57205 1.14411,0.57205 0.44867,0 0.85621,-0.14582 1.22263,-0.43745 0.26172,-0.20938 0.47484,-0.45989 0.63936,-0.75153 l 0.15704,0 c -1e-5,0.49354 0.071,0.83004 0.21312,1.00951 l 2.26579,0 c -0.10469,-0.64309 -0.15704,-1.37219 -0.15703,-2.18727 l 0,-7.71717 c -1e-5,-0.81508 -0.28417,-1.49557 -0.85248,-2.04146 -0.56085,-0.5384 -1.2189,-0.8076 -1.97416,-0.80761 -0.89735,10e-6 -1.63766,0.32904 -2.22093,0.98708 -0.59823,0.67302 -0.89734,1.46193 -0.89734,2.36674 l 0,0.52719 2.32188,0 0,-0.59449 c -1e-5,-0.15702 0.0149,-0.35519 0.0449,-0.59449 0.0823,-0.44118 0.2879,-0.66178 0.61693,-0.66179 0.27668,10e-6 0.46736,0.12714 0.57206,0.38137 0.0449,0.14957 0.0673,0.40382 0.0673,0.76275 l 0,1.37966 c -0.015,0.0374 -0.0337,0.0748 -0.0561,0.11217 -0.0224,0.0299 -0.0561,0.0636 -0.10095,0.10095 -0.0449,0.0374 -0.0897,0.0711 -0.1346,0.10095 -0.0374,0.0224 -0.0935,0.0561 -0.16825,0.10096 -0.0748,0.0374 -0.13835,0.071 -0.19069,0.10095 -0.0449,0.0224 -0.11965,0.0598 -0.22433,0.11216 -0.0972,0.0524 -0.172,0.0935 -0.22434,0.12339 -0.7777,0.41129 -1.38341,0.88613 -1.81712,1.42454 -0.6431,0.80013 -0.96465,1.83582 -0.96465,3.10705 m 2.27701,-0.34772 c 0,-0.62814 0.13086,-1.19272 0.39259,-1.69374 0.2692,-0.50849 0.67301,-0.87864 1.21142,-1.11046 l 0,3.21922 c -1e-5,0.21686 -0.0935,0.40007 -0.28042,0.54963 -0.18695,0.14208 -0.41503,0.21312 -0.68423,0.21312 -0.24677,0 -0.4225,-0.16078 -0.52719,-0.48233 -0.0748,-0.21685 -0.11217,-0.44867 -0.11217,-0.69544"
             id="path3205" />
          <path
             style="font-style:normal;font-variant:normal;font-weight:normal;font-stretch:normal;font-size:22.97203255px;line-height:125%;font-family:'League Gothic';-inkscape-font-specification:'League Gothic';letter-spacing:0px;word-spacing:0px;fill:#000000;fill-opacity:1;stroke:none"
             inkscape:connector-curvature="0"
             d="m 186.51016,767.76245 2.32188,0 0,-8.72668 c -1e-5,-0.48605 0.16824,-0.87116 0.50475,-1.15533 0.2692,-0.25424 0.65805,-0.38136 1.16655,-0.38137 0.25424,1e-5 0.4711,0.0299 0.65058,0.0897 l 0,-2.57986 c -0.70293,10e-6 -1.29368,0.22435 -1.77226,0.67301 -0.16452,0.16452 -0.29538,0.33277 -0.39259,0.50475 -0.0897,0.17201 -0.14208,0.31035 -0.15703,0.41502 l 0,-1.4021 -2.32188,0 0,12.56283"
             id="path3207" />
        </g>
        <g
           transform="translate(0.02030509,-1.0295417)"
           style="font-style:normal;font-variant:normal;font-weight:normal;font-stretch:normal;font-size:40px;line-height:125%;font-family:'League Gothic';-inkscape-font-specification:'League Gothic';letter-spacing:0px;word-spacing:0px;fill:#000000;fill-opacity:1;stroke:none"
           id="text3150">
          <path
             inkscape:connector-curvature="0"
             d="m 15.133927,798.46985 c 0.03906,1.23698 0.279946,2.30469 0.722657,3.20312 0.390622,0.8724 0.950517,1.58855 1.679687,2.14844 0.820308,0.66406 1.940098,0.99609 3.359375,0.99609 1.393221,0 2.49999,-0.33203 3.320313,-0.99609 0.768217,-0.58594 1.341133,-1.30208 1.71875,-2.14844 0.442695,-0.89843 0.68358,-1.96614 0.722656,-3.20312 l 0,-23.35938 -4.316406,0 0,23.35938 c -9e-6,0.44271 -0.0586,0.80079 -0.175782,1.07422 -0.1823,0.71615 -0.605476,1.07422 -1.269531,1.07422 -0.351569,0 -0.631517,-0.10417 -0.839844,-0.3125 -0.403652,-0.46875 -0.605474,-1.08073 -0.605468,-1.83594 l 0,-23.35938 -4.316407,0 0,23.35938"
             id="path3210" />
          <path
             inkscape:connector-curvature="0"
             d="m 28.571427,786.26282 2.050782,0 0,11.21093 c -3e-6,2.00522 0.20182,3.54819 0.605468,4.62891 0.67708,1.8099 2.018224,2.71484 4.023438,2.71484 0.651034,0 1.171867,-0.0391 1.5625,-0.11718 0.06509,-0.013 0.162751,-0.0391 0.292969,-0.0781 0.14322,-0.0391 0.247386,-0.0651 0.3125,-0.0781 l 0,-3.96485 c -0.05209,0.013 -0.130218,0.0261 -0.234375,0.0391 -0.104176,0.013 -0.182301,0.026 -0.234375,0.0391 -0.364592,0.0521 -0.703133,0.0781 -1.015625,0.0781 -0.559903,10e-6 -0.930997,-0.43619 -1.113282,-1.30859 -0.104173,-0.48177 -0.156256,-1.24348 -0.15625,-2.28516 l 0,-10.8789 2.753907,0 0,-3.63282 -2.753907,0 0,-5.41015 -4.042968,0 0,5.41015 -2.050782,0 0,3.63282"
             id="path3212" />
          <path
             inkscape:connector-curvature="0"
             d="m 39.176896,799.05579 c 0.03906,0.98958 0.253905,1.95312 0.644531,2.89062 0.859373,1.91406 2.369788,2.87109 4.53125,2.87109 1.315097,0 2.32421,-0.29296 3.027344,-0.8789 0.703115,-0.57292 1.223948,-1.23698 1.5625,-1.99219 0.33853,-0.76822 0.540353,-1.68619 0.605469,-2.75391 l 0,-11.25 c -0.03907,-0.92446 -0.253918,-1.85545 -0.644531,-2.79296 -0.872406,-1.90102 -2.389332,-2.85154 -4.550782,-2.85157 -1.341151,3e-5 -2.343754,0.29299 -3.007812,0.87891 -1.328127,1.11981 -2.050783,2.74741 -2.167969,4.88281 l 0,10.9961 m 3.808594,0 0,-10.9961 c -0.01303,-0.10415 -0.01954,-0.20831 -0.01953,-0.3125 -5e-6,-0.29946 0.04557,-0.56639 0.136718,-0.80078 0.195307,-0.74217 0.611974,-1.11326 1.25,-1.11328 0.377598,2e-5 0.670566,0.10419 0.878907,0.3125 0.338534,0.42971 0.507804,0.99611 0.507812,1.69922 -8e-6,0.0781 -8e-6,0.14975 0,0.21484 l 0,10.9961 c 0.01301,0.10417 0.01952,0.20833 0.01953,0.3125 -7e-6,0.3125 -0.04558,0.58594 -0.136718,0.82031 -0.1823,0.71615 -0.605476,1.07422 -1.269532,1.07422 -0.351568,0 -0.631516,-0.10417 -0.839843,-0.3125 -0.351568,-0.45573 -0.527349,-1.01562 -0.527344,-1.67969 -5e-6,-0.0781 -5e-6,-0.14973 0,-0.21484"
             id="path3214" />
          <path
             inkscape:connector-curvature="0"
             d="m 52.36049,812.02454 4.042969,0 0,-8.96485 c 0.442702,0.39063 0.787754,0.6836 1.035156,0.87891 0.794263,0.58594 1.516919,0.8789 2.167969,0.8789 0.976552,0 1.770822,-0.48828 2.382812,-1.46484 0.481759,-0.79427 0.722644,-1.73177 0.722656,-2.8125 l 0,-13.96484 c -1.2e-5,-1.05467 -0.240897,-1.99868 -0.722656,-2.83203 -0.638031,-0.96352 -1.432301,-1.44529 -2.382812,-1.44532 -0.403655,3e-5 -0.781258,0.0977 -1.132813,0.29297 -0.651049,0.28648 -1.341152,0.77476 -2.070312,1.46485 l 0,-1.42579 -4.042969,0 0,29.39454 m 4.042969,-12.32422 0,-12.26563 c -6e-6,-0.37758 0.117181,-0.69008 0.351562,-0.9375 0.24739,-0.2604 0.527337,-0.3906 0.839844,-0.39062 0.299472,2e-5 0.553378,0.13022 0.761719,0.39062 0.221346,0.24742 0.332023,0.55992 0.332031,0.9375 l 0,12.26563 c -8e-6,0.37761 -0.110685,0.69662 -0.332031,0.95703 -0.208341,0.2474 -0.462247,0.3711 -0.761719,0.37109 -0.299486,10e-6 -0.572923,-0.13671 -0.820313,-0.41015 -0.247401,-0.28646 -0.371099,-0.59245 -0.371093,-0.91797"
             id="path3216" />
          <path
             inkscape:connector-curvature="0"
             d="m 65.79799,804.505 4.042969,0 0,-21.875 -4.042969,0 0,21.875 m 0,-25.48828 3.125,0 3.144531,-3.59375 -4.199219,0 -2.070312,3.59375"
             id="path3218" />
          <path
             inkscape:connector-curvature="0"
             d="m 72.419084,799.42688 c -10e-7,2.00521 0.416665,3.47005 1.25,4.39453 0.533851,0.66406 1.197913,0.99609 1.992187,0.99609 0.781245,0 1.49088,-0.2539 2.128906,-0.76171 0.455723,-0.36459 0.826816,-0.80078 1.113282,-1.3086 l 0.273437,0 c -8e-6,0.85938 0.12369,1.44532 0.371094,1.75781 l 3.945312,0 c -0.182303,-1.11979 -0.273449,-2.38932 -0.273437,-3.80859 l 0,-13.4375 c -1.2e-5,-1.41925 -0.494803,-2.60415 -1.484375,-3.55469 -0.976572,-0.93747 -2.122404,-1.40622 -3.4375,-1.40625 -1.562505,3e-5 -2.851567,0.57294 -3.867188,1.71875 -1.041668,1.1719 -1.562501,2.54559 -1.5625,4.1211 l 0,0.91797 4.042969,0 0,-1.03516 c -5e-6,-0.27342 0.02604,-0.61847 0.07813,-1.03516 0.143224,-0.76821 0.501296,-1.15232 1.074219,-1.15234 0.481764,2e-5 0.813795,0.22137 0.996094,0.66406 0.07812,0.26044 0.117179,0.70314 0.117187,1.32813 l 0,2.40234 c -0.02605,0.0651 -0.0586,0.13022 -0.09766,0.19531 -0.03907,0.0521 -0.09766,0.11069 -0.175781,0.17578 -0.07813,0.0651 -0.156258,0.12372 -0.234375,0.17579 -0.06511,0.0391 -0.162768,0.0977 -0.292969,0.17578 -0.130215,0.0651 -0.240892,0.12371 -0.332031,0.17578 -0.07813,0.0391 -0.20834,0.10418 -0.390625,0.19531 -0.169277,0.0912 -0.299485,0.16277 -0.390625,0.21484 -1.354172,0.71616 -2.408858,1.54299 -3.164063,2.48047 -1.119793,1.39324 -1.679688,3.19663 -1.679687,5.41016 m 3.964843,-0.60547 c -5e-6,-1.09374 0.22786,-2.07681 0.683594,-2.94922 0.468744,-0.8854 1.171868,-1.52994 2.109375,-1.93359 l 0,5.60547 c -8e-6,0.37761 -0.162768,0.69662 -0.488281,0.95703 -0.325528,0.2474 -0.722663,0.3711 -1.191406,0.37109 -0.429694,10e-6 -0.735683,-0.27994 -0.917969,-0.83984 -0.130213,-0.3776 -0.195318,-0.78125 -0.195313,-1.21094"
             id="path3220" />
          <path
             inkscape:connector-curvature="0"
             d="m 92.126115,804.505 4.316406,0 0,-11.75781 c 2.109367,10e-6 3.841139,-0.63801 5.195309,-1.91406 1.60155,-1.5104 2.40233,-3.8216 2.40235,-6.93359 -2e-5,-3.12498 -0.8008,-5.44269 -2.40235,-6.95313 -1.28907,-1.22393 -3.020838,-1.83591 -5.195309,-1.83594 l -4.316406,0 0,29.39453 m 4.316406,-16.15234 0,-8.84766 c 1.289055,3e-5 2.167961,0.34508 2.636719,1.03516 0.403637,0.59898 0.605459,1.77086 0.605469,3.51563 -1e-5,1.71876 -0.201832,2.84507 -0.605469,3.3789 -0.442717,0.612 -1.321622,0.91799 -2.636719,0.91797"
             id="path3222" />
          <path
             inkscape:connector-curvature="0"
             d="m 106.18861,804.505 4.04297,0 0,-21.875 -4.04297,0 0,21.875 m 0,-25.35156 4.04297,0 0,-4.04297 -4.04297,0 0,4.04297"
             id="path3224" />
          <path
             inkscape:connector-curvature="0"
             d="m 113.45424,804.505 4.04297,0 0,-15.19531 c -10e-6,-0.84634 0.29296,-1.51691 0.8789,-2.01172 0.46875,-0.44269 1.14583,-0.66404 2.03125,-0.66406 0.4427,2e-5 0.82031,0.0521 1.13282,0.15625 l 0,-4.49219 c -1.22397,3e-5 -2.25261,0.39065 -3.08594,1.17188 -0.28646,0.28648 -0.51433,0.57945 -0.68359,0.8789 -0.15626,0.2995 -0.24741,0.54039 -0.27344,0.72266 l 0,-2.44141 -4.04297,0 0,21.875"
             id="path3226" />
          <path
             inkscape:connector-curvature="0"
             d="m 122.65346,799.42688 c 0,2.00521 0.41666,3.47005 1.25,4.39453 0.53385,0.66406 1.19791,0.99609 1.99219,0.99609 0.78124,0 1.49088,-0.2539 2.1289,-0.76171 0.45572,-0.36459 0.82682,-0.80078 1.11328,-1.3086 l 0.27344,0 c -1e-5,0.85938 0.12369,1.44532 0.37109,1.75781 l 3.94532,0 c -0.18231,-1.11979 -0.27345,-2.38932 -0.27344,-3.80859 l 0,-13.4375 c -1e-5,-1.41925 -0.4948,-2.60415 -1.48438,-3.55469 -0.97657,-0.93747 -2.1224,-1.40622 -3.4375,-1.40625 -1.5625,3e-5 -2.85156,0.57294 -3.86718,1.71875 -1.04167,1.1719 -1.5625,2.54559 -1.5625,4.1211 l 0,0.91797 4.04297,0 0,-1.03516 c -1e-5,-0.27342 0.026,-0.61847 0.0781,-1.03516 0.14322,-0.76821 0.5013,-1.15232 1.07422,-1.15234 0.48176,2e-5 0.81379,0.22137 0.99609,0.66406 0.0781,0.26044 0.11718,0.70314 0.11719,1.32813 l 0,2.40234 c -0.026,0.0651 -0.0586,0.13022 -0.0977,0.19531 -0.0391,0.0521 -0.0977,0.11069 -0.17578,0.17578 -0.0781,0.0651 -0.15625,0.12372 -0.23437,0.17579 -0.0651,0.0391 -0.16277,0.0977 -0.29297,0.17578 -0.13022,0.0651 -0.24089,0.12371 -0.33203,0.17578 -0.0781,0.0391 -0.20834,0.10418 -0.39063,0.19531 -0.16927,0.0912 -0.29948,0.16277 -0.39062,0.21484 -1.35417,0.71616 -2.40886,1.54299 -3.16406,2.48047 -1.1198,1.39324 -1.67969,3.19663 -1.67969,5.41016 m 3.96484,-0.60547 c 0,-1.09374 0.22786,-2.07681 0.6836,-2.94922 0.46874,-0.8854 1.17186,-1.52994 2.10937,-1.93359 l 0,5.60547 c -1e-5,0.37761 -0.16277,0.69662 -0.48828,0.95703 -0.32553,0.2474 -0.72266,0.3711 -1.19141,0.37109 -0.42969,10e-6 -0.73568,-0.27994 -0.91797,-0.83984 -0.13021,-0.3776 -0.19531,-0.78125 -0.19531,-1.21094"
             id="path3228" />
          <path
             inkscape:connector-curvature="0"
             d="m 134.97768,786.26282 2.05078,0 0,11.21093 c 0,2.00522 0.20182,3.54819 0.60547,4.62891 0.67708,1.8099 2.01822,2.71484 4.02343,2.71484 0.65104,0 1.17187,-0.0391 1.5625,-0.11718 0.0651,-0.013 0.16276,-0.0391 0.29297,-0.0781 0.14322,-0.0391 0.24739,-0.0651 0.3125,-0.0781 l 0,-3.96485 c -0.0521,0.013 -0.13021,0.0261 -0.23437,0.0391 -0.10418,0.013 -0.1823,0.026 -0.23438,0.0391 -0.36459,0.0521 -0.70313,0.0781 -1.01562,0.0781 -0.5599,10e-6 -0.931,-0.43619 -1.11328,-1.30859 -0.10418,-0.48177 -0.15626,-1.24348 -0.15625,-2.28516 l 0,-10.8789 2.7539,0 0,-3.63282 -2.7539,0 0,-5.41015 -4.04297,0 0,5.41015 -2.05078,0 0,3.63282"
             id="path3230" />
          <path
             inkscape:connector-curvature="0"
             d="m 145.30971,799.42688 c 0,2.00521 0.41666,3.47005 1.25,4.39453 0.53385,0.66406 1.19791,0.99609 1.99219,0.99609 0.78124,0 1.49088,-0.2539 2.1289,-0.76171 0.45572,-0.36459 0.82682,-0.80078 1.11328,-1.3086 l 0.27344,0 c -1e-5,0.85938 0.12369,1.44532 0.37109,1.75781 l 3.94532,0 c -0.18231,-1.11979 -0.27345,-2.38932 -0.27344,-3.80859 l 0,-13.4375 c -1e-5,-1.41925 -0.4948,-2.60415 -1.48438,-3.55469 -0.97657,-0.93747 -2.1224,-1.40622 -3.4375,-1.40625 -1.5625,3e-5 -2.85156,0.57294 -3.86718,1.71875 -1.04167,1.1719 -1.5625,2.54559 -1.5625,4.1211 l 0,0.91797 4.04297,0 0,-1.03516 c -1e-5,-0.27342 0.026,-0.61847 0.0781,-1.03516 0.14322,-0.76821 0.5013,-1.15232 1.07422,-1.15234 0.48176,2e-5 0.81379,0.22137 0.99609,0.66406 0.0781,0.26044 0.11718,0.70314 0.11719,1.32813 l 0,2.40234 c -0.026,0.0651 -0.0586,0.13022 -0.0977,0.19531 -0.0391,0.0521 -0.0977,0.11069 -0.17578,0.17578 -0.0781,0.0651 -0.15625,0.12372 -0.23437,0.17579 -0.0651,0.0391 -0.16277,0.0977 -0.29297,0.17578 -0.13022,0.0651 -0.24089,0.12371 -0.33203,0.17578 -0.0781,0.0391 -0.20834,0.10418 -0.39063,0.19531 -0.16927,0.0912 -0.29948,0.16277 -0.39062,0.21484 -1.35417,0.71616 -2.40886,1.54299 -3.16406,2.48047 -1.1198,1.39324 -1.67969,3.19663 -1.67969,5.41016 m 3.96484,-0.60547 c 0,-1.09374 0.22786,-2.07681 0.6836,-2.94922 0.46874,-0.8854 1.17186,-1.52994 2.10937,-1.93359 l 0,5.60547 c -1e-5,0.37761 -0.16277,0.69662 -0.48828,0.95703 -0.32553,0.2474 -0.72266,0.3711 -1.19141,0.37109 -0.42969,10e-6 -0.73568,-0.27994 -0.91797,-0.83984 -0.13021,-0.3776 -0.19531,-0.78125 -0.19531,-1.21094"
             id="path3232" />
        </g>
      </g>
      <g
         inkscape:label="Capa 1"
         id="layer1-7"
         transform="matrix(0.24167151,0,0,0.24167151,27.752619,172.81623)">
        <path
           style="fill:#ffffff;stroke:none"
           inkscape:connector-curvature="0"
           d="m 335.47222,397.42201 c -33.91008,2.42215 -69.27344,20.70937 -90.70947,46.98968 -29.06577,35.60557 -38.51215,81.38419 -25.55366,124.49842 13.0796,43.11424 48.8063,77.75096 92.8894,89.98281 19.6194,5.44983 46.62635,5.69205 66.9724,0.48443 59.10041,-15.01732 101.12469,-68.78901 101.12469,-129.46382 0,-35.36337 -15.01733,-70.36342 -40.8132,-95.06933 C 410.4377,406.86839 376.1643,394.63654 335.47222,397.42201 Z"
           id="path3007-0"
           sodipodi:nodetypes="cccccscc" />
      </g>
      <g
         id="g8064"
         transform="matrix(0.24927978,0,0,0.24927978,-132.52325,380.86251)">
        <g
           id="g8060"
           transform="translate(636.31089,-849.16436)">
          <path
             style="fill:#000000;stroke:none"
             id="path33273"
             d="m 297.62416,448.18446 0,7.875 -9.625,3.375 -9.75,3.25 9.375,-0.25 9.375,-0.25 0.375,51.25 c 0.25,50.125 0.25,51.375 -2.5,59.375 -5.5,15.875 -3.25,30.375 6.375,41.25 l 3.875,4.375 -3,-6.875 c -4.5,-10.125 -5,-15 -2.625,-23.125 4.625,-16 19.37501,-25.5 48.87501,-31.875 19.875,-4.125 28.875,-7 39,-12.5 20.875,-11.125 31.75,-29.875 29,-50.375 -4.375,-31.625 -47.125,-49.125 -100.875,-41.375 l -5.37501,0.875 0,-6.5 0,-6.375 -6.25,0 -6.25,0 0,7.875 z m 28.75001,17.375 c 7.5,3.125 14.25,9.875 17.75,17.75 2.25,5.125 2.75,8.625 2.75,18.25 0,10.625 -0.375,12.75 -3.625,19.375 -4.5,9.375 -12.375,17.875 -23.25,25 -4.5,3.125 -8.62501,5.625 -9.12501,5.625 -0.375,0 -0.75,-20.25 -0.75,-45 l 0,-45 5.37501,0.75 c 2.875,0.5 7.75,1.875 10.875,3.25 z"
             inkscape:connector-curvature="0" />
          <path
             style="fill:#77a1c8;fill-opacity:1;stroke:none"
             id="path33275"
             d="m 424.37417,510.80946 c -0.25,17.125 -10.375,31.875 -29,42.375 -10.25,5.625 -22.875,9.75 -42.375,13.75 -27,5.625 -36.375,10.75 -42.75001,23.5 -3,6 -3.875,9.375 -3.875,15.125 0,7.5 2.75,15.125 6.75001,18.375 1.875,1.5 1.875,1.25 0.125,-2.75 -4.50001,-10.75 -0.5,-25.25 9.25,-33.625 6.125,-5.25 16,-8.625 35.75,-12.25 36,-6.75 56.75,-18.75 65.875,-38.375 3.125,-6.625 3.75,-9.625 3.75,-17 0,-5 -0.75,-11.125 -1.625,-13.625 l -1.75,-4.625 -0.125,9.125 z"
             inkscape:connector-curvature="0" />
        </g>
        <circle
           style="opacity:1;fill:none;fill-opacity:1;fill-rule:nonzero;stroke:#000000;stroke-width:14.51531315;stroke-miterlimit:4;stroke-dasharray:none;stroke-dashoffset:0;stroke-opacity:1"
           id="path7258"
           cx="316.6192"
           cy="989.37256"
           r="127.77704"
           transform="matrix(0,-1,1,0,0,0)" />
      </g>
    </g>
  </g>
</svg>
