<?xml version="1.0" encoding="UTF-8" standalone="no"?>
<!-- Created with Inkscape (http://www.inkscape.org/) -->

<svg
   xmlns:dc="http://purl.org/dc/elements/1.1/"
   xmlns:cc="http://creativecommons.org/ns#"
   xmlns:rdf="http://www.w3.org/1999/02/22-rdf-syntax-ns#"
   xmlns:svg="http://www.w3.org/2000/svg"
   xmlns="http://www.w3.org/2000/svg"
   xmlns:sodipodi="http://sodipodi.sourceforge.net/DTD/sodipodi-0.dtd"
   xmlns:inkscape="http://www.inkscape.org/namespaces/inkscape"
   width="105mm"
   height="74mm"
   id="svg2"
   version="1.1"
   inkscape:version="0.91 r13725"
   sodipodi:docname="slider_hackeando_el_capitalismo.svg">
  <defs
     id="defs4" />
  <sodipodi:namedview
     id="base"
     pagecolor="#ffffff"
     bordercolor="#666666"
     borderopacity="1.0"
     inkscape:pageopacity="0.0"
     inkscape:pageshadow="2"
     inkscape:zoom="2.3601563"
     inkscape:cx="239.74594"
     inkscape:cy="230.88407"
     inkscape:document-units="px"
     inkscape:current-layer="text3797"
     showgrid="false"
     showguides="true"
     inkscape:guide-bbox="true"
     units="mm"
     inkscape:window-width="1024"
     inkscape:window-height="743"
     inkscape:window-x="0"
     inkscape:window-y="25"
     inkscape:window-maximized="1">
    <sodipodi:guide
       orientation="1,0"
       position="262.20472,0"
       id="guide3168" />
    <sodipodi:guide
       orientation="0,1"
       position="72.857143,271.42857"
       id="guide3277" />
  </sodipodi:namedview>
  <metadata
     id="metadata7">
    <rdf:RDF>
      <cc:Work
         rdf:about="">
        <dc:format>image/svg+xml</dc:format>
        <dc:type
           rdf:resource="http://purl.org/dc/dcmitype/StillImage" />
        <dc:title />
      </cc:Work>
    </rdf:RDF>
  </metadata>
  <g
     inkscape:label="Capa 1"
     inkscape:groupmode="layer"
     id="layer1"
     transform="translate(0,-790.1574)">
    <g
       id="layer1-8"
       inkscape:label="Capa 1"
       transform="matrix(0.16088168,0,0,0.08078752,416.6604,981.00939)">
      <rect
         style="fill:#00112b"
         id="rect3033"
         width="2312.552"
         height="3245.6094"
         x="-2589.8562"
         y="-2362.394" />
      <g
         inkscape:export-ydpi="149"
         inkscape:export-xdpi="149"
         inkscape:export-filename="/srv/http/kiwwwi.com.ar/pastes/utopia-pirata-2.png"
         transform="matrix(0.67937345,0,0,0.67937345,-233.93427,225.03697)"
         id="g3847" />
      <g
         id="g4077"
         transform="matrix(1.418919,0,0,1.418919,-1152.7296,-369.99562)" />
    </g>
    <g
       id="g3932"
       transform="translate(0,220)">
      <rect
         y="589.1864"
         x="2.9508118e-07"
         height="173.31082"
         width="372.04724"
         id="rect3035"
         style="fill:#ffffff" />
      <g
         transform="matrix(1.418919,0,0,1.418919,-365.67568,-440.85448)"
         id="g3370">
        <g
           transform="translate(-0.25254936,-1.7019788)"
           style="font-style:normal;font-variant:normal;font-weight:normal;font-stretch:normal;font-size:40px;line-height:125%;font-family:'League Gothic';-inkscape-font-specification:'League Gothic';letter-spacing:0px;word-spacing:0px;fill:#000000;fill-opacity:1;stroke:none"
           id="text3025">
          <g
             id="text3797"
             style="font-style:normal;font-variant:normal;font-weight:normal;font-stretch:normal;font-size:34.64697647px;line-height:125%;font-family:FontAwesome;-inkscape-font-specification:FontAwesome;letter-spacing:0px;word-spacing:0px;fill:#000000;fill-opacity:1;stroke:none;stroke-width:1px;stroke-linecap:butt;stroke-linejoin:miter;stroke-opacity:1">
            <path
               inkscape:connector-curvature="0"
               id="path3852-3"
               style="font-style:normal;font-variant:normal;font-weight:normal;font-stretch:normal;font-size:34.64697647px;line-height:125%;font-family:'League Gothic';-inkscape-font-specification:'League Gothic';letter-spacing:0px;word-spacing:0px;fill:#000000;fill-opacity:1;stroke:none;stroke-width:1px;stroke-linecap:butt;stroke-linejoin:miter;stroke-opacity:1"
               d="m 388.99695,797.08052 c 0,-0.31182 0,-0.79688 -0.10395,-1.14335 -0.13858,-0.34647 -0.41576,-0.589 -0.86617,-0.589 -0.589,0 -0.83153,0.45041 -0.93547,1.00477 -0.0346,0.27717 -0.0693,0.58899 -0.0693,0.90082 0,0.31182 0,0.62364 0,0.90082 l -3.49935,0 0,-0.79688 c 0,-1.38588 0.51971,-2.63317 1.35123,-3.56864 0.83153,-0.93547 2.00953,-1.48982 3.36076,-1.48982 1.14335,0 2.18276,0.45041 2.97964,1.21264 0.79688,0.76224 1.28194,1.83629 1.28194,3.08358 l 0,11.64139 c 0,1.6977 0.10394,2.45993 0.24253,3.29146 l -3.43005,0 c -0.31182,-0.38112 -0.31182,-1.28194 -0.31182,-1.52447 l -0.24253,0 c -0.17324,0.31183 -0.48506,0.76224 -0.97012,1.14335 -0.48506,0.38112 -1.14335,0.6583 -1.83629,0.6583 -0.45041,0 -1.178,-0.17324 -1.73235,-0.86618 -0.589,-0.65829 -1.07405,-1.83629 -1.07405,-3.81116 0,-2.11347 0.62364,-3.63794 1.45517,-4.67735 0.83153,-1.03941 1.87094,-1.6977 2.73711,-2.14811 0.86617,-0.45041 1.52447,-0.76223 1.66306,-1.14335 l 0,-2.07882 z m 0,5.30099 c -1.69771,0.72759 -2.42529,2.42529 -2.42529,4.22693 0,0.24253 0.0346,0.65829 0.17323,1.03941 0.13859,0.41576 0.38112,0.72759 0.79688,0.72759 0.79688,0 1.45518,-0.48506 1.45518,-1.14335 l 0,-4.85058 z" />
            <path
               inkscape:connector-curvature="0"
               id="path3820"
               style="font-style:normal;font-variant:normal;font-weight:normal;font-stretch:normal;font-family:'League Gothic';-inkscape-font-specification:'League Gothic'"
               d="m 282.86229,800.73438 -2.91035,0 0,11.08703 -3.74187,0 0,-25.46553 3.74187,0 0,10.53268 2.91035,0 0,-10.53268 3.74187,0 0,25.46553 -3.74187,0 0,-11.08703 z" />
            <path
               inkscape:connector-curvature="0"
               id="path3822"
               style="font-style:normal;font-variant:normal;font-weight:normal;font-stretch:normal;font-family:'League Gothic';-inkscape-font-specification:'League Gothic'"
               d="m 294.70668,797.37362 c 0,-0.31182 0,-0.79688 -0.10394,-1.14335 -0.13859,-0.34647 -0.41576,-0.589 -0.86617,-0.589 -0.589,0 -0.83153,0.45041 -0.93547,1.00477 -0.0346,0.27717 -0.0693,0.58899 -0.0693,0.90082 0,0.31182 0,0.62364 0,0.90082 l -3.49934,0 0,-0.79688 c 0,-1.38588 0.5197,-2.63317 1.35123,-3.56864 0.83153,-0.93547 2.00953,-1.48982 3.36076,-1.48982 1.14335,0 2.18276,0.45041 2.97964,1.21264 0.79688,0.76224 1.28194,1.83629 1.28194,3.08358 l 0,11.64139 c 0,1.6977 0.10394,2.45993 0.24252,3.29146 l -3.43005,0 c -0.31182,-0.38112 -0.31182,-1.28194 -0.31182,-1.52447 l -0.24253,0 c -0.17323,0.31183 -0.48506,0.76224 -0.97011,1.14335 -0.48506,0.38112 -1.14335,0.6583 -1.83629,0.6583 -0.45041,0 -1.178,-0.17324 -1.73235,-0.86618 -0.589,-0.65829 -1.07406,-1.83629 -1.07406,-3.81116 0,-2.11347 0.62365,-3.63794 1.45517,-4.67735 0.83153,-1.03941 1.87094,-1.6977 2.73712,-2.14811 0.86617,-0.45041 1.52446,-0.76223 1.66305,-1.14335 l 0,-2.07882 z m 0,5.30099 c -1.6977,0.72759 -2.42529,2.42529 -2.42529,4.22693 0,0.24253 0.0346,0.65829 0.17324,1.03941 0.13859,0.41576 0.38111,0.72759 0.79688,0.72759 0.79688,0 1.45517,-0.48506 1.45517,-1.14335 l 0,-4.85058 z" />
            <path
               inkscape:connector-curvature="0"
               id="path3824"
               style="font-style:normal;font-variant:normal;font-weight:normal;font-stretch:normal;font-family:'League Gothic';-inkscape-font-specification:'League Gothic'"
               d="m 303.79339,807.45589 c 0,0.69294 0.0346,1.52447 0.97012,1.52447 0.79688,0 1.00476,-0.38112 1.00476,-1.52447 l 0,-2.63317 3.49934,0 0,1.83629 c 0,2.11347 -0.38111,3.4647 -1.14335,4.29623 -0.76223,0.83152 -1.87093,1.14335 -3.36075,1.14335 -1.24729,0 -2.39064,-0.34647 -3.18752,-1.21265 -0.79688,-0.86617 -1.28194,-2.2867 -1.28194,-4.40016 l 0,-8.28063 c 0,-2.11347 0.48506,-3.53399 1.28194,-4.40017 0.79688,-0.86617 1.94023,-1.21264 3.18752,-1.21264 1.48982,0 2.59852,0.31182 3.36075,1.14335 0.76224,0.83153 1.14335,2.18276 1.14335,4.29622 l 0,1.48982 -3.49934,0 0,-2.2867 c 0,-1.14335 -0.20788,-1.52446 -1.00476,-1.52446 -0.93547,0 -0.97012,0.83152 -0.97012,1.52446 l 0,10.22086 z" />
            <path
               inkscape:connector-curvature="0"
               id="path3826"
               style="font-style:normal;font-variant:normal;font-weight:normal;font-stretch:normal;font-family:'League Gothic';-inkscape-font-specification:'League Gothic'"
               d="m 314.96542,786.35588 0,12.0918 0.17323,0 0.20788,-0.62365 1.6977,-4.95451 3.15288,0 -2.52923,6.16716 3.18752,12.78473 -3.36075,0 -1.73235,-7.65698 -0.0693,-0.27718 -0.17323,0 -0.10394,0.27718 -0.45041,1.1087 0,6.54828 -3.49935,0 0,-25.46553 3.49935,0 z" />
            <path
               inkscape:connector-curvature="0"
               id="path3828"
               style="font-style:normal;font-variant:normal;font-weight:normal;font-stretch:normal;font-family:'League Gothic';-inkscape-font-specification:'League Gothic'"
               d="m 330.85593,805.0306 0,2.18276 c -0.10394,1.83629 -0.65829,3.11823 -1.90558,4.12299 -0.62365,0.51971 -1.48982,0.76224 -2.63318,0.76224 -2.25205,0 -3.3954,-1.24729 -3.94975,-2.49459 -0.31182,-0.72758 -0.5197,-1.55911 -0.55435,-2.49458 l 0,-9.52792 c 0.10394,-1.83629 0.69294,-3.18752 1.94023,-4.22693 0.589,-0.5197 1.45517,-0.76223 2.59852,-0.76223 2.25206,0 3.39541,1.24729 3.94976,2.45993 0.31182,0.72759 0.5197,1.52447 0.55435,2.42529 l 0,5.50887 -5.78605,0 0,4.12299 c 0.0346,0.72759 0.24253,1.24729 0.55436,1.62841 0.17323,0.17324 0.41576,0.27718 0.72758,0.27718 0.65829,0 0.97012,-0.41577 1.10871,-0.93547 0.10394,-0.27718 0.13858,-0.589 0.13858,-0.97012 l 0,-2.07882 3.25682,0 z m -5.78605,-4.78128 2.52923,0 0,-2.66782 c 0,-0.72758 -0.13858,-1.24729 -0.48505,-1.66305 -0.17324,-0.17324 -0.45042,-0.27718 -0.76224,-0.27718 -0.65829,0 -0.93547,0.45041 -1.1087,0.97012 -0.10394,0.27717 -0.13859,0.589 -0.17324,0.97011 l 0,2.66782 z" />
            <path
               inkscape:connector-curvature="0"
               id="path3830"
               style="font-style:normal;font-variant:normal;font-weight:normal;font-stretch:normal;font-family:'League Gothic';-inkscape-font-specification:'League Gothic'"
               d="m 338.35375,797.37362 c 0,-0.31182 0,-0.79688 -0.10394,-1.14335 -0.13859,-0.34647 -0.41576,-0.589 -0.86617,-0.589 -0.589,0 -0.83153,0.45041 -0.93547,1.00477 -0.0346,0.27717 -0.0693,0.58899 -0.0693,0.90082 0,0.31182 0,0.62364 0,0.90082 l -3.49934,0 0,-0.79688 c 0,-1.38588 0.5197,-2.63317 1.35123,-3.56864 0.83153,-0.93547 2.00953,-1.48982 3.36076,-1.48982 1.14335,0 2.18276,0.45041 2.97964,1.21264 0.79688,0.76224 1.28194,1.83629 1.28194,3.08358 l 0,11.64139 c 0,1.6977 0.10394,2.45993 0.24253,3.29146 l -3.43006,0 c -0.31182,-0.38112 -0.31182,-1.28194 -0.31182,-1.52447 l -0.24253,0 c -0.17323,0.31183 -0.48505,0.76224 -0.97011,1.14335 -0.48506,0.38112 -1.14335,0.6583 -1.83629,0.6583 -0.45041,0 -1.178,-0.17324 -1.73235,-0.86618 -0.589,-0.65829 -1.07406,-1.83629 -1.07406,-3.81116 0,-2.11347 0.62365,-3.63794 1.45518,-4.67735 0.83152,-1.03941 1.87093,-1.6977 2.73711,-2.14811 0.86617,-0.45041 1.52446,-0.76223 1.66305,-1.14335 l 0,-2.07882 z m 0,5.30099 c -1.6977,0.72759 -2.42529,2.42529 -2.42529,4.22693 0,0.24253 0.0346,0.65829 0.17324,1.03941 0.13859,0.41576 0.38112,0.72759 0.79688,0.72759 0.79688,0 1.45517,-0.48506 1.45517,-1.14335 l 0,-4.85058 z" />
            <path
               inkscape:connector-curvature="0"
               id="path3832"
               style="font-style:normal;font-variant:normal;font-weight:normal;font-stretch:normal;font-family:'League Gothic';-inkscape-font-specification:'League Gothic'"
               d="m 347.5823,811.82141 -3.49935,0 0,-18.95189 3.49935,0 0,1.59376 c 0.0693,-0.0347 0.20788,-0.17324 0.41576,-0.38112 0.38112,-0.38112 0.90082,-0.90082 1.52447,-1.24729 0.31182,-0.17324 0.589,-0.24253 0.90082,-0.24253 0.93547,0 1.59376,0.55435 2.00953,1.24729 0.41576,0.72759 0.62364,1.66306 0.62364,2.45994 l 0,15.52184 -3.49934,0 0,-15.00214 c 0,-0.72759 -0.41577,-0.83153 -0.83153,-0.83153 -0.38112,0 -0.589,0.20788 -0.83153,0.45041 -0.10394,0.13859 -0.20788,0.27718 -0.31182,0.45041 l 0,14.93285 z" />
            <path
               inkscape:connector-curvature="0"
               id="path3834"
               style="font-style:normal;font-variant:normal;font-weight:normal;font-stretch:normal;font-family:'League Gothic';-inkscape-font-specification:'League Gothic'"
               d="m 364.62482,811.82141 -3.49935,0 0,-1.24729 c -0.58899,0.55435 -1.1087,0.97012 -1.76699,1.28194 -0.34647,0.17323 -0.69294,0.24253 -1.00476,0.24253 -0.97012,0 -1.62841,-0.55435 -2.04418,-1.28194 -0.45041,-0.69294 -0.65829,-1.62841 -0.65829,-2.42529 l 0,-12.09179 c 0,-0.79688 0.20788,-1.73235 0.65829,-2.45994 0.41577,-0.69294 1.07406,-1.24729 2.04418,-1.24729 0.65829,0 1.35123,0.38112 1.87093,0.76223 0.31183,0.24253 0.589,0.48506 0.90082,0.76224 l 0,-7.76093 3.49935,0 0,25.46553 z m -3.49935,-14.79426 c 0,-0.55435 -0.5197,-1.14335 -1.0394,-1.14335 -0.51971,0 -0.93547,0.48506 -0.93547,1.14335 l 0,10.63662 c 0,0.6583 0.41576,1.14335 0.93547,1.14335 0.5197,0 1.0394,-0.48505 1.0394,-1.14335 l 0,-10.63662 z" />
            <path
               inkscape:connector-curvature="0"
               id="path3836"
               style="font-style:normal;font-variant:normal;font-weight:normal;font-stretch:normal;font-family:'League Gothic';-inkscape-font-specification:'League Gothic'"
               d="m 376.09081,807.21336 c -0.10395,1.83629 -0.6583,3.11823 -1.87094,4.12299 -0.62365,0.51971 -1.48982,0.76224 -2.63317,0.76224 -2.25205,0 -3.36076,-1.24729 -3.91511,-2.49459 -0.31182,-0.72758 -0.5197,-1.55911 -0.55435,-2.49458 l 0,-9.52792 c 0.10394,-1.83629 0.65829,-3.18752 1.87094,-4.22693 0.58899,-0.5197 1.45517,-0.76223 2.59852,-0.76223 2.25205,0 3.3954,1.24729 3.94975,2.45993 0.31183,0.72759 0.51971,1.52447 0.55436,2.42529 l 0,9.7358 z m -3.29147,-9.63186 c 0.0346,-0.72758 -0.10394,-1.24729 -0.45041,-1.66305 -0.17323,-0.17324 -0.45041,-0.27718 -0.76223,-0.27718 -0.65829,0 -0.93547,0.45041 -1.07406,0.97012 -0.10394,0.27717 -0.13859,0.589 -0.10394,0.97011 l 0,9.52792 c -0.0346,0.72759 0.13859,1.24729 0.45041,1.62841 0.17324,0.17324 0.41577,0.27718 0.72759,0.27718 0.65829,0 0.97011,-0.41577 1.1087,-0.93547 0.10394,-0.27718 0.13859,-0.589 0.10394,-0.97012 l 0,-9.52792 z" />
            <path
               inkscape:connector-curvature="0"
               id="path3840"
               style="font-style:normal;font-variant:normal;font-weight:normal;font-stretch:normal;font-family:'League Gothic';-inkscape-font-specification:'League Gothic'"
               d="m 394.9707,811.82141 0,-25.46553 3.49934,0 0,25.46553 -3.49934,0 z" />
            <path
               inkscape:connector-curvature="0"
               id="path3842"
               style="font-style:normal;font-variant:normal;font-weight:normal;font-stretch:normal;font-family:'League Gothic';-inkscape-font-specification:'League Gothic'"
               d="m 416.34571,803.09037 0,3.49935 c -0.0346,1.03941 -0.24253,1.97488 -0.62365,2.77176 -0.31182,0.69294 -0.79688,1.35123 -1.48982,1.87093 -0.69294,0.55435 -1.6284,0.86618 -2.8757,0.86618 -1.24729,0 -2.2174,-0.31183 -2.91034,-0.86618 -0.69294,-0.5197 -1.14335,-1.17799 -1.45517,-1.87093 -0.38112,-0.79688 -0.589,-1.73235 -0.62365,-2.77176 l 0,-15.00214 c 0.0346,-1.00477 0.24253,-1.94023 0.62365,-2.73711 0.31182,-0.69294 0.76223,-1.38588 1.45517,-1.90559 0.69294,-0.5197 1.66305,-0.86617 2.91034,-0.86617 1.2473,0 2.18276,0.34647 2.8757,0.86617 0.69294,0.51971 1.178,1.21265 1.48982,1.90559 0.38112,0.79688 0.589,1.73234 0.62365,2.73711 l 0,3.49934 -3.49935,0 0,-3.49934 c 0,-0.69294 -0.17323,-1.178 -0.55435,-1.59376 -0.17323,-0.17324 -0.48505,-0.27718 -0.86617,-0.27718 -0.65829,0 -0.97012,0.48506 -1.14335,0.93547 -0.10394,0.27717 -0.13859,0.589 -0.17324,0.93547 l 0,15.00214 c 0.0346,0.72758 0.24253,1.21264 0.589,1.59376 0.17324,0.17323 0.41577,0.27717 0.72759,0.27717 0.79688,0 1.1087,-0.41576 1.28194,-0.93546 0.10394,-0.24253 0.13858,-0.55436 0.13858,-0.93547 l 0,-3.49935 3.49935,0 z" />
            <path
               inkscape:connector-curvature="0"
               id="path3844"
               style="font-style:normal;font-variant:normal;font-weight:normal;font-stretch:normal;font-family:'League Gothic';-inkscape-font-specification:'League Gothic'"
               d="m 423.88847,797.37362 c 0,-0.31182 0,-0.79688 -0.10395,-1.14335 -0.13858,-0.34647 -0.41576,-0.589 -0.86617,-0.589 -0.589,0 -0.83153,0.45041 -0.93547,1.00477 -0.0346,0.27717 -0.0693,0.58899 -0.0693,0.90082 0,0.31182 0,0.62364 0,0.90082 l -3.49935,0 0,-0.79688 c 0,-1.38588 0.51971,-2.63317 1.35124,-3.56864 0.83152,-0.93547 2.00952,-1.48982 3.36075,-1.48982 1.14335,0 2.18276,0.45041 2.97964,1.21264 0.79688,0.76224 1.28194,1.83629 1.28194,3.08358 l 0,11.64139 c 0,1.6977 0.10394,2.45993 0.24253,3.29146 l -3.43005,0 c -0.31182,-0.38112 -0.31182,-1.28194 -0.31182,-1.52447 l -0.24253,0 c -0.17324,0.31183 -0.48506,0.76224 -0.97012,1.14335 -0.48506,0.38112 -1.14335,0.6583 -1.83629,0.6583 -0.45041,0 -1.178,-0.17324 -1.73235,-0.86618 -0.589,-0.65829 -1.07405,-1.83629 -1.07405,-3.81116 0,-2.11347 0.62364,-3.63794 1.45517,-4.67735 0.83153,-1.03941 1.87094,-1.6977 2.73711,-2.14811 0.86618,-0.45041 1.52447,-0.76223 1.66306,-1.14335 l 0,-2.07882 z m 0,5.30099 c -1.69771,0.72759 -2.42529,2.42529 -2.42529,4.22693 0,0.24253 0.0346,0.65829 0.17323,1.03941 0.13859,0.41576 0.38112,0.72759 0.79688,0.72759 0.79688,0 1.45518,-0.48506 1.45518,-1.14335 l 0,-4.85058 z" />
            <path
               inkscape:connector-curvature="0"
               id="path3846"
               style="font-style:normal;font-variant:normal;font-weight:normal;font-stretch:normal;font-family:'League Gothic';-inkscape-font-specification:'League Gothic'"
               d="m 429.61768,792.86952 3.49934,0 0,1.24729 c 0.589,-0.55436 1.1087,-0.97012 1.80164,-1.28194 0.31183,-0.17324 0.6583,-0.24253 0.97012,-0.24253 0.97011,0 1.62841,0.55435 2.07882,1.24729 0.41576,0.72759 0.62364,1.66306 0.62364,2.45994 l 0,12.09179 c 0,0.79688 -0.20788,1.73235 -0.62364,2.42529 -0.45041,0.72759 -1.10871,1.28194 -2.07882,1.28194 -0.65829,0 -1.35123,-0.38112 -1.87094,-0.76224 -0.31182,-0.24253 -0.589,-0.48505 -0.90082,-0.76223 l 0,7.76092 -3.49934,0 0,-25.46552 z m 3.49934,14.79425 c 0,0.55436 0.5197,1.14335 1.03941,1.14335 0.5197,0 0.93547,-0.48505 0.93547,-1.14335 l 0,-10.63662 c 0,-0.65829 -0.41577,-1.14335 -0.93547,-1.14335 -0.51971,0 -1.03941,0.48506 -1.03941,1.14335 l 0,10.63662 z" />
            <path
               inkscape:connector-curvature="0"
               id="path3848"
               style="font-style:normal;font-variant:normal;font-weight:normal;font-stretch:normal;font-family:'League Gothic';-inkscape-font-specification:'League Gothic'"
               d="m 441.2569,786.35588 3.49934,0 0,3.49935 -3.49934,0 0,-3.49935 z m 0,25.46553 0,-18.95189 3.49934,0 0,18.95189 -3.49934,0 z" />
            <path
               inkscape:connector-curvature="0"
               id="path3850"
               style="font-style:normal;font-variant:normal;font-weight:normal;font-stretch:normal;font-family:'League Gothic';-inkscape-font-specification:'League Gothic'"
               d="m 451.64179,788.19217 0,4.67735 2.39064,0 0,3.15287 -2.39064,0 0,9.42398 c 0,0.589 0,1.35123 0.13858,1.97488 0.13859,0.62364 0.41577,1.14335 0.97012,1.14335 0.27718,0 0.62365,-0.0347 0.86617,-0.0693 0.13859,-0.0347 0.27718,-0.0347 0.41577,-0.0693 l 0,3.43005 c -0.17324,0.0347 -0.34647,0.10394 -0.51971,0.13859 -0.34647,0.0693 -0.79688,0.10394 -1.35123,0.10394 -2.04417,0 -3.01429,-1.03941 -3.49934,-2.356 -0.48506,-1.31658 -0.51971,-2.91034 -0.51971,-4.01905 l 0,-9.70115 -1.76699,0 0,-3.15287 1.76699,0 0,-4.67735 3.49935,0 z" />
            <path
               inkscape:connector-curvature="0"
               id="path3852"
               style="font-style:normal;font-variant:normal;font-weight:normal;font-stretch:normal;font-family:'League Gothic';-inkscape-font-specification:'League Gothic'"
               d="m 461.1069,797.37362 c 0,-0.31182 0,-0.79688 -0.10395,-1.14335 -0.13858,-0.34647 -0.41576,-0.589 -0.86617,-0.589 -0.589,0 -0.83153,0.45041 -0.93547,1.00477 -0.0346,0.27717 -0.0693,0.58899 -0.0693,0.90082 0,0.31182 0,0.62364 0,0.90082 l -3.49935,0 0,-0.79688 c 0,-1.38588 0.51971,-2.63317 1.35123,-3.56864 0.83153,-0.93547 2.00953,-1.48982 3.36076,-1.48982 1.14335,0 2.18276,0.45041 2.97964,1.21264 0.79688,0.76224 1.28194,1.83629 1.28194,3.08358 l 0,11.64139 c 0,1.6977 0.10394,2.45993 0.24253,3.29146 l -3.43005,0 c -0.31182,-0.38112 -0.31182,-1.28194 -0.31182,-1.52447 l -0.24253,0 c -0.17324,0.31183 -0.48506,0.76224 -0.97012,1.14335 -0.48506,0.38112 -1.14335,0.6583 -1.83629,0.6583 -0.45041,0 -1.178,-0.17324 -1.73235,-0.86618 -0.589,-0.65829 -1.07405,-1.83629 -1.07405,-3.81116 0,-2.11347 0.62364,-3.63794 1.45517,-4.67735 0.83153,-1.03941 1.87094,-1.6977 2.73711,-2.14811 0.86617,-0.45041 1.52447,-0.76223 1.66306,-1.14335 l 0,-2.07882 z m 0,5.30099 c -1.69771,0.72759 -2.42529,2.42529 -2.42529,4.22693 0,0.24253 0.0346,0.65829 0.17323,1.03941 0.13859,0.41576 0.38112,0.72759 0.79688,0.72759 0.79688,0 1.45518,-0.48506 1.45518,-1.14335 l 0,-4.85058 z" />
            <path
               inkscape:connector-curvature="0"
               id="path3854"
               style="font-style:normal;font-variant:normal;font-weight:normal;font-stretch:normal;font-family:'League Gothic';-inkscape-font-specification:'League Gothic'"
               d="m 466.8361,811.82141 0,-25.46553 3.49935,0 0,25.46553 -3.49935,0 z" />
            <path
               inkscape:connector-curvature="0"
               id="path3856"
               style="font-style:normal;font-variant:normal;font-weight:normal;font-stretch:normal;font-family:'League Gothic';-inkscape-font-specification:'League Gothic'"
               d="m 473.12941,786.35588 3.49934,0 0,3.49935 -3.49934,0 0,-3.49935 z m 0,25.46553 0,-18.95189 3.49934,0 0,18.95189 -3.49934,0 z" />
            <path
               inkscape:connector-curvature="0"
               id="path3858"
               style="font-style:normal;font-variant:normal;font-weight:normal;font-stretch:normal;font-family:'League Gothic';-inkscape-font-specification:'League Gothic'"
               d="m 484.52068,797.72009 c 0,-0.45041 0,-1.00476 -0.13858,-1.45517 -0.17324,-0.41577 -0.45042,-0.76223 -1.00477,-0.76223 -0.45041,0 -0.72758,0.34646 -0.86617,0.76223 -0.17324,0.41576 -0.20788,1.00476 -0.20788,1.45517 0,0.589 0.31182,1.21265 0.76223,1.767 0.41576,0.55435 0.97012,1.1087 1.52447,1.62841 0.72758,0.72758 1.59376,1.55911 2.18276,2.49458 0.589,0.97011 1.03941,2.04417 1.03941,3.29146 0,1.21264 -0.27718,2.49458 -0.97012,3.4647 -0.72759,1.00476 -1.83629,1.73235 -3.49934,1.73235 -2.11347,0 -3.36076,-0.97012 -4.0537,-2.14812 -0.69294,-1.17799 -0.83153,-2.63317 -0.83153,-3.63793 l 3.25682,0 c 0,0.51971 0.0346,1.24729 0.27717,1.80164 0.24253,0.589 0.62365,1.07406 1.35124,1.07406 1.00476,0 1.21264,-1.178 1.21264,-2.2867 0,-1.14335 -1.1087,-2.2867 -2.18276,-3.36076 -0.83153,-0.79688 -1.62841,-1.52446 -2.25205,-2.45993 -0.62365,-0.93547 -1.07406,-1.97488 -1.07406,-3.36076 0,-1.1087 0.20788,-2.39064 0.86618,-3.3954 0.65829,-0.97012 1.73234,-1.6977 3.3954,-1.73235 2.04417,-0.0347 3.18752,0.72759 3.77652,1.73235 0.589,1.00476 0.69294,2.32135 0.69294,3.3954 l -3.25682,0 z" />
            <path
               inkscape:connector-curvature="0"
               id="path3860"
               style="font-style:normal;font-variant:normal;font-weight:normal;font-stretch:normal;font-family:'League Gothic';-inkscape-font-specification:'League Gothic'"
               d="m 498.95439,811.82141 -3.29146,0 0,-15.00214 c 0,-0.72759 -0.55435,-0.83153 -0.93547,-0.83153 -0.38112,0 -0.69294,0.20788 -0.93547,0.45041 -0.13859,0.13859 -0.27718,0.27718 -0.38112,0.45041 l 0,14.93285 -3.49934,0 0,-18.95189 3.49934,0 0,1.59376 c 0.0693,-0.0347 0.20789,-0.17324 0.41577,-0.38112 0.38111,-0.38112 0.97011,-0.90082 1.59376,-1.24729 0.31182,-0.17324 0.589,-0.24253 0.90082,-0.24253 1.24729,0 1.97488,1.00476 2.35599,2.11346 0.13859,-0.10394 0.31183,-0.27717 0.55436,-0.5197 0.45041,-0.48506 1.03941,-0.93547 1.6977,-1.31658 0.31182,-0.17324 0.62364,-0.27718 0.93547,-0.27718 0.93546,0 1.59376,0.55435 2.00952,1.24729 0.41576,0.72759 0.62365,1.66306 0.62365,2.45994 l 0,15.52184 -3.29147,0 0,-15.00214 c 0,-0.72759 -0.55435,-0.83153 -0.93546,-0.83153 -0.38112,0 -0.69294,0.20788 -0.93547,0.45041 -0.13859,0.13859 -0.27718,0.27718 -0.38112,0.45041 l 0,14.93285 z" />
            <path
               inkscape:connector-curvature="0"
               id="path3862"
               style="font-style:normal;font-variant:normal;font-weight:normal;font-stretch:normal;font-family:'League Gothic';-inkscape-font-specification:'League Gothic'"
               d="m 515.82909,807.21336 c -0.10394,1.83629 -0.6583,3.11823 -1.87094,4.12299 -0.62365,0.51971 -1.48982,0.76224 -2.63317,0.76224 -2.25205,0 -3.36076,-1.24729 -3.91511,-2.49459 -0.31182,-0.72758 -0.5197,-1.55911 -0.55435,-2.49458 l 0,-9.52792 c 0.10394,-1.83629 0.65829,-3.18752 1.87094,-4.22693 0.589,-0.5197 1.45517,-0.76223 2.59852,-0.76223 2.25205,0 3.3954,1.24729 3.94976,2.45993 0.31182,0.72759 0.5197,1.52447 0.55435,2.42529 l 0,9.7358 z m -3.29147,-9.63186 c 0.0347,-0.72758 -0.10394,-1.24729 -0.45041,-1.66305 -0.17323,-0.17324 -0.45041,-0.27718 -0.76223,-0.27718 -0.65829,0 -0.93547,0.45041 -1.07406,0.97012 -0.10394,0.27717 -0.13858,0.589 -0.10394,0.97011 l 0,9.52792 c -0.0346,0.72759 0.13859,1.24729 0.45041,1.62841 0.17324,0.17324 0.41577,0.27718 0.72759,0.27718 0.65829,0 0.97012,-0.41577 1.1087,-0.93547 0.10394,-0.27718 0.13859,-0.589 0.10394,-0.97012 l 0,-9.52792 z" />
          </g>
          <g
             id="text3797-5"
             style="font-style:normal;font-variant:normal;font-weight:normal;font-stretch:normal;font-size:18.90425301px;line-height:125%;font-family:FontAwesome;-inkscape-font-specification:FontAwesome;letter-spacing:0px;word-spacing:0px;fill:#000000;fill-opacity:1;stroke:none;stroke-width:1px;stroke-linecap:butt;stroke-linejoin:miter;stroke-opacity:1">
            <path
               inkscape:connector-curvature="0"
               id="path3866"
               style="font-style:normal;font-variant:normal;font-weight:normal;font-stretch:normal;font-family:'League Gothic';-inkscape-font-specification:'League Gothic'"
               d="m 279.52056,775.05878 c 0.39699,0.0567 0.69946,-0.0378 0.92631,-0.34028 0.11342,-0.13233 0.17014,-0.35918 0.17014,-0.68055 l 0,-11.00228 2.04166,0 0,11.32365 c 0,0.75617 -0.18905,1.45563 -0.66165,1.96604 -0.47261,0.51042 -1.26659,0.81288 -2.47646,0.73727 l 0,-2.00385 z" />
            <path
               inkscape:connector-curvature="0"
               id="path3868"
               style="font-style:normal;font-variant:normal;font-weight:normal;font-stretch:normal;font-family:'League Gothic';-inkscape-font-specification:'League Gothic'"
               d="m 288.80314,774.41603 c -0.0567,1.00193 -0.35918,1.70138 -1.02083,2.24961 -0.34028,0.28356 -0.81288,0.41589 -1.43672,0.41589 -1.22878,0 -1.83372,-0.68055 -2.13618,-1.3611 -0.17014,-0.39699 -0.28357,-0.8507 -0.30247,-1.36111 l 0,-5.19867 c 0.0567,-1.00193 0.35918,-1.73919 1.02083,-2.30632 0.32137,-0.28356 0.79398,-0.41589 1.41782,-0.41589 1.22877,0 1.85261,0.68055 2.15508,1.3422 0.17014,0.39699 0.28357,0.83179 0.30247,1.3233 l 0,5.31209 z m -1.7959,-5.25538 c 0.0189,-0.39699 -0.0567,-0.68055 -0.24576,-0.9074 -0.0945,-0.0945 -0.24576,-0.15124 -0.41589,-0.15124 -0.35918,0 -0.51042,0.24576 -0.58604,0.52932 -0.0567,0.15123 -0.0756,0.32137 -0.0567,0.52932 l 0,5.19867 c -0.0189,0.39699 0.0756,0.68055 0.24576,0.8885 0.0945,0.0945 0.22685,0.15123 0.39699,0.15123 0.35918,0 0.52932,-0.22685 0.60493,-0.51041 0.0567,-0.15124 0.0756,-0.32137 0.0567,-0.52932 l 0,-5.19867 z" />
            <path
               inkscape:connector-curvature="0"
               id="path3870"
               style="font-style:normal;font-variant:normal;font-weight:normal;font-stretch:normal;font-family:'League Gothic';-inkscape-font-specification:'League Gothic'"
               d="m 292.04167,776.9303 -1.90932,0 0,-13.89463 1.90932,0 0,4.4236 c 0.0378,-0.0189 0.11343,-0.0945 0.22686,-0.20795 0.20794,-0.20795 0.49151,-0.49151 0.83178,-0.68055 0.17014,-0.0945 0.32138,-0.13233 0.49151,-0.13233 0.51042,0 0.8696,0.30247 1.09645,0.68055 0.22685,0.39699 0.34028,0.9074 0.34028,1.3422 l 0,8.46911 -1.90933,0 0,-8.18554 c 0,-0.39699 -0.22685,-0.45371 -0.45371,-0.45371 -0.20794,0 -0.32137,0.11343 -0.4537,0.24576 -0.0567,0.0756 -0.11342,0.15123 -0.17014,0.24575 l 0,8.14774 z" />
            <path
               inkscape:connector-curvature="0"
               id="path3872"
               style="font-style:normal;font-variant:normal;font-weight:normal;font-stretch:normal;font-family:'League Gothic';-inkscape-font-specification:'League Gothic'"
               d="m 299.3015,769.04722 c 0,-0.17013 0,-0.43479 -0.0567,-0.62384 -0.0756,-0.18904 -0.22686,-0.32137 -0.47261,-0.32137 -0.32137,0 -0.4537,0.24576 -0.51042,0.54823 -0.0189,0.15123 -0.0378,0.32137 -0.0378,0.49151 0,0.17013 0,0.34027 0,0.49151 l -1.90933,0 0,-0.4348 c 0,-0.75617 0.28356,-1.43672 0.73726,-1.94714 0.4537,-0.51041 1.09645,-0.81288 1.83371,-0.81288 0.62384,0 1.19097,0.24575 1.62577,0.66165 0.4348,0.41589 0.69946,1.00192 0.69946,1.68247 l 0,6.35183 c 0,0.92631 0.0567,1.34221 0.13233,1.79591 l -1.87152,0 c -0.17014,-0.20795 -0.17014,-0.69946 -0.17014,-0.83179 l -0.13233,0 c -0.0945,0.17014 -0.26466,0.41589 -0.52932,0.62384 -0.26466,0.20795 -0.62384,0.35918 -1.00193,0.35918 -0.24575,0 -0.64274,-0.0945 -0.94521,-0.4726 -0.32137,-0.35919 -0.58603,-1.00193 -0.58603,-2.07947 0,-1.15316 0.34028,-1.98495 0.79398,-2.55208 0.4537,-0.56712 1.02083,-0.9263 1.49343,-1.17206 0.47261,-0.24576 0.83179,-0.41589 0.90741,-0.62384 l 0,-1.13426 z m 0,2.89236 c -0.92631,0.39698 -1.3233,1.32329 -1.3233,2.30631 0,0.13233 0.0189,0.35918 0.0945,0.56713 0.0756,0.22685 0.20795,0.39699 0.4348,0.39699 0.4348,0 0.79398,-0.26466 0.79398,-0.62384 l 0,-2.64659 z" />
            <path
               inkscape:connector-curvature="0"
               id="path3874"
               style="font-style:normal;font-variant:normal;font-weight:normal;font-stretch:normal;font-family:'League Gothic';-inkscape-font-specification:'League Gothic'"
               d="m 304.33682,776.9303 -1.90933,0 0,-10.34063 1.90933,0 0,0.8696 c 0.0378,-0.0189 0.11343,-0.0945 0.22685,-0.20795 0.20795,-0.20795 0.49152,-0.49151 0.83179,-0.68055 0.17014,-0.0945 0.32137,-0.13233 0.49151,-0.13233 0.51042,0 0.8696,0.30247 1.09645,0.68055 0.22685,0.39699 0.34028,0.9074 0.34028,1.3422 l 0,8.46911 -1.90933,0 0,-8.18554 c 0,-0.39699 -0.22686,-0.45371 -0.45371,-0.45371 -0.20794,0 -0.32137,0.11343 -0.4537,0.24576 -0.0567,0.0756 -0.11342,0.15123 -0.17014,0.24575 l 0,8.14774 z" />
            <path
               inkscape:connector-curvature="0"
               id="path3876"
               style="font-style:normal;font-variant:normal;font-weight:normal;font-stretch:normal;font-family:'League Gothic';-inkscape-font-specification:'League Gothic'"
               d="m 315.11579,766.75981 c 0,-0.4537 -0.0189,-0.96412 -0.15123,-1.36111 -0.13233,-0.37808 -0.34028,-0.64274 -0.66165,-0.64274 -0.52932,0.0189 -0.69946,0.56713 -0.69946,1.38001 0,0.47261 0.20795,0.96412 0.51042,1.49344 0.30247,0.52931 0.69945,1.07754 1.09644,1.66357 0.47261,0.69946 0.94522,1.41782 1.3044,2.11728 0.35918,0.69945 0.60493,1.41781 0.60493,2.17399 0,0.9263 -0.15123,1.7959 -0.58603,2.43864 -0.4348,0.64275 -1.13425,1.05864 -2.2496,1.05864 -1.3044,0 -2.04166,-0.49151 -2.45756,-1.24768 -0.41589,-0.75617 -0.51041,-1.75809 -0.51041,-2.79783 l 2.00385,-0.18904 c 0,0.58603 0.0189,1.17206 0.17014,1.60686 0.13233,0.4537 0.35918,0.75617 0.79398,0.75617 0.60493,0 0.83178,-0.64274 0.83178,-1.53124 0,-0.45371 -0.22685,-0.98302 -0.52932,-1.53125 -0.17013,-0.26466 -0.34027,-0.54822 -0.52932,-0.83179 -0.39698,-0.56712 -0.83178,-1.20987 -1.28548,-1.90932 -0.45371,-0.69946 -0.79398,-1.41782 -1.00193,-2.15509 -0.11343,-0.35918 -0.17014,-0.73727 -0.17014,-1.11535 0,-0.75617 0.17014,-1.56905 0.60494,-2.19289 0.4348,-0.60494 1.09644,-1.03974 2.06056,-1.05864 1.22878,-0.0189 1.94714,0.49151 2.34413,1.22877 0.39699,0.75617 0.51041,1.68248 0.51041,2.45756 l -2.00385,0.18904 z" />
            <path
               inkscape:connector-curvature="0"
               id="path3878"
               style="font-style:normal;font-variant:normal;font-weight:normal;font-stretch:normal;font-family:'League Gothic';-inkscape-font-specification:'League Gothic'"
               d="m 318.30589,763.03567 1.75809,0 0,1.85262 -1.75809,0 0,-1.85262 z m 2.6655,0 1.75809,0 0,1.85262 -1.75809,0 0,-1.85262 z m 1.98494,11.38036 c -0.0567,1.00193 -0.35918,1.70138 -1.02083,2.24961 -0.34027,0.28356 -0.81288,0.41589 -1.43672,0.41589 -1.22878,0 -1.83371,-0.68055 -2.13618,-1.3611 -0.17014,-0.39699 -0.28357,-0.8507 -0.30247,-1.36111 l 0,-5.19867 c 0.0567,-1.00193 0.35918,-1.73919 1.02083,-2.30632 0.32137,-0.28356 0.79398,-0.41589 1.41782,-0.41589 1.22878,0 1.85262,0.68055 2.15508,1.3422 0.17014,0.39699 0.28357,0.83179 0.30247,1.3233 l 0,5.31209 z m -1.7959,-5.25538 c 0.0189,-0.39699 -0.0567,-0.68055 -0.24576,-0.9074 -0.0945,-0.0945 -0.24575,-0.15124 -0.41589,-0.15124 -0.35918,0 -0.51042,0.24576 -0.58603,0.52932 -0.0567,0.15123 -0.0756,0.32137 -0.0567,0.52932 l 0,5.19867 c -0.0189,0.39699 0.0756,0.68055 0.24576,0.8885 0.0945,0.0945 0.22685,0.15123 0.39699,0.15123 0.35918,0 0.52932,-0.22685 0.60493,-0.51041 0.0567,-0.15124 0.0756,-0.32137 0.0567,-0.52932 l 0,-5.19867 z" />
            <path
               inkscape:connector-curvature="0"
               id="path3880"
               style="font-style:normal;font-variant:normal;font-weight:normal;font-stretch:normal;font-family:'League Gothic';-inkscape-font-specification:'League Gothic'"
               d="m 329.10612,776.9303 -1.90933,0 0,-0.68056 c -0.32137,0.30247 -0.60494,0.52932 -0.96412,0.69946 -0.18904,0.0945 -0.37808,0.13233 -0.54822,0.13233 -0.52932,0 -0.8885,-0.30247 -1.11535,-0.69946 -0.24576,-0.37808 -0.35918,-0.8885 -0.35918,-1.32329 l 0,-6.59759 c 0,-0.4348 0.11342,-0.94521 0.35918,-1.3422 0.22685,-0.37808 0.58603,-0.68055 1.11535,-0.68055 0.35918,0 0.73727,0.20794 1.02083,0.41589 0.17014,0.13233 0.32137,0.26466 0.49151,0.41589 l 0,-4.23455 1.90933,0 0,13.89463 z m -1.90933,-8.07212 c 0,-0.30247 -0.28356,-0.62384 -0.56713,-0.62384 -0.28356,0 -0.51041,0.26466 -0.51041,0.62384 l 0,5.80361 c 0,0.35918 0.22685,0.62384 0.51041,0.62384 0.28357,0 0.56713,-0.26466 0.56713,-0.62384 l 0,-5.80361 z" />
            <path
               inkscape:connector-curvature="0"
               id="path3882"
               style="font-style:normal;font-variant:normal;font-weight:normal;font-stretch:normal;font-family:'League Gothic';-inkscape-font-specification:'League Gothic'"
               d="m 335.41896,773.22506 0,1.19097 c -0.0567,1.00193 -0.35918,1.70138 -1.03974,2.24961 -0.34027,0.28356 -0.81288,0.41589 -1.43672,0.41589 -1.22877,0 -1.85262,-0.68055 -2.15508,-1.3611 -0.17014,-0.39699 -0.28357,-0.8507 -0.30247,-1.36111 l 0,-5.19867 c 0.0567,-1.00193 0.37808,-1.73919 1.05864,-2.30632 0.32137,-0.28356 0.79398,-0.41589 1.41782,-0.41589 1.22877,0 1.85261,0.68055 2.15508,1.3422 0.17014,0.39699 0.28356,0.83179 0.30247,1.3233 l 0,3.00577 -3.15701,0 0,2.24961 c 0.0189,0.39699 0.13233,0.68055 0.30247,0.8885 0.0945,0.0945 0.22685,0.15123 0.39699,0.15123 0.35918,0 0.52931,-0.22685 0.60493,-0.51041 0.0567,-0.15124 0.0756,-0.32137 0.0756,-0.52932 l 0,-1.13426 1.777,0 z m -3.15701,-2.60878 1.38001,0 0,-1.45563 c 0,-0.39699 -0.0756,-0.68055 -0.26466,-0.9074 -0.0945,-0.0945 -0.24576,-0.15124 -0.41589,-0.15124 -0.35919,0 -0.51042,0.24576 -0.60494,0.52932 -0.0567,0.15123 -0.0756,0.32137 -0.0945,0.52932 l 0,1.45563 z" />
            <path
               inkscape:connector-curvature="0"
               id="path3884"
               style="font-style:normal;font-variant:normal;font-weight:normal;font-stretch:normal;font-family:'League Gothic';-inkscape-font-specification:'League Gothic'"
               d="m 340.51011,768.55571 c -0.17014,-0.0567 -0.35918,-0.0756 -0.52932,-0.0756 -0.30246,0 -0.66165,0.0378 -0.96411,0.32137 -0.35918,0.30247 -0.4159,0.62384 -0.4159,0.94521 l 0,7.18362 -1.90933,0 0,-10.34063 1.90933,0 0,1.15316 c 0.0189,-0.13233 0.15124,-0.4537 0.45371,-0.75617 0.30246,-0.28356 0.75617,-0.54822 1.45562,-0.54822 l 0,2.11727 z" />
            <path
               inkscape:connector-curvature="0"
               id="path3886"
               style="font-style:normal;font-variant:normal;font-weight:normal;font-stretch:normal;font-family:'League Gothic';-inkscape-font-specification:'League Gothic'"
               d="m 341.34367,763.03567 1.90933,0 0,4.23455 c 0.32137,-0.30246 0.60494,-0.52931 0.98302,-0.69945 0.17014,-0.0945 0.35918,-0.13233 0.52932,-0.13233 0.52932,0 0.8885,0.30247 1.13426,0.68055 0.22685,0.39699 0.34027,0.9074 0.34027,1.3422 l 0,6.59759 c 0,0.43479 -0.11342,0.94521 -0.34027,1.32329 -0.24576,0.39699 -0.60494,0.69946 -1.13426,0.69946 -0.35918,0 -0.73726,-0.20794 -1.02083,-0.41589 -0.17014,-0.13233 -0.32137,-0.26466 -0.49151,-0.4159 l 0,0.68056 -1.90933,0 0,-13.89463 z m 1.90933,11.62612 c 0,0.35918 0.28356,0.62384 0.56713,0.62384 0.28356,0 0.51041,-0.26466 0.51041,-0.62384 l 0,-5.80361 c 0,-0.35918 -0.22685,-0.62384 -0.51041,-0.62384 -0.28357,0 -0.56713,0.32137 -0.56713,0.62384 l 0,5.80361 z" />
            <path
               inkscape:connector-curvature="0"
               id="path3888"
               style="font-style:normal;font-variant:normal;font-weight:normal;font-stretch:normal;font-family:'League Gothic';-inkscape-font-specification:'League Gothic'"
               d="m 352.47709,773.22506 0,1.19097 c -0.0567,1.00193 -0.35918,1.70138 -1.03973,2.24961 -0.34028,0.28356 -0.81288,0.41589 -1.43672,0.41589 -1.22878,0 -1.85262,-0.68055 -2.15509,-1.3611 -0.17014,-0.39699 -0.28356,-0.8507 -0.30247,-1.36111 l 0,-5.19867 c 0.0567,-1.00193 0.37809,-1.73919 1.05864,-2.30632 0.32138,-0.28356 0.79398,-0.41589 1.41782,-0.41589 1.22878,0 1.85262,0.68055 2.15509,1.3422 0.17013,0.39699 0.28356,0.83179 0.30246,1.3233 l 0,3.00577 -3.15701,0 0,2.24961 c 0.0189,0.39699 0.13233,0.68055 0.30247,0.8885 0.0945,0.0945 0.22685,0.15123 0.39699,0.15123 0.35918,0 0.52932,-0.22685 0.60494,-0.51041 0.0567,-0.15124 0.0756,-0.32137 0.0756,-0.52932 l 0,-1.13426 1.777,0 z m -3.15701,-2.60878 1.38001,0 0,-1.45563 c 0,-0.39699 -0.0756,-0.68055 -0.26465,-0.9074 -0.0945,-0.0945 -0.24576,-0.15124 -0.4159,-0.15124 -0.35918,0 -0.51041,0.24576 -0.60493,0.52932 -0.0567,0.15123 -0.0756,0.32137 -0.0945,0.52932 l 0,1.45563 z" />
            <path
               inkscape:connector-curvature="0"
               id="path3890"
               style="font-style:normal;font-variant:normal;font-weight:normal;font-stretch:normal;font-family:'League Gothic';-inkscape-font-specification:'League Gothic'"
               d="m 357.56825,768.55571 c -0.17014,-0.0567 -0.35919,-0.0756 -0.52932,-0.0756 -0.30247,0 -0.66165,0.0378 -0.96412,0.32137 -0.35918,0.30247 -0.41589,0.62384 -0.41589,0.94521 l 0,7.18362 -1.90933,0 0,-10.34063 1.90933,0 0,1.15316 c 0.0189,-0.13233 0.15123,-0.4537 0.4537,-0.75617 0.30247,-0.28356 0.75617,-0.54822 1.45563,-0.54822 l 0,2.11727 z" />
            <path
               inkscape:connector-curvature="0"
               id="path3892"
               style="font-style:normal;font-variant:normal;font-weight:normal;font-stretch:normal;font-family:'League Gothic';-inkscape-font-specification:'League Gothic'"
               d="m 363.07116,771.93958 c -0.0567,0.96411 -0.39699,1.64467 -1.05864,2.15508 -0.34028,0.26466 -0.81288,0.39699 -1.39891,0.39699 -0.0567,0 -0.11343,0 -0.17014,0 -0.0567,0 -0.13233,0 -0.18905,-0.0189 -0.17013,0.15124 -0.26466,0.30247 -0.26466,0.47261 0,0.22685 0.18905,0.35918 0.47261,0.4348 0.28357,0.0945 0.62384,0.15123 0.98302,0.20795 0.60494,0.0756 1.24768,0.22685 1.777,0.58603 0.51042,0.35918 0.8696,0.9074 0.8696,1.81481 0,1.00192 -0.4348,1.68247 -1.03974,2.07946 -0.62384,0.39699 -1.45562,0.56713 -2.2307,0.56713 -0.9074,-0.0189 -1.68248,-0.15123 -2.2118,-0.4537 -0.54822,-0.30247 -0.85069,-0.79398 -0.85069,-1.55015 0,-0.35918 0.18905,-0.66165 0.47261,-0.92631 0.28356,-0.26466 0.66165,-0.4726 1.02083,-0.64274 -0.62384,-0.17014 -1.15316,-0.56713 -1.15316,-1.38001 0,-0.30247 0.17014,-0.60494 0.39699,-0.8885 0.22685,-0.28357 0.51041,-0.51042 0.79398,-0.66165 -0.54823,-0.35918 -0.81289,-0.92631 -0.94522,-1.39892 -0.0756,-0.28356 -0.13232,-0.56712 -0.15123,-0.85069 l 0,-2.81673 c 0.0756,-0.96412 0.37809,-1.66358 1.03973,-2.2118 0.32138,-0.28356 0.79398,-0.41589 1.38002,-0.41589 0.96411,0 1.55014,0.4348 1.90932,0.94521 0.13233,-0.13233 0.35919,-0.35918 0.66165,-0.56713 0.28357,-0.20794 0.60494,-0.37808 0.90741,-0.37808 l 0,1.70138 c -0.51042,0 -0.8885,0.0945 -1.11535,0.22685 0.0189,0.0945 0.0378,0.18904 0.0567,0.24576 0,0.0756 0,0.15123 0.0189,0.20794 0.0189,0.0567 0.0189,0.13233 0.0189,0.18905 l 0,2.93016 z m -1.87152,-2.79783 c 0,-0.35919 -0.0756,-0.58604 -0.22685,-0.79398 -0.0756,-0.0945 -0.18905,-0.15124 -0.35918,-0.15124 -0.30247,0 -0.45371,0.24576 -0.51042,0.47261 -0.0378,0.13233 -0.0567,0.30247 -0.0378,0.47261 l 0,2.83563 c -0.0189,0.35918 0.0378,0.58604 0.20795,0.77508 0.0756,0.0945 0.18904,0.15123 0.34028,0.15123 0.32137,0 0.4537,-0.22685 0.52931,-0.4537 0.0378,-0.13233 0.0567,-0.30247 0.0567,-0.47261 l 0,-2.83563 z m -0.8885,8.26115 c -0.39699,0.22686 -0.69946,0.51042 -0.69946,0.90741 0,0.39699 0.35918,0.71836 1.24768,0.71836 0.32137,0 0.68055,-0.0567 0.96412,-0.17014 0.28356,-0.11342 0.49151,-0.28356 0.49151,-0.52932 0,-0.17014 -0.0189,-0.30247 -0.15124,-0.4348 -0.15123,-0.13233 -0.39699,-0.22685 -0.86959,-0.30246 l -0.98302,-0.18905 z" />
          </g>
        </g>
      </g>
    </g>
    <g
       id="g3234"
       transform="matrix(1.4188819,0,0,1.4188819,86.174224,-431.10105)" />
  </g>
</svg>
