<?xml version="1.0" encoding="UTF-8" standalone="no"?>
<!-- Created with Inkscape (http://www.inkscape.org/) -->

<svg
   xmlns:dc="http://purl.org/dc/elements/1.1/"
   xmlns:cc="http://creativecommons.org/ns#"
   xmlns:rdf="http://www.w3.org/1999/02/22-rdf-syntax-ns#"
   xmlns:svg="http://www.w3.org/2000/svg"
   xmlns="http://www.w3.org/2000/svg"
   xmlns:sodipodi="http://sodipodi.sourceforge.net/DTD/sodipodi-0.dtd"
   xmlns:inkscape="http://www.inkscape.org/namespaces/inkscape"
   width="105mm"
   height="74mm"
   id="svg2"
   version="1.1"
   inkscape:version="0.91 r13725"
   sodipodi:docname="slider_manifiesto_por_la_prevencion_de_datos.svg">
  <defs
     id="defs4" />
  <sodipodi:namedview
     id="base"
     pagecolor="#ffffff"
     bordercolor="#666666"
     borderopacity="1.0"
     inkscape:pageopacity="0.0"
     inkscape:pageshadow="2"
     inkscape:zoom="0.7"
     inkscape:cx="252.23847"
     inkscape:cy="261.44175"
     inkscape:document-units="mm"
     inkscape:current-layer="layer1"
     showgrid="false"
     showguides="true"
     inkscape:guide-bbox="true"
     units="mm"
     inkscape:window-width="1366"
     inkscape:window-height="746"
     inkscape:window-x="0"
     inkscape:window-y="22"
     inkscape:window-maximized="0">
    <sodipodi:guide
       orientation="1,0"
       position="372.04724,0"
       id="guide3168" />
    <sodipodi:guide
       orientation="0,1"
       position="72.857143,271.42857"
       id="guide3277" />
  </sodipodi:namedview>
  <metadata
     id="metadata7">
    <rdf:RDF>
      <cc:Work
         rdf:about="">
        <dc:format>image/svg+xml</dc:format>
        <dc:type
           rdf:resource="http://purl.org/dc/dcmitype/StillImage" />
        <dc:title></dc:title>
      </cc:Work>
    </rdf:RDF>
  </metadata>
  <g
     inkscape:label="Capa 1"
     inkscape:groupmode="layer"
     id="layer1"
     transform="translate(0,-790.15742)">
    <g
       id="layer1-8"
       inkscape:label="Capa 1"
       transform="matrix(0.16088167,0,0,0.16157504,416.66039,909.65661)">
      <g
         inkscape:export-ydpi="149"
         inkscape:export-xdpi="149"
         inkscape:export-filename="/srv/http/kiwwwi.com.ar/pastes/utopia-pirata-2.png"
         transform="matrix(0.67937345,0,0,0.67937345,-233.93427,225.03697)"
         id="g3847" />
    </g>
    <g
       id="g4937"
       transform="translate(1.621929e-6,231.42854)">
      <rect
         y="558.72888"
         x="-1.621929e-06"
         height="262.20471"
         width="372.04724"
         id="rect3033"
         style="fill:#ff0066" />
      <rect
         y="589.1864"
         x="0"
         height="173.31082"
         width="372.04724"
         id="rect3035"
         style="fill:#ffffff" />
      <g
         transform="translate(-371.42857,1.9884376e-6)"
         id="text3422"
         style="font-style:normal;font-variant:normal;font-weight:normal;font-stretch:normal;font-size:47.7713356px;line-height:125%;font-family:'League Gothic';-inkscape-font-specification:'League Gothic';letter-spacing:0px;word-spacing:0px;fill:#000000;fill-opacity:1;stroke:none">
        <g
           id="text4503"
           style="font-style:normal;font-variant:normal;font-weight:normal;font-stretch:normal;font-size:46.54447556px;line-height:125%;font-family:'League Gothic';-inkscape-font-specification:'League Gothic';text-align:start;letter-spacing:0px;word-spacing:0px;text-anchor:start;fill:#000000;fill-opacity:1;stroke:none;stroke-width:1px;stroke-linecap:butt;stroke-linejoin:miter;stroke-opacity:1">
          <path
             inkscape:connector-curvature="0"
             id="path4572"
             d="m 462.48108,693.29199 -3.21157,-21.50355 -0.18617,-1.44287 -0.27927,0 0,22.94642 -4.65445,0 0,-34.21019 6.14387,0 2.97885,15.63895 0.23272,1.81523 0.0931,0 0.23272,-1.81523 2.97885,-15.63895 6.14387,0 0,34.21019 -4.65445,0 0,-22.94642 -0.27927,0 -0.18617,1.44287 -3.21157,21.50355 -2.14105,0 z" />
          <path
             inkscape:connector-curvature="0"
             id="path4574"
             d="m 483.81591,673.88295 c 0,-0.4189 0,-1.07053 -0.13964,-1.53597 -0.18617,-0.46545 -0.55853,-0.79126 -1.16361,-0.79126 -0.79125,0 -1.11707,0.60508 -1.2567,1.34979 -0.0465,0.37236 -0.0931,0.79126 -0.0931,1.21016 0,0.4189 0,0.8378 0,1.21015 l -4.70099,0 0,-1.07052 c 0,-1.86178 0.69817,-3.53738 1.81523,-4.79408 1.11707,-1.2567 2.69958,-2.00141 4.51482,-2.00141 1.53597,0 2.9323,0.60508 4.00282,1.62905 1.07053,1.02398 1.72215,2.46686 1.72215,4.14246 l 0,15.63895 c 0,2.28068 0.13963,3.30465 0.32581,4.42172 l -4.6079,0 c -0.4189,-0.51199 -0.4189,-1.72214 -0.4189,-2.04795 l -0.32581,0 c -0.23273,0.4189 -0.65163,1.02397 -1.30325,1.53596 -0.65162,0.51199 -1.53597,0.88435 -2.46686,0.88435 -0.60508,0 -1.58251,-0.23272 -2.32722,-1.16361 -0.79126,-0.88435 -1.44288,-2.46686 -1.44288,-5.1199 0,-2.83921 0.8378,-4.88717 1.95487,-6.2835 1.11707,-1.39633 2.5134,-2.28068 3.67701,-2.88576 1.16361,-0.60508 2.04796,-1.02398 2.23414,-1.53597 l 0,-2.79266 z m 0,7.1213 c -2.28068,0.97743 -3.25812,3.25811 -3.25812,5.67843 0,0.32581 0.0465,0.88434 0.23273,1.39633 0.18617,0.55853 0.51198,0.97743 1.07052,0.97743 1.07052,0 1.95487,-0.65162 1.95487,-1.53596 l 0,-6.51623 z" />
          <path
             inkscape:connector-curvature="0"
             id="path4576"
             d="m 496.21346,693.29199 -4.70099,0 0,-25.45983 4.70099,0 0,2.14105 c 0.0931,-0.0465 0.27927,-0.23272 0.55854,-0.51199 0.51199,-0.51199 1.21015,-1.21016 2.04795,-1.6756 0.4189,-0.23272 0.79126,-0.32581 1.21016,-0.32581 1.2567,0 2.14105,0.74471 2.69958,1.6756 0.55853,0.97743 0.8378,2.23413 0.8378,3.30466 l 0,20.85192 -4.70099,0 0,-20.15376 c 0,-0.97743 -0.55854,-1.11706 -1.11707,-1.11706 -0.51199,0 -0.79126,0.27926 -1.11707,0.60508 -0.13963,0.18617 -0.27926,0.37235 -0.4189,0.60507 l 0,20.06067 z" />
          <path
             inkscape:connector-curvature="0"
             id="path4578"
             d="m 507.23941,659.0818 4.701,0 0,4.70099 -4.701,0 0,-4.70099 z m 0,34.21019 0,-25.45983 4.701,0 0,25.45983 -4.701,0 z" />
          <path
             inkscape:connector-curvature="0"
             id="path4580"
             d="m 516.67121,693.29199 0,-21.22428 -2.37376,0 0,-4.23555 2.37376,0 0,-0.69816 c 0,-1.30325 0.0466,-3.39775 0.69817,-5.1199 0.65162,-1.72214 1.95487,-3.11848 4.70099,-3.11848 0.74471,0 1.2567,0.0466 1.62906,0.18618 l 0.55853,0.13964 0,4.04937 c -0.13963,-0.0466 -0.27926,-0.0466 -0.4189,-0.0931 -0.32581,-0.0466 -0.65162,-0.0931 -0.97743,-0.0931 -0.79126,0 -1.16361,0.69816 -1.34979,1.58251 -0.0931,0.46544 -0.13963,0.93089 -0.13963,1.39633 0,0.46545 0,0.8378 0,1.11707 l 0,0.65162 2.37376,0 0,4.23555 -2.37376,0 0,21.22428 -4.701,0 z" />
          <path
             inkscape:connector-curvature="0"
             id="path4582"
             d="m 526.51173,659.0818 4.701,0 0,4.70099 -4.701,0 0,-4.70099 z m 0,34.21019 0,-25.45983 4.701,0 0,25.45983 -4.701,0 z" />
          <path
             inkscape:connector-curvature="0"
             id="path4584"
             d="m 546.65095,684.16927 0,2.93231 c -0.13963,2.46685 -0.88434,4.189 -2.55994,5.53879 -0.83781,0.69817 -2.00142,1.02398 -3.53738,1.02398 -3.0254,0 -4.56136,-1.6756 -5.30608,-3.3512 -0.4189,-0.97744 -0.69816,-2.09451 -0.74471,-3.35121 l 0,-12.79973 c 0.13964,-2.46685 0.93089,-4.28209 2.60649,-5.67842 0.79126,-0.69817 1.95487,-1.02398 3.49084,-1.02398 3.02539,0 4.56136,1.6756 5.30607,3.30466 0.4189,0.97743 0.69817,2.04795 0.74471,3.25811 l 0,7.40057 -7.77293,0 0,5.53879 c 0.0466,0.97744 0.32582,1.6756 0.74472,2.18759 0.23272,0.23273 0.55853,0.37236 0.97743,0.37236 0.88434,0 1.30324,-0.55853 1.48942,-1.2567 0.13964,-0.37236 0.18618,-0.79126 0.18618,-1.30325 l 0,-2.79267 4.37518,0 z m -7.77293,-6.42313 3.39775,0 0,-3.58393 c 0,-0.97743 -0.18618,-1.6756 -0.65162,-2.23413 -0.23272,-0.23272 -0.60508,-0.37236 -1.02398,-0.37236 -0.88435,0 -1.2567,0.60508 -1.48942,1.30325 -0.13964,0.37235 -0.18618,0.79125 -0.23273,1.30324 l 0,3.58393 z" />
          <path
             inkscape:connector-curvature="0"
             id="path4586"
             d="m 556.81437,674.34839 c 0,-0.60508 0,-1.34979 -0.18618,-1.95487 -0.23272,-0.55853 -0.60508,-1.02398 -1.34979,-1.02398 -0.60508,0 -0.97743,0.46545 -1.16361,1.02398 -0.23272,0.55854 -0.27927,1.34979 -0.27927,1.95487 0,0.79126 0.4189,1.62906 1.02398,2.37377 0.55853,0.74471 1.30324,1.48942 2.04796,2.18759 0.97743,0.97743 2.14104,2.0945 2.9323,3.3512 0.79125,1.30325 1.39633,2.74613 1.39633,4.42173 0,1.62905 -0.37235,3.3512 -1.30324,4.65444 -0.97744,1.34979 -2.46686,2.32723 -4.70099,2.32723 -2.83922,0 -4.51482,-1.30325 -5.44571,-2.88576 -0.93089,-1.58251 -1.11707,-3.53738 -1.11707,-4.88717 l 4.37518,0 c 0,0.69817 0.0466,1.6756 0.37236,2.42031 0.32581,0.79126 0.8378,1.44288 1.81524,1.44288 1.34978,0 1.62905,-1.58251 1.62905,-3.07193 0,-1.53597 -1.48942,-3.07194 -2.9323,-4.51482 -1.11707,-1.07052 -2.18759,-2.04795 -3.02539,-3.30466 -0.8378,-1.2567 -1.44288,-2.65303 -1.44288,-4.51481 0,-1.48942 0.27927,-3.21157 1.16361,-4.56136 0.88435,-1.30324 2.32723,-2.28068 4.56136,-2.32722 2.74612,-0.0465 4.28209,0.97743 5.07335,2.32722 0.79125,1.34979 0.93089,3.11848 0.93089,4.56136 l -4.37518,0 z" />
          <path
             inkscape:connector-curvature="0"
             id="path4588"
             d="m 569.28029,661.54866 0,6.2835 3.21157,0 0,4.23555 -3.21157,0 0,12.6601 c 0,0.79125 0,1.81523 0.18617,2.65303 0.18618,0.8378 0.55854,1.53597 1.30325,1.53597 0.37236,0 0.8378,-0.0465 1.16361,-0.0931 0.18618,-0.0465 0.37236,-0.0465 0.55854,-0.0931 l 0,4.60791 c -0.23273,0.0465 -0.46545,0.13963 -0.69817,0.18617 -0.46545,0.0931 -1.07052,0.13964 -1.81524,0.13964 -2.74612,0 -4.04937,-1.39634 -4.70099,-3.16503 -0.65162,-1.76869 -0.69817,-3.90973 -0.69817,-5.39916 l 0,-13.03245 -2.37376,0 0,-4.23555 2.37376,0 0,-6.2835 4.701,0 z" />
          <path
             inkscape:connector-curvature="0"
             id="path4590"
             d="m 586.60138,687.10158 c -0.13963,2.46685 -0.88434,4.189 -2.5134,5.53879 -0.8378,0.69817 -2.00141,1.02398 -3.53738,1.02398 -3.02539,0 -4.51481,-1.6756 -5.25952,-3.3512 -0.4189,-0.97744 -0.69817,-2.09451 -0.74472,-3.35121 l 0,-12.79973 c 0.13964,-2.46685 0.88435,-4.28209 2.51341,-5.67842 0.79125,-0.69817 1.95486,-1.02398 3.49083,-1.02398 3.02539,0 4.56136,1.6756 5.30607,3.30466 0.4189,0.97743 0.69817,2.04795 0.74471,3.25811 l 0,13.079 z m -4.42172,-12.93937 c 0.0465,-0.97743 -0.13964,-1.6756 -0.60508,-2.23413 -0.23272,-0.23272 -0.60508,-0.37236 -1.02398,-0.37236 -0.88434,0 -1.2567,0.60508 -1.44288,1.30325 -0.13963,0.37235 -0.18618,0.79125 -0.13963,1.30324 l 0,12.79973 c -0.0465,0.97744 0.18618,1.6756 0.60508,2.18759 0.23272,0.23273 0.55853,0.37236 0.97743,0.37236 0.88435,0 1.30325,-0.55853 1.48942,-1.2567 0.13964,-0.37236 0.18618,-0.79126 0.13964,-1.30325 l 0,-12.79973 z" />
          <path
             inkscape:connector-curvature="0"
             id="path4592"
             d="m 597.0557,667.83216 4.701,0 0,1.67561 c 0.79125,-0.74472 1.48942,-1.30325 2.42031,-1.72215 0.4189,-0.23272 0.88434,-0.32581 1.30324,-0.32581 1.30325,0 2.18759,0.74471 2.79267,1.6756 0.55854,0.97743 0.8378,2.23413 0.8378,3.30466 l 0,16.24402 c 0,1.07052 -0.27926,2.32722 -0.8378,3.25811 -0.60508,0.97744 -1.48942,1.72215 -2.79267,1.72215 -0.88434,0 -1.81523,-0.51199 -2.5134,-1.02398 -0.4189,-0.32581 -0.79125,-0.65162 -1.21015,-1.02398 l 0,10.42596 -4.701,0 0,-34.21019 z m 4.701,19.8745 c 0,0.74471 0.69816,1.53596 1.39633,1.53596 0.69817,0 1.2567,-0.65162 1.2567,-1.53596 l 0,-14.28916 c 0,-0.88434 -0.55853,-1.53597 -1.2567,-1.53597 -0.69817,0 -1.39633,0.65163 -1.39633,1.53597 l 0,14.28916 z" />
          <path
             inkscape:connector-curvature="0"
             id="path4594"
             d="m 624.32785,687.10158 c -0.13963,2.46685 -0.88434,4.189 -2.5134,5.53879 -0.8378,0.69817 -2.00141,1.02398 -3.53738,1.02398 -3.02539,0 -4.51481,-1.6756 -5.25952,-3.3512 -0.4189,-0.97744 -0.69817,-2.09451 -0.74472,-3.35121 l 0,-12.79973 c 0.13964,-2.46685 0.88435,-4.28209 2.51341,-5.67842 0.79125,-0.69817 1.95486,-1.02398 3.49083,-1.02398 3.02539,0 4.56136,1.6756 5.30607,3.30466 0.4189,0.97743 0.69817,2.04795 0.74471,3.25811 l 0,13.079 z m -4.42172,-12.93937 c 0.0465,-0.97743 -0.13963,-1.6756 -0.60508,-2.23413 -0.23272,-0.23272 -0.60508,-0.37236 -1.02398,-0.37236 -0.88434,0 -1.2567,0.60508 -1.44288,1.30325 -0.13963,0.37235 -0.18617,0.79125 -0.13963,1.30324 l 0,12.79973 c -0.0465,0.97744 0.18618,1.6756 0.60508,2.18759 0.23272,0.23273 0.55853,0.37236 0.97743,0.37236 0.88435,0 1.30325,-0.55853 1.48943,-1.2567 0.13963,-0.37236 0.18617,-0.79126 0.13963,-1.30325 l 0,-12.79973 z" />
          <path
             inkscape:connector-curvature="0"
             id="path4596"
             d="m 636.91159,672.67279 c -0.4189,-0.13963 -0.88434,-0.18618 -1.30325,-0.18618 -0.74471,0 -1.62905,0.0931 -2.37376,0.79126 -0.88435,0.74471 -1.02398,1.53597 -1.02398,2.32722 l 0,17.6869 -4.70099,0 0,-25.45983 4.70099,0 0,2.83922 c 0.0465,-0.32581 0.37235,-1.11707 1.11707,-1.86178 0.74471,-0.69817 1.86177,-1.34979 3.58392,-1.34979 l 0,5.21298 z" />
          <path
             inkscape:connector-curvature="0"
             id="path4598"
             d="m 646.14558,693.29199 0,-34.21019 4.70099,0 0,34.21019 -4.70099,0 z" />
          <path
             inkscape:connector-curvature="0"
             id="path4600"
             d="m 661.72126,673.88295 c 0,-0.4189 0,-1.07053 -0.13964,-1.53597 -0.18617,-0.46545 -0.55853,-0.79126 -1.16361,-0.79126 -0.79125,0 -1.11706,0.60508 -1.2567,1.34979 -0.0465,0.37236 -0.0931,0.79126 -0.0931,1.21016 0,0.4189 0,0.8378 0,1.21015 l -4.70099,0 0,-1.07052 c 0,-1.86178 0.69817,-3.53738 1.81524,-4.79408 1.11706,-1.2567 2.69958,-2.00141 4.51481,-2.00141 1.53597,0 2.9323,0.60508 4.00282,1.62905 1.07053,1.02398 1.72215,2.46686 1.72215,4.14246 l 0,15.63895 c 0,2.28068 0.13963,3.30465 0.32581,4.42172 l -4.6079,0 c -0.4189,-0.51199 -0.4189,-1.72214 -0.4189,-2.04795 l -0.32581,0 c -0.23273,0.4189 -0.65163,1.02397 -1.30325,1.53596 -0.65162,0.51199 -1.53597,0.88435 -2.46686,0.88435 -0.60507,0 -1.58251,-0.23272 -2.32722,-1.16361 -0.79126,-0.88435 -1.44288,-2.46686 -1.44288,-5.1199 0,-2.83921 0.8378,-4.88717 1.95487,-6.2835 1.11707,-1.39633 2.5134,-2.28068 3.67701,-2.88576 1.16362,-0.60508 2.04796,-1.02398 2.23414,-1.53597 l 0,-2.79266 z m 0,7.1213 c -2.28068,0.97743 -3.25812,3.25811 -3.25812,5.67843 0,0.32581 0.0466,0.88434 0.23273,1.39633 0.18618,0.55853 0.51199,0.97743 1.07052,0.97743 1.07052,0 1.95487,-0.65162 1.95487,-1.53596 l 0,-6.51623 z" />
        </g>
        <g
           id="text4503-1"
           style="font-style:normal;font-variant:normal;font-weight:normal;font-stretch:normal;font-size:24.15689659px;line-height:125%;font-family:'League Gothic';-inkscape-font-specification:'League Gothic';text-align:end;letter-spacing:0px;word-spacing:0px;text-anchor:end;fill:#000000;fill-opacity:1;stroke:none;stroke-width:1px;stroke-linecap:butt;stroke-linejoin:miter;stroke-opacity:1">
          <path
             inkscape:connector-curvature="0"
             id="path4603"
             d="m 454.14963,632.89648 2.60895,0 0,15.33962 3.45443,0 0,2.41569 -6.06338,0 0,-17.75531 z" />
          <path
             inkscape:connector-curvature="0"
             id="path4605"
             d="m 464.97004,640.57837 c 0,-0.21741 0,-0.55561 -0.0725,-0.79718 -0.0966,-0.24157 -0.28988,-0.41067 -0.60392,-0.41067 -0.41066,0 -0.57976,0.31404 -0.65223,0.70055 -0.0242,0.19326 -0.0483,0.41067 -0.0483,0.62808 0,0.21742 0,0.43483 0,0.62808 l -2.43984,0 0,-0.55561 c 0,-0.96627 0.36235,-1.83592 0.94211,-2.48816 0.57977,-0.65223 1.4011,-1.03874 2.34322,-1.03874 0.79718,0 1.52189,0.31404 2.0775,0.84549 0.55561,0.53145 0.8938,1.28031 0.8938,2.14996 l 0,8.11672 c 0,1.18369 0.0725,1.71514 0.1691,2.2949 l -2.39153,0 c -0.21741,-0.26572 -0.21741,-0.8938 -0.21741,-1.0629 l -0.1691,0 c -0.12079,0.21741 -0.3382,0.53145 -0.6764,0.79718 -0.33819,0.26572 -0.79717,0.45898 -1.28031,0.45898 -0.31404,0 -0.82134,-0.12078 -1.20785,-0.60392 -0.41066,-0.45898 -0.74886,-1.28032 -0.74886,-2.65726 0,-1.47357 0.43482,-2.53648 1.01459,-3.26118 0.57977,-0.72471 1.30447,-1.18369 1.90839,-1.49773 0.60393,-0.31404 1.06291,-0.53145 1.15954,-0.79718 l 0,-1.44941 z m 0,3.696 c -1.18369,0.5073 -1.69099,1.69099 -1.69099,2.94715 0,0.16909 0.0242,0.45898 0.12079,0.7247 0.0966,0.28988 0.26572,0.5073 0.55561,0.5073 0.5556,0 1.01459,-0.3382 1.01459,-0.79718 l 0,-3.38197 z" />
          <path
             inkscape:connector-curvature="0"
             id="path4607"
             d="m 472.66061,640.81994 c 0,-0.31404 0,-0.70055 -0.0966,-1.01459 -0.12078,-0.28988 -0.31404,-0.53145 -0.70055,-0.53145 -0.31404,0 -0.50729,0.24157 -0.60392,0.53145 -0.12078,0.28988 -0.14494,0.70055 -0.14494,1.01459 0,0.41066 0.21741,0.84549 0.53145,1.232 0.28988,0.38651 0.67639,0.77302 1.0629,1.13537 0.5073,0.5073 1.11122,1.08706 1.52189,1.7393 0.41067,0.67639 0.72471,1.42526 0.72471,2.29491 0,0.84549 -0.19326,1.73929 -0.6764,2.41568 -0.50729,0.70055 -1.28031,1.20785 -2.43984,1.20785 -1.47357,0 -2.34322,-0.67639 -2.82636,-1.49773 -0.48314,-0.82133 -0.57977,-1.83592 -0.57977,-2.53647 l 2.27075,0 c 0,0.36235 0.0242,0.86965 0.19326,1.25616 0.1691,0.41066 0.43482,0.74886 0.94212,0.74886 0.70055,0 0.84549,-0.82133 0.84549,-1.59435 0,-0.79718 -0.77302,-1.59436 -1.52189,-2.34322 -0.57976,-0.55561 -1.13537,-1.06291 -1.5702,-1.71514 -0.43482,-0.65224 -0.74886,-1.37695 -0.74886,-2.34322 0,-0.77302 0.14494,-1.66683 0.60392,-2.36738 0.45898,-0.67639 1.20785,-1.18369 2.36738,-1.20784 1.42526,-0.0242 2.22243,0.50729 2.6331,1.20784 0.41067,0.70055 0.48314,1.61851 0.48314,2.36738 l -2.27075,0 z" />
          <path
             inkscape:connector-curvature="0"
             id="path4609"
             d="m 480.14661,632.89648 2.60894,0 c 1.13538,0 2.27075,0.28988 3.1404,1.11121 0.86965,0.82134 1.44941,2.17412 1.44941,4.2033 0,2.02918 -0.57976,3.35781 -1.44941,4.17915 -0.86965,0.82133 -2.00502,1.15953 -3.1404,1.15953 l 0,7.10212 -2.60894,0 0,-17.75531 z m 2.60894,7.99593 c 0.79718,0 1.30447,-0.14494 1.59436,-0.55561 0.28988,-0.38651 0.36235,-1.03875 0.36235,-2.02918 0,-0.99043 -0.0725,-1.69098 -0.36235,-2.12581 -0.28989,-0.43482 -0.79718,-0.62808 -1.59436,-0.62808 l 0,5.33868 z" />
          <path
             inkscape:connector-curvature="0"
             id="path4611"
             d="m 488.63926,650.65179 0,-17.75531 2.43985,0 0,17.75531 -2.43985,0 z" />
          <path
             inkscape:connector-curvature="0"
             id="path4613"
             d="m 499.01918,647.43893 c -0.0725,1.28031 -0.45898,2.17412 -1.30447,2.87467 -0.43483,0.36235 -1.03875,0.53145 -1.83593,0.53145 -1.5702,0 -2.34322,-0.86965 -2.72973,-1.7393 -0.21741,-0.50729 -0.36235,-1.08706 -0.38651,-1.73929 l 0,-6.64315 c 0.0725,-1.28032 0.45898,-2.22243 1.30448,-2.94714 0.41066,-0.36235 1.01459,-0.53145 1.81176,-0.53145 1.5702,0 2.36738,0.86965 2.75389,1.71514 0.21741,0.50729 0.36235,1.0629 0.38651,1.69098 l 0,6.78809 z m -2.29491,-6.71562 c 0.0242,-0.50729 -0.0725,-0.86965 -0.31404,-1.15953 -0.12078,-0.12079 -0.31403,-0.19326 -0.53145,-0.19326 -0.45898,0 -0.65223,0.31404 -0.74886,0.6764 -0.0725,0.19325 -0.0966,0.41066 -0.0725,0.67639 l 0,6.64315 c -0.0242,0.50729 0.0966,0.86964 0.31404,1.13537 0.12078,0.12079 0.28988,0.19326 0.50729,0.19326 0.45898,0 0.6764,-0.28989 0.77302,-0.65224 0.0725,-0.19326 0.0966,-0.41067 0.0725,-0.67639 l 0,-6.64315 z" />
          <path
             inkscape:connector-curvature="0"
             id="path4615"
             d="m 506.97548,650.65179 -2.29491,0 0,-10.45993 c 0,-0.5073 -0.38651,-0.57977 -0.65223,-0.57977 -0.26573,0 -0.48314,0.14494 -0.65224,0.31404 -0.0966,0.0966 -0.19325,0.19326 -0.26572,0.31404 l 0,10.41162 -2.43985,0 0,-13.21382 2.43985,0 0,1.11122 c 0.0483,-0.0242 0.14494,-0.12079 0.28988,-0.26573 0.26573,-0.26572 0.67639,-0.62808 1.11122,-0.86964 0.21741,-0.12079 0.41066,-0.1691 0.62808,-0.1691 0.86964,0 1.37694,0.70055 1.64266,1.47357 0.0966,-0.0725 0.21742,-0.19326 0.38652,-0.36236 0.31403,-0.33819 0.7247,-0.65223 1.18368,-0.91796 0.21742,-0.12078 0.43483,-0.19325 0.65224,-0.19325 0.65224,0 1.11122,0.38651 1.4011,0.86965 0.28988,0.50729 0.43482,1.15953 0.43482,1.71513 l 0,10.82229 -2.2949,0 0,-10.45993 c 0,-0.5073 -0.38651,-0.57977 -0.65224,-0.57977 -0.26572,0 -0.48314,0.14494 -0.65223,0.31404 -0.0966,0.0966 -0.19326,0.19326 -0.26573,0.31404 l 0,10.41162 z" />
          <path
             inkscape:connector-curvature="0"
             id="path4617"
             d="m 518.81349,645.91704 0,1.52189 c -0.0725,1.28031 -0.45898,2.17412 -1.32863,2.87467 -0.43482,0.36235 -1.03874,0.53145 -1.83592,0.53145 -1.5702,0 -2.36738,-0.86965 -2.75389,-1.7393 -0.21741,-0.50729 -0.36235,-1.08706 -0.38651,-1.73929 l 0,-6.64315 c 0.0725,-1.28032 0.48314,-2.22243 1.35279,-2.94714 0.41067,-0.36235 1.01459,-0.53145 1.81177,-0.53145 1.5702,0 2.36737,0.86965 2.75388,1.71514 0.21742,0.50729 0.36236,1.0629 0.38651,1.69098 l 0,3.84095 -4.0342,0 0,2.87467 c 0.0242,0.50729 0.1691,0.86964 0.38651,1.13537 0.12079,0.12079 0.28989,0.19326 0.5073,0.19326 0.45898,0 0.67639,-0.28989 0.77302,-0.65224 0.0725,-0.19326 0.0966,-0.41067 0.0966,-0.67639 l 0,-1.44942 2.27074,0 z m -4.0342,-3.33365 1.76346,0 0,-1.86008 c 0,-0.50729 -0.0966,-0.86965 -0.3382,-1.15953 -0.12079,-0.12079 -0.31404,-0.19326 -0.53145,-0.19326 -0.45898,0 -0.65224,0.31404 -0.77302,0.6764 -0.0725,0.19325 -0.0966,0.41066 -0.12079,0.67639 l 0,1.86008 z" />
          <path
             inkscape:connector-curvature="0"
             id="path4619"
             d="m 525.31925,639.95029 c -0.21741,-0.0725 -0.45898,-0.0966 -0.67639,-0.0966 -0.38651,0 -0.84549,0.0483 -1.232,0.41067 -0.45899,0.38651 -0.53146,0.79718 -0.53146,1.20784 l 0,9.17962 -2.43984,0 0,-13.21382 2.43984,0 0,1.47357 c 0.0242,-0.1691 0.19326,-0.57976 0.57977,-0.96627 0.38651,-0.36236 0.96628,-0.70055 1.86008,-0.70055 l 0,2.70557 z" />
          <path
             inkscape:connector-curvature="0"
             id="path4621"
             d="m 529.8917,640.57837 c 0,-0.21741 0,-0.55561 -0.0725,-0.79718 -0.0966,-0.24157 -0.28989,-0.41067 -0.60393,-0.41067 -0.41066,0 -0.57976,0.31404 -0.65223,0.70055 -0.0242,0.19326 -0.0483,0.41067 -0.0483,0.62808 0,0.21742 0,0.43483 0,0.62808 l -2.43984,0 0,-0.55561 c 0,-0.96627 0.36235,-1.83592 0.94212,-2.48816 0.57976,-0.65223 1.4011,-1.03874 2.34322,-1.03874 0.79717,0 1.52188,0.31404 2.07749,0.84549 0.55561,0.53145 0.8938,1.28031 0.8938,2.14996 l 0,8.11672 c 0,1.18369 0.0725,1.71514 0.1691,2.2949 l -2.39153,0 c -0.21741,-0.26572 -0.21741,-0.8938 -0.21741,-1.0629 l -0.1691,0 c -0.12079,0.21741 -0.3382,0.53145 -0.67639,0.79718 -0.3382,0.26572 -0.79718,0.45898 -1.28032,0.45898 -0.31404,0 -0.82133,-0.12078 -1.20784,-0.60392 -0.41067,-0.45898 -0.74887,-1.28032 -0.74887,-2.65726 0,-1.47357 0.43483,-2.53648 1.01459,-3.26118 0.57977,-0.72471 1.30447,-1.18369 1.9084,-1.49773 0.60392,-0.31404 1.0629,-0.53145 1.15953,-0.79718 l 0,-1.44941 z m 0,3.696 c -1.18369,0.5073 -1.69099,1.69099 -1.69099,2.94715 0,0.16909 0.0242,0.45898 0.12079,0.7247 0.0966,0.28988 0.26572,0.5073 0.55561,0.5073 0.55561,0 1.01459,-0.3382 1.01459,-0.79718 l 0,-3.38197 z" />
          <path
             inkscape:connector-curvature="0"
             id="path4623"
             d="m 537.58227,640.81994 c 0,-0.31404 0,-0.70055 -0.0966,-1.01459 -0.12078,-0.28988 -0.31404,-0.53145 -0.70055,-0.53145 -0.31404,0 -0.50729,0.24157 -0.60392,0.53145 -0.12078,0.28988 -0.14494,0.70055 -0.14494,1.01459 0,0.41066 0.21741,0.84549 0.53145,1.232 0.28988,0.38651 0.6764,0.77302 1.06291,1.13537 0.50729,0.5073 1.11121,1.08706 1.52188,1.7393 0.41067,0.67639 0.72471,1.42526 0.72471,2.29491 0,0.84549 -0.19326,1.73929 -0.6764,2.41568 -0.50729,0.70055 -1.28031,1.20785 -2.43984,1.20785 -1.47357,0 -2.34322,-0.67639 -2.82636,-1.49773 -0.48314,-0.82133 -0.57977,-1.83592 -0.57977,-2.53647 l 2.27075,0 c 0,0.36235 0.0242,0.86965 0.19326,1.25616 0.1691,0.41066 0.43482,0.74886 0.94212,0.74886 0.70055,0 0.84549,-0.82133 0.84549,-1.59435 0,-0.79718 -0.77302,-1.59436 -1.52189,-2.34322 -0.57976,-0.55561 -1.13537,-1.06291 -1.57019,-1.71514 -0.43483,-0.65224 -0.74887,-1.37695 -0.74887,-2.34322 0,-0.77302 0.14494,-1.66683 0.60392,-2.36738 0.45899,-0.67639 1.20785,-1.18369 2.36738,-1.20784 1.42526,-0.0242 2.22243,0.50729 2.6331,1.20784 0.41067,0.70055 0.48314,1.61851 0.48314,2.36738 l -2.27075,0 z" />
          <path
             inkscape:connector-curvature="0"
             id="path4625"
             d="m 551.22827,650.65179 -2.43984,0 0,-0.86964 c -0.41067,0.38651 -0.77302,0.67639 -1.232,0.8938 -0.24157,0.12079 -0.48314,0.1691 -0.70055,0.1691 -0.6764,0 -1.13538,-0.38651 -1.42526,-0.89381 -0.31404,-0.48313 -0.45898,-1.13537 -0.45898,-1.69098 l 0,-8.43076 c 0,-0.5556 0.14494,-1.20784 0.45898,-1.71513 0.28988,-0.48314 0.74886,-0.86965 1.42526,-0.86965 0.45898,0 0.94211,0.26572 1.30447,0.53145 0.21741,0.1691 0.41067,0.3382 0.62808,0.53145 l 0,-5.41114 2.43984,0 0,17.75531 z m -2.43984,-10.31499 c 0,-0.38651 -0.36236,-0.79718 -0.72471,-0.79718 -0.36235,0 -0.65224,0.3382 -0.65224,0.79718 l 0,7.41617 c 0,0.45898 0.28989,0.79717 0.65224,0.79717 0.36235,0 0.72471,-0.33819 0.72471,-0.79717 l 0,-7.41617 z" />
          <path
             inkscape:connector-curvature="0"
             id="path4627"
             d="m 559.29516,645.91704 0,1.52189 c -0.0725,1.28031 -0.45898,2.17412 -1.32862,2.87467 -0.43483,0.36235 -1.03875,0.53145 -1.83593,0.53145 -1.5702,0 -2.36737,-0.86965 -2.75389,-1.7393 -0.21741,-0.50729 -0.36235,-1.08706 -0.38651,-1.73929 l 0,-6.64315 c 0.0725,-1.28032 0.48314,-2.22243 1.35279,-2.94714 0.41067,-0.36235 1.01459,-0.53145 1.81177,-0.53145 1.5702,0 2.36737,0.86965 2.75388,1.71514 0.21742,0.50729 0.36236,1.0629 0.38651,1.69098 l 0,3.84095 -4.0342,0 0,2.87467 c 0.0242,0.50729 0.1691,0.86964 0.38651,1.13537 0.12079,0.12079 0.28989,0.19326 0.5073,0.19326 0.45898,0 0.67639,-0.28989 0.77302,-0.65224 0.0725,-0.19326 0.0966,-0.41067 0.0966,-0.67639 l 0,-1.44942 2.27074,0 z m -4.0342,-3.33365 1.76346,0 0,-1.86008 c 0,-0.50729 -0.0966,-0.86965 -0.3382,-1.15953 -0.12078,-0.12079 -0.31404,-0.19326 -0.53145,-0.19326 -0.45898,0 -0.65224,0.31404 -0.77302,0.6764 -0.0725,0.19325 -0.0966,0.41066 -0.12079,0.67639 l 0,1.86008 z" />
          <path
             inkscape:connector-curvature="0"
             id="path4629"
             d="m 564.69575,650.65179 0,-17.75531 2.43984,0 0,17.75531 -2.43984,0 z" />
          <path
             inkscape:connector-curvature="0"
             id="path4631"
             d="m 572.77962,640.57837 c 0,-0.21741 0,-0.55561 -0.0725,-0.79718 -0.0966,-0.24157 -0.28988,-0.41067 -0.60392,-0.41067 -0.41067,0 -0.57977,0.31404 -0.65224,0.70055 -0.0242,0.19326 -0.0483,0.41067 -0.0483,0.62808 0,0.21742 0,0.43483 0,0.62808 l -2.43985,0 0,-0.55561 c 0,-0.96627 0.36235,-1.83592 0.94212,-2.48816 0.57977,-0.65223 1.4011,-1.03874 2.34322,-1.03874 0.79718,0 1.52188,0.31404 2.07749,0.84549 0.55561,0.53145 0.89381,1.28031 0.89381,2.14996 l 0,8.11672 c 0,1.18369 0.0725,1.71514 0.1691,2.2949 l -2.39154,0 c -0.21741,-0.26572 -0.21741,-0.8938 -0.21741,-1.0629 l -0.1691,0 c -0.12078,0.21741 -0.33819,0.53145 -0.67639,0.79718 -0.3382,0.26572 -0.79718,0.45898 -1.28032,0.45898 -0.31404,0 -0.82133,-0.12078 -1.20784,-0.60392 -0.41067,-0.45898 -0.74886,-1.28032 -0.74886,-2.65726 0,-1.47357 0.43482,-2.53648 1.01459,-3.26118 0.57976,-0.72471 1.30447,-1.18369 1.90839,-1.49773 0.60392,-0.31404 1.0629,-0.53145 1.15953,-0.79718 l 0,-1.44941 z m 0,3.696 c -1.18369,0.5073 -1.69098,1.69099 -1.69098,2.94715 0,0.16909 0.0242,0.45898 0.12078,0.7247 0.0966,0.28988 0.26573,0.5073 0.55561,0.5073 0.55561,0 1.01459,-0.3382 1.01459,-0.79718 l 0,-3.38197 z" />
          <path
             inkscape:connector-curvature="0"
             id="path4633"
             d="m 580.4702,640.81994 c 0,-0.31404 0,-0.70055 -0.0966,-1.01459 -0.12079,-0.28988 -0.31404,-0.53145 -0.70055,-0.53145 -0.31404,0 -0.5073,0.24157 -0.60392,0.53145 -0.12079,0.28988 -0.14495,0.70055 -0.14495,1.01459 0,0.41066 0.21742,0.84549 0.53146,1.232 0.28988,0.38651 0.67639,0.77302 1.0629,1.13537 0.50729,0.5073 1.11122,1.08706 1.52188,1.7393 0.41067,0.67639 0.72471,1.42526 0.72471,2.29491 0,0.84549 -0.19325,1.73929 -0.67639,2.41568 -0.5073,0.70055 -1.28032,1.20785 -2.43985,1.20785 -1.47357,0 -2.34322,-0.67639 -2.82636,-1.49773 -0.48313,-0.82133 -0.57976,-1.83592 -0.57976,-2.53647 l 2.27075,0 c 0,0.36235 0.0241,0.86965 0.19325,1.25616 0.1691,0.41066 0.43483,0.74886 0.94212,0.74886 0.70055,0 0.84549,-0.82133 0.84549,-1.59435 0,-0.79718 -0.77302,-1.59436 -1.52188,-2.34322 -0.57977,-0.55561 -1.13538,-1.06291 -1.5702,-1.71514 -0.43482,-0.65224 -0.74886,-1.37695 -0.74886,-2.34322 0,-0.77302 0.14494,-1.66683 0.60392,-2.36738 0.45898,-0.67639 1.20784,-1.18369 2.36737,-1.20784 1.42526,-0.0242 2.22244,0.50729 2.63311,1.20784 0.41066,0.70055 0.48313,1.61851 0.48313,2.36738 l -2.27074,0 z" />
          <path
             inkscape:connector-curvature="0"
             id="path4635"
             d="m 587.9562,632.89648 2.60894,0 c 1.13538,0 2.27075,0.28988 3.1404,1.11121 0.86965,0.82134 1.44941,2.17412 1.44941,4.2033 0,2.02918 -0.57976,3.35781 -1.44941,4.17915 -0.86965,0.82133 -2.00502,1.15953 -3.1404,1.15953 l 0,7.10212 -2.60894,0 0,-17.75531 z m 2.60894,7.99593 c 0.79718,0 1.30447,-0.14494 1.59436,-0.55561 0.28988,-0.38651 0.36235,-1.03875 0.36235,-2.02918 0,-0.99043 -0.0725,-1.69098 -0.36235,-2.12581 -0.28989,-0.43482 -0.79718,-0.62808 -1.59436,-0.62808 l 0,5.33868 z" />
          <path
             inkscape:connector-curvature="0"
             id="path4637"
             d="m 596.44886,650.65179 0,-17.75531 2.43984,0 0,17.75531 -2.43984,0 z" />
          <path
             inkscape:connector-curvature="0"
             id="path4639"
             d="m 604.53273,640.57837 c 0,-0.21741 0,-0.55561 -0.0725,-0.79718 -0.0966,-0.24157 -0.28989,-0.41067 -0.60393,-0.41067 -0.41066,0 -0.57976,0.31404 -0.65223,0.70055 -0.0242,0.19326 -0.0483,0.41067 -0.0483,0.62808 0,0.21742 0,0.43483 0,0.62808 l -2.43984,0 0,-0.55561 c 0,-0.96627 0.36235,-1.83592 0.94212,-2.48816 0.57976,-0.65223 1.4011,-1.03874 2.34321,-1.03874 0.79718,0 1.52189,0.31404 2.0775,0.84549 0.55561,0.53145 0.8938,1.28031 0.8938,2.14996 l 0,8.11672 c 0,1.18369 0.0725,1.71514 0.1691,2.2949 l -2.39153,0 c -0.21741,-0.26572 -0.21741,-0.8938 -0.21741,-1.0629 l -0.1691,0 c -0.12079,0.21741 -0.3382,0.53145 -0.6764,0.79718 -0.33819,0.26572 -0.79717,0.45898 -1.28031,0.45898 -0.31404,0 -0.82134,-0.12078 -1.20785,-0.60392 -0.41066,-0.45898 -0.74886,-1.28032 -0.74886,-2.65726 0,-1.47357 0.43482,-2.53648 1.01459,-3.26118 0.57977,-0.72471 1.30447,-1.18369 1.9084,-1.49773 0.60392,-0.31404 1.0629,-0.53145 1.15953,-0.79718 l 0,-1.44941 z m 0,3.696 c -1.18369,0.5073 -1.69099,1.69099 -1.69099,2.94715 0,0.16909 0.0242,0.45898 0.12079,0.7247 0.0966,0.28988 0.26572,0.5073 0.55561,0.5073 0.55561,0 1.01459,-0.3382 1.01459,-0.79718 l 0,-3.38197 z" />
          <path
             inkscape:connector-curvature="0"
             id="path4641"
             d="m 611.38008,634.17679 0,3.26118 1.66683,0 0,2.19828 -1.66683,0 0,6.57068 c 0,0.41066 0,0.94211 0.0966,1.37694 0.0966,0.43482 0.28988,0.79718 0.6764,0.79718 0.19325,0 0.43482,-0.0242 0.60392,-0.0483 0.0966,-0.0241 0.19325,-0.0241 0.28988,-0.0483 l 0,2.39153 c -0.12078,0.0242 -0.24157,0.0725 -0.36235,0.0966 -0.24157,0.0483 -0.55561,0.0725 -0.94212,0.0725 -1.42526,0 -2.10165,-0.72471 -2.43985,-1.64267 -0.3382,-0.91796 -0.36235,-2.02918 -0.36235,-2.8022 l 0,-6.76393 -1.232,0 0,-2.19828 1.232,0 0,-3.26118 2.43984,0 z" />
          <path
             inkscape:connector-curvature="0"
             id="path4643"
             d="m 617.97944,640.57837 c 0,-0.21741 0,-0.55561 -0.0725,-0.79718 -0.0966,-0.24157 -0.28988,-0.41067 -0.60392,-0.41067 -0.41067,0 -0.57977,0.31404 -0.65224,0.70055 -0.0241,0.19326 -0.0483,0.41067 -0.0483,0.62808 0,0.21742 0,0.43483 0,0.62808 l -2.43985,0 0,-0.55561 c 0,-0.96627 0.36236,-1.83592 0.94212,-2.48816 0.57977,-0.65223 1.4011,-1.03874 2.34322,-1.03874 0.79718,0 1.52189,0.31404 2.07749,0.84549 0.55561,0.53145 0.89381,1.28031 0.89381,2.14996 l 0,8.11672 c 0,1.18369 0.0725,1.71514 0.1691,2.2949 l -2.39154,0 c -0.21741,-0.26572 -0.21741,-0.8938 -0.21741,-1.0629 l -0.1691,0 c -0.12078,0.21741 -0.33819,0.53145 -0.67639,0.79718 -0.3382,0.26572 -0.79718,0.45898 -1.28031,0.45898 -0.31404,0 -0.82134,-0.12078 -1.20785,-0.60392 -0.41067,-0.45898 -0.74886,-1.28032 -0.74886,-2.65726 0,-1.47357 0.43482,-2.53648 1.01459,-3.26118 0.57976,-0.72471 1.30447,-1.18369 1.90839,-1.49773 0.60392,-0.31404 1.06291,-0.53145 1.15953,-0.79718 l 0,-1.44941 z m 0,3.696 c -1.18369,0.5073 -1.69098,1.69099 -1.69098,2.94715 0,0.16909 0.0242,0.45898 0.12078,0.7247 0.0966,0.28988 0.26573,0.5073 0.55561,0.5073 0.55561,0 1.01459,-0.3382 1.01459,-0.79718 l 0,-3.38197 z" />
          <path
             inkscape:connector-curvature="0"
             id="path4645"
             d="m 622.43412,650.65179 0,-11.01554 -1.232,0 0,-2.19828 1.232,0 0,-0.36235 c 0,-0.67639 0.0242,-1.76345 0.36235,-2.65726 0.3382,-0.89381 1.01459,-1.61851 2.43985,-1.61851 0.38651,0 0.65224,0.0241 0.84549,0.0966 l 0.28988,0.0725 0,2.10165 c -0.0725,-0.0242 -0.14494,-0.0242 -0.21741,-0.0483 -0.1691,-0.0242 -0.3382,-0.0483 -0.50729,-0.0483 -0.41067,0 -0.60393,0.36235 -0.70055,0.82133 -0.0483,0.24157 -0.0725,0.48314 -0.0725,0.72471 0,0.24157 0,0.43482 0,0.57977 l 0,0.33819 1.232,0 0,2.19828 -1.232,0 0,11.01554 -2.43985,0 z" />
          <path
             inkscape:connector-curvature="0"
             id="path4647"
             d="m 633.58064,647.43893 c -0.0725,1.28031 -0.45898,2.17412 -1.30447,2.87467 -0.43482,0.36235 -1.03875,0.53145 -1.83592,0.53145 -1.5702,0 -2.34322,-0.86965 -2.72973,-1.7393 -0.21742,-0.50729 -0.36236,-1.08706 -0.38651,-1.73929 l 0,-6.64315 c 0.0725,-1.28032 0.45898,-2.22243 1.30447,-2.94714 0.41067,-0.36235 1.01459,-0.53145 1.81177,-0.53145 1.57019,0 2.36737,0.86965 2.75388,1.71514 0.21741,0.50729 0.36236,1.0629 0.38651,1.69098 l 0,6.78809 z m -2.2949,-6.71562 c 0.0241,-0.50729 -0.0725,-0.86965 -0.31404,-1.15953 -0.12079,-0.12079 -0.31404,-0.19326 -0.53145,-0.19326 -0.45899,0 -0.65224,0.31404 -0.74887,0.6764 -0.0725,0.19325 -0.0966,0.41066 -0.0725,0.67639 l 0,6.64315 c -0.0242,0.50729 0.0966,0.86964 0.31404,1.13537 0.12079,0.12079 0.28988,0.19326 0.5073,0.19326 0.45898,0 0.67639,-0.28989 0.77302,-0.65224 0.0725,-0.19326 0.0966,-0.41067 0.0725,-0.67639 l 0,-6.64315 z" />
          <path
             inkscape:connector-curvature="0"
             id="path4649"
             d="m 640.11169,639.95029 c -0.21741,-0.0725 -0.45898,-0.0966 -0.67639,-0.0966 -0.38651,0 -0.84549,0.0483 -1.232,0.41067 -0.45898,0.38651 -0.53145,0.79718 -0.53145,1.20784 l 0,9.17962 -2.43985,0 0,-13.21382 2.43985,0 0,1.47357 c 0.0242,-0.1691 0.19325,-0.57976 0.57976,-0.96627 0.38651,-0.36236 0.96628,-0.70055 1.86008,-0.70055 l 0,2.70557 z" />
          <path
             inkscape:connector-curvature="0"
             id="path4651"
             d="m 647.4818,650.65179 -2.2949,0 0,-10.45993 c 0,-0.5073 -0.38651,-0.57977 -0.65224,-0.57977 -0.26572,0 -0.48313,0.14494 -0.65223,0.31404 -0.0966,0.0966 -0.19326,0.19326 -0.26573,0.31404 l 0,10.41162 -2.43985,0 0,-13.21382 2.43985,0 0,1.11122 c 0.0483,-0.0242 0.14494,-0.12079 0.28988,-0.26573 0.26573,-0.26572 0.6764,-0.62808 1.11122,-0.86964 0.21741,-0.12079 0.41067,-0.1691 0.62808,-0.1691 0.86965,0 1.37694,0.70055 1.64267,1.47357 0.0966,-0.0725 0.21741,-0.19326 0.38651,-0.36236 0.31404,-0.33819 0.72471,-0.65223 1.18369,-0.91796 0.21741,-0.12078 0.43482,-0.19325 0.65223,-0.19325 0.65224,0 1.11122,0.38651 1.4011,0.86965 0.28989,0.50729 0.43483,1.15953 0.43483,1.71513 l 0,10.82229 -2.29491,0 0,-10.45993 c 0,-0.5073 -0.38651,-0.57977 -0.65223,-0.57977 -0.26573,0 -0.48314,0.14494 -0.65224,0.31404 -0.0966,0.0966 -0.19325,0.19326 -0.26573,0.31404 l 0,10.41162 z" />
          <path
             inkscape:connector-curvature="0"
             id="path4653"
             d="m 656.76258,640.57837 c 0,-0.21741 0,-0.55561 -0.0725,-0.79718 -0.0966,-0.24157 -0.28988,-0.41067 -0.60392,-0.41067 -0.41067,0 -0.57976,0.31404 -0.65223,0.70055 -0.0242,0.19326 -0.0483,0.41067 -0.0483,0.62808 0,0.21742 0,0.43483 0,0.62808 l -2.43984,0 0,-0.55561 c 0,-0.96627 0.36235,-1.83592 0.94211,-2.48816 0.57977,-0.65223 1.4011,-1.03874 2.34322,-1.03874 0.79718,0 1.52189,0.31404 2.0775,0.84549 0.5556,0.53145 0.8938,1.28031 0.8938,2.14996 l 0,8.11672 c 0,1.18369 0.0725,1.71514 0.1691,2.2949 l -2.39153,0 c -0.21742,-0.26572 -0.21742,-0.8938 -0.21742,-1.0629 l -0.16909,0 c -0.12079,0.21741 -0.3382,0.53145 -0.6764,0.79718 -0.33819,0.26572 -0.79717,0.45898 -1.28031,0.45898 -0.31404,0 -0.82134,-0.12078 -1.20785,-0.60392 -0.41066,-0.45898 -0.74886,-1.28032 -0.74886,-2.65726 0,-1.47357 0.43482,-2.53648 1.01459,-3.26118 0.57976,-0.72471 1.30447,-1.18369 1.90839,-1.49773 0.60393,-0.31404 1.06291,-0.53145 1.15953,-0.79718 l 0,-1.44941 z m 0,3.696 c -1.18368,0.5073 -1.69098,1.69099 -1.69098,2.94715 0,0.16909 0.0242,0.45898 0.12079,0.7247 0.0966,0.28988 0.26572,0.5073 0.55561,0.5073 0.5556,0 1.01458,-0.3382 1.01458,-0.79718 l 0,-3.38197 z" />
          <path
             inkscape:connector-curvature="0"
             id="path4655"
             d="m 664.45315,640.81994 c 0,-0.31404 0,-0.70055 -0.0966,-1.01459 -0.12078,-0.28988 -0.31404,-0.53145 -0.70055,-0.53145 -0.31404,0 -0.50729,0.24157 -0.60392,0.53145 -0.12078,0.28988 -0.14494,0.70055 -0.14494,1.01459 0,0.41066 0.21741,0.84549 0.53145,1.232 0.28988,0.38651 0.6764,0.77302 1.06291,1.13537 0.50729,0.5073 1.11121,1.08706 1.52188,1.7393 0.41067,0.67639 0.72471,1.42526 0.72471,2.29491 0,0.84549 -0.19326,1.73929 -0.6764,2.41568 -0.50729,0.70055 -1.28031,1.20785 -2.43984,1.20785 -1.47357,0 -2.34322,-0.67639 -2.82636,-1.49773 -0.48314,-0.82133 -0.57977,-1.83592 -0.57977,-2.53647 l 2.27075,0 c 0,0.36235 0.0242,0.86965 0.19326,1.25616 0.1691,0.41066 0.43482,0.74886 0.94212,0.74886 0.70055,0 0.84549,-0.82133 0.84549,-1.59435 0,-0.79718 -0.77302,-1.59436 -1.52189,-2.34322 -0.57976,-0.55561 -1.13537,-1.06291 -1.57019,-1.71514 -0.43483,-0.65224 -0.74887,-1.37695 -0.74887,-2.34322 0,-0.77302 0.14494,-1.66683 0.60392,-2.36738 0.45899,-0.67639 1.20785,-1.18369 2.36738,-1.20784 1.42526,-0.0242 2.22243,0.50729 2.6331,1.20784 0.41067,0.70055 0.48314,1.61851 0.48314,2.36738 l -2.27075,0 z" />
        </g>
        <g
           id="text4503-4"
           style="font-style:normal;font-variant:normal;font-weight:normal;font-stretch:normal;font-size:39.23984528px;line-height:125%;font-family:'League Gothic';-inkscape-font-specification:'League Gothic';text-align:start;letter-spacing:0px;word-spacing:0px;text-anchor:start;fill:#000000;fill-opacity:1;stroke:none;stroke-width:1px;stroke-linecap:butt;stroke-linejoin:miter;stroke-opacity:1">
          <path
             inkscape:connector-curvature="0"
             id="path4658"
             d="m 454.14961,708.38346 3.96323,0 0,1.41264 c 0.66707,-0.62784 1.25567,-1.09872 2.04047,-1.45188 0.35316,-0.1962 0.74555,-0.27468 1.09871,-0.27468 1.09872,0 1.84428,0.62784 2.35439,1.41264 0.47088,0.82403 0.70632,1.88351 0.70632,2.78603 l 0,13.6947 c 0,0.90252 -0.23544,1.96199 -0.70632,2.74679 -0.51011,0.82404 -1.25567,1.45188 -2.35439,1.45188 -0.74555,0 -1.53035,-0.43164 -2.11895,-0.86328 -0.35316,-0.27468 -0.66708,-0.54936 -1.02023,-0.86328 l 0,8.78973 -3.96323,0 0,-28.84129 z m 3.96323,16.75541 c 0,0.62784 0.58859,1.29492 1.17719,1.29492 0.5886,0 1.05948,-0.54936 1.05948,-1.29492 l 0,-12.04663 c 0,-0.74555 -0.47088,-1.29491 -1.05948,-1.29491 -0.5886,0 -1.17719,0.54936 -1.17719,1.29491 l 0,12.04663 z" />
          <path
             inkscape:connector-curvature="0"
             id="path4660"
             d="m 475.2582,712.4644 c -0.35316,-0.11771 -0.74556,-0.15695 -1.09872,-0.15695 -0.62784,0 -1.3734,0.0785 -2.00123,0.66707 -0.74556,0.62784 -0.86328,1.29492 -0.86328,1.962 l 0,14.91114 -3.96322,0 0,-21.4642 3.96322,0 0,2.39363 c 0.0392,-0.27468 0.31392,-0.94175 0.94176,-1.56959 0.62783,-0.5886 1.56959,-1.13796 3.02147,-1.13796 l 0,4.39486 z" />
          <path
             inkscape:connector-curvature="0"
             id="path4662"
             d="m 486.76283,722.15665 0,2.47211 c -0.11772,2.07971 -0.74556,3.53158 -2.15819,4.66954 -0.70632,0.5886 -1.68732,0.86328 -2.98223,0.86328 -2.55059,0 -3.84551,-1.41264 -4.47334,-2.82527 -0.35316,-0.82404 -0.5886,-1.7658 -0.62784,-2.82527 l 0,-10.79096 c 0.11772,-2.07971 0.78479,-3.61007 2.19743,-4.78726 0.66708,-0.5886 1.64807,-0.86328 2.94299,-0.86328 2.55059,0 3.8455,1.41264 4.47334,2.78603 0.35316,0.82404 0.5886,1.72655 0.62784,2.74679 l 0,6.23914 -6.55306,0 0,4.66954 c 0.0392,0.82403 0.27468,1.41263 0.62784,1.84427 0.1962,0.1962 0.47088,0.31392 0.82404,0.31392 0.74555,0 1.09871,-0.47088 1.25567,-1.05948 0.11772,-0.31392 0.15696,-0.66707 0.15696,-1.09871 l 0,-2.35439 3.68855,0 z m -6.55306,-5.4151 2.86451,0 0,-3.02147 c 0,-0.82404 -0.15696,-1.41263 -0.54936,-1.88351 -0.1962,-0.1962 -0.51011,-0.31392 -0.86327,-0.31392 -0.74556,0 -1.05948,0.51012 -1.25568,1.09871 -0.11772,0.31392 -0.15696,0.66708 -0.1962,1.09872 l 0,3.02147 z" />
          <path
             inkscape:connector-curvature="0"
             id="path4664"
             d="m 491.48755,729.84766 -3.49235,-21.4642 3.84551,0 1.29491,12.43903 0.15696,1.3734 0.31392,0 0.15696,-1.3734 1.29492,-12.43903 3.8455,0 -3.49234,21.4642 -3.92399,0 z" />
          <path
             inkscape:connector-curvature="0"
             id="path4666"
             d="m 510.59797,722.15665 0,2.47211 c -0.11772,2.07971 -0.74556,3.53158 -2.15819,4.66954 -0.70632,0.5886 -1.68732,0.86328 -2.98223,0.86328 -2.55059,0 -3.84551,-1.41264 -4.47334,-2.82527 -0.35316,-0.82404 -0.5886,-1.7658 -0.62784,-2.82527 l 0,-10.79096 c 0.11772,-2.07971 0.78479,-3.61007 2.19743,-4.78726 0.66708,-0.5886 1.64807,-0.86328 2.94299,-0.86328 2.55059,0 3.8455,1.41264 4.47334,2.78603 0.35316,0.82404 0.5886,1.72655 0.62784,2.74679 l 0,6.23914 -6.55306,0 0,4.66954 c 0.0392,0.82403 0.27468,1.41263 0.62784,1.84427 0.1962,0.1962 0.47088,0.31392 0.82404,0.31392 0.74555,0 1.09871,-0.47088 1.25567,-1.05948 0.11772,-0.31392 0.15696,-0.66707 0.15696,-1.09871 l 0,-2.35439 3.68855,0 z m -6.55306,-5.4151 2.86451,0 0,-3.02147 c 0,-0.82404 -0.15696,-1.41263 -0.54936,-1.88351 -0.1962,-0.1962 -0.51011,-0.31392 -0.86327,-0.31392 -0.74556,0 -1.05948,0.51012 -1.25568,1.09871 -0.11772,0.31392 -0.15696,0.66708 -0.1962,1.09872 l 0,3.02147 z" />
          <path
             inkscape:connector-curvature="0"
             id="path4668"
             d="m 517.20252,729.84766 -3.96322,0 0,-21.4642 3.96322,0 0,1.80503 c 0.0785,-0.0392 0.23544,-0.1962 0.47088,-0.43163 0.43164,-0.43164 1.02024,-1.02024 1.72655,-1.41264 0.35316,-0.1962 0.66708,-0.27468 1.02024,-0.27468 1.05948,0 1.80503,0.62784 2.27591,1.41264 0.47088,0.82403 0.70632,1.88351 0.70632,2.78603 l 0,17.57945 -3.96323,0 0,-16.99086 c 0,-0.82403 -0.47087,-0.94175 -0.94175,-0.94175 -0.43164,0 -0.66708,0.23544 -0.94176,0.51011 -0.11772,0.15696 -0.23544,0.31392 -0.35316,0.51012 l 0,16.91238 z" />
          <path
             inkscape:connector-curvature="0"
             id="path4670"
             d="m 530.14738,724.90344 c 0,0.78479 0.0392,1.72655 1.09872,1.72655 0.90251,0 1.13795,-0.43164 1.13795,-1.72655 l 0,-2.98223 3.96323,0 0,2.07971 c 0,2.39363 -0.43164,3.92398 -1.29492,4.86574 -0.86327,0.94176 -2.11895,1.29492 -3.80626,1.29492 -1.41264,0 -2.70755,-0.3924 -3.61007,-1.3734 -0.90252,-0.981 -1.45187,-2.58983 -1.45187,-4.98346 l 0,-9.37832 c 0,-2.39363 0.54935,-4.00247 1.45187,-4.98346 0.90252,-0.981 2.19743,-1.3734 3.61007,-1.3734 1.68731,0 2.94299,0.35316 3.80626,1.29492 0.86328,0.94175 1.29492,2.47211 1.29492,4.86574 l 0,1.68731 -3.96323,0 0,-2.58983 c 0,-1.29491 -0.23544,-1.72655 -1.13795,-1.72655 -1.05948,0 -1.09872,0.94175 -1.09872,1.72655 l 0,11.57576 z" />
          <path
             inkscape:connector-curvature="0"
             id="path4672"
             d="m 538.76053,701.00637 3.96322,0 0,3.96322 -3.96322,0 0,-3.96322 z m 0,28.84129 0,-21.4642 3.96322,0 0,21.4642 -3.96322,0 z" />
          <path
             inkscape:connector-curvature="0"
             id="path4674"
             d="m 555.38596,701.32029 -3.09995,3.53158 -3.06071,0 2.04048,-3.53158 4.12018,0 z m 0.23544,23.30847 c -0.11772,2.07971 -0.74556,3.53158 -2.11895,4.66954 -0.70632,0.5886 -1.68732,0.86328 -2.98223,0.86328 -2.55059,0 -3.80627,-1.41264 -4.4341,-2.82527 -0.35316,-0.82404 -0.5886,-1.7658 -0.62784,-2.82527 l 0,-10.79096 c 0.11772,-2.07971 0.74556,-3.61007 2.11895,-4.78726 0.66708,-0.5886 1.64807,-0.86328 2.94299,-0.86328 2.55059,0 3.8455,1.41264 4.47334,2.78603 0.35316,0.82404 0.5886,1.72655 0.62784,2.74679 l 0,11.0264 z m -3.72779,-10.90868 c 0.0392,-0.82404 -0.11772,-1.41263 -0.51011,-1.88351 -0.1962,-0.1962 -0.51012,-0.31392 -0.86328,-0.31392 -0.74556,0 -1.05948,0.51012 -1.21644,1.09871 -0.11772,0.31392 -0.15696,0.66708 -0.11772,1.09872 l 0,10.79096 c -0.0392,0.82403 0.15696,1.41263 0.51012,1.84427 0.1962,0.1962 0.47088,0.31392 0.82404,0.31392 0.74556,0 1.09872,-0.47088 1.25567,-1.05948 0.11772,-0.31392 0.15696,-0.66707 0.11772,-1.09871 l 0,-10.79096 z" />
          <path
             inkscape:connector-curvature="0"
             id="path4676"
             d="m 562.26703,729.84766 -3.96322,0 0,-21.4642 3.96322,0 0,1.80503 c 0.0785,-0.0392 0.23544,-0.1962 0.47088,-0.43163 0.43164,-0.43164 1.02024,-1.02024 1.72655,-1.41264 0.35316,-0.1962 0.66708,-0.27468 1.02024,-0.27468 1.05948,0 1.80503,0.62784 2.27591,1.41264 0.47088,0.82403 0.70632,1.88351 0.70632,2.78603 l 0,17.57945 -3.96323,0 0,-16.99086 c 0,-0.82403 -0.47087,-0.94175 -0.94175,-0.94175 -0.43164,0 -0.66708,0.23544 -0.94176,0.51011 -0.11772,0.15696 -0.23544,0.31392 -0.35316,0.51012 l 0,16.91238 z" />
          <path
             inkscape:connector-curvature="0"
             id="path4678"
             d="m 587.62333,729.84766 -3.96322,0 0,-1.41264 c -0.66708,0.62784 -1.25568,1.09872 -2.00124,1.45188 -0.39239,0.1962 -0.78479,0.27468 -1.13795,0.27468 -1.09872,0 -1.84427,-0.62784 -2.31515,-1.45188 -0.51012,-0.7848 -0.74556,-1.84427 -0.74556,-2.74679 l 0,-13.6947 c 0,-0.90252 0.23544,-1.962 0.74556,-2.78603 0.47088,-0.7848 1.21643,-1.41264 2.31515,-1.41264 0.74556,0 1.53035,0.43164 2.11895,0.86328 0.35316,0.27468 0.66708,0.54936 1.02024,0.86328 l 0,-8.78973 3.96322,0 0,28.84129 z m -3.96322,-16.75542 c 0,-0.62784 -0.5886,-1.29491 -1.1772,-1.29491 -0.5886,0 -1.05947,0.54936 -1.05947,1.29491 l 0,12.04663 c 0,0.74556 0.47087,1.29492 1.05947,1.29492 0.5886,0 1.1772,-0.54936 1.1772,-1.29492 l 0,-12.04663 z" />
          <path
             inkscape:connector-curvature="0"
             id="path4680"
             d="m 600.72698,722.15665 0,2.47211 c -0.11772,2.07971 -0.74556,3.53158 -2.15819,4.66954 -0.70632,0.5886 -1.68731,0.86328 -2.98223,0.86328 -2.55059,0 -3.8455,-1.41264 -4.47334,-2.82527 -0.35316,-0.82404 -0.5886,-1.7658 -0.62784,-2.82527 l 0,-10.79096 c 0.11772,-2.07971 0.7848,-3.61007 2.19743,-4.78726 0.66708,-0.5886 1.64808,-0.86328 2.94299,-0.86328 2.55059,0 3.84551,1.41264 4.47334,2.78603 0.35316,0.82404 0.5886,1.72655 0.62784,2.74679 l 0,6.23914 -6.55305,0 0,4.66954 c 0.0392,0.82403 0.27468,1.41263 0.62783,1.84427 0.1962,0.1962 0.47088,0.31392 0.82404,0.31392 0.74556,0 1.09872,-0.47088 1.25568,-1.05948 0.11772,-0.31392 0.15696,-0.66707 0.15696,-1.09871 l 0,-2.35439 3.68854,0 z m -6.55305,-5.4151 2.86451,0 0,-3.02147 c 0,-0.82404 -0.15696,-1.41263 -0.54936,-1.88351 -0.1962,-0.1962 -0.51012,-0.31392 -0.86328,-0.31392 -0.74556,0 -1.05948,0.51012 -1.25567,1.09871 -0.11772,0.31392 -0.15696,0.66708 -0.1962,1.09872 l 0,3.02147 z" />
          <path
             inkscape:connector-curvature="0"
             id="path4682"
             d="m 619.5057,729.84766 -3.96322,0 0,-1.41264 c -0.66708,0.62784 -1.25568,1.09872 -2.00124,1.45188 -0.39239,0.1962 -0.78479,0.27468 -1.13795,0.27468 -1.09872,0 -1.84427,-0.62784 -2.31515,-1.45188 -0.51012,-0.7848 -0.74556,-1.84427 -0.74556,-2.74679 l 0,-13.6947 c 0,-0.90252 0.23544,-1.962 0.74556,-2.78603 0.47088,-0.7848 1.21643,-1.41264 2.31515,-1.41264 0.74556,0 1.53035,0.43164 2.11895,0.86328 0.35316,0.27468 0.66708,0.54936 1.02024,0.86328 l 0,-8.78973 3.96322,0 0,28.84129 z m -3.96322,-16.75542 c 0,-0.62784 -0.5886,-1.29491 -1.1772,-1.29491 -0.5886,0 -1.05947,0.54936 -1.05947,1.29491 l 0,12.04663 c 0,0.74556 0.47087,1.29492 1.05947,1.29492 0.5886,0 1.1772,-0.54936 1.1772,-1.29492 l 0,-12.04663 z" />
          <path
             inkscape:connector-curvature="0"
             id="path4684"
             d="m 628.68538,713.48464 c 0,-0.35316 0,-0.90252 -0.11772,-1.29491 -0.15696,-0.3924 -0.47088,-0.66708 -0.98099,-0.66708 -0.66708,0 -0.94176,0.51012 -1.05948,1.13795 -0.0392,0.31392 -0.0785,0.66708 -0.0785,1.02024 0,0.35316 0,0.70632 0,1.02024 l -3.96322,0 0,-0.90252 c 0,-1.56959 0.58859,-2.98223 1.53035,-4.0417 0.94176,-1.05948 2.27591,-1.68732 3.80626,-1.68732 1.29492,0 2.47211,0.51012 3.37463,1.3734 0.90252,0.86327 1.45188,2.07971 1.45188,3.49234 l 0,13.18459 c 0,1.92275 0.11772,2.78603 0.27467,3.72779 l -3.88474,0 c -0.35316,-0.43164 -0.35316,-1.45188 -0.35316,-1.72656 l -0.27468,0 c -0.1962,0.35316 -0.54936,0.86328 -1.09871,1.29492 -0.54936,0.43164 -1.29492,0.74556 -2.07972,0.74556 -0.51011,0 -1.33415,-0.1962 -1.96199,-0.981 -0.66707,-0.74556 -1.21643,-2.07971 -1.21643,-4.31638 0,-2.39363 0.70631,-4.12019 1.64807,-5.29738 0.94176,-1.1772 2.11895,-1.92276 3.09995,-2.43287 0.98099,-0.51012 1.72655,-0.86328 1.88351,-1.29492 l 0,-2.35439 z m 0,6.0037 c -1.92275,0.82403 -2.74679,2.74679 -2.74679,4.78726 0,0.27468 0.0392,0.74556 0.1962,1.17719 0.15696,0.47088 0.43164,0.82404 0.90252,0.82404 0.90251,0 1.64807,-0.54936 1.64807,-1.29491 l 0,-5.49358 z" />
          <path
             inkscape:connector-curvature="0"
             id="path4686"
             d="m 639.80803,703.08608 0,5.29738 2.70755,0 0,3.57083 -2.70755,0 0,10.67323 c 0,0.66708 0,1.53036 0.15696,2.23668 0.15696,0.70631 0.47087,1.29491 1.09871,1.29491 0.31392,0 0.70632,-0.0392 0.981,-0.0785 0.15696,-0.0392 0.31392,-0.0392 0.47088,-0.0785 l 0,3.88475 c -0.1962,0.0392 -0.3924,0.11772 -0.5886,0.15696 -0.3924,0.0785 -0.90252,0.11772 -1.53036,0.11772 -2.31515,0 -3.41386,-1.1772 -3.96322,-2.66831 -0.54936,-1.49112 -0.5886,-3.29615 -0.5886,-4.55183 l 0,-10.98715 -2.00123,0 0,-3.57083 2.00123,0 0,-5.29738 3.96323,0 z" />
          <path
             inkscape:connector-curvature="0"
             id="path4688"
             d="m 654.41077,724.62876 c -0.11771,2.07971 -0.74555,3.53158 -2.11895,4.66954 -0.70631,0.5886 -1.68731,0.86328 -2.98223,0.86328 -2.55059,0 -3.80626,-1.41264 -4.4341,-2.82527 -0.35316,-0.82404 -0.5886,-1.7658 -0.62784,-2.82527 l 0,-10.79096 c 0.11772,-2.07971 0.74556,-3.61007 2.11896,-4.78726 0.66707,-0.5886 1.64807,-0.86328 2.94298,-0.86328 2.55059,0 3.84551,1.41264 4.47335,2.78603 0.35316,0.82404 0.58859,1.72655 0.62783,2.74679 l 0,11.0264 z m -3.72778,-10.90868 c 0.0392,-0.82404 -0.11772,-1.41263 -0.51012,-1.88351 -0.1962,-0.1962 -0.51012,-0.31392 -0.86328,-0.31392 -0.74555,0 -1.05947,0.51012 -1.21643,1.09871 -0.11772,0.31392 -0.15696,0.66708 -0.11772,1.09872 l 0,10.79096 c -0.0392,0.82403 0.15696,1.41263 0.51012,1.84427 0.1962,0.1962 0.47088,0.31392 0.82403,0.31392 0.74556,0 1.09872,-0.47088 1.25568,-1.05948 0.11772,-0.31392 0.15696,-0.66707 0.11772,-1.09871 l 0,-10.79096 z" />
          <path
             inkscape:connector-curvature="0"
             id="path4690"
             d="m 663.02024,713.87704 c 0,-0.51012 0,-1.13796 -0.15696,-1.64807 -0.1962,-0.47088 -0.51012,-0.86328 -1.13796,-0.86328 -0.51012,0 -0.82404,0.3924 -0.981,0.86328 -0.19619,0.47087 -0.23543,1.13795 -0.23543,1.64807 0,0.66708 0.35315,1.37339 0.86327,2.00123 0.47088,0.62784 1.09872,1.25568 1.72656,1.84427 0.82403,0.82404 1.80503,1.7658 2.47211,2.82527 0.66707,1.09872 1.17719,2.31515 1.17719,3.72779 0,1.37339 -0.31392,2.82527 -1.09872,3.92398 -0.82403,1.13796 -2.07971,1.962 -3.96322,1.962 -2.39363,0 -3.80626,-1.09872 -4.59106,-2.43288 -0.7848,-1.33415 -0.94176,-2.98222 -0.94176,-4.12018 l 3.68855,0 c 0,0.5886 0.0392,1.41264 0.31392,2.04047 0.27468,0.66708 0.70631,1.21644 1.53035,1.21644 1.13796,0 1.3734,-1.33416 1.3734,-2.58983 0,-1.29492 -1.25568,-2.58983 -2.47212,-3.80627 -0.94175,-0.90251 -1.84427,-1.72655 -2.55059,-2.78603 -0.70631,-1.05947 -1.21643,-2.23667 -1.21643,-3.80626 0,-1.25568 0.23544,-2.70755 0.981,-3.84551 0.74555,-1.09871 1.96199,-1.92275 3.8455,-1.96199 2.31515,-0.0392 3.61007,0.82404 4.27714,1.96199 0.66708,1.13796 0.7848,2.62907 0.7848,3.84551 l -3.68854,0 z" />
        </g>
      </g>
    </g>
  </g>
</svg>
