<?xml version="1.0" encoding="UTF-8" standalone="no"?>
<!-- Created with Inkscape (http://www.inkscape.org/) -->

<svg
   xmlns:dc="http://purl.org/dc/elements/1.1/"
   xmlns:cc="http://creativecommons.org/ns#"
   xmlns:rdf="http://www.w3.org/1999/02/22-rdf-syntax-ns#"
   xmlns:svg="http://www.w3.org/2000/svg"
   xmlns="http://www.w3.org/2000/svg"
   xmlns:sodipodi="http://sodipodi.sourceforge.net/DTD/sodipodi-0.dtd"
   xmlns:inkscape="http://www.inkscape.org/namespaces/inkscape"
   width="105mm"
   height="74mm"
   id="svg3206"
   version="1.1"
   inkscape:version="0.92.2 5c3e80d, 2017-08-06"
   sodipodi:docname="democracia_directa.svg"
   viewBox="0 0 372.04724 262.20471">
  <defs
     id="defs3208" />
  <sodipodi:namedview
     id="base"
     pagecolor="#ffffff"
     bordercolor="#666666"
     borderopacity="1.0"
     inkscape:pageopacity="0.0"
     inkscape:pageshadow="2"
     inkscape:zoom="0.98994949"
     inkscape:cx="189.7979"
     inkscape:cy="87.433094"
     inkscape:document-units="mm"
     inkscape:current-layer="layer1"
     showgrid="false"
     units="mm"
     inkscape:window-width="1280"
     inkscape:window-height="738"
     inkscape:window-x="0"
     inkscape:window-y="62"
     inkscape:window-maximized="0" />
  <metadata
     id="metadata3211">
    <rdf:RDF>
      <cc:Work
         rdf:about="">
        <dc:format>image/svg+xml</dc:format>
        <dc:type
           rdf:resource="http://purl.org/dc/dcmitype/StillImage" />
        <dc:title></dc:title>
      </cc:Work>
    </rdf:RDF>
  </metadata>
  <g
     inkscape:label="Capa 1"
     inkscape:groupmode="layer"
     id="layer1"
     transform="translate(0,-790.15744)">
    <rect
       y="790.15741"
       x="0"
       height="262.20471"
       width="372.04724"
       id="rect3033"
       style="fill:#222222;fill-opacity:1" />
    <g
       id="g3069"
       transform="translate(0,-52.831802)">
      <rect
         y="862.16455"
         x="0"
         height="172.16327"
         width="372.04724"
         id="rect3035"
         style="fill:#ffffff" />
      <g
         id="text3110"
         style="font-style:normal;font-weight:normal;font-size:48.6379776px;line-height:125%;font-family:Sans;letter-spacing:0px;word-spacing:0px;fill:#000000;fill-opacity:1;stroke:none"
         transform="matrix(1.4095238,0,0,1.4095238,-364.72543,-161.05605)">
        <path
           id="path3164"
           style="font-variant:normal;font-stretch:normal;font-family:'League Gothic';-inkscape-font-specification:'League Gothic'"
           d="m 300.26317,789.53637 h -4.08559 v 15.56415 h -5.2529 v -35.74891 h 5.2529 v 14.78595 h 4.08559 v -14.78595 h 5.2529 v 35.74891 h -5.2529 v -15.56415"
           inkscape:connector-curvature="0" />
        <path
           id="path3166"
           style="font-variant:normal;font-stretch:normal;font-family:'League Gothic';-inkscape-font-specification:'League Gothic'"
           d="m 321.75431,795.56748 v 3.06419 c -0.14591,2.57781 -0.92412,4.37742 -2.67509,5.78792 -0.87548,0.72957 -2.09143,1.07004 -3.69648,1.07004 -3.16147,0 -4.76652,-1.75097 -5.54473,-3.50194 -0.43774,-1.02139 -0.72957,-2.18871 -0.77821,-3.50193 v -13.37544 c 0.14591,-2.57781 0.97276,-4.4747 2.72373,-5.93384 0.82684,-0.72957 2.04279,-1.07003 3.64785,-1.07003 3.16146,0 4.76652,1.75097 5.54473,3.45329 0.43774,1.0214 0.72957,2.14008 0.7782,3.40466 v 7.73344 h -8.12254 v 5.78792 c 0.0486,1.0214 0.34047,1.75097 0.77821,2.28598 0.24319,0.24319 0.58365,0.38911 1.0214,0.38911 0.92412,0 1.36186,-0.58366 1.55641,-1.31323 0.14591,-0.3891 0.19455,-0.82684 0.19455,-1.36186 v -2.91828 h 4.57197 m -8.12254,-6.71204 h 3.55057 v -3.74512 c 0,-1.0214 -0.19455,-1.75097 -0.68093,-2.33463 -0.24319,-0.24319 -0.63229,-0.3891 -1.07003,-0.3891 -0.92412,0 -1.31323,0.63229 -1.55642,1.36186 -0.14591,0.38911 -0.19455,0.82685 -0.24319,1.36187 v 3.74512"
           inkscape:connector-curvature="0" />
        <path
           id="path3168"
           style="font-variant:normal;font-stretch:normal;font-family:'League Gothic';-inkscape-font-specification:'League Gothic'"
           d="m 334.85313,783.5539 c -0.43774,-0.14591 -0.92412,-0.19455 -1.36187,-0.19455 -0.7782,0 -1.70233,0.0973 -2.48053,0.82684 -0.92412,0.77821 -1.07004,1.60506 -1.07004,2.4319 v 18.48243 h -4.91243 v -26.60497 h 4.91243 v 2.96692 c 0.0486,-0.34047 0.38911,-1.16731 1.16731,-1.94552 0.77821,-0.72957 1.94552,-1.4105 3.74513,-1.4105 v 5.44745"
           inkscape:connector-curvature="0" />
        <path
           id="path3170"
           style="font-variant:normal;font-stretch:normal;font-family:'League Gothic';-inkscape-font-specification:'League Gothic'"
           d="m 346.82263,783.5539 c -0.43774,-0.14591 -0.92412,-0.19455 -1.36186,-0.19455 -0.77821,0 -1.70233,0.0973 -2.48054,0.82684 -0.92412,0.77821 -1.07004,1.60506 -1.07004,2.4319 v 18.48243 h -4.91243 v -26.60497 h 4.91243 v 2.96692 c 0.0486,-0.34047 0.38911,-1.16731 1.16731,-1.94552 0.77821,-0.72957 1.94553,-1.4105 3.74513,-1.4105 v 5.44745"
           inkscape:connector-curvature="0" />
        <path
           id="path3172"
           style="font-variant:normal;font-stretch:normal;font-family:'League Gothic';-inkscape-font-specification:'League Gothic'"
           d="m 356.02889,784.81849 c 0,-0.43774 0,-1.11868 -0.14592,-1.60506 -0.19455,-0.48637 -0.58365,-0.82684 -1.21595,-0.82684 -0.82684,0 -1.16731,0.63229 -1.31322,1.4105 -0.0486,0.3891 -0.0973,0.82685 -0.0973,1.26459 0,0.43774 0,0.87548 0,1.26459 h -4.91243 v -1.11868 c 0,-1.94552 0.72957,-3.69649 1.89688,-5.00971 1.16731,-1.31322 2.821,-2.09143 4.71788,-2.09143 1.60505,0 3.0642,0.63229 4.18287,1.70233 1.11867,1.07003 1.7996,2.57781 1.7996,4.32878 v 16.34236 c 0,2.38326 0.14592,3.45329 0.34047,4.6206 h -4.81516 c -0.43774,-0.53501 -0.43774,-1.7996 -0.43774,-2.14007 h -0.34047 c -0.24319,0.43775 -0.68093,1.07004 -1.36186,1.60506 -0.68093,0.53501 -1.60506,0.92412 -2.57781,0.92412 -0.6323,0 -1.6537,-0.24319 -2.4319,-1.21595 -0.82685,-0.92412 -1.50778,-2.57782 -1.50778,-5.35018 0,-2.96691 0.87548,-5.10699 2.04279,-6.56613 1.16731,-1.45913 2.62646,-2.38326 3.8424,-3.01555 1.21595,-0.63229 2.14008,-1.07004 2.33463,-1.60505 v -2.91828 m 0,7.44161 c -2.38326,1.0214 -3.40466,3.40466 -3.40466,5.93383 0,0.34047 0.0486,0.92412 0.24319,1.45914 0.19455,0.58366 0.53502,1.0214 1.11867,1.0214 1.11867,0 2.0428,-0.68093 2.0428,-1.60505 v -6.80932"
           inkscape:connector-curvature="0" />
        <path
           id="path3174"
           style="font-variant:normal;font-stretch:normal;font-family:'League Gothic';-inkscape-font-specification:'League Gothic'"
           d="m 376.76615,805.10052 h -4.62061 v -21.06024 c 0,-1.0214 -0.77821,-1.16731 -1.31323,-1.16731 -0.53502,0 -0.97276,0.29183 -1.31322,0.63229 -0.19456,0.19455 -0.38911,0.38911 -0.53502,0.6323 v 20.96296 h -4.91244 v -26.60497 h 4.91244 v 2.23735 c 0.0973,-0.0486 0.29183,-0.24319 0.58365,-0.53502 0.53502,-0.53502 1.36187,-1.26459 2.23735,-1.75097 0.43774,-0.24319 0.82685,-0.34046 1.26459,-0.34046 1.75096,0 2.77236,1.4105 3.30738,2.96691 0.19455,-0.14591 0.43774,-0.3891 0.77821,-0.72957 0.63229,-0.68093 1.45914,-1.31322 2.38326,-1.84824 0.43774,-0.24319 0.87548,-0.3891 1.31323,-0.3891 1.31322,0 2.23734,0.77821 2.821,1.75096 0.58365,1.0214 0.87548,2.33463 0.87548,3.4533 v 21.78981 h -4.62061 v -21.06024 c 0,-1.0214 -0.7782,-1.16731 -1.31322,-1.16731 -0.53502,0 -0.97276,0.29183 -1.31323,0.63229 -0.19455,0.19455 -0.3891,0.38911 -0.53501,0.6323 v 20.96296"
           inkscape:connector-curvature="0" />
        <path
           id="path3176"
           style="font-variant:normal;font-stretch:normal;font-family:'League Gothic';-inkscape-font-specification:'League Gothic'"
           d="m 388.29562,769.35161 h 4.91244 v 4.91244 h -4.91244 v -4.91244 m 0,35.74891 v -26.60497 h 4.91244 v 26.60497 h -4.91244"
           inkscape:connector-curvature="0" />
        <path
           id="path3178"
           style="font-variant:normal;font-stretch:normal;font-family:'League Gothic';-inkscape-font-specification:'League Gothic'"
           d="m 409.34067,795.56748 v 3.06419 c -0.14591,2.57781 -0.92412,4.37742 -2.67509,5.78792 -0.87548,0.72957 -2.09143,1.07004 -3.69648,1.07004 -3.16147,0 -4.76653,-1.75097 -5.54473,-3.50194 -0.43774,-1.02139 -0.72957,-2.18871 -0.77821,-3.50193 v -13.37544 c 0.14591,-2.57781 0.97276,-4.4747 2.72373,-5.93384 0.82684,-0.72957 2.04279,-1.07003 3.64784,-1.07003 3.16147,0 4.76653,1.75097 5.54473,3.45329 0.43775,1.0214 0.72957,2.14008 0.77821,3.40466 v 7.73344 h -8.12254 v 5.78792 c 0.0486,1.0214 0.34047,1.75097 0.77821,2.28598 0.24319,0.24319 0.58365,0.38911 1.02139,0.38911 0.92413,0 1.36187,-0.58366 1.55642,-1.31323 0.14591,-0.3891 0.19455,-0.82684 0.19455,-1.36186 v -2.91828 h 4.57197 m -8.12254,-6.71204 h 3.55057 v -3.74512 c 0,-1.0214 -0.19455,-1.75097 -0.68093,-2.33463 -0.24319,-0.24319 -0.63229,-0.3891 -1.07004,-0.3891 -0.92412,0 -1.31322,0.63229 -1.55641,1.36186 -0.14591,0.38911 -0.19455,0.82685 -0.24319,1.36187 v 3.74512"
           inkscape:connector-curvature="0" />
        <path
           id="path3180"
           style="font-variant:normal;font-stretch:normal;font-family:'League Gothic';-inkscape-font-specification:'League Gothic'"
           d="m 417.52705,805.10052 h -4.91243 v -26.60497 h 4.91243 v 2.23735 c 0.0973,-0.0486 0.29183,-0.24319 0.58366,-0.53502 0.53502,-0.53502 1.26459,-1.26459 2.14007,-1.75097 0.43774,-0.24319 0.82685,-0.34046 1.26459,-0.34046 1.31322,0 2.23734,0.77821 2.821,1.75096 0.58365,1.0214 0.87548,2.33463 0.87548,3.4533 v 21.78981 h -4.91243 v -21.06024 c 0,-1.0214 -0.58366,-1.16731 -1.16731,-1.16731 -0.53502,0 -0.82685,0.29183 -1.16732,0.63229 -0.14591,0.19455 -0.29182,0.38911 -0.43774,0.6323 v 20.96296"
           inkscape:connector-curvature="0" />
        <path
           id="path3182"
           style="font-variant:normal;font-stretch:normal;font-family:'League Gothic';-inkscape-font-specification:'League Gothic'"
           d="m 434.69777,771.92942 v 6.56613 h 3.35602 v 4.42606 h -3.35602 v 13.22953 c 0,0.82684 0,1.89688 0.19455,2.77236 0.19456,0.87548 0.58366,1.60506 1.36187,1.60506 0.3891,0 0.87548,-0.0486 1.21595,-0.0973 0.19455,-0.0486 0.3891,-0.0486 0.58365,-0.0973 v 4.81516 c -0.24319,0.0486 -0.48638,0.14592 -0.72957,0.19455 -0.48638,0.0973 -1.11867,0.14592 -1.89688,0.14592 -2.86964,0 -4.2315,-1.45914 -4.91243,-3.30738 -0.68093,-1.84825 -0.72957,-4.0856 -0.72957,-5.64201 v -13.61863 h -2.48054 v -4.42606 h 2.48054 v -6.56613 h 4.91243"
           inkscape:connector-curvature="0" />
        <path
           id="path3184"
           style="font-variant:normal;font-stretch:normal;font-family:'League Gothic';-inkscape-font-specification:'League Gothic'"
           d="m 447.98506,784.81849 c 0,-0.43774 0,-1.11868 -0.14591,-1.60506 -0.19456,-0.48637 -0.58366,-0.82684 -1.21595,-0.82684 -0.82685,0 -1.16731,0.63229 -1.31323,1.4105 -0.0486,0.3891 -0.0973,0.82685 -0.0973,1.26459 0,0.43774 0,0.87548 0,1.26459 h -4.91244 v -1.11868 c 0,-1.94552 0.72957,-3.69649 1.89688,-5.00971 1.16731,-1.31322 2.82101,-2.09143 4.71789,-2.09143 1.60505,0 3.06419,0.63229 4.18286,1.70233 1.11867,1.07003 1.79961,2.57781 1.79961,4.32878 v 16.34236 c 0,2.38326 0.14591,3.45329 0.34046,4.6206 h -4.81516 c -0.43774,-0.53501 -0.43774,-1.7996 -0.43774,-2.14007 h -0.34047 c -0.24318,0.43775 -0.68093,1.07004 -1.36186,1.60506 -0.68093,0.53501 -1.60505,0.92412 -2.57781,0.92412 -0.63229,0 -1.65369,-0.24319 -2.4319,-1.21595 -0.82685,-0.92412 -1.50778,-2.57782 -1.50778,-5.35018 0,-2.96691 0.87549,-5.10699 2.0428,-6.56613 1.16731,-1.45913 2.62645,-2.38326 3.8424,-3.01555 1.21595,-0.63229 2.14007,-1.07004 2.33462,-1.60505 v -2.91828 m 0,7.44161 c -2.38326,1.0214 -3.40466,3.40466 -3.40466,5.93383 0,0.34047 0.0486,0.92412 0.24319,1.45914 0.19455,0.58366 0.53502,1.0214 1.11868,1.0214 1.11867,0 2.04279,-0.68093 2.04279,-1.60505 v -6.80932"
           inkscape:connector-curvature="0" />
        <path
           id="path3186"
           style="font-variant:normal;font-stretch:normal;font-family:'League Gothic';-inkscape-font-specification:'League Gothic'"
           d="m 463.46942,785.30487 c 0,-0.6323 0,-1.4105 -0.19455,-2.0428 -0.24319,-0.58365 -0.6323,-1.07003 -1.4105,-1.07003 -0.6323,0 -1.0214,0.48638 -1.21595,1.07003 -0.24319,0.58366 -0.29183,1.4105 -0.29183,2.0428 0,0.82684 0.43774,1.70233 1.07004,2.48053 0.58365,0.77821 1.36186,1.55642 2.14007,2.28599 1.02139,1.0214 2.23734,2.18871 3.06419,3.50193 0.82684,1.36187 1.45914,2.86965 1.45914,4.62061 0,1.70233 -0.38911,3.50194 -1.36187,4.8638 -1.02139,1.4105 -2.57781,2.4319 -4.91243,2.4319 -2.96691,0 -4.71789,-1.36187 -5.69064,-3.01556 -0.97276,-1.65369 -1.16732,-3.69648 -1.16732,-5.10698 h 4.57197 c 0,0.72957 0.0486,1.75096 0.38911,2.52917 0.34046,0.82685 0.87548,1.50778 1.89688,1.50778 1.4105,0 1.70233,-1.65369 1.70233,-3.21011 0,-1.60505 -1.55642,-3.21011 -3.06419,-4.71788 -1.16731,-1.11867 -2.28599,-2.14007 -3.16147,-3.4533 -0.87549,-1.31322 -1.50778,-2.77236 -1.50778,-4.71788 0,-1.55642 0.29183,-3.35602 1.21595,-4.76652 0.92412,-1.36187 2.4319,-2.38326 4.76652,-2.4319 2.86964,-0.0486 4.4747,1.0214 5.30154,2.4319 0.82685,1.4105 0.97276,3.25874 0.97276,4.76652 h -4.57197"
           inkscape:connector-curvature="0" />
      </g>
      <g
         id="text3114"
         style="font-style:normal;font-weight:normal;font-size:24.49181175px;line-height:125%;font-family:Sans;letter-spacing:0px;word-spacing:0px;fill:#000000;fill-opacity:1;stroke:none"
         transform="matrix(1.4095238,0,0,1.4095238,-364.72543,-161.05605)">
        <path
           id="path3116"
           style="font-variant:normal;font-stretch:normal;font-family:'League Gothic';-inkscape-font-specification:'League Gothic'"
           d="m 290.92468,813.81379 h 2.47367 v 0.88171 c 0.41636,-0.39187 0.78374,-0.68577 1.27358,-0.9062 0.22042,-0.12246 0.46534,-0.17144 0.68577,-0.17144 0.68577,0 1.15111,0.39187 1.46951,0.88171 0.2939,0.51432 0.44085,1.1756 0.44085,1.73891 v 8.54765 c 0,0.56331 -0.14695,1.22459 -0.44085,1.71442 -0.3184,0.51433 -0.78374,0.9062 -1.46951,0.9062 -0.46535,0 -0.95518,-0.26941 -1.32256,-0.53882 -0.22043,-0.17144 -0.41636,-0.34289 -0.63679,-0.53882 v 5.48617 h -2.47367 v -18.00149 m 2.47367,10.45801 c 0,0.39187 0.36738,0.80823 0.73476,0.80823 0.36737,0 0.66128,-0.34289 0.66128,-0.80823 v -7.51899 c 0,-0.46534 -0.29391,-0.80823 -0.66128,-0.80823 -0.36738,0 -0.73476,0.34289 -0.73476,0.80823 v 7.51899"
           inkscape:connector-curvature="0" />
        <path
           id="path3118"
           style="font-variant:normal;font-stretch:normal;font-family:'League Gothic';-inkscape-font-specification:'League Gothic'"
           d="m 302.75614,816.99773 c 0,-0.22043 0,-0.56331 -0.0735,-0.80823 -0.098,-0.24492 -0.2939,-0.41636 -0.61229,-0.41636 -0.41636,0 -0.58781,0.31839 -0.66128,0.71026 -0.0245,0.19594 -0.049,0.41636 -0.049,0.63679 0,0.22043 0,0.44085 0,0.63679 h -2.47368 v -0.56332 c 0,-0.97967 0.36738,-1.86137 0.95518,-2.52265 0.58781,-0.66128 1.42053,-1.05315 2.37571,-1.05315 0.80823,0 1.54298,0.31839 2.10629,0.85721 0.56332,0.53882 0.9062,1.29807 0.9062,2.17977 v 8.22925 c 0,1.2001 0.0735,1.73892 0.17144,2.32673 h -2.42469 c -0.22042,-0.26941 -0.22042,-0.9062 -0.22042,-1.07764 h -0.17144 c -0.12246,0.22042 -0.34289,0.53882 -0.68578,0.80823 -0.34288,0.26941 -0.80823,0.46534 -1.29806,0.46534 -0.31839,0 -0.83272,-0.12246 -1.22459,-0.6123 -0.41636,-0.46534 -0.75925,-1.29806 -0.75925,-2.69409 0,-1.494 0.44086,-2.57165 1.02866,-3.3064 0.5878,-0.73475 1.32256,-1.2001 1.93485,-1.51849 0.6123,-0.31839 1.07764,-0.53882 1.17561,-0.80823 v -1.46951 m 0,3.74725 c -1.2001,0.51432 -1.71443,1.71443 -1.71443,2.988 0,0.17144 0.0245,0.46534 0.12246,0.73475 0.098,0.2939 0.26941,0.51433 0.56331,0.51433 0.56331,0 1.02866,-0.34289 1.02866,-0.80823 v -3.42885"
           inkscape:connector-curvature="0" />
        <path
           id="path3120"
           style="font-variant:normal;font-stretch:normal;font-family:'League Gothic';-inkscape-font-specification:'League Gothic'"
           d="m 311.75343,816.36094 c -0.22042,-0.0735 -0.46534,-0.098 -0.68577,-0.098 -0.39186,0 -0.85721,0.049 -1.24908,0.41636 -0.46534,0.39186 -0.53882,0.80823 -0.53882,1.22459 v 9.30689 h -2.47367 v -13.39703 h 2.47367 v 1.494 c 0.0245,-0.17144 0.19594,-0.5878 0.5878,-0.97967 0.39187,-0.36737 0.97968,-0.71026 1.88587,-0.71026 v 2.74308"
           inkscape:connector-curvature="0" />
        <path
           id="path3122"
           style="font-variant:normal;font-stretch:normal;font-family:'League Gothic';-inkscape-font-specification:'League Gothic'"
           d="m 316.38928,816.99773 c 0,-0.22043 0,-0.56331 -0.0735,-0.80823 -0.098,-0.24492 -0.2939,-0.41636 -0.6123,-0.41636 -0.41636,0 -0.5878,0.31839 -0.66127,0.71026 -0.0245,0.19594 -0.049,0.41636 -0.049,0.63679 0,0.22043 0,0.44085 0,0.63679 h -2.47367 v -0.56332 c 0,-0.97967 0.36738,-1.86137 0.95518,-2.52265 0.5878,-0.66128 1.42053,-1.05315 2.37571,-1.05315 0.80822,0 1.54298,0.31839 2.10629,0.85721 0.56331,0.53882 0.9062,1.29807 0.9062,2.17977 v 8.22925 c 0,1.2001 0.0735,1.73892 0.17144,2.32673 h -2.42469 c -0.22042,-0.26941 -0.22042,-0.9062 -0.22042,-1.07764 h -0.17145 c -0.12246,0.22042 -0.34288,0.53882 -0.68577,0.80823 -0.34288,0.26941 -0.80823,0.46534 -1.29806,0.46534 -0.3184,0 -0.83273,-0.12246 -1.22459,-0.6123 -0.41637,-0.46534 -0.75925,-1.29806 -0.75925,-2.69409 0,-1.494 0.44085,-2.57165 1.02865,-3.3064 0.58781,-0.73475 1.32256,-1.2001 1.93486,-1.51849 0.61229,-0.31839 1.07764,-0.53882 1.17561,-0.80823 v -1.46951 m 0,3.74725 c -1.2001,0.51432 -1.71443,1.71443 -1.71443,2.988 0,0.17144 0.0245,0.46534 0.12246,0.73475 0.098,0.2939 0.26941,0.51433 0.56331,0.51433 0.56331,0 1.02866,-0.34289 1.02866,-0.80823 v -3.42885"
           inkscape:connector-curvature="0" />
        <path
           id="path3124"
           style="font-variant:normal;font-stretch:normal;font-family:'League Gothic';-inkscape-font-specification:'League Gothic'"
           d="m 324.31391,827.21082 v -18.00149 h 2.47367 v 18.00149 h -2.47367"
           inkscape:connector-curvature="0" />
        <path
           id="path3126"
           style="font-variant:normal;font-stretch:normal;font-family:'League Gothic';-inkscape-font-specification:'League Gothic'"
           d="m 332.50986,816.99773 c 0,-0.22043 0,-0.56331 -0.0735,-0.80823 -0.098,-0.24492 -0.2939,-0.41636 -0.6123,-0.41636 -0.41636,0 -0.5878,0.31839 -0.66128,0.71026 -0.0245,0.19594 -0.049,0.41636 -0.049,0.63679 0,0.22043 0,0.44085 0,0.63679 h -2.47367 v -0.56332 c 0,-0.97967 0.36737,-1.86137 0.95518,-2.52265 0.5878,-0.66128 1.42052,-1.05315 2.3757,-1.05315 0.80823,0 1.54299,0.31839 2.1063,0.85721 0.56331,0.53882 0.9062,1.29807 0.9062,2.17977 v 8.22925 c 0,1.2001 0.0735,1.73892 0.17144,2.32673 h -2.42469 c -0.22043,-0.26941 -0.22043,-0.9062 -0.22043,-1.07764 h -0.17144 c -0.12246,0.22042 -0.34288,0.53882 -0.68577,0.80823 -0.34289,0.26941 -0.80823,0.46534 -1.29807,0.46534 -0.31839,0 -0.83272,-0.12246 -1.22459,-0.6123 -0.41636,-0.46534 -0.75924,-1.29806 -0.75924,-2.69409 0,-1.494 0.44085,-2.57165 1.02865,-3.3064 0.58781,-0.73475 1.32256,-1.2001 1.93486,-1.51849 0.61229,-0.31839 1.07764,-0.53882 1.1756,-0.80823 v -1.46951 m 0,3.74725 c -1.20009,0.51432 -1.71442,1.71443 -1.71442,2.988 0,0.17144 0.0245,0.46534 0.12246,0.73475 0.098,0.2939 0.26941,0.51433 0.56331,0.51433 0.56331,0 1.02865,-0.34289 1.02865,-0.80823 v -3.42885"
           inkscape:connector-curvature="0" />
        <path
           id="path3128"
           style="font-variant:normal;font-stretch:normal;font-family:'League Gothic';-inkscape-font-specification:'League Gothic'"
           d="m 346.67991,827.21082 h -2.47368 v -0.88171 c -0.41636,0.39187 -0.78373,0.68577 -1.24908,0.9062 -0.24492,0.12246 -0.48983,0.17144 -0.71026,0.17144 -0.68577,0 -1.15112,-0.39187 -1.44502,-0.9062 -0.31839,-0.48983 -0.46534,-1.15111 -0.46534,-1.71442 v -8.54765 c 0,-0.56331 0.14695,-1.22459 0.46534,-1.73891 0.2939,-0.48984 0.75925,-0.88171 1.44502,-0.88171 0.46534,0 0.95518,0.26941 1.32256,0.53882 0.22042,0.17144 0.41636,0.34289 0.63678,0.53882 v -5.48617 h 2.47368 v 18.00149 m -2.47368,-10.45801 c 0,-0.39187 -0.36737,-0.80823 -0.73475,-0.80823 -0.36738,0 -0.66128,0.34289 -0.66128,0.80823 v 7.51899 c 0,0.46534 0.2939,0.80823 0.66128,0.80823 0.36738,0 0.73475,-0.34289 0.73475,-0.80823 v -7.51899"
           inkscape:connector-curvature="0" />
        <path
           id="path3130"
           style="font-variant:normal;font-stretch:normal;font-family:'League Gothic';-inkscape-font-specification:'League Gothic'"
           d="m 354.85864,822.41042 v 1.54298 c -0.0735,1.29807 -0.46534,2.20427 -1.34705,2.91453 -0.44085,0.36738 -1.05315,0.53882 -1.86138,0.53882 -1.59196,0 -2.40019,-0.88171 -2.79206,-1.76341 -0.22043,-0.51433 -0.36738,-1.10213 -0.39187,-1.76341 v -6.73525 c 0.0735,-1.29806 0.48984,-2.25325 1.37154,-2.988 0.41636,-0.36738 1.02866,-0.53882 1.83689,-0.53882 1.59196,0 2.40019,0.88171 2.79206,1.73892 0.22043,0.51433 0.36738,1.07764 0.39187,1.71443 v 3.89419 h -4.09013 v 2.91453 c 0.0245,0.51433 0.17144,0.8817 0.39187,1.15111 0.12246,0.12246 0.2939,0.19594 0.51433,0.19594 0.46534,0 0.68577,-0.2939 0.78373,-0.66128 0.0735,-0.19593 0.098,-0.41636 0.098,-0.68577 v -1.46951 h 2.30223 m -4.09013,-3.37987 h 1.7879 v -1.88587 c 0,-0.51433 -0.098,-0.8817 -0.34288,-1.17561 -0.12246,-0.12246 -0.3184,-0.19593 -0.53882,-0.19593 -0.46535,0 -0.66128,0.31839 -0.78374,0.68577 -0.0735,0.19593 -0.098,0.41636 -0.12246,0.68577 v 1.88587"
           inkscape:connector-curvature="0" />
        <path
           id="path3132"
           style="font-variant:normal;font-stretch:normal;font-family:'League Gothic';-inkscape-font-specification:'League Gothic'"
           d="m 362.89961,827.21082 h -2.32672 v -10.60496 c 0,-0.51433 -0.39187,-0.5878 -0.66128,-0.5878 -0.26941,0 -0.48984,0.14695 -0.66128,0.31839 -0.098,0.098 -0.19594,0.19594 -0.26941,0.31839 v 10.55598 h -2.47367 v -13.39703 h 2.47367 v 1.12663 c 0.049,-0.0245 0.14695,-0.12246 0.2939,-0.26941 0.26941,-0.26941 0.68577,-0.63679 1.12662,-0.88171 0.22043,-0.12246 0.41636,-0.17144 0.63679,-0.17144 0.8817,0 1.39603,0.71026 1.66544,1.494 0.098,-0.0735 0.22043,-0.19593 0.39187,-0.36738 0.3184,-0.34288 0.73476,-0.66128 1.2001,-0.93069 0.22043,-0.12245 0.44085,-0.19593 0.66128,-0.19593 0.66128,0 1.12662,0.39187 1.42053,0.88171 0.2939,0.51432 0.44085,1.1756 0.44085,1.73891 v 10.97234 h -2.32672 v -10.60496 c 0,-0.51433 -0.39187,-0.5878 -0.66128,-0.5878 -0.26941,0 -0.48984,0.14695 -0.66128,0.31839 -0.098,0.098 -0.19594,0.19594 -0.26941,0.31839 v 10.55598"
           inkscape:connector-curvature="0" />
        <path
           id="path3134"
           style="font-variant:normal;font-stretch:normal;font-family:'League Gothic';-inkscape-font-specification:'League Gothic'"
           d="m 374.82827,823.9534 c -0.0735,1.29807 -0.46534,2.20427 -1.32256,2.91453 -0.44085,0.36738 -1.05314,0.53882 -1.86137,0.53882 -1.59197,0 -2.37571,-0.88171 -2.76758,-1.76341 -0.22042,-0.51433 -0.36738,-1.10213 -0.39187,-1.76341 v -6.73525 c 0.0735,-1.29806 0.46535,-2.25325 1.32256,-2.988 0.41636,-0.36738 1.02866,-0.53882 1.83689,-0.53882 1.59196,0 2.40019,0.88171 2.79206,1.73892 0.22043,0.51433 0.36738,1.07764 0.39187,1.71443 v 6.88219 m -2.32672,-6.80872 c 0.0245,-0.51433 -0.0735,-0.8817 -0.31839,-1.17561 -0.12246,-0.12246 -0.3184,-0.19593 -0.53882,-0.19593 -0.46535,0 -0.66128,0.31839 -0.75925,0.68577 -0.0735,0.19593 -0.098,0.41636 -0.0735,0.68577 v 6.73525 c -0.0245,0.51433 0.098,0.8817 0.31839,1.15111 0.12246,0.12246 0.2939,0.19594 0.51433,0.19594 0.46534,0 0.68577,-0.2939 0.78373,-0.66128 0.0735,-0.19593 0.098,-0.41636 0.0735,-0.68577 v -6.73525"
           inkscape:connector-curvature="0" />
        <path
           id="path3136"
           style="font-variant:normal;font-stretch:normal;font-family:'League Gothic';-inkscape-font-specification:'League Gothic'"
           d="m 378.82809,824.12485 c 0,0.48983 0.0245,1.07764 0.68577,1.07764 0.56331,0 0.71026,-0.26941 0.71026,-1.07764 v -1.86138 h 2.47368 v 1.29807 c 0,1.49399 -0.26941,2.44918 -0.80823,3.03698 -0.53882,0.5878 -1.32256,0.80823 -2.37571,0.80823 -0.8817,0 -1.68994,-0.24492 -2.25325,-0.85721 -0.56331,-0.6123 -0.90619,-1.61646 -0.90619,-3.11046 v -5.85355 c 0,-1.494 0.34288,-2.49816 0.90619,-3.11046 0.56331,-0.61229 1.37155,-0.85721 2.25325,-0.85721 1.05315,0 1.83689,0.22043 2.37571,0.80823 0.53882,0.5878 0.80823,1.54299 0.80823,3.03698 v 1.05315 h -2.47368 v -1.61646 c 0,-0.80823 -0.14695,-1.07764 -0.71026,-1.07764 -0.66128,0 -0.68577,0.58781 -0.68577,1.07764 v 7.22509"
           inkscape:connector-curvature="0" />
        <path
           id="path3138"
           style="font-variant:normal;font-stretch:normal;font-family:'League Gothic';-inkscape-font-specification:'League Gothic'"
           d="m 389.15139,816.36094 c -0.22042,-0.0735 -0.46534,-0.098 -0.68577,-0.098 -0.39187,0 -0.85721,0.049 -1.24908,0.41636 -0.46535,0.39186 -0.53882,0.80823 -0.53882,1.22459 v 9.30689 h -2.47367 v -13.39703 h 2.47367 v 1.494 c 0.0245,-0.17144 0.19593,-0.5878 0.5878,-0.97967 0.39187,-0.36737 0.97968,-0.71026 1.88587,-0.71026 v 2.74308"
           inkscape:connector-curvature="0" />
        <path
           id="path3140"
           style="font-variant:normal;font-stretch:normal;font-family:'League Gothic';-inkscape-font-specification:'League Gothic'"
           d="m 393.78723,816.99773 c 0,-0.22043 0,-0.56331 -0.0735,-0.80823 -0.098,-0.24492 -0.2939,-0.41636 -0.61229,-0.41636 -0.41636,0 -0.5878,0.31839 -0.66128,0.71026 -0.0245,0.19594 -0.049,0.41636 -0.049,0.63679 0,0.22043 0,0.44085 0,0.63679 h -2.47368 v -0.56332 c 0,-0.97967 0.36738,-1.86137 0.95518,-2.52265 0.58781,-0.66128 1.42053,-1.05315 2.37571,-1.05315 0.80823,0 1.54298,0.31839 2.1063,0.85721 0.56331,0.53882 0.90619,1.29807 0.90619,2.17977 v 8.22925 c 0,1.2001 0.0735,1.73892 0.17145,2.32673 h -2.42469 c -0.22043,-0.26941 -0.22043,-0.9062 -0.22043,-1.07764 h -0.17144 c -0.12246,0.22042 -0.34289,0.53882 -0.68577,0.80823 -0.34289,0.26941 -0.80823,0.46534 -1.29807,0.46534 -0.31839,0 -0.83272,-0.12246 -1.22459,-0.6123 -0.41636,-0.46534 -0.75925,-1.29806 -0.75925,-2.69409 0,-1.494 0.44086,-2.57165 1.02866,-3.3064 0.5878,-0.73475 1.32256,-1.2001 1.93485,-1.51849 0.6123,-0.31839 1.07764,-0.53882 1.17561,-0.80823 v -1.46951 m 0,3.74725 c -1.2001,0.51432 -1.71443,1.71443 -1.71443,2.988 0,0.17144 0.0245,0.46534 0.12246,0.73475 0.098,0.2939 0.26941,0.51433 0.56331,0.51433 0.56332,0 1.02866,-0.34289 1.02866,-0.80823 v -3.42885"
           inkscape:connector-curvature="0" />
        <path
           id="path3142"
           style="font-variant:normal;font-stretch:normal;font-family:'League Gothic';-inkscape-font-specification:'League Gothic'"
           d="m 400.21059,824.12485 c 0,0.48983 0.0245,1.07764 0.68577,1.07764 0.56331,0 0.71026,-0.26941 0.71026,-1.07764 v -1.86138 h 2.47368 v 1.29807 c 0,1.49399 -0.26941,2.44918 -0.80823,3.03698 -0.53882,0.5878 -1.32256,0.80823 -2.37571,0.80823 -0.8817,0 -1.68994,-0.24492 -2.25325,-0.85721 -0.56331,-0.6123 -0.90619,-1.61646 -0.90619,-3.11046 v -5.85355 c 0,-1.494 0.34288,-2.49816 0.90619,-3.11046 0.56331,-0.61229 1.37155,-0.85721 2.25325,-0.85721 1.05315,0 1.83689,0.22043 2.37571,0.80823 0.53882,0.5878 0.80823,1.54299 0.80823,3.03698 v 1.05315 h -2.47368 v -1.61646 c 0,-0.80823 -0.14695,-1.07764 -0.71026,-1.07764 -0.66128,0 -0.68577,0.58781 -0.68577,1.07764 v 7.22509"
           inkscape:connector-curvature="0" />
        <path
           id="path3144"
           style="font-variant:normal;font-stretch:normal;font-family:'League Gothic';-inkscape-font-specification:'League Gothic'"
           d="m 405.58655,809.20933 h 2.47367 v 2.47368 h -2.47367 v -2.47368 m 0,18.00149 v -13.39703 h 2.47367 v 13.39703 h -2.47367"
           inkscape:connector-curvature="0" />
        <path
           id="path3146"
           style="font-variant:normal;font-stretch:normal;font-family:'League Gothic';-inkscape-font-specification:'League Gothic'"
           d="m 413.7825,816.99773 c 0,-0.22043 0,-0.56331 -0.0735,-0.80823 -0.098,-0.24492 -0.2939,-0.41636 -0.61229,-0.41636 -0.41636,0 -0.5878,0.31839 -0.66128,0.71026 -0.0245,0.19594 -0.049,0.41636 -0.049,0.63679 0,0.22043 0,0.44085 0,0.63679 h -2.47368 v -0.56332 c 0,-0.97967 0.36738,-1.86137 0.95518,-2.52265 0.58781,-0.66128 1.42053,-1.05315 2.37571,-1.05315 0.80823,0 1.54298,0.31839 2.1063,0.85721 0.56331,0.53882 0.90619,1.29807 0.90619,2.17977 v 8.22925 c 0,1.2001 0.0735,1.73892 0.17145,2.32673 h -2.42469 c -0.22043,-0.26941 -0.22043,-0.9062 -0.22043,-1.07764 h -0.17144 c -0.12246,0.22042 -0.34289,0.53882 -0.68577,0.80823 -0.34289,0.26941 -0.80823,0.46534 -1.29807,0.46534 -0.31839,0 -0.83272,-0.12246 -1.22459,-0.6123 -0.41636,-0.46534 -0.75925,-1.29806 -0.75925,-2.69409 0,-1.494 0.44086,-2.57165 1.02866,-3.3064 0.5878,-0.73475 1.32256,-1.2001 1.93485,-1.51849 0.6123,-0.31839 1.07764,-0.53882 1.17561,-0.80823 v -1.46951 m 0,3.74725 c -1.2001,0.51432 -1.71443,1.71443 -1.71443,2.988 0,0.17144 0.0245,0.46534 0.12246,0.73475 0.098,0.2939 0.26941,0.51433 0.56331,0.51433 0.56331,0 1.02866,-0.34289 1.02866,-0.80823 v -3.42885"
           inkscape:connector-curvature="0" />
        <path
           id="path3148"
           style="font-variant:normal;font-stretch:normal;font-family:'League Gothic';-inkscape-font-specification:'League Gothic'"
           d="m 427.95255,827.21082 h -2.47368 v -0.88171 c -0.41636,0.39187 -0.78373,0.68577 -1.24908,0.9062 -0.24492,0.12246 -0.48983,0.17144 -0.71026,0.17144 -0.68577,0 -1.15112,-0.39187 -1.44502,-0.9062 -0.31839,-0.48983 -0.46534,-1.15111 -0.46534,-1.71442 v -8.54765 c 0,-0.56331 0.14695,-1.22459 0.46534,-1.73891 0.2939,-0.48984 0.75925,-0.88171 1.44502,-0.88171 0.46534,0 0.95518,0.26941 1.32256,0.53882 0.22042,0.17144 0.41636,0.34289 0.63678,0.53882 v -5.48617 h 2.47368 v 18.00149 m -2.47368,-10.45801 c 0,-0.39187 -0.36737,-0.80823 -0.73475,-0.80823 -0.36738,0 -0.66128,0.34289 -0.66128,0.80823 v 7.51899 c 0,0.46534 0.2939,0.80823 0.66128,0.80823 0.36738,0 0.73475,-0.34289 0.73475,-0.80823 v -7.51899"
           inkscape:connector-curvature="0" />
        <path
           id="path3150"
           style="font-variant:normal;font-stretch:normal;font-family:'League Gothic';-inkscape-font-specification:'League Gothic'"
           d="m 429.93484,809.20933 h 2.47368 v 2.47368 h -2.47368 v -2.47368 m 0,18.00149 v -13.39703 h 2.47368 v 13.39703 h -2.47368"
           inkscape:connector-curvature="0" />
        <path
           id="path3152"
           style="font-variant:normal;font-stretch:normal;font-family:'League Gothic';-inkscape-font-specification:'League Gothic'"
           d="m 439.3309,816.36094 c -0.22042,-0.0735 -0.46534,-0.098 -0.68577,-0.098 -0.39187,0 -0.85721,0.049 -1.24908,0.41636 -0.46534,0.39186 -0.53882,0.80823 -0.53882,1.22459 v 9.30689 h -2.47367 v -13.39703 h 2.47367 v 1.494 c 0.0245,-0.17144 0.19594,-0.5878 0.5878,-0.97967 0.39187,-0.36737 0.97968,-0.71026 1.88587,-0.71026 v 2.74308"
           inkscape:connector-curvature="0" />
        <path
           id="path3154"
           style="font-variant:normal;font-stretch:normal;font-family:'League Gothic';-inkscape-font-specification:'League Gothic'"
           d="m 446.5116,822.41042 v 1.54298 c -0.0735,1.29807 -0.46535,2.20427 -1.34705,2.91453 -0.44086,0.36738 -1.05315,0.53882 -1.86138,0.53882 -1.59197,0 -2.4002,-0.88171 -2.79207,-1.76341 -0.22042,-0.51433 -0.36738,-1.10213 -0.39187,-1.76341 v -6.73525 c 0.0735,-1.29806 0.48984,-2.25325 1.37154,-2.988 0.41636,-0.36738 1.02866,-0.53882 1.83689,-0.53882 1.59197,0 2.4002,0.88171 2.79207,1.73892 0.22042,0.51433 0.36737,1.07764 0.39187,1.71443 v 3.89419 h -4.09014 v 2.91453 c 0.0245,0.51433 0.17145,0.8817 0.39187,1.15111 0.12246,0.12246 0.2939,0.19594 0.51433,0.19594 0.46534,0 0.68577,-0.2939 0.78374,-0.66128 0.0735,-0.19593 0.098,-0.41636 0.098,-0.68577 v -1.46951 h 2.30223 m -4.09014,-3.37987 h 1.78791 v -1.88587 c 0,-0.51433 -0.098,-0.8817 -0.34289,-1.17561 -0.12246,-0.12246 -0.31839,-0.19593 -0.53882,-0.19593 -0.46534,0 -0.66128,0.31839 -0.78374,0.68577 -0.0735,0.19593 -0.098,0.41636 -0.12246,0.68577 v 1.88587"
           inkscape:connector-curvature="0" />
        <path
           id="path3156"
           style="font-variant:normal;font-stretch:normal;font-family:'League Gothic';-inkscape-font-specification:'League Gothic'"
           d="m 450.48577,824.12485 c 0,0.48983 0.0245,1.07764 0.68577,1.07764 0.56332,0 0.71027,-0.26941 0.71027,-1.07764 v -1.86138 h 2.47367 v 1.29807 c 0,1.49399 -0.26941,2.44918 -0.80823,3.03698 -0.53882,0.5878 -1.32256,0.80823 -2.37571,0.80823 -0.8817,0 -1.68993,-0.24492 -2.25324,-0.85721 -0.56331,-0.6123 -0.9062,-1.61646 -0.9062,-3.11046 v -5.85355 c 0,-1.494 0.34289,-2.49816 0.9062,-3.11046 0.56331,-0.61229 1.37154,-0.85721 2.25324,-0.85721 1.05315,0 1.83689,0.22043 2.37571,0.80823 0.53882,0.5878 0.80823,1.54299 0.80823,3.03698 v 1.05315 h -2.47367 v -1.61646 c 0,-0.80823 -0.14695,-1.07764 -0.71027,-1.07764 -0.66127,0 -0.68577,0.58781 -0.68577,1.07764 v 7.22509"
           inkscape:connector-curvature="0" />
        <path
           id="path3158"
           style="font-variant:normal;font-stretch:normal;font-family:'League Gothic';-inkscape-font-specification:'League Gothic'"
           d="m 458.75405,810.5074 v 3.30639 h 1.68994 v 2.22876 h -1.68994 v 6.66177 c 0,0.41636 0,0.95518 0.098,1.39604 0.098,0.44085 0.2939,0.80823 0.68577,0.80823 0.19593,0 0.44085,-0.0245 0.61229,-0.049 0.098,-0.0245 0.19594,-0.0245 0.29391,-0.049 v 2.42469 c -0.12246,0.0245 -0.24492,0.0735 -0.36738,0.098 -0.24492,0.049 -0.56331,0.0735 -0.95518,0.0735 -1.44502,0 -2.13079,-0.73476 -2.47368,-1.66544 -0.34288,-0.93069 -0.36737,-2.05732 -0.36737,-2.84105 v -6.85771 h -1.24908 v -2.22876 h 1.24908 v -3.30639 h 2.47367"
           inkscape:connector-curvature="0" />
        <path
           id="path3160"
           style="font-variant:normal;font-stretch:normal;font-family:'League Gothic';-inkscape-font-specification:'League Gothic'"
           d="m 465.44491,816.99773 c 0,-0.22043 0,-0.56331 -0.0735,-0.80823 -0.098,-0.24492 -0.2939,-0.41636 -0.61229,-0.41636 -0.41636,0 -0.58781,0.31839 -0.66128,0.71026 -0.0245,0.19594 -0.049,0.41636 -0.049,0.63679 0,0.22043 0,0.44085 0,0.63679 h -2.47367 v -0.56332 c 0,-0.97967 0.36738,-1.86137 0.95518,-2.52265 0.5878,-0.66128 1.42053,-1.05315 2.37571,-1.05315 0.80823,0 1.54298,0.31839 2.10629,0.85721 0.56331,0.53882 0.9062,1.29807 0.9062,2.17977 v 8.22925 c 0,1.2001 0.0735,1.73892 0.17144,2.32673 h -2.42469 c -0.22042,-0.26941 -0.22042,-0.9062 -0.22042,-1.07764 h -0.17145 c -0.12245,0.22042 -0.34288,0.53882 -0.68577,0.80823 -0.34288,0.26941 -0.80823,0.46534 -1.29806,0.46534 -0.3184,0 -0.83272,-0.12246 -1.22459,-0.6123 -0.41636,-0.46534 -0.75925,-1.29806 -0.75925,-2.69409 0,-1.494 0.44085,-2.57165 1.02866,-3.3064 0.5878,-0.73475 1.32256,-1.2001 1.93485,-1.51849 0.61229,-0.31839 1.07764,-0.53882 1.17561,-0.80823 v -1.46951 m 0,3.74725 c -1.2001,0.51432 -1.71443,1.71443 -1.71443,2.988 0,0.17144 0.0245,0.46534 0.12246,0.73475 0.098,0.2939 0.26941,0.51433 0.56331,0.51433 0.56331,0 1.02866,-0.34289 1.02866,-0.80823 v -3.42885"
           inkscape:connector-curvature="0" />
      </g>
      <g
         id="text3118"
         style="font-style:normal;font-weight:normal;font-size:23.96804237px;line-height:125%;font-family:Sans;letter-spacing:0px;word-spacing:0px;fill:#000000;fill-opacity:1;stroke:none"
         transform="matrix(1.4095238,0,0,1.4095238,-364.72543,-161.05605)">
        <path
           id="path3190"
           style="font-variant:normal;font-stretch:normal;font-family:'League Gothic';-inkscape-font-specification:'League Gothic'"
           d="m 295.74226,750.03879 c 0,-0.57524 -0.024,-1.22237 -0.19175,-1.7257 -0.16777,-0.47936 -0.43142,-0.81492 -0.83888,-0.81492 -0.6711,0.024 -0.88682,0.71905 -0.88682,1.74967 0,0.5992 0.26365,1.22237 0.64714,1.89348 0.38349,0.6711 0.88682,1.36618 1.39015,2.10918 0.5992,0.88682 1.1984,1.79761 1.65379,2.68443 0.45539,0.88681 0.76698,1.7976 0.76698,2.75632 0,1.17443 -0.19175,2.27697 -0.74301,3.09188 -0.55126,0.81491 -1.43808,1.34221 -2.8522,1.34221 -1.65379,0 -2.58855,-0.62317 -3.11584,-1.58189 -0.5273,-0.95872 -0.64714,-2.22903 -0.64714,-3.54727 l 2.54061,-0.23968 c 0,0.74301 0.024,1.48602 0.21572,2.03728 0.16777,0.57523 0.45539,0.95872 1.00665,0.95872 0.76698,0 1.0546,-0.81491 1.0546,-1.94141 0,-0.57523 -0.28762,-1.24634 -0.67111,-1.94141 -0.21571,-0.33555 -0.43142,-0.69507 -0.6711,-1.05459 -0.50333,-0.71905 -1.0546,-1.53396 -1.62983,-2.42078 -0.57523,-0.88681 -1.00666,-1.7976 -1.27031,-2.73235 -0.1438,-0.4554 -0.21571,-0.93476 -0.21571,-1.41412 0,-0.95872 0.21571,-1.98935 0.76698,-2.78029 0.55126,-0.76698 1.39015,-1.31824 2.61251,-1.34221 1.55793,-0.024 2.46871,0.62317 2.97204,1.55792 0.50333,0.95872 0.64714,2.13316 0.64714,3.11585 l -2.54061,0.23968"
           inkscape:connector-curvature="0" />
        <path
           id="path3192"
           style="font-variant:normal;font-stretch:normal;font-family:'League Gothic';-inkscape-font-specification:'League Gothic'"
           d="m 302.61509,746.58739 v 3.23568 h 1.6538 v 2.1811 h -1.6538 v 6.5193 c 0,0.40746 0,0.93476 0.0959,1.36618 0.0959,0.43143 0.28761,0.79095 0.6711,0.79095 0.19174,0 0.43143,-0.024 0.5992,-0.0479 0.0959,-0.024 0.19175,-0.024 0.28762,-0.0479 v 2.37283 c -0.11984,0.024 -0.23968,0.0719 -0.35952,0.0959 -0.23968,0.0479 -0.55127,0.0719 -0.93476,0.0719 -1.41411,0 -2.08522,-0.71904 -2.42077,-1.62983 -0.33555,-0.91078 -0.35952,-2.01332 -0.35952,-2.78029 v -6.71105 h -1.22237 v -2.1811 h 1.22237 v -3.23568 h 2.42077"
           inkscape:connector-curvature="0" />
        <path
           id="path3194"
           style="font-variant:normal;font-stretch:normal;font-family:'League Gothic';-inkscape-font-specification:'League Gothic'"
           d="m 309.16286,752.93892 c 0,-0.21571 0,-0.55127 -0.0719,-0.79095 -0.0959,-0.23968 -0.28762,-0.40745 -0.5992,-0.40745 -0.40746,0 -0.57523,0.31158 -0.64714,0.69507 -0.024,0.19175 -0.0479,0.40746 -0.0479,0.62317 0,0.21571 0,0.43143 0,0.62317 h -2.42077 v -0.55127 c 0,-0.95872 0.35952,-1.82157 0.93476,-2.4687 0.57523,-0.64714 1.39014,-1.03063 2.3249,-1.03063 0.79094,0 1.50998,0.31159 2.06125,0.83888 0.55126,0.5273 0.88682,1.27031 0.88682,2.13316 v 8.05326 c 0,1.17443 0.0719,1.70173 0.16777,2.27696 h -2.37283 c -0.21572,-0.26364 -0.21572,-0.88681 -0.21572,-1.05459 h -0.16777 c -0.11984,0.21571 -0.33556,0.5273 -0.67111,0.79095 -0.33555,0.26364 -0.79094,0.45539 -1.2703,0.45539 -0.31159,0 -0.81492,-0.11984 -1.19841,-0.5992 -0.40745,-0.4554 -0.74301,-1.27031 -0.74301,-2.63649 0,-1.46205 0.43143,-2.51664 1.00666,-3.23568 0.57523,-0.71904 1.29428,-1.17444 1.89348,-1.48602 0.5992,-0.31159 1.05459,-0.5273 1.15046,-0.79095 v -1.43808 m 0,3.66711 c -1.17443,0.50333 -1.67776,1.67776 -1.67776,2.9241 0,0.16778 0.024,0.45539 0.11984,0.71904 0.0959,0.28762 0.26365,0.50333 0.55127,0.50333 0.55126,0 1.00665,-0.33555 1.00665,-0.79094 v -3.35553"
           inkscape:connector-curvature="0" />
        <path
           id="path3196"
           style="font-variant:normal;font-stretch:normal;font-family:'League Gothic';-inkscape-font-specification:'League Gothic'"
           d="m 317.96775,752.31575 c -0.21571,-0.0719 -0.45539,-0.0959 -0.67111,-0.0959 -0.38348,0 -0.83888,0.0479 -1.22237,0.40746 -0.45539,0.38348 -0.52729,0.79094 -0.52729,1.1984 v 9.10785 h -2.42078 v -13.11052 h 2.42078 v 1.46206 c 0.024,-0.16778 0.19174,-0.57524 0.57523,-0.95873 0.38349,-0.35952 0.95872,-0.69507 1.84554,-0.69507 v 2.68442"
           inkscape:connector-curvature="0" />
        <path
           id="path3198"
           style="font-variant:normal;font-stretch:normal;font-family:'League Gothic';-inkscape-font-specification:'League Gothic'"
           d="m 321.44536,762.93359 h -2.42077 v -17.61651 h 2.42077 v 5.60852 c 0.0479,-0.024 0.14381,-0.11984 0.28762,-0.26364 0.26365,-0.26365 0.62317,-0.62317 1.05459,-0.86285 0.21571,-0.11984 0.40746,-0.16778 0.62317,-0.16778 0.64714,0 1.10253,0.38349 1.39015,0.86285 0.28761,0.50333 0.43142,1.15047 0.43142,1.70173 v 10.73768 h -2.42077 v -10.37816 c 0,-0.50333 -0.28762,-0.57523 -0.57523,-0.57523 -0.26365,0 -0.40746,0.14381 -0.57524,0.31158 -0.0719,0.0959 -0.1438,0.19175 -0.21571,0.31159 v 10.33022"
           inkscape:connector-curvature="0" />
        <path
           id="path3200"
           style="font-variant:normal;font-stretch:normal;font-family:'League Gothic';-inkscape-font-specification:'League Gothic'"
           d="m 330.64984,752.93892 c 0,-0.21571 0,-0.55127 -0.0719,-0.79095 -0.0959,-0.23968 -0.28761,-0.40745 -0.5992,-0.40745 -0.40745,0 -0.57523,0.31158 -0.64713,0.69507 -0.024,0.19175 -0.0479,0.40746 -0.0479,0.62317 0,0.21571 0,0.43143 0,0.62317 h -2.42077 v -0.55127 c 0,-0.95872 0.35952,-1.82157 0.93475,-2.4687 0.57523,-0.64714 1.39015,-1.03063 2.3249,-1.03063 0.79095,0 1.50999,0.31159 2.06125,0.83888 0.55127,0.5273 0.88682,1.27031 0.88682,2.13316 v 8.05326 c 0,1.17443 0.0719,1.70173 0.16778,2.27696 h -2.37284 c -0.21571,-0.26364 -0.21571,-0.88681 -0.21571,-1.05459 h -0.16778 c -0.11984,0.21571 -0.33555,0.5273 -0.6711,0.79095 -0.33556,0.26364 -0.79095,0.45539 -1.27031,0.45539 -0.31158,0 -0.81491,-0.11984 -1.1984,-0.5992 -0.40746,-0.4554 -0.74301,-1.27031 -0.74301,-2.63649 0,-1.46205 0.43142,-2.51664 1.00666,-3.23568 0.57523,-0.71904 1.29427,-1.17444 1.89347,-1.48602 0.5992,-0.31159 1.0546,-0.5273 1.15047,-0.79095 v -1.43808 m 0,3.66711 c -1.17443,0.50333 -1.67776,1.67776 -1.67776,2.9241 0,0.16778 0.024,0.45539 0.11984,0.71904 0.0959,0.28762 0.26364,0.50333 0.55126,0.50333 0.55126,0 1.00666,-0.33555 1.00666,-0.79094 v -3.35553"
           inkscape:connector-curvature="0" />
        <path
           id="path3202"
           style="font-variant:normal;font-stretch:normal;font-family:'League Gothic';-inkscape-font-specification:'League Gothic'"
           d="m 340.05392,762.93359 -0.93475,-6.25566 -0.11984,-0.743 h -0.0959 l -0.11984,0.743 -0.93476,6.25566 h -2.01331 l -1.94141,-13.11052 h 2.20506 l 0.76697,6.85486 0.0959,0.74301 h 0.14381 l 0.11984,-0.74301 1.00665,-6.85486 h 1.43809 l 1.00665,6.85486 0.11984,0.74301 h 0.14381 l 0.0959,-0.74301 0.76698,-6.85486 h 2.20506 l -1.94141,13.11052 h -2.01332"
           inkscape:connector-curvature="0" />
        <path
           id="path3204"
           style="font-variant:normal;font-stretch:normal;font-family:'League Gothic';-inkscape-font-specification:'League Gothic'"
           d="m 347.61359,745.31708 v 8.36485 h 0.11984 l 0.14381,-0.43143 1.17444,-3.42743 h 2.18109 l -1.74967,4.26632 2.20506,8.8442 h -2.3249 l -1.1984,-5.29693 -0.0479,-0.19175 h -0.11984 l -0.0719,0.19175 -0.31159,0.76697 v 4.52996 h -2.42077 v -17.61651 h 2.42077"
           inkscape:connector-curvature="0" />
      </g>
    </g>
  </g>
</svg>
