<?xml version="1.0" encoding="UTF-8" standalone="no"?>
<!-- Created with Inkscape (http://www.inkscape.org/) -->

<svg
   xmlns:dc="http://purl.org/dc/elements/1.1/"
   xmlns:cc="http://creativecommons.org/ns#"
   xmlns:rdf="http://www.w3.org/1999/02/22-rdf-syntax-ns#"
   xmlns:svg="http://www.w3.org/2000/svg"
   xmlns="http://www.w3.org/2000/svg"
   xmlns:sodipodi="http://sodipodi.sourceforge.net/DTD/sodipodi-0.dtd"
   xmlns:inkscape="http://www.inkscape.org/namespaces/inkscape"
   width="396.8504"
   height="279.68503"
   id="svg2"
   version="1.1"
   inkscape:version="0.92.2 5c3e80d, 2017-08-06"
   sodipodi:docname="las_nuevas_anarquistas.svg"
   viewBox="0 0 372.04724 262.20471">
  <defs
     id="defs4" />
  <sodipodi:namedview
     id="base"
     pagecolor="#ffffff"
     bordercolor="#666666"
     borderopacity="1.0"
     inkscape:pageopacity="0.0"
     inkscape:pageshadow="2"
     inkscape:zoom="1.138198"
     inkscape:cx="98.355584"
     inkscape:cy="101.21838"
     inkscape:document-units="mm"
     inkscape:current-layer="layer1"
     showgrid="false"
     showguides="true"
     inkscape:guide-bbox="true"
     units="mm"
     inkscape:window-width="1280"
     inkscape:window-height="738"
     inkscape:window-x="0"
     inkscape:window-y="62"
     inkscape:window-maximized="0">
    <sodipodi:guide
       orientation="1,0"
       position="372.04723,0"
       id="guide3168"
       inkscape:locked="false" />
    <sodipodi:guide
       orientation="0,1"
       position="72.857141,271.42856"
       id="guide3277"
       inkscape:locked="false" />
  </sodipodi:namedview>
  <metadata
     id="metadata7">
    <rdf:RDF>
      <cc:Work
         rdf:about="">
        <dc:format>image/svg+xml</dc:format>
        <dc:type
           rdf:resource="http://purl.org/dc/dcmitype/StillImage" />
        <dc:title></dc:title>
      </cc:Work>
    </rdf:RDF>
  </metadata>
  <g
     inkscape:label="Capa 1"
     inkscape:groupmode="layer"
     id="layer1"
     transform="translate(0,-790.15737)">
    <g
       id="layer1-8"
       inkscape:label="Capa 1"
       transform="matrix(0.16088167,0,0,0.16157504,44.613147,909.65661)">
      <rect
         style="fill:#d40000"
         id="rect3033"
         width="2312.552"
         height="1622.8047"
         x="-277.30411"
         y="-739.58978" />
      <g
         inkscape:export-ydpi="149"
         inkscape:export-xdpi="149"
         inkscape:export-filename="/srv/http/kiwwwi.com.ar/pastes/utopia-pirata-2.png"
         transform="matrix(0.67937345,0,0,0.67937345,-233.93427,225.03697)"
         id="g3847" />
    </g>
    <rect
       style="fill:#ffffff"
       id="rect3035"
       width="372.04724"
       height="173.31024"
       x="0"
       y="808.18567" />
    <g
       transform="translate(-372.04724,218.99762)"
       style="font-style:normal;font-variant:normal;font-weight:normal;font-stretch:normal;font-size:47.7713356px;line-height:125%;font-family:FontAwesome;-inkscape-font-specification:FontAwesome;text-align:end;letter-spacing:0px;word-spacing:0px;text-anchor:end;fill:#000000;fill-opacity:1;stroke:none;stroke-width:1px;stroke-linecap:butt;stroke-linejoin:miter;stroke-opacity:1"
       id="text4417">
      <path
         inkscape:connector-curvature="0"
         d="m 411.98861,667.74573 h 5.1593 v 30.3348 h 6.8313 v 4.77714 h -11.9906 z"
         style="font-style:normal;font-variant:normal;font-weight:normal;font-stretch:normal;font-family:'League Gothic';-inkscape-font-specification:'League Gothic'"
         id="path4484" />
      <path
         inkscape:connector-curvature="0"
         d="m 433.38644,682.93702 c 0,-0.42994 0,-1.09874 -0.14332,-1.57646 -0.19108,-0.47771 -0.57325,-0.81211 -1.19428,-0.81211 -0.81211,0 -1.14651,0.62103 -1.28983,1.38537 -0.0478,0.38217 -0.0955,0.81211 -0.0955,1.24206 0,0.42994 0,0.85988 0,1.24205 h -4.82491 v -1.09874 c 0,-1.91085 0.71657,-3.63062 1.86309,-4.92045 1.14651,-1.28982 2.77073,-2.05417 4.63382,-2.05417 1.57645,0 3.00959,0.62103 4.10833,1.672 1.09874,1.05097 1.76754,2.53188 1.76754,4.25165 v 16.05117 c 0,2.34079 0.14331,3.39176 0.3344,4.53828 h -4.72936 c -0.42994,-0.52549 -0.42994,-1.76754 -0.42994,-2.10194 h -0.3344 c -0.23886,0.42994 -0.6688,1.05097 -1.3376,1.57645 -0.6688,0.52549 -1.57646,0.90766 -2.53188,0.90766 -0.62103,0 -1.62423,-0.23886 -2.38857,-1.19429 -0.81211,-0.90765 -1.48091,-2.53188 -1.48091,-5.25484 0,-2.91406 0.85988,-5.01599 2.0064,-6.44913 1.14651,-1.43314 2.57965,-2.3408 3.77393,-2.96183 1.19428,-0.62102 2.10194,-1.05097 2.29303,-1.57645 v -2.86628 z m 0,7.30901 c -2.3408,1.0032 -3.344,3.344 -3.344,5.82811 0,0.3344 0.0478,0.90765 0.23886,1.43314 0.19108,0.57325 0.52548,1.00319 1.09874,1.00319 1.09874,0 2.0064,-0.66879 2.0064,-1.57645 z"
         style="font-style:normal;font-variant:normal;font-weight:normal;font-stretch:normal;font-family:'League Gothic';-inkscape-font-specification:'League Gothic'"
         id="path4486" />
      <path
         inkscape:connector-curvature="0"
         d="m 448.59489,683.41473 c 0,-0.62102 0,-1.38537 -0.19109,-2.00639 -0.23885,-0.57326 -0.62102,-1.05097 -1.38537,-1.05097 -0.62102,0 -1.00319,0.47771 -1.19428,1.05097 -0.23886,0.57325 -0.28663,1.38537 -0.28663,2.00639 0,0.81212 0.42994,1.672 1.05097,2.43634 0.57326,0.76434 1.3376,1.52868 2.10194,2.24525 1.0032,1.0032 2.19748,2.14971 3.00959,3.43954 0.81212,1.3376 1.43314,2.81851 1.43314,4.53828 0,1.67199 -0.38217,3.43953 -1.33759,4.77713 -1.0032,1.38537 -2.53188,2.38857 -4.82491,2.38857 -2.91405,0 -4.63382,-1.3376 -5.58924,-2.96183 -0.95543,-1.62422 -1.14652,-3.63062 -1.14652,-5.01599 h 4.49051 c 0,0.71657 0.0478,1.71977 0.38217,2.48411 0.3344,0.81212 0.85988,1.48091 1.86308,1.48091 1.38537,0 1.672,-1.62422 1.672,-3.1529 0,-1.57646 -1.52868,-3.15291 -3.0096,-4.63382 -1.14651,-1.09874 -2.24525,-2.10194 -3.10513,-3.39177 -0.85989,-1.28982 -1.48091,-2.72296 -1.48091,-4.63382 0,-1.52868 0.28662,-3.29622 1.19428,-4.68159 0.90766,-1.3376 2.38857,-2.34079 4.68159,-2.38857 2.81851,-0.0478 4.39496,1.0032 5.20708,2.38857 0.81211,1.38537 0.95542,3.20068 0.95542,4.68159 z"
         style="font-style:normal;font-variant:normal;font-weight:normal;font-stretch:normal;font-family:'League Gothic';-inkscape-font-specification:'League Gothic'"
         id="path4488" />
      <path
         inkscape:connector-curvature="0"
         d="m 468.22368,702.85767 h -4.8249 v -26.13092 h 4.8249 v 2.19748 c 0.0955,-0.0478 0.28663,-0.23886 0.57326,-0.52549 0.52548,-0.52548 1.24205,-1.24205 2.10194,-1.71977 0.42994,-0.23885 0.81211,-0.3344 1.24205,-0.3344 1.28983,0 2.19748,0.76435 2.77074,1.71977 0.57325,1.0032 0.85988,2.29303 0.85988,3.39177 v 21.40156 h -4.8249 v -20.68499 c 0,-1.0032 -0.57326,-1.14651 -1.14651,-1.14651 -0.52549,0 -0.81212,0.28662 -1.14652,0.62102 -0.14331,0.19109 -0.28662,0.38217 -0.42994,0.62103 z"
         style="font-style:normal;font-variant:normal;font-weight:normal;font-stretch:normal;font-family:'League Gothic';-inkscape-font-specification:'League Gothic'"
         id="path4490" />
      <path
         inkscape:connector-curvature="0"
         d="m 486.99259,676.72675 h 4.8249 v 26.13092 h -4.8249 v -2.19749 c -0.0955,0.0478 -0.28663,0.23886 -0.52549,0.47772 -0.57325,0.57325 -1.24205,1.24205 -2.10193,1.71977 -0.42995,0.23885 -0.85989,0.38217 -1.28983,0.38217 -1.28983,0 -2.19748,-0.76434 -2.77074,-1.76754 -0.57325,-0.95543 -0.85988,-2.24526 -0.85988,-3.344 v -21.40155 h 4.8249 v 20.68498 c 0,1.0032 0.57326,1.14652 1.14651,1.14652 0.52549,0 0.81212,-0.28663 1.14652,-0.62103 0.14331,-0.14332 0.28662,-0.38217 0.42994,-0.62103 z"
         style="font-style:normal;font-variant:normal;font-weight:normal;font-stretch:normal;font-family:'League Gothic';-inkscape-font-specification:'League Gothic'"
         id="path4492" />
      <path
         inkscape:connector-curvature="0"
         d="m 507.58129,693.49448 v 3.0096 c -0.14332,2.53188 -0.90766,4.29942 -2.62743,5.68479 -0.85988,0.71657 -2.05416,1.05097 -3.63062,1.05097 -3.10513,0 -4.68159,-1.71977 -5.44593,-3.43954 -0.42994,-1.0032 -0.71657,-2.14971 -0.76434,-3.43954 v -13.13711 c 0.14331,-2.53188 0.95543,-4.39497 2.67519,-5.82811 0.81212,-0.71657 2.0064,-1.05097 3.58285,-1.05097 3.10514,0 4.6816,1.71977 5.44594,3.39177 0.42994,1.0032 0.71657,2.10194 0.76434,3.34399 v 7.59565 h -7.97782 v 5.68478 c 0.0478,1.0032 0.3344,1.71977 0.76435,2.24526 0.23885,0.23885 0.57325,0.38217 1.00319,0.38217 0.90766,0 1.3376,-0.57326 1.52869,-1.28983 0.14331,-0.38217 0.19108,-0.81211 0.19108,-1.3376 v -2.86628 z m -7.97782,-6.59244 h 3.48731 v -3.67839 c 0,-1.0032 -0.19108,-1.71977 -0.6688,-2.29303 -0.23885,-0.23885 -0.62102,-0.38217 -1.05097,-0.38217 -0.90765,0 -1.28982,0.62103 -1.52868,1.3376 -0.14331,0.38217 -0.19108,0.81211 -0.23886,1.3376 z"
         style="font-style:normal;font-variant:normal;font-weight:normal;font-stretch:normal;font-family:'League Gothic';-inkscape-font-specification:'League Gothic'"
         id="path4494" />
      <path
         inkscape:connector-curvature="0"
         d="m 513.33326,702.85767 -4.25165,-26.13092 h 4.68159 l 1.57645,15.14351 0.19109,1.672 h 0.38217 l 0.19108,-1.672 1.57646,-15.14351 h 4.68159 l -4.25165,26.13092 z"
         style="font-style:normal;font-variant:normal;font-weight:normal;font-stretch:normal;font-family:'League Gothic';-inkscape-font-specification:'League Gothic'"
         id="path4496" />
      <path
         inkscape:connector-curvature="0"
         d="m 531.6349,682.93702 c 0,-0.42994 0,-1.09874 -0.14331,-1.57646 -0.19109,-0.47771 -0.57326,-0.81211 -1.19428,-0.81211 -0.81212,0 -1.14652,0.62103 -1.28983,1.38537 -0.0478,0.38217 -0.0955,0.81211 -0.0955,1.24206 0,0.42994 0,0.85988 0,1.24205 h -4.82491 v -1.09874 c 0,-1.91085 0.71657,-3.63062 1.86309,-4.92045 1.14651,-1.28982 2.77073,-2.05417 4.63381,-2.05417 1.57646,0 3.0096,0.62103 4.10834,1.672 1.09874,1.05097 1.76754,2.53188 1.76754,4.25165 v 16.05117 c 0,2.34079 0.14331,3.39176 0.3344,4.53828 h -4.72936 c -0.42995,-0.52549 -0.42995,-1.76754 -0.42995,-2.10194 h -0.3344 c -0.23885,0.42994 -0.66879,1.05097 -1.33759,1.57645 -0.6688,0.52549 -1.57646,0.90766 -2.53188,0.90766 -0.62103,0 -1.62423,-0.23886 -2.38857,-1.19429 -0.81211,-0.90765 -1.48091,-2.53188 -1.48091,-5.25484 0,-2.91406 0.85988,-5.01599 2.00639,-6.44913 1.14652,-1.43314 2.57966,-2.3408 3.77394,-2.96183 1.19428,-0.62102 2.10194,-1.05097 2.29302,-1.57645 v -2.86628 z m 0,7.30901 c -2.34079,1.0032 -3.34399,3.344 -3.34399,5.82811 0,0.3344 0.0478,0.90765 0.23886,1.43314 0.19108,0.57325 0.52548,1.00319 1.09874,1.00319 1.09874,0 2.00639,-0.66879 2.00639,-1.57645 z"
         style="font-style:normal;font-variant:normal;font-weight:normal;font-stretch:normal;font-family:'League Gothic';-inkscape-font-specification:'League Gothic'"
         id="path4498" />
      <path
         inkscape:connector-curvature="0"
         d="m 546.84335,683.41473 c 0,-0.62102 0,-1.38537 -0.19108,-2.00639 -0.23886,-0.57326 -0.62103,-1.05097 -1.38537,-1.05097 -0.62103,0 -1.0032,0.47771 -1.19428,1.05097 -0.23886,0.57325 -0.28663,1.38537 -0.28663,2.00639 0,0.81212 0.42994,1.672 1.05097,2.43634 0.57325,0.76434 1.3376,1.52868 2.10194,2.24525 1.00319,1.0032 2.19748,2.14971 3.00959,3.43954 0.81211,1.3376 1.43314,2.81851 1.43314,4.53828 0,1.67199 -0.38217,3.43953 -1.3376,4.77713 -1.00319,1.38537 -2.53188,2.38857 -4.8249,2.38857 -2.91405,0 -4.63382,-1.3376 -5.58925,-2.96183 -0.95542,-1.62422 -1.14651,-3.63062 -1.14651,-5.01599 h 4.49051 c 0,0.71657 0.0478,1.71977 0.38217,2.48411 0.3344,0.81212 0.85988,1.48091 1.86308,1.48091 1.38537,0 1.672,-1.62422 1.672,-3.1529 0,-1.57646 -1.52869,-3.15291 -3.0096,-4.63382 -1.14651,-1.09874 -2.24525,-2.10194 -3.10514,-3.39177 -0.85988,-1.28982 -1.48091,-2.72296 -1.48091,-4.63382 0,-1.52868 0.28663,-3.29622 1.19429,-4.68159 0.90765,-1.3376 2.38856,-2.34079 4.68159,-2.38857 2.81851,-0.0478 4.39496,1.0032 5.20707,2.38857 0.81212,1.38537 0.95543,3.20068 0.95543,4.68159 z"
         style="font-style:normal;font-variant:normal;font-weight:normal;font-stretch:normal;font-family:'League Gothic';-inkscape-font-specification:'League Gothic'"
         id="path4500" />
      <path
         inkscape:connector-curvature="0"
         d="m 568.95625,682.93702 c 0,-0.42994 0,-1.09874 -0.14331,-1.57646 -0.19109,-0.47771 -0.57326,-0.81211 -1.19428,-0.81211 -0.81212,0 -1.14652,0.62103 -1.28983,1.38537 -0.0478,0.38217 -0.0955,0.81211 -0.0955,1.24206 0,0.42994 0,0.85988 0,1.24205 h -4.82491 v -1.09874 c 0,-1.91085 0.71657,-3.63062 1.86309,-4.92045 1.14651,-1.28982 2.77073,-2.05417 4.63381,-2.05417 1.57646,0 3.0096,0.62103 4.10834,1.672 1.09874,1.05097 1.76754,2.53188 1.76754,4.25165 v 16.05117 c 0,2.34079 0.14331,3.39176 0.3344,4.53828 h -4.72936 c -0.42995,-0.52549 -0.42995,-1.76754 -0.42995,-2.10194 h -0.3344 c -0.23885,0.42994 -0.66879,1.05097 -1.33759,1.57645 -0.6688,0.52549 -1.57646,0.90766 -2.53188,0.90766 -0.62103,0 -1.62423,-0.23886 -2.38857,-1.19429 -0.81211,-0.90765 -1.48091,-2.53188 -1.48091,-5.25484 0,-2.91406 0.85988,-5.01599 2.00639,-6.44913 1.14652,-1.43314 2.57966,-2.3408 3.77394,-2.96183 1.19428,-0.62102 2.10194,-1.05097 2.29302,-1.57645 v -2.86628 z m 0,7.30901 c -2.34079,1.0032 -3.34399,3.344 -3.34399,5.82811 0,0.3344 0.0478,0.90765 0.23886,1.43314 0.19108,0.57325 0.52548,1.00319 1.09874,1.00319 1.09874,0 2.00639,-0.66879 2.00639,-1.57645 z"
         style="font-style:normal;font-variant:normal;font-weight:normal;font-stretch:normal;font-family:'League Gothic';-inkscape-font-specification:'League Gothic'"
         id="path4502" />
      <path
         inkscape:connector-curvature="0"
         d="m 581.68061,702.85767 h -4.8249 v -26.13092 h 4.8249 v 2.19748 c 0.0955,-0.0478 0.28663,-0.23886 0.57326,-0.52549 0.52548,-0.52548 1.24205,-1.24205 2.10193,-1.71977 0.42995,-0.23885 0.81212,-0.3344 1.24206,-0.3344 1.28983,0 2.19748,0.76435 2.77074,1.71977 0.57325,1.0032 0.85988,2.29303 0.85988,3.39177 v 21.40156 h -4.8249 v -20.68499 c 0,-1.0032 -0.57326,-1.14651 -1.14652,-1.14651 -0.52548,0 -0.81211,0.28662 -1.14651,0.62102 -0.14331,0.19109 -0.28663,0.38217 -0.42994,0.62103 z"
         style="font-style:normal;font-variant:normal;font-weight:normal;font-stretch:normal;font-family:'League Gothic';-inkscape-font-specification:'League Gothic'"
         id="path4504" />
      <path
         inkscape:connector-curvature="0"
         d="m 600.02629,682.93702 c 0,-0.42994 0,-1.09874 -0.14331,-1.57646 -0.19109,-0.47771 -0.57326,-0.81211 -1.19429,-0.81211 -0.81211,0 -1.14651,0.62103 -1.28982,1.38537 -0.0478,0.38217 -0.0955,0.81211 -0.0955,1.24206 0,0.42994 0,0.85988 0,1.24205 h -4.82491 v -1.09874 c 0,-1.91085 0.71657,-3.63062 1.86308,-4.92045 1.14652,-1.28982 2.77074,-2.05417 4.63382,-2.05417 1.57646,0 3.0096,0.62103 4.10834,1.672 1.09874,1.05097 1.76754,2.53188 1.76754,4.25165 v 16.05117 c 0,2.34079 0.14331,3.39176 0.3344,4.53828 h -4.72937 c -0.42994,-0.52549 -0.42994,-1.76754 -0.42994,-2.10194 h -0.3344 c -0.23885,0.42994 -0.6688,1.05097 -1.33759,1.57645 -0.6688,0.52549 -1.57646,0.90766 -2.53189,0.90766 -0.62102,0 -1.62422,-0.23886 -2.38856,-1.19429 -0.81212,-0.90765 -1.48091,-2.53188 -1.48091,-5.25484 0,-2.91406 0.85988,-5.01599 2.00639,-6.44913 1.14651,-1.43314 2.57965,-2.3408 3.77394,-2.96183 1.19428,-0.62102 2.10194,-1.05097 2.29302,-1.57645 v -2.86628 z m 0,7.30901 c -2.34079,1.0032 -3.34399,3.344 -3.34399,5.82811 0,0.3344 0.0478,0.90765 0.23886,1.43314 0.19108,0.57325 0.52548,1.00319 1.09874,1.00319 1.09874,0 2.00639,-0.66879 2.00639,-1.57645 z"
         style="font-style:normal;font-variant:normal;font-weight:normal;font-stretch:normal;font-family:'League Gothic';-inkscape-font-specification:'League Gothic'"
         id="path4506" />
      <path
         inkscape:connector-curvature="0"
         d="m 617.57554,681.69496 c -0.42994,-0.14331 -0.90766,-0.19108 -1.3376,-0.19108 -0.76434,0 -1.672,0.0955 -2.43634,0.81211 -0.90765,0.76434 -1.05097,1.57646 -1.05097,2.38857 v 18.15311 h -4.8249 v -26.13092 h 4.8249 v 2.91405 c 0.0478,-0.3344 0.38217,-1.14652 1.14651,-1.91086 0.76435,-0.71657 1.91086,-1.38537 3.6784,-1.38537 z"
         style="font-style:normal;font-variant:normal;font-weight:normal;font-stretch:normal;font-family:'League Gothic';-inkscape-font-specification:'League Gothic'"
         id="path4508" />
      <path
         inkscape:connector-curvature="0"
         d="m 631.86364,711.83868 h -4.8249 V 701.1379 c -0.81211,0.76434 -1.52868,1.3376 -2.43634,1.76754 -0.47771,0.23885 -0.95543,0.3344 -1.38537,0.3344 -1.3376,0 -2.24525,-0.76434 -2.81851,-1.76754 -0.62102,-0.95543 -0.90765,-2.24526 -0.90765,-3.344 v -16.67219 c 0,-1.09874 0.28663,-2.38857 0.90765,-3.39177 0.57326,-0.95542 1.48091,-1.71977 2.81851,-1.71977 0.90766,0 1.86308,0.52549 2.57965,1.05097 0.42995,0.3344 0.81212,0.6688 1.24206,1.05097 v -1.71976 h 4.8249 z m -4.8249,-29.37937 c 0,-0.90766 -0.71657,-1.57646 -1.43314,-1.57646 -0.71657,0 -1.28983,0.6688 -1.28983,1.57646 v 14.6658 c 0,0.90765 0.57326,1.57645 1.28983,1.57645 0.71657,0 1.43314,-0.81211 1.43314,-1.57645 z"
         style="font-style:normal;font-variant:normal;font-weight:normal;font-stretch:normal;font-family:'League Gothic';-inkscape-font-specification:'League Gothic'"
         id="path4510" />
      <path
         inkscape:connector-curvature="0"
         d="m 643.18247,676.72675 h 4.8249 v 26.13092 h -4.8249 v -2.19749 c -0.0955,0.0478 -0.28663,0.23886 -0.52549,0.47772 -0.57325,0.57325 -1.24205,1.24205 -2.10193,1.71977 -0.42995,0.23885 -0.85989,0.38217 -1.28983,0.38217 -1.28983,0 -2.19748,-0.76434 -2.77074,-1.76754 -0.57325,-0.95543 -0.85988,-2.24526 -0.85988,-3.344 v -21.40155 h 4.8249 v 20.68498 c 0,1.0032 0.57326,1.14652 1.14651,1.14652 0.52549,0 0.81212,-0.28663 1.14652,-0.62103 0.14331,-0.14332 0.28663,-0.38217 0.42994,-0.62103 z"
         style="font-style:normal;font-variant:normal;font-weight:normal;font-stretch:normal;font-family:'League Gothic';-inkscape-font-specification:'League Gothic'"
         id="path4512" />
      <path
         inkscape:connector-curvature="0"
         d="m 651.87162,667.74573 h 4.82491 v 4.82491 h -4.82491 z m 0,35.11194 v -26.13092 h 4.82491 v 26.13092 z"
         style="font-style:normal;font-variant:normal;font-weight:normal;font-stretch:normal;font-family:'League Gothic';-inkscape-font-specification:'League Gothic'"
         id="path4514" />
      <path
         inkscape:connector-curvature="0"
         d="m 667.57794,683.41473 c 0,-0.62102 0,-1.38537 -0.19108,-2.00639 -0.23886,-0.57326 -0.62103,-1.05097 -1.38537,-1.05097 -0.62103,0 -1.0032,0.47771 -1.19428,1.05097 -0.23886,0.57325 -0.28663,1.38537 -0.28663,2.00639 0,0.81212 0.42994,1.672 1.05097,2.43634 0.57325,0.76434 1.33759,1.52868 2.10194,2.24525 1.00319,1.0032 2.19748,2.14971 3.00959,3.43954 0.81211,1.3376 1.43314,2.81851 1.43314,4.53828 0,1.67199 -0.38217,3.43953 -1.3376,4.77713 -1.0032,1.38537 -2.53188,2.38857 -4.8249,2.38857 -2.91405,0 -4.63382,-1.3376 -5.58925,-2.96183 -0.95543,-1.62422 -1.14651,-3.63062 -1.14651,-5.01599 h 4.4905 c 0,0.71657 0.0478,1.71977 0.38218,2.48411 0.33439,0.81212 0.85988,1.48091 1.86308,1.48091 1.38537,0 1.67199,-1.62422 1.67199,-3.1529 0,-1.57646 -1.52868,-3.15291 -3.00959,-4.63382 -1.14651,-1.09874 -2.24525,-2.10194 -3.10514,-3.39177 -0.85988,-1.28982 -1.48091,-2.72296 -1.48091,-4.63382 0,-1.52868 0.28663,-3.29622 1.19429,-4.68159 0.90765,-1.3376 2.38856,-2.34079 4.68159,-2.38857 2.8185,-0.0478 4.39496,1.0032 5.20707,2.38857 0.81211,1.38537 0.95543,3.20068 0.95543,4.68159 z"
         style="font-style:normal;font-variant:normal;font-weight:normal;font-stretch:normal;font-family:'League Gothic';-inkscape-font-specification:'League Gothic'"
         id="path4516" />
      <path
         inkscape:connector-curvature="0"
         d="m 680.37244,670.27762 v 6.44913 h 3.29622 v 4.34719 h -3.29622 v 12.9938 c 0,0.81211 0,1.86308 0.19108,2.72297 0.19109,0.85988 0.57326,1.57645 1.3376,1.57645 0.38217,0 0.85988,-0.0478 1.19428,-0.0955 0.19109,-0.0478 0.38217,-0.0478 0.57326,-0.0955 v 4.72936 c -0.23886,0.0478 -0.47771,0.14331 -0.71657,0.19108 -0.47771,0.0955 -1.09874,0.14332 -1.86308,0.14332 -2.81851,0 -4.15611,-1.43314 -4.82491,-3.24845 -0.6688,-1.81531 -0.71657,-4.0128 -0.71657,-5.54148 v -13.37597 h -2.43634 v -4.34719 h 2.43634 v -6.44913 h 4.82491 z"
         style="font-style:normal;font-variant:normal;font-weight:normal;font-stretch:normal;font-family:'League Gothic';-inkscape-font-specification:'League Gothic'"
         id="path4518" />
      <path
         inkscape:connector-curvature="0"
         d="m 693.42299,682.93702 c 0,-0.42994 0,-1.09874 -0.14331,-1.57646 -0.19109,-0.47771 -0.57326,-0.81211 -1.19429,-0.81211 -0.81211,0 -1.14651,0.62103 -1.28982,1.38537 -0.0478,0.38217 -0.0956,0.81211 -0.0956,1.24206 0,0.42994 0,0.85988 0,1.24205 h -4.8249 v -1.09874 c 0,-1.91085 0.71657,-3.63062 1.86308,-4.92045 1.14651,-1.28982 2.77074,-2.05417 4.63382,-2.05417 1.57645,0 3.00959,0.62103 4.10834,1.672 1.09874,1.05097 1.76753,2.53188 1.76753,4.25165 v 16.05117 c 0,2.34079 0.14332,3.39176 0.3344,4.53828 h -4.72936 c -0.42994,-0.52549 -0.42994,-1.76754 -0.42994,-2.10194 h -0.3344 c -0.23886,0.42994 -0.6688,1.05097 -1.3376,1.57645 -0.6688,0.52549 -1.57645,0.90766 -2.53188,0.90766 -0.62103,0 -1.62422,-0.23886 -2.38856,-1.19429 -0.81212,-0.90765 -1.48092,-2.53188 -1.48092,-5.25484 0,-2.91406 0.85989,-5.01599 2.0064,-6.44913 1.14651,-1.43314 2.57965,-2.3408 3.77394,-2.96183 1.19428,-0.62102 2.10193,-1.05097 2.29302,-1.57645 v -2.86628 z m 0,7.30901 c -2.3408,1.0032 -3.34399,3.344 -3.34399,5.82811 0,0.3344 0.0478,0.90765 0.23885,1.43314 0.19109,0.57325 0.52549,1.00319 1.09874,1.00319 1.09874,0 2.0064,-0.66879 2.0064,-1.57645 z"
         style="font-style:normal;font-variant:normal;font-weight:normal;font-stretch:normal;font-family:'League Gothic';-inkscape-font-specification:'League Gothic'"
         id="path4520" />
      <path
         inkscape:connector-curvature="0"
         d="m 708.63142,683.41473 c 0,-0.62102 0,-1.38537 -0.19108,-2.00639 -0.23886,-0.57326 -0.62103,-1.05097 -1.38537,-1.05097 -0.62103,0 -1.0032,0.47771 -1.19428,1.05097 -0.23886,0.57325 -0.28663,1.38537 -0.28663,2.00639 0,0.81212 0.42994,1.672 1.05097,2.43634 0.57325,0.76434 1.3376,1.52868 2.10194,2.24525 1.0032,1.0032 2.19748,2.14971 3.00959,3.43954 0.81211,1.3376 1.43314,2.81851 1.43314,4.53828 0,1.67199 -0.38217,3.43953 -1.3376,4.77713 -1.00319,1.38537 -2.53188,2.38857 -4.8249,2.38857 -2.91405,0 -4.63382,-1.3376 -5.58925,-2.96183 -0.95542,-1.62422 -1.14651,-3.63062 -1.14651,-5.01599 h 4.49051 c 0,0.71657 0.0478,1.71977 0.38217,2.48411 0.3344,0.81212 0.85988,1.48091 1.86308,1.48091 1.38537,0 1.672,-1.62422 1.672,-3.1529 0,-1.57646 -1.52869,-3.15291 -3.0096,-4.63382 -1.14651,-1.09874 -2.24525,-2.10194 -3.10513,-3.39177 -0.85989,-1.28982 -1.48092,-2.72296 -1.48092,-4.63382 0,-1.52868 0.28663,-3.29622 1.19429,-4.68159 0.90765,-1.3376 2.38856,-2.34079 4.68159,-2.38857 2.81851,-0.0478 4.39496,1.0032 5.20707,2.38857 0.81212,1.38537 0.95543,3.20068 0.95543,4.68159 z"
         style="font-style:normal;font-variant:normal;font-weight:normal;font-stretch:normal;font-family:'League Gothic';-inkscape-font-specification:'League Gothic'"
         id="path4522" />
    </g>
    <g
       style="font-style:normal;font-variant:normal;font-weight:normal;font-stretch:normal;font-size:28.29599571px;line-height:125%;font-family:'League Gothic';-inkscape-font-specification:'League Gothic';letter-spacing:0px;word-spacing:0px;fill:#000000;fill-opacity:1;stroke:none"
       id="text3426">
      <path
         d="m 39.941372,878.38824 v -20.79755 h 2.40516 c 2.829596,0 4.357584,0.56592 5.178167,2.15049 0.792287,1.58458 0.905472,4.18781 0.905472,8.26243 0,4.07462 -0.113185,6.64956 -0.905472,8.23414 -0.820583,1.58457 -2.348571,2.15049 -5.178167,2.15049 h -2.40516 m 3.055968,-3.05596 c 1.04695,0 1.641168,-0.11319 1.952423,-1.13184 0.14148,-0.48103 0.254664,-1.21673 0.28296,-2.20709 0.0283,-0.99036 0.0283,-2.32027 0.0283,-4.01803 0,-1.69776 0,-3.02767 -0.0283,-4.01803 -0.0283,-0.96207 -0.14148,-1.69776 -0.28296,-2.20709 -0.311255,-0.99036 -0.905473,-1.10354 -1.952423,-1.10354 v 14.68562"
         id="path3469"
         inkscape:connector-curvature="0" />
      <path
         d="m 54.771127,866.58881 c 0,-0.25466 0,-0.6508 -0.08489,-0.93376 -0.113184,-0.28296 -0.339553,-0.48104 -0.7074,-0.48104 -0.481032,0 -0.679104,0.36785 -0.763992,0.82059 -0.0283,0.22637 -0.05659,0.48103 -0.05659,0.73569 0,0.25467 0,0.50933 0,0.7357 h -2.857896 v -0.65081 c 0,-1.13184 0.424441,-2.15049 1.103544,-2.91449 0.679103,-0.76399 1.641169,-1.21672 2.744712,-1.21672 0.933767,0 1.782648,0.36785 2.433455,0.99036 0.650808,0.62251 1.046952,1.49969 1.046952,2.51834 v 9.50746 c 0,1.3865 0.08489,2.00901 0.198072,2.68811 h -2.801303 c -0.254664,-0.31125 -0.254664,-1.04695 -0.254664,-1.24502 h -0.198072 c -0.14148,0.25466 -0.396145,0.62251 -0.792288,0.93377 -0.396144,0.31125 -0.933769,0.53762 -1.499688,0.53762 -0.367848,0 -0.962064,-0.14148 -1.4148,-0.7074 -0.481031,-0.53762 -0.877176,-1.49969 -0.877176,-3.11256 0,-1.72605 0.509329,-2.97108 1.188432,-3.81996 0.679103,-0.84888 1.527985,-1.3865 2.235384,-1.75435 0.707399,-0.36785 1.245024,-0.62251 1.358208,-0.93377 v -1.69776 m 0,4.32929 c -1.386503,0.59422 -1.98072,1.98072 -1.98072,3.45211 0,0.19808 0.0283,0.53763 0.14148,0.84888 0.113184,0.33955 0.311256,0.59422 0.650808,0.59422 0.650807,0 1.188432,-0.39615 1.188432,-0.93377 v -3.96144"
         id="path3471"
         inkscape:connector-curvature="0" />
      <path
         d="m 61.063006,878.38824 -2.518344,-15.47791 h 2.773008 l 0.933768,8.96984 0.113184,0.99036 h 0.226368 l 0.113184,-0.99036 0.933768,-8.96984 h 2.773007 l -2.518343,15.47791 h -2.8296"
         id="path3473"
         inkscape:connector-curvature="0" />
      <path
         d="m 67.795242,857.59069 h 2.857896 v 2.85789 h -2.857896 v -2.85789 m 0,20.79755 v -15.47791 h 2.857896 v 15.47791 h -2.857896"
         id="path3475"
         inkscape:connector-curvature="0" />
      <path
         d="m 80.150423,878.38824 h -2.857895 v -1.01865 c -0.481032,0.45273 -0.905473,0.79229 -1.443096,1.04695 -0.28296,0.14148 -0.56592,0.19807 -0.820584,0.19807 -0.792287,0 -1.329912,-0.45273 -1.669464,-1.04695 -0.367847,-0.56592 -0.537624,-1.32991 -0.537624,-1.98072 v -9.8753 c 0,-0.65081 0.169777,-1.4148 0.537624,-2.00902 0.339552,-0.56592 0.877177,-1.01865 1.669464,-1.01865 0.537623,0 1.103544,0.31125 1.527984,0.62251 0.254663,0.19807 0.481032,0.39614 0.735696,0.62251 v -6.3383 h 2.857895 v 20.79755 m -2.857895,-12.08239 c 0,-0.45273 -0.424441,-0.93376 -0.84888,-0.93376 -0.42444,0 -0.763992,0.39614 -0.763992,0.93376 v 8.68688 c 0,0.53762 0.339552,0.93376 0.763992,0.93376 0.424439,0 0.84888,-0.39614 0.84888,-0.93376 v -8.68688"
         id="path3477"
         inkscape:connector-curvature="0" />
      <path
         d="m 91.701821,865.06083 v -3.19745 c 0,-0.56592 -0.113184,-0.96206 -0.396144,-1.30161 -0.14148,-0.14148 -0.367848,-0.22637 -0.622512,-0.22637 -0.537623,0 -0.792288,0.39614 -0.905471,0.76399 -0.08489,0.22637 -0.113184,0.48103 -0.113184,0.76399 v 12.50683 c 0,0.59422 0.14148,0.99036 0.42444,1.30162 0.141479,0.14148 0.339552,0.22637 0.594215,0.22637 0.537624,0 0.792288,-0.33956 0.905472,-0.76399 0.08489,-0.19808 0.113184,-0.45274 0.113184,-0.764 v -3.76336 h -1.216728 v -2.57494 h 4.272696 v 10.35633 h -1.810944 l -0.367848,-0.99036 c -0.565919,0.7074 -1.386505,1.21673 -2.376864,1.21673 -0.990358,0 -1.669464,-0.25466 -2.178791,-0.7074 -0.509328,-0.42444 -0.84888,-0.96206 -1.075248,-1.52798 -0.254664,-0.65081 -0.367848,-1.4148 -0.339552,-2.26368 v -12.25217 c 0.0283,-0.82058 0.198072,-1.58457 0.509328,-2.23538 0.254664,-0.56592 0.622512,-1.13184 1.188432,-1.55628 0.565919,-0.42444 1.358209,-0.7074 2.376863,-0.7074 1.018655,0 1.782649,0.28296 2.348568,0.7074 0.565919,0.42444 0.962064,0.99036 1.216728,1.55628 0.311256,0.65081 0.481032,1.4148 0.509328,2.23538 v 3.19745 h -3.055968"
         id="path3479"
         inkscape:connector-curvature="0" />
      <path
         d="m 102.69128,865.85312 c -0.25467,-0.0849 -0.53763,-0.11319 -0.79229,-0.11319 -0.45274,0 -0.99036,0.0566 -1.4431,0.48104 -0.537619,0.45273 -0.622508,0.93376 -0.622508,1.4148 v 10.75247 h -2.857895 v -15.47791 h 2.857895 v 1.72606 c 0.0283,-0.19807 0.226368,-0.6791 0.679108,-1.13184 0.45273,-0.42444 1.13184,-0.82058 2.17879,-0.82058 v 3.16915"
         id="path3481"
         inkscape:connector-curvature="0" />
      <path
         d="m 108.04718,866.58881 c 0,-0.25466 0,-0.6508 -0.0849,-0.93376 -0.11318,-0.28296 -0.33955,-0.48104 -0.7074,-0.48104 -0.48103,0 -0.6791,0.36785 -0.76399,0.82059 -0.0283,0.22637 -0.0566,0.48103 -0.0566,0.73569 0,0.25467 0,0.50933 0,0.7357 h -2.8579 v -0.65081 c 0,-1.13184 0.42444,-2.15049 1.10355,-2.91449 0.6791,-0.76399 1.64116,-1.21672 2.74471,-1.21672 0.93376,0 1.78265,0.36785 2.43345,0.99036 0.65081,0.62251 1.04695,1.49969 1.04695,2.51834 v 9.50746 c 0,1.3865 0.0849,2.00901 0.19808,2.68811 h -2.80131 c -0.25466,-0.31125 -0.25466,-1.04695 -0.25466,-1.24502 h -0.19807 c -0.14148,0.25466 -0.39615,0.62251 -0.79229,0.93377 -0.39614,0.31125 -0.93377,0.53762 -1.49969,0.53762 -0.36785,0 -0.96206,-0.14148 -1.4148,-0.7074 -0.48103,-0.53762 -0.87717,-1.49969 -0.87717,-3.11256 0,-1.72605 0.50932,-2.97108 1.18843,-3.81996 0.6791,-0.84888 1.52798,-1.3865 2.23538,-1.75435 0.7074,-0.36785 1.24503,-0.62251 1.35821,-0.93377 v -1.69776 m 0,4.32929 c -1.3865,0.59422 -1.98072,1.98072 -1.98072,3.45211 0,0.19808 0.0283,0.53763 0.14148,0.84888 0.11318,0.33955 0.31126,0.59422 0.65081,0.59422 0.6508,0 1.18843,-0.39615 1.18843,-0.93377 v -3.96144"
         id="path3483"
         inkscape:connector-curvature="0" />
      <path
         d="m 119.99561,872.84223 v 1.78265 c -0.0849,1.49968 -0.53763,2.54664 -1.55628,3.36722 -0.50933,0.42444 -1.21673,0.62251 -2.1505,0.62251 -1.83924,0 -2.77301,-1.01865 -3.22574,-2.03731 -0.25467,-0.59421 -0.42444,-1.27332 -0.45274,-2.03731 v -7.7814 c 0.0849,-1.49969 0.56592,-2.60323 1.58458,-3.45211 0.48103,-0.42444 1.18843,-0.62251 2.1222,-0.62251 1.83923,0 2.77301,1.01865 3.22574,2.00901 0.25466,0.59422 0.42444,1.24503 0.45274,1.98072 v 4.49907 h -4.72543 v 3.36722 c 0.0283,0.59421 0.19807,1.01866 0.45273,1.32991 0.14148,0.14148 0.33955,0.22637 0.59422,0.22637 0.53762,0 0.79229,-0.33955 0.90547,-0.76399 0.0849,-0.22637 0.11318,-0.48104 0.11318,-0.79229 v -1.69776 h 2.65983 m -4.72543,-3.90485 h 2.0656 v -2.17879 c 0,-0.59421 -0.11318,-1.01866 -0.39614,-1.35821 -0.14148,-0.14148 -0.36785,-0.22637 -0.62251,-0.22637 -0.53763,0 -0.76399,0.36785 -0.90547,0.79229 -0.0849,0.22637 -0.11319,0.48103 -0.14148,0.79229 v 2.17879"
         id="path3485"
         inkscape:connector-curvature="0" />
      <path
         d="m 121.95555,857.59069 h 2.85789 v 6.3383 c 0.48103,-0.45273 0.90548,-0.79229 1.47139,-1.04695 0.25467,-0.14148 0.53763,-0.19807 0.79229,-0.19807 0.79229,0 1.32991,0.45273 1.69776,1.01865 0.33955,0.59422 0.50933,1.35821 0.50933,2.00902 v 9.8753 c 0,0.65081 -0.16978,1.4148 -0.50933,1.98072 -0.36785,0.59422 -0.90547,1.04695 -1.69776,1.04695 -0.53762,0 -1.10354,-0.31125 -1.52798,-0.62251 -0.25466,-0.19807 -0.48103,-0.39614 -0.7357,-0.62251 v 1.01865 h -2.85789 v -20.79755 m 2.85789,17.40204 c 0,0.53762 0.42444,0.93376 0.84888,0.93376 0.42444,0 0.76399,-0.39614 0.76399,-0.93376 v -8.68688 c 0,-0.53762 -0.33955,-0.93376 -0.76399,-0.93376 -0.42444,0 -0.84888,0.48103 -0.84888,0.93376 v 8.68688"
         id="path3487"
         inkscape:connector-curvature="0" />
      <path
         d="m 138.62012,872.84223 v 1.78265 c -0.0849,1.49968 -0.53763,2.54664 -1.55628,3.36722 -0.50933,0.42444 -1.21673,0.62251 -2.1505,0.62251 -1.83924,0 -2.77301,-1.01865 -3.22574,-2.03731 -0.25466,-0.59421 -0.42444,-1.27332 -0.45274,-2.03731 v -7.7814 c 0.0849,-1.49969 0.56592,-2.60323 1.58458,-3.45211 0.48103,-0.42444 1.18843,-0.62251 2.1222,-0.62251 1.83924,0 2.77301,1.01865 3.22574,2.00901 0.25467,0.59422 0.42444,1.24503 0.45274,1.98072 v 4.49907 h -4.72543 v 3.36722 c 0.0283,0.59421 0.19807,1.01866 0.45273,1.32991 0.14148,0.14148 0.33956,0.22637 0.59422,0.22637 0.53762,0 0.79229,-0.33955 0.90547,-0.76399 0.0849,-0.22637 0.11318,-0.48104 0.11318,-0.79229 v -1.69776 h 2.65983 m -4.72543,-3.90485 h 2.0656 v -2.17879 c 0,-0.59421 -0.11318,-1.01866 -0.39614,-1.35821 -0.14148,-0.14148 -0.36785,-0.22637 -0.62251,-0.22637 -0.53762,0 -0.76399,0.36785 -0.90547,0.79229 -0.0849,0.22637 -0.11319,0.48103 -0.14148,0.79229 v 2.17879"
         id="path3489"
         inkscape:connector-curvature="0" />
      <path
         d="m 146.24058,865.85312 c -0.25466,-0.0849 -0.53762,-0.11319 -0.79228,-0.11319 -0.45274,0 -0.99037,0.0566 -1.4431,0.48104 -0.53762,0.45273 -0.62251,0.93376 -0.62251,1.4148 v 10.75247 h -2.8579 v -15.47791 h 2.8579 v 1.72606 c 0.0283,-0.19807 0.22637,-0.6791 0.6791,-1.13184 0.45274,-0.42444 1.13184,-0.82058 2.17879,-0.82058 v 3.16915"
         id="path3491"
         inkscape:connector-curvature="0" />
    </g>
  </g>
</svg>
