<?xml version="1.0" encoding="UTF-8" standalone="no"?>
<!-- Created with Inkscape (http://www.inkscape.org/) -->

<svg
   xmlns:dc="http://purl.org/dc/elements/1.1/"
   xmlns:cc="http://creativecommons.org/ns#"
   xmlns:rdf="http://www.w3.org/1999/02/22-rdf-syntax-ns#"
   xmlns:svg="http://www.w3.org/2000/svg"
   xmlns="http://www.w3.org/2000/svg"
   xmlns:sodipodi="http://sodipodi.sourceforge.net/DTD/sodipodi-0.dtd"
   xmlns:inkscape="http://www.inkscape.org/namespaces/inkscape"
   width="396.8504"
   height="279.68503"
   id="svg2"
   version="1.1"
   inkscape:version="0.92.2 5c3e80d, 2017-08-06"
   sodipodi:docname="pensamiento_crudo.svg"
   viewBox="0 0 372.04724 262.20471">
  <defs
     id="defs4" />
  <sodipodi:namedview
     id="base"
     pagecolor="#ffffff"
     bordercolor="#666666"
     borderopacity="1.0"
     inkscape:pageopacity="0.0"
     inkscape:pageshadow="2"
     inkscape:zoom="0.9899495"
     inkscape:cx="347.56596"
     inkscape:cy="58.649529"
     inkscape:document-units="mm"
     inkscape:current-layer="layer1"
     showgrid="false"
     showguides="true"
     inkscape:guide-bbox="true"
     units="mm"
     inkscape:window-width="1280"
     inkscape:window-height="738"
     inkscape:window-x="0"
     inkscape:window-y="62"
     inkscape:window-maximized="0">
    <sodipodi:guide
       orientation="1,0"
       position="372.04723,0"
       id="guide3168"
       inkscape:locked="false" />
  </sodipodi:namedview>
  <metadata
     id="metadata7">
    <rdf:RDF>
      <cc:Work
         rdf:about="">
        <dc:format>image/svg+xml</dc:format>
        <dc:type
           rdf:resource="http://purl.org/dc/dcmitype/StillImage" />
        <dc:title></dc:title>
      </cc:Work>
    </rdf:RDF>
  </metadata>
  <g
     inkscape:label="Capa 1"
     inkscape:groupmode="layer"
     id="layer1"
     transform="translate(0,-790.15737)">
    <path
       style="fill:#ffcc00;fill-opacity:1"
       d="M -7.0438722e-7,790.15741 H 372.04724 V 1052.3621 H -7.0438722e-7 Z"
       id="rect3033"
       inkscape:connector-curvature="0" />
    <g
       id="g3847"
       transform="matrix(0.10929874,0,0,0.10976979,379.02465,946.01697)"
       inkscape:export-filename="/srv/http/kiwwwi.com.ar/pastes/utopia-pirata-2.png"
       inkscape:export-xdpi="149"
       inkscape:export-ydpi="149" />
    <path
       style="fill:#ffffff"
       d="M 2.9508121e-7,808.18511 H 372.04724 V 981.49594 H 2.9508124e-7 Z"
       id="rect3035"
       inkscape:connector-curvature="0" />
    <g
       transform="matrix(-0.16596478,0.04466179,-0.04447013,-0.16668006,81.56688,987.8304)"
       style="font-style:normal;font-weight:normal;font-size:121.8484726px;line-height:125%;font-family:'Bitstream Vera Sans';letter-spacing:0px;word-spacing:0px;fill:#ffffff;fill-opacity:1;stroke:none"
       id="text3059"
       inkscape:export-filename="/srv/http/kiwwwi.com.ar/pastes/utopia-pirata-2.png"
       inkscape:export-xdpi="149"
       inkscape:export-ydpi="149">
      <g
         id="g3922"
         transform="rotate(-4.3843726,-1002.7218,-1674.3846)">
        <path
           inkscape:connector-curvature="0"
           id="path3865"
           d="m -1183.8988,-1543.7299 c 0,70.2944 -56.9848,127.2793 -127.2792,127.2793 -70.2944,0 -127.2792,-56.9849 -127.2792,-127.2793 0,-70.2943 56.9848,-127.2792 127.2792,-127.2792 70.2944,0 127.2792,56.9849 127.2792,127.2792 z"
           style="fill:none;stroke:none"
           transform="matrix(-0.8718552,-0.2336129,0.2336129,-0.8718552,-1786.4657,-3244.8873)" />
        <g
           id="g4457"
           transform="translate(-34.621425,98.398521)">
          <g
             transform="matrix(-0.94534379,-0.33261832,0.33119094,-0.94128701,0,0)"
             style="font-style:normal;font-weight:normal;font-size:316.4208374px;line-height:125%;font-family:Sans;letter-spacing:0px;word-spacing:0px;fill:#000000;fill-opacity:1;stroke:none"
             id="text4354">
            <path
               inkscape:connector-curvature="0"
               d="m -129.10446,-589.23417 h 34.173452 c 14.871765,0 29.743571,3.79706 41.134709,14.55536 11.391139,10.75829 18.985251,28.4779 18.985251,55.05722 0,26.57933 -7.594112,43.98251 -18.985251,54.74081 -11.391138,10.7583 -26.262944,15.1882 -41.134709,15.1882 v 93.02772 h -34.173452 v -232.56931 m 34.173452,104.7353 c 10.441878,0 17.086729,-1.89853 20.883776,-7.27768 3.797046,-5.06273 4.746312,-13.60611 4.746312,-26.57935 0,-12.97325 -0.949266,-22.14947 -4.746312,-27.84504 -3.797047,-5.69557 -10.441898,-8.22694 -20.883776,-8.22694 v 69.92901"
               style="font-variant:normal;font-stretch:normal;font-family:'League Gothic';-inkscape-font-specification:'League Gothic'"
               id="path4402" />
            <path
               inkscape:connector-curvature="0"
               d="m 58.483659,-418.68334 v 19.93451 c -0.949261,16.77029 -6.012007,28.47789 -17.403146,37.65408 -5.695569,4.74631 -13.606106,6.96126 -24.047983,6.96126 -20.5673341,0 -31.009247,-11.39116 -36.071976,-22.7823 -2.847784,-6.64483 -4.746313,-14.23895 -5.062733,-22.7823 v -87.01573 c 0.949261,-16.77029 6.328428,-29.11073 17.7195668,-38.60334 5.3791489,-4.74631 13.2896856,-6.96126 23.7315632,-6.96126 20.567333,0 31.009247,11.39116 36.071975,22.46588 2.847785,6.64483 4.746313,13.92252 5.062733,22.14946 v 50.31091 H 5.6413796 v 37.65408 c 0.3164206,6.64483 2.2149487,11.39115 5.0627334,14.87178 1.582103,1.5821 3.797053,2.53137 6.644838,2.53137 6.01199,0 8.859784,-3.79706 10.125466,-8.54337 0.949262,-2.53136 1.265684,-5.37915 1.265684,-8.85978 v -18.98525 H 58.483659 M 5.6413796,-462.34942 H 28.740101 v -24.3644 c 0,-6.64483 -1.265687,-11.39115 -4.429892,-15.1882 -1.582103,-1.5821 -4.113474,-2.53137 -6.961258,-2.53137 -6.01199,0 -8.5433646,4.11348 -10.1254672,8.85979 -0.9492615,2.53136 -1.2656836,5.37915 -1.5821042,8.85978 v 24.3644"
               style="font-variant:normal;font-stretch:normal;font-family:'League Gothic';-inkscape-font-specification:'League Gothic'"
               id="path4404" />
            <path
               inkscape:connector-curvature="0"
               d="M 111.74124,-356.66486 H 79.782734 v -173.08219 h 31.958506 v 14.55535 c 0.63284,-0.31642 1.89853,-1.5821 3.79705,-3.48062 3.48062,-3.48063 8.22695,-8.22695 13.92252,-11.39115 2.84778,-1.58211 5.37915,-2.21495 8.22694,-2.21495 8.54335,0 14.55536,5.06274 18.35241,11.39115 3.79704,6.64483 5.69557,15.18821 5.69557,22.46588 v 141.75653 h -31.9585 v -137.01022 c 0,-6.64483 -3.79706,-7.5941 -7.5941,-7.5941 -3.48063,0 -5.37916,1.89853 -7.5941,4.11347 -0.94927,1.26568 -1.89853,2.53137 -2.84779,4.11347 v 136.37738"
               style="font-variant:normal;font-stretch:normal;font-family:'League Gothic';-inkscape-font-specification:'League Gothic'"
               id="path4406" />
            <path
               inkscape:connector-curvature="0"
               d="m 233.25672,-485.44814 c 0,-4.11346 0,-9.17621 -1.26568,-13.28967 -1.5821,-3.79705 -4.11348,-6.96126 -9.17621,-6.96126 -4.11346,0 -6.64483,3.16421 -7.91052,6.96126 -1.5821,3.79704 -1.89852,9.17621 -1.89852,13.28967 0,5.37915 2.84779,11.07474 6.96126,16.13747 3.79704,5.06272 8.85978,10.12547 13.92251,14.87178 6.64483,6.64483 14.55537,14.23894 19.93452,22.7823 5.37914,8.85977 9.49262,18.66884 9.49262,30.05998 0,11.07471 -2.53137,22.7823 -8.85978,31.64208 -6.64483,9.17619 -16.77032,15.82104 -31.95851,15.82104 -19.30165,0 -30.69282,-8.85979 -37.02123,-19.61809 -6.32842,-10.7583 -7.5941,-24.04799 -7.5941,-33.22419 h 29.74355 c 0,4.74631 0.31643,11.39116 2.53137,16.45388 2.21494,5.37915 5.69558,9.80905 12.34041,9.80905 9.1762,0 11.07473,-10.75832 11.07473,-20.88377 0,-10.44188 -10.12547,-20.88379 -19.93451,-30.69283 -7.59409,-7.27767 -14.87179,-13.92252 -20.56735,-22.46588 -5.69557,-8.54335 -9.80905,-18.036 -9.80905,-30.69282 0,-10.12545 1.89853,-21.83304 7.91052,-31.00924 6.01199,-8.85977 15.82106,-15.50462 31.00924,-15.82104 18.66881,-0.31642 29.11072,6.64485 34.48987,15.82104 5.37915,9.1762 6.32842,21.20021 6.32842,31.00924 h -29.74356"
               style="font-variant:normal;font-stretch:normal;font-family:'League Gothic';-inkscape-font-specification:'League Gothic'"
               id="path4408" />
            <path
               inkscape:connector-curvature="0"
               d="m 330.90223,-488.61235 c 0,-2.84778 0,-7.27768 -0.94926,-10.44188 -1.26569,-3.16421 -3.79706,-5.37916 -7.91052,-5.37916 -5.37915,0 -7.59411,4.11348 -8.54337,9.17621 -0.31642,2.53136 -0.63284,5.37915 -0.63284,8.22694 0,2.84778 0,5.69558 0,8.22694 h -31.9585 v -7.27768 c 0,-12.65682 4.74632,-24.04799 12.34041,-32.59134 7.59409,-8.54336 18.35242,-13.6061 30.69282,-13.6061 10.44188,0 19.93452,4.11348 27.21219,11.07473 7.27768,6.96125 11.70757,16.77031 11.70757,28.16145 v 106.3174 c 0,15.50461 0.94927,22.46589 2.21495,30.05998 h -31.32566 c -2.84779,-3.48062 -2.84779,-11.70757 -2.84779,-13.92251 h -2.21495 c -1.5821,2.84778 -4.42989,6.96126 -8.85978,10.44188 -4.42989,3.48063 -10.44189,6.012 -16.7703,6.012 -4.11347,0 -10.75832,-1.58211 -15.82105,-7.91052 -5.37914,-6.01199 -9.80904,-16.77032 -9.80904,-34.80629 0,-19.30165 5.69558,-33.2242 13.28967,-42.71682 7.5941,-9.49261 17.08674,-15.50462 24.99725,-19.61809 7.91051,-4.11346 13.92252,-6.96126 15.1882,-10.44188 v -18.98526 m 0,48.41239 c -15.50461,6.64483 -22.14946,22.14948 -22.14946,38.60335 0,2.21494 0.31642,6.01199 1.5821,9.49262 1.26569,3.79705 3.48064,6.64484 7.27768,6.64484 7.27768,0 13.28968,-4.4299 13.28968,-10.44189 v -44.29892"
               style="font-variant:normal;font-stretch:normal;font-family:'League Gothic';-inkscape-font-specification:'League Gothic'"
               id="path4410" />
            <path
               inkscape:connector-curvature="0"
               d="m 465.81121,-356.66486 h -30.05998 v -137.01022 c 0,-6.64483 -5.06273,-7.5941 -8.54336,-7.5941 -3.48062,0 -6.32842,1.89853 -8.54336,4.11347 -1.26568,1.26568 -2.53137,2.53137 -3.48063,4.11347 v 136.37738 h -31.9585 v -173.08219 h 31.9585 v 14.55535 c 0.63284,-0.31642 1.89853,-1.5821 3.79705,-3.48062 3.48063,-3.48063 8.85979,-8.22695 14.55536,-11.39115 2.84778,-1.58211 5.37916,-2.21495 8.22694,-2.21495 11.39114,0 18.03599,9.17621 21.51662,19.30167 1.26568,-0.94926 2.84779,-2.53137 5.06273,-4.74631 4.11347,-4.42989 9.49263,-8.54337 15.50462,-12.02399 2.84779,-1.58211 5.69558,-2.53137 8.54336,-2.53137 8.54336,0 14.55537,5.06274 18.35241,11.39115 3.79705,6.64483 5.69558,15.18821 5.69558,22.46588 v 141.75653 h -30.05998 v -137.01022 c 0,-6.64483 -5.06274,-7.5941 -8.54336,-7.5941 -3.48063,0 -6.32842,1.89853 -8.54337,4.11347 -1.26568,1.26568 -2.53136,2.53137 -3.48063,4.11347 v 136.37738"
               style="font-variant:normal;font-stretch:normal;font-family:'League Gothic';-inkscape-font-specification:'League Gothic'"
               id="path4412" />
            <path
               inkscape:connector-curvature="0"
               d="m 540.81778,-589.23417 h 31.95851 v 31.9585 h -31.95851 v -31.9585 m 0,232.56931 v -173.08219 h 31.95851 v 173.08219 h -31.95851"
               style="font-variant:normal;font-stretch:normal;font-family:'League Gothic';-inkscape-font-specification:'League Gothic'"
               id="path4414" />
            <path
               inkscape:connector-curvature="0"
               d="m 677.72913,-418.68334 v 19.93451 c -0.94926,16.77029 -6.01201,28.47789 -17.40315,37.65408 -5.69557,4.74631 -13.6061,6.96126 -24.04798,6.96126 -20.56734,0 -31.00925,-11.39116 -36.07198,-22.7823 -2.84778,-6.64483 -4.74631,-14.23895 -5.06273,-22.7823 v -87.01573 c 0.94926,-16.77029 6.32843,-29.11073 17.71957,-38.60334 5.37914,-4.74631 13.28968,-6.96126 23.73156,-6.96126 20.56733,0 31.00925,11.39116 36.07197,22.46588 2.84779,6.64483 4.74632,13.92252 5.06274,22.14946 v 50.31091 h -52.84228 v 37.65408 c 0.31642,6.64483 2.21495,11.39115 5.06273,14.87178 1.5821,1.5821 3.79705,2.53137 6.64484,2.53137 6.01199,0 8.85978,-3.79706 10.12547,-8.54337 0.94926,-2.53136 1.26568,-5.37915 1.26568,-8.85978 v -18.98525 h 29.74356 m -52.84228,-43.66608 h 23.09872 v -24.3644 c 0,-6.64483 -1.26569,-11.39115 -4.42989,-15.1882 -1.58211,-1.5821 -4.11348,-2.53137 -6.96126,-2.53137 -6.01199,0 -8.54337,4.11348 -10.12547,8.85979 -0.94926,2.53136 -1.26568,5.37915 -1.5821,8.85978 v 24.3644"
               style="font-variant:normal;font-stretch:normal;font-family:'League Gothic';-inkscape-font-specification:'League Gothic'"
               id="path4416" />
            <path
               inkscape:connector-curvature="0"
               d="m 730.98668,-356.66486 h -31.95851 v -173.08219 h 31.95851 v 14.55535 c 0.63284,-0.31642 1.89852,-1.5821 3.79705,-3.48062 3.48062,-3.48063 8.22694,-8.22695 13.92251,-11.39115 2.84779,-1.58211 5.37916,-2.21495 8.22694,-2.21495 8.54336,0 14.55537,5.06274 18.35241,11.39115 3.79705,6.64483 5.69558,15.18821 5.69558,22.46588 v 141.75653 h -31.95851 v -137.01022 c 0,-6.64483 -3.79705,-7.5941 -7.5941,-7.5941 -3.48062,0 -5.37915,1.89853 -7.5941,4.11347 -0.94926,1.26568 -1.89852,2.53137 -2.84778,4.11347 v 136.37738"
               style="font-variant:normal;font-stretch:normal;font-family:'League Gothic';-inkscape-font-specification:'League Gothic'"
               id="path4418" />
            <path
               inkscape:connector-curvature="0"
               d="m 842.69316,-572.46387 v 42.71682 h 21.83304 v 28.79429 h -21.83304 v 86.06647 c 0,5.37915 0,12.34042 1.26568,18.03599 1.26568,5.69557 3.79706,10.44189 8.85979,10.44189 2.53136,0 5.69557,-0.31643 7.91052,-0.63285 1.26568,-0.31642 2.53136,-0.31642 3.79705,-0.63284 v 31.32566 c -1.58211,0.31643 -3.16421,0.94927 -4.74632,1.26569 -3.1642,0.63284 -7.27768,0.94926 -12.34041,0.94926 -18.66881,0 -27.52862,-9.49264 -31.9585,-21.51662 -4.42989,-12.02398 -4.74632,-26.57936 -4.74632,-36.70481 v -88.59784 h -16.13746 v -28.79429 h 16.13746 v -42.71682 h 31.95851"
               style="font-variant:normal;font-stretch:normal;font-family:'League Gothic';-inkscape-font-specification:'League Gothic'"
               id="path4420" />
            <path
               inkscape:connector-curvature="0"
               d="m 960.44619,-398.74883 c -0.94927,16.77029 -6.01201,28.47789 -17.08673,37.65408 -5.69557,4.74631 -13.60611,6.96126 -24.04798,6.96126 -20.56734,0 -30.69283,-11.39116 -35.75556,-22.7823 -2.84778,-6.64483 -4.74631,-14.23895 -5.06273,-22.7823 v -87.01573 c 0.94926,-16.77029 6.01201,-29.11073 17.08672,-38.60334 5.37915,-4.74631 13.28969,-6.96126 23.73157,-6.96126 20.56733,0 31.00924,11.39116 36.07197,22.46588 2.84779,6.64483 4.74632,13.92252 5.06274,22.14946 v 88.91425 m -30.05998,-87.96499 c 0.31642,-6.64483 -0.94927,-11.39115 -4.11347,-15.1882 -1.58211,-1.5821 -4.11348,-2.53137 -6.96126,-2.53137 -6.01199,0 -8.54337,4.11348 -9.80905,8.85979 -0.94926,2.53136 -1.26568,5.37915 -0.94926,8.85978 v 87.01573 c -0.31642,6.64483 1.26568,11.39115 4.11347,14.87178 1.5821,1.5821 3.79705,2.53137 6.64484,2.53137 6.01199,0 8.85978,-3.79706 10.12546,-8.54337 0.94927,-2.53136 1.26569,-5.37915 0.94927,-8.85978 v -87.01573"
               style="font-variant:normal;font-stretch:normal;font-family:'League Gothic';-inkscape-font-specification:'League Gothic'"
               id="path4422" />
            <path
               inkscape:connector-curvature="0"
               d="m 1120.4315,-436.40291 v 31.95851 c -0.3164,9.49261 -2.2149,18.03599 -5.6956,25.31366 -2.8478,6.32842 -7.2777,12.34042 -13.6061,17.08673 -6.3284,5.06273 -14.8718,7.91052 -26.2629,7.91052 -11.3911,0 -20.2509,-2.84779 -26.5793,-7.91052 -6.3285,-4.74631 -10.4419,-10.75831 -13.2897,-17.08673 -3.4807,-7.27767 -5.3792,-15.82105 -5.6956,-25.31366 v -137.01022 c 0.3164,-9.1762 2.2149,-17.71958 5.6956,-24.99725 2.8478,-6.32841 6.9612,-12.65684 13.2897,-17.40315 6.3284,-4.74631 15.1882,-7.91052 26.5793,-7.91052 11.3911,0 19.9345,3.16421 26.2629,7.91052 6.3284,4.74631 10.7583,11.07474 13.6061,17.40315 3.4807,7.27767 5.3792,15.82105 5.6956,24.99725 v 31.9585 h -31.9585 v -31.9585 c 0,-6.32842 -1.5821,-10.75832 -5.0627,-14.55536 -1.5821,-1.58211 -4.4299,-2.53137 -7.9106,-2.53137 -6.0119,0 -8.8597,4.4299 -10.4418,8.54336 -0.9493,2.53137 -1.2657,5.37916 -1.5821,8.54337 v 137.01022 c 0.3164,6.64483 2.2149,11.07473 5.3791,14.55536 1.5821,1.5821 3.7971,2.53136 6.6448,2.53136 7.2777,0 10.1255,-3.79705 11.7076,-8.54336 0.9493,-2.21494 1.2657,-5.06274 1.2657,-8.54336 v -31.95851 h 31.9585"
               style="font-variant:normal;font-stretch:normal;font-family:'League Gothic';-inkscape-font-specification:'League Gothic'"
               id="path4424" />
            <path
               inkscape:connector-curvature="0"
               d="m 1204.822,-496.83929 c -2.8478,-0.94926 -6.012,-1.26568 -8.8598,-1.26568 -5.0628,0 -11.0748,0.63285 -16.1375,5.37915 -6.012,5.06273 -6.9613,10.4419 -6.9613,15.82105 v 120.23991 h -31.9585 v -173.08219 h 31.9585 v 19.30167 c 0.3165,-2.21495 2.5314,-7.59411 7.5941,-12.65684 5.0628,-4.7463 12.6569,-9.1762 24.3645,-9.1762 v 35.43913"
               style="font-variant:normal;font-stretch:normal;font-family:'League Gothic';-inkscape-font-specification:'League Gothic'"
               id="path4426" />
            <path
               inkscape:connector-curvature="0"
               d="m 1268.1359,-529.74705 h 31.9585 v 173.08219 h -31.9585 v -14.55535 c -0.6329,0.31642 -1.8986,1.5821 -3.4807,3.1642 -3.797,3.79705 -8.2269,8.22695 -13.9225,11.39115 -2.8478,1.58211 -5.6956,2.53137 -8.5434,2.53137 -8.5433,0 -14.5553,-5.06274 -18.3524,-11.70757 -3.797,-6.32841 -5.6955,-14.87179 -5.6955,-22.14946 v -141.75653 h 31.9585 v 137.01022 c 0,6.64483 3.797,7.5941 7.5941,7.5941 3.4806,0 5.3791,-1.89853 7.5941,-4.11347 0.9492,-0.94926 1.8985,-2.53137 2.8478,-4.11347 v -136.37738"
               style="font-variant:normal;font-stretch:normal;font-family:'League Gothic';-inkscape-font-specification:'League Gothic'"
               id="path4428" />
            <path
               inkscape:connector-curvature="0"
               d="m 1406.377,-356.66486 h -31.9585 v -11.39115 c -5.3791,5.06273 -10.1254,8.85979 -16.1374,11.70757 -3.1642,1.58211 -6.3284,2.21495 -9.1762,2.21495 -8.8598,0 -14.8718,-5.06274 -18.6689,-11.70757 -4.1134,-6.32841 -6.012,-14.87179 -6.012,-22.14946 v -110.43087 c 0,-7.27767 1.8986,-15.82105 6.012,-22.46588 3.7971,-6.32841 9.8091,-11.39115 18.6689,-11.39115 6.012,0 12.3404,3.48063 17.0867,6.96126 2.8478,2.21494 5.3792,4.42989 8.2269,6.96126 v -70.87827 h 31.9585 v 232.56931 m -31.9585,-135.11169 c 0,-5.06273 -4.7463,-10.44189 -9.4926,-10.44189 -4.7463,0 -8.5433,4.4299 -8.5433,10.44189 v 97.14119 c 0,6.01199 3.797,10.44189 8.5433,10.44189 4.7463,0 9.4926,-4.4299 9.4926,-10.44189 v -97.14119"
               style="font-variant:normal;font-stretch:normal;font-family:'League Gothic';-inkscape-font-specification:'League Gothic'"
               id="path4430" />
            <path
               inkscape:connector-curvature="0"
               d="m 1511.0927,-398.74883 c -0.9493,16.77029 -6.012,28.47789 -17.0868,37.65408 -5.6955,4.74631 -13.6061,6.96126 -24.0479,6.96126 -20.5674,0 -30.6929,-11.39116 -35.7556,-22.7823 -2.8478,-6.64483 -4.7463,-14.23895 -5.0627,-22.7823 v -87.01573 c 0.9492,-16.77029 6.012,-29.11073 17.0867,-38.60334 5.3791,-4.74631 13.2897,-6.96126 23.7316,-6.96126 20.5673,0 31.0092,11.39116 36.0719,22.46588 2.8478,6.64483 4.7463,13.92252 5.0628,22.14946 v 88.91425 m -30.06,-87.96499 c 0.3164,-6.64483 -0.9493,-11.39115 -4.1135,-15.1882 -1.5821,-1.5821 -4.1135,-2.53137 -6.9612,-2.53137 -6.012,0 -8.5434,4.11348 -9.8091,8.85979 -0.9492,2.53136 -1.2657,5.37915 -0.9492,8.85978 v 87.01573 c -0.3165,6.64483 1.2656,11.39115 4.1134,14.87178 1.5821,1.5821 3.7971,2.53137 6.6449,2.53137 6.012,0 8.8597,-3.79706 10.1254,-8.54337 0.9493,-2.53136 1.2657,-5.37915 0.9493,-8.85978 v -87.01573"
               style="font-variant:normal;font-stretch:normal;font-family:'League Gothic';-inkscape-font-specification:'League Gothic'"
               id="path4432" />
          </g>
          <g
             transform="matrix(-0.94534379,-0.33261832,0.33119094,-0.94128701,0,0)"
             style="font-style:normal;font-weight:normal;font-size:172.54058838px;line-height:125%;font-family:Sans;letter-spacing:0px;word-spacing:0px;fill:#000000;fill-opacity:1;stroke:none"
             id="text4358">
            <path
               inkscape:connector-curvature="0"
               d="m -129.10446,-653.21143 19.15201,-126.81733 h 22.775354 l 19.152006,126.81733 h -18.116762 l -3.450812,-25.88108 h -17.944226 l -3.45081,25.88108 h -18.11676 m 31.574929,-85.58013 -0.517622,-3.27827 h -1.035243 l -0.517622,3.27827 -5.348762,40.02942 h 12.768007 l -5.348758,-40.02942"
               style="font-variant:normal;font-stretch:normal;font-family:'League Gothic';-inkscape-font-specification:'League Gothic'"
               id="path4435" />
            <path
               inkscape:connector-curvature="0"
               d="m -33.163801,-725.16085 c 0,-1.55286 0,-3.96844 -0.517621,-5.69384 -0.690162,-1.7254 -2.07049,-2.93319 -4.313515,-2.93319 -2.933187,0 -4.140975,2.24303 -4.658596,5.00368 -0.17254,1.38032 -0.345081,2.93319 -0.345081,4.48605 0,1.55287 0,3.10573 0,4.48606 h -17.4266 v -3.96844 c 0,-6.90161 2.588113,-13.11309 6.729083,-17.77168 4.14097,-4.65859 10.007361,-7.41924 16.736437,-7.41924 5.693834,0 10.870061,2.24303 14.838491,6.03892 3.96843,3.79589 6.384002,9.14466 6.384002,15.35611 v 57.97364 c 0,8.45448 0.517622,12.25038 1.207784,16.39135 h -17.081518 c -1.552864,-1.89794 -1.552866,-6.384 -1.552866,-7.59178 h -1.207784 c -0.862702,1.55286 -2.41557,3.79589 -4.831136,5.69384 -2.415566,1.89794 -5.693843,3.27827 -9.144651,3.27827 -2.243026,0 -5.866383,-0.86271 -8.62703,-4.31352 -2.933187,-3.27826 -5.348758,-9.14466 -5.348758,-18.97946 0,-10.52497 3.105735,-18.11677 7.246705,-23.29298 4.14097,-5.17621 9.317196,-8.45449 13.630706,-10.69752 4.31351,-2.24302 7.591787,-3.79589 8.281948,-5.69384 v -10.35243 m 0,26.39871 c -8.45448,3.62335 -12.077841,12.07785 -12.077841,21.04995 0,1.20778 0.172541,3.27827 0.862703,5.17622 0.690162,2.07048 1.897949,3.62335 3.968434,3.62335 3.968429,0 7.246704,-2.41557 7.246704,-5.69384 v -24.15568"
               style="font-variant:normal;font-stretch:normal;font-family:'League Gothic';-inkscape-font-specification:'League Gothic'"
               id="path4437" />
            <path
               inkscape:connector-curvature="0"
               d="m 30.220597,-729.64691 c -1.552864,-0.51762 -3.278273,-0.69016 -4.831137,-0.69016 -2.760646,0 -6.038923,0.34508 -8.79957,2.93319 -3.278267,2.76065 -3.795893,5.69384 -3.795893,8.62703 v 65.56542 H -4.6326019 v -94.3797 H 12.793997 v 10.52498 c 0.172541,-1.20778 1.380328,-4.14098 4.140975,-6.90163 2.760646,-2.5881 6.90163,-5.00367 13.285625,-5.00367 v 19.32454"
               style="font-variant:normal;font-stretch:normal;font-family:'League Gothic';-inkscape-font-specification:'League Gothic'"
               id="path4439" />
            <path
               inkscape:connector-curvature="0"
               d="m 80.289731,-676.15932 c -0.517621,9.14464 -3.278277,15.52865 -9.317192,20.53233 -3.105727,2.5881 -7.419251,3.79589 -13.113085,3.79589 -11.215127,0 -16.736439,-6.21147 -19.497086,-12.42292 -1.552864,-3.62335 -2.588109,-7.76433 -2.76065,-12.42293 v -47.44866 c 0.517622,-9.14464 3.278278,-15.87374 9.317192,-21.04995 2.933187,-2.58811 7.246711,-3.79589 12.940544,-3.79589 11.215127,0 16.908981,6.21146 19.669627,12.25038 1.552864,3.62335 2.588109,7.59179 2.76065,12.07784 v 48.48391 m -16.391356,-47.96629 c 0.17254,-3.62335 -0.517624,-6.21146 -2.243028,-8.28195 -0.862702,-0.8627 -2.243029,-1.38032 -3.795893,-1.38032 -3.278268,0 -4.658596,2.24303 -5.348758,4.83114 -0.517621,1.38032 -0.690162,2.93319 -0.517622,4.83113 v 47.44866 c -0.17254,3.62335 0.690164,6.21147 2.243028,8.10941 0.862702,0.8627 2.070489,1.38033 3.623352,1.38033 3.278268,0 4.831138,-2.07049 5.521299,-4.6586 0.517621,-1.38032 0.690162,-2.93319 0.517622,-4.83114 v -47.44866"
               style="font-variant:normal;font-stretch:normal;font-family:'League Gothic';-inkscape-font-specification:'League Gothic'"
               id="path4441" />
            <path
               inkscape:connector-curvature="0"
               d="M 109.51108,-653.21143 H 92.084485 v -94.3797 h 17.426595 v 7.93687 c 0.34509,-0.17254 1.03525,-0.8627 2.07049,-1.89795 1.89795,-1.89794 4.48606,-4.48605 7.59179,-6.21146 1.55286,-0.8627 2.93319,-1.20778 4.48605,-1.20778 4.65859,0 7.93687,2.76065 10.00736,6.21146 2.07048,3.62335 3.10573,8.28195 3.10573,12.25038 v 77.29818 h -17.4266 v -74.71007 c 0,-3.62335 -2.07049,-4.14097 -4.14098,-4.14097 -1.89794,0 -2.93319,1.03524 -4.14097,2.24302 -0.51762,0.69016 -1.03524,1.38033 -1.55287,2.24303 v 74.36499"
               style="font-variant:normal;font-stretch:normal;font-family:'League Gothic';-inkscape-font-specification:'League Gothic'"
               id="path4443" />
            <path
               inkscape:connector-curvature="0"
               d="m 207.89158,-746.03826 c 0,-4.14097 -0.17254,-8.79958 -1.38032,-12.42292 -1.20778,-3.45081 -3.10574,-5.86638 -6.03892,-5.86638 -4.83113,0.17254 -6.384,5.17622 -6.384,12.59546 0,4.31351 1.89795,8.79957 4.65859,13.6307 2.76065,4.83114 6.38401,9.83482 10.00736,15.18358 4.31351,6.38399 8.62703,12.94055 11.9053,19.32454 3.27826,6.384 5.5213,12.94055 5.5213,19.84217 0,8.45448 -1.38033,16.39136 -5.34876,22.25774 -3.96843,5.86637 -10.35245,9.66227 -20.53233,9.66227 -11.90529,0 -18.63439,-4.48606 -22.43028,-11.38768 -3.79589,-6.90162 -4.6586,-16.04628 -4.6586,-25.53601 l 18.28931,-1.7254 c 0,5.34875 0.17254,10.69752 1.55286,14.66595 1.20779,4.14097 3.27828,6.90162 7.24671,6.90162 5.52129,0 7.59178,-5.86639 7.59178,-13.97579 0,-4.14097 -2.07049,-8.97211 -4.83113,-13.97578 -1.55287,-2.41557 -3.10574,-5.00368 -4.83114,-7.59179 -3.62335,-5.17621 -7.59179,-11.0426 -11.73276,-17.4266 -4.14097,-6.384 -7.24671,-12.94055 -9.14465,-19.66963 -1.03524,-3.27826 -1.55287,-6.72908 -1.55287,-10.17989 0,-6.90162 1.55287,-14.32088 5.5213,-20.01471 3.96843,-5.52129 10.00737,-9.48973 18.80693,-9.66227 11.21512,-0.17254 17.77168,4.48606 21.39503,11.21514 3.62335,6.90161 4.6586,15.35611 4.6586,22.43027 l -18.28931,1.72541"
               style="font-variant:normal;font-stretch:normal;font-family:'League Gothic';-inkscape-font-specification:'League Gothic'"
               id="path4445" />
            <path
               inkscape:connector-curvature="0"
               d="m 275.48435,-653.21143 -6.72908,-45.03309 -0.8627,-5.34876 h -0.69017 l -0.8627,5.34876 -6.72908,45.03309 h -14.49341 l -13.97579,-94.3797 h 15.87374 l 5.52129,49.34661 0.69017,5.34876 h 1.03524 l 0.8627,-5.34876 7.24671,-49.34661 h 10.35243 l 7.24671,49.34661 0.8627,5.34876 h 1.03524 l 0.69017,-5.34876 5.5213,-49.34661 h 15.87373 l -13.97579,94.3797 h -14.49341"
               style="font-variant:normal;font-stretch:normal;font-family:'League Gothic';-inkscape-font-specification:'League Gothic'"
               id="path4447" />
            <path
               inkscape:connector-curvature="0"
               d="m 337.52888,-725.16085 c 0,-1.55286 0,-3.96844 -0.51762,-5.69384 -0.69016,-1.7254 -2.07049,-2.93319 -4.31352,-2.93319 -2.93318,0 -4.14097,2.24303 -4.65859,5.00368 -0.17254,1.38032 -0.34508,2.93319 -0.34508,4.48605 0,1.55287 0,3.10573 0,4.48606 h -17.4266 v -3.96844 c 0,-6.90161 2.58811,-13.11309 6.72908,-17.77168 4.14097,-4.65859 10.00736,-7.41924 16.73644,-7.41924 5.69383,0 10.87006,2.24303 14.83849,6.03892 3.96843,3.79589 6.384,9.14466 6.384,15.35611 v 57.97364 c 0,8.45448 0.51762,12.25038 1.20778,16.39135 h -17.08152 c -1.55286,-1.89794 -1.55286,-6.384 -1.55286,-7.59178 h -1.20778 c -0.86271,1.55286 -2.41558,3.79589 -4.83114,5.69384 -2.41557,1.89794 -5.69384,3.27827 -9.14465,3.27827 -2.24303,0 -5.86638,-0.86271 -8.62703,-4.31352 -2.93319,-3.27826 -5.34876,-9.14466 -5.34876,-18.97946 0,-10.52497 3.10573,-18.11677 7.2467,-23.29298 4.14097,-5.17621 9.3172,-8.45449 13.63071,-10.69752 4.31351,-2.24302 7.59179,-3.79589 8.28195,-5.69384 v -10.35243 m 0,26.39871 c -8.45448,3.62335 -12.07784,12.07785 -12.07784,21.04995 0,1.20778 0.17254,3.27827 0.8627,5.17622 0.69016,2.07048 1.89795,3.62335 3.96843,3.62335 3.96843,0 7.24671,-2.41557 7.24671,-5.69384 v -24.15568"
               style="font-variant:normal;font-stretch:normal;font-family:'League Gothic';-inkscape-font-specification:'League Gothic'"
               id="path4449" />
            <path
               inkscape:connector-curvature="0"
               d="m 400.91327,-729.64691 c -1.55286,-0.51762 -3.27827,-0.69016 -4.83114,-0.69016 -2.76064,0 -6.03892,0.34508 -8.79957,2.93319 -3.27826,2.76065 -3.79589,5.69384 -3.79589,8.62703 v 65.56542 h -17.4266 v -94.3797 h 17.4266 v 10.52498 c 0.17254,-1.20778 1.38033,-4.14098 4.14097,-6.90163 2.76065,-2.5881 6.90163,-5.00367 13.28563,-5.00367 v 19.32454"
               style="font-variant:normal;font-stretch:normal;font-family:'League Gothic';-inkscape-font-specification:'League Gothic'"
               id="path4451" />
            <path
               inkscape:connector-curvature="0"
               d="m 429.57117,-770.88411 v 23.29298 h 11.9053 v 15.7012 h -11.9053 v 46.93104 c 0,2.93318 0,6.72908 0.69017,9.83481 0.69016,3.10573 2.07049,5.69384 4.83113,5.69384 1.38033,0 3.10573,-0.17254 4.31352,-0.34508 0.69016,-0.17254 1.38032,-0.17254 2.07048,-0.34508 v 17.08151 c -0.8627,0.17255 -1.7254,0.51763 -2.5881,0.69017 -1.72541,0.34508 -3.96844,0.51762 -6.72909,0.51762 -10.17988,0 -15.01103,-5.17623 -17.4266,-11.73276 -2.41556,-6.55654 -2.58811,-14.49342 -2.58811,-20.01471 v -48.31136 H 403.345 v -15.7012 h 8.79957 v -23.29298 h 17.4266"
               style="font-variant:normal;font-stretch:normal;font-family:'League Gothic';-inkscape-font-specification:'League Gothic'"
               id="path4453" />
            <path
               inkscape:connector-curvature="0"
               d="m 445.78997,-667.35975 23.98315,-64.35764 h -20.18725 v -15.87374 h 38.64909 v 14.14833 l -23.98314,64.35764 h 23.98314 v 15.87373 h -42.44499 v -14.14832"
               style="font-variant:normal;font-stretch:normal;font-family:'League Gothic';-inkscape-font-specification:'League Gothic'"
               id="path4455" />
          </g>
        </g>
      </g>
    </g>
    <g
       style="font-style:normal;font-weight:normal;font-size:41.04612732px;line-height:125%;font-family:Sans;letter-spacing:0px;word-spacing:0px;fill:#000000;fill-opacity:1;stroke:none"
       id="text3286" />
  </g>
</svg>
