<?xml version="1.0" encoding="UTF-8" standalone="no"?>
<svg
   xmlns:dc="http://purl.org/dc/elements/1.1/"
   xmlns:cc="http://creativecommons.org/ns#"
   xmlns:rdf="http://www.w3.org/1999/02/22-rdf-syntax-ns#"
   xmlns:svg="http://www.w3.org/2000/svg"
   xmlns="http://www.w3.org/2000/svg"
   version="1.1"
   id="svg2"
   height="74mm"
   width="105mm">
  <defs
     id="defs4" />
  <metadata
     id="metadata7">
    <rdf:RDF>
      <cc:Work
         rdf:about="">
        <dc:format>image/svg+xml</dc:format>
        <dc:type
           rdf:resource="http://purl.org/dc/dcmitype/StillImage" />
        <dc:title></dc:title>
      </cc:Work>
    </rdf:RDF>
  </metadata>
  <g
     transform="translate(0,-842.83456)"
     id="layer1">
    <g
       transform="matrix(0.10929874,0,0,0.10976979,404.29296,1009.0848)"
       id="g3847" />
    <g
       transform="translate(-396.85041,1.864253)"
       id="g5753">
      <g
         transform="translate(2.6023469e-6,-0.10001511)"
         id="g6125">
        <rect
           style="fill:#0088aa;fill-opacity:1;stroke-width:0.53137463"
           id="rect3033"
           width="396.8504"
           height="279.48499"
           x="396.8504"
           y="841.17035" />
        <rect
           y="908.46552"
           x="396.8504"
           height="184.8649"
           width="396.8504"
           id="rect3035"
           style="fill:#ffffff;stroke-width:0.75424731" />
        <g
           id="text4835"
           style="font-style:normal;font-variant:normal;font-weight:normal;font-stretch:normal;font-size:36.52587509px;line-height:22.8286705px;font-family:tradegothiclt-boldcondtwenty;-inkscape-font-specification:tradegothiclt-boldcondtwenty;text-align:end;letter-spacing:0px;word-spacing:0px;text-anchor:end;fill:#000000;fill-opacity:1;stroke:none;stroke-width:0.91314685px;stroke-linecap:butt;stroke-linejoin:miter;stroke-opacity:1"
           aria-label="¡Quiero ser"
           transform="translate(0,280)">
          <path
             id="path4872"
             style="stroke-width:0.91314685px"
             d="m 500.89276,673.14833 v 4.31006 h -4.31005 v -4.31006 z m 0.1461,26.37169 h -4.60226 l 0.80357,-18.6282 h 2.99513 z" />
          <path
             id="path4874"
             style="stroke-width:0.91314685px"
             d="m 513.25106,683.37558 q 0.36526,0.18263 0.87662,0.54789 0.54789,0.32873 1.20536,1.05925 v -12.05354 q 0,-1.49756 -0.51136,-2.19155 -0.51137,-0.73052 -1.89935,-0.73052 -1.38798,0 -1.89935,0.73052 -0.51136,0.69399 -0.51136,2.19155 v 13.36847 q 0,1.49756 0.51136,2.22808 0.51137,0.69399 1.89935,0.69399 1.02272,0 1.53409,-0.40179 -0.40179,-0.73051 -0.69399,-0.98619 -0.29221,-0.25568 -0.51137,-0.43831 z m 7.96264,11.39607 q -0.62094,0 -1.20535,-0.073 -0.58441,-0.0731 -1.1323,-0.32873 -0.54789,-0.25568 -1.1323,-0.76705 -0.54789,-0.47483 -1.13231,-1.2784 -1.49756,0.84009 -3.68911,0.84009 -1.78977,0 -3.1047,-0.51136 -1.2784,-0.54789 -2.15503,-1.46103 -0.84009,-0.91315 -1.2784,-2.15503 -0.40179,-1.24188 -0.40179,-2.62986 V 672.8196 q 0,-1.38798 0.40179,-2.62986 0.43831,-1.24188 1.2784,-2.15503 0.87663,-0.91314 2.15503,-1.42451 1.31493,-0.54789 3.1047,-0.54789 1.78977,0 3.06817,0.54789 1.31494,0.51137 2.15503,1.42451 0.87662,0.91315 1.27841,2.15503 0.43831,1.24188 0.43831,2.62986 v 13.58763 q 0,1.93587 -0.76705,3.3969 0.76705,0.65747 1.24188,0.8401 0.51136,0.1461 0.87662,0.18263 z" />
          <path
             id="path4876"
             style="stroke-width:0.91314685px"
             d="m 536.29889,673.14833 v 19.65093 h -3.87174 v -1.9724 q -0.65747,0.54789 -1.16883,0.9862 -0.51136,0.43831 -1.05925,0.73051 -0.54789,0.29221 -1.20535,0.43831 -0.65747,0.18263 -1.53409,0.18263 -1.64367,0 -2.55681,-1.09577 -0.87662,-1.09578 -0.87662,-3.03165 v -15.88876 h 4.0909 v 15.23129 q 0,0.73052 0.40178,1.09578 0.40178,0.32873 1.05925,0.32873 0.65747,0 1.27841,-0.36526 0.62094,-0.36525 1.35145,-0.87662 v -15.41392 z" />
          <path
             id="path4878"
             style="stroke-width:0.91314685px"
             d="m 540.25681,670.15321 v -3.72564 h 4.0909 v 3.72564 z m 0,22.64605 v -19.65093 h 4.0909 v 19.65093 z" />
          <path
             id="path4880"
             style="stroke-width:0.91314685px"
             d="m 556.75395,680.38046 v -1.02273 q 0,-1.71671 -0.58441,-2.44723 -0.58442,-0.76704 -1.68019,-0.76704 -1.09578,0 -1.68019,0.76704 -0.58442,0.73052 -0.58442,2.44723 v 1.02273 z m 4.0909,3.36038 h -8.62011 v 2.84902 q 0,1.71671 0.58442,2.48376 0.58441,0.73051 1.68019,0.73051 1.09577,0 1.68019,-0.73051 0.58441,-0.76705 0.58441,-2.48376 v -0.43831 h 4.0909 q -0.0365,1.57061 -0.40179,2.84901 -0.32873,1.27841 -1.09577,2.22808 -0.76705,0.91315 -1.9724,1.42451 -1.16883,0.51136 -2.88554,0.51136 -1.75325,0 -2.9586,-0.51136 -1.20535,-0.54789 -1.9724,-1.49756 -0.76704,-0.9862 -1.09577,-2.33766 -0.32874,-1.35145 -0.32874,-2.95859 v -5.77109 q 0,-1.60714 0.32874,-2.9586 0.32873,-1.35145 1.09577,-2.30113 0.76705,-0.98619 1.9724,-1.49756 1.20535,-0.54788 2.9586,-0.54788 1.75324,0 2.95859,0.54788 1.20536,0.51137 1.9724,1.49756 0.76704,0.94968 1.09577,2.30113 0.32874,1.35146 0.32874,2.9586 z" />
          <path
             id="path4882"
             style="stroke-width:0.91314685px"
             d="m 564.54709,692.79926 v -19.65093 h 3.90827 v 2.30113 h 0.073 q 0.73052,-1.2784 1.93587,-1.97239 1.24188,-0.69399 2.70292,-0.69399 h 0.84009 v 4.27352 q -0.54789,-0.1461 -1.1323,-0.25568 -0.58441,-0.1461 -1.49756,-0.1461 -1.05925,0 -1.89935,0.65746 -0.84009,0.65747 -0.84009,1.9724 v 13.51458 z" />
          <path
             id="path4884"
             style="stroke-width:0.91314685px"
             d="m 585.14712,679.35773 q 0,-1.71671 -0.58442,-2.44723 -0.58441,-0.76704 -1.68019,-0.76704 -1.09578,0 -1.68019,0.76704 -0.58441,0.73052 -0.58441,2.44723 v 7.23213 q 0,1.71671 0.58441,2.48376 0.58441,0.73051 1.68019,0.73051 1.09578,0 1.68019,-0.73051 0.58442,-0.76705 0.58442,-2.48376 z m -8.62011,0.73052 q 0,-1.60714 0.32873,-2.9586 0.32873,-1.35145 1.09578,-2.30113 0.76704,-0.98619 1.9724,-1.49756 1.20535,-0.54788 2.95859,-0.54788 1.75324,0 2.9586,0.54788 1.20535,0.51137 1.97239,1.49756 0.76705,0.94968 1.09578,2.30113 0.32873,1.35146 0.32873,2.9586 v 5.77109 q 0,1.60714 -0.32873,2.95859 -0.32873,1.35146 -1.09578,2.33766 -0.76704,0.94967 -1.97239,1.49756 -1.20536,0.51136 -2.9586,0.51136 -1.75324,0 -2.95859,-0.51136 -1.20536,-0.54789 -1.9724,-1.49756 -0.76705,-0.9862 -1.09578,-2.33766 -0.32873,-1.35145 -0.32873,-2.95859 z" />
          <path
             id="path4886"
             style="stroke-width:0.91314685px"
             d="m 608.52425,678.59069 q -0.43831,-2.44723 -2.33766,-2.44723 -0.80357,0 -1.31493,0.40178 -0.47484,0.40179 -0.47484,1.16883 0,0.76704 0.54789,1.42451 0.58442,0.62094 1.42451,1.2784 0.87662,0.62094 1.86282,1.35146 0.9862,0.69399 1.82629,1.57061 0.87663,0.8401 1.42451,1.9724 0.58442,1.09578 0.58442,2.55681 0,1.31493 -0.43831,2.30113 -0.40179,0.9862 -1.16883,1.68019 -0.76704,0.65747 -1.82629,0.9862 -1.05926,0.32873 -2.30113,0.32873 -2.70292,0 -4.23701,-1.42451 -1.53408,-1.46103 -2.00892,-4.05437 l 3.57954,-0.9862 q 0.18263,1.24188 0.73051,2.19156 0.58442,0.91314 1.9724,0.91314 0.80357,0 1.31493,-0.43831 0.51136,-0.43831 0.51136,-1.2784 0,-0.8401 -0.58441,-1.53409 -0.54789,-0.73052 -1.42451,-1.38798 -0.84009,-0.65747 -1.82629,-1.35146 -0.9862,-0.69399 -1.86282,-1.53409 -0.8401,-0.84009 -1.42451,-1.86282 -0.54789,-1.02272 -0.54789,-2.37418 0,-1.16883 0.40179,-2.1185 0.43831,-0.9862 1.16882,-1.68019 0.76705,-0.69399 1.75325,-1.05925 0.98619,-0.40178 2.15502,-0.40178 2.41071,0 3.9448,1.46103 1.57061,1.46104 2.04545,3.76217 z" />
          <path
             id="path4888"
             style="stroke-width:0.91314685px"
             d="m 623.6705,680.38046 v -1.02273 q 0,-1.71671 -0.58441,-2.44723 -0.58442,-0.76704 -1.68019,-0.76704 -1.09578,0 -1.6802,0.76704 -0.58441,0.73052 -0.58441,2.44723 v 1.02273 z m 4.0909,3.36038 h -8.62011 v 2.84902 q 0,1.71671 0.58441,2.48376 0.58442,0.73051 1.6802,0.73051 1.09577,0 1.68019,-0.73051 0.58441,-0.76705 0.58441,-2.48376 v -0.43831 h 4.0909 q -0.0365,1.57061 -0.40179,2.84901 -0.32873,1.27841 -1.09577,2.22808 -0.76705,0.91315 -1.9724,1.42451 -1.16883,0.51136 -2.88554,0.51136 -1.75325,0 -2.9586,-0.51136 -1.20535,-0.54789 -1.9724,-1.49756 -0.76704,-0.9862 -1.09577,-2.33766 -0.32874,-1.35145 -0.32874,-2.95859 v -5.77109 q 0,-1.60714 0.32874,-2.9586 0.32873,-1.35145 1.09577,-2.30113 0.76705,-0.98619 1.9724,-1.49756 1.20535,-0.54788 2.9586,-0.54788 1.75324,0 2.95859,0.54788 1.20535,0.51137 1.9724,1.49756 0.76704,0.94968 1.09577,2.30113 0.32874,1.35146 0.32874,2.9586 z" />
          <path
             id="path4890"
             style="stroke-width:0.91314685px"
             d="m 631.46363,692.79926 v -19.65093 h 3.90827 v 2.30113 h 0.073 q 0.73052,-1.2784 1.93587,-1.97239 1.24188,-0.69399 2.70292,-0.69399 h 0.84009 v 4.27352 q -0.54788,-0.1461 -1.1323,-0.25568 -0.58441,-0.1461 -1.49756,-0.1461 -1.05925,0 -1.89934,0.65746 -0.8401,0.65747 -0.8401,1.9724 v 13.51458 z" />
        </g>
        <g
           id="text4835-3"
           style="font-style:normal;font-variant:normal;font-weight:normal;font-stretch:normal;font-size:102.23015594px;line-height:63.89384842px;font-family:tradegothiclt-boldcondtwenty;-inkscape-font-specification:tradegothiclt-boldcondtwenty;text-align:end;letter-spacing:0px;word-spacing:0px;text-anchor:end;fill:#000000;fill-opacity:1;stroke:none;stroke-width:2.55575395px;stroke-linecap:butt;stroke-linejoin:miter;stroke-opacity:1"
           aria-label="pirata!"
           transform="translate(0,280)">
          <path
             id="path4857"
             style="stroke-width:2.55575395px"
             d="m 507.62321,760.69548 q 1.73791,1.22676 3.27136,2.0446 1.53345,0.81784 3.27137,0.81784 1.12453,0 2.14683,-0.30669 1.0223,-0.40892 1.73791,-1.43122 0.81784,-1.0223 1.22676,-2.65798 0.40892,-1.73792 0.40892,-4.49813 v -20.44603 q 0,-2.76022 -0.40892,-4.3959 -0.40892,-1.73791 -1.22676,-2.76021 -0.71561,-1.0223 -1.73791,-1.32899 -1.0223,-0.40893 -2.14683,-0.40893 -1.73792,0 -3.27137,0.81785 -1.53345,0.81784 -3.27136,2.0446 z m -0.61338,-43.75451 v 5.72489 h 0.20446 q 2.86244,-3.57805 5.41819,-5.11151 2.55576,-1.63568 6.84942,-1.63568 5.4182,0 8.48511,3.88475 3.16913,3.88474 3.16913,11.44977 v 26.37538 q 0,7.56504 -3.16913,11.44978 -3.06691,3.88475 -8.48511,3.88475 -1.84014,0 -3.37359,-0.40892 -1.43122,-0.30669 -2.76021,-1.0223 -1.329,-0.81785 -2.76022,-1.84015 -1.32899,-1.0223 -2.96467,-2.45352 v 22.08171 h -11.44978 v -72.37895 z" />
          <path
             id="path4859"
             style="stroke-width:2.55575395px"
             d="m 541.60036,708.5581 v -10.42748 h 11.44978 v 10.42748 z m 0,63.3827 v -54.99983 h 11.44978 v 54.99983 z" />
          <path
             id="path4861"
             style="stroke-width:2.55575395px"
             d="m 564.26031,771.9408 v -54.99983 h 10.93863 v 6.4405 h 0.20446 q 2.0446,-3.57805 5.4182,-5.52043 3.47582,-1.94237 7.56503,-1.94237 h 2.35129 v 11.96093 q -1.53345,-0.40892 -3.16913,-0.71561 -1.63568,-0.40892 -4.19144,-0.40892 -2.96467,0 -5.31597,1.84014 -2.35129,1.84014 -2.35129,5.52043 v 37.82516 z" />
          <path
             id="path4863"
             style="stroke-width:2.55575395px"
             d="m 620.79199,744.03196 q -3.88475,2.24907 -6.4405,4.08921 -2.55575,1.84014 -3.98698,3.57806 -1.43122,1.73791 -2.0446,3.37359 -0.51115,1.63568 -0.51115,3.47583 0,2.65798 1.32899,3.88474 1.32899,1.12453 3.98698,1.12453 2.35129,0 4.29366,-1.53345 1.94238,-1.53345 3.3736,-3.57805 z m -23.61517,-10.93862 q 0.51115,-8.38288 5.4182,-12.77877 4.90705,-4.3959 12.98323,-4.3959 7.97395,0 12.26762,3.68029 4.3959,3.68028 4.3959,11.24531 v 35.26941 q 0,1.32899 0.20446,2.86244 0.30669,1.53345 0.51115,2.96468 h -10.93863 q -0.10223,-1.12454 -0.30669,-2.14684 -0.20446,-1.12453 -0.30669,-2.14683 -3.27136,2.65798 -6.23604,3.98698 -2.96467,1.32899 -7.15611,1.32899 -5.82712,0 -8.79179,-3.47583 -2.86245,-3.57805 -2.86245,-8.89402 0,-4.49813 1.43122,-8.07618 1.53346,-3.57806 4.60036,-6.54273 3.06691,-2.96468 7.66726,-5.4182 4.60036,-2.55576 10.73417,-4.90705 v -3.27136 q 0,-7.05389 -5.62266,-7.05389 -3.88475,0 -5.11151,2.14684 -1.22676,2.0446 -1.43122,5.62266 z" />
          <path
             id="path4865"
             style="stroke-width:2.55575395px"
             d="m 639.23016,726.34615 v -9.40518 h 6.33827 V 702.1176 h 11.44977 v 14.82337 h 7.66727 v 9.40518 h -7.66727 v 31.69134 q 0,4.49813 3.88475,4.49813 h 3.78252 v 9.8141 q -1.12454,0.30669 -2.3513,0.40892 -1.22676,0.20446 -3.37359,0.20446 -6.4405,0 -9.91633,-2.96468 -3.47582,-3.0669 -3.47582,-9.40517 v -34.2471 z" />
          <path
             id="path4867"
             style="stroke-width:2.55575395px"
             d="m 694.46958,744.03196 q -3.88475,2.24907 -6.4405,4.08921 -2.55576,1.84014 -3.98698,3.57806 -1.43122,1.73791 -2.0446,3.37359 -0.51115,1.63568 -0.51115,3.47583 0,2.65798 1.32899,3.88474 1.32899,1.12453 3.98698,1.12453 2.35129,0 4.29366,-1.53345 1.94238,-1.53345 3.3736,-3.57805 z m -23.61517,-10.93862 q 0.51115,-8.38288 5.4182,-12.77877 4.90705,-4.3959 12.98323,-4.3959 7.97395,0 12.26762,3.68029 4.3959,3.68028 4.3959,11.24531 v 35.26941 q 0,1.32899 0.20446,2.86244 0.30669,1.53345 0.51115,2.96468 h -10.93863 q -0.10223,-1.12454 -0.30669,-2.14684 -0.20446,-1.12453 -0.30669,-2.14683 -3.27137,2.65798 -6.23604,3.98698 -2.96467,1.32899 -7.15611,1.32899 -5.82712,0 -8.79179,-3.47583 -2.86245,-3.57805 -2.86245,-8.89402 0,-4.49813 1.43122,-8.07618 1.53346,-3.57806 4.60036,-6.54273 3.06691,-2.96468 7.66726,-5.4182 4.60036,-2.55576 10.73417,-4.90705 v -3.27136 q 0,-7.05389 -5.62266,-7.05389 -3.88475,0 -5.11151,2.14684 -1.22676,2.0446 -1.43122,5.62266 z" />
          <path
             id="path4869"
             style="stroke-width:2.55575395px"
             d="m 720.06387,771.9408 v -12.06316 h 12.06315 v 12.06316 z m -0.40893,-73.81018 h 12.881 l -2.24906,52.13738 h -8.38287 z" />
        </g>
      </g>
    </g>
  </g>
</svg>
