<?xml version="1.0" encoding="UTF-8" standalone="no"?>
<!-- Created with Inkscape (http://www.inkscape.org/) -->

<svg
   xmlns:dc="http://purl.org/dc/elements/1.1/"
   xmlns:cc="http://creativecommons.org/ns#"
   xmlns:rdf="http://www.w3.org/1999/02/22-rdf-syntax-ns#"
   xmlns:svg="http://www.w3.org/2000/svg"
   xmlns="http://www.w3.org/2000/svg"
   xmlns:sodipodi="http://sodipodi.sourceforge.net/DTD/sodipodi-0.dtd"
   xmlns:inkscape="http://www.inkscape.org/namespaces/inkscape"
   width="396.8504"
   height="279.68503"
   id="svg2"
   version="1.1"
   inkscape:version="0.92.2 5c3e80d, 2017-08-06"
   sodipodi:docname="software_libre.svg"
   viewBox="0 0 372.04724 262.20471">
  <defs
     id="defs4" />
  <sodipodi:namedview
     id="base"
     pagecolor="#ffffff"
     bordercolor="#666666"
     borderopacity="1.0"
     inkscape:pageopacity="0.0"
     inkscape:pageshadow="2"
     inkscape:zoom="1.06"
     inkscape:cx="189.84771"
     inkscape:cy="152.55202"
     inkscape:document-units="mm"
     inkscape:current-layer="g3170"
     showgrid="false"
     showguides="true"
     inkscape:guide-bbox="true"
     units="mm"
     inkscape:window-width="1280"
     inkscape:window-height="738"
     inkscape:window-x="0"
     inkscape:window-y="62"
     inkscape:window-maximized="0">
    <sodipodi:guide
       orientation="1,0"
       position="372.04723,262.20471"
       id="guide3168"
       inkscape:locked="false" />
    <sodipodi:guide
       orientation="0,1"
       position="524.40944,262.20471"
       id="guide3277"
       inkscape:locked="false" />
  </sodipodi:namedview>
  <metadata
     id="metadata7">
    <rdf:RDF>
      <cc:Work
         rdf:about="">
        <dc:format>image/svg+xml</dc:format>
        <dc:type
           rdf:resource="http://purl.org/dc/dcmitype/StillImage" />
        <dc:title></dc:title>
      </cc:Work>
    </rdf:RDF>
  </metadata>
  <g
     inkscape:label="Capa 1"
     inkscape:groupmode="layer"
     id="layer1"
     transform="translate(0,-790.15737)">
    <g
       id="g3170"
       transform="translate(-372.04724)">
      <g
         transform="matrix(0.16107965,0,0,0.0802526,416.71529,981.48184)"
         inkscape:label="Capa 1"
         id="layer1-8">
        <rect
           y="-2384.0276"
           x="-277.30411"
           height="3267.2429"
           width="2309.7097"
           id="rect3033"
           style="fill:#164450" />
        <g
           id="g3847"
           transform="matrix(0.67937345,0,0,0.67937345,-233.93427,225.03697)"
           inkscape:export-filename="/srv/http/kiwwwi.com.ar/pastes/utopia-pirata-2.png"
           inkscape:export-xdpi="149"
           inkscape:export-ydpi="149" />
      </g>
      <g
         id="g3570"
         transform="translate(0,-1.0012827)">
        <rect
           style="fill:#ffffff"
           id="rect3035"
           width="372.04724"
           height="173.31082"
           x="372.04724"
           y="809.1864" />
        <g
           transform="translate(651.7128,174.8251)"
           id="g3134">
          <g
             style="font-style:normal;font-variant:normal;font-weight:normal;font-stretch:normal;font-size:70.77178192px;line-height:125%;font-family:FontAwesome;-inkscape-font-specification:FontAwesome;letter-spacing:0px;word-spacing:0px;fill:#000000;fill-opacity:1;stroke:none"
             id="text3110-2">
            <path
               d="m -235.88346,732.61216 c 0,-1.69852 -0.0708,-3.60936 -0.56617,-5.09557 -0.4954,-1.41543 -1.27389,-2.40624 -2.47701,-2.40624 -1.98161,0.0708 -2.61856,2.12316 -2.61856,5.16634 0,1.76929 0.77849,3.60936 1.91084,5.59097 1.13235,1.98161 2.61856,4.03399 4.10476,6.22792 1.7693,2.61855 3.53859,5.30788 4.88326,7.92644 1.34466,2.61855 2.26469,5.30788 2.26469,8.13875 0,3.46782 -0.56617,6.72332 -2.19392,9.12956 -1.62775,2.40624 -4.24631,3.96322 -8.42184,3.96322 -4.88325,0 -7.64336,-1.84007 -9.20034,-4.67094 -1.55697,-2.83086 -1.91083,-6.58178 -1.91083,-10.47422 l 7.5018,-0.70772 c 0,2.19393 0.0708,4.38786 0.63695,6.0156 0.4954,1.69853 1.34467,2.83088 2.97242,2.83088 2.26469,0 3.11395,-2.40625 3.11395,-5.73252 0,-1.69852 -0.84926,-3.68013 -1.98161,-5.73251 -0.63694,-0.99081 -1.27389,-2.05239 -1.98161,-3.11396 -1.4862,-2.12315 -3.11396,-4.5294 -4.81248,-7.14795 -1.69852,-2.61855 -2.97241,-5.30789 -3.7509,-8.06798 -0.42463,-1.34467 -0.63695,-2.76011 -0.63695,-4.17554 0,-2.83087 0.63695,-5.87406 2.2647,-8.20953 1.62775,-2.26469 4.10477,-3.89244 7.71412,-3.96322 4.60016,-0.0708 7.2895,1.84007 8.7757,4.60017 1.48621,2.83087 1.91084,6.29869 1.91084,9.20033 l -7.50181,0.70772"
               style="font-weight:bold;font-family:'League Gothic';-inkscape-font-specification:'League Gothic Bold'"
               id="path3132"
               inkscape:connector-curvature="0" />
            <path
               d="m -206.53086,761.27473 c -0.21231,3.7509 -1.34467,6.36946 -3.82168,8.42184 -1.27389,1.06158 -3.04318,1.55698 -5.37865,1.55698 -4.60016,0 -6.86486,-2.54778 -7.99721,-5.09557 -0.63695,-1.4862 -1.06158,-3.18473 -1.13235,-5.09556 v -19.46224 c 0.21231,-3.75091 1.34467,-6.51101 3.82168,-8.63416 1.20311,-1.06158 2.97241,-1.55698 5.30788,-1.55698 4.60016,0 6.93563,2.54779 8.06798,5.0248 0.63695,1.4862 1.06158,3.11396 1.13235,4.95402 v 19.88687 m -6.72332,-19.67455 c 0.0708,-1.48621 -0.21231,-2.54779 -0.92003,-3.39705 -0.35386,-0.35386 -0.92004,-0.56617 -1.55698,-0.56617 -1.34466,0 -1.91084,0.92003 -2.19393,1.98161 -0.21231,0.56617 -0.28308,1.20312 -0.21231,1.98161 v 19.46224 c -0.0708,1.4862 0.28309,2.54778 0.92003,3.32627 0.35386,0.35386 0.84926,0.56617 1.48621,0.56617 1.34466,0 1.98161,-0.84926 2.2647,-1.91083 0.21231,-0.56618 0.28308,-1.20313 0.21231,-1.98161 v -19.46224"
               style="font-weight:bold;font-family:'League Gothic';-inkscape-font-specification:'League Gothic Bold'"
               id="path3134"
               inkscape:connector-curvature="0" />
            <path
               d="m -200.48319,770.68738 v -32.27193 h -3.60936 v -6.44024 h 3.60936 v -1.06157 c 0,-1.98161 0.0708,-5.16635 1.06158,-7.7849 0.9908,-2.61855 2.97241,-4.74171 7.14795,-4.74171 1.13234,0 1.91083,0.0708 2.47701,0.28309 l 0.84926,0.21231 v 6.15715 c -0.21232,-0.0708 -0.42463,-0.0708 -0.63695,-0.14154 -0.4954,-0.0708 -0.9908,-0.14155 -1.4862,-0.14155 -1.20312,0 -1.7693,1.06158 -2.05239,2.40624 -0.14154,0.70772 -0.21231,1.41544 -0.21231,2.12316 0,0.70771 0,1.27389 0,1.69852 v 0.9908 h 3.60936 v 6.44024 h -3.60936 v 32.27193 h -7.14795"
               style="font-weight:bold;font-family:'League Gothic';-inkscape-font-specification:'League Gothic Bold'"
               id="path3136"
               inkscape:connector-curvature="0" />
            <path
               d="m -176.88633,722.42102 v 9.55419 h 4.88326 v 6.44024 h -4.88326 v 19.24992 c 0,1.20312 0,2.7601 0.28309,4.03399 0.28309,1.27389 0.84926,2.33547 1.98161,2.33547 0.56617,0 1.27389,-0.0708 1.76929,-0.14154 0.28309,-0.0708 0.56618,-0.0708 0.84927,-0.14155 v 7.00641 c -0.35386,0.0708 -0.70772,0.21232 -1.06158,0.28309 -0.70772,0.14154 -1.62775,0.21231 -2.7601,0.21231 -4.17553,0 -6.15715,-2.12315 -7.14795,-4.81248 -0.99081,-2.68932 -1.06158,-5.94483 -1.06158,-8.20953 v -19.81609 h -3.60936 v -6.44024 h 3.60936 v -9.55419 h 7.14795"
               style="font-weight:bold;font-family:'League Gothic';-inkscape-font-specification:'League Gothic Bold'"
               id="path3138"
               inkscape:connector-curvature="0" />
            <path
               d="m -152.17702,770.68738 -2.7601,-18.47144 -0.35386,-2.19392 h -0.28309 l -0.35386,2.19392 -2.7601,18.47144 h -5.94483 l -5.73251,-38.71217 h 6.511 l 2.2647,20.24073 0.28309,2.19393 h 0.42463 l 0.35386,-2.19393 2.97241,-20.24073 h 4.24631 l 2.97241,20.24073 0.35386,2.19393 h 0.42463 l 0.28309,-2.19393 2.2647,-20.24073 h 6.511 l -5.73251,38.71217 h -5.94483"
               style="font-weight:bold;font-family:'League Gothic';-inkscape-font-specification:'League Gothic Bold'"
               id="path3140"
               inkscape:connector-curvature="0" />
            <path
               d="m -126.72793,741.17554 c 0,-0.63694 0,-1.62775 -0.21232,-2.33546 -0.28308,-0.70772 -0.84926,-1.20312 -1.76929,-1.20312 -1.20312,0 -1.69853,0.92003 -1.91084,2.05238 -0.0708,0.56617 -0.14154,1.20312 -0.14154,1.84006 0,0.63695 0,1.2739 0,1.84007 h -7.14795 v -1.62775 c 0,-2.83087 1.06157,-5.37866 2.7601,-7.28949 1.69852,-1.91084 4.10476,-3.04319 6.86486,-3.04319 2.33546,0 4.45862,0.92003 6.08637,2.47701 1.62775,1.55698 2.61856,3.75091 2.61856,6.29869 v 23.77932 c 0,3.46781 0.21231,5.0248 0.4954,6.72332 h -7.00641 c -0.63694,-0.77849 -0.63694,-2.61856 -0.63694,-3.11396 h -0.49541 c -0.35385,0.63694 -0.9908,1.55698 -1.98161,2.33547 -0.9908,0.77849 -2.33547,1.34466 -3.7509,1.34466 -0.92003,0 -2.40624,-0.35386 -3.53859,-1.76929 -1.20312,-1.34466 -2.19392,-3.75091 -2.19392,-7.7849 0,-4.31707 1.27389,-7.43104 2.97241,-9.55419 1.69852,-2.12315 3.82168,-3.46782 5.59097,-4.38785 1.76929,-0.92003 3.11396,-1.55698 3.39705,-2.33547 v -4.24631 m 0,10.82809 c -3.46782,1.4862 -4.95403,4.95403 -4.95403,8.63415 0,0.49541 0.0708,1.34467 0.35386,2.12316 0.28309,0.84926 0.77849,1.48621 1.62775,1.48621 1.62775,0 2.97242,-0.99081 2.97242,-2.33547 v -9.90805"
               style="font-weight:bold;font-family:'League Gothic';-inkscape-font-specification:'League Gothic Bold'"
               id="path3142"
               inkscape:connector-curvature="0" />
            <path
               d="m -100.72926,739.33548 c -0.63695,-0.21232 -1.34467,-0.28309 -1.98161,-0.28309 -1.13235,0 -2.47702,0.14155 -3.60936,1.20312 -1.34467,1.13235 -1.55698,2.33547 -1.55698,3.53859 v 26.89328 h -7.14795 v -38.71217 h 7.14795 v 4.31708 c 0.0708,-0.4954 0.56617,-1.69852 1.69852,-2.83087 1.13235,-1.06158 2.83087,-2.05238 5.44943,-2.05238 v 7.92644"
               style="font-weight:bold;font-family:'League Gothic';-inkscape-font-specification:'League Gothic Bold'"
               id="path3144"
               inkscape:connector-curvature="0" />
            <path
               d="m -79.979856,756.81611 v 4.45862 c -0.212315,3.7509 -1.344666,6.36946 -3.892448,8.42184 -1.273891,1.06158 -3.043189,1.55698 -5.378655,1.55698 -4.600162,0 -6.935636,-2.54778 -8.067984,-5.09557 -0.636945,-1.4862 -1.061576,-3.18473 -1.132348,-5.09556 v -19.46224 c 0.212315,-3.75091 1.415438,-6.51101 3.96322,-8.63416 1.203119,-1.06158 2.972417,-1.55698 5.307883,-1.55698 4.600162,0 6.935636,2.54779 8.067983,5.0248 0.636946,1.4862 1.061577,3.11396 1.132349,4.95402 v 11.25271 h -11.818888 v 8.42185 c 0.07077,1.4862 0.495403,2.54778 1.132349,3.32627 0.353858,0.35386 0.849262,0.56617 1.486207,0.56617 1.344663,0 1.98161,-0.84926 2.264697,-1.91083 0.212315,-0.56618 0.283087,-1.20313 0.283087,-1.98161 v -4.24631 h 6.652548 m -11.818888,-9.76651 h 5.16634 v -5.44942 c 0,-1.48621 -0.283087,-2.54779 -0.990805,-3.39705 -0.353858,-0.35386 -0.920033,-0.56617 -1.556979,-0.56617 -1.344662,0 -1.910838,0.92003 -2.264697,1.98161 -0.212315,0.56617 -0.283087,1.20312 -0.353859,1.98161 v 5.44942"
               style="font-weight:bold;font-family:'League Gothic';-inkscape-font-specification:'League Gothic Bold'"
               id="path3146"
               inkscape:connector-curvature="0" />
            <path
               d="m -64.157944,718.67012 h 7.643352 v 44.94008 h 10.120365 v 7.07718 h -17.763717 v -52.01726"
               style="font-weight:bold;font-family:'League Gothic';-inkscape-font-specification:'League Gothic Bold'"
               id="path3148"
               inkscape:connector-curvature="0" />
            <path
               d="m -43.285797,718.67012 h 7.14795 v 7.14795 h -7.14795 v -7.14795 m 0,52.01726 v -38.71217 h 7.14795 v 38.71217 h -7.14795"
               style="font-weight:bold;font-family:'League Gothic';-inkscape-font-specification:'League Gothic Bold'"
               id="path3150"
               inkscape:connector-curvature="0" />
            <path
               d="m -30.430756,718.67012 h 7.14795 V 734.523 c 1.203119,-1.13235 2.264698,-1.98161 3.680133,-2.61856 0.636945,-0.35386 1.344664,-0.4954 1.98161,-0.4954 1.981608,0 3.326274,1.13235 4.246307,2.54778 0.84926,1.48621 1.273892,3.39705 1.273892,5.0248 v 24.69935 c 0,1.62775 -0.424632,3.53859 -1.273892,4.95403 -0.920033,1.4862 -2.264699,2.61855 -4.246307,2.61855 -1.344663,0 -2.760101,-0.77849 -3.821677,-1.55698 -0.636945,-0.4954 -1.203121,-0.9908 -1.840066,-1.55698 v 2.54779 h -7.14795 v -52.01726 m 7.14795,43.52464 c 0,1.34467 1.061578,2.33547 2.123154,2.33547 1.061575,0 1.910838,-0.9908 1.910838,-2.33547 v -21.72693 c 0,-1.34467 -0.849263,-2.33547 -1.910838,-2.33547 -1.061576,0 -2.123154,1.20312 -2.123154,2.33547 v 21.72693"
               style="font-weight:bold;font-family:'League Gothic';-inkscape-font-specification:'League Gothic Bold'"
               id="path3152"
               inkscape:connector-curvature="0" />
            <path
               d="m 7.6400311,739.33548 c -0.6369454,-0.21232 -1.3446645,-0.28309 -1.9816099,-0.28309 -1.1323474,0 -2.4770135,0.14155 -3.6093609,1.20312 -1.34466247,1.13235 -1.55697916,2.33547 -1.55697916,3.53859 v 26.89328 H -6.6558688 v -38.71217 h 7.14794994 v 4.31708 c 0.0707717,-0.4954 0.56617536,-1.69852 1.69852276,-2.83087 1.1323474,-1.06158 2.8308739,-2.05238 5.4494272,-2.05238 v 7.92644"
               style="font-weight:bold;font-family:'League Gothic';-inkscape-font-specification:'League Gothic Bold'"
               id="path3154"
               inkscape:connector-curvature="0" />
            <path
               d="m 28.389422,756.81611 v 4.45862 c -0.212315,3.7509 -1.344667,6.36946 -3.892448,8.42184 -1.273891,1.06158 -3.043189,1.55698 -5.378656,1.55698 -4.600161,0 -6.935635,-2.54778 -8.067983,-5.09557 -0.636945,-1.4862 -1.0615765,-3.18473 -1.1323482,-5.09556 v -19.46224 c 0.2123152,-3.75091 1.4154382,-6.51101 3.9632202,-8.63416 1.203119,-1.06158 2.972417,-1.55698 5.307883,-1.55698 4.600161,0 6.935636,2.54779 8.067983,5.0248 0.636946,1.4862 1.061577,3.11396 1.132349,4.95402 v 11.25271 H 16.570534 v 8.42185 c 0.07077,1.4862 0.495403,2.54778 1.132349,3.32627 0.353858,0.35386 0.849262,0.56617 1.486207,0.56617 1.344663,0 1.98161,-0.84926 2.264697,-1.91083 0.212315,-0.56618 0.283087,-1.20313 0.283087,-1.98161 v -4.24631 h 6.652548 M 16.570534,747.0496 h 5.16634 v -5.44942 c 0,-1.48621 -0.283087,-2.54779 -0.990805,-3.39705 -0.353858,-0.35386 -0.920033,-0.56617 -1.556979,-0.56617 -1.344662,0 -1.910838,0.92003 -2.264697,1.98161 -0.212315,0.56617 -0.283087,1.20312 -0.353859,1.98161 v 5.44942"
               style="font-weight:bold;font-family:'League Gothic';-inkscape-font-specification:'League Gothic Bold'"
               id="path3156"
               inkscape:connector-curvature="0" />
          </g>
          <g
             style="font-style:normal;font-variant:normal;font-weight:normal;font-stretch:normal;font-size:47.18118668px;line-height:125%;font-family:FontAwesome;-inkscape-font-specification:FontAwesome;letter-spacing:0px;word-spacing:0px;fill:#000000;fill-opacity:1;stroke:none"
             id="text3114">
            <path
               d="m -241.61597,685.79664 v -5.33147 c 0,-0.94362 -0.18872,-1.60416 -0.66053,-2.17034 -0.23591,-0.2359 -0.61336,-0.37745 -1.03799,-0.37745 -0.89644,0 -1.32107,0.66054 -1.5098,1.2739 -0.14154,0.37745 -0.18872,0.80208 -0.18872,1.27389 v 20.85408 c 0,0.99081 0.23591,1.65135 0.70772,2.17034 0.2359,0.2359 0.56617,0.37745 0.9908,0.37745 0.89644,0 1.32108,-0.56618 1.5098,-1.27389 0.14154,-0.33027 0.18872,-0.7549 0.18872,-1.2739 v -6.27509 h -2.02879 v -4.29349 h 7.12436 v 17.26831 h -3.01959 l -0.61336,-1.65134 c -0.94362,1.17953 -2.31188,2.02879 -3.96322,2.02879 -1.65134,0 -2.78369,-0.42463 -3.63295,-1.17953 -0.84926,-0.70772 -1.41544,-1.60416 -1.79288,-2.54778 -0.42463,-1.08517 -0.61336,-2.35906 -0.56618,-3.7745 v -20.42945 c 0.0472,-1.36825 0.33027,-2.64215 0.84926,-3.72731 0.42463,-0.94363 1.03799,-1.88725 1.98161,-2.59497 0.94363,-0.70772 2.2647,-1.17953 3.96322,-1.17953 1.69852,0 2.97242,0.47181 3.91604,1.17953 0.94362,0.70772 1.60416,1.65134 2.02879,2.59497 0.51899,1.08516 0.80208,2.35906 0.84926,3.72731 v 5.33147 h -5.09557"
               style="font-family:'League Gothic';-inkscape-font-specification:'League Gothic'"
               id="path3159"
               inkscape:connector-curvature="0" />
            <path
               d="m -227.44392,689.94859 -0.42463,-1.60416 h -0.28308 v 19.67455 h -4.67094 v -34.67817 h 4.52939 l 4.95403,18.07039 0.42463,1.60416 h 0.28308 v -19.67455 h 4.67094 v 34.67817 h -4.52939 l -4.95403,-18.07039"
               style="font-family:'League Gothic';-inkscape-font-specification:'League Gothic'"
               id="path3161"
               inkscape:connector-curvature="0" />
            <path
               d="m -200.66712,673.34081 v 27.55381 c -0.0472,1.41544 -0.33027,2.68933 -0.84926,3.7745 -0.42463,0.94362 -1.08517,1.84006 -2.02879,2.54778 -0.94362,0.7549 -2.21752,1.17953 -3.91604,1.17953 -1.69852,0 -3.0196,-0.42463 -3.96322,-1.17953 -0.94362,-0.70772 -1.55698,-1.60416 -1.98161,-2.54778 -0.51899,-1.08517 -0.80208,-2.35906 -0.84926,-3.7745 v -27.55381 h 5.09557 v 27.55381 c 0,0.99081 0.2359,1.65134 0.70771,2.17034 0.23591,0.2359 0.56618,0.37745 0.99081,0.37745 0.89644,0 1.32107,-0.56618 1.5098,-1.2739 0.14154,-0.33026 0.18872,-0.75489 0.18872,-1.27389 v -27.55381 h 5.09557"
               style="font-family:'League Gothic';-inkscape-font-specification:'League Gothic'"
               id="path3163"
               inkscape:connector-curvature="0" />
          </g>
        </g>
      </g>
    </g>
  </g>
</svg>
