<?xml version="1.0" encoding="UTF-8" standalone="no"?>
<!-- Created with Inkscape (http://www.inkscape.org/) -->

<svg
   xmlns:dc="http://purl.org/dc/elements/1.1/"
   xmlns:cc="http://creativecommons.org/ns#"
   xmlns:rdf="http://www.w3.org/1999/02/22-rdf-syntax-ns#"
   xmlns:svg="http://www.w3.org/2000/svg"
   xmlns="http://www.w3.org/2000/svg"
   xmlns:sodipodi="http://sodipodi.sourceforge.net/DTD/sodipodi-0.dtd"
   xmlns:inkscape="http://www.inkscape.org/namespaces/inkscape"
   width="396.8504"
   height="279.68503"
   id="svg2"
   version="1.1"
   inkscape:version="0.92.2 5c3e80d, 2017-08-06"
   sodipodi:docname="zona_autonoma_temporal.svg"
   viewBox="0 0 372.04724 262.20471">
  <defs
     id="defs4" />
  <sodipodi:namedview
     id="base"
     pagecolor="#ffffff"
     bordercolor="#666666"
     borderopacity="1.0"
     inkscape:pageopacity="0.0"
     inkscape:pageshadow="2"
     inkscape:zoom="0.9899495"
     inkscape:cx="20.995225"
     inkscape:cy="226.14533"
     inkscape:document-units="mm"
     inkscape:current-layer="layer1"
     showgrid="false"
     showguides="true"
     inkscape:guide-bbox="true"
     units="mm"
     inkscape:window-width="1280"
     inkscape:window-height="738"
     inkscape:window-x="0"
     inkscape:window-y="62"
     inkscape:window-maximized="0">
    <sodipodi:guide
       orientation="1,0"
       position="372.04723,0"
       id="guide3168"
       inkscape:locked="false" />
  </sodipodi:namedview>
  <metadata
     id="metadata7">
    <rdf:RDF>
      <cc:Work
         rdf:about="">
        <dc:format>image/svg+xml</dc:format>
        <dc:type
           rdf:resource="http://purl.org/dc/dcmitype/StillImage" />
        <dc:title></dc:title>
      </cc:Work>
    </rdf:RDF>
  </metadata>
  <g
     inkscape:label="Capa 1"
     inkscape:groupmode="layer"
     id="layer1"
     transform="translate(0,-790.15737)">
    <rect
       y="790.15741"
       x="-7.0438722e-07"
       height="262.20471"
       width="372.04724"
       id="rect3033"
       style="fill:#216778;fill-opacity:1" />
    <g
       id="g3847"
       transform="matrix(0.10929874,0,0,0.10976979,379.02465,946.01697)"
       inkscape:export-filename="/srv/http/kiwwwi.com.ar/pastes/utopia-pirata-2.png"
       inkscape:export-xdpi="149"
       inkscape:export-ydpi="149" />
    <g
       id="g3405"
       transform="translate(-2.9508122e-7,178.9987)">
      <rect
         y="629.1864"
         x="2.9508121e-07"
         height="173.31084"
         width="372.04724"
         id="rect3035"
         style="fill:#ffffff" />
      <g
         transform="translate(-355.09549,40)"
         id="text3294"
         style="font-style:normal;font-weight:normal;font-size:31.78085518px;line-height:125%;font-family:Sans;letter-spacing:0px;word-spacing:0px;fill:#000000;fill-opacity:1;stroke:none">
        <path
           inkscape:connector-curvature="0"
           id="path3318"
           style="font-variant:normal;font-stretch:normal;font-family:'League Gothic';-inkscape-font-specification:'League Gothic'"
           d="m 418.90047,620.95299 h -2.66959 v 10.16987 h -3.43233 v -23.35892 h 3.43233 v 9.66138 h 2.66959 v -9.66138 h 3.43233 v 23.35892 h -3.43233 v -10.16987" />
        <path
           inkscape:connector-curvature="0"
           id="path3320"
           style="font-variant:normal;font-stretch:normal;font-family:'League Gothic';-inkscape-font-specification:'League Gothic'"
           d="m 429.76505,617.87025 c 0,-0.28603 0,-0.73096 -0.0953,-1.04877 -0.12712,-0.31781 -0.38137,-0.54028 -0.79452,-0.54028 -0.54027,0 -0.76274,0.41316 -0.85808,0.92165 -0.0318,0.25425 -0.0636,0.54027 -0.0636,0.8263 0,0.28603 0,0.57206 0,0.8263 h -3.20987 v -0.73096 c 0,-1.27123 0.47671,-2.41534 1.23945,-3.27342 0.76274,-0.85809 1.84329,-1.36658 3.08275,-1.36658 1.04876,0 2.00219,0.41315 2.73315,1.11233 0.73096,0.69918 1.17589,1.68439 1.17589,2.8285 v 10.67836 c 0,1.55726 0.0953,2.25644 0.22247,3.01918 h -3.14631 c -0.28603,-0.34959 -0.28603,-1.17589 -0.28603,-1.39835 h -0.22246 c -0.15891,0.28602 -0.44493,0.69918 -0.88987,1.04876 -0.44493,0.34959 -1.04876,0.60384 -1.68438,0.60384 -0.41315,0 -1.08055,-0.1589 -1.58904,-0.79452 -0.54028,-0.60384 -0.98521,-1.68439 -0.98521,-3.49589 0,-1.93864 0.57206,-3.337 1.3348,-4.29042 0.76274,-0.95342 1.71616,-1.55726 2.51068,-1.97041 0.79452,-0.41315 1.39836,-0.69918 1.52548,-1.04877 v -1.90685 m 0,4.86247 c -1.55726,0.6674 -2.22466,2.22466 -2.22466,3.87726 0,0.22247 0.0318,0.60384 0.15891,0.95343 0.12712,0.38137 0.34959,0.6674 0.73096,0.6674 0.73096,0 1.33479,-0.44494 1.33479,-1.04877 v -4.44932" />
        <path
           inkscape:connector-curvature="0"
           id="path3322"
           style="font-variant:normal;font-stretch:normal;font-family:'League Gothic';-inkscape-font-specification:'League Gothic'"
           d="m 438.35433,607.76394 v 11.09151 h 0.1589 l 0.19069,-0.57205 1.55726,-4.54466 h 2.89206 l -2.32001,5.65699 2.92384,11.72713 h -3.08274 l -1.58904,-7.02357 -0.0636,-0.25424 h -0.1589 l -0.0953,0.25424 -0.41315,1.01699 v 6.00658 h -3.20987 v -23.35892 h 3.20987" />
        <path
           inkscape:connector-curvature="0"
           id="path3324"
           style="font-variant:normal;font-stretch:normal;font-family:'League Gothic';-inkscape-font-specification:'League Gothic'"
           d="m 445.07598,607.76394 h 3.20987 v 3.20986 h -3.20987 v -3.20986 m 0,23.35892 v -17.38412 h 3.20987 v 17.38412 h -3.20987" />
        <path
           inkscape:connector-curvature="0"
           id="path3326"
           style="font-variant:normal;font-stretch:normal;font-family:'League Gothic';-inkscape-font-specification:'League Gothic'"
           d="m 459.14348,631.12286 h -3.01919 v -13.76111 c 0,-0.66739 -0.50849,-0.76274 -0.85808,-0.76274 -0.34959,0 -0.63562,0.19069 -0.85808,0.41315 -0.12712,0.12713 -0.25425,0.25425 -0.34959,0.41316 v 13.69754 h -3.20987 v -17.38412 h 3.20987 v 1.46192 c 0.0636,-0.0318 0.19068,-0.15891 0.38137,-0.34959 0.34959,-0.34959 0.88986,-0.82631 1.46192,-1.14411 0.28603,-0.15891 0.54027,-0.22247 0.8263,-0.22247 1.14411,0 1.81151,0.92164 2.1611,1.93863 0.12712,-0.0953 0.28603,-0.25425 0.50849,-0.47671 0.41315,-0.44493 0.95343,-0.85808 1.55726,-1.20767 0.28603,-0.15891 0.57206,-0.25425 0.85809,-0.25425 0.85808,0 1.46192,0.50849 1.84329,1.14411 0.38137,0.6674 0.57205,1.52548 0.57205,2.25644 v 14.23782 h -3.01918 v -13.76111 c 0,-0.66739 -0.50849,-0.76274 -0.85808,-0.76274 -0.34959,0 -0.63562,0.19069 -0.85808,0.41315 -0.12713,0.12713 -0.25425,0.25425 -0.34959,0.41316 v 13.69754" />
        <path
           inkscape:connector-curvature="0"
           id="path3328"
           style="font-variant:normal;font-stretch:normal;font-family:'League Gothic';-inkscape-font-specification:'League Gothic'"
           d="m 471.58072,631.12286 v -23.35892 h 3.01918 c 2.03397,0 3.62302,0.38137 4.67178,1.36657 1.04877,0.98521 1.58905,2.51069 1.58905,4.83069 0,1.11233 -0.0953,1.93863 -0.44494,2.70137 -0.34958,0.76274 -0.88986,1.39836 -1.68438,2.12932 0.85808,0.47671 1.4937,1.36658 2.00219,2.86028 0.25425,0.73096 0.38137,1.68439 0.38137,2.86028 0,1.74794 -0.31781,3.30521 -1.11233,4.51288 -0.79452,1.20767 -2.1611,2.00219 -4.19507,2.09753 h -4.22685 m 3.43233,-13.72933 c 0.28603,0 0.95343,0.0318 1.52548,-0.34959 0.57206,-0.38136 1.01699,-1.14411 1.01699,-2.76493 0,-1.62082 -0.44493,-2.38356 -1.01699,-2.76493 -0.57205,-0.38137 -1.23945,-0.34959 -1.52548,-0.34959 v 6.22904 m 0,10.32878 c 0.28603,0 0.95343,0.0636 1.52548,-0.34959 0.57206,-0.41315 1.01699,-1.33479 1.01699,-3.24164 0,-1.90685 -0.44493,-2.8285 -1.01699,-3.24165 -0.57205,-0.41315 -1.23945,-0.34959 -1.52548,-0.34959 v 7.18247" />
        <path
           inkscape:connector-curvature="0"
           id="path3330"
           style="font-variant:normal;font-stretch:normal;font-family:'League Gothic';-inkscape-font-specification:'League Gothic'"
           d="m 491.16666,624.89382 v 2.00219 c -0.0953,1.68438 -0.60383,2.86028 -1.74794,3.78192 -0.57206,0.47671 -1.36658,0.69918 -2.41535,0.69918 -2.06575,0 -3.11452,-1.14411 -3.62302,-2.28822 -0.28602,-0.6674 -0.47671,-1.43014 -0.50849,-2.28822 v -8.73974 c 0.0953,-1.68438 0.63562,-2.92384 1.77973,-3.87726 0.54027,-0.47671 1.3348,-0.69918 2.38356,-0.69918 2.06576,0 3.11453,1.14411 3.62302,2.25644 0.28603,0.6674 0.47671,1.39836 0.50849,2.22466 v 5.05316 h -5.3074 v 3.78192 c 0.0318,0.66739 0.22247,1.14411 0.5085,1.4937 0.1589,0.1589 0.38137,0.25424 0.66739,0.25424 0.60384,0 0.88987,-0.38137 1.01699,-0.85808 0.0953,-0.25425 0.12712,-0.54027 0.12712,-0.88986 v -1.90685 h 2.9874 m -5.3074,-4.38576 h 2.32 v -2.44713 c 0,-0.6674 -0.12712,-1.14411 -0.44493,-1.52548 -0.1589,-0.1589 -0.41315,-0.25425 -0.69918,-0.25425 -0.60383,0 -0.85808,0.41316 -1.01698,0.88987 -0.0953,0.25424 -0.12713,0.54027 -0.15891,0.88986 v 2.44713" />
        <path
           inkscape:connector-curvature="0"
           id="path3332"
           style="font-variant:normal;font-stretch:normal;font-family:'League Gothic';-inkscape-font-specification:'League Gothic'"
           d="m 492.41902,634.42807 c 0.0318,0.0318 0.0953,0.0318 0.19069,0.0318 0.1589,0.0318 0.95343,0.0954 1.46192,-0.28602 0.50849,-0.38137 0.85808,-0.92165 1.04877,-1.58905 0.0953,-0.31781 0.12712,-0.63561 0.12712,-0.95342 l -2.95562,-17.89262 h 3.14631 l 1.27123,10.67836 0.0636,0.88987 h 0.12712 l 0.0636,-0.88987 1.27123,-10.67836 h 3.1463 l -3.08274,18.68714 c -0.1589,1.23945 -0.63562,2.44713 -1.39836,3.36877 -0.76274,0.92164 -1.77972,1.55726 -3.05096,1.55726 -0.0953,0 -0.22246,0 -0.38137,0 -0.28603,0 -0.6674,-0.0318 -1.04877,-0.0636 v -2.86028" />
      </g>
    </g>
    <g
       transform="translate(2.3704919e-5,216.95444)"
       id="g3306">
      <path
         inkscape:connector-curvature="0"
         id="path3215"
         style="font-style:normal;font-variant:normal;font-weight:normal;font-stretch:normal;font-size:14px;line-height:125%;font-family:'League Gothic';-inkscape-font-specification:'League Gothic';letter-spacing:0px;word-spacing:0px;fill:#000000;fill-opacity:1;stroke:none"
         d="m 57.703036,680.36159 8.942136,-27.09097 h -7.672247 v -5.66159 h 13.862957 v 5.66159 L 63.73501,680.8378 h 9.100872 v 5.66159 H 57.703036 v -6.1378" />
      <path
         inkscape:connector-curvature="0"
         id="path3217"
         style="font-style:normal;font-variant:normal;font-weight:normal;font-stretch:normal;font-size:14px;line-height:125%;font-family:'League Gothic';-inkscape-font-specification:'League Gothic';letter-spacing:0px;word-spacing:0px;fill:#000000;fill-opacity:1;stroke:none"
         d="m 88.743399,679.46208 c -0.158736,2.80434 -1.005329,4.76209 -2.857251,6.29654 -0.952417,0.79368 -2.275218,1.16406 -4.021316,1.16406 -3.439283,0 -5.132468,-1.90483 -5.979061,-3.80967 -0.476209,-1.11115 -0.793681,-2.38104 -0.846593,-3.80966 v -14.55082 c 0.158736,-2.80434 1.005329,-4.86791 2.857251,-6.45527 0.899504,-0.79368 2.222306,-1.16406 3.968403,-1.16406 3.439284,0 5.185381,1.90483 6.031974,3.75675 0.476209,1.11116 0.793681,2.32813 0.846593,3.70385 v 14.86828 m -5.026645,-14.70955 c 0.05291,-1.11115 -0.158736,-1.90483 -0.687856,-2.53978 -0.264561,-0.26456 -0.687857,-0.42329 -1.164066,-0.42329 -1.005329,0 -1.428625,0.68785 -1.640273,1.48154 -0.158736,0.42329 -0.211648,0.8995 -0.158736,1.48153 v 14.55082 c -0.05291,1.11115 0.211648,1.90483 0.687856,2.48686 0.264561,0.26456 0.634945,0.4233 1.111153,0.4233 1.005329,0 1.481538,-0.63495 1.693186,-1.42863 0.158736,-0.42329 0.211648,-0.8995 0.158736,-1.48153 v -14.55082" />
      <path
         inkscape:connector-curvature="0"
         id="path3219"
         style="font-style:normal;font-variant:normal;font-weight:normal;font-stretch:normal;font-size:14px;line-height:125%;font-family:'League Gothic';-inkscape-font-specification:'League Gothic';letter-spacing:0px;word-spacing:0px;fill:#000000;fill-opacity:1;stroke:none"
         d="m 97.704546,686.49939 h -5.344117 v -28.9429 h 5.344117 v 2.43396 c 0.105824,-0.0529 0.317472,-0.26456 0.634945,-0.58203 0.582032,-0.58204 1.375713,-1.37572 2.328129,-1.90484 0.47621,-0.26456 0.89951,-0.37038 1.37571,-0.37038 1.42863,0 2.43396,0.84659 3.0689,1.90483 0.63495,1.11115 0.95242,2.53978 0.95242,3.75676 v 23.7046 h -5.34412 v -22.91092 c 0,-1.11116 -0.63494,-1.26989 -1.269886,-1.26989 -0.582033,0 -0.899505,0.31747 -1.269889,0.68785 -0.158737,0.21165 -0.317473,0.4233 -0.476209,0.68786 v 22.8051" />
      <path
         inkscape:connector-curvature="0"
         id="path3221"
         style="font-style:normal;font-variant:normal;font-weight:normal;font-stretch:normal;font-size:14px;line-height:125%;font-family:'League Gothic';-inkscape-font-specification:'League Gothic';letter-spacing:0px;word-spacing:0px;fill:#000000;fill-opacity:1;stroke:none"
         d="m 118.02444,664.43506 c 0,-0.47621 0,-1.21698 -0.15874,-1.7461 -0.21165,-0.52912 -0.63494,-0.8995 -1.3228,-0.8995 -0.89951,0 -1.26989,0.68785 -1.42863,1.53445 -0.0529,0.42329 -0.10582,0.8995 -0.10582,1.37571 0,0.47621 0,0.95242 0,1.37571 h -5.34412 v -1.21697 c 0,-2.11649 0.79368,-4.02132 2.06357,-5.44994 1.26989,-1.42863 3.0689,-2.27522 5.13247,-2.27522 1.7461,0 3.33346,0.68785 4.55044,1.85192 1.21698,1.16406 1.95774,2.80434 1.95774,4.70917 v 17.77845 c 0,2.59269 0.15874,3.75676 0.37039,5.02665 h -5.23829 c -0.47621,-0.58204 -0.47621,-1.95775 -0.47621,-2.32813 h -0.37039 c -0.26456,0.4762 -0.74077,1.16406 -1.48154,1.74609 -0.74076,0.58204 -1.74609,1.00533 -2.80433,1.00533 -0.68786,0 -1.79901,-0.26456 -2.64561,-1.3228 -0.8995,-1.00533 -1.64027,-2.80434 -1.64027,-5.82032 0,-3.22764 0.95242,-5.55577 2.22231,-7.14313 1.26989,-1.58736 2.85725,-2.59269 4.18005,-3.28055 1.3228,-0.68786 2.32813,-1.16406 2.53978,-1.7461 v -3.17472 m 0,8.09554 c -2.59269,1.11116 -3.70385,3.70385 -3.70385,6.45527 0,0.37039 0.0529,1.00533 0.26456,1.58737 0.21165,0.63494 0.58204,1.11115 1.21698,1.11115 1.21698,0 2.22231,-0.74077 2.22231,-1.7461 v -7.40769" />
      <path
         inkscape:connector-curvature="0"
         id="path3223"
         style="font-style:normal;font-variant:normal;font-weight:normal;font-stretch:normal;font-size:14px;line-height:125%;font-family:'League Gothic';-inkscape-font-specification:'League Gothic';letter-spacing:0px;word-spacing:0px;fill:#000000;fill-opacity:1;stroke:none"
         d="m 133.55741,686.49939 5.87324,-38.89036 h 6.98439 l 5.87324,38.89036 h -5.55577 l -1.05824,-7.93681 h -5.50285 l -1.05824,7.93681 h -5.55577 m 9.68291,-26.24438 -0.15874,-1.00533 h -0.31747 l -0.15874,1.00533 -1.64027,12.27559 h 3.91549 l -1.64027,-12.27559" />
      <path
         inkscape:connector-curvature="0"
         id="path3225"
         style="font-style:normal;font-variant:normal;font-weight:normal;font-stretch:normal;font-size:14px;line-height:125%;font-family:'League Gothic';-inkscape-font-specification:'League Gothic';letter-spacing:0px;word-spacing:0px;fill:#000000;fill-opacity:1;stroke:none"
         d="m 163.13774,657.55649 h 5.34412 v 28.9429 h -5.34412 v -2.43396 c -0.10582,0.0529 -0.31747,0.26456 -0.58203,0.52912 -0.63494,0.63495 -1.37571,1.37571 -2.32813,1.90484 -0.47621,0.26456 -0.95242,0.42329 -1.42863,0.42329 -1.42862,0 -2.43395,-0.84659 -3.06889,-1.95774 -0.63495,-1.05825 -0.95242,-2.48687 -0.95242,-3.70385 v -23.7046 h 5.34412 v 22.91092 c 0,1.11115 0.63494,1.26989 1.26988,1.26989 0.58204,0 0.89951,-0.31747 1.26989,-0.68786 0.15874,-0.15873 0.31748,-0.42329 0.47621,-0.68785 v -22.8051" />
      <path
         inkscape:connector-curvature="0"
         id="path3227"
         style="font-style:normal;font-variant:normal;font-weight:normal;font-stretch:normal;font-size:14px;line-height:125%;font-family:'League Gothic';-inkscape-font-specification:'League Gothic';letter-spacing:0px;word-spacing:0px;fill:#000000;fill-opacity:1;stroke:none"
         d="m 178.9072,650.41337 v 7.14312 h 3.65093 v 4.815 h -3.65093 v 14.39208 c 0,0.8995 0,2.06357 0.21164,3.01599 0.21165,0.95241 0.63495,1.74609 1.48154,1.74609 0.4233,0 0.95242,-0.0529 1.3228,-0.10582 0.21165,-0.0529 0.4233,-0.0529 0.63495,-0.10583 v 5.2383 c -0.26456,0.0529 -0.52912,0.15873 -0.79368,0.21165 -0.52912,0.10582 -1.21698,0.15873 -2.06357,0.15873 -3.12181,0 -4.60335,-1.58736 -5.34412,-3.59802 -0.74077,-2.01066 -0.79368,-4.44461 -0.79368,-6.1378 v -14.81537 h -2.69852 v -4.815 h 2.69852 v -7.14312 h 5.34412" />
      <path
         inkscape:connector-curvature="0"
         id="path3229"
         style="font-style:normal;font-variant:normal;font-weight:normal;font-stretch:normal;font-size:14px;line-height:125%;font-family:'League Gothic';-inkscape-font-specification:'League Gothic';letter-spacing:0px;word-spacing:0px;fill:#000000;fill-opacity:1;stroke:none"
         d="m 198.28045,648.03232 -4.18005,4.76209 h -4.12714 l 2.75139,-4.76209 h 5.5558 m 0.31747,31.42976 c -0.15873,2.80434 -1.00536,4.76209 -2.85728,6.29654 -0.95238,0.79368 -2.27522,1.16406 -4.02128,1.16406 -3.43928,0 -5.13251,-1.90483 -5.97906,-3.80967 -0.47621,-1.11115 -0.79372,-2.38104 -0.8466,-3.80966 v -14.55082 c 0.15874,-2.80434 1.00533,-4.86791 2.85725,-6.45527 0.89947,-0.79368 2.22231,-1.16406 3.96841,-1.16406 3.43924,0 5.18538,1.90483 6.03197,3.75675 0.47617,1.11116 0.79368,2.32813 0.84659,3.70385 v 14.86828 m -5.02664,-14.70955 c 0.0529,-1.11115 -0.15874,-1.90483 -0.68786,-2.53978 -0.26456,-0.26456 -0.68789,-0.42329 -1.16406,-0.42329 -1.00533,0 -1.42866,0.68785 -1.64031,1.48154 -0.15874,0.42329 -0.21165,0.8995 -0.15874,1.48153 v 14.55082 c -0.0529,1.11115 0.21165,1.90483 0.68786,2.48686 0.26456,0.26456 0.63494,0.4233 1.11115,0.4233 1.00529,0 1.48154,-0.63495 1.69319,-1.42863 0.15873,-0.42329 0.21164,-0.8995 0.15873,-1.48153 v -14.55082" />
      <path
         inkscape:connector-curvature="0"
         id="path3231"
         style="font-style:normal;font-variant:normal;font-weight:normal;font-stretch:normal;font-size:14px;line-height:125%;font-family:'League Gothic';-inkscape-font-specification:'League Gothic';letter-spacing:0px;word-spacing:0px;fill:#000000;fill-opacity:1;stroke:none"
         d="m 207.55907,686.49939 h -5.34412 v -28.9429 h 5.34412 v 2.43396 c 0.10583,-0.0529 0.31747,-0.26456 0.63495,-0.58203 0.58203,-0.58204 1.37571,-1.37572 2.32813,-1.90484 0.47621,-0.26456 0.8995,-0.37038 1.37571,-0.37038 1.42863,0 2.43395,0.84659 3.0689,1.90483 0.63494,1.11115 0.95242,2.53978 0.95242,3.75676 v 23.7046 h -5.34412 v -22.91092 c 0,-1.11116 -0.63495,-1.26989 -1.26989,-1.26989 -0.58203,0 -0.89951,0.31747 -1.26989,0.68785 -0.15874,0.21165 -0.31747,0.4233 -0.47621,0.68786 v 22.8051" />
      <path
         inkscape:connector-curvature="0"
         id="path3233"
         style="font-style:normal;font-variant:normal;font-weight:normal;font-stretch:normal;font-size:14px;line-height:125%;font-family:'League Gothic';-inkscape-font-specification:'League Gothic';letter-spacing:0px;word-spacing:0px;fill:#000000;fill-opacity:1;stroke:none"
         d="m 233.32146,679.46208 c -0.15874,2.80434 -1.00537,4.76209 -2.85729,6.29654 -0.95238,0.79368 -2.27522,1.16406 -4.02128,1.16406 -3.43928,0 -5.13251,-1.90483 -5.97906,-3.80967 -0.47621,-1.11115 -0.79372,-2.38104 -0.84659,-3.80966 v -14.55082 c 0.15873,-2.80434 1.00533,-4.86791 2.85725,-6.45527 0.89946,-0.79368 2.2223,-1.16406 3.9684,-1.16406 3.43925,0 5.18538,1.90483 6.03198,3.75675 0.47617,1.11116 0.79368,2.32813 0.84659,3.70385 v 14.86828 m -5.02665,-14.70955 c 0.0529,-1.11115 -0.15873,-1.90483 -0.68785,-2.53978 -0.26456,-0.26456 -0.6879,-0.42329 -1.16407,-0.42329 -1.00533,0 -1.42866,0.68785 -1.64031,1.48154 -0.15874,0.42329 -0.21165,0.8995 -0.15874,1.48153 v 14.55082 c -0.0529,1.11115 0.21165,1.90483 0.68786,2.48686 0.26456,0.26456 0.63495,0.4233 1.11115,0.4233 1.0053,0 1.48154,-0.63495 1.69319,-1.42863 0.15874,-0.42329 0.21165,-0.8995 0.15874,-1.48153 v -14.55082" />
      <path
         inkscape:connector-curvature="0"
         id="path3235"
         style="font-style:normal;font-variant:normal;font-weight:normal;font-stretch:normal;font-size:14px;line-height:125%;font-family:'League Gothic';-inkscape-font-specification:'League Gothic';letter-spacing:0px;word-spacing:0px;fill:#000000;fill-opacity:1;stroke:none"
         d="m 250.74853,686.49939 h -5.02664 v -22.91092 c 0,-1.11116 -0.84659,-1.26989 -1.42863,-1.26989 -0.58203,0 -1.05824,0.31747 -1.42862,0.68785 -0.21165,0.21165 -0.4233,0.4233 -0.58203,0.68786 v 22.8051 h -5.34412 v -28.9429 h 5.34412 v 2.43396 c 0.10582,-0.0529 0.31747,-0.26456 0.63494,-0.58203 0.58203,-0.58204 1.48154,-1.37572 2.43395,-1.90484 0.47621,-0.26456 0.89951,-0.37038 1.37572,-0.37038 1.90483,0 3.01598,1.53445 3.59802,3.22763 0.21165,-0.15873 0.47621,-0.42329 0.84659,-0.79368 0.68786,-0.74077 1.58736,-1.42862 2.59269,-2.01066 0.47621,-0.26456 0.95242,-0.42329 1.42863,-0.42329 1.42862,0 2.43395,0.84659 3.06889,1.90483 0.63495,1.11115 0.95242,2.53978 0.95242,3.75676 v 23.7046 h -5.02664 v -22.91092 c 0,-1.11116 -0.8466,-1.26989 -1.42863,-1.26989 -0.58203,0 -1.05824,0.31747 -1.42862,0.68785 -0.21165,0.21165 -0.4233,0.4233 -0.58204,0.68786 v 22.8051" />
      <path
         inkscape:connector-curvature="0"
         id="path3237"
         style="font-style:normal;font-variant:normal;font-weight:normal;font-stretch:normal;font-size:14px;line-height:125%;font-family:'League Gothic';-inkscape-font-specification:'League Gothic';letter-spacing:0px;word-spacing:0px;fill:#000000;fill-opacity:1;stroke:none"
         d="m 271.07666,664.43506 c 0,-0.47621 0,-1.21698 -0.15873,-1.7461 -0.21165,-0.52912 -0.63495,-0.8995 -1.3228,-0.8995 -0.89951,0 -1.26989,0.68785 -1.42863,1.53445 -0.0529,0.42329 -0.10582,0.8995 -0.10582,1.37571 0,0.47621 0,0.95242 0,1.37571 h -5.34412 v -1.21697 c 0,-2.11649 0.79368,-4.02132 2.06357,-5.44994 1.26989,-1.42863 3.0689,-2.27522 5.13247,-2.27522 1.7461,0 3.33346,0.68785 4.55043,1.85192 1.21698,1.16406 1.95775,2.80434 1.95775,4.70917 v 17.77845 c 0,2.59269 0.15874,3.75676 0.37038,5.02665 h -5.23829 c -0.47621,-0.58204 -0.47621,-1.95775 -0.47621,-2.32813 h -0.37038 c -0.26456,0.4762 -0.74077,1.16406 -1.48154,1.74609 -0.74077,0.58204 -1.7461,1.00533 -2.80434,1.00533 -0.68785,0 -1.79901,-0.26456 -2.6456,-1.3228 -0.8995,-1.00533 -1.64027,-2.80434 -1.64027,-5.82032 0,-3.22764 0.95241,-5.55577 2.2223,-7.14313 1.26989,-1.58736 2.85725,-2.59269 4.18005,-3.28055 1.32281,-0.68786 2.32813,-1.16406 2.53978,-1.7461 v -3.17472 m 0,8.09554 c -2.59269,1.11116 -3.70384,3.70385 -3.70384,6.45527 0,0.37039 0.0529,1.00533 0.26456,1.58737 0.21165,0.63494 0.58203,1.11115 1.21698,1.11115 1.21697,0 2.2223,-0.74077 2.2223,-1.7461 v -7.40769" />
    </g>
    <g
       id="g3296"
       transform="matrix(1.2688896,0,0,1.2688896,-14.978605,7.8621278)">
      <path
         inkscape:connector-curvature="0"
         id="path3239"
         style="font-style:normal;font-variant:normal;font-weight:normal;font-stretch:normal;font-size:14px;line-height:125%;font-family:'League Gothic';-inkscape-font-specification:'League Gothic';letter-spacing:0px;word-spacing:0px;fill:#000000;fill-opacity:1;stroke:none"
         d="m 57.279739,719.62233 v -5.87324 h 16.50856 v 5.87324 H 68.39127 v 33.01712 h -5.714501 v -33.01712 h -5.39703" />
      <path
         inkscape:connector-curvature="0"
         id="path3241"
         style="font-style:normal;font-variant:normal;font-weight:normal;font-stretch:normal;font-size:14px;line-height:125%;font-family:'League Gothic';-inkscape-font-specification:'League Gothic';letter-spacing:0px;word-spacing:0px;fill:#000000;fill-opacity:1;stroke:none"
         d="m 87.972017,742.26869 v 3.33346 c -0.158736,2.80433 -1.005329,4.76208 -2.910125,6.29653 -0.952417,0.79368 -2.275256,1.16407 -4.021354,1.16407 -3.439245,0 -5.185381,-1.90484 -6.031936,-3.80967 -0.476208,-1.11116 -0.793718,-2.38104 -0.84663,-3.80967 V 730.8926 c 0.158736,-2.80434 1.058278,-4.86791 2.963112,-6.45527 0.899467,-0.79368 2.222306,-1.16407 3.968366,-1.16407 3.439284,0 5.185419,1.90483 6.031974,3.75676 0.476209,1.11115 0.793719,2.32813 0.846593,3.70384 v 8.41302 h -8.836275 v 6.29653 c 0.05291,1.11115 0.370385,1.90483 0.846593,2.48687 0.26456,0.26456 0.634945,0.42329 1.111115,0.42329 1.005329,0 1.481576,-0.63494 1.693224,-1.42862 0.158736,-0.4233 0.211648,-0.89951 0.211648,-1.48154 v -3.17472 h 4.973695 m -8.836275,-7.30187 h 3.86258 v -4.07422 c 0,-1.11116 -0.211648,-1.90484 -0.740807,-2.53978 -0.26456,-0.26456 -0.687856,-0.4233 -1.164065,-0.4233 -1.005291,0 -1.428625,0.68786 -1.693148,1.48154 -0.158736,0.4233 -0.211648,0.8995 -0.26456,1.48154 v 4.07422" />
      <path
         inkscape:connector-curvature="0"
         id="path3243"
         style="font-style:normal;font-variant:normal;font-weight:normal;font-stretch:normal;font-size:14px;line-height:125%;font-family:'League Gothic';-inkscape-font-specification:'League Gothic';letter-spacing:0px;word-spacing:0px;fill:#000000;fill-opacity:1;stroke:none"
         d="m 105.34372,752.63945 h -5.02664 v -22.91092 c 0,-1.11115 -0.846594,-1.26989 -1.428627,-1.26989 -0.582032,0 -1.058241,0.31747 -1.428625,0.68786 -0.211648,0.21165 -0.423296,0.42329 -0.582033,0.68786 v 22.80509 h -5.344117 v -28.94289 h 5.344117 v 2.43395 c 0.105824,-0.0529 0.317473,-0.26456 0.634945,-0.58203 0.582033,-0.58203 1.481537,-1.37571 2.433954,-1.90483 0.476206,-0.26457 0.899506,-0.37039 1.375716,-0.37039 1.90483,0 3.01598,1.53445 3.59802,3.22764 0.21165,-0.15874 0.47621,-0.4233 0.84659,-0.79368 0.68786,-0.74077 1.58736,-1.42863 2.59269,-2.01066 0.47621,-0.26456 0.95242,-0.4233 1.42863,-0.4233 1.42862,0 2.43395,0.84659 3.06889,1.90483 0.63495,1.11116 0.95242,2.53978 0.95242,3.75676 v 23.7046 h -5.02664 v -22.91092 c 0,-1.11115 -0.8466,-1.26989 -1.42863,-1.26989 -0.58203,0 -1.05824,0.31747 -1.42862,0.68786 -0.21165,0.21165 -0.4233,0.42329 -0.58204,0.68786 v 22.80509" />
      <path
         inkscape:connector-curvature="0"
         id="path3245"
         style="font-style:normal;font-variant:normal;font-weight:normal;font-stretch:normal;font-size:14px;line-height:125%;font-family:'League Gothic';-inkscape-font-specification:'League Gothic';letter-spacing:0px;word-spacing:0px;fill:#000000;fill-opacity:1;stroke:none"
         d="m 117.88637,723.69656 h 5.34412 v 1.90483 c 0.89951,-0.84659 1.69319,-1.48154 2.75143,-1.95774 0.47621,-0.26457 1.00533,-0.37039 1.48154,-0.37039 1.48153,0 2.48686,0.84659 3.17472,1.90483 0.63494,1.11116 0.95242,2.53978 0.95242,3.75676 v 18.46631 c 0,1.21697 -0.31748,2.6456 -0.95242,3.70384 -0.68786,1.11115 -1.69319,1.95775 -3.17472,1.95775 -1.00533,0 -2.06357,-0.58204 -2.85726,-1.16407 -0.4762,-0.37038 -0.8995,-0.74077 -1.37571,-1.16406 v 11.85229 h -5.34412 v -38.89035 m 5.34412,22.59344 c 0,0.8466 0.79368,1.7461 1.58736,1.7461 0.79368,0 1.42863,-0.74077 1.42863,-1.7461 v -16.244 c 0,-1.00533 -0.63495,-1.74609 -1.42863,-1.74609 -0.79368,0 -1.58736,0.74076 -1.58736,1.74609 v 16.244" />
      <path
         inkscape:connector-curvature="0"
         id="path3247"
         style="font-style:normal;font-variant:normal;font-weight:normal;font-stretch:normal;font-size:14px;line-height:125%;font-family:'League Gothic';-inkscape-font-specification:'League Gothic';letter-spacing:0px;word-spacing:0px;fill:#000000;fill-opacity:1;stroke:none"
         d="m 148.88951,745.60215 c -0.15874,2.80433 -1.00533,4.76208 -2.85725,6.29653 -0.95242,0.79368 -2.27522,1.16407 -4.02132,1.16407 -3.43928,0 -5.13247,-1.90484 -5.97906,-3.80967 -0.47621,-1.11116 -0.79368,-2.38104 -0.84659,-3.80967 V 730.8926 c 0.15873,-2.80434 1.00533,-4.86791 2.85725,-6.45527 0.8995,-0.79368 2.22231,-1.16407 3.9684,-1.16407 3.43929,0 5.18538,1.90483 6.03198,3.75676 0.47621,1.11115 0.79368,2.32813 0.84659,3.70384 v 14.86829 m -5.02664,-14.70955 c 0.0529,-1.11116 -0.15874,-1.90484 -0.68786,-2.53978 -0.26456,-0.26456 -0.68786,-0.4233 -1.16407,-0.4233 -1.00533,0 -1.42862,0.68786 -1.64027,1.48154 -0.15874,0.4233 -0.21165,0.8995 -0.15874,1.48154 v 14.55081 c -0.0529,1.11115 0.21165,1.90483 0.68786,2.48687 0.26456,0.26456 0.63494,0.42329 1.11115,0.42329 1.00533,0 1.48154,-0.63494 1.69319,-1.42862 0.15874,-0.4233 0.21165,-0.89951 0.15874,-1.48154 V 730.8926" />
      <path
         inkscape:connector-curvature="0"
         id="path3249"
         style="font-style:normal;font-variant:normal;font-weight:normal;font-stretch:normal;font-size:14px;line-height:125%;font-family:'League Gothic';-inkscape-font-specification:'League Gothic';letter-spacing:0px;word-spacing:0px;fill:#000000;fill-opacity:1;stroke:none"
         d="m 163.19477,729.19941 c -0.4762,-0.15874 -1.00532,-0.21165 -1.48153,-0.21165 -0.8466,0 -1.85193,0.10583 -2.69852,0.89951 -1.00533,0.84659 -1.16406,1.74609 -1.16406,2.6456 v 20.10658 h -5.34412 v -28.94289 h 5.34412 v 3.22763 c 0.0529,-0.37038 0.42329,-1.26989 1.26989,-2.11648 0.84659,-0.79368 2.11648,-1.53445 4.07422,-1.53445 v 5.92615" />
      <path
         inkscape:connector-curvature="0"
         id="path3251"
         style="font-style:normal;font-variant:normal;font-weight:normal;font-stretch:normal;font-size:14px;line-height:125%;font-family:'League Gothic';-inkscape-font-specification:'League Gothic';letter-spacing:0px;word-spacing:0px;fill:#000000;fill-opacity:1;stroke:none"
         d="m 173.21004,730.57512 c 0,-0.4762 0,-1.21697 -0.15873,-1.74609 -0.21165,-0.52912 -0.63495,-0.89951 -1.3228,-0.89951 -0.89951,0 -1.26989,0.68786 -1.42863,1.53445 -0.0529,0.4233 -0.10582,0.89951 -0.10582,1.37571 0,0.47621 0,0.95242 0,1.37572 h -5.34412 v -1.21698 c 0,-2.11648 0.79368,-4.02132 2.06357,-5.44994 1.26989,-1.42863 3.0689,-2.27522 5.13247,-2.27522 1.7461,0 3.33346,0.68786 4.55043,1.85192 1.21698,1.16407 1.95775,2.80434 1.95775,4.70918 v 17.77844 c 0,2.59269 0.15874,3.75676 0.37038,5.02665 h -5.23829 c -0.47621,-0.58203 -0.47621,-1.95775 -0.47621,-2.32813 h -0.37038 c -0.26456,0.47621 -0.74077,1.16406 -1.48154,1.7461 -0.74077,0.58203 -1.7461,1.00533 -2.80434,1.00533 -0.68785,0 -1.79901,-0.26456 -2.6456,-1.32281 -0.89951,-1.00532 -1.64027,-2.80433 -1.64027,-5.82032 0,-3.22764 0.95241,-5.55577 2.2223,-7.14313 1.26989,-1.58736 2.85725,-2.59269 4.18005,-3.28055 1.32281,-0.68785 2.32813,-1.16406 2.53978,-1.74609 v -3.17473 m 0,8.09555 c -2.59269,1.11115 -3.70384,3.70384 -3.70384,6.45527 0,0.37038 0.0529,1.00533 0.26456,1.58736 0.21165,0.63494 0.58203,1.11115 1.21698,1.11115 1.21697,0 2.2223,-0.74077 2.2223,-1.7461 v -7.40768" />
      <path
         inkscape:connector-curvature="0"
         id="path3253"
         style="font-style:normal;font-variant:normal;font-weight:normal;font-stretch:normal;font-size:14px;line-height:125%;font-family:'League Gothic';-inkscape-font-specification:'League Gothic';letter-spacing:0px;word-spacing:0px;fill:#000000;fill-opacity:1;stroke:none"
         d="m 181.95954,752.63945 v -38.89036 h 5.34412 v 38.89036 h -5.34412" />
    </g>
  </g>
</svg>
